<?xml version="1.0" encoding="utf-8"?>
<!-- Generator: Adobe Illustrator 21.0.0, SVG Export Plug-In . SVG Version: 6.00 Build 0)  -->
<svg version="1.1" xmlns="http://www.w3.org/2000/svg" xmlns:xlink="http://www.w3.org/1999/xlink" x="0px" y="0px"
	 viewBox="0 0 216.6 375.4" style="enable-background:new 0 0 216.6 375.4;" xml:space="preserve">
<style type="text/css">
	.st0{fill:#1E1E1E;stroke:#000000;stroke-width:0.25;stroke-miterlimit:10;}
	.st1{fill:none;stroke:#FFFFFF;stroke-width:1.0413;stroke-miterlimit:10;}
	.st2{fill:#FF97BF;}
	.st3{fill:#FFFFFF;}
	.st4{fill:#139605;}
	.st5{fill:none;stroke:#000000;stroke-width:0.2379;stroke-miterlimit:10;}
	.st6{fill:#FFDA00;}
	.st7{fill:#F9D07D;}
	.st8{fill:#2D1E03;}
	.st9{fill:#008FF9;}
	.st10{fill:#EAB306;}
	.st11{fill:none;stroke:#0416B7;stroke-width:0.7335;stroke-miterlimit:10;}
	.st12{fill:#0416B7;stroke:#0416B7;stroke-width:0.9861;stroke-miterlimit:10;}
	.st13{fill:none;stroke:#0416B7;stroke-width:0.7818;stroke-miterlimit:10;}
	.st14{fill:none;stroke:#FFFFFF;stroke-width:1.2135;stroke-miterlimit:10;}
	.st15{opacity:9.000000e-02;}
</style>
<g id="Calque_1">
	<path class="st0" d="M0.1,154.8V7.8C0.1,3.5,3.6,0,7.9,0h200.9c4.3,0,7.8,3.5,7.8,7.8v359.7c0,4.3-3.5,7.8-7.8,7.8H7.8
		c-4.3,0-7.8-3.5-7.8-7.8V222.1c0-2,1.1-3.8,2.9-4.6l2.3-1.2c1.8-0.9,2.9-2.7,2.9-4.6V163c0-2.2-1.4-4.3-3.6-5l-2.8-0.9
		C0.7,156.7,0.1,155.8,0.1,154.8L0.1,154.8z"/>
	<rect x="12.1" y="93.4" class="st1" width="192.4" height="199.5"/>
	<g id="XMLID_28_">
		<g>
			<path d="M194.5,260.8c0.3,0,0.4,0.2,0.4,0.4c0,0.8-0.1,1.5-0.1,2.2c0,0.2-0.2,0.4-0.4,0.4c-0.1,0-0.1,0-0.1,0
				c-0.2,0-0.4-0.2-0.4-0.4c0.1-0.7,0.1-1.4,0.1-2.1C194.2,261,194.3,260.8,194.5,260.8z"/>
			<path d="M194.8,258.6c0,0.2-0.2,0.4-0.4,0.4h-0.1c-0.2,0-0.4-0.2-0.4-0.4c-0.1-0.7-0.2-1.4-0.4-2c-0.1-0.2,0.1-0.4,0.3-0.5
				c0.2-0.1,0.4,0.1,0.5,0.3C194.6,257.2,194.7,257.9,194.8,258.6z"/>
			<path d="M194.1,266.2c0.3,0.1,0.4,0.3,0.3,0.5c-0.2,0.7-0.4,1.4-0.6,2.1c-0.1,0.2-0.2,0.3-0.4,0.3c-0.1,0-0.1,0-0.2,0
				c-0.2-0.1-0.3-0.3-0.3-0.5c0.2-0.6,0.4-1.3,0.6-2C193.6,266.3,193.8,266.2,194.1,266.2z"/>
			<path d="M193.5,253.2c0.1,0.2,0,0.5-0.2,0.5c-0.1,0-0.1,0-0.2,0c-0.2,0-0.3-0.1-0.4-0.3c-0.3-0.6-0.5-1.3-0.8-1.9
				c-0.1-0.2-0.1-0.4,0.2-0.5c0.2-0.1,0.4-0.1,0.5,0.2C193,251.9,193.2,252.5,193.5,253.2z"/>
			<path d="M191.2,273.7c-0.1,0.1-0.2,0.2-0.3,0.2c-0.1,0-0.2,0-0.2-0.1c-0.2-0.2-0.2-0.4-0.1-0.5c0.4-0.6,0.8-1.2,1.1-1.8
				c0.1-0.2,0.3-0.3,0.5-0.2c0.2,0.1,0.3,0.3,0.2,0.5C192,272.5,191.6,273.2,191.2,273.7z"/>
			<path d="M190.9,248.4c0.1,0.2,0.1,0.4-0.1,0.5c-0.1,0.1-0.2,0.1-0.2,0.1c-0.1,0-0.3-0.1-0.3-0.2c-0.4-0.5-0.8-1.1-1.3-1.6
				c-0.2-0.2-0.1-0.4,0.1-0.6c0.2-0.2,0.4-0.1,0.6,0.1C190.1,247.2,190.5,247.8,190.9,248.4z"/>
			<path d="M172.3,236c13.9,0,25.2,11.3,25.2,25.2s-11.3,25.2-25.2,25.2c-13.9,0-25.2-11.3-25.2-25.2S158.4,236,172.3,236z
				 M196.7,261.2c0-13.5-10.9-24.4-24.4-24.4c-13.5,0-24.4,10.9-24.4,24.4s10.9,24.4,24.4,24.4C185.8,285.7,196.7,274.7,196.7,261.2
				z"/>
			<path d="M187.1,277.9c-0.2-0.2-0.2-0.4,0-0.6c0.5-0.5,1-1,1.5-1.5c0.2-0.2,0.4-0.2,0.6-0.1c0.2,0.2,0.2,0.4,0.1,0.6
				c-0.5,0.5-1,1.1-1.6,1.6c-0.1,0.1-0.2,0.1-0.3,0.1C187.3,278,187.2,278,187.1,277.9z"/>
			<path d="M187.3,244.2c0.2,0.2,0.2,0.4,0.1,0.6c-0.1,0.1-0.2,0.2-0.3,0.2c-0.1,0-0.2-0.1-0.3-0.1c-0.5-0.5-1.1-0.9-1.7-1.3
				c-0.2-0.2-0.2-0.4-0.1-0.6c0.2-0.2,0.4-0.2,0.6-0.1C186.2,243.3,186.8,243.7,187.3,244.2z"/>
			<path class="st2" d="M186.1,261.2c0.1,0.7,0.1,1.5,0.1,2.2c0,4.7-2.1,8.3-4.8,10.7c0.3-1.6,0.3-4.5-1.8-5.7
				c-0.2-0.1-0.4-0.1-0.5,0.2s-0.1,0.4,0.2,0.5c2.3,1.3,1.4,5.2,1.2,5.9c-1.3,1-2.7,1.8-4,2.3c-0.3,0.1-0.5,0.2-0.9,0.3
				c-0.2,0-0.3,0.1-0.4,0.1c-1.2,0-2.2-0.8-2.5-1.8c0.1-0.2,0.1-0.3,0.1-0.5v-10.2c1.5,0.8,5,2.2,7.8-0.4c0.2,1,0.9,2.6,2.5,3h0.1
				c0.2,0,0.4-0.2,0.4-0.3c0.1-0.2-0.1-0.4-0.3-0.5c-1.8-0.3-2-3-2-3c0-0.2-0.1-0.3-0.3-0.4s-0.3,0-0.4,0.1
				c-2.9,3.3-6.7,1.3-7.7,0.6V256c0.4-0.3,1.1-0.7,1.8-0.6c0.5,0.1,0.9,0.3,1.3,0.8c0.1,0.1,0.2,0.2,0.3,0.2c0.1,0,0.2-0.1,0.3-0.1
				c0.2-0.2,0.2-0.4,0.1-0.6c-0.5-0.6-1.1-1-1.8-1.1c-0.7-0.1-1.4,0.2-1.9,0.5v-8.1c0-0.2,0-0.3-0.1-0.5c0.2-1,1.2-1.7,2.4-1.7
				c0.5,0,0.9,0.1,1.3,0.3c0.2,0.2,0.4,0.3,0.6,0.5c0.7,0.6,1.4,1.2,2,1.8c0,0,0.3,0.3,0.3,1c0,0.7-0.3,1.7-1.3,3.3
				c-0.1,0.2-0.1,0.4,0.1,0.5c0.1,0.1,0.2,0.1,0.2,0.1c0.1,0,0.3-0.1,0.3-0.2c1-1.6,1.3-2.7,1.4-3.6c1.4,1.6,2.6,3.2,3.5,5
				c-0.1,0.5-0.8,2.3-3,2.6c-0.2,0.1-0.4,0.3-0.3,0.5c0.1,0.2,0.2,0.3,0.4,0.3h0.1c1.9-0.4,2.9-1.6,3.3-2.5c0.9,1.8,1.5,3.8,1.7,5.8
				c-1.5-1.1-4.8-2.6-8.8,0.6c-0.2,0.2-0.2,0.4-0.1,0.6c0.1,0.1,0.2,0.2,0.3,0.2c0.1,0,0.2-0.1,0.3-0.1
				C182.1,257.7,185.5,260.7,186.1,261.2z M179.6,254.4c0.1-0.2-0.1-0.4-0.3-0.5c-1.4-0.5-2.3-1.2-2.7-2.2c-0.5-1.1-0.1-2.2-0.1-2.2
				c0.1-0.2,0-0.4-0.2-0.5c-0.2-0.1-0.4,0-0.5,0.2c0,0.1-0.5,1.4,0.1,2.9c0.5,1.2,1.6,2,3.2,2.6c0.1,0,0.1,0,0.2,0
				C179.4,254.7,179.6,254.6,179.6,254.4z M178.1,274.3c0-0.1,0.4-1.8-0.6-3.3c-0.6-0.9-1.7-1.5-3.2-1.7c-0.2-0.1-0.4,0.1-0.5,0.3
				c-0.1,0.2,0.1,0.4,0.3,0.5c1.2,0.2,2.1,0.6,2.6,1.4c0.8,1.2,0.5,2.7,0.5,2.7c-0.1,0.2,0.1,0.4,0.3,0.5c0.1,0,0.1,0,0.1,0
				C177.9,274.7,178.1,274.6,178.1,274.3z"/>
			<path d="M185.2,279.5c0.1,0.2,0.1,0.4-0.1,0.5c-0.6,0.4-1.2,0.8-1.9,1.1c-0.1,0.1-0.2,0.1-0.2,0.1c-0.2,0-0.3-0.1-0.4-0.2
				c-0.1-0.2-0.1-0.4,0.2-0.5c0.6-0.4,1.2-0.8,1.8-1.1C184.8,279.2,185.1,279.2,185.2,279.5z"/>
			<path d="M182.8,241.2c0.2,0.1,0.3,0.3,0.2,0.5c-0.1,0.2-0.2,0.2-0.4,0.2c-0.1,0-0.1,0-0.2-0.1c-0.6-0.4-1.3-0.6-1.9-0.9
				c-0.2-0.1-0.3-0.3-0.2-0.5c0.1-0.2,0.3-0.3,0.5-0.2C181.4,240.5,182.1,240.8,182.8,241.2z"/>
			<path d="M180.4,282c0.1,0.2,0,0.5-0.2,0.5c-0.7,0.2-1.4,0.5-2.1,0.6c-0.1,0-0.1,0-0.1,0c-0.2,0-0.3-0.2-0.4-0.3
				c-0.1-0.2,0.1-0.4,0.3-0.5c0.7-0.2,1.4-0.4,2-0.6C180.2,281.7,180.4,281.8,180.4,282z"/>
			<path d="M179.3,253.9c0.2,0.1,0.3,0.3,0.3,0.5c-0.1,0.2-0.2,0.3-0.4,0.3c-0.1,0-0.1,0-0.2,0c-1.6-0.6-2.6-1.5-3.2-2.6
				c-0.6-1.5-0.1-2.8-0.1-2.9c0.1-0.2,0.3-0.3,0.5-0.2c0.2,0.1,0.3,0.3,0.2,0.5c0,0-0.4,1.1,0.1,2.2
				C177,252.6,177.9,253.4,179.3,253.9z"/>
			<path d="M177.5,271c1,1.5,0.6,3.3,0.6,3.3c0,0.2-0.2,0.3-0.4,0.3c-0.1,0-0.1,0-0.1,0c-0.2-0.1-0.4-0.3-0.3-0.5
				c0,0,0.3-1.5-0.5-2.7c-0.5-0.8-1.4-1.2-2.6-1.4c-0.2-0.1-0.4-0.3-0.3-0.5c0.1-0.2,0.3-0.4,0.5-0.3
				C175.8,269.5,176.8,270.1,177.5,271z"/>
			<path d="M177.6,239.2c0.2,0.1,0.4,0.3,0.3,0.5c-0.1,0.2-0.2,0.3-0.4,0.3c-0.1,0-0.1,0-0.1,0c-0.7-0.2-1.4-0.3-2.1-0.4
				c-0.2-0.1-0.4-0.2-0.4-0.5c0.1-0.2,0.3-0.4,0.5-0.3C176.2,238.8,176.9,239,177.6,239.2z"/>
			<path d="M175.4,283.3c0,0.2-0.2,0.4-0.4,0.4c-0.8,0.1-1.5,0.2-2.2,0.2c-0.3,0-0.4-0.2-0.4-0.4c0-0.3,0.2-0.4,0.4-0.4
				c0.7-0.1,1.4-0.1,2.1-0.2C175,283,175.2,283.1,175.4,283.3z"/>
			<path d="M172.6,238.9c0.1,0.3-0.2,0.4-0.4,0.4c-0.7,0-1.4,0.1-2.2,0.1c-0.2,0-0.4-0.2-0.5-0.4c0-0.2,0.2-0.4,0.4-0.4
				c0.8-0.1,1.5-0.1,2.2-0.1C172.4,238.6,172.6,238.7,172.6,238.9z"/>
			<path class="st2" d="M171.9,275.3c0,0.2,0,0.3,0.1,0.5c-0.3,1-1.3,1.8-2.5,1.8c-0.2,0-0.3,0-0.4-0.1c-0.3-0.1-0.6-0.2-0.9-0.3
				c-1.3-0.5-2.7-1.2-4-2.3c-0.2-0.7-1-4.6,1.2-5.9c0.2-0.1,0.3-0.4,0.2-0.5c-0.1-0.2-0.4-0.3-0.5-0.2c-2.2,1.2-2.1,4.1-1.8,5.7
				c-2.7-2.4-4.8-6-4.8-10.7c0-0.8,0.1-1.5,0.1-2.2c0.6-0.6,4-3.5,8.5,0.2c0.1,0.1,0.2,0.1,0.3,0.1s0.2-0.1,0.3-0.2
				c0.2-0.2,0.1-0.4-0.1-0.6c-4-3.3-7.3-1.7-8.8-0.6c0.3-2,0.9-3.9,1.7-5.8c0.4,0.9,1.4,2.1,3.3,2.5h0.1c0.2,0,0.4-0.2,0.4-0.3
				c0.1-0.2-0.1-0.4-0.3-0.5c-2.3-0.4-2.9-2.2-3-2.6c0.9-1.7,2.1-3.4,3.5-5c0.1,0.9,0.4,2,1.4,3.6c0.1,0.1,0.2,0.2,0.3,0.2
				c0.1,0,0.2,0,0.2-0.1c0.2-0.1,0.2-0.4,0.1-0.5c-2-3.1-1-4.3-1-4.3c0.6-0.6,1.3-1.2,2-1.8c0.2-0.2,0.4-0.3,0.6-0.5
				c0.4-0.2,0.9-0.3,1.3-0.3c1.2,0.1,2.2,0.8,2.4,1.8c-0.1,0.2-0.1,0.3-0.1,0.5v8.1c-0.5-0.3-1.1-0.5-1.9-0.5
				c-0.7,0.1-1.3,0.4-1.8,1.1c-0.2,0.2-0.1,0.4,0.1,0.6c0.1,0.1,0.2,0.1,0.3,0.1c0.1,0,0.2-0.1,0.3-0.2c0.4-0.5,0.8-0.8,1.3-0.8
				c0.8-0.1,1.5,0.4,1.8,0.6v8.2c-1.1,0.7-4.9,2.7-7.8-0.6c-0.1-0.1-0.3-0.2-0.4-0.1c-0.2,0.1-0.3,0.2-0.3,0.4c0,0.1-0.2,2.7-2,3
				c-0.2,0.1-0.4,0.3-0.3,0.5c0.1,0.2,0.2,0.3,0.4,0.3h0.1c1.7-0.3,2.3-1.9,2.5-3c2.9,2.6,6.3,1.2,7.8,0.4V275.3z M170.5,270
				c0.2-0.1,0.4-0.2,0.3-0.5c-0.1-0.2-0.2-0.4-0.5-0.3c-1.5,0.2-2.5,0.8-3.2,1.8c-1,1.5-0.6,3.2-0.6,3.3c0.1,0.2,0.2,0.3,0.4,0.3
				c0.1,0,0.1,0,0.1,0c0.2-0.1,0.4-0.3,0.3-0.5c0,0-0.3-1.5,0.5-2.7C168.4,270.7,169.3,270.2,170.5,270z M168.7,252.1
				c0.6-1.5,0.1-2.8,0.1-2.9c-0.1-0.2-0.3-0.3-0.5-0.2c-0.2,0-0.3,0.3-0.2,0.5c0,0,0.4,1.1-0.1,2.2c-0.4,0.9-1.3,1.6-2.7,2.2
				c-0.2,0.1-0.3,0.3-0.3,0.5c0.1,0.2,0.2,0.3,0.4,0.3c0.1,0,0.1,0,0.2,0C167.2,254.1,168.2,253.3,168.7,252.1z"/>
			<path d="M170.8,269.5c0.1,0.3-0.1,0.4-0.3,0.5c-1.2,0.2-2.1,0.7-2.6,1.5c-0.8,1.2-0.5,2.7-0.5,2.7c0.1,0.2-0.1,0.4-0.3,0.5
				c-0.1,0-0.1,0-0.1,0c-0.2,0-0.4-0.1-0.4-0.3c0-0.1-0.4-1.9,0.6-3.3c0.6-1,1.7-1.6,3.2-1.8C170.6,269.2,170.8,269.3,170.8,269.5z"
				/>
			<path class="st3" d="M170,239.5c0.8-0.1,1.5-0.1,2.2-0.1c0.2,0,0.4-0.2,0.4-0.4c0-0.2-0.2-0.4-0.4-0.4c-0.8,0-1.5,0.1-2.2,0.1
				c-0.2,0-0.4,0.2-0.4,0.4C169.6,239.3,169.8,239.5,170,239.5z M150,261.4c0.2,0,0.4-0.2,0.4-0.4c0-0.7,0.1-1.4,0.1-2.1
				c0-0.2-0.2-0.4-0.4-0.4c-0.2-0.1-0.4,0.2-0.4,0.4c-0.1,0.7-0.1,1.5-0.1,2.2C149.6,261.2,149.8,261.4,150,261.4z M172.3,236.8
				c13.5,0,24.4,10.9,24.4,24.4s-10.9,24.4-24.4,24.4c-13.5,0-24.4-10.9-24.4-24.4S158.8,236.8,172.3,236.8z M195,261.2
				c0-0.2-0.2-0.4-0.4-0.4c-0.2,0.1-0.4,0.3-0.4,0.5c0,0.7-0.1,1.4-0.1,2.1c0,0.2,0.2,0.4,0.4,0.4c0,0,0,0,0.1,0
				c0.2,0,0.4-0.2,0.4-0.4C194.9,262.7,195,261.9,195,261.2z M194.4,259c0.2,0,0.4-0.2,0.4-0.4c-0.1-0.8-0.2-1.5-0.4-2.2
				c-0.1-0.2-0.3-0.4-0.5-0.3c-0.2,0.1-0.4,0.3-0.3,0.5c0.2,0.6,0.3,1.3,0.4,2C194,258.9,194.2,259,194.4,259L194.4,259z
				 M194.4,266.7c0.1-0.2-0.1-0.4-0.3-0.5c-0.2-0.1-0.4,0.1-0.5,0.3c-0.2,0.6-0.4,1.3-0.6,2c-0.1,0.2,0.1,0.4,0.3,0.5
				c0.1,0,0.1,0,0.2,0c0.2,0,0.3-0.1,0.4-0.3C194,268.1,194.2,267.4,194.4,266.7z M193.3,253.8c0.2-0.1,0.3-0.3,0.2-0.5
				c-0.3-0.7-0.5-1.3-0.9-2c-0.1-0.2-0.3-0.3-0.5-0.2c-0.2,0.1-0.3,0.3-0.2,0.5c0.3,0.6,0.5,1.2,0.8,1.9c0.1,0.2,0.2,0.3,0.4,0.3
				C193.2,253.8,193.2,253.8,193.3,253.8z M192.3,271.9c0.1-0.2,0.1-0.4-0.2-0.5c-0.2-0.1-0.4-0.1-0.5,0.2c-0.3,0.6-0.7,1.2-1.1,1.8
				c-0.1,0.2-0.1,0.4,0.1,0.5c0.1,0.1,0.2,0.1,0.2,0.1c0.1,0,0.3-0.1,0.3-0.2C191.6,273.2,192,272.5,192.3,271.9z M190.8,248.9
				c0.2-0.1,0.2-0.4,0.1-0.5c-0.4-0.6-0.9-1.2-1.3-1.7c-0.2-0.2-0.4-0.2-0.6-0.1c-0.2,0.2-0.2,0.4-0.1,0.6c0.5,0.5,1,1.1,1.3,1.6
				c0.1,0.1,0.2,0.2,0.3,0.2C190.7,249,190.8,249,190.8,248.9z M189.3,276.3c0.2-0.2,0.2-0.4-0.1-0.6c-0.2-0.2-0.4-0.2-0.6,0.1
				c-0.5,0.5-1,1-1.5,1.5c-0.2,0.2-0.2,0.4,0,0.6c0.1,0.1,0.2,0.1,0.3,0.1c0.1,0,0.2-0.1,0.3-0.1
				C188.2,277.4,188.8,276.9,189.3,276.3z M187.4,244.8c0.2-0.2,0.1-0.4-0.1-0.6c-0.5-0.5-1.1-1-1.7-1.4c-0.2-0.1-0.4-0.1-0.6,0.1
				c-0.1,0.2-0.1,0.4,0.1,0.6c0.6,0.4,1.1,0.9,1.7,1.3c0.1,0.1,0.2,0.1,0.3,0.1C187.2,245,187.3,244.9,187.4,244.8z M187.1,263.4
				c0-0.8-0.1-1.6-0.1-2.3c-0.3-3.1-1.3-6-2.8-8.7c-1.5-2.7-3.7-5.2-6.5-7.5c-0.3-0.2-0.5-0.4-0.8-0.5c-0.5-0.3-1.1-0.4-1.7-0.4
				c-1.2,0-2.3,0.6-2.9,1.5c-0.6-0.9-1.7-1.5-2.9-1.5c-0.6-0.1-1.2,0.1-1.8,0.4c-0.3,0.2-0.5,0.3-0.7,0.5c-2.8,2.3-4.9,4.8-6.5,7.5
				c-1.5,2.7-2.5,5.6-2.8,8.7c-0.1,0.8-0.1,1.5-0.1,2.3c0,7.9,5.5,12.8,10.3,14.5c0.3,0.2,0.6,0.3,1,0.3c0.2,0.1,0.4,0.1,0.6,0.1
				c1.2,0,2.3-0.6,2.9-1.5c0.6,0.9,1.7,1.5,2.9,1.5c0.2,0,0.4,0,0.6-0.1c0,0,0,0,0.1,0c0.3-0.1,0.6-0.2,0.9-0.3
				c2.4-0.9,4.9-2.6,6.9-5C185.7,270.5,187.1,267.3,187.1,263.4z M185.1,280c0.2-0.1,0.2-0.4,0.1-0.5c-0.2-0.2-0.4-0.3-0.6-0.2
				c-0.6,0.4-1.2,0.8-1.8,1.1c-0.2,0.1-0.3,0.4-0.2,0.5c0.1,0.2,0.2,0.2,0.4,0.2c0.1,0,0.1,0,0.2-0.1
				C183.9,280.8,184.5,280.4,185.1,280z M183,241.7c0.1-0.2,0-0.4-0.2-0.5c-0.6-0.4-1.3-0.6-2-0.9c-0.2-0.1-0.4,0-0.5,0.2
				c-0.1,0.2,0,0.4,0.2,0.5c0.6,0.3,1.3,0.5,1.9,0.9c0.1,0.1,0.1,0.1,0.2,0.1C182.7,241.9,182.8,241.9,183,241.7z M180.2,282.5
				c0.2-0.1,0.3-0.3,0.2-0.5c-0.1-0.2-0.3-0.3-0.5-0.3c-0.6,0.3-1.3,0.5-2,0.6c-0.2,0.1-0.3,0.3-0.3,0.5c0.1,0.2,0.2,0.3,0.4,0.3
				c0.1,0,0.1,0,0.1,0C178.8,283,179.5,282.7,180.2,282.5z M177.9,239.6c0.1-0.2-0.1-0.4-0.3-0.5c-0.7-0.2-1.5-0.3-2.2-0.4
				c-0.2-0.1-0.4,0.1-0.5,0.3c0,0.3,0.2,0.5,0.4,0.5c0.7,0.1,1.4,0.2,2.1,0.4c0.1,0,0.1,0,0.1,0C177.7,240,177.9,239.9,177.9,239.6z
				 M175,283.8c0.2,0,0.4-0.2,0.4-0.4c-0.2-0.2-0.3-0.4-0.5-0.4c-0.7,0.1-1.4,0.1-2.1,0.2c-0.2,0-0.4,0.2-0.4,0.4
				c0,0.2,0.2,0.4,0.4,0.4C173.5,283.9,174.2,283.9,175,283.8z M169.8,283.4c0.1-0.2-0.1-0.4-0.3-0.4c-0.7-0.1-1.4-0.2-2.1-0.4
				c-0.2-0.1-0.4,0.1-0.5,0.3c-0.1,0.2,0.1,0.4,0.3,0.5c0.7,0.2,1.5,0.3,2.2,0.4h0.1C169.6,283.8,169.8,283.6,169.8,283.4z
				 M166.9,240.1c0.2-0.1,0.3-0.3,0.3-0.5c-0.1-0.2-0.3-0.3-0.5-0.3c-0.7,0.2-1.4,0.4-2.1,0.6c-0.2,0.1-0.3,0.3-0.3,0.5
				c0.1,0.1,0.2,0.2,0.4,0.2c0.1,0,0.1,0,0.2,0C165.5,240.4,166.2,240.2,166.9,240.1z M164.6,282.2c0.1-0.3,0-0.5-0.2-0.5
				c-0.6-0.3-1.3-0.5-1.9-0.9c-0.2-0.1-0.4,0-0.5,0.2c-0.1,0.2,0,0.4,0.2,0.5c0.6,0.3,1.3,0.6,2,0.9c0.1,0,0.1,0.1,0.2,0.1
				C164.4,282.5,164.5,282.4,164.6,282.2z M162,242c0.2-0.1,0.3-0.4,0.2-0.5c-0.1-0.2-0.4-0.3-0.5-0.2c-0.6,0.3-1.3,0.7-1.9,1.1
				c-0.2,0.1-0.2,0.4-0.1,0.5c0.1,0.1,0.2,0.2,0.3,0.2c0.1,0,0.2,0,0.2-0.1C160.8,242.7,161.3,242.3,162,242z M159.7,279.7
				c0.1-0.2,0.1-0.4-0.1-0.5c-0.5-0.5-1.1-0.9-1.6-1.3c-0.2-0.2-0.4-0.1-0.6,0.1c-0.2,0.2-0.1,0.4,0.1,0.6c0.5,0.5,1.1,0.9,1.7,1.3
				c0.1,0.1,0.2,0.1,0.2,0.1C159.5,279.9,159.7,279.8,159.7,279.7z M157.7,245c0.2-0.2,0.2-0.4,0.1-0.6c-0.2-0.2-0.4-0.2-0.6-0.1
				c-0.5,0.5-1.1,1-1.6,1.6c-0.2,0.2-0.2,0.4,0,0.6c0.1,0.1,0.2,0.1,0.3,0.1s0.2-0.1,0.3-0.1C156.7,245.9,157.1,245.5,157.7,245z
				 M155.7,276.2c0.2-0.2,0.2-0.4,0.1-0.6c-0.5-0.5-0.9-1.1-1.3-1.7c-0.1-0.2-0.4-0.2-0.6-0.1c-0.2,0.1-0.2,0.4-0.1,0.6
				c0.4,0.6,0.9,1.2,1.3,1.7c0.1,0.1,0.2,0.2,0.3,0.2C155.6,276.3,155.7,276.2,155.7,276.2z M154.3,249c0-0.2-0.1-0.4-0.2-0.5
				c-0.2-0.1-0.4-0.1-0.5,0.1c-0.4,0.6-0.8,1.2-1.1,1.9c-0.1,0.2-0.1,0.4,0.2,0.5c0.1,0.1,0.1,0.1,0.2,0.1c0.2,0,0.3-0.1,0.4-0.2
				C153.5,250.2,153.9,249.6,154.3,249z M152.6,271.8c0.2-0.1,0.3-0.3,0.2-0.5c-0.3-0.6-0.6-1.3-0.9-1.9c-0.1-0.2-0.3-0.3-0.5-0.2
				c-0.2,0.1-0.3,0.3-0.2,0.5c0.3,0.7,0.6,1.3,0.9,2c0.1,0.2,0.2,0.2,0.4,0.2C152.5,271.8,152.6,271.8,152.6,271.8z M151.7,253.6
				c0.1-0.1,0-0.4-0.2-0.4c-0.2-0.1-0.4,0.1-0.5,0.2c-0.3,0.7-0.5,1.4-0.6,2.1c-0.1,0.2,0.1,0.4,0.3,0.5c0.1,0,0.1,0,0.1,0
				c0.2,0,0.3-0.1,0.4-0.3C151.2,254.9,151.4,254.3,151.7,253.6z M150.7,266.7c0.2-0.1,0.4-0.3,0.3-0.5c-0.2-0.7-0.4-1.4-0.4-2.1
				c-0.1-0.2-0.2-0.4-0.4-0.3c-0.2,0.1-0.4,0.2-0.3,0.4c0.1,0.7,0.2,1.5,0.4,2.2c0.1,0.2,0.2,0.3,0.4,0.3
				C150.7,266.7,150.7,266.7,150.7,266.7z"/>
			<path d="M169.5,283c0.2,0,0.4,0.2,0.3,0.4c0,0.2-0.2,0.4-0.4,0.4h-0.1c-0.7-0.1-1.5-0.2-2.2-0.4c-0.2-0.1-0.4-0.3-0.3-0.5
				c0.1-0.2,0.3-0.4,0.5-0.3C168.1,282.7,168.8,282.9,169.5,283z"/>
			<path d="M168.8,249.3c0,0.1,0.5,1.4-0.1,2.9c-0.5,1.1-1.6,2-3.2,2.6c-0.1,0-0.1,0-0.2,0c-0.2,0-0.3-0.1-0.4-0.3
				c-0.1-0.2,0.1-0.5,0.3-0.5c1.3-0.5,2.3-1.2,2.7-2.2c0.5-1.1,0.1-2.2,0.1-2.2c-0.1-0.2,0-0.5,0.2-0.5
				C168.5,249,168.7,249.1,168.8,249.3z"/>
			<path d="M167.7,244.3c0.6-0.3,1.2-0.5,1.8-0.4c1.2,0,2.3,0.6,2.9,1.5c0.6-0.9,1.7-1.5,2.9-1.5c0.6,0,1.2,0.2,1.7,0.4
				c0.3,0.2,0.5,0.3,0.8,0.5c2.8,2.3,4.9,4.8,6.5,7.5c1.5,2.7,2.5,5.6,2.8,8.7c0.1,0.8,0.1,1.5,0.1,2.3c0,3.9-1.4,7.1-3.4,9.6
				c-2,2.4-4.6,4.1-6.9,5c-0.3,0.2-0.6,0.3-0.9,0.3c-0.1,0-0.1,0-0.1,0c-0.2,0.1-0.4,0.1-0.6,0.1c-1.2,0-2.3-0.6-2.9-1.5
				c-0.6,0.9-1.7,1.5-2.9,1.5c-0.2,0-0.4,0-0.6-0.1c-0.3-0.1-0.6-0.2-1-0.3c-4.7-1.8-10.3-6.7-10.3-14.5c0-0.8,0.1-1.6,0.1-2.3
				c0.3-3.1,1.3-6,2.8-8.7c1.5-2.7,3.7-5.2,6.5-7.5C167.2,244.6,167.4,244.4,167.7,244.3z M186.2,263.4c0-0.7-0.1-1.5-0.1-2.2
				c-0.6-0.6-4-3.5-8.5,0.2c-0.1,0.1-0.2,0.1-0.3,0.1c-0.1,0-0.3-0.1-0.3-0.2c-0.2-0.2-0.1-0.4,0.1-0.6c4-3.3,7.3-1.7,8.8-0.6
				c-0.3-2-0.9-3.9-1.7-5.8c-0.4,0.9-1.4,2.1-3.3,2.5h-0.1c-0.2,0-0.3-0.1-0.4-0.3c-0.1-0.2,0.1-0.4,0.3-0.5c2.2-0.4,2.9-2.2,3-2.6
				c-0.9-1.7-2.1-3.4-3.5-5c-0.1,0.9-0.4,2-1.4,3.6c-0.1,0.1-0.2,0.2-0.3,0.2c-0.1,0-0.2,0-0.2-0.1c-0.2-0.1-0.2-0.4-0.1-0.5
				c1-1.5,1.3-2.6,1.3-3.3c0-0.7-0.3-1-0.3-1c-0.6-0.6-1.3-1.2-2-1.8c-0.2-0.2-0.4-0.3-0.6-0.5c-0.4-0.2-0.8-0.3-1.3-0.3
				c-1.2,0-2.3,0.8-2.4,1.7c0.1,0.2,0.1,0.3,0.1,0.5v8.1c0.5-0.3,1.2-0.5,1.9-0.5c0.7,0.1,1.3,0.4,1.8,1.1c0.2,0.2,0.1,0.4-0.1,0.6
				c-0.1,0.1-0.2,0.1-0.3,0.1c-0.1,0-0.3-0.1-0.3-0.2c-0.4-0.5-0.8-0.7-1.3-0.8c-0.8-0.1-1.5,0.4-1.8,0.6v8.2c1,0.6,4.8,2.7,7.7-0.6
				c0.1-0.1,0.3-0.2,0.4-0.1s0.3,0.2,0.3,0.4c0,0,0.2,2.7,2,3c0.2,0.1,0.4,0.3,0.3,0.5c0,0.2-0.2,0.3-0.4,0.3h-0.1
				c-1.7-0.3-2.3-1.9-2.5-3c-2.9,2.6-6.3,1.2-7.8,0.4v10.2c0,0.2,0,0.3-0.1,0.5c0.3,1,1.3,1.8,2.5,1.8c0.1,0,0.3-0.1,0.4-0.1
				c0.3-0.1,0.6-0.2,0.9-0.3c1.3-0.5,2.7-1.2,4-2.3c0.2-0.7,1-4.6-1.2-5.9c-0.2-0.1-0.3-0.3-0.2-0.5s0.3-0.3,0.5-0.2
				c2.2,1.2,2.1,4.1,1.8,5.7C184.1,271.7,186.2,268.1,186.2,263.4z M172,275.7c-0.1-0.2-0.1-0.3-0.1-0.5v-10.2
				c-1.5,0.8-5,2.2-7.8-0.4c-0.2,1-0.9,2.6-2.5,3h-0.1c-0.2,0-0.3-0.1-0.4-0.3c-0.1-0.2,0.1-0.4,0.3-0.5c1.8-0.3,2-3,2-3
				c0-0.2,0.1-0.3,0.3-0.4c0.2-0.1,0.3,0,0.4,0.1c2.9,3.3,6.7,1.3,7.8,0.6V256c-0.4-0.3-1.1-0.7-1.8-0.6c-0.5,0-0.9,0.3-1.3,0.8
				c-0.1,0.1-0.2,0.2-0.3,0.2c-0.1,0-0.2-0.1-0.3-0.1c-0.2-0.2-0.2-0.4-0.1-0.6c0.5-0.6,1.1-1,1.8-1.1c0.8-0.1,1.4,0.2,1.9,0.5v-8.1
				c0-0.2,0-0.3,0.1-0.5c-0.3-1-1.2-1.7-2.4-1.8c-0.5,0-1,0.1-1.3,0.3c-0.2,0.2-0.4,0.3-0.6,0.5c-0.7,0.6-1.3,1.2-2,1.8
				c-0.1,0.1-1.1,1.2,1,4.3c0.1,0.2,0.1,0.4-0.1,0.5c-0.1,0.1-0.2,0.1-0.2,0.1c-0.1,0-0.3-0.1-0.3-0.2c-1-1.6-1.3-2.7-1.4-3.6
				c-1.4,1.6-2.6,3.2-3.5,5c0.1,0.5,0.7,2.2,3,2.6c0.2,0.1,0.4,0.3,0.3,0.5c0,0.2-0.2,0.3-0.4,0.3h-0.1c-1.9-0.4-2.9-1.6-3.3-2.5
				c-0.9,1.8-1.4,3.8-1.7,5.8c1.5-1.1,4.9-2.6,8.8,0.6c0.2,0.2,0.2,0.4,0.1,0.6c-0.1,0.1-0.2,0.2-0.3,0.2s-0.2-0.1-0.3-0.1
				c-4.4-3.7-7.8-0.8-8.5-0.2c-0.1,0.7-0.1,1.4-0.1,2.2c0,4.7,2.1,8.3,4.8,10.7c-0.3-1.6-0.3-4.5,1.8-5.7c0.2-0.1,0.4-0.1,0.5,0.2
				c0.1,0.2,0.1,0.4-0.2,0.5c-2.3,1.3-1.4,5.2-1.2,5.9c1.3,1,2.7,1.8,4,2.3c0.3,0.1,0.5,0.2,0.9,0.3c0.1,0.1,0.3,0.1,0.4,0.1
				C170.7,277.5,171.7,276.8,172,275.7z"/>
			<path d="M167.2,239.6c0.1,0.2-0.1,0.4-0.3,0.5c-0.7,0.2-1.4,0.4-2,0.6c-0.1,0-0.1,0-0.2,0c-0.2,0-0.3-0.1-0.4-0.2
				c-0.1-0.2,0.1-0.5,0.3-0.5c0.7-0.3,1.4-0.5,2.1-0.6C166.9,239.3,167.2,239.4,167.2,239.6z"/>
			<path d="M164.4,281.7c0.2,0.1,0.3,0.3,0.2,0.5c-0.1,0.2-0.2,0.3-0.4,0.3c-0.1,0-0.1-0.1-0.2-0.1c-0.6-0.3-1.3-0.6-2-0.9
				c-0.2-0.1-0.3-0.3-0.2-0.5c0.1-0.2,0.3-0.3,0.5-0.2C163.1,281.1,163.7,281.4,164.4,281.7z"/>
			<path d="M162.2,241.4c0.1,0.2,0.1,0.4-0.2,0.5c-0.6,0.3-1.2,0.7-1.8,1.1c-0.1,0.1-0.2,0.1-0.2,0.1c-0.1,0-0.3-0.1-0.3-0.2
				c-0.1-0.2-0.1-0.4,0.1-0.5c0.6-0.4,1.2-0.8,1.9-1.1C161.8,241.2,162,241.2,162.2,241.4z"/>
			<path d="M159.6,279.2c0.2,0.1,0.2,0.4,0.1,0.5c-0.1,0.1-0.2,0.2-0.3,0.2c-0.1,0-0.2,0-0.2-0.1c-0.6-0.4-1.2-0.9-1.7-1.3
				c-0.2-0.2-0.2-0.4-0.1-0.6c0.2-0.2,0.4-0.2,0.6-0.1C158.5,278.3,159.1,278.7,159.6,279.2z"/>
			<path d="M157.7,244.4c0.1,0.2,0.1,0.4-0.1,0.6c-0.5,0.5-1,1-1.5,1.5c-0.1,0.1-0.2,0.1-0.3,0.1s-0.2,0-0.3-0.1
				c-0.2-0.2-0.2-0.4,0-0.6c0.5-0.5,1-1.1,1.6-1.6C157.3,244.2,157.6,244.2,157.7,244.4z"/>
			<path d="M155.8,275.6c0.1,0.2,0.1,0.4-0.1,0.6c-0.1,0.1-0.2,0.1-0.3,0.1c-0.1,0-0.3-0.1-0.3-0.2c-0.5-0.5-0.9-1.1-1.3-1.7
				c-0.1-0.2-0.1-0.5,0.1-0.6c0.2-0.1,0.5-0.1,0.6,0.1C154.9,274.5,155.3,275,155.8,275.6z"/>
			<path d="M154.1,248.4c0.2,0.1,0.2,0.4,0.2,0.5c-0.4,0.6-0.8,1.2-1.1,1.8c-0.1,0.2-0.2,0.2-0.4,0.2c-0.1,0-0.2,0-0.2-0.1
				c-0.2-0.1-0.3-0.3-0.2-0.5c0.3-0.6,0.7-1.3,1.1-1.9C153.6,248.4,153.9,248.3,154.1,248.4z"/>
			<path d="M152.8,271.2c0.1,0.2,0.1,0.4-0.2,0.5c-0.1,0.1-0.1,0.1-0.2,0.1c-0.2,0-0.3-0.1-0.4-0.2c-0.3-0.6-0.6-1.3-0.9-2
				c-0.1-0.2,0-0.4,0.2-0.5c0.2-0.1,0.4,0,0.5,0.2C152.2,269.9,152.5,270.6,152.8,271.2z"/>
			<path d="M151.5,253.2c0.2,0.1,0.3,0.3,0.2,0.4c-0.3,0.7-0.5,1.3-0.6,2c-0.1,0.2-0.2,0.3-0.4,0.3c-0.1,0-0.1,0-0.1,0
				c-0.2-0.1-0.3-0.3-0.3-0.5c0.2-0.7,0.4-1.4,0.6-2.1C151.1,253.2,151.3,253.1,151.5,253.2z"/>
			<path d="M151.1,266.3c0.1,0.2-0.1,0.4-0.3,0.5c-0.1,0-0.1,0-0.1,0c-0.2,0-0.3-0.2-0.4-0.3c-0.2-0.7-0.3-1.5-0.4-2.2
				c-0.1-0.2,0.1-0.4,0.3-0.4c0.2-0.1,0.4,0.1,0.4,0.3C150.7,264.9,150.8,265.6,151.1,266.3z"/>
			<path d="M150.2,258.4c0.2,0,0.4,0.2,0.4,0.4c-0.1,0.7-0.1,1.4-0.1,2.1c-0.1,0.2-0.2,0.4-0.4,0.4c-0.3,0-0.4-0.2-0.4-0.3
				c0-0.8,0.1-1.5,0.1-2.2C149.8,258.6,150,258.4,150.2,258.4z"/>
		</g>
		<g>
		</g>
	</g>
	<g id="XMLID_3_">
		<g>
			<path d="M66.6,261.8c0.3,0,0.4,0.2,0.4,0.4c0,0.8-0.1,1.5-0.1,2.2c0,0.2-0.2,0.4-0.4,0.4c-0.1,0-0.1,0-0.1,0
				c-0.2,0-0.4-0.2-0.4-0.4c0.1-0.7,0.1-1.4,0.1-2.1C66.2,262.1,66.4,261.8,66.6,261.8z"/>
			<path d="M66.9,259.6c0,0.2-0.2,0.4-0.4,0.4h-0.1c-0.2,0-0.4-0.2-0.4-0.4c-0.1-0.7-0.2-1.4-0.4-2c-0.1-0.2,0.1-0.4,0.3-0.5
				c0.2-0.1,0.4,0.1,0.5,0.3C66.7,258.2,66.8,258.9,66.9,259.6z"/>
			<path d="M66.1,267.2c0.3,0.1,0.4,0.3,0.3,0.5c-0.2,0.7-0.4,1.4-0.6,2.1c-0.1,0.2-0.2,0.3-0.4,0.3c-0.1,0-0.1,0-0.2,0
				c-0.2-0.1-0.3-0.3-0.3-0.5c0.2-0.6,0.4-1.3,0.6-2C65.7,267.3,65.9,267.2,66.1,267.2z"/>
			<path d="M65.6,254.2c0.1,0.2,0,0.5-0.2,0.5c-0.1,0-0.1,0-0.2,0c-0.2,0-0.3-0.1-0.4-0.3c-0.3-0.6-0.5-1.3-0.8-1.9
				c-0.1-0.2-0.1-0.4,0.2-0.5c0.2-0.1,0.4-0.1,0.5,0.2C65,252.9,65.3,253.5,65.6,254.2z"/>
			<path d="M63.3,274.8c-0.1,0.1-0.2,0.2-0.3,0.2c-0.1,0-0.2,0-0.2-0.1c-0.2-0.2-0.2-0.4-0.1-0.5c0.4-0.6,0.8-1.2,1.1-1.8
				c0.1-0.2,0.3-0.3,0.5-0.2c0.2,0.1,0.3,0.3,0.2,0.5C64,273.5,63.6,274.2,63.3,274.8z"/>
			<path d="M63,249.4c0.1,0.2,0.1,0.4-0.1,0.5c-0.1,0.1-0.2,0.1-0.2,0.1c-0.1,0-0.3-0.1-0.3-0.2c-0.4-0.5-0.8-1.1-1.3-1.6
				c-0.2-0.2-0.1-0.4,0.1-0.6c0.2-0.2,0.4-0.1,0.6,0.1C62.1,248.2,62.6,248.8,63,249.4z"/>
			<path d="M44.4,237.1c13.9,0,25.2,11.3,25.2,25.2c0,13.9-11.3,25.2-25.2,25.2s-25.2-11.3-25.2-25.2
				C19.1,248.4,30.5,237.1,44.4,237.1z M68.8,262.3c0-13.5-10.9-24.4-24.4-24.4c-13.5,0-24.4,10.9-24.4,24.4s10.9,24.4,24.4,24.4
				C57.8,286.7,68.8,275.7,68.8,262.3z"/>
			<path d="M59.8,278.9c-0.1,0.1-0.2,0.1-0.3,0.1c-0.1,0-0.3,0-0.3-0.1c-0.2-0.2-0.2-0.4,0-0.6c0.5-0.5,1-1,1.5-1.5
				c0.2-0.2,0.4-0.2,0.6-0.1c0.2,0.2,0.2,0.4,0.1,0.6C60.8,277.9,60.3,278.4,59.8,278.9z"/>
			<path d="M59.4,245.2c0.2,0.2,0.2,0.4,0.1,0.6c-0.1,0.1-0.2,0.2-0.3,0.2c-0.1,0-0.2-0.1-0.3-0.1c-0.5-0.5-1.1-0.9-1.7-1.3
				c-0.2-0.2-0.2-0.4-0.1-0.6c0.2-0.2,0.4-0.2,0.6-0.1C58.3,244.3,58.9,244.8,59.4,245.2z"/>
			<path d="M57.3,280.5c0.1,0.2,0.1,0.4-0.1,0.5c-0.6,0.4-1.2,0.8-1.9,1.1c-0.1,0.1-0.2,0.1-0.2,0.1c-0.2,0-0.3-0.1-0.4-0.2
				c-0.1-0.2-0.1-0.4,0.2-0.5c0.6-0.4,1.2-0.8,1.8-1.1C56.9,280.2,57.1,280.3,57.3,280.5z"/>
			<path d="M54.9,242.2c0.2,0.1,0.3,0.3,0.2,0.5c-0.1,0.2-0.2,0.2-0.4,0.2c-0.1,0-0.1,0-0.2-0.1c-0.6-0.4-1.3-0.6-1.9-0.9
				c-0.2-0.1-0.3-0.3-0.2-0.5c0.1-0.2,0.3-0.3,0.5-0.2C53.5,241.5,54.2,241.8,54.9,242.2z"/>
			<path d="M52.5,283c0.1,0.2,0,0.5-0.2,0.5c-0.7,0.2-1.4,0.5-2.1,0.6c-0.1,0-0.1,0-0.1,0c-0.2,0-0.3-0.2-0.4-0.3
				c-0.1-0.2,0.1-0.4,0.3-0.5c0.7-0.2,1.4-0.4,2-0.6C52.2,282.7,52.4,282.8,52.5,283z"/>
			<path d="M49.7,240.2c0.2,0.1,0.4,0.3,0.3,0.5c-0.1,0.2-0.2,0.3-0.4,0.3c-0.1,0-0.1,0-0.1,0c-0.7-0.2-1.4-0.3-2.1-0.4
				c-0.2-0.1-0.4-0.2-0.4-0.5c0.1-0.2,0.3-0.4,0.5-0.3C48.2,239.9,49,240,49.7,240.2z"/>
			<path d="M47.4,284.4c0,0.2-0.2,0.4-0.4,0.4c-0.8,0.1-1.5,0.2-2.2,0.2c-0.3,0-0.4-0.2-0.4-0.4c0-0.3,0.2-0.4,0.4-0.4
				c0.7-0.1,1.4-0.1,2.1-0.2C47.1,284,47.3,284.1,47.4,284.4z"/>
			<circle class="st4" cx="44.4" cy="262.2" r="1.7"/>
			<path d="M44.6,240c0.1,0.3-0.2,0.4-0.4,0.4c-0.7,0-1.4,0.1-2.2,0.1c-0.2,0-0.4-0.2-0.5-0.4c0-0.2,0.2-0.4,0.4-0.4
				c0.8-0.1,1.5-0.1,2.2-0.1C44.5,239.6,44.6,239.7,44.6,240z"/>
			<path class="st3" d="M42.1,240.5c0.8-0.1,1.5-0.1,2.2-0.1c0.2,0,0.4-0.2,0.4-0.4c0-0.2-0.2-0.4-0.4-0.4c-0.8,0-1.5,0.1-2.2,0.1
				c-0.2,0-0.4,0.2-0.4,0.4C41.7,240.3,41.9,240.5,42.1,240.5z M22.1,262.4c0.2,0,0.4-0.2,0.4-0.4c0-0.7,0.1-1.4,0.1-2.1
				c0-0.2-0.2-0.4-0.4-0.4c-0.2-0.1-0.4,0.2-0.4,0.4c-0.1,0.7-0.1,1.5-0.1,2.2C21.7,262.2,21.8,262.4,22.1,262.4z M44.4,237.9
				c13.5,0,24.4,10.9,24.4,24.4s-10.9,24.4-24.4,24.4c-13.5,0-24.4-10.9-24.4-24.4S30.9,237.9,44.4,237.9z M67,262.2
				c0-0.2-0.2-0.4-0.4-0.4c-0.2,0.1-0.4,0.3-0.4,0.5c0,0.7-0.1,1.4-0.1,2.1c0,0.2,0.2,0.4,0.4,0.4c0,0,0,0,0.1,0
				c0.2,0,0.4-0.2,0.4-0.4C67,263.7,67,263,67,262.2z M66.5,260.1c0.2,0,0.4-0.2,0.4-0.4c-0.1-0.8-0.2-1.5-0.4-2.2
				c-0.1-0.2-0.3-0.4-0.5-0.3c-0.2,0.1-0.4,0.3-0.3,0.5c0.2,0.6,0.3,1.3,0.4,2C66.1,259.9,66.3,260.1,66.5,260.1L66.5,260.1z
				 M66.4,267.7c0.1-0.2-0.1-0.4-0.3-0.5c-0.2-0.1-0.4,0.1-0.5,0.3c-0.2,0.6-0.4,1.3-0.6,2c-0.1,0.2,0.1,0.4,0.3,0.5
				c0.1,0,0.1,0,0.2,0c0.2,0,0.3-0.1,0.4-0.3C66.1,269.1,66.2,268.4,66.4,267.7z M65.4,254.8c0.2-0.1,0.3-0.3,0.2-0.5
				c-0.3-0.7-0.5-1.3-0.9-2c-0.1-0.2-0.3-0.3-0.5-0.2c-0.2,0.1-0.3,0.3-0.2,0.5c0.3,0.6,0.5,1.2,0.8,1.9c0.1,0.2,0.2,0.3,0.4,0.3
				C65.3,254.8,65.3,254.8,65.4,254.8z M64.4,272.9c0.1-0.2,0.1-0.4-0.2-0.5c-0.2-0.1-0.4-0.1-0.5,0.2c-0.3,0.6-0.7,1.2-1.1,1.8
				c-0.1,0.2-0.1,0.4,0.1,0.5c0.1,0.1,0.2,0.1,0.2,0.1c0.1,0,0.3-0.1,0.3-0.2C63.6,274.2,64,273.5,64.4,272.9z M62.9,249.9
				c0.2-0.1,0.2-0.4,0.1-0.5c-0.4-0.6-0.9-1.2-1.3-1.7c-0.2-0.2-0.4-0.2-0.6-0.1c-0.2,0.2-0.2,0.4-0.1,0.6c0.5,0.5,1,1.1,1.3,1.6
				c0.1,0.1,0.2,0.2,0.3,0.2C62.7,250,62.8,250,62.9,249.9z M61.3,277.4c0.2-0.2,0.2-0.4-0.1-0.6c-0.2-0.2-0.4-0.2-0.6,0.1
				c-0.5,0.5-1,1-1.5,1.5c-0.2,0.2-0.2,0.4,0,0.6c0.1,0.1,0.2,0.1,0.3,0.1c0.1,0,0.2-0.1,0.3-0.1C60.3,278.4,60.8,277.9,61.3,277.4z
				 M59.4,245.8c0.2-0.2,0.1-0.4-0.1-0.6c-0.5-0.5-1.1-1-1.7-1.4c-0.2-0.1-0.4-0.1-0.6,0.1c-0.1,0.2-0.1,0.4,0.1,0.6
				c0.6,0.4,1.1,0.9,1.7,1.3c0.1,0.1,0.2,0.1,0.3,0.1C59.2,246,59.3,245.9,59.4,245.8z M57.2,281c0.2-0.1,0.2-0.4,0.1-0.5
				c-0.2-0.2-0.4-0.3-0.6-0.2c-0.6,0.4-1.2,0.8-1.8,1.1c-0.2,0.1-0.3,0.4-0.2,0.5c0.1,0.2,0.2,0.2,0.4,0.2c0.1,0,0.1,0,0.2-0.1
				C55.9,281.8,56.6,281.4,57.2,281z M55,242.7c0.1-0.2,0-0.4-0.2-0.5c-0.6-0.4-1.3-0.6-2-0.9c-0.2-0.1-0.4,0-0.5,0.2
				c-0.1,0.2,0,0.4,0.2,0.5c0.6,0.3,1.3,0.5,1.9,0.9c0.1,0.1,0.1,0.1,0.2,0.1C54.8,242.9,54.9,242.9,55,242.7z M52.3,283.6
				c0.2-0.1,0.3-0.3,0.2-0.5c-0.1-0.2-0.3-0.3-0.5-0.3c-0.6,0.3-1.3,0.5-2,0.6c-0.2,0.1-0.3,0.3-0.3,0.5c0.1,0.2,0.2,0.3,0.4,0.3
				c0.1,0,0.1,0,0.1,0C50.9,284,51.6,283.8,52.3,283.6z M50,240.7c0.1-0.2-0.1-0.4-0.3-0.5c-0.7-0.2-1.5-0.3-2.2-0.4
				c-0.2-0.1-0.4,0.1-0.5,0.3c0,0.3,0.2,0.5,0.4,0.5c0.7,0.1,1.4,0.2,2.1,0.4c0.1,0,0.1,0,0.1,0C49.8,241,50,240.9,50,240.7z
				 M47.1,284.8c0.2,0,0.4-0.2,0.4-0.4c-0.2-0.2-0.3-0.4-0.5-0.4c-0.7,0.1-1.4,0.1-2.1,0.2c-0.2,0-0.4,0.2-0.4,0.4
				c0,0.2,0.2,0.4,0.4,0.4C45.6,285,46.3,284.9,47.1,284.8z M46.1,262.2c0-1-0.8-1.7-1.7-1.7c-1,0-1.7,0.8-1.7,1.7
				c0,1,0.8,1.7,1.7,1.7C45.3,264,46.1,263.2,46.1,262.2z M41.9,284.4c0.1-0.2-0.1-0.4-0.3-0.4c-0.7-0.1-1.4-0.2-2.1-0.4
				c-0.2-0.1-0.4,0.1-0.5,0.3c-0.1,0.2,0.1,0.4,0.3,0.5c0.7,0.2,1.5,0.3,2.2,0.4h0.1C41.7,284.8,41.9,284.6,41.9,284.4z M39,241.1
				c0.2-0.1,0.3-0.3,0.3-0.5c-0.1-0.2-0.3-0.3-0.5-0.3c-0.7,0.2-1.4,0.4-2.1,0.6c-0.2,0.1-0.3,0.3-0.3,0.5c0.1,0.1,0.2,0.2,0.4,0.2
				c0.1,0,0.1,0,0.2,0C37.6,241.5,38.3,241.3,39,241.1z M36.7,283.2c0.1-0.3,0-0.5-0.2-0.5c-0.6-0.3-1.3-0.5-1.9-0.9
				c-0.2-0.1-0.4,0-0.5,0.2c-0.1,0.2,0,0.4,0.2,0.5c0.6,0.3,1.3,0.6,2,0.9c0.1,0,0.1,0.1,0.2,0.1C36.4,283.5,36.6,283.4,36.7,283.2z
				 M34.1,243c0.2-0.1,0.3-0.4,0.2-0.5c-0.1-0.2-0.4-0.3-0.5-0.2c-0.6,0.3-1.3,0.7-1.9,1.1c-0.2,0.1-0.2,0.4-0.1,0.5
				c0.1,0.1,0.2,0.2,0.3,0.2c0.1,0,0.2,0,0.2-0.1C32.8,243.7,33.4,243.3,34.1,243z M31.8,280.8c0.1-0.2,0.1-0.4-0.1-0.5
				c-0.5-0.5-1.1-0.9-1.6-1.3c-0.2-0.2-0.4-0.1-0.6,0.1c-0.2,0.2-0.1,0.4,0.1,0.6c0.5,0.5,1.1,0.9,1.7,1.3c0.1,0.1,0.2,0.1,0.2,0.1
				C31.6,280.9,31.7,280.9,31.8,280.8z M29.8,246c0.2-0.2,0.2-0.4,0.1-0.6c-0.2-0.2-0.4-0.2-0.6-0.1c-0.5,0.5-1.1,1-1.6,1.6
				c-0.2,0.2-0.2,0.4,0,0.6c0.1,0.1,0.2,0.1,0.3,0.1c0.1,0,0.2-0.1,0.3-0.1C28.7,247,29.2,246.5,29.8,246z M27.8,277.2
				c0.2-0.2,0.2-0.4,0.1-0.6c-0.5-0.5-0.9-1.1-1.3-1.7c-0.1-0.2-0.4-0.2-0.6-0.1c-0.2,0.1-0.2,0.4-0.1,0.6c0.4,0.6,0.9,1.2,1.3,1.7
				c0.1,0.1,0.2,0.2,0.3,0.2C27.7,277.3,27.8,277.3,27.8,277.2z M26.4,250c0-0.2-0.1-0.4-0.2-0.5c-0.2-0.1-0.4-0.1-0.5,0.1
				c-0.4,0.6-0.8,1.2-1.1,1.9c-0.1,0.2-0.1,0.4,0.2,0.5c0.1,0.1,0.1,0.1,0.2,0.1c0.2,0,0.3-0.1,0.4-0.2
				C25.6,251.2,25.9,250.6,26.4,250z M24.7,272.8c0.2-0.1,0.3-0.3,0.2-0.5c-0.3-0.6-0.6-1.3-0.9-1.9c-0.1-0.2-0.3-0.3-0.5-0.2
				c-0.2,0.1-0.3,0.3-0.2,0.5c0.3,0.7,0.6,1.3,0.9,2c0.1,0.2,0.2,0.2,0.4,0.2C24.6,272.8,24.6,272.8,24.7,272.8z M23.8,254.6
				c0.1-0.1,0-0.4-0.2-0.4c-0.2-0.1-0.4,0.1-0.5,0.2c-0.3,0.7-0.5,1.4-0.6,2.1c-0.1,0.2,0.1,0.4,0.3,0.5c0.1,0,0.1,0,0.1,0
				c0.2,0,0.3-0.1,0.4-0.3C23.3,256,23.5,255.3,23.8,254.6z M22.8,267.8c0.2-0.1,0.4-0.3,0.3-0.5c-0.2-0.7-0.4-1.4-0.4-2.1
				c-0.1-0.2-0.2-0.4-0.4-0.3c-0.2,0.1-0.4,0.2-0.3,0.4c0.1,0.7,0.2,1.5,0.4,2.2c0.1,0.2,0.2,0.3,0.4,0.3
				C22.8,267.8,22.8,267.8,22.8,267.8z"/>
			<path d="M41.6,284c0.2,0,0.4,0.2,0.3,0.4c0,0.2-0.2,0.4-0.4,0.4h-0.1c-0.7-0.1-1.5-0.2-2.2-0.4c-0.2-0.1-0.4-0.3-0.3-0.5
				c0.1-0.2,0.3-0.4,0.5-0.3C40.2,283.8,40.9,283.9,41.6,284z"/>
			<path d="M39.3,240.6c0.1,0.2-0.1,0.4-0.3,0.5c-0.7,0.2-1.4,0.4-2,0.6c-0.1,0-0.1,0-0.2,0c-0.2,0-0.3-0.1-0.4-0.2
				c-0.1-0.2,0.1-0.5,0.3-0.5c0.7-0.3,1.4-0.5,2.1-0.6C39,240.3,39.2,240.4,39.3,240.6z"/>
			<path d="M36.4,282.7c0.2,0.1,0.3,0.3,0.2,0.5c-0.1,0.2-0.2,0.3-0.4,0.3c-0.1,0-0.1-0.1-0.2-0.1c-0.6-0.3-1.3-0.6-2-0.9
				c-0.2-0.1-0.3-0.3-0.2-0.5c0.1-0.2,0.3-0.3,0.5-0.2C35.1,282.2,35.8,282.4,36.4,282.7z"/>
			<path d="M34.2,242.4c0.1,0.2,0.1,0.4-0.2,0.5c-0.6,0.3-1.2,0.7-1.8,1.1c-0.1,0.1-0.2,0.1-0.2,0.1c-0.1,0-0.3-0.1-0.3-0.2
				c-0.1-0.2-0.1-0.4,0.1-0.5c0.6-0.4,1.2-0.8,1.9-1.1C33.8,242.2,34.1,242.2,34.2,242.4z"/>
			<path d="M31.7,280.2c0.2,0.1,0.2,0.4,0.1,0.5c-0.1,0.1-0.2,0.2-0.3,0.2c-0.1,0-0.2,0-0.2-0.1c-0.6-0.4-1.2-0.9-1.7-1.3
				c-0.2-0.2-0.2-0.4-0.1-0.6c0.2-0.2,0.4-0.2,0.6-0.1C30.6,279.3,31.2,279.7,31.7,280.2z"/>
			<path d="M29.8,245.4c0.1,0.2,0.1,0.4-0.1,0.6c-0.5,0.5-1,1-1.5,1.5c-0.1,0.1-0.2,0.1-0.3,0.1c-0.1,0-0.2,0-0.3-0.1
				c-0.2-0.2-0.2-0.4,0-0.6c0.5-0.5,1-1.1,1.6-1.6C29.4,245.2,29.6,245.2,29.8,245.4z"/>
			<path d="M27.9,276.6c0.1,0.2,0.1,0.4-0.1,0.6c-0.1,0.1-0.2,0.1-0.3,0.1c-0.1,0-0.3-0.1-0.3-0.2c-0.5-0.5-0.9-1.1-1.3-1.7
				c-0.1-0.2-0.1-0.5,0.1-0.6c0.2-0.1,0.5-0.1,0.6,0.1C27,275.5,27.4,276.1,27.9,276.6z"/>
			<path d="M26.1,249.4c0.2,0.1,0.2,0.4,0.2,0.5c-0.4,0.6-0.8,1.2-1.1,1.8c-0.1,0.2-0.2,0.2-0.4,0.2c-0.1,0-0.2,0-0.2-0.1
				c-0.2-0.1-0.3-0.3-0.2-0.5c0.3-0.6,0.7-1.3,1.1-1.9C25.7,249.4,26,249.3,26.1,249.4z"/>
			<path d="M24.9,272.2c0.1,0.2,0.1,0.4-0.2,0.5c-0.1,0.1-0.1,0.1-0.2,0.1c-0.2,0-0.3-0.1-0.4-0.2c-0.3-0.6-0.6-1.3-0.9-2
				c-0.1-0.2,0-0.4,0.2-0.5c0.2-0.1,0.4,0,0.5,0.2C24.3,270.9,24.5,271.6,24.9,272.2z"/>
			<path d="M23.6,254.2c0.2,0.1,0.3,0.3,0.2,0.4c-0.3,0.7-0.5,1.3-0.6,2c-0.1,0.2-0.2,0.3-0.4,0.3c-0.1,0-0.1,0-0.1,0
				c-0.2-0.1-0.3-0.3-0.3-0.5c0.2-0.7,0.4-1.4,0.6-2.1C23.1,254.2,23.3,254.1,23.6,254.2z"/>
			<path d="M23.1,267.3c0.1,0.2-0.1,0.4-0.3,0.5c-0.1,0-0.1,0-0.1,0c-0.2,0-0.3-0.2-0.4-0.3c-0.2-0.7-0.3-1.5-0.4-2.2
				c-0.1-0.2,0.1-0.4,0.3-0.4c0.2-0.1,0.4,0.1,0.4,0.3C22.8,265.9,22.9,266.6,23.1,267.3z"/>
			<path d="M22.3,259.5c0.2,0,0.4,0.2,0.4,0.4c-0.1,0.7-0.1,1.4-0.1,2.1c-0.1,0.2-0.2,0.4-0.4,0.4c-0.3,0-0.4-0.2-0.4-0.3
				c0-0.8,0.1-1.5,0.1-2.2C21.8,259.6,22,259.4,22.3,259.5z"/>
		</g>
		<g>
			<circle class="st5" cx="44.4" cy="262.2" r="1.7"/>
		</g>
	</g>
	<g>
		<g id="XMLID_36_">
			<g>
				<path d="M61.6,202.3c0.4,1,0.6,1.8,0.6,2.5c0,2.4-4.5,2.4-5.9,2.4c-0.3,0-0.6-0.1-0.8-0.3c0,0,0,0,0,0c0,0,0,0,0,0c0,0,0,0,0,0
					c-1.1,0.9-2.4,1.5-3.9,1.5v2.4H37.2v-2.4c-1.5,0-2.9-0.6-3.9-1.5c-0.2,0.2-0.5,0.3-0.8,0.3c-1.5,0-5.9,0-5.9-2.4
					c0-0.7,0.3-1.5,0.6-2.5c0.7-2,1.8-5.1,1.8-10.6c0-8,6.8-14.3,15.5-14.3c4.2,0,8.1,1.5,10.9,4.1c2.9,2.7,4.5,6.3,4.5,10.2
					C59.8,197.2,60.9,200.3,61.6,202.3z M61,204.8c0-1.7-2.4-4.8-2.4-13.1c0-7.3-6.3-13.1-14.3-13.1c-8,0-14.3,5.7-14.3,13.1
					c0,8.3-2.4,11.4-2.4,13.1c0,1.2,4.8,1.2,4.8,1.2v-13.1c8.3-1.2,9.5-7.1,13.7-7.1s4.2,5.9,10.1,7.1V206C56.3,206,61,206,61,204.8
					z M55.1,205.6c0-1.9,0-9.1,0-11.7c-2.9-0.9-4.4-2.8-5.7-4.4c-1.2-1.6-1.9-2.4-3.3-2.4c-1.3,0-2.2,0.8-3.8,2.2
					c-1.8,1.7-4.3,3.9-8.7,4.8v11.6c0.9,1,2.1,1.6,3.6,1.6h14.3C52.9,207.2,54.2,206.6,55.1,205.6z M50.3,209.6v-1.2H38.4v1.2H50.3z
					"/>
				<path class="st6" d="M58.6,191.7c0,8.3,2.4,11.4,2.4,13.1c0,1.2-4.8,1.2-4.8,1.2v-13.1c-5.9-1.2-5.9-7.1-10.1-7.1
					s-5.4,5.9-13.7,7.1V206c0,0-4.7,0-4.8-1.2c0-1.7,2.4-4.8,2.4-13.1c0-7.3,6.3-13.1,14.3-13.1C52.4,178.7,58.6,184.4,58.6,191.7z"
					/>
				<path d="M55.4,206.9C55.4,206.9,55.4,206.9,55.4,206.9C55.4,206.9,55.4,206.9,55.4,206.9C55.4,206.9,55.4,206.9,55.4,206.9z"/>
				<path class="st7" d="M55.1,193.9c0,2.6,0,9.8,0,11.7c-0.9,1-2.1,1.6-3.6,1.6H37.2c-1.4,0-2.7-0.6-3.6-1.6v-11.6
					c4.4-0.9,6.9-3.1,8.7-4.8c1.6-1.4,2.5-2.2,3.8-2.2c1.3,0,2,0.8,3.3,2.4C50.6,191,52.2,193,55.1,193.9z M49.5,200.5
					c0.2-0.2,0.2-0.6,0-0.8c-0.2-0.2-0.6-0.2-0.8,0c-1,1-2.6,1.6-4.3,1.6c-1.7,0-3.3-0.6-4.3-1.6c-0.2-0.2-0.6-0.2-0.8,0
					c-0.2,0.2-0.2,0.6,0,0.8c1.2,1.2,3.1,2,5.2,2C46.4,202.4,48.3,201.7,49.5,200.5z M49.1,195.3c0-0.7-0.5-1.2-1.2-1.2
					c-0.7,0-1.2,0.5-1.2,1.2c0,0.7,0.5,1.2,1.2,1.2C48.6,196.5,49.1,196,49.1,195.3z M42,195.3c0-0.7-0.5-1.2-1.2-1.2
					c-0.7,0-1.2,0.5-1.2,1.2c0,0.7,0.5,1.2,1.2,1.2C41.4,196.5,42,196,42,195.3z"/>
				<rect x="38.4" y="208.4" class="st7" width="11.9" height="1.2"/>
				<path d="M49.5,199.6c0.2,0.2,0.2,0.6,0,0.8c-1.2,1.2-3.1,2-5.2,2c-2,0-3.9-0.7-5.2-2c-0.2-0.2-0.2-0.6,0-0.8
					c0.2-0.2,0.6-0.2,0.8,0c1,1,2.6,1.6,4.3,1.6c1.7,0,3.3-0.6,4.3-1.6C48.9,199.4,49.3,199.4,49.5,199.6z"/>
				<circle cx="47.9" cy="195.3" r="1.2"/>
				<circle cx="40.8" cy="195.3" r="1.2"/>
			</g>
			<g>
			</g>
		</g>
	</g>
	<g id="XMLID_35_">
		<g>
			<path d="M187.9,191.7c0,4-1.4,5-1.8,5.2c-0.2,0.1-0.3,0.1-0.5,0.1v5.4c0,3.3-2.7,5.9-5.9,5.9v2.4h-14.3v-2.4
				c-3.3,0-5.9-2.7-5.9-5.9v-4.8c0,0-0.1,0-0.1,0c-0.3,0-0.7-0.2-0.9-0.5c-0.1-0.2-1.4-2-1.4-5.5c0-8,6.8-14.3,15.5-14.3
				S187.9,183.7,187.9,191.7z M185.5,195.9c0,0,1.2-0.6,1.2-4.2c0-7.3-6.3-13.1-14.3-13.1c-8,0-14.3,5.7-14.3,13.1
				c0,3.1,1.2,4.8,1.2,4.8s2.4-2.4,2.4-7.1c1.2,0.6,2.4,1.2,4.8,1.2c4.8,0,9.9-2.4,14.3-2.4C185.5,188.2,185.5,193,185.5,195.9z
				 M184.3,202.4v-6.5c0-4.2-0.6-6.5-3.6-6.5c-2,0-4.2,0.5-6.6,1.1c-2.5,0.6-5.1,1.3-7.7,1.3c-1.6,0-2.7-0.3-3.7-0.6
				c-0.4,3.1-1.6,5-2.3,5.8v5.5c0,2.6,2.1,4.8,4.8,4.8h1.3l0,0.2l1.9,0.2l0-0.4h7.9l0,0.4l1.9-0.2l0-0.2h1.2
				C182.2,207.2,184.3,205.1,184.3,202.4z M178.4,209.6v-1.2h-11.9v1.2H178.4z"/>
			<path class="st8" d="M186.7,191.7c0,3.6-1.2,4.2-1.2,4.2c0-2.9,0-7.7-4.8-7.7c-4.4,0-9.5,2.4-14.3,2.4c-2.4,0-3.6-0.6-4.8-1.2
				c0,4.8-2.4,7.1-2.4,7.1s-1.2-1.6-1.2-4.8c0-7.3,6.3-13.1,14.3-13.1C180.5,178.7,186.7,184.4,186.7,191.7z"/>
			<path class="st7" d="M184.3,195.9v6.5c0,2.6-2.1,4.8-4.8,4.8h-1.2l-0.6-5.1c0.1-0.2,0.1-0.4-0.1-0.6l-0.6-5.6
				c0.1-0.2,0.2-0.4,0.2-0.6c0-0.7-0.5-1.2-1.2-1.2s-1.2,0.5-1.2,1.2c0,0.3,0.1,0.6,0.3,0.8l0.4,4c-1-0.4-2-0.6-3.2-0.6
				c-1.1,0-2.2,0.2-3.1,0.6l0.5-4c0.2-0.2,0.3-0.5,0.3-0.8c0-0.7-0.5-1.2-1.2-1.2c-0.7,0-1.2,0.5-1.2,1.2c0,0.2,0.1,0.4,0.2,0.6
				l-0.6,5.5c-0.2,0.2-0.2,0.4-0.1,0.7v0l-0.6,5.1h-1.3c-2.6,0-4.8-2.1-4.8-4.8v-5.5c0.6-0.8,1.9-2.7,2.3-5.8
				c0.9,0.3,2.1,0.6,3.7,0.6c2.6,0,5.2-0.6,7.7-1.3c2.3-0.6,4.6-1.1,6.6-1.1C183.8,189.4,184.3,191.7,184.3,195.9z"/>
			<rect x="166.5" y="208.4" class="st7" width="11.9" height="1.2"/>
			<polygon points="178.3,207.2 178.4,207.4 176.5,207.6 176.4,207.2 			"/>
			<path class="st9" d="M178.3,207.2h-1.9l-0.6-5.7c0.4,0.2,0.7,0.5,1,0.8c0.2,0.2,0.6,0.2,0.8,0c0.1-0.1,0.1-0.1,0.1-0.2
				L178.3,207.2z"/>
			<path d="M177.7,201.5c0.1,0.2,0.1,0.4,0.1,0.6L177.7,201.5z"/>
			<path d="M177.7,201.5l0.1,0.6c0,0.1-0.1,0.1-0.1,0.2c-0.2,0.2-0.6,0.2-0.8,0c-0.3-0.3-0.6-0.6-1-0.8l-0.2-1.4
				C176.4,200.4,177.1,200.9,177.7,201.5C177.6,201.5,177.7,201.5,177.7,201.5z"/>
			<path class="st9" d="M177.1,195.9l0.6,5.6c0,0,0-0.1-0.1-0.1c-0.6-0.6-1.2-1-2-1.3l-0.4-4c0.2,0.2,0.5,0.4,0.9,0.4
				C176.5,196.5,176.8,196.3,177.1,195.9z"/>
			<path d="M177.2,195.3c0,0.2-0.1,0.4-0.2,0.6l0-0.2l-1.9,0.2l0,0.2c-0.2-0.2-0.3-0.5-0.3-0.8c0-0.7,0.5-1.2,1.2-1.2
				S177.2,194.7,177.2,195.3z"/>
			<path d="M177,195.7l0,0.2c-0.2,0.4-0.6,0.6-1,0.6c-0.3,0-0.6-0.1-0.9-0.4l0-0.2L177,195.7z"/>
			<path class="st7" d="M176.4,207.2h-7.9l0.6-5.7c0.9-0.5,2.1-0.8,3.3-0.8c1.2,0,2.4,0.3,3.3,0.8L176.4,207.2z"/>
			<path d="M175.6,200.1l0.2,1.4c-0.9-0.5-2.1-0.8-3.3-0.8c-1.2,0-2.4,0.3-3.3,0.8l0.2-1.4c0.9-0.4,2-0.6,3.1-0.6
				C173.6,199.5,174.7,199.7,175.6,200.1z"/>
			<path d="M168.9,194.1c0.7,0,1.2,0.5,1.2,1.2c0,0.3-0.1,0.6-0.3,0.8l0-0.2l-1.9-0.2l0,0.2c-0.1-0.2-0.2-0.4-0.2-0.6
				C167.7,194.7,168.2,194.1,168.9,194.1z"/>
			<path d="M169.8,195.9l0,0.2c-0.2,0.2-0.5,0.4-0.9,0.4c-0.4,0-0.8-0.2-1-0.6l0-0.2L169.8,195.9z"/>
			<path class="st9" d="M168.9,196.5c0.3,0,0.7-0.2,0.9-0.4l-0.5,4c-0.8,0.3-1.5,0.8-2,1.3c0,0,0,0,0,0l0.6-5.5
				C168.1,196.3,168.5,196.5,168.9,196.5z"/>
			<path d="M169.3,200.1l-0.2,1.4c-0.4,0.2-0.7,0.5-1,0.8c-0.2,0.2-0.6,0.2-0.8,0c0,0-0.1-0.1-0.1-0.1v0l0.1-0.7c0,0,0,0,0,0
				C167.8,200.9,168.5,200.4,169.3,200.1z"/>
			<path class="st9" d="M169.1,201.5l-0.6,5.7h-1.9l0.6-5.1c0,0.1,0.1,0.1,0.1,0.1c0.2,0.2,0.6,0.2,0.8,0
				C168.4,202,168.8,201.7,169.1,201.5z"/>
			<polygon points="166.6,207.2 168.5,207.2 168.5,207.6 166.6,207.4 			"/>
			<path d="M167.2,201.5l-0.1,0.7C167.1,201.9,167.1,201.7,167.2,201.5z"/>
		</g>
		<g>
		</g>
	</g>
	<g>
		<circle class="st10" cx="172.4" cy="133.5" r="17.7"/>
		<polyline class="st11" points="187.8,133.1 177.4,133.1 174.6,144.8 170.3,122.2 166.1,138.6 163.2,127.5 161.2,133.1 
			157.1,133.1 		"/>
		<circle class="st12" cx="157.1" cy="133.1" r="1"/>
		<circle class="st12" cx="187.8" cy="133.1" r="1"/>
	</g>
	<g>
		<circle class="st10" cx="44.4" cy="133.5" r="17.7"/>
		<polyline class="st13" points="59.7,133.5 49.4,133.5 46,137.1 41.9,130.7 39.7,133.5 29,133.5 		"/>
		<circle class="st12" cx="29" cy="133.5" r="1"/>
		<circle class="st12" cx="59.7" cy="133.5" r="1"/>
	</g>
	<rect x="12.1" y="15.4" class="st14" width="192.4" height="67"/>
</g>
<g id="Calque_2">
	<g class="st15">
		<image style="overflow:visible;" width="289" height="447" xlink:href="9FB974C.png"  transform="matrix(1 0 0 1 -36 -35.6)">
		</image>
	</g>
</g>
</svg>
