<?xml version="1.0" encoding="utf-8"?>
<!-- Generator: Adobe Illustrator 21.0.0, SVG Export Plug-In . SVG Version: 6.00 Build 0)  -->
<svg version="1.1" xmlns="http://www.w3.org/2000/svg" xmlns:xlink="http://www.w3.org/1999/xlink" x="0px" y="0px"
	 viewBox="0 0 216.6 375.4" style="enable-background:new 0 0 216.6 375.4;" xml:space="preserve">
<style type="text/css">
	.st0{fill:#1E1E1E;stroke:#000000;stroke-width:0.25;stroke-miterlimit:10;}
	.st1{fill:none;stroke:#FFFFFF;stroke-width:1.0413;stroke-miterlimit:10;}
	.st2{fill:#FF97BF;}
	.st3{fill:#FFFFFF;}
	.st4{fill:#139605;}
	.st5{fill:none;stroke:#000000;stroke-width:0.2379;stroke-miterlimit:10;}
	.st6{fill:#FFDA00;}
	.st7{fill:#F9D07D;}
	.st8{fill:#2D1E03;}
	.st9{fill:#008FF9;}
	.st10{fill:#EAB306;}
	.st11{fill:none;stroke:#0416B7;stroke-width:0.7335;stroke-miterlimit:10;}
	.st12{fill:#0416B7;stroke:#0416B7;stroke-width:0.9861;stroke-miterlimit:10;}
	.st13{fill:none;stroke:#0416B7;stroke-width:0.7818;stroke-miterlimit:10;}
	.st14{fill:none;stroke:#FFFFFF;stroke-width:1.2135;stroke-miterlimit:10;}
	.st15{fill:#6B0303;}
	.st16{fill:#1E1E1E;}
	.st17{display:none;}
	.st18{display:inline;opacity:9.000000e-02;}
	.st19{opacity:9.000000e-02;}
</style>
<g id="Calque_1">
	<path class="st0" d="M0.1,154.8V7.8C0.1,3.5,3.6,0,7.9,0h200.9c4.3,0,7.8,3.5,7.8,7.8v359.7c0,4.3-3.5,7.8-7.8,7.8H7.8
		c-4.3,0-7.8-3.5-7.8-7.8V222.1c0-2,1.1-3.8,2.9-4.6l2.3-1.2c1.8-0.9,2.9-2.7,2.9-4.6V163c0-2.2-1.4-4.3-3.6-5l-2.8-0.9
		C0.7,156.7,0.1,155.8,0.1,154.8L0.1,154.8z"/>
	<rect x="12.1" y="93.4" class="st1" width="192.4" height="199.5"/>
	<g id="XMLID_28_">
		<g>
			<path d="M194.5,260.8c0.3,0,0.4,0.2,0.4,0.4c0,0.8-0.1,1.5-0.1,2.2c0,0.2-0.2,0.4-0.4,0.4c-0.1,0-0.1,0-0.1,0
				c-0.2,0-0.4-0.2-0.4-0.4c0.1-0.7,0.1-1.4,0.1-2.1C194.2,261,194.3,260.8,194.5,260.8z"/>
			<path d="M194.8,258.6c0,0.2-0.2,0.4-0.4,0.4h-0.1c-0.2,0-0.4-0.2-0.4-0.4c-0.1-0.7-0.2-1.4-0.4-2c-0.1-0.2,0.1-0.4,0.3-0.5
				c0.2-0.1,0.4,0.1,0.5,0.3C194.6,257.2,194.7,257.9,194.8,258.6z"/>
			<path d="M194.1,266.2c0.3,0.1,0.4,0.3,0.3,0.5c-0.2,0.7-0.4,1.4-0.6,2.1c-0.1,0.2-0.2,0.3-0.4,0.3c-0.1,0-0.1,0-0.2,0
				c-0.2-0.1-0.3-0.3-0.3-0.5c0.2-0.6,0.4-1.3,0.6-2C193.6,266.3,193.8,266.2,194.1,266.2z"/>
			<path d="M193.5,253.2c0.1,0.2,0,0.5-0.2,0.5c-0.1,0-0.1,0-0.2,0c-0.2,0-0.3-0.1-0.4-0.3c-0.3-0.6-0.5-1.3-0.8-1.9
				c-0.1-0.2-0.1-0.4,0.2-0.5c0.2-0.1,0.4-0.1,0.5,0.2C193,251.9,193.2,252.5,193.5,253.2z"/>
			<path d="M191.2,273.7c-0.1,0.1-0.2,0.2-0.3,0.2s-0.2,0-0.2-0.1c-0.2-0.2-0.2-0.4-0.1-0.5c0.4-0.6,0.8-1.2,1.1-1.8
				c0.1-0.2,0.3-0.3,0.5-0.2c0.2,0.1,0.3,0.3,0.2,0.5C192,272.5,191.6,273.2,191.2,273.7z"/>
			<path d="M190.9,248.4c0.1,0.2,0.1,0.4-0.1,0.5c-0.1,0.1-0.2,0.1-0.2,0.1c-0.1,0-0.3-0.1-0.3-0.2c-0.4-0.5-0.8-1.1-1.3-1.6
				c-0.2-0.2-0.1-0.4,0.1-0.6c0.2-0.2,0.4-0.1,0.6,0.1C190.1,247.2,190.5,247.8,190.9,248.4z"/>
			<path d="M172.3,236c13.9,0,25.2,11.3,25.2,25.2s-11.3,25.2-25.2,25.2s-25.2-11.3-25.2-25.2C147.1,247.3,158.4,236,172.3,236z
				 M196.7,261.2c0-13.5-10.9-24.4-24.4-24.4s-24.4,10.9-24.4,24.4c0,13.5,10.9,24.4,24.4,24.4C185.8,285.7,196.7,274.7,196.7,261.2
				z"/>
			<path d="M187.1,277.9c-0.2-0.2-0.2-0.4,0-0.6c0.5-0.5,1-1,1.5-1.5c0.2-0.2,0.4-0.2,0.6-0.1c0.2,0.2,0.2,0.4,0.1,0.6
				c-0.5,0.5-1,1.1-1.6,1.6c-0.1,0.1-0.2,0.1-0.3,0.1S187.2,278,187.1,277.9z"/>
			<path d="M187.3,244.2c0.2,0.2,0.2,0.4,0.1,0.6c-0.1,0.1-0.2,0.2-0.3,0.2s-0.2-0.1-0.3-0.1c-0.5-0.5-1.1-0.9-1.7-1.3
				c-0.2-0.2-0.2-0.4-0.1-0.6c0.2-0.2,0.4-0.2,0.6-0.1C186.2,243.3,186.8,243.7,187.3,244.2z"/>
			<path class="st2" d="M186.1,261.2c0.1,0.7,0.1,1.5,0.1,2.2c0,4.7-2.1,8.3-4.8,10.7c0.3-1.6,0.3-4.5-1.8-5.7
				c-0.2-0.1-0.4-0.1-0.5,0.2s-0.1,0.4,0.2,0.5c2.3,1.3,1.4,5.2,1.2,5.9c-1.3,1-2.7,1.8-4,2.3c-0.3,0.1-0.5,0.2-0.9,0.3
				c-0.2,0-0.3,0.1-0.4,0.1c-1.2,0-2.2-0.8-2.5-1.8c0.1-0.2,0.1-0.3,0.1-0.5v-10.2c1.5,0.8,5,2.2,7.8-0.4c0.2,1,0.9,2.6,2.5,3h0.1
				c0.2,0,0.4-0.2,0.4-0.3c0.1-0.2-0.1-0.4-0.3-0.5c-1.8-0.3-2-3-2-3c0-0.2-0.1-0.3-0.3-0.4s-0.3,0-0.4,0.1
				c-2.9,3.3-6.7,1.3-7.7,0.6V256c0.4-0.3,1.1-0.7,1.8-0.6c0.5,0.1,0.9,0.3,1.3,0.8c0.1,0.1,0.2,0.2,0.3,0.2s0.2-0.1,0.3-0.1
				c0.2-0.2,0.2-0.4,0.1-0.6c-0.5-0.6-1.1-1-1.8-1.1s-1.4,0.2-1.9,0.5V247c0-0.2,0-0.3-0.1-0.5c0.2-1,1.2-1.7,2.4-1.7
				c0.5,0,0.9,0.1,1.3,0.3c0.2,0.2,0.4,0.3,0.6,0.5c0.7,0.6,1.4,1.2,2,1.8c0,0,0.3,0.3,0.3,1s-0.3,1.7-1.3,3.3
				c-0.1,0.2-0.1,0.4,0.1,0.5c0.1,0.1,0.2,0.1,0.2,0.1c0.1,0,0.3-0.1,0.3-0.2c1-1.6,1.3-2.7,1.4-3.6c1.4,1.6,2.6,3.2,3.5,5
				c-0.1,0.5-0.8,2.3-3,2.6c-0.2,0.1-0.4,0.3-0.3,0.5c0.1,0.2,0.2,0.3,0.4,0.3h0.1c1.9-0.4,2.9-1.6,3.3-2.5c0.9,1.8,1.5,3.8,1.7,5.8
				c-1.5-1.1-4.8-2.6-8.8,0.6c-0.2,0.2-0.2,0.4-0.1,0.6c0.1,0.1,0.2,0.2,0.3,0.2s0.2-0.1,0.3-0.1
				C182.1,257.7,185.5,260.7,186.1,261.2z M179.6,254.4c0.1-0.2-0.1-0.4-0.3-0.5c-1.4-0.5-2.3-1.2-2.7-2.2c-0.5-1.1-0.1-2.2-0.1-2.2
				c0.1-0.2,0-0.4-0.2-0.5s-0.4,0-0.5,0.2c0,0.1-0.5,1.4,0.1,2.9c0.5,1.2,1.6,2,3.2,2.6c0.1,0,0.1,0,0.2,0S179.6,254.6,179.6,254.4z
				 M178.1,274.3c0-0.1,0.4-1.8-0.6-3.3c-0.6-0.9-1.7-1.5-3.2-1.7c-0.2-0.1-0.4,0.1-0.5,0.3c-0.1,0.2,0.1,0.4,0.3,0.5
				c1.2,0.2,2.1,0.6,2.6,1.4c0.8,1.2,0.5,2.7,0.5,2.7c-0.1,0.2,0.1,0.4,0.3,0.5c0.1,0,0.1,0,0.1,0
				C177.9,274.7,178.1,274.6,178.1,274.3z"/>
			<path d="M185.2,279.5c0.1,0.2,0.1,0.4-0.1,0.5c-0.6,0.4-1.2,0.8-1.9,1.1c-0.1,0.1-0.2,0.1-0.2,0.1c-0.2,0-0.3-0.1-0.4-0.2
				c-0.1-0.2-0.1-0.4,0.2-0.5c0.6-0.4,1.2-0.8,1.8-1.1C184.8,279.2,185.1,279.2,185.2,279.5z"/>
			<path d="M182.8,241.2c0.2,0.1,0.3,0.3,0.2,0.5s-0.2,0.2-0.4,0.2c-0.1,0-0.1,0-0.2-0.1c-0.6-0.4-1.3-0.6-1.9-0.9
				c-0.2-0.1-0.3-0.3-0.2-0.5s0.3-0.3,0.5-0.2C181.4,240.5,182.1,240.8,182.8,241.2z"/>
			<path d="M180.4,282c0.1,0.2,0,0.5-0.2,0.5c-0.7,0.2-1.4,0.5-2.1,0.6c-0.1,0-0.1,0-0.1,0c-0.2,0-0.3-0.2-0.4-0.3
				c-0.1-0.2,0.1-0.4,0.3-0.5c0.7-0.2,1.4-0.4,2-0.6C180.2,281.7,180.4,281.8,180.4,282z"/>
			<path d="M179.3,253.9c0.2,0.1,0.3,0.3,0.3,0.5c-0.1,0.2-0.2,0.3-0.4,0.3c-0.1,0-0.1,0-0.2,0c-1.6-0.6-2.6-1.5-3.2-2.6
				c-0.6-1.5-0.1-2.8-0.1-2.9c0.1-0.2,0.3-0.3,0.5-0.2s0.3,0.3,0.2,0.5c0,0-0.4,1.1,0.1,2.2C177,252.6,177.9,253.4,179.3,253.9z"/>
			<path d="M177.5,271c1,1.5,0.6,3.3,0.6,3.3c0,0.2-0.2,0.3-0.4,0.3c-0.1,0-0.1,0-0.1,0c-0.2-0.1-0.4-0.3-0.3-0.5
				c0,0,0.3-1.5-0.5-2.7c-0.5-0.8-1.4-1.2-2.6-1.4c-0.2-0.1-0.4-0.3-0.3-0.5c0.1-0.2,0.3-0.4,0.5-0.3
				C175.8,269.5,176.8,270.1,177.5,271z"/>
			<path d="M177.6,239.2c0.2,0.1,0.4,0.3,0.3,0.5c-0.1,0.2-0.2,0.3-0.4,0.3c-0.1,0-0.1,0-0.1,0c-0.7-0.2-1.4-0.3-2.1-0.4
				c-0.2-0.1-0.4-0.2-0.4-0.5c0.1-0.2,0.3-0.4,0.5-0.3C176.2,238.8,176.9,239,177.6,239.2z"/>
			<path d="M175.4,283.3c0,0.2-0.2,0.4-0.4,0.4c-0.8,0.1-1.5,0.2-2.2,0.2c-0.3,0-0.4-0.2-0.4-0.4c0-0.3,0.2-0.4,0.4-0.4
				c0.7-0.1,1.4-0.1,2.1-0.2C175,283,175.2,283.1,175.4,283.3z"/>
			<path d="M172.6,238.9c0.1,0.3-0.2,0.4-0.4,0.4c-0.7,0-1.4,0.1-2.2,0.1c-0.2,0-0.4-0.2-0.5-0.4c0-0.2,0.2-0.4,0.4-0.4
				c0.8-0.1,1.5-0.1,2.2-0.1C172.4,238.6,172.6,238.7,172.6,238.9z"/>
			<path class="st2" d="M171.9,275.3c0,0.2,0,0.3,0.1,0.5c-0.3,1-1.3,1.8-2.5,1.8c-0.2,0-0.3,0-0.4-0.1c-0.3-0.1-0.6-0.2-0.9-0.3
				c-1.3-0.5-2.7-1.2-4-2.3c-0.2-0.7-1-4.6,1.2-5.9c0.2-0.1,0.3-0.4,0.2-0.5c-0.1-0.2-0.4-0.3-0.5-0.2c-2.2,1.2-2.1,4.1-1.8,5.7
				c-2.7-2.4-4.8-6-4.8-10.7c0-0.8,0.1-1.5,0.1-2.2c0.6-0.6,4-3.5,8.5,0.2c0.1,0.1,0.2,0.1,0.3,0.1s0.2-0.1,0.3-0.2
				c0.2-0.2,0.1-0.4-0.1-0.6c-4-3.3-7.3-1.7-8.8-0.6c0.3-2,0.9-3.9,1.7-5.8c0.4,0.9,1.4,2.1,3.3,2.5h0.1c0.2,0,0.4-0.2,0.4-0.3
				c0.1-0.2-0.1-0.4-0.3-0.5c-2.3-0.4-2.9-2.2-3-2.6c0.9-1.7,2.1-3.4,3.5-5c0.1,0.9,0.4,2,1.4,3.6c0.1,0.1,0.2,0.2,0.3,0.2
				s0.2,0,0.2-0.1c0.2-0.1,0.2-0.4,0.1-0.5c-2-3.1-1-4.3-1-4.3c0.6-0.6,1.3-1.2,2-1.8c0.2-0.2,0.4-0.3,0.6-0.5
				c0.4-0.2,0.9-0.3,1.3-0.3c1.2,0.1,2.2,0.8,2.4,1.8c-0.1,0.2-0.1,0.3-0.1,0.5v8.1c-0.5-0.3-1.1-0.5-1.9-0.5
				c-0.7,0.1-1.3,0.4-1.8,1.1c-0.2,0.2-0.1,0.4,0.1,0.6c0.1,0.1,0.2,0.1,0.3,0.1s0.2-0.1,0.3-0.2c0.4-0.5,0.8-0.8,1.3-0.8
				c0.8-0.1,1.5,0.4,1.8,0.6v8.2c-1.1,0.7-4.9,2.7-7.8-0.6c-0.1-0.1-0.3-0.2-0.4-0.1c-0.2,0.1-0.3,0.2-0.3,0.4c0,0.1-0.2,2.7-2,3
				c-0.2,0.1-0.4,0.3-0.3,0.5c0.1,0.2,0.2,0.3,0.4,0.3h0.1c1.7-0.3,2.3-1.9,2.5-3c2.9,2.6,6.3,1.2,7.8,0.4L171.9,275.3L171.9,275.3z
				 M170.5,270c0.2-0.1,0.4-0.2,0.3-0.5c-0.1-0.2-0.2-0.4-0.5-0.3c-1.5,0.2-2.5,0.8-3.2,1.8c-1,1.5-0.6,3.2-0.6,3.3
				c0.1,0.2,0.2,0.3,0.4,0.3c0.1,0,0.1,0,0.1,0c0.2-0.1,0.4-0.3,0.3-0.5c0,0-0.3-1.5,0.5-2.7C168.4,270.7,169.3,270.2,170.5,270z
				 M168.7,252.1c0.6-1.5,0.1-2.8,0.1-2.9c-0.1-0.2-0.3-0.3-0.5-0.2c-0.2,0-0.3,0.3-0.2,0.5c0,0,0.4,1.1-0.1,2.2
				c-0.4,0.9-1.3,1.6-2.7,2.2c-0.2,0.1-0.3,0.3-0.3,0.5c0.1,0.2,0.2,0.3,0.4,0.3c0.1,0,0.1,0,0.2,0
				C167.2,254.1,168.2,253.3,168.7,252.1z"/>
			<path d="M170.8,269.5c0.1,0.3-0.1,0.4-0.3,0.5c-1.2,0.2-2.1,0.7-2.6,1.5c-0.8,1.2-0.5,2.7-0.5,2.7c0.1,0.2-0.1,0.4-0.3,0.5
				c-0.1,0-0.1,0-0.1,0c-0.2,0-0.4-0.1-0.4-0.3c0-0.1-0.4-1.9,0.6-3.3c0.6-1,1.7-1.6,3.2-1.8C170.6,269.2,170.8,269.3,170.8,269.5z"
				/>
			<path class="st3" d="M170,239.5c0.8-0.1,1.5-0.1,2.2-0.1c0.2,0,0.4-0.2,0.4-0.4s-0.2-0.4-0.4-0.4c-0.8,0-1.5,0.1-2.2,0.1
				c-0.2,0-0.4,0.2-0.4,0.4S169.8,239.5,170,239.5z M150,261.4c0.2,0,0.4-0.2,0.4-0.4c0-0.7,0.1-1.4,0.1-2.1c0-0.2-0.2-0.4-0.4-0.4
				c-0.2-0.1-0.4,0.2-0.4,0.4c-0.1,0.7-0.1,1.5-0.1,2.2C149.6,261.2,149.8,261.4,150,261.4z M172.3,236.8
				c13.5,0,24.4,10.9,24.4,24.4c0,13.5-10.9,24.4-24.4,24.4s-24.4-10.9-24.4-24.4C147.9,247.7,158.8,236.8,172.3,236.8z M195,261.2
				c0-0.2-0.2-0.4-0.4-0.4c-0.2,0.1-0.4,0.3-0.4,0.5c0,0.7-0.1,1.4-0.1,2.1c0,0.2,0.2,0.4,0.4,0.4c0,0,0,0,0.1,0
				c0.2,0,0.4-0.2,0.4-0.4C194.9,262.7,195,261.9,195,261.2z M194.4,259c0.2,0,0.4-0.2,0.4-0.4c-0.1-0.8-0.2-1.5-0.4-2.2
				c-0.1-0.2-0.3-0.4-0.5-0.3c-0.2,0.1-0.4,0.3-0.3,0.5c0.2,0.6,0.3,1.3,0.4,2C194,258.9,194.2,259,194.4,259L194.4,259z
				 M194.4,266.7c0.1-0.2-0.1-0.4-0.3-0.5s-0.4,0.1-0.5,0.3c-0.2,0.6-0.4,1.3-0.6,2c-0.1,0.2,0.1,0.4,0.3,0.5c0.1,0,0.1,0,0.2,0
				c0.2,0,0.3-0.1,0.4-0.3C194,268.1,194.2,267.4,194.4,266.7z M193.3,253.8c0.2-0.1,0.3-0.3,0.2-0.5c-0.3-0.7-0.5-1.3-0.9-2
				c-0.1-0.2-0.3-0.3-0.5-0.2s-0.3,0.3-0.2,0.5c0.3,0.6,0.5,1.2,0.8,1.9c0.1,0.2,0.2,0.3,0.4,0.3
				C193.2,253.8,193.2,253.8,193.3,253.8z M192.3,271.9c0.1-0.2,0.1-0.4-0.2-0.5c-0.2-0.1-0.4-0.1-0.5,0.2c-0.3,0.6-0.7,1.2-1.1,1.8
				c-0.1,0.2-0.1,0.4,0.1,0.5c0.1,0.1,0.2,0.1,0.2,0.1c0.1,0,0.3-0.1,0.3-0.2C191.6,273.2,192,272.5,192.3,271.9z M190.8,248.9
				c0.2-0.1,0.2-0.4,0.1-0.5c-0.4-0.6-0.9-1.2-1.3-1.7c-0.2-0.2-0.4-0.2-0.6-0.1c-0.2,0.2-0.2,0.4-0.1,0.6c0.5,0.5,1,1.1,1.3,1.6
				c0.1,0.1,0.2,0.2,0.3,0.2C190.7,249,190.8,249,190.8,248.9z M189.3,276.3c0.2-0.2,0.2-0.4-0.1-0.6c-0.2-0.2-0.4-0.2-0.6,0.1
				c-0.5,0.5-1,1-1.5,1.5c-0.2,0.2-0.2,0.4,0,0.6c0.1,0.1,0.2,0.1,0.3,0.1s0.2-0.1,0.3-0.1C188.2,277.4,188.8,276.9,189.3,276.3z
				 M187.4,244.8c0.2-0.2,0.1-0.4-0.1-0.6c-0.5-0.5-1.1-1-1.7-1.4c-0.2-0.1-0.4-0.1-0.6,0.1c-0.1,0.2-0.1,0.4,0.1,0.6
				c0.6,0.4,1.1,0.9,1.7,1.3c0.1,0.1,0.2,0.1,0.3,0.1C187.2,245,187.3,244.9,187.4,244.8z M187.1,263.4c0-0.8-0.1-1.6-0.1-2.3
				c-0.3-3.1-1.3-6-2.8-8.7s-3.7-5.2-6.5-7.5c-0.3-0.2-0.5-0.4-0.8-0.5c-0.5-0.3-1.1-0.4-1.7-0.4c-1.2,0-2.3,0.6-2.9,1.5
				c-0.6-0.9-1.7-1.5-2.9-1.5c-0.6-0.1-1.2,0.1-1.8,0.4c-0.3,0.2-0.5,0.3-0.7,0.5c-2.8,2.3-4.9,4.8-6.5,7.5
				c-1.5,2.7-2.5,5.6-2.8,8.7c-0.1,0.8-0.1,1.5-0.1,2.3c0,7.9,5.5,12.8,10.3,14.5c0.3,0.2,0.6,0.3,1,0.3c0.2,0.1,0.4,0.1,0.6,0.1
				c1.2,0,2.3-0.6,2.9-1.5c0.6,0.9,1.7,1.5,2.9,1.5c0.2,0,0.4,0,0.6-0.1c0,0,0,0,0.1,0c0.3-0.1,0.6-0.2,0.9-0.3
				c2.4-0.9,4.9-2.6,6.9-5S187.1,267.3,187.1,263.4z M185.1,280c0.2-0.1,0.2-0.4,0.1-0.5c-0.2-0.2-0.4-0.3-0.6-0.2
				c-0.6,0.4-1.2,0.8-1.8,1.1c-0.2,0.1-0.3,0.4-0.2,0.5c0.1,0.2,0.2,0.2,0.4,0.2c0.1,0,0.1,0,0.2-0.1
				C183.9,280.8,184.5,280.4,185.1,280z M183,241.7c0.1-0.2,0-0.4-0.2-0.5c-0.6-0.4-1.3-0.6-2-0.9c-0.2-0.1-0.4,0-0.5,0.2
				s0,0.4,0.2,0.5c0.6,0.3,1.3,0.5,1.9,0.9c0.1,0.1,0.1,0.1,0.2,0.1C182.7,241.9,182.8,241.9,183,241.7z M180.2,282.5
				c0.2-0.1,0.3-0.3,0.2-0.5s-0.3-0.3-0.5-0.3c-0.6,0.3-1.3,0.5-2,0.6c-0.2,0.1-0.3,0.3-0.3,0.5c0.1,0.2,0.2,0.3,0.4,0.3
				c0.1,0,0.1,0,0.1,0C178.8,283,179.5,282.7,180.2,282.5z M177.9,239.6c0.1-0.2-0.1-0.4-0.3-0.5c-0.7-0.2-1.5-0.3-2.2-0.4
				c-0.2-0.1-0.4,0.1-0.5,0.3c0,0.3,0.2,0.5,0.4,0.5c0.7,0.1,1.4,0.2,2.1,0.4c0.1,0,0.1,0,0.1,0C177.7,240,177.9,239.9,177.9,239.6z
				 M175,283.8c0.2,0,0.4-0.2,0.4-0.4c-0.2-0.2-0.3-0.4-0.5-0.4c-0.7,0.1-1.4,0.1-2.1,0.2c-0.2,0-0.4,0.2-0.4,0.4
				c0,0.2,0.2,0.4,0.4,0.4C173.5,283.9,174.2,283.9,175,283.8z M169.8,283.4c0.1-0.2-0.1-0.4-0.3-0.4c-0.7-0.1-1.4-0.2-2.1-0.4
				c-0.2-0.1-0.4,0.1-0.5,0.3c-0.1,0.2,0.1,0.4,0.3,0.5c0.7,0.2,1.5,0.3,2.2,0.4h0.1C169.6,283.8,169.8,283.6,169.8,283.4z
				 M166.9,240.1c0.2-0.1,0.3-0.3,0.3-0.5c-0.1-0.2-0.3-0.3-0.5-0.3c-0.7,0.2-1.4,0.4-2.1,0.6c-0.2,0.1-0.3,0.3-0.3,0.5
				c0.1,0.1,0.2,0.2,0.4,0.2c0.1,0,0.1,0,0.2,0C165.5,240.4,166.2,240.2,166.9,240.1z M164.6,282.2c0.1-0.3,0-0.5-0.2-0.5
				c-0.6-0.3-1.3-0.5-1.9-0.9c-0.2-0.1-0.4,0-0.5,0.2s0,0.4,0.2,0.5c0.6,0.3,1.3,0.6,2,0.9c0.1,0,0.1,0.1,0.2,0.1
				C164.4,282.5,164.5,282.4,164.6,282.2z M162,242c0.2-0.1,0.3-0.4,0.2-0.5c-0.1-0.2-0.4-0.3-0.5-0.2c-0.6,0.3-1.3,0.7-1.9,1.1
				c-0.2,0.1-0.2,0.4-0.1,0.5c0.1,0.1,0.2,0.2,0.3,0.2s0.2,0,0.2-0.1C160.8,242.7,161.3,242.3,162,242z M159.7,279.7
				c0.1-0.2,0.1-0.4-0.1-0.5c-0.5-0.5-1.1-0.9-1.6-1.3c-0.2-0.2-0.4-0.1-0.6,0.1c-0.2,0.2-0.1,0.4,0.1,0.6c0.5,0.5,1.1,0.9,1.7,1.3
				c0.1,0.1,0.2,0.1,0.2,0.1C159.5,279.9,159.7,279.8,159.7,279.7z M157.7,245c0.2-0.2,0.2-0.4,0.1-0.6c-0.2-0.2-0.4-0.2-0.6-0.1
				c-0.5,0.5-1.1,1-1.6,1.6c-0.2,0.2-0.2,0.4,0,0.6c0.1,0.1,0.2,0.1,0.3,0.1s0.2-0.1,0.3-0.1C156.7,245.9,157.1,245.5,157.7,245z
				 M155.7,276.2c0.2-0.2,0.2-0.4,0.1-0.6c-0.5-0.5-0.9-1.1-1.3-1.7c-0.1-0.2-0.4-0.2-0.6-0.1c-0.2,0.1-0.2,0.4-0.1,0.6
				c0.4,0.6,0.9,1.2,1.3,1.7c0.1,0.1,0.2,0.2,0.3,0.2C155.6,276.3,155.7,276.2,155.7,276.2z M154.3,249c0-0.2-0.1-0.4-0.2-0.5
				c-0.2-0.1-0.4-0.1-0.5,0.1c-0.4,0.6-0.8,1.2-1.1,1.9c-0.1,0.2-0.1,0.4,0.2,0.5c0.1,0.1,0.1,0.1,0.2,0.1c0.2,0,0.3-0.1,0.4-0.2
				C153.5,250.2,153.9,249.6,154.3,249z M152.6,271.8c0.2-0.1,0.3-0.3,0.2-0.5c-0.3-0.6-0.6-1.3-0.9-1.9c-0.1-0.2-0.3-0.3-0.5-0.2
				c-0.2,0.1-0.3,0.3-0.2,0.5c0.3,0.7,0.6,1.3,0.9,2c0.1,0.2,0.2,0.2,0.4,0.2C152.5,271.8,152.6,271.8,152.6,271.8z M151.7,253.6
				c0.1-0.1,0-0.4-0.2-0.4c-0.2-0.1-0.4,0.1-0.5,0.2c-0.3,0.7-0.5,1.4-0.6,2.1c-0.1,0.2,0.1,0.4,0.3,0.5c0.1,0,0.1,0,0.1,0
				c0.2,0,0.3-0.1,0.4-0.3C151.2,254.9,151.4,254.3,151.7,253.6z M150.7,266.7c0.2-0.1,0.4-0.3,0.3-0.5c-0.2-0.7-0.4-1.4-0.4-2.1
				c-0.1-0.2-0.2-0.4-0.4-0.3s-0.4,0.2-0.3,0.4c0.1,0.7,0.2,1.5,0.4,2.2C150.4,266.6,150.5,266.7,150.7,266.7L150.7,266.7z"/>
			<path d="M169.5,283c0.2,0,0.4,0.2,0.3,0.4c0,0.2-0.2,0.4-0.4,0.4h-0.1c-0.7-0.1-1.5-0.2-2.2-0.4c-0.2-0.1-0.4-0.3-0.3-0.5
				c0.1-0.2,0.3-0.4,0.5-0.3C168.1,282.7,168.8,282.9,169.5,283z"/>
			<path d="M168.8,249.3c0,0.1,0.5,1.4-0.1,2.9c-0.5,1.1-1.6,2-3.2,2.6c-0.1,0-0.1,0-0.2,0c-0.2,0-0.3-0.1-0.4-0.3
				c-0.1-0.2,0.1-0.5,0.3-0.5c1.3-0.5,2.3-1.2,2.7-2.2c0.5-1.1,0.1-2.2,0.1-2.2c-0.1-0.2,0-0.5,0.2-0.5
				C168.5,249,168.7,249.1,168.8,249.3z"/>
			<path d="M167.7,244.3c0.6-0.3,1.2-0.5,1.8-0.4c1.2,0,2.3,0.6,2.9,1.5c0.6-0.9,1.7-1.5,2.9-1.5c0.6,0,1.2,0.2,1.7,0.4
				c0.3,0.2,0.5,0.3,0.8,0.5c2.8,2.3,4.9,4.8,6.5,7.5c1.5,2.7,2.5,5.6,2.8,8.7c0.1,0.8,0.1,1.5,0.1,2.3c0,3.9-1.4,7.1-3.4,9.6
				c-2,2.4-4.6,4.1-6.9,5c-0.3,0.2-0.6,0.3-0.9,0.3c-0.1,0-0.1,0-0.1,0c-0.2,0.1-0.4,0.1-0.6,0.1c-1.2,0-2.3-0.6-2.9-1.5
				c-0.6,0.9-1.7,1.5-2.9,1.5c-0.2,0-0.4,0-0.6-0.1c-0.3-0.1-0.6-0.2-1-0.3c-4.7-1.8-10.3-6.7-10.3-14.5c0-0.8,0.1-1.6,0.1-2.3
				c0.3-3.1,1.3-6,2.8-8.7s3.7-5.2,6.5-7.5C167.2,244.6,167.4,244.4,167.7,244.3z M186.2,263.4c0-0.7-0.1-1.5-0.1-2.2
				c-0.6-0.6-4-3.5-8.5,0.2c-0.1,0.1-0.2,0.1-0.3,0.1s-0.3-0.1-0.3-0.2c-0.2-0.2-0.1-0.4,0.1-0.6c4-3.3,7.3-1.7,8.8-0.6
				c-0.3-2-0.9-3.9-1.7-5.8c-0.4,0.9-1.4,2.1-3.3,2.5h-0.1c-0.2,0-0.3-0.1-0.4-0.3c-0.1-0.2,0.1-0.4,0.3-0.5c2.2-0.4,2.9-2.2,3-2.6
				c-0.9-1.7-2.1-3.4-3.5-5c-0.1,0.9-0.4,2-1.4,3.6c-0.1,0.1-0.2,0.2-0.3,0.2s-0.2,0-0.2-0.1c-0.2-0.1-0.2-0.4-0.1-0.5
				c1-1.5,1.3-2.6,1.3-3.3s-0.3-1-0.3-1c-0.6-0.6-1.3-1.2-2-1.8c-0.2-0.2-0.4-0.3-0.6-0.5c-0.4-0.2-0.8-0.3-1.3-0.3
				c-1.2,0-2.3,0.8-2.4,1.7c0.1,0.2,0.1,0.3,0.1,0.5v8.1c0.5-0.3,1.2-0.5,1.9-0.5c0.7,0.1,1.3,0.4,1.8,1.1c0.2,0.2,0.1,0.4-0.1,0.6
				c-0.1,0.1-0.2,0.1-0.3,0.1s-0.3-0.1-0.3-0.2c-0.4-0.5-0.8-0.7-1.3-0.8c-0.8-0.1-1.5,0.4-1.8,0.6v8.2c1,0.6,4.8,2.7,7.7-0.6
				c0.1-0.1,0.3-0.2,0.4-0.1s0.3,0.2,0.3,0.4c0,0,0.2,2.7,2,3c0.2,0.1,0.4,0.3,0.3,0.5c0,0.2-0.2,0.3-0.4,0.3h-0.1
				c-1.7-0.3-2.3-1.9-2.5-3c-2.9,2.6-6.3,1.2-7.8,0.4v10.2c0,0.2,0,0.3-0.1,0.5c0.3,1,1.3,1.8,2.5,1.8c0.1,0,0.3-0.1,0.4-0.1
				c0.3-0.1,0.6-0.2,0.9-0.3c1.3-0.5,2.7-1.2,4-2.3c0.2-0.7,1-4.6-1.2-5.9c-0.2-0.1-0.3-0.3-0.2-0.5s0.3-0.3,0.5-0.2
				c2.2,1.2,2.1,4.1,1.8,5.7C184.1,271.7,186.2,268.1,186.2,263.4z M172,275.7c-0.1-0.2-0.1-0.3-0.1-0.5V265c-1.5,0.8-5,2.2-7.8-0.4
				c-0.2,1-0.9,2.6-2.5,3h-0.1c-0.2,0-0.3-0.1-0.4-0.3c-0.1-0.2,0.1-0.4,0.3-0.5c1.8-0.3,2-3,2-3c0-0.2,0.1-0.3,0.3-0.4
				s0.3,0,0.4,0.1c2.9,3.3,6.7,1.3,7.8,0.6V256c-0.4-0.3-1.1-0.7-1.8-0.6c-0.5,0-0.9,0.3-1.3,0.8c-0.1,0.1-0.2,0.2-0.3,0.2
				s-0.2-0.1-0.3-0.1c-0.2-0.2-0.2-0.4-0.1-0.6c0.5-0.6,1.1-1,1.8-1.1c0.8-0.1,1.4,0.2,1.9,0.5V247c0-0.2,0-0.3,0.1-0.5
				c-0.3-1-1.2-1.7-2.4-1.8c-0.5,0-1,0.1-1.3,0.3c-0.2,0.2-0.4,0.3-0.6,0.5c-0.7,0.6-1.3,1.2-2,1.8c-0.1,0.1-1.1,1.2,1,4.3
				c0.1,0.2,0.1,0.4-0.1,0.5c-0.1,0.1-0.2,0.1-0.2,0.1c-0.1,0-0.3-0.1-0.3-0.2c-1-1.6-1.3-2.7-1.4-3.6c-1.4,1.6-2.6,3.2-3.5,5
				c0.1,0.5,0.7,2.2,3,2.6c0.2,0.1,0.4,0.3,0.3,0.5c0,0.2-0.2,0.3-0.4,0.3h-0.1c-1.9-0.4-2.9-1.6-3.3-2.5c-0.9,1.8-1.4,3.8-1.7,5.8
				c1.5-1.1,4.9-2.6,8.8,0.6c0.2,0.2,0.2,0.4,0.1,0.6c-0.1,0.1-0.2,0.2-0.3,0.2s-0.2-0.1-0.3-0.1c-4.4-3.7-7.8-0.8-8.5-0.2
				c-0.1,0.7-0.1,1.4-0.1,2.2c0,4.7,2.1,8.3,4.8,10.7c-0.3-1.6-0.3-4.5,1.8-5.7c0.2-0.1,0.4-0.1,0.5,0.2c0.1,0.2,0.1,0.4-0.2,0.5
				c-2.3,1.3-1.4,5.2-1.2,5.9c1.3,1,2.7,1.8,4,2.3c0.3,0.1,0.5,0.2,0.9,0.3c0.1,0.1,0.3,0.1,0.4,0.1
				C170.7,277.5,171.7,276.8,172,275.7z"/>
			<path d="M167.2,239.6c0.1,0.2-0.1,0.4-0.3,0.5c-0.7,0.2-1.4,0.4-2,0.6c-0.1,0-0.1,0-0.2,0c-0.2,0-0.3-0.1-0.4-0.2
				c-0.1-0.2,0.1-0.5,0.3-0.5c0.7-0.3,1.4-0.5,2.1-0.6C166.9,239.3,167.2,239.4,167.2,239.6z"/>
			<path d="M164.4,281.7c0.2,0.1,0.3,0.3,0.2,0.5s-0.2,0.3-0.4,0.3c-0.1,0-0.1-0.1-0.2-0.1c-0.6-0.3-1.3-0.6-2-0.9
				c-0.2-0.1-0.3-0.3-0.2-0.5s0.3-0.3,0.5-0.2C163.1,281.1,163.7,281.4,164.4,281.7z"/>
			<path d="M162.2,241.4c0.1,0.2,0.1,0.4-0.2,0.5c-0.6,0.3-1.2,0.7-1.8,1.1c-0.1,0.1-0.2,0.1-0.2,0.1c-0.1,0-0.3-0.1-0.3-0.2
				c-0.1-0.2-0.1-0.4,0.1-0.5c0.6-0.4,1.2-0.8,1.9-1.1C161.8,241.2,162,241.2,162.2,241.4z"/>
			<path d="M159.6,279.2c0.2,0.1,0.2,0.4,0.1,0.5c-0.1,0.1-0.2,0.2-0.3,0.2s-0.2,0-0.2-0.1c-0.6-0.4-1.2-0.9-1.7-1.3
				c-0.2-0.2-0.2-0.4-0.1-0.6c0.2-0.2,0.4-0.2,0.6-0.1C158.5,278.3,159.1,278.7,159.6,279.2z"/>
			<path d="M157.7,244.4c0.1,0.2,0.1,0.4-0.1,0.6c-0.5,0.5-1,1-1.5,1.5c-0.1,0.1-0.2,0.1-0.3,0.1s-0.2,0-0.3-0.1
				c-0.2-0.2-0.2-0.4,0-0.6c0.5-0.5,1-1.1,1.6-1.6C157.3,244.2,157.6,244.2,157.7,244.4z"/>
			<path d="M155.8,275.6c0.1,0.2,0.1,0.4-0.1,0.6c-0.1,0.1-0.2,0.1-0.3,0.1s-0.3-0.1-0.3-0.2c-0.5-0.5-0.9-1.1-1.3-1.7
				c-0.1-0.2-0.1-0.5,0.1-0.6c0.2-0.1,0.5-0.1,0.6,0.1C154.9,274.5,155.3,275,155.8,275.6z"/>
			<path d="M154.1,248.4c0.2,0.1,0.2,0.4,0.2,0.5c-0.4,0.6-0.8,1.2-1.1,1.8c-0.1,0.2-0.2,0.2-0.4,0.2c-0.1,0-0.2,0-0.2-0.1
				c-0.2-0.1-0.3-0.3-0.2-0.5c0.3-0.6,0.7-1.3,1.1-1.9C153.6,248.4,153.9,248.3,154.1,248.4z"/>
			<path d="M152.8,271.2c0.1,0.2,0.1,0.4-0.2,0.5c-0.1,0.1-0.1,0.1-0.2,0.1c-0.2,0-0.3-0.1-0.4-0.2c-0.3-0.6-0.6-1.3-0.9-2
				c-0.1-0.2,0-0.4,0.2-0.5s0.4,0,0.5,0.2C152.2,269.9,152.5,270.6,152.8,271.2z"/>
			<path d="M151.5,253.2c0.2,0.1,0.3,0.3,0.2,0.4c-0.3,0.7-0.5,1.3-0.6,2c-0.1,0.2-0.2,0.3-0.4,0.3c-0.1,0-0.1,0-0.1,0
				c-0.2-0.1-0.3-0.3-0.3-0.5c0.2-0.7,0.4-1.4,0.6-2.1C151.1,253.2,151.3,253.1,151.5,253.2z"/>
			<path d="M151.1,266.3c0.1,0.2-0.1,0.4-0.3,0.5c-0.1,0-0.1,0-0.1,0c-0.2,0-0.3-0.2-0.4-0.3c-0.2-0.7-0.3-1.5-0.4-2.2
				c-0.1-0.2,0.1-0.4,0.3-0.4c0.2-0.1,0.4,0.1,0.4,0.3C150.7,264.9,150.8,265.6,151.1,266.3z"/>
			<path d="M150.2,258.4c0.2,0,0.4,0.2,0.4,0.4c-0.1,0.7-0.1,1.4-0.1,2.1c-0.1,0.2-0.2,0.4-0.4,0.4c-0.3,0-0.4-0.2-0.4-0.3
				c0-0.8,0.1-1.5,0.1-2.2C149.8,258.6,150,258.4,150.2,258.4z"/>
		</g>
	</g>
	<g id="XMLID_3_">
		<g>
			<path d="M66.6,261.8c0.3,0,0.4,0.2,0.4,0.4c0,0.8-0.1,1.5-0.1,2.2c0,0.2-0.2,0.4-0.4,0.4c-0.1,0-0.1,0-0.1,0
				c-0.2,0-0.4-0.2-0.4-0.4c0.1-0.7,0.1-1.4,0.1-2.1C66.2,262.1,66.4,261.8,66.6,261.8z"/>
			<path d="M66.9,259.6c0,0.2-0.2,0.4-0.4,0.4h-0.1c-0.2,0-0.4-0.2-0.4-0.4c-0.1-0.7-0.2-1.4-0.4-2c-0.1-0.2,0.1-0.4,0.3-0.5
				c0.2-0.1,0.4,0.1,0.5,0.3C66.7,258.2,66.8,258.9,66.9,259.6z"/>
			<path d="M66.1,267.2c0.3,0.1,0.4,0.3,0.3,0.5c-0.2,0.7-0.4,1.4-0.6,2.1c-0.1,0.2-0.2,0.3-0.4,0.3c-0.1,0-0.1,0-0.2,0
				c-0.2-0.1-0.3-0.3-0.3-0.5c0.2-0.6,0.4-1.3,0.6-2C65.7,267.3,65.9,267.2,66.1,267.2z"/>
			<path d="M65.6,254.2c0.1,0.2,0,0.5-0.2,0.5c-0.1,0-0.1,0-0.2,0c-0.2,0-0.3-0.1-0.4-0.3c-0.3-0.6-0.5-1.3-0.8-1.9
				c-0.1-0.2-0.1-0.4,0.2-0.5c0.2-0.1,0.4-0.1,0.5,0.2C65,252.9,65.3,253.5,65.6,254.2z"/>
			<path d="M63.3,274.8c-0.1,0.1-0.2,0.2-0.3,0.2s-0.2,0-0.2-0.1c-0.2-0.2-0.2-0.4-0.1-0.5c0.4-0.6,0.8-1.2,1.1-1.8
				c0.1-0.2,0.3-0.3,0.5-0.2c0.2,0.1,0.3,0.3,0.2,0.5C64,273.5,63.6,274.2,63.3,274.8z"/>
			<path d="M63,249.4c0.1,0.2,0.1,0.4-0.1,0.5c-0.1,0.1-0.2,0.1-0.2,0.1c-0.1,0-0.3-0.1-0.3-0.2c-0.4-0.5-0.8-1.1-1.3-1.6
				c-0.2-0.2-0.1-0.4,0.1-0.6c0.2-0.2,0.4-0.1,0.6,0.1C62.1,248.2,62.6,248.8,63,249.4z"/>
			<path d="M44.4,237.1c13.9,0,25.2,11.3,25.2,25.2c0,13.9-11.3,25.2-25.2,25.2s-25.2-11.3-25.2-25.2
				C19.1,248.4,30.5,237.1,44.4,237.1z M68.8,262.3c0-13.5-10.9-24.4-24.4-24.4S20,248.8,20,262.3c0,13.5,10.9,24.4,24.4,24.4
				C57.8,286.7,68.8,275.7,68.8,262.3z"/>
			<path d="M59.8,278.9c-0.1,0.1-0.2,0.1-0.3,0.1s-0.3,0-0.3-0.1c-0.2-0.2-0.2-0.4,0-0.6c0.5-0.5,1-1,1.5-1.5
				c0.2-0.2,0.4-0.2,0.6-0.1c0.2,0.2,0.2,0.4,0.1,0.6C60.8,277.9,60.3,278.4,59.8,278.9z"/>
			<path d="M59.4,245.2c0.2,0.2,0.2,0.4,0.1,0.6c-0.1,0.1-0.2,0.2-0.3,0.2s-0.2-0.1-0.3-0.1c-0.5-0.5-1.1-0.9-1.7-1.3
				c-0.2-0.2-0.2-0.4-0.1-0.6c0.2-0.2,0.4-0.2,0.6-0.1C58.3,244.3,58.9,244.8,59.4,245.2z"/>
			<path d="M57.3,280.5c0.1,0.2,0.1,0.4-0.1,0.5c-0.6,0.4-1.2,0.8-1.9,1.1c-0.1,0.1-0.2,0.1-0.2,0.1c-0.2,0-0.3-0.1-0.4-0.2
				c-0.1-0.2-0.1-0.4,0.2-0.5c0.6-0.4,1.2-0.8,1.8-1.1C56.9,280.2,57.1,280.3,57.3,280.5z"/>
			<path d="M54.9,242.2c0.2,0.1,0.3,0.3,0.2,0.5s-0.2,0.2-0.4,0.2c-0.1,0-0.1,0-0.2-0.1c-0.6-0.4-1.3-0.6-1.9-0.9
				c-0.2-0.1-0.3-0.3-0.2-0.5s0.3-0.3,0.5-0.2C53.5,241.5,54.2,241.8,54.9,242.2z"/>
			<path d="M52.5,283c0.1,0.2,0,0.5-0.2,0.5c-0.7,0.2-1.4,0.5-2.1,0.6c-0.1,0-0.1,0-0.1,0c-0.2,0-0.3-0.2-0.4-0.3
				c-0.1-0.2,0.1-0.4,0.3-0.5c0.7-0.2,1.4-0.4,2-0.6C52.2,282.7,52.4,282.8,52.5,283z"/>
			<path d="M49.7,240.2c0.2,0.1,0.4,0.3,0.3,0.5c-0.1,0.2-0.2,0.3-0.4,0.3c-0.1,0-0.1,0-0.1,0c-0.7-0.2-1.4-0.3-2.1-0.4
				c-0.2-0.1-0.4-0.2-0.4-0.5c0.1-0.2,0.3-0.4,0.5-0.3C48.2,239.9,49,240,49.7,240.2z"/>
			<path d="M47.4,284.4c0,0.2-0.2,0.4-0.4,0.4c-0.8,0.1-1.5,0.2-2.2,0.2c-0.3,0-0.4-0.2-0.4-0.4c0-0.3,0.2-0.4,0.4-0.4
				c0.7-0.1,1.4-0.1,2.1-0.2C47.1,284,47.3,284.1,47.4,284.4z"/>
			<circle class="st4" cx="44.4" cy="262.2" r="1.7"/>
			<path d="M44.6,240c0.1,0.3-0.2,0.4-0.4,0.4c-0.7,0-1.4,0.1-2.2,0.1c-0.2,0-0.4-0.2-0.5-0.4c0-0.2,0.2-0.4,0.4-0.4
				c0.8-0.1,1.5-0.1,2.2-0.1C44.5,239.6,44.6,239.7,44.6,240z"/>
			<path class="st3" d="M42.1,240.5c0.8-0.1,1.5-0.1,2.2-0.1c0.2,0,0.4-0.2,0.4-0.4s-0.2-0.4-0.4-0.4c-0.8,0-1.5,0.1-2.2,0.1
				c-0.2,0-0.4,0.2-0.4,0.4C41.7,240.3,41.9,240.5,42.1,240.5z M22.1,262.4c0.2,0,0.4-0.2,0.4-0.4c0-0.7,0.1-1.4,0.1-2.1
				c0-0.2-0.2-0.4-0.4-0.4c-0.2-0.1-0.4,0.2-0.4,0.4c-0.1,0.7-0.1,1.5-0.1,2.2C21.7,262.2,21.8,262.4,22.1,262.4z M44.4,237.9
				c13.5,0,24.4,10.9,24.4,24.4c0,13.5-10.9,24.4-24.4,24.4S20,275.8,20,262.3C20,248.8,30.9,237.9,44.4,237.9z M67,262.2
				c0-0.2-0.2-0.4-0.4-0.4c-0.2,0.1-0.4,0.3-0.4,0.5c0,0.7-0.1,1.4-0.1,2.1c0,0.2,0.2,0.4,0.4,0.4c0,0,0,0,0.1,0
				c0.2,0,0.4-0.2,0.4-0.4C67,263.7,67,263,67,262.2z M66.5,260.1c0.2,0,0.4-0.2,0.4-0.4c-0.1-0.8-0.2-1.5-0.4-2.2
				c-0.1-0.2-0.3-0.4-0.5-0.3s-0.4,0.3-0.3,0.5c0.2,0.6,0.3,1.3,0.4,2C66.1,259.9,66.3,260.1,66.5,260.1L66.5,260.1z M66.4,267.7
				c0.1-0.2-0.1-0.4-0.3-0.5c-0.2-0.1-0.4,0.1-0.5,0.3c-0.2,0.6-0.4,1.3-0.6,2c-0.1,0.2,0.1,0.4,0.3,0.5c0.1,0,0.1,0,0.2,0
				c0.2,0,0.3-0.1,0.4-0.3C66.1,269.1,66.2,268.4,66.4,267.7z M65.4,254.8c0.2-0.1,0.3-0.3,0.2-0.5c-0.3-0.7-0.5-1.3-0.9-2
				c-0.1-0.2-0.3-0.3-0.5-0.2c-0.2,0.1-0.3,0.3-0.2,0.5c0.3,0.6,0.5,1.2,0.8,1.9c0.1,0.2,0.2,0.3,0.4,0.3
				C65.3,254.8,65.3,254.8,65.4,254.8z M64.4,272.9c0.1-0.2,0.1-0.4-0.2-0.5c-0.2-0.1-0.4-0.1-0.5,0.2c-0.3,0.6-0.7,1.2-1.1,1.8
				c-0.1,0.2-0.1,0.4,0.1,0.5c0.1,0.1,0.2,0.1,0.2,0.1c0.1,0,0.3-0.1,0.3-0.2C63.6,274.2,64,273.5,64.4,272.9z M62.9,249.9
				c0.2-0.1,0.2-0.4,0.1-0.5c-0.4-0.6-0.9-1.2-1.3-1.7c-0.2-0.2-0.4-0.2-0.6-0.1c-0.2,0.2-0.2,0.4-0.1,0.6c0.5,0.5,1,1.1,1.3,1.6
				c0.1,0.1,0.2,0.2,0.3,0.2S62.8,250,62.9,249.9z M61.3,277.4c0.2-0.2,0.2-0.4-0.1-0.6c-0.2-0.2-0.4-0.2-0.6,0.1
				c-0.5,0.5-1,1-1.5,1.5c-0.2,0.2-0.2,0.4,0,0.6c0.1,0.1,0.2,0.1,0.3,0.1s0.2-0.1,0.3-0.1C60.3,278.4,60.8,277.9,61.3,277.4z
				 M59.4,245.8c0.2-0.2,0.1-0.4-0.1-0.6c-0.5-0.5-1.1-1-1.7-1.4c-0.2-0.1-0.4-0.1-0.6,0.1c-0.1,0.2-0.1,0.4,0.1,0.6
				c0.6,0.4,1.1,0.9,1.7,1.3c0.1,0.1,0.2,0.1,0.3,0.1C59.2,246,59.3,245.9,59.4,245.8z M57.2,281c0.2-0.1,0.2-0.4,0.1-0.5
				c-0.2-0.2-0.4-0.3-0.6-0.2c-0.6,0.4-1.2,0.8-1.8,1.1c-0.2,0.1-0.3,0.4-0.2,0.5c0.1,0.2,0.2,0.2,0.4,0.2c0.1,0,0.1,0,0.2-0.1
				C55.9,281.8,56.6,281.4,57.2,281z M55,242.7c0.1-0.2,0-0.4-0.2-0.5c-0.6-0.4-1.3-0.6-2-0.9c-0.2-0.1-0.4,0-0.5,0.2s0,0.4,0.2,0.5
				c0.6,0.3,1.3,0.5,1.9,0.9c0.1,0.1,0.1,0.1,0.2,0.1C54.8,242.9,54.9,242.9,55,242.7z M52.3,283.6c0.2-0.1,0.3-0.3,0.2-0.5
				s-0.3-0.3-0.5-0.3c-0.6,0.3-1.3,0.5-2,0.6c-0.2,0.1-0.3,0.3-0.3,0.5c0.1,0.2,0.2,0.3,0.4,0.3c0.1,0,0.1,0,0.1,0
				C50.9,284,51.6,283.8,52.3,283.6z M50,240.7c0.1-0.2-0.1-0.4-0.3-0.5c-0.7-0.2-1.5-0.3-2.2-0.4c-0.2-0.1-0.4,0.1-0.5,0.3
				c0,0.3,0.2,0.5,0.4,0.5c0.7,0.1,1.4,0.2,2.1,0.4c0.1,0,0.1,0,0.1,0C49.8,241,50,240.9,50,240.7z M47.1,284.8
				c0.2,0,0.4-0.2,0.4-0.4c-0.2-0.2-0.3-0.4-0.5-0.4c-0.7,0.1-1.4,0.1-2.1,0.2c-0.2,0-0.4,0.2-0.4,0.4c0,0.2,0.2,0.4,0.4,0.4
				C45.6,285,46.3,284.9,47.1,284.8z M46.1,262.2c0-1-0.8-1.7-1.7-1.7c-1,0-1.7,0.8-1.7,1.7c0,1,0.8,1.7,1.7,1.7
				C45.3,264,46.1,263.2,46.1,262.2z M41.9,284.4c0.1-0.2-0.1-0.4-0.3-0.4c-0.7-0.1-1.4-0.2-2.1-0.4c-0.2-0.1-0.4,0.1-0.5,0.3
				c-0.1,0.2,0.1,0.4,0.3,0.5c0.7,0.2,1.5,0.3,2.2,0.4h0.1C41.7,284.8,41.9,284.6,41.9,284.4z M39,241.1c0.2-0.1,0.3-0.3,0.3-0.5
				c-0.1-0.2-0.3-0.3-0.5-0.3c-0.7,0.2-1.4,0.4-2.1,0.6c-0.2,0.1-0.3,0.3-0.3,0.5c0.1,0.1,0.2,0.2,0.4,0.2c0.1,0,0.1,0,0.2,0
				C37.6,241.5,38.3,241.3,39,241.1z M36.7,283.2c0.1-0.3,0-0.5-0.2-0.5c-0.6-0.3-1.3-0.5-1.9-0.9c-0.2-0.1-0.4,0-0.5,0.2
				s0,0.4,0.2,0.5c0.6,0.3,1.3,0.6,2,0.9c0.1,0,0.1,0.1,0.2,0.1C36.4,283.5,36.6,283.4,36.7,283.2z M34.1,243
				c0.2-0.1,0.3-0.4,0.2-0.5c-0.1-0.2-0.4-0.3-0.5-0.2c-0.6,0.3-1.3,0.7-1.9,1.1c-0.2,0.1-0.2,0.4-0.1,0.5s0.2,0.2,0.3,0.2
				s0.2,0,0.2-0.1C32.8,243.7,33.4,243.3,34.1,243z M31.8,280.8c0.1-0.2,0.1-0.4-0.1-0.5c-0.5-0.5-1.1-0.9-1.6-1.3
				c-0.2-0.2-0.4-0.1-0.6,0.1s-0.1,0.4,0.1,0.6c0.5,0.5,1.1,0.9,1.7,1.3c0.1,0.1,0.2,0.1,0.2,0.1C31.6,280.9,31.7,280.9,31.8,280.8z
				 M29.8,246c0.2-0.2,0.2-0.4,0.1-0.6c-0.2-0.2-0.4-0.2-0.6-0.1c-0.5,0.5-1.1,1-1.6,1.6c-0.2,0.2-0.2,0.4,0,0.6
				c0.1,0.1,0.2,0.1,0.3,0.1c0.1,0,0.2-0.1,0.3-0.1C28.7,247,29.2,246.5,29.8,246z M27.8,277.2c0.2-0.2,0.2-0.4,0.1-0.6
				c-0.5-0.5-0.9-1.1-1.3-1.7c-0.1-0.2-0.4-0.2-0.6-0.1s-0.2,0.4-0.1,0.6c0.4,0.6,0.9,1.2,1.3,1.7c0.1,0.1,0.2,0.2,0.3,0.2
				C27.7,277.3,27.8,277.3,27.8,277.2z M26.4,250c0-0.2-0.1-0.4-0.2-0.5c-0.2-0.1-0.4-0.1-0.5,0.1c-0.4,0.6-0.8,1.2-1.1,1.9
				c-0.1,0.2-0.1,0.4,0.2,0.5c0.1,0.1,0.1,0.1,0.2,0.1c0.2,0,0.3-0.1,0.4-0.2C25.6,251.2,25.9,250.6,26.4,250z M24.7,272.8
				c0.2-0.1,0.3-0.3,0.2-0.5c-0.3-0.6-0.6-1.3-0.9-1.9c-0.1-0.2-0.3-0.3-0.5-0.2c-0.2,0.1-0.3,0.3-0.2,0.5c0.3,0.7,0.6,1.3,0.9,2
				c0.1,0.2,0.2,0.2,0.4,0.2C24.6,272.8,24.6,272.8,24.7,272.8z M23.8,254.6c0.1-0.1,0-0.4-0.2-0.4c-0.2-0.1-0.4,0.1-0.5,0.2
				c-0.3,0.7-0.5,1.4-0.6,2.1c-0.1,0.2,0.1,0.4,0.3,0.5c0.1,0,0.1,0,0.1,0c0.2,0,0.3-0.1,0.4-0.3C23.3,256,23.5,255.3,23.8,254.6z
				 M22.8,267.8c0.2-0.1,0.4-0.3,0.3-0.5c-0.2-0.7-0.4-1.4-0.4-2.1c-0.1-0.2-0.2-0.4-0.4-0.3c-0.2,0.1-0.4,0.2-0.3,0.4
				c0.1,0.7,0.2,1.5,0.4,2.2C22.5,267.7,22.6,267.8,22.8,267.8L22.8,267.8z"/>
			<path d="M41.6,284c0.2,0,0.4,0.2,0.3,0.4c0,0.2-0.2,0.4-0.4,0.4h-0.1c-0.7-0.1-1.5-0.2-2.2-0.4c-0.2-0.1-0.4-0.3-0.3-0.5
				c0.1-0.2,0.3-0.4,0.5-0.3C40.2,283.8,40.9,283.9,41.6,284z"/>
			<path d="M39.3,240.6c0.1,0.2-0.1,0.4-0.3,0.5c-0.7,0.2-1.4,0.4-2,0.6c-0.1,0-0.1,0-0.2,0c-0.2,0-0.3-0.1-0.4-0.2
				c-0.1-0.2,0.1-0.5,0.3-0.5c0.7-0.3,1.4-0.5,2.1-0.6C39,240.3,39.2,240.4,39.3,240.6z"/>
			<path d="M36.4,282.7c0.2,0.1,0.3,0.3,0.2,0.5s-0.2,0.3-0.4,0.3c-0.1,0-0.1-0.1-0.2-0.1c-0.6-0.3-1.3-0.6-2-0.9
				c-0.2-0.1-0.3-0.3-0.2-0.5s0.3-0.3,0.5-0.2C35.1,282.2,35.8,282.4,36.4,282.7z"/>
			<path d="M34.2,242.4c0.1,0.2,0.1,0.4-0.2,0.5c-0.6,0.3-1.2,0.7-1.8,1.1c-0.1,0.1-0.2,0.1-0.2,0.1c-0.1,0-0.3-0.1-0.3-0.2
				c-0.1-0.2-0.1-0.4,0.1-0.5c0.6-0.4,1.2-0.8,1.9-1.1C33.8,242.2,34.1,242.2,34.2,242.4z"/>
			<path d="M31.7,280.2c0.2,0.1,0.2,0.4,0.1,0.5s-0.2,0.2-0.3,0.2c-0.1,0-0.2,0-0.2-0.1c-0.6-0.4-1.2-0.9-1.7-1.3
				c-0.2-0.2-0.2-0.4-0.1-0.6c0.2-0.2,0.4-0.2,0.6-0.1C30.6,279.3,31.2,279.7,31.7,280.2z"/>
			<path d="M29.8,245.4c0.1,0.2,0.1,0.4-0.1,0.6c-0.5,0.5-1,1-1.5,1.5c-0.1,0.1-0.2,0.1-0.3,0.1c-0.1,0-0.2,0-0.3-0.1
				c-0.2-0.2-0.2-0.4,0-0.6c0.5-0.5,1-1.1,1.6-1.6C29.4,245.2,29.6,245.2,29.8,245.4z"/>
			<path d="M27.9,276.6c0.1,0.2,0.1,0.4-0.1,0.6c-0.1,0.1-0.2,0.1-0.3,0.1c-0.1,0-0.3-0.1-0.3-0.2c-0.5-0.5-0.9-1.1-1.3-1.7
				c-0.1-0.2-0.1-0.5,0.1-0.6s0.5-0.1,0.6,0.1C27,275.5,27.4,276.1,27.9,276.6z"/>
			<path d="M26.1,249.4c0.2,0.1,0.2,0.4,0.2,0.5c-0.4,0.6-0.8,1.2-1.1,1.8c-0.1,0.2-0.2,0.2-0.4,0.2c-0.1,0-0.2,0-0.2-0.1
				c-0.2-0.1-0.3-0.3-0.2-0.5c0.3-0.6,0.7-1.3,1.1-1.9C25.7,249.4,26,249.3,26.1,249.4z"/>
			<path d="M24.9,272.2c0.1,0.2,0.1,0.4-0.2,0.5c-0.1,0.1-0.1,0.1-0.2,0.1c-0.2,0-0.3-0.1-0.4-0.2c-0.3-0.6-0.6-1.3-0.9-2
				c-0.1-0.2,0-0.4,0.2-0.5s0.4,0,0.5,0.2C24.3,270.9,24.5,271.6,24.9,272.2z"/>
			<path d="M23.6,254.2c0.2,0.1,0.3,0.3,0.2,0.4c-0.3,0.7-0.5,1.3-0.6,2c-0.1,0.2-0.2,0.3-0.4,0.3c-0.1,0-0.1,0-0.1,0
				c-0.2-0.1-0.3-0.3-0.3-0.5c0.2-0.7,0.4-1.4,0.6-2.1C23.1,254.2,23.3,254.1,23.6,254.2z"/>
			<path d="M23.1,267.3c0.1,0.2-0.1,0.4-0.3,0.5c-0.1,0-0.1,0-0.1,0c-0.2,0-0.3-0.2-0.4-0.3c-0.2-0.7-0.3-1.5-0.4-2.2
				c-0.1-0.2,0.1-0.4,0.3-0.4c0.2-0.1,0.4,0.1,0.4,0.3C22.8,265.9,22.9,266.6,23.1,267.3z"/>
			<path d="M22.3,259.5c0.2,0,0.4,0.2,0.4,0.4c-0.1,0.7-0.1,1.4-0.1,2.1c-0.1,0.2-0.2,0.4-0.4,0.4c-0.3,0-0.4-0.2-0.4-0.3
				c0-0.8,0.1-1.5,0.1-2.2C21.8,259.6,22,259.4,22.3,259.5z"/>
		</g>
		<g>
			<circle class="st5" cx="44.4" cy="262.2" r="1.7"/>
		</g>
	</g>
	<g>
		<g id="XMLID_36_">
			<g>
				<path d="M61.6,202.3c0.4,1,0.6,1.8,0.6,2.5c0,2.4-4.5,2.4-5.9,2.4c-0.3,0-0.6-0.1-0.8-0.3l0,0l0,0l0,0c-1.1,0.9-2.4,1.5-3.9,1.5
					v2.4H37.2v-2.4c-1.5,0-2.9-0.6-3.9-1.5c-0.2,0.2-0.5,0.3-0.8,0.3c-1.5,0-5.9,0-5.9-2.4c0-0.7,0.3-1.5,0.6-2.5
					c0.7-2,1.8-5.1,1.8-10.6c0-8,6.8-14.3,15.5-14.3c4.2,0,8.1,1.5,10.9,4.1c2.9,2.7,4.5,6.3,4.5,10.2
					C59.8,197.2,60.9,200.3,61.6,202.3z M61,204.8c0-1.7-2.4-4.8-2.4-13.1c0-7.3-6.3-13.1-14.3-13.1S30,184.3,30,191.7
					c0,8.3-2.4,11.4-2.4,13.1c0,1.2,4.8,1.2,4.8,1.2v-13.1c8.3-1.2,9.5-7.1,13.7-7.1s4.2,5.9,10.1,7.1V206C56.3,206,61,206,61,204.8
					z M55.1,205.6c0-1.9,0-9.1,0-11.7c-2.9-0.9-4.4-2.8-5.7-4.4c-1.2-1.6-1.9-2.4-3.3-2.4c-1.3,0-2.2,0.8-3.8,2.2
					c-1.8,1.7-4.3,3.9-8.7,4.8v11.6c0.9,1,2.1,1.6,3.6,1.6h14.3C52.9,207.2,54.2,206.6,55.1,205.6z M50.3,209.6v-1.2H38.4v1.2H50.3z
					"/>
				<path class="st6" d="M58.6,191.7c0,8.3,2.4,11.4,2.4,13.1c0,1.2-4.8,1.2-4.8,1.2v-13.1c-5.9-1.2-5.9-7.1-10.1-7.1
					s-5.4,5.9-13.7,7.1V206c0,0-4.7,0-4.8-1.2c0-1.7,2.4-4.8,2.4-13.1c0-7.3,6.3-13.1,14.3-13.1C52.4,178.7,58.6,184.4,58.6,191.7z"
					/>
				<path d="M55.4,206.9L55.4,206.9L55.4,206.9L55.4,206.9z"/>
				<path class="st7" d="M55.1,193.9c0,2.6,0,9.8,0,11.7c-0.9,1-2.1,1.6-3.6,1.6H37.2c-1.4,0-2.7-0.6-3.6-1.6V194
					c4.4-0.9,6.9-3.1,8.7-4.8c1.6-1.4,2.5-2.2,3.8-2.2s2,0.8,3.3,2.4C50.6,191,52.2,193,55.1,193.9z M49.5,200.5
					c0.2-0.2,0.2-0.6,0-0.8s-0.6-0.2-0.8,0c-1,1-2.6,1.6-4.3,1.6s-3.3-0.6-4.3-1.6c-0.2-0.2-0.6-0.2-0.8,0s-0.2,0.6,0,0.8
					c1.2,1.2,3.1,2,5.2,2C46.4,202.4,48.3,201.7,49.5,200.5z M49.1,195.3c0-0.7-0.5-1.2-1.2-1.2s-1.2,0.5-1.2,1.2s0.5,1.2,1.2,1.2
					S49.1,196,49.1,195.3z M42,195.3c0-0.7-0.5-1.2-1.2-1.2s-1.2,0.5-1.2,1.2s0.5,1.2,1.2,1.2C41.4,196.5,42,196,42,195.3z"/>
				<rect x="38.4" y="208.4" class="st7" width="11.9" height="1.2"/>
				<path d="M49.5,199.6c0.2,0.2,0.2,0.6,0,0.8c-1.2,1.2-3.1,2-5.2,2c-2,0-3.9-0.7-5.2-2c-0.2-0.2-0.2-0.6,0-0.8s0.6-0.2,0.8,0
					c1,1,2.6,1.6,4.3,1.6s3.3-0.6,4.3-1.6C48.9,199.4,49.3,199.4,49.5,199.6z"/>
				<circle cx="47.9" cy="195.3" r="1.2"/>
				<circle cx="40.8" cy="195.3" r="1.2"/>
			</g>
		</g>
	</g>
	<g id="XMLID_35_">
		<g>
			<path d="M187.9,191.7c0,4-1.4,5-1.8,5.2c-0.2,0.1-0.3,0.1-0.5,0.1v5.4c0,3.3-2.7,5.9-5.9,5.9v2.4h-14.3v-2.4
				c-3.3,0-5.9-2.7-5.9-5.9v-4.8h-0.1c-0.3,0-0.7-0.2-0.9-0.5c-0.1-0.2-1.4-2-1.4-5.5c0-8,6.8-14.3,15.5-14.3
				S187.9,183.7,187.9,191.7z M185.5,195.9c0,0,1.2-0.6,1.2-4.2c0-7.3-6.3-13.1-14.3-13.1s-14.3,5.7-14.3,13.1
				c0,3.1,1.2,4.8,1.2,4.8s2.4-2.4,2.4-7.1c1.2,0.6,2.4,1.2,4.8,1.2c4.8,0,9.9-2.4,14.3-2.4C185.5,188.2,185.5,193,185.5,195.9z
				 M184.3,202.4v-6.5c0-4.2-0.6-6.5-3.6-6.5c-2,0-4.2,0.5-6.6,1.1c-2.5,0.6-5.1,1.3-7.7,1.3c-1.6,0-2.7-0.3-3.7-0.6
				c-0.4,3.1-1.6,5-2.3,5.8v5.5c0,2.6,2.1,4.8,4.8,4.8h1.3v0.2l1.9,0.2v-0.4h7.9v0.4l1.9-0.2v-0.2h1.2
				C182.2,207.2,184.3,205.1,184.3,202.4z M178.4,209.6v-1.2h-11.9v1.2H178.4z"/>
			<path class="st8" d="M186.7,191.7c0,3.6-1.2,4.2-1.2,4.2c0-2.9,0-7.7-4.8-7.7c-4.4,0-9.5,2.4-14.3,2.4c-2.4,0-3.6-0.6-4.8-1.2
				c0,4.8-2.4,7.1-2.4,7.1s-1.2-1.6-1.2-4.8c0-7.3,6.3-13.1,14.3-13.1C180.5,178.7,186.7,184.4,186.7,191.7z"/>
			<path class="st7" d="M184.3,195.9v6.5c0,2.6-2.1,4.8-4.8,4.8h-1.2l-0.6-5.1c0.1-0.2,0.1-0.4-0.1-0.6l-0.6-5.6
				c0.1-0.2,0.2-0.4,0.2-0.6c0-0.7-0.5-1.2-1.2-1.2s-1.2,0.5-1.2,1.2c0,0.3,0.1,0.6,0.3,0.8l0.4,4c-1-0.4-2-0.6-3.2-0.6
				c-1.1,0-2.2,0.2-3.1,0.6l0.5-4c0.2-0.2,0.3-0.5,0.3-0.8c0-0.7-0.5-1.2-1.2-1.2s-1.2,0.5-1.2,1.2c0,0.2,0.1,0.4,0.2,0.6l-0.6,5.5
				c-0.2,0.2-0.2,0.4-0.1,0.7l0,0l-0.6,5.1h-1.3c-2.6,0-4.8-2.1-4.8-4.8v-5.5c0.6-0.8,1.9-2.7,2.3-5.8c0.9,0.3,2.1,0.6,3.7,0.6
				c2.6,0,5.2-0.6,7.7-1.3c2.3-0.6,4.6-1.1,6.6-1.1C183.8,189.4,184.3,191.7,184.3,195.9z"/>
			<rect x="166.5" y="208.4" class="st7" width="11.9" height="1.2"/>
			<polygon points="178.3,207.2 178.4,207.4 176.5,207.6 176.4,207.2 			"/>
			<path class="st9" d="M178.3,207.2h-1.9l-0.6-5.7c0.4,0.2,0.7,0.5,1,0.8c0.2,0.2,0.6,0.2,0.8,0c0.1-0.1,0.1-0.1,0.1-0.2
				L178.3,207.2z"/>
			<path d="M177.7,201.5c0.1,0.2,0.1,0.4,0.1,0.6L177.7,201.5z"/>
			<path d="M177.7,201.5l0.1,0.6c0,0.1-0.1,0.1-0.1,0.2c-0.2,0.2-0.6,0.2-0.8,0c-0.3-0.3-0.6-0.6-1-0.8l-0.2-1.4
				C176.4,200.4,177.1,200.9,177.7,201.5C177.6,201.5,177.7,201.5,177.7,201.5z"/>
			<path class="st9" d="M177.1,195.9l0.6,5.6c0,0,0-0.1-0.1-0.1c-0.6-0.6-1.2-1-2-1.3l-0.4-4c0.2,0.2,0.5,0.4,0.9,0.4
				C176.5,196.5,176.8,196.3,177.1,195.9z"/>
			<path d="M177.2,195.3c0,0.2-0.1,0.4-0.2,0.6v-0.2l-1.9,0.2v0.2c-0.2-0.2-0.3-0.5-0.3-0.8c0-0.7,0.5-1.2,1.2-1.2
				S177.2,194.7,177.2,195.3z"/>
			<path d="M177,195.7v0.2c-0.2,0.4-0.6,0.6-1,0.6c-0.3,0-0.6-0.1-0.9-0.4v-0.2L177,195.7z"/>
			<path class="st7" d="M176.4,207.2h-7.9l0.6-5.7c0.9-0.5,2.1-0.8,3.3-0.8s2.4,0.3,3.3,0.8L176.4,207.2z"/>
			<path d="M175.6,200.1l0.2,1.4c-0.9-0.5-2.1-0.8-3.3-0.8s-2.4,0.3-3.3,0.8l0.2-1.4c0.9-0.4,2-0.6,3.1-0.6S174.7,199.7,175.6,200.1
				z"/>
			<path d="M168.9,194.1c0.7,0,1.2,0.5,1.2,1.2c0,0.3-0.1,0.6-0.3,0.8v-0.2l-1.9-0.2v0.2c-0.1-0.2-0.2-0.4-0.2-0.6
				C167.7,194.7,168.2,194.1,168.9,194.1z"/>
			<path d="M169.8,195.9v0.2c-0.2,0.2-0.5,0.4-0.9,0.4s-0.8-0.2-1-0.6v-0.2L169.8,195.9z"/>
			<path class="st9" d="M168.9,196.5c0.3,0,0.7-0.2,0.9-0.4l-0.5,4c-0.8,0.3-1.5,0.8-2,1.3l0,0l0.6-5.5
				C168.1,196.3,168.5,196.5,168.9,196.5z"/>
			<path d="M169.3,200.1l-0.2,1.4c-0.4,0.2-0.7,0.5-1,0.8c-0.2,0.2-0.6,0.2-0.8,0l-0.1-0.1l0,0l0.1-0.7l0,0
				C167.8,200.9,168.5,200.4,169.3,200.1z"/>
			<path class="st9" d="M169.1,201.5l-0.6,5.7h-1.9l0.6-5.1c0,0.1,0.1,0.1,0.1,0.1c0.2,0.2,0.6,0.2,0.8,0
				C168.4,202,168.8,201.7,169.1,201.5z"/>
			<polygon points="166.6,207.2 168.5,207.2 168.5,207.6 166.6,207.4 			"/>
			<path d="M167.2,201.5l-0.1,0.7C167.1,201.9,167.1,201.7,167.2,201.5z"/>
		</g>
	</g>
	<g>
		<circle class="st10" cx="172.4" cy="133.5" r="17.7"/>
		<polyline class="st11" points="187.8,133.1 177.4,133.1 174.6,144.8 170.3,122.2 166.1,138.6 163.2,127.5 161.2,133.1 
			157.1,133.1 		"/>
		<circle class="st12" cx="157.1" cy="133.1" r="1"/>
		<circle class="st12" cx="187.8" cy="133.1" r="1"/>
	</g>
	<g>
		<circle class="st10" cx="44.4" cy="133.5" r="17.7"/>
		<polyline class="st13" points="59.7,133.5 49.4,133.5 46,137.1 41.9,130.7 39.7,133.5 29,133.5 		"/>
		<circle class="st12" cx="29" cy="133.5" r="1"/>
		<circle class="st12" cx="59.7" cy="133.5" r="1"/>
	</g>
	<rect x="12.1" y="15.4" class="st14" width="192.4" height="67"/>
	<g>
		<path class="st15" d="M52.1,29.2c-0.1,0.1-0.3,0.3-0.5,0.4s-0.3,0.1-0.5,0.2l0.5,0.3c0,0.2,0,0.3,0.1,0.4
			c-0.1,0.3-0.1,0.6-0.2,0.9v0.2c-0.1,0.3-0.2,0.5-0.2,0.7c-0.2,0.1-0.4,0.1-0.5,0.2c-0.1,0.1-0.3,0.3-0.4,0.5
			c0.2,0.1,0.4,0.2,0.6,0.3c-0.1,0.2-0.2,0.3-0.3,0.5c-0.1,0.1-0.3,0.1-0.4,0.2l0.1,0.3l0.2,0.3c-0.3,0.8-0.6,1.6-0.8,2.5
			c-0.7,1.3-1.4,2.5-2.1,3.8c-0.4,0.5-0.8,1.1-1.2,1.6s-0.9,0.9-1.2,1.5c-0.5,0.4-0.9,0.9-1.4,1.3c-0.7,0.5-1.3,1.1-2,1.6
			c-0.1,0.1-0.3,0.3-0.5,0.4c-0.2,0.1-0.4,0.2-0.5,0.3c-0.8,0.7-1.7,1.1-2.7,1.6c-0.6,0.4-1.1,0.6-1.7,0.8c0-0.2,0-0.4,0-0.6
			c0.2-0.1,0.4-0.1,0.6-0.2c0.2-0.1,0.4-0.1,0.6-0.2c0-0.2,0.2-0.5,0.2-0.6c-0.2-0.1-0.3-0.2-0.5-0.4c0-0.2,0-0.4,0.1-0.6l0.6-0.4
			c0.2-0.4,0.4-0.8,0.5-1.2c0.7-0.4,1.3-0.9,2-1.4c1.1-1,2.2-2,3.3-3.1c0.2-0.3,0.5-0.7,0.8-1c0.2-0.4,0.5-0.8,0.8-1.1
			c0.7-1.2,1.5-2.4,2.1-3.6l0.1-0.6c0.1-0.1,0.3-0.3,0.4-0.4c0-0.2,0-0.3,0-0.5c0.1-0.1,0.2-0.4,0.3-0.6c0.1-0.3,0.1-0.5,0.2-0.7
			c0-0.2,0-0.4,0.1-0.6l0.4-0.6c0.3,0.1,0.5,0.2,0.7,0.2c0.1,0.1,0.3,0.2,0.5,0.3c0-0.2,0.1-0.4,0.2-0.6c-0.1-0.2-0.1-0.4-0.1-0.7
			c-0.2-0.1-0.4-0.2-0.6-0.4c-0.1-0.2-0.3-0.3-0.4-0.5c-0.1-0.2-0.1-0.5-0.1-0.7s0.1-0.3,0.2-0.5c-0.1-0.2-0.2-0.4-0.2-0.6
			c0.1-0.5,0.1-1.1,0.2-1.6c-0.1-0.2-0.1-0.4-0.1-0.7c0.1-0.1,0.3-0.2,0.3-0.3c0-0.2-0.1-0.3-0.1-0.5c-0.1-0.2-0.2-0.4-0.2-0.6
			c-0.1-0.2-0.2-0.4-0.3-0.5c-0.2-1.1-0.4-2.2-0.6-3.3l0.2,0.1l0.2-0.1c0.1,0.4,0.3,0.8,0.6,1.1c0.2,0.1,0.4,0.2,0.6,0.3
			c0.3,0.1,0.5,0.1,0.7,0.1c0.1,0,0.3-0.1,0.4-0.1c-0.1-0.2-0.3-0.3-0.4-0.5c-0.4-0.2-0.9-0.4-1.4-0.6c-0.1-0.1-0.3-0.3-0.4-0.5
			c0-0.2,0-0.4,0.1-0.6c-0.3-0.1-0.5-0.2-0.7-0.3c-0.2-0.1-0.4-0.2-0.6-0.4c-0.1-0.2-0.1-0.4-0.1-0.6c-0.2-0.4-0.4-0.7-0.5-1.2
			c-0.2-0.4-0.4-0.7-0.6-1.1c-0.2-0.4-0.4-0.7-0.6-1.1c-0.2,0-0.5-0.2-0.7-0.2c0-0.2,0-0.4,0-0.7c-0.1-0.2-0.3-0.3-0.4-0.5
			c-0.1-0.1-0.3-0.3-0.4-0.5c-0.2,0.1-0.3,0.1-0.6,0.1c-0.2-0.4-0.3-0.8-0.4-1.2c-0.1-0.2-0.2-0.4-0.3-0.6c-0.2-0.1-0.3-0.3-0.4-0.5
			c-0.2,0-0.4,0-0.7,0c-0.2-0.1-0.3-0.3-0.4-0.4L41.3,10c-0.1-0.2-0.2-0.4-0.2-0.6c-0.2-0.1-0.3-0.2-0.5-0.4c-0.1,0-0.3,0-0.5,0
			c-0.2-0.1-0.4-0.2-0.6-0.3c-0.1-0.2-0.2-0.5-0.3-0.8l-0.6-0.4c-0.2-0.1-0.3-0.2-0.5-0.4c-0.7-0.3-1.3-0.6-1.9-1
			C35.4,6,34.7,5.6,34,5.4c-0.3-0.1-0.6-0.1-0.8-0.2c-0.3-0.1-0.6-0.1-0.8-0.1C32.2,5,32,4.9,31.7,4.8c-0.3-0.1-0.6-0.1-0.8-0.1
			c-0.3,0-0.5-0.1-0.8-0.1c-0.5,0-1.1,0-1.6-0.1c-1.2,0.1-2.4,0-3.6,0.1c-0.2,0.1-0.5,0.1-0.7,0.2c-0.2,0-0.5,0-0.7,0.1
			c-0.9,0.3-1.9,0.4-2.9,0.7c-0.9,0.3-1.8,0.6-2.7,1c-0.5,0.3-1.1,0.6-1.6,0.9c-0.2,0.1-0.4,0.2-0.5,0.3c-0.5,0.4-1,0.8-1.5,1.1
			c-1.1,0.9-2.4,1.8-3.2,3c-0.2,0.1-0.4,0.2-0.6,0.3c-0.1,0.1-0.3,0.3-0.5,0.4l-0.1,0.6c-0.2,0-0.5,0-0.7,0.1
			c-0.2-0.1-0.2,0-0.3,0.2l0.2,0.4c-0.1,0.2-0.2,0.4-0.3,0.6c-0.2,0.1-0.4,0.2-0.6,0.2C8.1,14.8,8,14.9,7.9,15
			C8,15.2,8,15.4,8.1,15.6C8,15.8,7.8,15.9,7.7,16c-0.2,0-0.4,0-0.7,0l-0.1,0.6C7,16.8,7.1,17,7.1,17.1c0,0.2-0.1,0.3-0.2,0.5
			c-0.5,1.1-0.9,2.3-1.2,3.5c-0.1,0.2-0.2,0.4-0.2,0.6c-0.1,0.3-0.2,0.6-0.2,0.8L5.2,23c-0.1,0.1-0.3,0.3-0.5,0.4
			c0.1,0.1,0.1,0.3,0.2,0.4L5,24.4c-0.2,0-0.3,0-0.5,0.1c0.1,0.1,0.3,0.2,0.5,0.3c0,0.7,0,1.4,0,2.1c-0.1,0.2-0.2,0.3-0.4,0.5
			L4.5,28c0,0.4,0.1,0.9,0.2,1.3l0.2,0.3L5,29.9l-0.1,0.6c0,0.2,0,0.5,0,0.7l0.3,0.5c0-0.2,0.1-0.3,0.2-0.5c0.1,0.2,0.2,0.4,0.3,0.5
			C5.4,31.9,5.2,32,5,32.1c-0.1,0.3-0.1,0.5-0.1,0.8c0.2,0,0.4,0,0.5,0c-0.1,0.2-0.2,0.3-0.4,0.5v0.2v0.2c0.1,0.1,0.3,0.3,0.4,0.4
			l-0.1,0.1l-0.1,0.1c0.2,0.2,0.5,0.3,0.8,0.4h0.2c-0.3,0.3-0.7,0.5-1,0.7L6,35.6c0,0.2,0.1,0.4,0.2,0.5c0.4,0.2,0.8,0.4,1.2,0.6
			c0.2,0.4,0.4,0.7,0.6,1.1c-0.1,0.1-0.3,0.3-0.5,0.4c0.1,0.2,0.1,0.4,0.2,0.6C8,38.9,8.2,38.9,8.4,39c0.2,0,0.4,0,0.5,0.1
			C9,39.3,9,39.5,9,39.8c0.1,0.1,0.3,0.3,0.4,0.4c-0.1,0.2-0.1,0.3-0.2,0.5L8.9,41c0.2,0.3,0.5,0.6,0.7,0.9C10.1,42,10.5,42,11,42
			c0.1,0.1,0.2,0.2,0.3,0.3l0,0h0.1l0.3,0.2c0.1,0,0,0,0,0.1l0,0c0,0.1-0.1,0-0.1,0h-0.1c0.4,0.4,0.9,0.8,1.3,1.2
			c0.1,0.2,0.1,0.4,0.2,0.5c0.1,0.2,0.3,0.3,0.4,0.5c0.2,0,0.4-0.1,0.6-0.1v0.1l0.1,0.1v0.5c0.3,0.1,0.5,0.2,0.8,0.2
			c0.2,0.1,0.4,0.2,0.6,0.3c0.2-0.1,0.3-0.1,0.5-0.2c0.2,0,0.4,0.1,0.6,0.1c0.1,0.2,0.3,0.3,0.4,0.5s0.2,0.3,0.3,0.5
			c0.2,0,0.4-0.1,0.7-0.1c0.3,0.3,0.7,0.5,1.1,0.8c1.5,0.3,3,0.9,4.6,1.1c0.2,0.1,0.5,0.2,0.6,0.2c0.1,0.2,0.1,0.4,0.1,0.7
			c0,0.2,0.1,0.4,0.1,0.7c0.4-0.1,0.9,0,1.3-0.1c0.2-0.1,0.4-0.1,0.6-0.2c0-0.2,0.1-0.3,0.2-0.5c-0.2-0.1-0.3-0.3-0.4-0.4
			c0.4,0,0.8,0,1.1-0.1c0.2-0.1,0.4-0.1,0.6-0.2l0.3,0.4c0,0.2,0,0.4,0,0.7c0,0.2,0,0.4,0,0.6L28.1,51c0.2-0.1,0.3-0.3,0.5-0.5
			c0-0.5,0-0.9,0-1.4c0-0.2,0.1-0.3,0.2-0.5c1.2-0.1,2.4-0.4,3.5-0.7c1.1-0.3,2.3-0.7,3.3-1.2c0.2,0,0.4,0,0.5,0L35.9,47
			c0,0.2,0,0.3,0,0.4c0,0.2-0.1,0.4-0.2,0.6c-0.2,0.1-0.3,0.3-0.5,0.4c-0.2,0.1-0.4,0.2-0.6,0.2c-0.2-0.1-0.4-0.2-0.6-0.4
			c-0.3-0.1-0.5-0.1-0.7-0.2c-0.1,0.1-0.3,0.3-0.5,0.4c0.1,0.1,0.3,0.3,0.4,0.5c0.2,0,0.4,0,0.6,0c0.2,0,0.4,0.1,0.7,0.1
			c0.1,0.1,0.3,0.3,0.4,0.5c-0.1,0.2-0.2,0.4-0.3,0.6c-0.4,0.1-0.8,0.3-1.2,0.4c-0.3-0.1-0.5-0.1-0.7-0.1c-0.2,0.1-0.4,0.2-0.6,0.2
			c-0.2-0.1-0.4-0.2-0.6-0.3c-0.5,0.4-1,0.6-1.6,0.9c-0.7,0.1-1.3,0.1-2,0.2l-0.1-0.1v-0.1l0.1-0.1c-0.1,0-0.3,0-0.5,0.1
			s-0.4,0.2-0.6,0.3c-0.2,0-0.5,0-0.7,0.1c-0.3-0.1-0.5-0.1-0.8-0.1s-0.5-0.1-0.8-0.1c-0.2,0-0.5,0-0.7,0l-0.2-0.3l-0.2-0.3l0.1-0.6
			c-0.1-0.1-0.3-0.3-0.4-0.5l-0.6,0.2c-0.1,0.2-0.2,0.3-0.3,0.5c-0.1,0.2-0.3,0.3-0.4,0.5c-1.4-0.3-3.1-0.7-4.4-1.4v0.1v0.1
			l-0.1,0.2c-0.1-0.1-0.2-0.2-0.3-0.2c-0.5-0.1-1-0.3-1.5-0.5c0.1-0.1,0.3-0.2,0.3-0.4c-0.2-0.1-0.3-0.2-0.5-0.3s-0.4-0.2-0.6-0.4
			c-0.2,0.1-0.4,0.2-0.6,0.2c-0.2-0.1-0.4-0.2-0.6-0.4c-0.1-0.2-0.1-0.3-0.2-0.5c-0.2-0.1-0.4-0.2-0.6-0.4c-0.2,0.1-0.3,0.2-0.5,0.3
			c-0.2-0.1-0.3-0.3-0.4-0.4c-0.1-0.2-0.1-0.4-0.2-0.6L11.5,47c-0.1-0.1-0.1-0.2-0.2-0.4c-0.1-0.1-0.2-0.3-0.3-0.5l-0.5-0.4
			c-0.1,0.1-0.2,0.2-0.3,0.3c-0.1-0.1-0.3-0.2-0.5-0.3c-0.1-0.2-0.3-0.3-0.4-0.5c-0.3,0-0.5,0-0.8,0c0-0.2-0.1-0.3-0.1-0.5
			c0.2-0.1,0.3-0.3,0.5-0.4L9.2,44L9,43.9C8.8,44,8.6,44,8.3,44c-0.1-0.1-0.3-0.3-0.4-0.5l-0.2-0.6c0.1,0,0.1-0.1,0.1-0.2l0.1-0.1
			L8,42.5c-0.2,0-0.3,0-0.5-0.1l-0.6,0.2c-0.2-0.1-0.3-0.3-0.4-0.4c0.2-0.1,0.3-0.3,0.5-0.4c0.1-0.1,0.2-0.2,0.3-0.4
			C7.1,41.3,7,41.1,6.8,41c-0.1-0.2-0.2-0.4-0.2-0.6c-0.1,0-0.2,0.1-0.3,0.1c-0.3-0.1-0.5-0.1-0.7-0.1c-0.1-0.1-0.1-0.2-0.2-0.4
			c0.1-0.1,0.3-0.3,0.4-0.4l-0.1-0.3V39c-0.2,0-0.4,0-0.6,0l-0.4-0.1c0.2-0.1,0.3-0.3,0.5-0.4c0-0.2,0-0.4,0-0.6
			c-0.1-0.2-0.2-0.4-0.3-0.5l-0.5-0.1c-0.2,0.1-0.4,0.1-0.7,0.1c-0.1-0.2-0.2-0.4-0.2-0.6c0.1-0.1,0.3-0.3,0.5-0.4L4.2,36
			c-0.1-0.1-0.2-0.2-0.3-0.3l-0.1-0.2l-0.1-0.2l-0.1-0.1v-0.1c-0.2,0.1-0.4,0.1-0.6,0.2c-0.2,0-0.4,0-0.6,0l0.1-0.6
			c0-0.2,0-0.4-0.1-0.7c-0.1-0.2-0.1-0.4-0.2-0.6c0.1-0.1,0.3-0.3,0.5-0.4c0-0.3,0.1-0.6,0.2-1c0-0.2,0-0.4,0-0.7l-0.1-0.1l-0.1-0.1
			c-0.1,0-0.1,0-0.2,0c-0.1-0.2-0.3-0.3-0.4-0.5v-0.5c0.1-0.1,0.3-0.3,0.4-0.4c-0.1-0.2-0.2-0.4-0.3-0.5c-0.2,0-0.3-0.1-0.5-0.2
			l0.4-0.5c0-0.2,0.1-0.3,0.2-0.5c-0.1-0.2-0.2-0.4-0.3-0.6c0-0.2,0.1-0.5,0.2-0.7c-0.1-0.2-0.2-0.4-0.3-0.6C2,26,2.1,25.8,2.3,25.6
			l-0.2-0.5c0.1-0.2,0.2-0.4,0.2-0.6c-0.1-0.1-0.3-0.2-0.4-0.3c0-0.2,0-0.4,0.1-0.6c0.1-0.2,0.3-0.3,0.5-0.4c0.4-2,0.7-4.1,1.7-5.9
			c0.4-1.4,1.2-2.6,1.9-3.9c0.1-0.2,0.2-0.3,0.4-0.5c0.5-1,1.3-1.8,2-2.6S10,8.8,10.7,8c0.5-0.4,1-0.8,1.5-1.1
			c0.1-0.1,0.3-0.3,0.5-0.4c0.5-0.3,1.1-0.7,1.6-1c0.6-0.2,1.1-0.6,1.6-0.9c1.1-0.4,2.1-1,3.2-1.3c1.2-0.4,2.3-0.6,3.4-1
			c0.9-0.1,1.8-0.3,2.7-0.4c0.7,0.1,1.5,0,2.2-0.1c0.4,0,0.9,0,1.4,0c0.3,0.1,0.6,0.1,0.8,0.1c0.2,0,0.5,0,0.7-0.1
			C31.1,2,32,2.2,32.8,2.3c0.5,0.2,1.1,0.3,1.6,0.5C35.3,3,36,3.3,36.7,3.5c0.6,0.4,1.3,0.7,1.9,1C39,4.7,39.4,5,39.8,5.2l-0.1,0.4
			c0.1,0.1,0.2,0.2,0.3,0.2l0.6-0.1c0.1,0.2,0.1,0.4,0.1,0.6c0.1,0.2,0.3,0.3,0.4,0.5V6.6c0-0.2,0-0.4,0-0.5
			c0.2,0.3,0.4,0.5,0.7,0.7L42,7c0.1,0,0,0.1,0,0.2c0.2,0.1,0.4,0.2,0.6,0.4c0.2-0.1,0.3-0.1,0.5-0.2L42.9,8c0,0.1,0.1,0.2,0.2,0.3
			c0.1,0.1,0.3,0.1,0.5,0.2v0.2l0.1,0.2C43.8,9,44,9.1,44.1,9.1C44.1,9,44,8.9,44,8.8c0.2,0,0.3,0,0.5,0c0.1,0.1,0.3,0.3,0.4,0.5
			l-0.1,0.1l-0.1,0.1c0.1,0.1,0.3,0.2,0.4,0.3l0.6,0.1c0,0.2,0,0.4,0,0.6c0,0.2,0.1,0.3,0.1,0.4L46,11l0.2,0.1c0.2,0,0.3,0,0.5-0.1
			c0.1,0.2,0.2,0.4,0.3,0.6l0.4,0.5c0.1,0.2,0.2,0.4,0.3,0.5c0.1,0.2,0.3,0.3,0.4,0.5c0,0.2-0.1,0.4-0.2,0.6l0.1,0.6
			c0.2,0.1,0.3,0.3,0.5,0.4c0.2,0,0.4,0,0.5,0.1v0.4l-0.1,0.5c0.2,0,0.4,0.1,0.6,0.1l0.1,0.3l0.2,0.3c0.1,0.4,0.3,0.8,0.5,1.1
			c0.1,0.5,0.1,0.9,0.1,1.4c0.1,0.2,0.1,0.4,0.2,0.6c0.1,0.1,0.3,0.3,0.4,0.5c0.1,0.4,0.2,0.9,0.4,1.3c0.1,0.9,0.2,1.8,0.3,2.7
			c-0.1,0.1-0.3,0.1-0.4,0.3c-0.2,0.1-0.4,0.2-0.6,0.2c0,0.2-0.1,0.4-0.1,0.6c-0.1,0.2-0.1,0.4-0.2,0.6l0,0.3c0.2,0,0.3-0.1,0.5-0.1
			c0.4,0.3,0.8,0.4,1.2,0.7c0.1,0.4,0.1,0.8,0.3,1.3c-0.1,0.3-0.1,0.5-0.1,0.8L52.1,29.2z M3,24.1c0-0.2,0-0.2-0.1-0.2H2.8L3,24.1z
			 M4.7,18.2c-0.1,0.1-0.3,0.3-0.4,0.4c0.2-0.1,0.3-0.2,0.3-0.3L4.7,18.2z M3.3,25.4v-0.1c-0.1,0.1-0.3,0.3-0.4,0.4
			c0,0.1-0.1,0.2-0.2,0.2c0,0.1,0,0.2,0,0.2h0.1c0.1-0.2,0.3-0.3,0.3-0.4C3.2,25.6,3.3,25.4,3.3,25.4L3.3,25.4z M4.6,20.2L4.6,20.2
			L4.6,20.2v-0.1V20.2c-0.2,0.1-0.4,0.4-0.5,0.5c0.2-0.2,0.3-0.3,0.4-0.3C4.5,20.3,4.6,20.3,4.6,20.2L4.6,20.2z M5.4,17.3
			c0-0.2,0-0.3,0-0.3c0-0.1-0.3-0.5-0.3-0.3c0,0.1,0.1,0.2,0,0.3c0,0.1,0.1,0.2,0.1,0.3H5.4z M4.6,22.6H4.4c-0.1,0-0.3,0-0.4,0
			s-0.2,0.1-0.3,0.1l-0.1,0.1C4,22.6,4.3,22.6,4.6,22.6z M4.9,18.9c0-0.1-0.1-0.2-0.1-0.2l-0.1-0.1C4.6,18.7,4.8,18.9,4.9,18.9
			L4.9,18.9z M5.7,17.8L5.7,17.8c-0.3,0-0.5,0-0.7-0.1c-0.1,0-0.1-0.1-0.1-0.1c0,0.1,0.1,0.1,0.1,0.1c0,0.1,0.1,0,0,0.1
			C5.1,17.9,5.3,17.9,5.7,17.8L5.7,17.8z M5.4,16.3c0-0.2-0.1-0.4-0.1-0.6l-0.1,0.2c0,0.1,0,0.2,0,0.3L5.4,16.3z M3.9,23.4L3.9,23.4
			c-0.2,0-0.2,0-0.3,0.1l-0.1,0.1L3.9,23.4z M4.3,22.3L4.3,22.3L4.3,22.3c0-0.1-0.1-0.1-0.2,0H3.9c0.1,0,0.2,0,0.3,0.1
			C4.2,22.3,4.2,22.3,4.3,22.3L4.3,22.3L4.3,22.3z M4.5,21.2L4.5,21.2L4.5,21.2c0-0.1-0.1,0-0.2,0.1c-0.1,0-0.1,0.1-0.1,0.1l0,0
			C4.3,21.4,4.4,21.3,4.5,21.2L4.5,21.2z M3.8,24.9c0-0.2,0-0.3-0.1-0.3l-0.1-0.1C3.6,24.6,3.7,24.8,3.8,24.9L3.8,24.9z M2.8,28.2
			c0-0.2,0-0.4,0.1-0.5l-0.1,0.1C2.8,27.9,2.8,28.1,2.8,28.2z M5,18.5L5,18.5C5,18.5,5,18.4,5,18.5C4.9,18.4,4.9,18.5,5,18.5
			l-0.1,0.2C4.9,18.6,5,18.5,5,18.5L5,18.5z M4.6,23L4.6,23c-0.2,0-0.3,0.1-0.4,0.2c-0.1,0.1-0.1,0.2-0.1,0.2v0.1
			c0.2-0.1,0.3-0.3,0.4-0.3L4.6,23z M6.3,15.2H6v0.1L6.3,15.2z M6,16.9L5.8,17c-0.1,0-0.1,0.1-0.1,0.2v0.2C5.9,17.2,6,17.1,6,17
			L6,16.9z M4.2,24.9L4.2,24.9L4.2,24.9c0-0.1-0.2,0-0.3,0.2c-0.1,0.1-0.2,0.3-0.1,0.3h0.1C4,25.3,4.1,25.2,4.2,24.9L4.2,24.9z
			 M4.5,26.1H4.3c-0.1,0-0.2,0.1-0.3,0.1c-0.1,0-0.2,0.1-0.3,0.1s-0.2,0.1-0.2,0.2v0.1C3.9,26.6,4.2,26.4,4.5,26.1z M4.8,22.1
			c0-0.1,0-0.2,0-0.3l-0.1-0.1v0.2C4.7,22,4.7,22,4.8,22.1v0.1V22.1z M6,16.5L6,16.5c0-0.1,0-0.1,0-0.1C5.9,16.2,5.8,16.3,6,16.5
			l-0.1,0.1C5.9,16.6,6,16.6,6,16.5L6,16.5z M6.6,13.9C6.6,13.9,6.6,13.8,6.6,13.9c0-0.1,0-0.1,0-0.1l-0.1-0.1L6.6,13.9
			C6.5,14,6.6,13.9,6.6,13.9L6.6,13.9z M5.5,20.4L5.5,20.4c-0.1-0.1-0.2-0.2-0.3-0.2c0-0.1-0.1,0-0.1,0.1v0.1H5.5z M5.9,17.9
			c0-0.2,0-0.3,0-0.3l-0.1-0.1L5.9,17.9z M5.9,18.2C5.9,18.1,5.9,18.1,5.9,18.2c0-0.1,0-0.2-0.1-0.2l-0.1,0.1c0,0.1,0,0.2,0,0.2v0.1
			C5.8,18.3,5.9,18.3,5.9,18.2L5.9,18.2z M4.3,27.7H4.1c-0.1,0-0.2,0-0.3,0H3.7c0.3,0.1,0.4,0,0.5,0.1L4.3,27.7z M6.4,16.8
			c0-0.1-0.1-0.5-0.2-0.5s-0.1,0.4-0.1,0.3c0,0.2,0,0.3,0.1,0.3L6.4,16.8z M3.7,29.5L3.7,29.5c0,0-0.1,0-0.2,0H3.3
			C3.4,29.6,3.6,29.6,3.7,29.5L3.7,29.5L3.7,29.5z M5.4,21.7L5.4,21.7c0-0.1,0-0.2-0.1-0.1H5.1l0.3,0.3C5.4,21.7,5.4,21.7,5.4,21.7
			L5.4,21.7z M6.2,18.9L6.2,18.9C6.2,18.8,6.2,18.8,6.2,18.9c-0.2-0.1-0.3-0.1-0.3-0.2v-0.2v0.2c0,0.1,0,0.2-0.1,0.3
			c0,0.1-0.1,0.1-0.1,0.1l0,0C6,19.2,6.1,19.1,6.2,18.9L6.2,18.9L6.2,18.9z M4.1,28.3L4.1,28.3c0-0.1,0-0.1,0-0.2S3.7,27.8,3.8,28
			c0,0.1,0.1,0.1,0.2,0.1c0.1,0,0.1,0.1,0.1,0.1C4,28.3,4,28.4,4.1,28.3v0.1C4.1,28.4,4.1,28.4,4.1,28.3L4.1,28.3z M6.9,15L6.9,15
			c-0.1,0.1-0.2,0.2-0.3,0.2L6.9,15z M4.7,25.7C4.7,25.6,4.7,25.6,4.7,25.7c0-0.1-0.1-0.1-0.2-0.1s-0.1,0.1-0.1,0.2v0.1
			C4.5,25.8,4.7,25.8,4.7,25.7L4.7,25.7z M4.8,26.8H4.6c-0.2,0-0.4,0.1-0.5,0.3h0.1C4.4,27,4.6,26.9,4.8,26.8L4.8,26.8z M5.6,21.1
			v-0.3H5.5C5.5,20.9,5.5,20.9,5.6,21.1L5.6,21.1z M3.9,29.9H3.7c-0.1,0-0.1,0-0.1,0.1v0.1L3.9,29.9z M8.2,12.2
			c-0.2,0.1-0.4,0.1-0.6,0.2c-0.1,0-0.1,0.1-0.1,0.1l0.1,0.1c0.2-0.1,0.3-0.2,0.4-0.2L8.2,12.2z M3.7,31.3L3.7,31.3
			C3.7,31.2,3.7,31.2,3.7,31.3c0-0.2-0.2-0.3-0.1-0.1C3.6,31.2,3.6,31.3,3.7,31.3v0.2C3.7,31.3,3.6,31.4,3.7,31.3L3.7,31.3z
			 M3.1,33.6C3.1,33.5,3.1,33.5,3.1,33.6C3,33.5,3,33.5,3.1,33.6L3.1,33.6L3.1,33.6z M7.4,15H7.2c-0.1,0-0.1,0.1-0.1,0.1v0.1L7.4,15
			z M3.6,34.3l-0.2,0.1c-0.1,0-0.2,0.1-0.3,0.2S3,34.7,3,34.7C3.2,34.6,3.4,34.4,3.6,34.3z M7.7,15.6c0-0.1,0-0.2,0-0.3
			s-0.2-0.1-0.2-0.2H7.3l0.1,0.1C7.5,15.3,7.6,15.4,7.7,15.6L7.7,15.6L7.7,15.6z M8.2,14.2L8.2,14.2c0-0.2-0.1-0.2-0.3-0.1
			c-0.2,0.1-0.3,0.2-0.3,0.2h0.1C8,14.4,8.1,14.3,8.2,14.2L8.2,14.2z M8.1,13.2L8.1,13.2C8,13.1,8,13.2,8.1,13.2H7.9H8.1L8.1,13.2z
			 M4,33.4c-0.2,0-0.4,0-0.5,0.1H3.4C3.7,33.5,3.8,33.4,4,33.4L4,33.4z M4.3,30.5v-0.3v0.1C4.2,30.4,4.3,30.5,4.3,30.5L4.3,30.5z
			 M9.1,10.8C9,10.6,9,10.5,8.9,10.5c-0.1,0-0.1,0.1,0,0.1C8.9,10.7,9,10.7,9.1,10.8L9.1,10.8z M4.7,31.4c0-0.1,0-0.2,0-0.3L4.5,31
			v0.2C4.6,31.3,4.6,31.4,4.7,31.4v0.1V31.4z M9.1,12.6H9c-0.1,0-0.1-0.1-0.2-0.3c0-0.1-0.1-0.2-0.1-0.2l-0.1,0.1
			c0,0.1,0,0.3,0.1,0.3l0.1,0.1L9.1,12.6z M9.3,11.5H9.1c-0.1,0-0.2,0.1-0.1,0.1v0.1L9.3,11.5z M9.9,9.9C9.9,9.8,9.9,9.9,9.9,9.9
			L9.4,10v0.1c0.2,0,0.3,0,0.4-0.1C9.9,10,9.9,9.9,9.9,9.9L9.9,9.9z M9.3,12.4C9.2,12.1,9.2,12,9.1,12L9,11.9l0.1,0.2
			C9.2,12.2,9.2,12.3,9.3,12.4L9.3,12.4z M4.8,33.6L4.8,33.6c-0.2,0-0.2,0-0.3,0.1H4.4L4.8,33.6z M11.5,10.3L11.5,10.3
			c0-0.2-0.2-0.2-0.3-0.2c-0.2,0-0.3-0.2-0.3-0.3c0.1-0.1,0-0.2-0.1-0.2s-0.2-0.1-0.3-0.2l-0.1-0.2l-0.1,0.4c0,0.2-0.2,0.5-0.2,0.6
			s-0.3,0.4-0.4,0.4c-0.1,0.1,0,0.2,0.2,0.2h0.3c0.3-0.1,0.6-0.2,0.9-0.2c-0.2,0-0.4,0-0.6,0l0.1-0.1c0.1-0.1,0.3,0,0.4,0
			C11.3,10.5,11.4,10.5,11.5,10.3L11.5,10.3z M9.8,12l-0.4-0.5v0.2c0,0.1,0.1,0.2,0.2,0.3H9.8L9.8,12z M5.1,35.7L5.1,35.7L5.1,35.7
			c0-0.1,0-0.2-0.1-0.2s-0.1-0.1-0.2-0.1s-0.2,0-0.2,0.1c0,0.2,0,0.4-0.1,0.5v0.1C4.9,35.9,5,35.8,5.1,35.7
			C5,35.8,5.1,35.7,5.1,35.7L5.1,35.7z M10.3,11.7c-0.1,0-0.2,0.1-0.2,0.1h0.1L10.3,11.7z M11,11l-0.2-0.1c-0.1-0.1-0.3-0.1-0.3,0
			c-0.1,0-0.1,0.1-0.1,0.1v0.1C10.8,11.1,11,11.1,11,11L11,11z M6.5,37.9c-0.1-0.2-0.1-0.4-0.1-0.6c0.3-0.1,0.2-0.3,0.2-0.5
			c-0.1-0.1-0.4-0.3-0.5-0.4c-0.1-0.1-0.5-0.1-0.6,0c-0.3,0.1-0.6,0.4,0,0.4c0.2,0,0.5,0.1,0.6,0.2c0.1,0.1,0.4,0.4,0.5,0.6
			L6.5,37.9z M11.7,8.3L11.7,8.3c0-0.1,0-0.3,0-0.3c0-0.1-0.1-0.1-0.2-0.1S11.4,8,11.4,8.1c0,0.1,0.1,0.2,0.1,0.3v0.1
			C11.6,8.5,11.7,8.4,11.7,8.3L11.7,8.3z M11.5,9c0-0.1,0-0.2,0-0.2h-0.1c0,0-0.1,0.1-0.1,0.2c0,0.1-0.1,0.2-0.1,0.2v0.1
			C11.4,9.3,11.5,9.2,11.5,9L11.5,9z M12.6,9.1l-0.2,0.3c-0.1,0.1-0.3,0.3-0.4,0.3c-0.2,0.1-0.5,0.1-0.7,0.2c0.3,0,0.7-0.1,1-0.1
			L12.6,9.1z M13.5,8.7L13.5,8.7l-0.1-0.1c0-0.1-0.1-0.1-0.1-0.2c0-0.1-0.4-0.2-0.5-0.3s-0.3-0.4-0.5-0.3c-0.1,0-0.1,0.2,0,0.4
			c0.1,0.2,0.2,0.4,0.3,0.4C12.8,8.7,13,8.9,13.2,9C13.4,8.8,13.5,8.8,13.5,8.7L13.5,8.7z M16,7c0-0.1,0.1-0.3,0-0.3
			c0-0.1-0.3-0.3-0.4-0.4s-0.4-0.4-0.4-0.6S15,5.5,14.9,5.6S14.7,5.9,14.8,6c0.1,0.1,0.1,0.2,0.1,0.4c0,0.1,0.1,0.1,0.2,0.1h0.3
			c-0.5,0.4-1,0.9-1.5,1.3L14,7.4c0-0.2,0.2-0.3,0.3-0.4s0.1-0.4-0.1-0.5L14,6.2v0.2c0,0.1-0.1,0.2-0.3,0.2c-0.1,0-0.3,0.1-0.5,0.2
			c-0.1,0-0.3,0.2-0.3,0.3c-0.1,0-0.1,0.3,0,0.4c0.1,0.2,0.3,0.4,0.5,0.7c0.1,0.1,0.2,0.4,0.2,0.5v0.2C13.8,8.6,14,8.4,14,8.4
			s0-0.1,0.1-0.1c0-0.1,0-0.2-0.1-0.2l0-0.4h0.1c0.1,0,0.2,0,0.2,0c0.1,0,0.3,0.1,0.3,0.1c0.1,0.1,0.3,0.1,0.5,0l0.4-0.2
			C15.3,7.2,15.4,7,15.4,7c0.1,0,0.3,0,0.4,0.1C15.7,7.2,15.9,7.1,16,7L16,7z M7,37.5c0-0.1,0-0.2,0-0.2c-0.1,0-0.1,0-0.2,0.1
			c-0.1,0-0.1,0.2-0.2,0.2v0.1C6.8,37.7,6.9,37.6,7,37.5L7,37.5z M14.2,6C14.2,6,14.3,5.9,14.2,6C14.1,5.9,14,6,14,6h-0.1
			C14.1,6.1,14.2,6.1,14.2,6L14.2,6z M7.7,37.7c0-0.1,0-0.2-0.1-0.2c0-0.1-0.2-0.1-0.2-0.1c-0.1,0-0.1,0.1,0,0.2
			c0,0.1,0.1,0.2,0.2,0.3L7.7,38C7.7,37.8,7.7,37.8,7.7,37.7L7.7,37.7z M16.7,6.7c0-0.1,0-0.1,0-0.2c-0.1,0.1-0.3,0.2-0.4,0.3
			C16.5,6.8,16.6,6.8,16.7,6.7L16.7,6.7L16.7,6.7z M11.2,42.2h-0.1c-0.1,0-0.1,0-0.1,0.1v0.1L11.2,42.2z M20.7,3.7L20.7,3.7
			C20.7,3.6,20.7,3.6,20.7,3.7c0-0.2-0.1-0.3-0.2-0.4c-0.1,0-0.1,0.1-0.1,0.2c0,0.1,0.1,0.2,0.1,0.3l0.1,0.1
			C20.6,3.9,20.7,3.8,20.7,3.7L20.7,3.7z M21.3,3.8c-0.2,0.1-1,0.5-1,0.6v0.1C20.8,4.2,21,4,21.1,4L21.3,3.8z M17.3,49.5l-0.2-0.1
			c-0.1-0.1-0.3-0.1-0.6-0.2c0.1,0.1,0.2,0.2,0.4,0.3H17H17.3z M29,4.1L29,4.1L29,4.1L29,4.1z M29.6,3.9h-0.2c-0.1,0-0.2,0-0.3,0
			C29,4,29.1,4,29,4.1c0.2,0,0.1,0,0.3,0.1c0.1,0,0.1,0,0.2,0l0,0c0-0.1,0.1-0.1,0.1-0.1V3.9z M24.6,50.3c0-0.1,0-0.2-0.1-0.2
			s-0.1,0-0.1,0.1L24.6,50.3L24.6,50.3z M24.7,50.9c-0.1,0-0.3,0-0.3,0V51L24.7,50.9z M35.5,5.2L35.5,5.2c0-0.2-0.5-0.1-0.5,0
			l-0.3,0.2c0.3,0,0.5,0,0.5,0C35.4,5.3,35.5,5.3,35.5,5.2L35.5,5.2z M35.2,4.4L35.2,4.4C35.2,4.4,35.2,4.3,35.2,4.4
			C35,4.4,35,4.5,35,4.6v0.2h0.1C35.1,4.6,35.2,4.5,35.2,4.4L35.2,4.4z M35.7,3.8L35.7,3.8C35.8,3.8,35.8,3.7,35.7,3.8
			c-0.1-0.1-0.2,0-0.2,0l0.1,0.1C35.7,3.9,35.7,3.9,35.7,3.8L35.7,3.8z M26,50.9L26,50.9C26,50.8,26,50.8,26,50.9
			c-0.2-0.5-0.9-0.2-0.5,0c0.1,0,0.2,0.1,0.2,0.1h0.1C25.8,51.1,25.9,51,26,50.9C25.9,51,25.9,51,26,50.9L26,50.9z M36.3,4.5h-0.2
			c-0.1,0-0.1,0-0.1,0.1v0.1L36.3,4.5z M36.3,5.7L36.3,5.7C36.3,5.6,36.3,5.6,36.3,5.7c0-0.2-0.1-0.3-0.1-0.3s-0.1,0-0.2,0.1
			s0,0.1,0,0.2l0.1,0.1C36.1,5.7,36.2,5.7,36.3,5.7L36.3,5.7z M26.5,50.7L26.5,50.7C26.5,50.6,26.5,50.6,26.5,50.7
			c-0.1-0.1-0.2,0-0.1,0s0,0.2,0,0.2h0.1C26.5,50.8,26.5,50.7,26.5,50.7L26.5,50.7z M38.1,6c0-0.4-0.1-0.6-0.2-0.7S37.5,5,37.4,4.9
			s-0.2-0.4-0.1-0.5c0-0.1-0.1-0.2-0.2-0.2c-0.2,0-0.3,0.1-0.3,0.2s0.2,0.4,0.3,0.5c0.3,0.3,0.6,0.7,0.9,0.9L38.1,6z M27.8,50.4
			L27.8,50.4c0-0.1-0.1-0.2-0.2-0.2c-0.2,0-0.4,0.1-0.4,0.2L27,50.8l0.3-0.2C27.6,50.6,27.8,50.5,27.8,50.4L27.8,50.4z M37.3,6
			c0-0.1,0-0.2,0-0.3c0-0.1-0.1-0.1-0.2-0.1c-0.1,0,0,0.2,0,0.2L37.3,6L37.3,6L37.3,6z M37.4,6.4C37.3,6.3,37.1,6.2,37,6v0.1
			c0,0.1,0.1,0.1,0.2,0.1L37.4,6.4z M28.1,50L28.1,50C28,49.9,28,49.8,28,49.7c0.1-0.1-0.2-0.2-0.2,0c0,0.1,0,0.2,0,0.2V50H28.1z
			 M38.1,6.8V6.6L38,6.7C37.9,6.7,37.9,6.8,38.1,6.8L38.1,6.8z M39.4,5.2C39.1,5.1,38.9,5,38.7,5h-0.2l0.3,0.2
			c0.2,0.1,0.4,0.2,0.5,0.1L39.4,5.2z M41.5,7.9L41.5,7.9C41.5,7.8,41.5,7.8,41.5,7.9c0-0.2-0.1-0.3-0.2-0.4
			c-0.4-0.2-0.8-0.1-1.2-0.2l0.3-0.1c0.1-0.1,0.3-0.2,0.3-0.3c0.1-0.1,0-0.3-0.1-0.5c-0.1-0.1-0.3-0.3-0.4-0.3c-0.1,0-0.3,0-0.5,0.1
			c-0.2,0-0.4-0.1-0.5-0.3c-0.1-0.2-0.2-0.2-0.3-0.1s-0.2,0.3-0.3,0.5c-0.1,0.1,0,0.4,0,0.5c-0.1,0-0.2,0-0.3,0h0.1l0.2-0.1l0,0
			C38.8,7,39,7.2,39.2,7.4c0.2,0.1,0.4,0.3,0.4,0.5c0,0.1,0.3,0.3,0.5,0.4l0.5,0.1c0.4,0.1,0.6,0,0.6,0C41.3,8.3,41.4,8.1,41.5,7.9
			C41.5,7.9,41.5,8,41.5,7.9L41.5,7.9z M41.8,7.6h-0.2l-0.1-0.1v0.1l0.1,0.1L41.8,7.6z M44.3,10.4C44.1,10.1,44.1,10,44,10
			c0,0,0.1-0.1,0.1-0.2c0.2-0.2-0.4-0.3-0.5-0.2c0,0.1,0,0.3,0,0.4l0.1,0.2l0-0.2c-0.1-0.1-0.3-0.3-0.4-0.5
			c-0.2-0.4-0.8-0.3-1.2-0.6c-0.1-0.1-0.3-0.1-0.4,0c0,0.1,0,0.3,0.1,0.4c0.1,0.1,0.3,0.2,0.3,0.3s0.2,0,0.3,0l0.3-0.2l-0.1,0.3
			c0,0.2,0.1,0.4,0.2,0.5c0.1,0.1,0.4,0.2,0.5,0.2s0.3,0,0.5-0.1l0.2-0.1c-0.1,0.1-0.2,0.3-0.3,0.5C43.9,10.5,44.2,10.5,44.3,10.4z
			 M42.3,8.3L42.3,8.3c0-0.1,0-0.1,0-0.1c0-0.1-0.1-0.2,0-0.3c0-0.1-0.1-0.1-0.2,0S42,8.1,42,8.1c0,0.1,0.1,0.2,0.1,0.2l0.1,0.1
			C42.2,8.4,42.3,8.4,42.3,8.3L42.3,8.3z M42.5,10.6c-0.1-0.2-0.2-0.4-0.2-0.4C42.2,10,42,9.9,41.8,9.8l0.1,0.2
			c0,0.1,0.2,0.3,0.3,0.3s0.2,0.2,0.3,0.2L42.5,10.6z M42.9,8.6L42.9,8.6c0-0.1,0-0.1,0-0.1c0-0.1-0.1-0.1-0.2,0
			c0,0.1-0.1,0.3,0,0.3l0.1,0.1C42.8,8.8,42.9,8.7,42.9,8.6L42.9,8.6z M45.3,11.2L45.3,11.2c0-0.1,0-0.2,0-0.3
			c-0.1-0.1-0.2-0.2-0.4,0c-0.3,0.3-0.3-0.2-0.6-0.2c-0.1,0-0.2,0.1-0.2,0.2c0,0.1,0.2,0.3,0.3,0.4c0.1,0.1,0.3,0.2,0.4,0.2h0.3
			C45.1,11.4,45.2,11.3,45.3,11.2L45.3,11.2z M44.1,11.6l0.1-0.3l-0.1,0.1C44.1,11.5,44.1,11.5,44.1,11.6L44.1,11.6z M45.1,10.4
			L45.1,10.4c-0.1,0-0.2,0-0.2,0l-0.1,0.1L45.1,10.4z M45.8,12.2L45.8,12.2c0-0.1,0.1-0.3-0.1-0.3c-0.1-0.1-0.2,0-0.2,0.1
			c0,0.3-0.5,0-0.6-0.1l-0.2-0.2V12c0.1,0.1,0.2,0.4,0.4,0.6c0.1,0.1,0.3,0.2,0.5,0.1l0.2-0.2C45.8,12.2,45.8,12.3,45.8,12.2
			L45.8,12.2z M46.4,12.6L46.4,12.6C46.4,12.5,46.4,12.5,46.4,12.6c0-0.1-0.1,0-0.2,0c-0.1,0.1-0.2,0.2-0.3,0.3
			c0.3,0,0.4-0.1,0.5-0.2C46.4,12.7,46.4,12.6,46.4,12.6L46.4,12.6z M46.3,13.1L46.3,13.1c0-0.1-0.1-0.1-0.2,0
			c-0.1,0-0.2,0.1-0.2,0.1v0.1C46.1,13.2,46.2,13.2,46.3,13.1L46.3,13.1z M46.2,14.5c-0.1-0.1-0.2-0.2-0.3-0.3l0.1,0.1
			C46.1,14.4,46.1,14.4,46.2,14.5z M46.8,11.4c-0.1,0-0.2,0.1-0.3,0H46.8z M47.5,14.2L47.5,14.2C47.5,14.1,47.5,14.1,47.5,14.2
			c-0.1-0.1-0.4,0-0.5,0.1c-0.1,0-0.1,0.1-0.1,0.2c0,0.1,0,0.2,0,0.2v0.1c0.1-0.2,0.3-0.3,0.3-0.3C47.3,14.4,47.5,14.3,47.5,14.2
			L47.5,14.2L47.5,14.2z M47.6,13L47.6,13c0-0.1,0-0.1-0.1-0.1c-0.1-0.1-0.2,0-0.2,0.1s0.1,0.2,0.1,0.2h0.1
			C47.5,13.1,47.5,13,47.6,13L47.6,13z M47.1,14.9L47.1,14.9c0-0.1,0-0.1,0-0.1v-0.1V14.9C47,15,46.9,15.2,47,15.3
			c0,0.1,0,0.2,0,0.2h0.1C47,15.3,47.1,15.1,47.1,14.9L47.1,14.9z M48,15c-0.1,0.1-0.6,0.2-0.6,0.4c0.3,0,0.4-0.2,0.5-0.2L48,15z
			 M48.1,15.4L48.1,15.4c-0.1,0.1-0.2,0.2-0.3,0.3c-0.1,0-0.2,0.1-0.2,0.1h-0.1c0.3,0,0.4-0.1,0.5-0.2L48.1,15.4z M48.4,16.9
			L48.4,16.9L48.4,16.9c-0.2-0.2-0.3-0.3-0.4-0.4c0.1,0.2,0.2,0.4,0.2,0.6C48.3,17,48.4,17,48.4,16.9L48.4,16.9z M48.6,16.5
			L48.6,16.5c-0.2,0-0.2,0-0.3,0h-0.1H48.6z M48.8,17.3L48.8,17.3c-0.1,0-0.1,0-0.2,0.1c-0.1,0.1-0.3,0.2-0.3,0.4
			c0.2-0.2,0.3-0.3,0.4-0.3C48.7,17.4,48.7,17.4,48.8,17.3L48.8,17.3z M50.1,17.9c-0.2,0-0.3,0.1-0.5,0.2l-0.1,0.1
			C49.8,18.1,50,18,50.1,17.9z M46.9,38.1c0-0.2-0.1-0.2-0.1-0.2C46.8,37.9,46.8,37.9,46.9,38.1L46.9,38.1z M47.8,36.4h-0.2
			c-0.1,0-0.1,0-0.1,0v0.1L47.8,36.4z M47.7,37.4v-0.2l-0.1,0.1C47.7,37.3,47.7,37.4,47.7,37.4L47.7,37.4z M49.2,33.8
			C49.2,33.7,49.2,33.7,49.2,33.8c-0.1-0.2-0.2-0.1-0.2-0.1c0,0.1,0,0.2,0,0.2h0.1C49.1,33.9,49.2,33.9,49.2,33.8L49.2,33.8z
			 M50.1,32.4c0-0.1,0-0.2,0-0.2c0-0.1-0.1-0.1-0.2-0.1c-0.1,0-0.2,0.2-0.2,0.3s0,0.2,0,0.3C50,32.7,50.1,32.5,50.1,32.4
			C50.1,32.5,50,32.5,50.1,32.4L50.1,32.4z M50.1,35.4c0-0.2,0-0.3-0.1-0.4c-0.1-0.1-0.2-0.2-0.3-0.3s-0.2-0.1-0.3-0.1
			c-0.2,0.1,0.2,0.4,0.3,0.5S49.9,35.3,50.1,35.4z M52,28c0-0.1-0.1-0.2-0.1-0.2c-0.1-0.1-0.5-0.3-0.6-0.2c-0.2,0-0.3,0.2-0.2,0.4
			c0.1,0.2,0.4,0.3,0.5,0.3h0.3C51.9,28,52,28,52,28L52,28z M51,30.8h-0.2c-0.1,0-0.2,0-0.2,0v0.1L51,30.8z"/>
		<g>
			<path class="st15" d="M38.6,35.2C38.7,35.1,38.7,35.1,38.6,35.2c-0.1,0.1-0.2,0.2-0.3,0.3C38.5,35.4,38.6,35.3,38.6,35.2z"/>
			<path class="st15" d="M26.4,20.3c0.1,0,0.2,0,0.3,0.1v-0.1l-0.2-0.1L26.4,20.3z"/>
			<polygon class="st15" points="27.2,26.6 27.6,26.2 28.2,26.5 27.9,25.9 28.4,25.4 27.7,25.5 27.4,25 27.3,25.6 26.7,25.7 
				27.3,26 			"/>
			<polygon class="st15" points="25.1,14.5 25.6,14.1 26.1,14.4 25.9,13.8 26.3,13.3 25.7,13.4 25.4,12.8 25.3,13.5 24.6,13.6 
				25.2,13.9 			"/>
			<polygon class="st15" points="27,19.4 26.8,20.2 27.2,20.4 26.9,19.8 27.3,19.4 			"/>
			<path class="st15" d="M26.2,20.6l0.3-0.3c-0.1,0-0.2,0-0.2-0.1L26.2,20.6z"/>
			<polygon class="st15" points="26.7,23.6 27.1,23.2 27.7,23.4 27.4,22.9 27.8,22.4 27.2,22.5 26.9,21.9 26.8,22.6 26.2,22.7 
				26.8,23 			"/>
			<path class="st15" d="M27.4,18l0.3,0.2l-0.1,0.6l0.4-0.5l0.6,0.3L28.4,18l0.4-0.5l-0.6,0.1v-0.1C27.9,17.7,27.7,17.8,27.4,18
				L27.4,18z"/>
			<path class="st15" d="M27.6,14.5l-0.2-0.4l-0.1,0.6l-0.6,0.1L27,15C27.1,14.8,27.4,14.6,27.6,14.5z"/>
			<path class="st15" d="M25.7,17.4c0.1,0,0.1-0.1,0.2-0.1c0.1-0.2,0.2-0.5,0.4-0.9L26,15.8l-0.1,0.6l-0.6,0.1l0.6,0.3L25.7,17.4z"
				/>
			<polygon class="st15" points="28.2,21.8 28.6,21.3 29.2,21.6 28.9,21 29.4,20.6 28.7,20.7 28.4,20.1 28.3,20.7 27.7,20.9 
				28.3,21.2 			"/>
			<polygon class="st15" points="23.6,16.3 24,15.9 24.6,16.2 24.3,15.6 24.8,15.1 24.1,15.2 23.8,14.7 23.7,15.3 23.1,15.4 
				23.7,15.7 			"/>
			<polygon class="st15" points="23.6,27.3 24.1,26.8 24.6,27.1 24.4,26.5 24.8,26 24.2,26.1 23.9,25.6 23.8,26.2 23.1,26.3 
				23.7,26.6 			"/>
			<path class="st15" d="M24.5,17.9l-0.1-0.2V18C24.4,17.9,24.4,17.9,24.5,17.9z"/>
			<polygon class="st15" points="25.1,25.4 25.6,25 26.2,25.3 25.9,24.7 26.3,24.2 25.7,24.3 25.4,23.7 25.3,24.4 24.6,24.5 
				25.2,24.8 			"/>
			<path class="st15" d="M24.3,21.6L24.3,21.6l0.4,0.2l-0.1,0.6l0.4-0.5l0.6,0.3l-0.3-0.6l0.4-0.5l-0.6,0.1l-0.3-0.6l-0.1,0.6
				l-0.6,0.1L24.3,21.6C24.3,21.5,24.3,21.6,24.3,21.6z"/>
			<polygon class="st15" points="28.7,13.9 29.1,13.5 29.7,13.7 29.4,13.2 29.9,12.7 29.2,12.8 28.9,12.2 28.8,12.9 28.2,13 
				28.8,13.3 			"/>
			<path class="st15" d="M41.8,26.8L41.8,26.8c0-0.1,0-0.2,0-0.3c-0.1,0-0.1,0-0.1,0.1S41.8,26.8,41.8,26.8z"/>
			<path class="st15" d="M38.1,16.6l-6.4,1.1l0.4,2.2l7.5-1.3C39.1,17.9,38.6,17.2,38.1,16.6z"/>
			<path class="st15" d="M40.3,22.7c0-0.2,0.1-0.5,0.2-0.7c-0.1-0.2-0.2-0.4-0.3-0.6c0.1-0.1,0.2-0.3,0.4-0.5l-0.1-0.4l-8,1.4
				l0.4,2.2l7.6-1.3C40.4,22.9,40.3,22.8,40.3,22.7z"/>
			<path class="st15" d="M41.2,30.3C41.2,30.3,41.2,30.2,41.2,30.3C41.2,30.2,41.2,30.3,41.2,30.3L41.2,30.3z"/>
			<path class="st15" d="M41.7,24.9L41.7,24.9L41.7,24.9h-0.2C41.6,25,41.7,25,41.7,24.9C41.7,25,41.7,25,41.7,24.9z"/>
			<path class="st15" d="M22.1,38.5c-0.4,0-0.7,0.1-1.1,0.2l0.2-0.2c0.1-0.1,0.2-0.3,0.2-0.4c0-0.1-0.1-0.3-0.2-0.4
				c-0.1-0.1-0.3-0.2-0.4-0.1c-0.1,0.1-0.3,0.1-0.4,0.2c-0.1,0.1-0.4,0-0.5-0.1s-0.3-0.1-0.3,0s0,0.2-0.1,0.3c0.8,0.5,1.6,1,2.5,1.4
				c0.2-0.1,0.3-0.1,0.3-0.2c0-0.1,0.1-0.3,0.1-0.4l0,0c0,0,0,0,0-0.1C22.2,38.6,22.2,38.5,22.1,38.5z"/>
			<path class="st15" d="M39.3,34.2h-0.2C39.2,34.3,39.2,34.3,39.3,34.2C39.3,34.3,39.3,34.3,39.3,34.2z"/>
			<path class="st15" d="M38.1,35.4c-0.2-0.1-0.3-0.3-0.3-0.4c0-0.2,0.1-0.3,0-0.5l-16.1,2.7c0.2,0.1,0.4,0.2,0.6,0.3l0.2,0.1
				c0,0.1-0.1,0.3,0,0.4c0.2,0.1,0.4,0.1,0.6,0.2c0.1-0.1,0.3-0.2,0.4-0.3l0.1,0.5c0.1,0.1,0.2,0.2,0.3,0.2c0.1,0,0.3,0,0.5,0
				l0.1,0.2l0.1,0.1c0.1,0,0.2,0,0.3,0H25c-0.1-0.1-0.1-0.2-0.2-0.2c0.1,0,0.3-0.1,0.4-0.2c0.2,0.1,0.3,0.2,0.5,0.3l11.4-2
				c0.5-0.4,0.9-0.9,1.3-1.4C38.3,35.5,38.2,35.5,38.1,35.4z"/>
			<path class="st15" d="M38.7,35.1c0-0.1,0.1-0.1,0.1-0.2C38.8,35,38.7,35,38.7,35.1z"/>
			<polygon class="st15" points="22.2,38.3 22.2,38.4 22.3,38.4 22.5,38.3 22.3,38.3 			"/>
			<path class="st15" d="M22.8,38.5c0,0.1-0.1,0.2-0.1,0.3s0.1,0.1,0.2,0.2H23c0,0,0.1-0.1,0.1-0.2c0,0,0,0,0-0.1
				C23,38.6,23,38.5,23,38.5C23,38.4,22.9,38.4,22.8,38.5z"/>
			<path class="st15" d="M21.3,37.5c0.2,0.1,0.3,0.2,0.5,0.3l-0.1-0.1c0-0.1-0.1-0.2-0.1-0.4l-0.4,0.1
				C21.2,37.4,21.2,37.4,21.3,37.5z"/>
			<path class="st15" d="M23.6,38.8c-0.1-0.1-0.2-0.1-0.1,0c0,0.1,0,0.2,0.1,0.3l0,0h0.1C23.7,39,23.7,39,23.6,38.8
				C23.7,38.9,23.7,38.8,23.6,38.8z"/>
			<polygon class="st15" points="28.7,24.8 29.2,24.4 29.7,24.6 29.4,24.1 29.9,23.6 29.2,23.7 28.9,23.1 28.8,23.8 28.2,23.9 
				28.8,24.2 			"/>
			<polygon class="st15" points="23.1,24.2 23.6,23.8 24.1,24 23.8,23.5 24.3,23 23.6,23.1 23.3,22.5 23.2,23.2 22.6,23.3 
				23.2,23.6 			"/>
			<polygon class="st15" points="29.7,20 30.2,19.5 30.7,19.8 30.4,19.2 30.9,18.8 30.3,18.9 30,18.3 29.9,18.9 29.2,19 29.8,19.3 
							"/>
			<path class="st15" d="M33.7,14.3l0.4-0.7H34l-1.5,0.6c-0.6,0.2-1.1,0.6-1.3,0.9l0.1,0.5l1.3-0.2C33.1,14.9,33.4,14.6,33.7,14.3z"
				/>
			<polygon class="st15" points="30.7,26 31.2,25.6 31.8,25.9 31.5,25.3 31.9,24.8 31.3,24.9 31,24.4 30.9,25 30.3,25.1 30.8,25.4 
							"/>
			<polygon class="st15" points="30.2,23 30.7,22.5 31.3,22.8 31,22.3 31.4,21.8 30.8,21.9 30.5,21.3 30.4,22 29.8,22.1 30.3,22.4 
							"/>
			<path class="st15" d="M13.7,28.3l0.4-0.5L13.5,28l-0.2-0.3c0,0.3,0.1,0.6,0.1,1l0,0l0.5,0.3L13.7,28.3z"/>
			<polygon class="st15" points="17.5,23.6 17.9,23.2 18.5,23.4 18.2,22.9 18.7,22.4 18,22.5 17.7,21.9 17.6,22.6 17,22.7 17.6,23 
							"/>
			<polygon class="st15" points="17.4,19.5 17.1,20.2 17.6,19.7 18.1,19.4 18.1,19.4 17.6,19.5 			"/>
			<path class="st15" d="M16.5,22.2L16.5,22.2L16.5,22.2L16.5,22.2z"/>
			<polygon class="st15" points="16,25.4 16.4,25 17,25.3 16.7,24.7 17.2,24.2 16.5,24.3 16.2,23.8 16.1,24.4 15.5,24.5 16.1,24.8 
							"/>
			<polygon class="st15" points="13.9,24.1 13.9,24.2 14,24.2 			"/>
			<path class="st15" d="M14.4,21l-0.1-0.2c0,0.1,0,0.1-0.1,0.2l0,0C14.3,20.9,14.4,21,14.4,21z"/>
			<polygon class="st15" points="19.5,24.8 20,24.4 20.6,24.7 20.3,24.1 20.7,23.6 20.1,23.7 19.8,23.1 19.7,23.8 19.1,23.9 
				19.6,24.2 			"/>
			<path class="st15" d="M19,15.6L18.7,15l0.1-0.1c-0.3,0.2-0.5,0.4-0.8,0.7v0.2l0.4-0.5L19,15.6z"/>
			<path class="st15" d="M41,30.8c-0.1,0-0.3,0-0.4,0l0.1-0.6c0-0.2,0-0.4-0.1-0.7l-15.3,2.6c0,0,0,0,0.1,0c0,0,0.1,0.2,0,0.3
				s-0.2,0.1-0.2,0s-0.2-0.2-0.4-0.3c-0.1,0-0.1,0-0.2,0l-1.2,0.2l0,0c0,0.1-0.1,0.2-0.3,0.1c-0.2-0.1-0.4-0.1-0.4,0
				c-0.1,0.1-0.2,0.2-0.2,0.3c-0.1,0-0.3,0-0.4,0c-0.2,0-0.3-0.1-0.4-0.3l-0.9,0.2h-0.1l0,0L20.4,33c0,0-0.1,0.1-0.1,0l0,0l-4.9,0.8
				c0.4,0.7,0.9,1.4,1.5,2l23.7-4C40.8,31.5,40.9,31.1,41,30.8z M24.1,33c-0.1,0.1-0.2,0.2-0.5,0.2L23.5,33c0-0.1,0.1-0.2,0.3-0.2
				h0.3L24.1,33z M33.1,32.2c-0.1,0.1-0.4,0.5-0.6,0.5c0-0.1,0-0.1,0-0.1c0-0.2,0.1-0.4,0.3-0.4c0.1-0.1,0.3-0.3,0.2-0.7v0.1
				c0,0,0.1,0.1,0.2,0.3C33.2,32,33.1,32.2,33.1,32.2z M34,31.2c0.2,0,0.3,0.1,0.4,0l0.2,0.1C34.4,31.3,34.2,31.3,34,31.2z"/>
			<path class="st15" d="M15.2,31.5v0.1l0.3-0.1l0,0c0-0.2,0.1-0.3,0.3-0.2c0.1,0,0.3,0.1,0.5,0.2l24.9-4.2c0-0.1,0-0.3,0-0.4
				L41,26.8l-0.1-0.1c-0.1,0-0.1,0-0.2,0c-0.1-0.2-0.3-0.3-0.4-0.5v-0.6c0.1-0.1,0.3-0.3,0.4-0.5c0,0,0,0,0-0.1l-7.6,1.3l-19.5,3.3
				c0.2,0.7,0.4,1.4,0.7,2.1l0.7-0.1C15.1,31.6,15.2,31.6,15.2,31.5z M14,30.6c0.1,0,0.2,0,0.2,0h0.1C14.2,30.6,14.1,30.6,14,30.6z
				 M15,31.5c0,0.1-0.1,0.1-0.1,0.1c0-0.1,0-0.2,0.1-0.3h0.1C15,31.4,15,31.5,15,31.5z"/>
			<path class="st15" d="M19.1,17.7L19.1,17.7l-0.3-0.6l-0.1,0.6L18,17.8l0.5,0.3C18.7,18,18.9,17.8,19.1,17.7z"/>
			<path class="st15" d="M21,22.3l0.1,0.1V23l0.4-0.5l0.6,0.3l-0.3-0.6L22,22C21.7,22.1,21.3,22.2,21,22.3z"/>
			<path class="st15" d="M23.1,20.1L23,19.8c-0.1,0-0.1,0-0.2,0l-0.1,0.4l-0.6,0.1l0.2,0.1c0.2,0.1,0.5,0.3,0.7,0.4l0,0l0.6,0.3
				l-0.3-0.6l0.4-0.5L23.1,20.1z"/>
			<polygon class="st15" points="21.6,26 22,25.6 22.6,25.9 22.3,25.3 22.7,24.8 22.1,24.9 21.8,24.4 21.7,25 21.1,25.1 21.7,25.4 
							"/>
			<path class="st15" d="M20.1,16.4c0.2-0.2,0.3-0.4,0.5-0.6l-0.3-0.5l-0.1,0.6L19.5,16l0.6,0.3V16.4z"/>
			<path class="st15" d="M21.8,14.2l-0.2,0.9l0.4-0.4l0.6,0.3l-0.3-0.6l0.4-0.5L22.1,14l-0.3-0.6L21.7,14l-0.6,0.1l0.5,0.3
				C21.6,14.4,21.7,14.3,21.8,14.2z"/>
			<path class="st15" d="M22.6,17.1l-0.3-0.6l-0.1,0.6l-0.4,0.1c0,0.1,0.1,0.1,0.1,0.2l0.3,0.1v0.2c0.1,0.1,0.2,0.1,0.2,0.2l0.1-0.1
				l0.6,0.3l-0.3-0.6l0.4-0.5L22.6,17.1z"/>
			<path class="st15" d="M13.3,24.9c0,0.1,0,0.2,0,0.3l0.3-0.3H13.3z"/>
			<polygon class="st15" points="20.1,27.9 20.5,27.4 21.1,27.7 20.8,27.1 21.2,26.6 20.6,26.7 20.3,26.2 20.2,26.8 19.6,26.9 
				20.1,27.2 			"/>
			<path class="st15" d="M13.3,25.5c0,0.1,0,0.2,0,0.3l0.2,0.1L13.3,25.5z"/>
			<polygon class="st15" points="16.5,28.5 16.9,28 17.5,28.3 17.2,27.7 17.7,27.3 17,27.4 16.7,26.8 16.6,27.4 16,27.5 16.6,27.8 
							"/>
			<polygon class="st15" points="14.5,27.2 14.9,26.8 15.5,27.1 15.2,26.5 15.6,26 15,26.1 14.7,25.6 14.6,26.2 14,26.3 14.5,26.6 
							"/>
			<path class="st15" d="M17.5,17.4l-0.3-0.6l0.4-0.5l-0.5,0.1c-0.2,0.2-0.4,0.5-0.6,0.7l-0.1,0.4l0.4-0.5L17.5,17.4z"/>
			<polygon class="st15" points="18,26.6 18.5,26.2 19,26.5 18.7,25.9 19.2,25.4 18.6,25.5 18.3,25 18.2,25.6 17.5,25.7 18.1,26 			
				"/>
			<path class="st15" d="M21.6,37.3h0.1c-0.1,0-0.1-0.1-0.2-0.1C21.5,37.2,21.5,37.2,21.6,37.3z"/>
		</g>
		<g>
			<g id="XMLID_53_">
				<g>
					<path class="st15" d="M28.3,24.4c-0.1,0-0.2,0-0.3,0.1c-0.1,0-0.2,0.1-0.2,0.2c-0.1,0-0.1,0.1-0.1,0.2s0.1,0.1,0.1,0
						C28,24.7,28.2,24.4,28.3,24.4z M43.6,43.6L43.6,43.6c-0.7,0.2-1.3,0.3-2,0.4c-0.1,0-0.2,0-0.3-0.1H41h-0.2
						c0,0.1-0.1,0.1-0.1,0.2c-0.1,0-0.2,0-0.2,0L40.3,44l-0.2-0.2c-0.1,0.1-0.2,0.2-0.2,0.3c-0.2,0.1-0.3,0.1-0.4,0.2H39
						c-0.1-0.1-0.2-0.2-0.3-0.3c-0.1,0-0.3,0.1-0.4,0.1c-0.1,0-0.3,0-0.4,0l-0.5,0.1c-0.2,0-0.3,0-0.5,0c0,0.1-0.1,0.2-0.1,0.3
						l-0.2,0.1l-0.1,0.1c-0.1,0-0.2,0-0.3-0.1s-0.2-0.1-0.4-0.2l-0.3,0.3c-0.1,0.1-0.2,0.1-0.3,0.2l-0.1-0.1L35,44.6
						c-0.2,0.1-0.3,0.1-0.5,0.1c0,0.1-0.1,0.2-0.2,0.3c0.1,0,0.2,0,0.3,0c-0.1,0.1-0.2,0.1-0.3,0.2h-0.1l-0.1-0.1
						c-0.1,0.1-0.2,0.2-0.3,0.2s-0.2,0-0.3,0l0,0L33.2,45c0,0.1-0.1,0.2-0.1,0.3c-0.2,0-0.4,0.1-0.6,0.1c0,0,0-0.1-0.1-0.1l-0.2,0.1
						c-0.2,0.1-0.4,0.1-0.7,0.2l0,0c-0.8,0.1-1.5,0.3-2.3,0.4c1.9-2,3.9-3.9,4.6-6.4c0.3-0.1,0.5-0.1,0.7-0.2
						c-0.2-0.2-0.3-0.5-0.5-0.6c-0.1-0.1-0.3-0.1-0.5-0.2l0.1-0.1c0.1-0.2,0-0.1,0-0.3c-0.1,0.1-0.2,0.1-0.3,0.1v0.1l0,0
						c-0.1-0.6-0.2-1.1-0.3-1.5c0.4-0.5,0.9-0.9,1-1.3c0.1-0.7,0.2-1.3,0.5-1.9c0.2-0.4-0.1-1-0.5-1c-0.3,0-0.5,0-0.9,0
						c-0.2,0.2-0.4,0.5-0.6,0.7c0.2,0.3,0.4,0.6,0.7,0.9c0,0-0.1,0-0.1,0.1c-0.2-0.1-0.3-0.2-0.6-0.3c0,0.6-0.1,1.1,0,1.6
						c0.4,3-0.7,5.4-3.7,6.7c-1.2,0.5-2.5,1-3.7,0.1c-0.1,0-0.1,0-0.2-0.1c-0.8-0.2-1.4-0.6-1.8-1.3c-0.5-0.8-0.8-1.7-1.2-2.6
						c-0.1-0.2-0.3-0.5-0.5-0.6c-1.2-0.6-2.3-1.2-3.5-1.8c0-0.1,0.1-0.1,0.1-0.2h-0.3h-0.1c-0.1-0.1-0.2-0.1-0.3-0.2
						c-0.1,0-0.2-0.1-0.3-0.1c0.1-0.1,0.1-0.3,0.2-0.4c-0.1-0.1-0.1-0.1-0.2-0.2c-0.2,0-0.3,0.1-0.5,0.1c0,0-0.1,0-0.1,0.1
						c-0.1-0.1-0.3-0.2-0.4-0.3l0,0l0,0c-0.1-0.1-0.2-0.2-0.3-0.3c0-0.1,0.1-0.2,0.1-0.3c0.1-0.1,0.1-0.2,0.2-0.4
						c-0.1-0.1-0.2-0.1-0.4-0.2L15.2,34c0,0,0,0-0.1,0c-0.1-0.1-0.1-0.1-0.2-0.2c0,0,0,0,0-0.1l0.1-0.2c0,0-0.1,0-0.1-0.1
						c-0.3-0.5-0.6-1-0.9-1.6c-0.1-0.3-0.2-0.5-0.3-0.8s-0.1-0.7-0.2-1c0.2-1.1,0.5-1.8,1-2.2c0.1,0,0.3,0.1,0.4,0.1
						c0.1-0.1,0.2-0.2,0.3-0.4c0.2,0,0.3,0,0.5-0.1c0.1-0.1,0.2-0.2,0.2-0.3H16c0.1,0,0.2,0,0.3,0l0.4,0.1c0-0.1,0-0.2,0-0.2
						c1.4-0.2,2.9-0.4,4.3-0.6c0.1-0.8,0.1-1.6,0.2-2.5c0-0.1,0-0.1,0-0.2h0.1c0.1-0.1,0.2-0.2,0.3-0.3c-0.1-0.1-0.2-0.3-0.3-0.4
						c0.1-0.3,0.2-0.5,0.3-0.7c0.1,0,0.2-0.1,0.3-0.1c0.1,0.1,0.3,0.1,0.4,0.2l-0.1-0.3c-0.1-0.1-0.1-0.2-0.2-0.4l0.2-0.1l0.2-0.2
						c0.1,0.1,0.3,0.1,0.4,0.1c0.1-0.1,0.1-0.1,0.2-0.2c0-0.1-0.1-0.2-0.1-0.4c0.3-0.2,0.7-0.4,1.1-0.5c0.2,0,0.3-0.1,0.5-0.2
						c0.4-0.1,0.9-0.1,1.3-0.2c1.1,0,2,0.3,2.8,1.2c0.5,0.6,1.1,1.3,1.7,1.9l-0.2,0.2v0.1c0,0.1,0,0.2,0,0.3s0.1,0.2,0.3,0.4
						c0.1,0.1,0.4,0.1,0.5,0s0.3-0.2,0.3-0.3l0.1-0.2l0,0l0,0c1-0.1,1.9-0.3,2.9-0.4c1.7-0.1,3.2,0.2,4.4,1.6c0,0,0,0.1,0.1,0.1
						c-0.1,0.1-0.2,0.1-0.3,0.2c0,0.1,0,0.2,0,0.3c0.2,0.1,0.3,0.2,0.5,0.3c0.1,0,0.1,0,0.2,0c0,0.2,0,0.3,0,0.5
						c0.1,0.1,0.1,0.3,0.1,0.4c-0.1,0.1-0.2,0.1-0.3,0.2s-0.3,0.1-0.4,0.1c0.1,0.1,0.1,0.3,0.2,0.4h0.5c0.1,0.1,0.2,0.1,0.3,0.2
						h-0.1h-0.1l-0.1,0.1v0.5c0,0.2,0.1,0.3,0.2,0.4c0.1,0.1,0.3,0.1,0.5,0.1l0.1,0.1L39.7,29c-0.1,0.1-0.2,0.1-0.4,0.1
						c0,0.1,0,0.2,0,0.3c0.2,0.1,0.3,0.1,0.5,0.2c0,0.2,0.1,0.3,0.1,0.4l0.1,0.1c-0.1,0.5-0.2,1-0.4,1.4c-0.6,1.7-1.9,2.9-3.2,4
						c-0.4,0.3-0.7,0.6-0.2,1.1c0.1,0.1,0.1,0.2,0.1,0.2c0.1,0.9,0.2,1.7,0.4,2.6c-0.4,0-0.6,0.4-0.7,0.9c-0.1,0.5,0.3,0.6,0.6,0.9
						c0.2,0.2,0.4,0.4,0.5,0.6c0.3,0.6,0.7,0.9,1.4,0.9c1.6,0.2,3.2,0.4,4.7,0.5C43.3,43.5,43.5,43.6,43.6,43.6z M35.5,24.4l0.1-0.2
						c-0.2,0.1-0.3,0.1-0.3,0.1c-0.1,0-0.1,0.1-0.1,0.2c0,0,0,0.1,0.1,0.1C35.3,24.6,35.4,24.5,35.5,24.4z M34.7,24.7L34.7,24.7
						c-0.1-0.2-0.2-0.3-0.2-0.3c0-0.1,0,0-0.1-0.1c0,0-0.1,0-0.1,0.1s0.1,0.2,0.1,0.2C34.5,24.6,34.7,24.6,34.7,24.7z M34.2,24.6
						L34.2,24.6c0-0.1,0-0.2-0.1-0.2l0,0C34,24.5,34.1,24.7,34.2,24.6z M33.1,23.9L33.1,23.9L33,23.7L33.1,23.9L33.1,23.9z M35,36.1
						L35,36.1L35,36.1l-0.1,0.3C34.9,36.3,34.9,36.2,35,36.1z M34.7,36.1c-0.1,0-0.2,0-0.3,0v0.1l0.1,0.2c0.1,0.1,0.1,0.1,0.2,0.1
						v-0.1C34.7,36.2,34.7,36.4,34.7,36.1z M32.3,24.2L32.3,24.2c-0.1-0.1-0.2-0.1-0.2,0c-0.1,0.1,0,0.1,0.1,0.1
						C32.2,24.3,32.3,24.2,32.3,24.2z M34,38.4C34,38.3,34,38.4,34,38.4c-0.1,0.2-0.1,0.1-0.1,0.2l0,0l0,0C34,38.5,34,38.4,34,38.4z
						 M31.8,33.3c0.6-0.9,0.3-1.8-0.2-2.7c-0.2-0.5-1.6-1.3-2.2-1.4c0,0,0,0-0.1,0c0,0.2,0,0.4,0,0.6c-0.4,0-0.8,0-1.2-0.1
						c0,0.1-0.1,0.2-0.1,0.3c0.3,0.2,0.7,0.5,1,0.7c-0.7,0.1-1.4,0.2-1.9,0.3c-0.6-0.5-1.2-0.9-1.7-1.3c0,0-0.4,0.2-0.4,0.3
						c0.2,0.5-0.2,0.8-0.4,1.2c-0.1,0.3-0.1,0.7-0.2,1.1c-0.1,0.3-0.1,0.6-0.2,0.8c-0.1,0-0.1,0-0.2-0.1c0-0.2-0.1-0.4-0.1-0.6
						c-0.1-0.7-0.4-0.8-1-0.5c-0.4,0.2-0.7,0.5-1,0.7c-0.5-0.7,0.6-1,0.6-1.6c-1.1,0.2-1.4,0.5-1.2,1.4c0.2,1.7,0.5,3.4,0.8,5.1
						c0.1,0.3,0.3,0.7,0.5,1c0.1,0,0.1,0,0.2,0c-0.1-1.4,1.1-2.2,1.6-3.3c-0.2-0.2-0.3-0.4-0.4-0.6c0.2-0.1,0.3-0.2,0.5-0.3
						c0.8,0.4,1.5,1,2.5,1.1c0.4,0.1,0.9,0.1,1.2,0.4c0.5,0.4,1,0.8,1.5,1.3c0.3,0.3,0.5,0.3,0.8,0c0.9-0.9,1.3-2,1.1-3.3
						C31.7,33.7,31.7,33.4,31.8,33.3z M28,23.6l0.1-0.1c-0.2-0.2-0.2-0.3-0.3-0.3c0-0.1-0.2-0.2-0.3-0.2c0,0-0.1,0-0.1,0.1
						c0.1,0.2,0.3,0.4,0.4,0.5C27.9,23.6,28,23.6,28,23.6z M27.8,23.7L27.8,23.7l-0.2-0.1l0.1,0.1C27.7,23.7,27.7,23.7,27.8,23.7z
						 M27.7,24L27.7,24c-0.1-0.1-0.2,0-0.3,0.1c-0.1,0-0.4,0.3-0.4,0.4c0,0,0.1,0,0.2,0C27.4,24.3,27.5,24.1,27.7,24z M26.6,23.9
						c0.1-0.1,0.1-0.3,0.1-0.4l-0.1-0.2c0,0.2-0.1,0.4-0.1,0.4L26.4,24L26.6,23.9z M29.4,38.2c-0.2-0.3-0.3-0.8-0.6-0.9
						c-1-0.3-2.1-0.6-3.2-0.2c-0.4,0.1-0.8,0.4-1.3,0.6c-0.4,0.2-0.5,0.4-0.5,0.8c0,0.4,0.3,0.6,0.7,0.6c0.5-0.1,0.9-0.3,1.3-0.5
						c0.3-0.1,0.6-0.2,0.8-0.2c0.5,0,1.1,0.1,1.6,0.2v-0.1c0.1,0,0.2,0,0.3-0.1C28.8,38.5,29.1,38.4,29.4,38.2z"/>
					<path class="st15" d="M38.3,44.3C38.3,44.4,38.3,44.4,38.3,44.3L38.3,44.3L38.3,44.3C38.1,44.3,38.1,44.3,38.3,44.3
						C38.3,44.3,38.3,44.2,38.3,44.3z"/>
					<path class="st15" d="M35.9,44.9L35.9,44.9L35.9,44.9L35.9,44.9C35.8,45,35.8,44.9,35.9,44.9L35.9,44.9z"/>
					<path class="st15" d="M33.7,38.7L33.7,38.7L33.7,38.7z"/>
					<path class="st15" d="M33.7,38.7L33.7,38.7C33.7,38.7,33.6,38.7,33.7,38.7C33.6,38.7,33.6,38.6,33.7,38.7
						C33.6,38.7,33.6,38.7,33.7,38.7z"/>
					<path class="st15" d="M33.6,38.5L33.6,38.5C33.6,38.6,33.5,38.6,33.6,38.5z"/>
					<path class="st15" d="M30.9,23.7c0,0,0,0.1,0,0.2s-0.1,0.2-0.2,0.1s-0.3-0.3-0.4-0.4l-0.1-0.2l0.2-0.2c0.1,0.1,0.2,0.2,0.3,0.3
						C30.7,23.6,30.8,23.6,30.9,23.7z"/>
					<path class="st16" d="M31.7,30.6c0.4,0.9,0.7,1.8,0.2,2.7c-0.1,0.2-0.1,0.4-0.1,0.7c0.1,1.3-0.3,2.3-1.1,3.3
						c-0.3,0.3-0.5,0.3-0.8,0c-0.5-0.5-0.9-0.9-1.5-1.3c-0.3-0.2-0.8-0.3-1.2-0.4c-0.9-0.1-1.7-0.7-2.5-1.1
						c-0.2,0.1-0.3,0.2-0.5,0.3c0.1,0.2,0.3,0.3,0.4,0.6c-0.5,1.1-1.7,1.8-1.6,3.3c-0.1,0-0.1,0-0.2,0c-0.2-0.3-0.4-0.6-0.5-1
						c-0.3-1.7-0.6-3.4-0.8-5.1c-0.1-0.9,0.2-1.2,1.2-1.4c0,0.6-1.1,0.9-0.6,1.6c0.3-0.2,0.6-0.5,1-0.7c0.6-0.3,0.9-0.2,1,0.5
						c0,0.2,0.1,0.4,0.1,0.6c0.1,0,0.1,0,0.2,0.1c0.1-0.3,0.1-0.6,0.2-0.8c0.1-0.4,0.1-0.8,0.2-1.1c0.2-0.4,0.5-0.7,0.4-1.2
						c0-0.1,0.3-0.3,0.4-0.3c0.5,0.4,1.1,0.8,1.7,1.3c0.5-0.1,1.2-0.2,1.9-0.3c-0.3-0.2-0.6-0.5-1-0.7c0-0.1,0.1-0.2,0.1-0.3
						c0.4,0,0.7,0,1.2,0.1c0-0.2,0-0.4,0-0.6h0.1C30.1,29.2,31.4,30,31.7,30.6z"/>
					<path class="st16" d="M28.1,23.5L28,23.6c-0.1,0-0.1,0-0.2,0c-0.1-0.1-0.3-0.3-0.4-0.5c0-0.1,0.1-0.1,0.1-0.1
						c0.1,0,0.3,0.1,0.3,0.2C27.9,23.2,28,23.3,28.1,23.5z"/>
					<path class="st16" d="M26.7,23.5c0,0.1,0,0.3-0.1,0.4L26.4,24l0.1-0.2c0.1-0.1,0.1-0.3,0.1-0.4L26.7,23.5z"/>
					<path class="st16" d="M28.8,37.4c0.3,0.1,0.4,0.6,0.6,0.9c-0.3,0.1-0.5,0.2-0.8,0.3c-0.1,0-0.2,0-0.3,0.1v0.1
						c-0.5-0.1-1.1-0.2-1.6-0.2c-0.3,0-0.6,0.1-0.8,0.2c-0.4,0.1-0.9,0.4-1.3,0.5c-0.3,0.1-0.6-0.1-0.7-0.6c0-0.4,0.1-0.7,0.5-0.8
						c0.4-0.2,0.8-0.4,1.3-0.6C26.6,36.8,27.7,37.1,28.8,37.4z"/>
				</g>
			</g>
		</g>
		<g>
			<path class="st15" d="M12.2,40.5c-0.4-0.4-0.6-0.7-0.7-1.2l0.9-0.9v1.1c0,0.3,0,0.4,0.2,0.6c0.6,0.6,1.3-0.1,1.8-0.6
				s1.2-1.2,0.7-1.8c-0.2-0.2-0.3-0.2-0.6-0.2h-1.1l0.9-0.9c0.5,0.1,0.8,0.4,1.2,0.7c0.8,0.8,0.7,2.3-0.2,3.1
				C14.4,41.3,13,41.4,12.2,40.5L12.2,40.5z M15.8,38.2c0,0.5-0.1,1-0.9,1.8c-0.8,0.7-1.3,0.8-1.8,0.8c0.4,0.1,1.4,0.2,2.1-0.5
				C15.9,39.6,15.9,38.6,15.8,38.2L15.8,38.2z"/>
			<path class="st15" d="M14.5,36.6l-0.7-0.2L11.1,38l-0.2,0.7l-1.3-1.2l1.8-1.1L11,36.3c-0.4-0.1-0.7-0.3-0.9-0.6s-0.2-0.8,0.2-1
				l1.8-1.1l0.2-0.7l0.9,1.5l-2,1.2c0,0-0.1,0.2,0,0.3s0.2,0.1,0.2,0.1l0.4,0.1l1.3-0.8l0.2-0.7L14.5,36.6z M10.2,37.9H11l2.7-1.6
				l0.1-0.5L10.2,37.9z M10.9,35.2c-0.2,0.1-0.3,0.3-0.1,0.5c0.1,0.1,0.3,0.2,0.3,0.2s-0.2-0.2,0.1-0.4l1.8-1.1l-0.2-0.3L10.9,35.2z
				"/>
			<path class="st15" d="M11.8,31l-0.5,0.2l0.3,0.2c0.4,0.2,0.6,0.4,0.7,0.7c0.2,0.5-0.3,0.9-0.4,0.9l-1.5,0.5L10,34.1l-1-1.4
				l2.2-0.7c0.1,0,0.1-0.1,0.1-0.2s-0.1-0.1-0.2-0.2l-0.4-0.2l-1,0.3l-0.3,0.7l-1-1.4l2.5-0.8l0.3-0.7L11.8,31z M8.9,31.3l0.8,0.2
				l1.9-0.6l-0.1-0.4L8.9,31.3z M9.5,33.2l0.8,0.2l1.5-0.5c0.2-0.1,0.4-0.3,0.3-0.7c0-0.1-0.1-0.2-0.1-0.2c0.1,0.2-0.1,0.4-0.5,0.6
				L9.5,33.2z"/>
			<path class="st15" d="M9.7,28.4c0.9-0.1,1.1-0.2,1.1-0.7c0-0.2-0.1-0.4-0.4-0.6l0.3-0.4c0.4,0.4,0.5,0.6,0.6,1.2
				c0.1,0.9-0.7,1.7-1.5,1.8C8.9,29.8,8.1,29,8,28.2c0-0.5-0.1-0.8,0.2-1.2l1.1-0.1l-0.7,0.8c-0.1,0.2-0.2,0.3-0.2,0.5
				C8.5,28.4,9.2,28.5,9.7,28.4z M9.7,29.1c-0.8,0.1-1.3-0.3-1.5-0.5c0.1,0.3,0.6,1,1.5,0.9c0.8-0.1,1.2-0.8,1.2-1
				C10.9,28.7,10.6,29,9.7,29.1z"/>
			<path class="st15" d="M11.3,24.6L11,26.8l-0.5-0.6l-3.1-0.4l-0.6,0.5l-0.3-1.7L9.6,25l-1-1.2l-0.5,0.4l0.2-1.8L9.5,24l1.9-1.5
				l-0.2,1.7h-0.4L9.7,25l0.9,0.1L11.3,24.6z M6.8,25.2l0.6,0.5l3.1,0.4l0.4-0.3L6.8,25.2z M9.8,24.3l-0.1,0.4l1.4-1.1v-0.4
				L9.8,24.3z"/>
			<path class="st15" d="M10.4,15.9l3.9,2.1L10,18.5l2.1,1.1l0.8-0.2L12,21l-0.2-0.8l-2.9-1.5l-0.8,0.2l0.7-1.3l2.8-0.4l-1.5-0.8
				l-0.8,0.2l0.8-1.5L10.4,15.9z M8.7,18.1l-0.2,0.4l5.1-0.6l-0.5-0.3L8.7,18.1z"/>
			<path class="st15" d="M12.6,13.8c0.6-0.7,1.7-0.9,2.5-0.3c0.7,0.6,0.7,1.8,0.1,2.5c-0.6,0.7-1.7,0.9-2.5,0.3
				C12,15.7,12,14.6,12.6,13.8z M13.1,15.8c-0.7-0.6-0.7-1.2-0.7-1.4c0,0.1-0.4,1,0.4,1.7c0.8,0.7,1.7,0.2,1.8,0.1
				C14.5,16.3,13.9,16.4,13.1,15.8z M14.2,14.6c-0.4-0.3-0.9-0.8-1.3-0.4c-0.3,0.4,0.2,0.8,0.6,1.2c0.4,0.4,0.9,0.8,1.3,0.4
				C15.2,15.4,14.6,14.9,14.2,14.6z M13.3,13.8c0.2,0,0.4,0,1.1,0.6c0.7,0.6,0.7,0.9,0.8,1c0.1-0.3,0.1-0.8-0.5-1.3
				C14,13.5,13.5,13.6,13.3,13.8L13.3,13.8z"/>
			<path class="st15" d="M16.5,10.4c0.1,0,0.3-0.2,0.3-0.2l0.9,1.2l-1.1-0.2l-0.1,0.9l0.8,1l0.7,0.1l-1.8,1.3l0.1-0.7l-1-1.3
				l-0.7-0.1l1-1.5l0.4,0.5V11C16.1,11,16.2,10.7,16.5,10.4z M15.4,11.8l0.1,0.8l1,1.3l0.6,0.1L15.4,11.8z"/>
			<path class="st15" d="M19.6,8.7c0.1,0,0.3-0.1,0.3-0.1l0.7,1.4l-1.1-0.4l-0.2,0.8l0.6,1.2l0.7,0.2l-2,1l0.2-0.7l-0.7-1.4
				l-0.7-0.2l1.2-1.3l0.3,0.5L19,9.4C19.1,9.2,19.2,8.9,19.6,8.7z M18.3,9.9v0.8l0.7,1.4l0.5,0.2L18.3,9.9z"/>
			<path class="st15" d="M21.4,11.5l0.3-0.7l-0.5-1.5L20.6,9L22,8l0.8,2.5l0.7,0.3L21.4,11.5z M20.5,7.6L21,6.7l0.8,0.4L21.4,8
				L20.5,7.6z M21.6,8.5l-0.2,0.8l0.5,1.5l0.5,0.3L21.6,8.5z"/>
			<path class="st15" d="M24.8,10.8c-0.2,0-0.3,0-0.5,0l-0.9-0.1l0.3-0.9l0.5,0.5c0.1,0.1,0.3,0.1,0.4,0.1c0.3,0,0.4-0.2,0.4-0.5
				c0-0.1-0.1-0.1-0.2-0.2l-1-0.3c-0.5-0.2-0.6-0.6-0.7-0.8c-0.1-0.7,0.5-1.1,1-1.2c0.1,0,0.3,0,0.5,0l0.9,0.1l-0.3,0.8l-0.5-0.4
				c-0.1-0.1-0.2-0.1-0.3-0.1C24.1,7.8,24,8,24,8.2c0,0.1,0.1,0.1,0.2,0.2l1,0.4c0.2,0.1,0.6,0.3,0.6,0.8C26,10,25.7,10.6,24.8,10.8
				z M24,8.9c-0.3-0.1-0.4-0.2-0.5-0.5c0-0.2,0-0.5,0.1-0.6c-0.3,0.2-0.4,0.5-0.4,0.8c0.1,0.4,0.2,0.6,0.6,0.7l0.9,0.3
				c0.2,0.1,0.3,0.2,0.4,0.3c0,0.2,0,0.4-0.1,0.5c0.2-0.2,0.4-0.4,0.3-0.7c0-0.3-0.2-0.4-0.5-0.5L24,8.9z"/>
			<path class="st15" d="M28.8,9.9l0.5,0.6l-1.7-0.3l0.7-0.5l2-3.5L31,6.4l0.7,4l0.5,0.7l-2.4-0.4l0.6-0.4l-0.1-0.6L29,9.5L28.8,9.9
				z M30.1,7.7l-0.7,1.2L30.3,9L30.1,7.7z M30.5,6.8l-0.3,0.5l0.5,2.8l0.5,0.5L30.5,6.8z"/>
			<path class="st15" d="M33,12.3l0.3,0.7l-2-0.9l0.7-0.3l1.1-2.6l-0.3-0.7l1.8,0.2L34.4,9c0.2-0.1,0.6-0.2,1-0.1
				c0.7,0.3,0.9,1.3,0.6,2.1c-0.4,0.8-1.3,1.3-1.9,1c-0.4-0.2-0.5-0.5-0.6-0.8L33,12.3z M33.9,8.8l-0.6,0.5l-1.1,2.6l0.2,0.5
				L33.9,8.8z M33.6,10.8c0,0.2,0.1,0.5,0.3,0.6c0.3,0.1,0.6-0.4,0.8-0.9c0.2-0.4,0.4-1,0.1-1.2c-0.2-0.1-0.5,0-0.6,0.2L33.6,10.8z
				 M34.9,10.6c-0.3,0.7-0.6,0.9-0.8,1c0.3,0.1,0.9-0.1,1.2-0.8s0.1-1.3-0.2-1.4C35.1,9.6,35.2,9.9,34.9,10.6z"/>
			<path class="st15" d="M36.1,14l0.1,0.7l-1.8-1.3l0.7-0.1l1.7-2.3l-0.1-0.7l1.7,0.5l-0.2,0.3c0.3-0.1,0.6-0.1,1,0.1
				c0.6,0.4,0.6,1.4,0.1,2.2c-0.5,0.7-1.5,1-2.1,0.6c-0.3-0.2-0.4-0.6-0.4-0.9L36.1,14z M37.7,10.8L37,11.1l-1.7,2.3l0.1,0.5
				L37.7,10.8z M37,12.7c-0.1,0.2,0,0.6,0.1,0.7c0.3,0.2,0.7-0.3,1-0.7s0.6-0.9,0.4-1.1c-0.1-0.1-0.5-0.1-0.7,0.1L37,12.7z
				 M38.3,12.8c-0.5,0.6-0.8,0.8-1,0.8c0.3,0.2,0.9,0.1,1.4-0.5c0.4-0.6,0.4-1.3,0.1-1.5C38.8,11.8,38.8,12.2,38.3,12.8z"/>
			<path class="st15" d="M42.4,14.6c0,0.1,0.2,0.2,0.2,0.2l-1.1,1l0.1-1.2h-0.9l-1,0.9v0.7l-1.5-1.7H39l1.2-1.1v-0.7l1.5,0.9
				L41.2,14h0.4C41.8,14.2,42.1,14.3,42.4,14.6z M41,13.6l-0.8,0.2l-1.2,1v0.6L41,13.6z"/>
			<path class="st15" d="M44,16.8c0.5,0.8,0.3,1.9-0.6,2.4c-0.8,0.5-1.9,0.1-2.4-0.7c-0.5-0.8-0.3-1.9,0.6-2.4
				C42.4,15.6,43.5,16,44,16.8z M41.9,16.7c0.8-0.4,1.4-0.2,1.5-0.2c-0.1-0.1-0.8-0.8-1.8-0.2c-1,0.5-0.7,1.6-0.7,1.6
				C41,17.8,41.1,17.2,41.9,16.7z M42.7,18.1c0.5-0.3,1.1-0.6,0.8-1c-0.2-0.4-0.9-0.1-1.3,0.2c-0.5,0.3-1.1,0.6-0.8,1.1
				C41.7,18.7,42.3,18.4,42.7,18.1z M43.8,17.5c-0.1,0.1-0.2,0.4-0.9,0.8c-0.8,0.4-1.1,0.4-1.2,0.4c0.2,0.2,0.7,0.4,1.4,0
				S43.8,17.7,43.8,17.5L43.8,17.5z"/>
			<path class="st15" d="M42.7,22.2l0.5-0.2l-0.3-0.2c-0.4-0.2-0.6-0.4-0.7-0.7c-0.2-0.6,0.3-0.9,0.4-0.9l1.5-0.5l0.3-0.7l1,1.4
				l-2.2,0.7c-0.1,0-0.1,0.1-0.1,0.2s0.1,0.1,0.2,0.2l0.4,0.2l1-0.3l0.3-0.7l1,1.4l-2.6,0.8L43,23.6L42.7,22.2z M45,20.1l-0.8-0.2
				l-1.5,0.5c-0.2,0.1-0.4,0.3-0.3,0.7c0,0.1,0.1,0.2,0.1,0.2c-0.1-0.2,0.1-0.4,0.5-0.6L45,20.1z M45.6,21.9l-0.8-0.2l-1.9,0.6
				l0.1,0.4L45.6,21.9z"/>
			<path class="st15" d="M46.3,25.4l-0.6-0.5l-1.3,0.7l1.4,0.5L46.3,25.4l0.1,1.7l-0.6-0.5l-2.6-0.9V25l2.5-1.3l0.5-0.6L46.3,25.4z
				 M46.1,24.2v-0.4l-2.6,1.3v0.4L46.1,24.2z"/>
			<path class="st15" d="M44.7,28.6h-0.4c-0.5-0.1-0.8,0.2-0.9,0.5c-0.1,0.4,0.1,0.7,0.2,0.8l0.1,0.2l-0.4,0.3
				c-0.4-0.5-0.5-1-0.4-1.6c0.1-0.8,1-1.5,1.9-1.4s1.6,1,1.4,1.9c-0.1,0.9-1,1.5-1.9,1.4L44.7,28.6z M46.2,28.7
				c0-0.3-0.3-1.1-1.3-1.2c-0.9-0.1-1.3,0.5-1.4,0.6c0.2-0.2,0.6-0.3,1.4-0.2C45.7,28.1,46,28.4,46.2,28.7L46.2,28.7z M45.3,29.7
				c-0.1,0-0.2-0.1-0.2-0.1L45,30.1c0.5,0,0.9-0.3,1-0.7C45.9,29.4,45.7,29.7,45.3,29.7z M45.9,29.1c0-0.3-0.3-0.4-0.7-0.4
				c0,0.1-0.1,0.7-0.1,0.7c0.1,0.1,0.1,0.1,0.2,0.1C45.6,29.5,45.9,29.4,45.9,29.1z"/>
			<path class="st15" d="M44.4,30.9c0.9,0.3,1.4,1.2,1.1,1.8c-0.1,0.4-0.5,0.6-0.7,0.6l0.8,0.3l0.7-0.3l-0.1,1.8l-3.9-1.4L41.6,34
				l0.6-1.6l0.3,0.1c-0.2-0.2-0.3-0.6-0.1-1C42.6,30.8,43.5,30.5,44.4,30.9z M46.1,34.4l-0.5-0.6l-3.2-1.2L42.2,33L46.1,34.4z
				 M44.3,33.2c0.3,0,0.5-0.2,0.6-0.3c0.1-0.3-0.5-0.6-0.9-0.7c-0.5-0.2-1.1-0.4-1.2,0c-0.1,0.2,0,0.5,0.2,0.6L44.3,33.2z
				 M42.6,31.4c0.2,0,0.6-0.2,1.6,0.1c1,0.4,1.2,0.8,1.2,0.9c0-0.2-0.1-1-1.1-1.4C43.4,30.7,42.8,31.2,42.6,31.4L42.6,31.4z"/>
		</g>
	</g>
	<g id="Calque_2" class="st17">
		<g class="st18">
		</g>
	</g>
	<g>
		<path class="st3" d="M172.4,341.4c-2.1-4.1-0.4-9.5,3.5-11.6c0.3-0.1,0.5-0.4,0.6-0.7c0.1-0.3,0.1-0.6-0.1-0.9l-8.7-16.8
			c-0.3-0.6-1-0.8-1.6-0.5c-2,1.1-4.3,1.3-6.4,0.6c-2-0.6-3.7-2.1-4.7-4c-0.1-0.3-0.4-0.5-0.7-0.6l0,0c-0.3-0.1-0.6-0.1-0.9,0.1
			L105,332.2c-0.6,0.3-0.8,1-0.5,1.6c2,4,0.4,9-3.8,11.2c-0.6,0.3-0.8,1-0.5,1.6l8.7,16.7c0.3,0.6,1,0.8,1.6,0.5
			c1.9-1,4.1-1.2,6.2-0.5c2.2,0.7,4.1,2.3,5.1,4.3c0.1,0.3,0.4,0.5,0.7,0.6l0,0c0.3,0.1,0.6,0.1,0.9-0.1l15.8-8.2l-0.2-0.4
			c-0.3-0.6-0.1-1.3,0.5-1.6c0.6-0.3,1.3-0.1,1.6,0.5l0.2,0.4l30.6-15.9C172.5,342.7,172.7,342,172.4,341.4z M126.4,332.7
			c0.6-0.3,1.3-0.1,1.6,0.5l0.5,1.1c0.3,0.6,0.1,1.3-0.5,1.6c-0.3,0.2-0.6,0.2-0.9,0.1c-0.3-0.1-0.5-0.3-0.7-0.6l-0.5-1.1
			C125.6,333.7,125.8,333,126.4,332.7z M128.6,336.9c0.6-0.3,1.3-0.1,1.6,0.5l0.5,1.1c0.3,0.6,0.1,1.3-0.5,1.6
			c-0.3,0.2-0.6,0.2-0.9,0.1c-0.3-0.1-0.5-0.3-0.7-0.6l-0.5-1.1C127.8,337.9,128,337.2,128.6,336.9z M132.4,341.6l0.5,1.1
			c0.3,0.6,0.1,1.3-0.5,1.6c-0.3,0.2-0.6,0.2-0.9,0.1c-0.3-0.1-0.5-0.3-0.7-0.6l-0.5-1.1c-0.3-0.6-0.1-1.3,0.5-1.6
			C131.4,340.8,132.1,341,132.4,341.6z M124.2,328.4c0.6-0.3,1.3-0.1,1.6,0.5l0.5,1.1c0.3,0.6,0.1,1.3-0.5,1.6
			c-0.3,0.2-0.6,0.2-0.9,0.1c-0.3-0.1-0.5-0.3-0.7-0.6l-0.5-1.1C123.4,329.5,123.6,328.7,124.2,328.4z M122,324.2
			c0.6-0.3,1.3-0.1,1.6,0.5l0.5,1.1c0.3,0.6,0.1,1.3-0.5,1.6c-0.3,0.2-0.6,0.2-0.9,0.1c-0.3-0.1-0.5-0.3-0.7-0.6l-0.5-1.1
			C121.2,325.2,121.4,324.5,122,324.2z M132.9,353.9l-8.3,4.3l-0.6-0.4c-1.4-1-3-1.8-4.7-2.3c-1.6-0.5-3.2-0.8-4.8-0.8l-0.7,0
			l-3.6-7l0.4-0.6c2-2.8,3-6,3.1-9.3l0-0.7l7.9-4.1c0.6-0.3,1.3-0.1,1.6,0.5c0.3,0.6,0.1,1.3-0.5,1.6l-6.6,3.4
			c-0.2,3.3-1.3,6.5-3.1,9.3l2.3,4.4c1.6,0.1,3.2,0.4,4.8,0.9l0,0c1.7,0.5,3.3,1.3,4.7,2.2l7-3.7c0.6-0.3,1.3-0.1,1.6,0.5
			C133.7,352.8,133.5,353.5,132.9,353.9z M134.6,348.5c-0.3,0.2-0.6,0.2-0.9,0.1c-0.3-0.1-0.5-0.3-0.7-0.6l-0.5-1.1
			c-0.3-0.6-0.1-1.3,0.5-1.6c0.6-0.3,1.3-0.1,1.6,0.5l0.5,1.1C135.4,347.5,135.2,348.2,134.6,348.5z M136.8,352.7
			c-0.3,0.2-0.6,0.2-0.9,0.1c-0.3-0.1-0.5-0.3-0.7-0.6l-0.5-1.1c-0.3-0.6-0.1-1.3,0.5-1.6c0.6-0.3,1.3-0.1,1.6,0.5l0.5,1.1
			C137.6,351.7,137.4,352.4,136.8,352.7z M139,356.9c-0.3,0.2-0.6,0.2-0.9,0.1c-0.3-0.1-0.5-0.3-0.7-0.6l-0.5-1.1
			c-0.3-0.6-0.1-1.3,0.5-1.6c0.6-0.3,1.3-0.1,1.6,0.5l0.5,1.1C139.8,355.9,139.6,356.6,139,356.9z M140.4,350
			c-0.3,0.2-0.6,0.2-0.9,0.1c-0.3-0.1-0.5-0.3-0.7-0.6c-0.3-0.6-0.1-1.3,0.5-1.6l21.5-11.2c0.2-3.4,1.2-6.7,3-9.6l-2.3-4.5
			c-1.7-0.1-3.4-0.3-5-0.9c-1.5-0.5-3-1.1-4.3-2L130.5,331c-0.6,0.3-1.3,0.1-1.6-0.5c-0.3-0.6-0.1-1.3,0.5-1.6l22.9-11.9l0.6,0.4
			c1.3,0.9,2.7,1.6,4.3,2.1l0,0c1.6,0.5,3.3,0.8,5,0.8l0.7,0l3.6,7l-0.4,0.6c-1.9,2.8-3,6.2-3,9.6l0,0.7L140.4,350z"/>
		<path d="M172.4,341.4l0.4-0.2c-1-1.9-1.1-4.2-0.5-6.2c0.6-2,2-3.8,3.8-4.7l0,0l0,0c0.4-0.2,0.7-0.5,0.8-1c0.1-0.4,0.1-0.9-0.1-1.2
			l0,0l-8.7-16.8c-0.2-0.4-0.6-0.7-1-0.8c-0.4-0.1-0.8-0.1-1.2,0.1l0,0l0.2,0.4l-0.2-0.4l0,0c-1.9,1-4.1,1.2-6.1,0.6
			c-1.9-0.6-3.5-1.9-4.4-3.7l0,0l0,0c-0.2-0.4-0.5-0.7-1-0.8l0,0l0,0l-0.1,0.4l0.1-0.4c-0.4-0.1-0.9-0.1-1.2,0.1l0,0l0.2,0.4
			l-0.2-0.4l-48.4,25.1l0,0c-0.8,0.4-1.1,1.4-0.7,2.2c1.9,3.8,0.3,8.5-3.6,10.6l0,0c-0.8,0.4-1.1,1.4-0.7,2.2l0,0l0.4-0.2l-0.4,0.2
			l8.7,16.7c0.2,0.4,0.6,0.7,1,0.8c0.4,0.1,0.8,0.1,1.2-0.1l0,0l0,0l0,0c1.8-0.9,3.9-1.1,5.9-0.5c2.1,0.7,3.8,2.1,4.8,4l0,0l0,0l0,0
			c0.2,0.4,0.5,0.7,1,0.8l0,0l0,0l0.1-0.4l-0.1,0.4c0.4,0.1,0.9,0.1,1.2-0.1l-0.1-0.3l0.1,0.3l0,0l-0.1-0.3l0.1,0.3l0,0l16.2-8.4
			l-0.4-0.8l0,0l0,0c-0.2-0.4,0-0.8,0.3-1l0,0c0.4-0.2,0.8,0,1,0.3l0,0l0.2,0.4l0.2,0.4l31-16.1l0,0c0.8-0.4,1.1-1.4,0.7-2.2l0,0
			l0,0L172.4,341.4l-0.4,0.2c0.2,0.4,0,0.8-0.3,1l0,0l-30.6,15.9l0.2,0.4l0.4-0.2l-0.2-0.4l0,0c-0.4-0.8-1.4-1.1-2.2-0.7l0,0
			c-0.8,0.4-1.1,1.4-0.7,2.2l0,0l0,0l0.2,0.4l0.4-0.2l-0.2-0.4l-15.8,8.2l0.2,0.4l-0.2-0.4l0,0c-0.2,0.1-0.4,0.1-0.6,0l0,0l0,0
			l-0.1,0.4l0.1-0.4c-0.2-0.1-0.3-0.2-0.4-0.4l0,0l0,0l0,0c-1.1-2.1-3-3.8-5.4-4.5c-2.2-0.7-4.6-0.5-6.6,0.5l0,0l0,0l0,0
			c-0.2,0.1-0.4,0.1-0.6,0c-0.2-0.1-0.4-0.2-0.4-0.3l-8.7-16.8l0,0l-0.3,0.2l0.3-0.2l0,0l-0.3,0.2l0.3-0.2l0,0c-0.2-0.4,0-0.8,0.3-1
			l0,0c4.3-2.3,6.1-7.5,4-11.8c-0.2-0.4,0-0.8,0.3-1l48.4-25.1l0,0l-0.2-0.3l0.2,0.3l0,0l-0.2-0.3l0.2,0.3l0,0
			c0.2-0.1,0.4-0.1,0.6,0l0,0l0,0l0.1-0.4l-0.1,0.4c0.2,0.1,0.3,0.2,0.4,0.4l0,0l0,0c1,2,2.8,3.5,4.9,4.2c2.2,0.7,4.6,0.5,6.7-0.6
			l0,0l0,0l0,0l-0.2-0.3l0.2,0.3l0,0l-0.2-0.3l0.2,0.3l0,0c0.2-0.1,0.4-0.1,0.6,0c0.2,0.1,0.4,0.2,0.4,0.3l8.7,16.8l0,0
			c0.1,0.2,0.1,0.4,0,0.6c-0.1,0.2-0.2,0.3-0.4,0.4l0,0l0,0c-2.1,1.1-3.6,3.1-4.3,5.3c-0.7,2.2-0.6,4.7,0.5,6.9l0,0L172.4,341.4z
			 M126.4,332.7l0.2,0.4L126.4,332.7l0.2,0.4l0,0L126.4,332.7l0.2,0.4c0.4-0.2,0.8,0,1,0.3l0.5,1.1l0,0l0,0c0.2,0.4,0,0.8-0.3,1l0,0
			l0,0c-0.2,0.1-0.4,0.1-0.6,0l0,0c-0.2-0.1-0.3-0.2-0.4-0.4l-0.6-1.1l0,0l0,0c-0.2-0.4,0-0.8,0.3-1l0,0l0,0L126.4,332.7l-0.2-0.4
			c-0.8,0.4-1.1,1.4-0.7,2.2l0,0l0.5,1.1c0.2,0.4,0.6,0.7,1,0.8l0,0c0.4,0.1,0.8,0.1,1.2-0.1l0,0l0,0c0.8-0.4,1.1-1.4,0.7-2.2l0,0
			l0,0l-0.5-1.1l0,0c-0.4-0.8-1.4-1.1-2.2-0.7l0,0L126.4,332.7l-0.2-0.4L126.4,332.7z M128.6,336.9l0.2,0.4l0,0c0.4-0.2,0.8,0,1,0.3
			l0.5,1.1l0,0l0,0c0.2,0.4,0,0.8-0.3,1l0,0c-0.2,0.1-0.4,0.1-0.6,0l0,0l0,0c-0.2-0.1-0.3-0.2-0.4-0.4l-0.5-1.1l0,0l0,0
			c-0.2-0.4,0-0.8,0.3-1l0,0l0,0L128.6,336.9l-0.2-0.4c-0.8,0.4-1.1,1.4-0.7,2.2l0,0l0,0l0.5,1.1l0,0c0.2,0.4,0.6,0.7,1,0.8l0,0
			c0.4,0.1,0.9,0.1,1.3-0.1l0,0c0.8-0.4,1.1-1.4,0.7-2.2l0,0l0,0l-0.5-1.1c-0.4-0.8-1.4-1.1-2.2-0.7l0,0l0,0L128.6,336.9z
			 M132.4,341.6l-0.4,0.2l0.5,1.1l0,0l0,0c0.2,0.4,0,0.8-0.3,1l0,0c-0.2,0.1-0.4,0.1-0.6,0l0,0c-0.2-0.1-0.3-0.2-0.4-0.4l-0.5-1.1
			l0,0l0,0c-0.2-0.4,0-0.8,0.3-1l0,0l0,0c0.4-0.2,0.8,0,1,0.3L132.4,341.6l0.4-0.2c-0.4-0.8-1.4-1.1-2.2-0.7l0,0l0,0
			c-0.8,0.4-1.1,1.4-0.7,2.2l0,0l0.5,1.1c0.2,0.4,0.6,0.7,1,0.8l0,0l0,0c0.4,0.1,0.9,0.1,1.3-0.1l0,0c0.8-0.4,1.1-1.4,0.7-2.2l0,0
			l-0.5-1.1L132.4,341.6z M124.2,328.4l0.2,0.4L124.2,328.4l0.2,0.4l0,0L124.2,328.4l0.2,0.4c0.4-0.2,0.8,0,1,0.3l0.5,1.1l0,0l0,0
			c0.2,0.4,0,0.8-0.3,1l0,0l0,0c-0.2,0.1-0.4,0.1-0.6,0l0,0c-0.2-0.1-0.3-0.2-0.4-0.4l-0.5-1.1l0,0l0,0c-0.2-0.4,0-0.8,0.3-1l0,0
			l0,0L124.2,328.4L124,328c-0.8,0.4-1.1,1.4-0.7,2.2l0,0l0.5,1.1c0.2,0.4,0.6,0.7,1,0.8l0,0c0.4,0.1,0.8,0.1,1.2-0.1l0,0l0,0
			c0.8-0.4,1.1-1.4,0.7-2.2l0,0l-0.5-1.1c-0.4-0.8-1.4-1.1-2.2-0.7l0,0L124.2,328.4L124,328L124.2,328.4z M122,324.2l0.2,0.4
			L122,324.2l0.2,0.4l0,0L122,324.2l0.2,0.4c0.4-0.2,0.8,0,1,0.3l0.5,1.1l0,0l0,0c0.2,0.4,0,0.8-0.3,1l0,0l0,0
			c-0.2,0.1-0.4,0.1-0.6,0l0,0c-0.2-0.1-0.3-0.2-0.4-0.4l-0.5-1.1l0,0l0,0c-0.2-0.4,0-0.8,0.3-1l0,0l0,0L122,324.2l-0.2-0.4
			c-0.8,0.4-1.1,1.4-0.7,2.2l0,0l0.5,1.1c0.2,0.4,0.6,0.7,1,0.8l0,0l0,0c0.4,0.1,0.8,0.1,1.2-0.1l0,0l0,0c0.8-0.4,1.1-1.4,0.7-2.2
			l0,0l-0.5-1.1c-0.4-0.8-1.4-1.1-2.2-0.7l0,0L122,324.2l-0.2-0.4L122,324.2z M132.9,353.9l-0.2-0.4l-8.1,4.2l-0.4-0.3l0,0
			c-1.5-1.1-3.1-1.9-4.8-2.4l-0.1,0.4l0.1-0.4c-1.6-0.5-3.3-0.8-5-0.8h0l-0.4,0l-3.4-6.5l0.3-0.4l0,0l0,0c2-2.8,3.1-6.1,3.2-9.6
			l0-0.4l7.6-4l0,0l-0.1-0.3l0.1,0.3l0,0l-0.1-0.3l0.1,0.3c0.4-0.2,0.8,0,1,0.3l0,0l0,0c0.2,0.4,0,0.8-0.3,1l0,0l-6.9,3.6l0,0.3
			c-0.2,3.2-1.2,6.4-3,9.1l-0.1,0.2l2.5,4.9l0.3,0c1.6,0.1,3.2,0.4,4.7,0.9l0,0l0,0l0,0c1.6,0.5,3.2,1.3,4.6,2.2l0.2,0.1l7.3-3.8
			l0,0l-0.2-0.3l0.2,0.3l0,0l-0.2-0.3l0.2,0.3c0.4-0.2,0.8,0,1,0.3l0,0l0,0c0.2,0.4,0,0.8-0.3,1l0,0L132.9,353.9l0.2,0.4
			c0.8-0.4,1.1-1.4,0.7-2.2l0,0l0,0c-0.4-0.8-1.4-1.1-2.2-0.7l0,0l0,0l-7,3.7l0.2,0.4l0.2-0.4c-1.5-1-3.1-1.8-4.8-2.3l0,0l0,0l0,0
			c-1.6-0.5-3.3-0.8-4.9-0.9l0,0.5l0.4-0.2l-2.3-4.4l-0.4,0.2l0.4,0.2c1.9-2.9,3-6.1,3.2-9.5l-0.5,0l0.2,0.4l6.6-3.4l0,0
			c0.8-0.4,1.1-1.4,0.7-2.2l0,0l0,0l0,0c-0.4-0.8-1.4-1.1-2.2-0.7l0,0l0,0l-8.1,4.2l0,1c-0.1,3.2-1.1,6.4-3,9.1l0,0l-0.6,0.8
			l3.9,7.5l1,0l0,0c1.6,0,3.2,0.3,4.7,0.8l0,0l0,0c1.6,0.5,3.2,1.3,4.6,2.3l0,0l0.8,0.6l8.6-4.4l0,0L132.9,353.9z M134.6,348.5
			l-0.2-0.4l0,0c-0.2,0.1-0.4,0.1-0.6,0l0,0c-0.2-0.1-0.3-0.2-0.4-0.4l-0.5-1.1l0,0l0,0c-0.2-0.4,0-0.8,0.3-1l0,0l0,0
			c0.4-0.2,0.8,0,1,0.3l0.5,1.1l0,0c0.2,0.4,0,0.8-0.3,1l0,0l0,0L134.6,348.5l0.2,0.4c0.8-0.4,1.1-1.4,0.7-2.2l0,0l-0.5-1.1
			c-0.4-0.8-1.4-1.1-2.2-0.7l0,0l0,0c-0.8,0.4-1.1,1.4-0.7,2.2l0,0l0,0l0.5,1.1c0.2,0.4,0.6,0.7,1,0.8l0,0c0.4,0.1,0.8,0.1,1.2-0.1
			l0,0l0,0L134.6,348.5z M136.8,352.7l-0.2-0.4l0,0c-0.2,0.1-0.4,0.1-0.6,0l0,0c-0.2-0.1-0.3-0.2-0.4-0.4l-0.5-1.1l0,0l0,0
			c-0.2-0.4,0-0.8,0.3-1l0,0l0,0l0,0c0.4-0.2,0.8,0,1,0.3l0.5,1.1l0,0l0,0c0.2,0.4,0,0.8-0.3,1l0,0L136.8,352.7l0.2,0.4
			c0.8-0.4,1.1-1.4,0.7-2.2l0,0l-0.5-1.1l0,0c-0.4-0.8-1.4-1.1-2.2-0.7l0,0l0,0l0,0c-0.8,0.4-1.1,1.4-0.7,2.2l0,0l0,0l0.5,1.1l0,0
			c0.2,0.4,0.6,0.7,1,0.8l0,0c0.4,0.1,0.8,0.1,1.2-0.1l0,0l0,0L136.8,352.7z M139,356.9l-0.2-0.4l0,0c-0.2,0.1-0.4,0.1-0.6,0l0,0
			c-0.2-0.1-0.3-0.2-0.4-0.4l-0.5-1.1l0,0l0,0c-0.2-0.4,0-0.8,0.3-1l0,0l0,0l0,0c0.4-0.2,0.8,0,1,0.3l0.5,1.1l0,0l0,0
			c0.2,0.4,0,0.8-0.3,1l0,0L139,356.9l0.2,0.4c0.8-0.4,1.1-1.4,0.7-2.2l0,0l0,0l-0.5-1.1c-0.4-0.8-1.4-1.1-2.2-0.7l0,0l0,0
			c-0.8,0.4-1.1,1.4-0.7,2.2l0,0l0,0l0.5,1.1c0.2,0.4,0.6,0.7,1,0.8l0,0c0.4,0.1,0.8,0.1,1.2-0.1l0,0l0,0L139,356.9z M140.4,350
			l-0.2-0.4l0,0c-0.2,0.1-0.4,0.1-0.6,0l0,0c-0.2-0.1-0.3-0.2-0.4-0.4l0,0l0,0l0,0c-0.2-0.4,0-0.8,0.3-1l21.8-11.3l0-0.3
			c0.2-3.3,1.2-6.6,2.9-9.4l0.1-0.2l-2.6-5l-0.3,0c-1.7-0.1-3.3-0.3-4.9-0.8l0,0l0,0c-1.5-0.4-2.9-1.1-4.2-1.9l-0.2-0.1l-21.9,11.3
			l0,0l0,0c-0.4,0.2-0.8,0-1-0.3l0,0l0,0l-0.2,0.1l0.2-0.1l0,0l-0.2,0.1l0.2-0.1c-0.2-0.4,0-0.8,0.3-1l22.6-11.8l0.4,0.2l0,0
			c1.3,0.9,2.8,1.6,4.4,2.1l0.1-0.4l-0.1,0.4l0,0l0,0l0,0c1.7,0.5,3.4,0.8,5.2,0.8h0l0.4,0l3.4,6.5l-0.2,0.4l0,0
			c-1.9,2.9-3,6.4-3.1,9.8l0,0.4l-22.5,11.7l0,0L140.4,350l0.2,0.4l23-12l0-1l0,0c0-3.3,1.1-6.6,2.9-9.4l0.5-0.8l-3.9-7.5l-1,0h0
			c-1.7,0-3.3-0.2-4.9-0.7l-0.1,0.4l0.1-0.4l0,0l0,0l0,0c-1.5-0.5-2.9-1.1-4.1-2l0,0l-0.8-0.6l-23.1,12l0,0
			c-0.8,0.4-1.1,1.4-0.7,2.2l0,0l0,0c0.4,0.8,1.4,1.1,2.2,0.7l0,0l0,0l21.6-11.2l-0.2-0.4l-0.2,0.4c1.4,0.9,2.8,1.6,4.4,2l0.1-0.4
			l-0.1,0.4c1.7,0.5,3.4,0.8,5.2,0.9l0-0.5l-0.4,0.2l2.3,4.5l0.4-0.2l-0.4-0.2c-1.8,2.9-2.9,6.4-3.1,9.8l0.5,0l-0.2-0.4l-21.5,11.2
			c-0.8,0.4-1.1,1.4-0.7,2.2l0,0l0,0c0.2,0.4,0.6,0.7,1,0.8l0,0c0.4,0.1,0.8,0.1,1.2-0.1l0,0l0,0L140.4,350z"/>
		<path d="M137.6,335.7l0.4,1.7l-0.2,0.1l-0.4-0.2c-0.2,0.5-0.7,0.9-1.1,1.1c-1.2,0.6-2.6,0.3-3.2-1c-0.5-0.9-0.4-1.9-0.2-2.8
			c0.2-0.8,0.7-1.9,1.5-2.3c0.4-0.2,0.9-0.2,1.3-0.1l0.2-0.5l0.2-0.1l0.6,1.6l-0.3,0.1c-0.3-0.6-1-1.2-1.8-0.8
			c-0.3,0.2-0.5,0.3-0.6,0.7c-0.1,0.5,0.1,1.7,0.3,2.2c0.2,0.8,0.4,1.6,0.8,2.3c0.3,0.7,0.7,0.6,1.3,0.3c0.9-0.5,1-1.4,1-2.3
			L137.6,335.7z"/>
		<path d="M137,331.4l-0.1-0.3l0.8-0.4c0.3-0.1,0.5-0.3,0.8-0.5l1.4,5.5c0,0.1,0.1,0.4,0.3,0.3c0.3-0.1,0.3-0.9,0.3-1.2l0.2,0
			c0.1,0.8,0,1.4-0.7,1.8c-0.4,0.2-0.8,0.1-1.1-0.3c-0.1-0.2-0.1-0.3-0.1-0.4l-1.2-4.8L137,331.4z"/>
		<path d="M142.7,331l0.9-0.5l0.6,2.9c0.1,0.3,0.2,0.3,0.2,0.2c0.3-0.1,0.3-0.9,0.3-1.2l0.2,0c0,0.6,0,1.4-0.6,1.8
			c-0.4,0.2-0.7-0.1-1-0.4c0,0.6-0.2,1.1-0.7,1.4c-0.7,0.4-1.4,0-1.7-0.7c-0.4-0.9-0.3-2,0.3-2.7c0.1-0.1,0.3-0.3,0.4-0.4
			c0.4-0.2,0.8-0.1,1.2,0.2L142.7,331z M141.9,333.3c0.1,0.3,0.3,1.2,0.4,1.4c0.1,0.2,0.3,0.3,0.5,0.2c0.7-0.4,0.3-2.3,0-2.9
			c-0.2-0.3-0.5-0.6-0.8-0.4C141.9,331.7,141.6,331.9,141.9,333.3z"/>
		<path d="M145.7,331.4c-0.4-0.1-0.5-0.3-0.6-0.4c-0.3-0.5-0.1-1.3,0.7-1.7c0.4-0.2,1-0.3,1.3,0.1c0.1,0.2,0.1,0.5-0.2,0.6
			c-0.2,0.1-0.4,0.1-0.6-0.1c0,0-0.1-0.3-0.1-0.3c0-0.1-0.3,0-0.4,0c-0.2,0.1-0.5,0.3-0.4,0.5c0.1,0.1,0.2,0.2,0.3,0.2l1.1,0.2
			c0.4,0.1,0.7,0.2,0.9,0.6c0.4,0.8-0.1,1.5-0.8,1.9c-0.4,0.2-1.3,0.5-1.6-0.1c-0.1-0.3,0-0.6,0.2-0.7c0.2-0.1,0.5,0,0.6,0.2
			c0.1,0.1,0,0.4,0.1,0.4c0.1,0.1,0.4,0,0.5-0.1c0.2-0.1,0.6-0.4,0.4-0.7c-0.1-0.2-0.3-0.3-0.5-0.3L145.7,331.4z"/>
		<path d="M148.9,329.8c-0.4-0.1-0.5-0.3-0.6-0.4c-0.3-0.5-0.1-1.3,0.7-1.7c0.4-0.2,1-0.3,1.3,0.1c0.1,0.2,0.1,0.5-0.2,0.6
			c-0.2,0.1-0.4,0.1-0.6-0.1c0,0-0.1-0.3-0.1-0.3c0-0.1-0.3,0-0.4,0c-0.2,0.1-0.5,0.3-0.4,0.5c0.1,0.1,0.2,0.2,0.3,0.2l1.1,0.2
			c0.4,0.1,0.7,0.2,0.9,0.6c0.4,0.8-0.1,1.5-0.8,1.9c-0.4,0.2-1.3,0.5-1.6-0.1c-0.1-0.3,0-0.6,0.2-0.7c0.2-0.1,0.5,0,0.6,0.2
			c0.1,0.1,0,0.4,0.1,0.4c0.1,0.1,0.4,0,0.5-0.1c0.2-0.1,0.6-0.4,0.4-0.7c-0.1-0.2-0.3-0.3-0.5-0.3L148.9,329.8z"/>
		<path d="M150.7,327.2l-0.1-0.3l0.8-0.4c0.1-0.1,0.3-0.1,0.4-0.2c0.1-0.1,0.3-0.2,0.4-0.2l0.7,3c0.1,0.2,0.1,0.4,0.3,0.3
			c0.3-0.1,0.3-1,0.2-1.2l0.2,0c0.1,0.8,0,1.4-0.8,1.8c-0.3,0.2-0.7,0.2-0.9-0.1c-0.1-0.1-0.1-0.4-0.2-0.7l-0.6-2.2L150.7,327.2z
			 M151.8,324.5c0.2,0.3,0,0.7-0.3,0.9c-0.3,0.2-0.7,0-0.8-0.3c-0.1-0.3,0-0.7,0.2-0.8C151.2,324.1,151.6,324.2,151.8,324.5z"/>
		<path d="M157.2,326.5c-0.1,0.7-0.5,1.4-1.2,1.8c-0.7,0.4-1.7,0.2-2.1-0.6c-0.5-1.1,0.1-2.6,1.1-3.1c0.4-0.2,1.2-0.4,1.5,0.2
			c0.2,0.3,0.1,0.6-0.2,0.8c-0.3,0.1-0.6,0.1-0.7-0.2c0-0.1-0.1-0.2-0.1-0.3c0-0.1,0-0.2,0-0.2c0-0.1-0.2-0.1-0.3-0.1
			c-0.2,0.1-0.3,0.2-0.3,0.4c-0.1,0.3,0.2,2,0.6,2.6c0.1,0.3,0.4,0.3,0.6,0.1c0.6-0.3,0.9-0.9,1-1.5L157.2,326.5z"/>
		<path d="M138.9,340.7L138.9,340.7c0.2-0.6,0.3-1.3,0.9-1.6c0.6-0.3,1,0,1.2,0.6l0,0c0-0.6,0.2-1.4,0.8-1.7
			c0.4-0.2,0.8-0.1,1.1,0.3c0.1,0.1,0.1,0.4,0.2,0.6l0.3,1.3c0.1,0.2,0.1,0.5,0.1,0.5c0,0.1,0.1,0.1,0.2,0.1c0.3-0.1,0.3-1,0.3-1.2
			l0.2,0c0,0.7-0.1,1.4-0.7,1.8c-0.5,0.3-0.9,0.1-1-0.2c-0.1-0.2-0.1-0.4-0.2-0.7l-0.4-1.7c-0.1-0.2-0.2-0.3-0.2-0.3
			c-0.5,0.2-0.6,1.6-0.3,2.6l0.3,1.1l-1,0.5l-0.7-2.9c-0.1-0.3-0.1-0.4-0.3-0.3c-0.1,0.1-0.2,0.3-0.3,0.5c-0.1,0.5-0.2,1.1-0.1,1.6
			l0.4,1.6l-1,0.5l-0.8-3.3l-0.6,0.3l-0.1-0.3l0.8-0.4c0.3-0.1,0.5-0.3,0.8-0.4L138.9,340.7z"/>
		<path d="M147.8,336.7c0.5,0.9,0,2.2-0.7,2.8c-0.2,0.2-0.4,0.3-0.7,0.4c-1,0.5-1.8,0.1-2.1-0.6c-0.6-1.1,0.3-2.7,1.3-3.2
			C146.4,335.7,147.4,335.9,147.8,336.7z M145.2,337.2c0,0.4,0.6,2.1,0.7,2.4c0.1,0.2,0.4,0.1,0.6,0c0.3-0.2,0.5-0.3,0.5-0.7
			c-0.1-0.5-0.4-2-0.6-2.4c-0.1-0.3-0.4-0.3-0.7-0.1C145.3,336.5,145.2,336.8,145.2,337.2z"/>
		<path d="M150.1,336.2c0.1,0.4,0.2,0.8,0.2,0.9c0.1,0.2,0.3,0.2,0.5,0.1c0.7-0.4,0.6-2,0.3-2.7c0,0-0.1-0.1-0.1,0
			c-0.1,0-0.1,0.1-0.2,0.1c-0.3,0.1-0.5,0.1-0.7-0.2c-0.1-0.3,0-0.6,0.2-0.7c0.4-0.2,0.8,0.1,1,0.4c0.3,0.7,0.4,1.9,0.2,2.6
			c-0.1,0.4-0.5,0.8-0.9,1.1c-0.4,0.2-1,0.2-1.2-0.3c-0.1-0.1-0.1-0.3-0.2-0.6l-0.3-1.3c-0.1-0.3-0.1-0.5-0.2-0.6c0-0.1-0.1,0-0.1,0
			c-0.2,0.1-0.3,0.9-0.2,1.2l-0.2,0.1c-0.1-0.6,0-1.4,0.6-1.7c0.6-0.3,1.1,0,1.2,0.5L150.1,336.2z"/>
		<path d="M151.4,333.5l-0.1-0.3l0.8-0.4c0.1-0.1,0.3-0.1,0.4-0.2c0.1-0.1,0.3-0.2,0.4-0.2l0.7,3c0.1,0.2,0.1,0.4,0.3,0.3
			c0.3-0.1,0.3-1,0.2-1.2l0.2,0c0.1,0.8,0,1.4-0.8,1.8c-0.3,0.2-0.7,0.2-0.9-0.1c-0.1-0.1-0.1-0.4-0.2-0.7l-0.6-2.2L151.4,333.5z
			 M152.5,330.8c0.2,0.3,0,0.7-0.3,0.9c-0.3,0.2-0.7,0-0.8-0.3c-0.1-0.3,0-0.7,0.2-0.8C152,330.4,152.4,330.5,152.5,330.8z"/>
		<path d="M155.8,333.3c0.1,0.3,0.1,0.6,0.3,0.9c0.1,0.3,0.4,0.3,0.6,0.2c0.7-0.4,1.1-1,1.2-1.8l0.2,0c-0.1,0.9-0.6,1.6-1.4,2
			c-0.8,0.4-1.6,0.3-2.1-0.5c-0.6-1.1,0.1-2.7,1.1-3.2c0.5-0.3,1.3-0.4,1.6,0.2c0.3,0.5,0,1-0.3,1.3c-0.2,0.2-0.4,0.4-0.6,0.5
			L155.8,333.3z M156.2,332.8c0.2-0.1,0.7-0.7,0.3-1.4c-0.2-0.3-0.3-0.4-0.7-0.2c-0.2,0.1-0.4,0.3-0.3,0.9l0.2,1L156.2,332.8z"/>
	</g>
</g>
<g id="Calque_2_1_">
	<g class="st19">
		<image style="overflow:visible;" width="289" height="447" xlink:href="6CB31CFE.png"  transform="matrix(1 0 0 1 -36 -35.6)">
		</image>
	</g>
</g>
</svg>
