<?xml version="1.0" standalone="no"?>
<!DOCTYPE svg PUBLIC "-//W3C//DTD SVG 20010904//EN"
 "http://www.w3.org/TR/2001/REC-SVG-20010904/DTD/svg10.dtd">
<svg version="1.0" xmlns="http://www.w3.org/2000/svg"
 width="16.000000pt" height="16.000000pt" viewBox="0 0 16.000000 16.000000"
 preserveAspectRatio="xMidYMid meet">
<metadata>
Created by potrace 1.11, written by Peter Selinger 2001-2013
</metadata>
<g transform="translate(0.000000,16.000000) scale(0.004000,-0.004000)"
fill="#000000" stroke="none">
<path d="M1012 3037 c-31 -29 -63 -56 -71 -62 -7 -5 -29 -25 -47 -42 -18 -18
-38 -33 -44 -33 -9 0 -470 -379 -671 -552 l-67 -57 18 -83 c10 -46 28 -131 41
-190 l23 -108 35 -11 c20 -6 117 -37 216 -69 99 -32 322 -104 495 -160 173
-56 403 -130 510 -165 107 -35 272 -88 365 -119 94 -30 283 -91 420 -136 138
-44 304 -98 370 -120 66 -21 241 -78 390 -126 l269 -87 34 19 c30 17 53 61
221 414 104 217 215 451 248 520 94 194 101 215 122 371 11 80 21 151 23 159
2 10 -56 27 -222 67 -124 29 -367 87 -540 129 -539 130 -1260 302 -1615 384
-187 43 -368 85 -403 94 l-62 14 -58 -51z m8 -30 c0 -2 -10 -12 -22 -23 l-23
-19 19 23 c18 21 26 27 26 19z m-50 -40 c0 -2 -10 -12 -22 -23 l-23 -19 19 23
c18 21 26 27 26 19z m-50 -40 c0 -2 -10 -12 -22 -23 l-23 -19 19 23 c18 21 26
27 26 19z m295 -169 c116 -28 214 -54 218 -58 8 -7 -351 -365 -395 -394 -25
-16 -54 -9 -459 111 -23 7 -25 104 -3 141 16 27 16 27 -2 6 -11 -12 -25 -30
-32 -40 -7 -11 -4 -1 7 21 21 44 115 138 175 175 73 44 217 98 250 93 17 -2
126 -27 241 -55z m2639 -534 c-15 -32 -28 -75 -30 -94 l-4 -35 17 30 c9 17 18
41 19 54 2 13 6 26 10 30 4 3 4 -16 0 -44 -4 -27 -7 -58 -7 -67 0 -10 -4 -18
-9 -18 -5 0 -16 -8 -26 -17 -16 -16 -16 -13 -12 48 5 60 57 207 65 182 2 -5
-8 -36 -23 -69z m-652 22 c73 -18 166 -44 207 -56 87 -26 131 -62 131 -109 0
-16 5 -52 10 -78 9 -39 7 -58 -5 -92 -20 -57 -12 -64 15 -12 11 23 23 41 25
41 16 0 -54 -108 -98 -152 -80 -79 -159 -123 -222 -123 -60 1 -611 160 -638
185 -10 9 22 66 77 139 23 31 63 88 89 126 25 39 58 84 72 100 l26 30 -16 -32
c-20 -43 -7 -42 35 2 19 19 42 35 53 35 10 0 25 7 33 15 22 22 59 19 206 -19z
m-2458 -207 c1733 -525 2300 -700 2324 -715 25 -16 28 -60 15 -208 -5 -60 -10
-79 -24 -87 -19 -10 -37 -4 -1719 542 -338 110 -649 211 -690 225 -47 15 -80
32 -88 45 -15 24 -54 237 -46 250 8 14 18 12 228 -52z m3043 -11 c-3 -7 -5 -2
-5 12 0 14 2 19 5 13 2 -7 2 -19 0 -25z m-366 -675 c-17 -33 -19 -35 -19 -13
1 24 27 65 35 56 3 -2 -5 -21 -16 -43z"/>
<path d="M2860 2160 c0 -5 5 -10 10 -10 6 0 10 5 10 10 0 6 -4 10 -10 10 -5 0
-10 -4 -10 -10z"/>
</g>
</svg>
