<?xml version="1.0" encoding="utf-8"?>
<!-- Generator: Adobe Illustrator 21.0.0, SVG Export Plug-In . SVG Version: 6.00 Build 0)  -->
<svg version="1.1" id="Calque_1" xmlns="http://www.w3.org/2000/svg" xmlns:xlink="http://www.w3.org/1999/xlink" x="0px" y="0px"
	 viewBox="0 0 105.9 183.4" style="enable-background:new 0 0 105.9 183.4;" xml:space="preserve">
<style type="text/css">
	.st0{fill:#FFE600;}
	.st1{fill:none;stroke:#000000;stroke-width:0.4886;stroke-miterlimit:10;}
	.st2{fill:#00A2CE;}
	.st3{fill:none;stroke:#3A3F3F;stroke-width:6.8404;stroke-miterlimit:10;}
	.st4{fill:#B6BFC1;}
	.st5{fill:none;stroke:#3A3F3F;stroke-width:2.9316;stroke-miterlimit:10;}
	.st6{fill:#333333;}
	.st7{font-family:'WalbaumMTStd-Regular';}
	.st8{font-size:42.4495px;}
</style>
<g>
	<path class="st0" d="M105.8,107.8v71.8c0,2.1-1.7,3.8-3.8,3.8H3.8c-2.1,0-3.8-1.7-3.8-3.8V3.8C0,1.7,1.7,0,3.8,0H102
		c2.1,0,3.8,1.7,3.8,3.8v71.1c0,1-0.5,1.8-1.4,2.3l-1.1,0.6c-0.9,0.4-1.4,1.3-1.4,2.3v23.8c0,1.1,0.7,2.1,1.8,2.4l1.4,0.4
		C105.5,106.8,105.8,107.3,105.8,107.8z"/>
	<path class="st1" d="M105.8,107.8v71.8c0,2.1-1.7,3.8-3.8,3.8H3.8c-2.1,0-3.8-1.7-3.8-3.8V3.8C0,1.7,1.7,0,3.8,0H102
		c2.1,0,3.8,1.7,3.8,3.8v71.1c0,1-0.5,1.8-1.4,2.3l-1.1,0.6c-0.9,0.4-1.4,1.3-1.4,2.3v23.8c0,1.1,0.7,2.1,1.8,2.4l1.4,0.4
		C105.5,106.8,105.8,107.3,105.8,107.8z"/>
	<circle class="st2" cx="51.4" cy="87.8" r="37.2"/>
	<circle class="st3" cx="51.4" cy="87.8" r="37.2"/>
	<path class="st4" d="M66.8,66.2c14.6-7.9,30.8-12.2,34.4-5.6c3.7,6.7-11.3,21.8-25.9,29.7c13-7.1,21.7-18.4,18.3-24.7
		C90.2,59.4,79.8,59.1,66.8,66.2z"/>
	<path class="st5" d="M66.8,66.2c14.6-7.9,30.8-12.2,34.4-5.6c3.7,6.7-11.3,21.8-25.9,29.7c13-7.1,21.7-18.4,18.3-24.7
		C90.2,59.4,79.8,59.1,66.8,66.2z"/>
	<path class="st4" d="M38.2,110.1c-14.6,7.9-30.8,12.2-34.4,5.6c-3.6-6.7,11.3-21.8,25.9-29.7C16.7,93,8,104.2,11.4,110.6
		C14.9,116.9,25.2,117.1,38.2,110.1z"/>
	<path class="st5" d="M38.2,110.1c-14.6,7.9-30.8,12.2-34.4,5.6c-3.6-6.7,11.3-21.8,25.9-29.7C16.7,93,8,104.2,11.4,110.6
		C14.9,116.9,25.2,117.1,38.2,110.1z"/>
	<ellipse class="st2" cx="69.7" cy="74.3" rx="9.5" ry="14.1"/>
	<ellipse class="st2" cx="29.9" cy="90.9" rx="12.7" ry="17.8"/>
	<text transform="matrix(1 0 0 1 29.9448 99.0107)" class="st6 st7 st8">42</text>
</g>
</svg>
