<?xml version="1.0" encoding="utf-8"?>
<!-- Generator: Adobe Illustrator 21.0.0, SVG Export Plug-In . SVG Version: 6.00 Build 0)  -->
<svg version="1.1" id="Calque_1" xmlns="http://www.w3.org/2000/svg" xmlns:xlink="http://www.w3.org/1999/xlink" x="0px" y="0px"
	 viewBox="0 0 105.9 183.4" style="enable-background:new 0 0 105.9 183.4;" xml:space="preserve">
<style type="text/css">
	.st0{fill:#8436FF;}
	.st1{fill:none;stroke:#000000;stroke-width:0.4886;stroke-miterlimit:10;}
	.st2{fill:#078FDB;}
	.st3{fill:#05DDCD;}
	.st4{fill:#0B9604;}
	.st5{fill:none;stroke:#000000;stroke-width:3.4202;stroke-miterlimit:10;}
</style>
<g>
	<path class="st0" d="M105.8,107.8v71.8c0,2.1-1.7,3.8-3.8,3.8H3.8c-2.1,0-3.8-1.7-3.8-3.8V3.8C0,1.7,1.7,0,3.8,0H102
		c2.1,0,3.8,1.7,3.8,3.8v71.1c0,1-0.5,1.8-1.4,2.3l-1.1,0.6c-0.9,0.4-1.4,1.3-1.4,2.3v23.8c0,1.1,0.7,2.1,1.8,2.4l1.4,0.4
		C105.5,106.8,105.8,107.3,105.8,107.8z"/>
	<path class="st1" d="M105.8,107.8v71.8c0,2.1-1.7,3.8-3.8,3.8H3.8c-2.1,0-3.8-1.7-3.8-3.8V3.8C0,1.7,1.7,0,3.8,0H102
		c2.1,0,3.8,1.7,3.8,3.8v71.1c0,1-0.5,1.8-1.4,2.3l-1.1,0.6c-0.9,0.4-1.4,1.3-1.4,2.3v23.8c0,1.1,0.7,2.1,1.8,2.4l1.4,0.4
		C105.5,106.8,105.8,107.3,105.8,107.8z"/>
	<path class="st2" d="M80.6,108.5c1.6,2.9-0.4,6.4-3.7,6.4h0c-3.2,0-5.2-3.5-3.6-6.3l3.7-6.4L80.6,108.5z"/>
	<path class="st3" d="M49.2,80c0.2,2.5,0.2,5.1-0.3,7.7c-0.6,3.6-2,7-3.9,10c-0.2,0.3-0.4,0.6-0.7,1c-0.2,0.3-0.5,0.6-0.7,0.9
		c-1,1-2.3,1.6-3.8,1.6c-0.2,0-0.5,0-0.7,0l-0.7-0.1c-0.3-0.1-0.6-0.1-0.9-0.2c-1.4-0.4-2.7-0.8-4.1-1.4c-2-0.8-3.8-1.9-5.5-3.2
		c-1.5-1.1-2.9-2.4-4.1-3.8c-2.1-2.3-3.8-4.9-5.1-7.7c-0.4-0.9-0.8-1.7-1.2-2.6c-0.3-0.7-0.5-1.3-0.7-2c-0.3-0.9-0.5-1.8-0.6-2.7
		c-0.2-1.5-0.2-3,0.1-4.4c0.3-1.9,0.9-3.7,1.9-5.4c0.9-1.6,2-3,3.4-4.1c1.3-1.1,2.7-2,4.2-2.6c1.3-0.5,2.7-0.9,4.1-1.1
		c0.7-0.1,1.3-0.1,2-0.2h0.6c0.5,0,0.9,0,1.3,0.1c1,0.1,2,0.3,3,0.6c2.2,0.7,4.2,1.8,5.9,3.4c1.3,1.1,2.3,2.5,3.2,3.9
		c0.3,0.5,0.6,1.1,0.8,1.6c0.2,0.5,0.4,1.1,0.6,1.6c0.3,0.9,0.6,1.8,0.9,2.7C48.5,75.6,49,77.7,49.2,80L49.2,80z"/>
	<path class="st3" d="M90,72.6c0.2,1.4,0.3,3,0.1,4.4c-0.1,1-0.3,2-0.6,2.9c-0.2,0.7-0.5,1.4-0.7,2c-0.4,0.9-0.8,1.8-1.2,2.6
		c-1.3,2.6-2.9,5.1-4.8,7.3c-1.1,1.3-2.4,2.5-3.7,3.6c-1.5,1.2-3.1,2.3-4.8,3.1c-1.6,0.8-3.4,1.5-5.2,2c-0.4,0.1-0.8,0.2-1.1,0.3
		c-0.2,0-0.5,0.1-0.7,0.1c-0.3,0-0.5,0-0.8,0c-1.4,0-2.7-0.6-3.6-1.6c-0.3-0.3-0.5-0.6-0.7-0.9c-0.3-0.4-0.6-0.8-0.8-1.2
		c-2-3-3.2-6.4-3.8-10c-0.4-2.5-0.5-5-0.3-7.4c0.2-2.2,0.6-4.5,1.3-6.6c0.3-0.9,0.5-1.8,0.9-2.7c0.2-0.5,0.4-1.1,0.6-1.6
		c0.2-0.5,0.5-1.1,0.8-1.6c0.8-1.5,1.9-2.8,3.2-3.9c1.8-1.6,3.9-2.7,6.1-3.4c1-0.3,2-0.5,3-0.6c0.4,0,0.9-0.1,1.3-0.1h0.8
		c0.7,0,1.3,0.1,2,0.2c1.4,0.2,2.7,0.7,4,1.3c1.5,0.7,2.9,1.6,4.1,2.7C87.7,65.9,89.4,69.2,90,72.6z"/>
	<path class="st4" d="M95.8,75.6c0.2,2.1,0.2,4.2,0.1,6.3c-0.2,3.6-0.7,7.1-1.6,10.5c-0.4,1.4-0.7,2.8-1.2,4.1
		c-3,9.1-8,17.3-14.1,24.6c-1,1.2-2,2.3-3,3.5c-1.3,1.4-2.7,2.9-4.1,4.3c-1.8,1.8-3.8,3.6-5.7,5.3c-2.3,2-4.6,3.8-7,5.6
		c-2,1.4-3.9,2.8-6,4.1l-0.2-0.2c-2.2-1.4-4.4-2.9-6.5-4.5c-2.1-1.6-4.2-3.3-6.3-5c-2-1.7-3.9-3.4-5.7-5.3c-1.4-1.4-2.8-2.8-4.1-4.3
		c-1.1-1.1-2.1-2.3-3-3.5c-6.1-7.3-11.1-15.6-14.1-24.6c-0.5-1.4-0.9-2.8-1.2-4.1c-0.9-3.4-1.4-7-1.6-10.5c-0.1-2.1-0.1-4.2,0.1-6.3
		c0.2-2.6,0.7-5.2,1.3-7.7c1.1-3.9,2.7-7.6,4.7-11c2.6-4.3,6-8.2,10-11.3c3.6-2.9,7.8-5.2,12.2-6.8c3-1.1,6.1-1.8,9.3-2.2
		c1.6-0.2,3.3-0.3,4.9-0.3h1.1c1.6,0,3.3,0.2,4.9,0.4c3.2,0.4,6.3,1.2,9.3,2.3c4.3,1.6,8.3,3.9,11.9,6.8c3.8,3,7.1,6.8,9.7,10.9
		c2.1,3.5,3.8,7.3,4.8,11.2C95.2,70.4,95.6,73,95.8,75.6L95.8,75.6z M93.3,77.2c0.2-1.8,0.1-3.6-0.2-5.3c-0.4-2.2-1.2-4.3-2.3-6.2
		c-1.1-1.9-2.5-3.5-4.1-4.9c-1.5-1.3-3.2-2.3-5-3.1c-1.5-0.6-3-1.1-4.6-1.3c-0.8-0.1-1.6-0.2-2.3-0.2h-0.5c-0.6,0-1.3,0-1.8,0.1
		c-1.2,0.1-2.4,0.4-3.6,0.7c-2.5,0.8-4.9,2.1-6.9,3.9c-1.6,1.4-2.9,3-4,4.8c-0.4,0.6-0.7,1.3-1,2c-0.3,0.6-0.5,1.2-0.7,1.8
		c-0.4,1.1-0.7,2.2-1.1,3.3c-0.6,2.3-1.1,4.7-1.3,7.2c-0.2,2.8-0.1,5.6,0.4,8.4c0.7,3.8,2.1,7.4,4.2,10.7c0.3,0.5,0.6,0.9,0.9,1.4
		c0.2,0.2,0.3,0.4,0.5,0.6c0.2,0.3,0.4,0.5,0.7,0.7c1.5,1.5,3.6,2.3,5.7,2.4c0.4,0,0.8,0,1.1-0.1c0.4,0,0.7-0.1,1.1-0.2l0.9-0.2
		c1.5-0.4,2.9-0.9,4.3-1.4c2.3-0.9,4.4-2.2,6.4-3.7c1.8-1.3,3.3-2.8,4.8-4.5c2.2-2.6,4.1-5.5,5.6-8.5c0.5-0.9,0.9-1.9,1.3-2.9
		c0.3-0.7,0.5-1.4,0.8-2.1C92.9,79.5,93.1,78.4,93.3,77.2z M76.9,114.9c3.3,0,5.3-3.5,3.7-6.4l-3.7-6.4l-3.7,6.4
		C71.6,111.4,73.6,114.9,76.9,114.9L76.9,114.9L76.9,114.9z M56.9,105.6c0.7-0.4,0.7-1.8,0-3.2c-0.7-1.5-1.8-2.4-2.5-2.1
		c-0.7,0.4-0.7,1.8,0,3.3C55.1,105,56.2,105.9,56.9,105.6z M51.9,88.5c0.5-2.8,0.6-5.6,0.4-8.4c-0.2-2.4-0.6-4.8-1.3-7.2
		c-0.3-1.1-0.7-2.2-1.1-3.3c-0.2-0.6-0.4-1.2-0.7-1.8c-0.3-0.7-0.6-1.3-1-2c-1.1-1.8-2.4-3.5-4-4.8c-2-1.8-4.4-3.1-6.9-3.9
		c-1.2-0.4-2.4-0.6-3.6-0.7c-0.6-0.1-1.2-0.1-1.8-0.1h-0.5c-0.8,0-1.6,0.1-2.3,0.2c-1.6,0.2-3.2,0.7-4.6,1.3c-1.8,0.7-3.6,1.8-5,3.1
		c-1.6,1.4-3,3-4.1,4.9c-1.1,1.9-1.9,4-2.3,6.2c-0.3,1.8-0.4,3.6-0.2,5.3c0.1,1.2,0.4,2.3,0.7,3.5c0.2,0.7,0.5,1.4,0.8,2.2
		c0.4,1,0.8,1.9,1.3,2.9c1.5,3,3.3,5.9,5.6,8.5c1.4,1.6,3,3.1,4.8,4.5c2,1.5,4.1,2.7,6.4,3.7c1.4,0.6,2.9,1.1,4.3,1.4l0.9,0.2
		c0.4,0.1,0.7,0.2,1.1,0.2c0.4,0,0.8,0.1,1.1,0.1c2.1,0,4.2-0.9,5.7-2.4c0.2-0.2,0.5-0.5,0.7-0.7c0.2-0.2,0.3-0.4,0.5-0.6
		c0.3-0.5,0.7-0.9,0.9-1.4C49.8,95.9,51.2,92.2,51.9,88.5z M51.9,103.5c0.7-1.5,0.7-2.9,0-3.3c-0.7-0.4-1.8,0.6-2.5,2.1
		c-0.7,1.5-0.7,2.9,0,3.2C50,105.9,51.2,105,51.9,103.5z"/>
	<path d="M99.1,77.4c0.1,2.2,0,4.4-0.2,6.6c-0.3,3.6-0.9,7.1-1.9,10.6c-0.9,3.3-2.1,6.6-3.5,9.7c-2.5,5.6-5.8,10.9-9.5,15.8
		c-3.4,4.5-7.2,8.6-11.2,12.4c-3.6,3.4-7.4,6.6-11.4,9.6c-2,1.4-3.9,2.8-5.9,4.1c-0.4,0.3-0.8,0.5-1.2,0.8c-0.2,0.1-0.3,0.2-0.5,0.3
		c-0.2,0.1-0.3,0.1-0.5,0.1c-0.2,0-0.5,0-0.7-0.1l-0.2-0.1c-0.3-0.2-0.5-0.3-0.8-0.5c-2.3-1.4-4.5-3-6.7-4.6
		c-2.3-1.7-4.6-3.6-6.8-5.4c-2-1.7-4-3.6-5.9-5.4c-1.4-1.4-2.9-2.9-4.2-4.4c-1-1.1-2-2.2-2.9-3.3c-6.5-7.8-12-16.7-15.1-26.4
		C9.5,95.6,9,94,8.6,92.3C7.9,89,7.3,85.5,7.2,82.1c-0.1-2.3-0.1-4.5,0.1-6.7c0.2-3,0.8-5.9,1.6-8.8c1.2-4.1,2.9-8.1,5.2-11.7
		c2.9-4.6,6.6-8.7,10.9-12c3.9-3.1,8.4-5.5,13.2-7.2c3.2-1.1,6.6-1.9,10-2.2c1.8-0.2,3.5-0.3,5.3-0.3c1.9,0,3.7,0.2,5.6,0.4
		c3.5,0.4,6.9,1.3,10.2,2.5c6.3,2.3,12,6.1,16.7,10.8c4.7,4.7,8.3,10.5,10.6,16.8C98,68,98.9,72.6,99.1,77.4z M95.9,81.8
		c0.1-2.1,0.1-4.2-0.1-6.3c-0.2-2.6-0.7-5.2-1.3-7.7c-1.1-3.9-2.7-7.7-4.8-11.2c-2.6-4.2-5.9-7.9-9.7-10.9
		c-3.6-2.9-7.6-5.2-11.9-6.8c-3-1.1-6.1-1.9-9.3-2.3c-1.6-0.2-3.2-0.4-4.9-0.4h-1.1c-1.6,0-3.3,0.1-4.9,0.3
		c-3.2,0.4-6.3,1.1-9.3,2.2c-4.4,1.6-8.5,3.9-12.2,6.8c-3.9,3.2-7.3,7-10,11.3c-2.1,3.4-3.7,7.1-4.7,11c-0.7,2.5-1.1,5-1.3,7.7
		c-0.2,2.1-0.2,4.2-0.1,6.3c0.2,3.6,0.7,7.1,1.6,10.5c0.4,1.4,0.7,2.8,1.2,4.1c3,9.1,8,17.3,14.1,24.6c1,1.2,2,2.3,3,3.5
		c1.3,1.4,2.7,2.9,4.1,4.3c1.8,1.8,3.8,3.6,5.7,5.3c2,1.7,4.1,3.4,6.3,5c2.1,1.6,4.3,3.1,6.5,4.5l0.2,0.2c2.1-1.3,4.1-2.7,6-4.1
		c2.4-1.8,4.7-3.6,7-5.6c2-1.7,3.9-3.4,5.7-5.3c1.4-1.4,2.8-2.8,4.1-4.3c1.1-1.1,2.1-2.3,3-3.5c6.1-7.3,11.1-15.6,14.1-24.6
		c0.4-1.4,0.9-2.8,1.2-4.1C95.2,89,95.7,85.4,95.9,81.8z"/>
	<path d="M93.1,71.9c0.3,1.8,0.4,3.6,0.2,5.3c-0.1,1.2-0.4,2.3-0.7,3.5c-0.2,0.7-0.5,1.4-0.8,2.1c-0.4,1-0.8,1.9-1.3,2.9
		c-1.5,3-3.3,5.9-5.6,8.5c-1.4,1.6-3,3.1-4.8,4.5c-2,1.5-4.1,2.7-6.4,3.7c-1.4,0.6-2.9,1.1-4.3,1.4l-0.9,0.2
		c-0.4,0.1-0.7,0.2-1.1,0.2c-0.4,0-0.7,0.1-1.1,0.1c-2.1,0-4.2-0.9-5.7-2.4c-0.2-0.2-0.5-0.5-0.7-0.7c-0.2-0.2-0.3-0.4-0.5-0.6
		c-0.3-0.5-0.6-0.9-0.9-1.4c-2.1-3.2-3.5-6.9-4.2-10.7c-0.5-2.8-0.6-5.6-0.4-8.4c0.2-2.4,0.6-4.8,1.3-7.2c0.3-1.1,0.7-2.2,1.1-3.3
		c0.2-0.6,0.4-1.2,0.7-1.8c0.3-0.7,0.6-1.3,1-2c1.1-1.8,2.4-3.5,4-4.8c2-1.8,4.4-3.1,6.9-3.9c1.2-0.4,2.3-0.6,3.6-0.7
		c0.6-0.1,1.2-0.1,1.8-0.1h0.5c0.8,0,1.6,0.1,2.3,0.2c1.6,0.2,3.1,0.7,4.6,1.3c1.8,0.7,3.6,1.8,5,3.1c1.6,1.4,3,3,4.1,4.9
		C91.9,67.6,92.7,69.7,93.1,71.9L93.1,71.9z M90.1,77c0.2-1.5,0.1-3-0.1-4.4c-0.6-3.4-2.3-6.7-4.9-9.1c-1.2-1.1-2.6-2-4.1-2.7
		c-1.3-0.6-2.7-1-4-1.3c-0.6-0.1-1.3-0.2-2-0.2h-0.8c-0.5,0-0.9,0-1.3,0.1c-1,0.1-2,0.3-3,0.6c-2.3,0.7-4.3,1.8-6.1,3.4
		c-1.3,1.1-2.3,2.5-3.2,3.9c-0.3,0.5-0.6,1.1-0.8,1.6c-0.2,0.5-0.4,1.1-0.6,1.6c-0.3,0.9-0.6,1.8-0.9,2.7c-0.6,2.1-1,4.4-1.3,6.6
		c-0.2,2.5-0.2,5,0.3,7.4c0.6,3.6,1.9,7,3.8,10c0.3,0.4,0.5,0.8,0.8,1.2c0.2,0.3,0.5,0.6,0.7,0.9c1,1,2.3,1.5,3.6,1.6
		c0.3,0,0.5,0,0.8,0l0.7-0.1c0.4-0.1,0.8-0.2,1.1-0.3c1.8-0.5,3.5-1.1,5.2-2c1.7-0.9,3.4-1.9,4.8-3.1c1.4-1.1,2.6-2.3,3.7-3.6
		c1.9-2.2,3.5-4.7,4.8-7.3c0.4-0.9,0.8-1.7,1.2-2.6c0.3-0.7,0.5-1.3,0.7-2C89.8,79,90,78.1,90.1,77z"/>
	<path d="M57,102.3c0.7,1.5,0.7,2.9,0,3.2c-0.7,0.4-1.8-0.6-2.5-2.1c-0.7-1.5-0.7-2.9,0-3.3C55.1,99.9,56.2,100.8,57,102.3z"/>
	<path d="M52.3,80c0.2,2.8,0.1,5.6-0.4,8.4c-0.7,3.8-2.1,7.4-4.2,10.7c-0.3,0.5-0.6,0.9-0.9,1.4c-0.2,0.2-0.3,0.4-0.5,0.6
		c-0.2,0.3-0.4,0.5-0.7,0.7c-1.5,1.5-3.6,2.3-5.7,2.4c-0.4,0-0.8,0-1.1-0.1c-0.4,0-0.7-0.1-1.1-0.2l-0.9-0.2
		c-1.5-0.4-2.9-0.9-4.3-1.4c-2.3-0.9-4.4-2.2-6.4-3.7c-1.7-1.3-3.3-2.8-4.8-4.5c-2.2-2.6-4.1-5.5-5.6-8.5c-0.5-0.9-0.9-1.9-1.3-2.9
		c-0.3-0.7-0.5-1.4-0.8-2.2c-0.4-1.1-0.6-2.3-0.7-3.5c-0.2-1.8-0.1-3.6,0.2-5.3c0.4-2.2,1.2-4.3,2.3-6.2c1.1-1.9,2.5-3.5,4.1-4.9
		c1.5-1.3,3.2-2.3,5-3.1c1.5-0.6,3-1.1,4.6-1.3c0.8-0.1,1.6-0.2,2.3-0.2h0.5c0.6,0,1.3,0,1.8,0.1c1.2,0.1,2.4,0.4,3.6,0.7
		c2.5,0.8,4.9,2.1,6.9,3.9c1.6,1.4,2.9,3,4,4.8c0.4,0.6,0.7,1.3,1,2c0.3,0.6,0.5,1.2,0.7,1.8c0.4,1.1,0.7,2.2,1.1,3.3
		C51.7,75.2,52.1,77.6,52.3,80L52.3,80z M48.9,87.6c0.4-2.5,0.5-5.1,0.3-7.7c-0.2-2.2-0.6-4.5-1.3-6.6c-0.3-0.9-0.5-1.8-0.9-2.7
		c-0.2-0.5-0.4-1.1-0.6-1.6c-0.2-0.5-0.5-1.1-0.8-1.6c-0.9-1.5-1.9-2.8-3.2-3.9c-1.7-1.5-3.8-2.7-5.9-3.4c-1-0.3-2-0.5-3-0.6
		c-0.4,0-0.9-0.1-1.3-0.1h-0.6c-0.7,0-1.3,0.1-2,0.2c-1.4,0.2-2.7,0.6-4.1,1.1c-1.5,0.7-2.9,1.5-4.2,2.6c-1.3,1.2-2.5,2.6-3.4,4.1
		c-0.9,1.6-1.6,3.5-1.9,5.4c-0.2,1.4-0.2,3-0.1,4.4c0.1,0.9,0.3,1.8,0.6,2.7c0.2,0.7,0.5,1.4,0.7,2c0.4,0.9,0.8,1.8,1.2,2.6
		c1.4,2.8,3,5.4,5.1,7.7c1.3,1.4,2.6,2.7,4.1,3.8c1.7,1.3,3.6,2.4,5.5,3.2c1.3,0.5,2.7,1,4.1,1.4c0.3,0.1,0.5,0.1,0.9,0.2
		c0.2,0,0.5,0.1,0.7,0.1c0.2,0,0.5,0,0.7,0c1.4,0,2.8-0.5,3.8-1.6c0.3-0.3,0.5-0.6,0.7-0.9c0.2-0.3,0.5-0.6,0.7-1
		C46.9,94.6,48.2,91.2,48.9,87.6z"/>
	<path d="M51.9,100.3c0.7,0.4,0.7,1.8,0,3.3c-0.7,1.5-1.8,2.4-2.5,2.1c-0.7-0.4-0.7-1.8,0-3.2C50,100.8,51.2,99.9,51.9,100.3z"/>
	<path class="st5" d="M73.3,108.6l3.7-6.4l3.7,6.4c1.6,2.9-0.4,6.4-3.7,6.4h0C73.6,114.9,71.6,111.4,73.3,108.6z"/>
</g>
</svg>
