<?xml version="1.0" encoding="utf-8"?>
<!-- Generator: Adobe Illustrator 21.0.0, SVG Export Plug-In . SVG Version: 6.00 Build 0)  -->
<svg version="1.1" id="Calque_1" xmlns="http://www.w3.org/2000/svg" xmlns:xlink="http://www.w3.org/1999/xlink" x="0px" y="0px"
	 viewBox="0 0 105.9 183.4" style="enable-background:new 0 0 105.9 183.4;" xml:space="preserve">
<style type="text/css">
	.st0{fill:#17C105;}
	.st1{fill:none;stroke:#000000;stroke-width:0.4886;stroke-miterlimit:10;}
	.st2{fill:#FFFFFF;}
</style>
<g>
	<path class="st0" d="M105.8,107.8v71.8c0,2.1-1.7,3.8-3.8,3.8H3.8c-2.1,0-3.8-1.7-3.8-3.8V3.8C0,1.7,1.7,0,3.8,0H102
		c2.1,0,3.8,1.7,3.8,3.8v71.1c0,1-0.5,1.8-1.4,2.3l-1.1,0.6c-0.9,0.4-1.4,1.3-1.4,2.3v23.8c0,1.1,0.7,2.1,1.8,2.4l1.4,0.4
		C105.5,106.8,105.8,107.3,105.8,107.8L105.8,107.8z"/>
	<path class="st1" d="M105.8,107.8v71.8c0,2.1-1.7,3.8-3.8,3.8H3.8c-2.1,0-3.8-1.7-3.8-3.8V3.8C0,1.7,1.7,0,3.8,0H102
		c2.1,0,3.8,1.7,3.8,3.8v71.1c0,1-0.5,1.8-1.4,2.3l-1.1,0.6c-0.9,0.4-1.4,1.3-1.4,2.3v23.8c0,1.1,0.7,2.1,1.8,2.4l1.4,0.4
		C105.5,106.8,105.8,107.3,105.8,107.8L105.8,107.8z"/>
	<path class="st2" d="M36,121.8c1.6-7.7,5.7-14,10.8-19.8c5.4-6.2,10.9-12.3,16.1-18.6c1.7-2,3-1.6,5-0.5c-2.7,2.9-5.1,5.9-7.7,8.5
		c-4.3,4.3-9,8.4-13.3,12.7C41.9,109.1,38.6,115.3,36,121.8z"/>
	<path class="st2" d="M79,64.1c3.7,3.4,6.8,7.1,8.3,12.2C80.1,76.3,74.8,69.5,79,64.1z"/>
	<path class="st2" d="M76.3,42.5l-2.8,3.9c-1.1-0.8-1.3-2.3-0.5-3.3C73.8,42,75.2,41.8,76.3,42.5z"/>
	<path class="st2" d="M84.2,38.9c1.6-1.7,3.2-3.4,4.8-5c-7.2,10.1-9.2,22.3-13,33.7c-2-1.1-2.1-2.2-1.3-4.2
		c2.7-7.2,5.2-14.6,7.8-21.9C82.9,40.6,83.5,39.6,84.2,38.9z"/>
	<path d="M80.2,63.5c2.3,3.2,4.8,6.2,7,9.4c0.9,1.4,1.1,3.3,1.9,5.6c-2.9-0.8-5-1.4-7.2-2c1.5,7.3,1.3,12.3-0.7,16
		c-3.4-4-7.3-7.2-11.4-8.9c-6.1,6.1-11.8,12.2-17.9,17.7c-8.2,7.3-13.4,16.4-16.2,26.9c-0.2,0.8,0.1,1.9,0.5,2.7
		c1.1,2.3,2.6,4.3,3.6,6.7c1,2.3,1.9,4.9,1.1,7.5c-0.3,0-0.5,0.1-0.6,0c-0.5-0.1-0.9-0.3-1.3-0.4c-3.5-1.3-6.8-1.1-9.7,1.4
		c-1.4,1.2-2.7,2.5-4,3.8c-0.9,0.8-1.7,1.6-3,2.9c-0.3-1.9-0.5-3.1-0.6-4.3c-0.1-4.4,1.5-8.2,3.4-12.1c0.5-1,0.6-2.3,0.4-3.4
		c-0.4-2.6-1-5.1-1.4-7.7c-1.8-11.1,0.4-21.7,4.3-32.1c1.5-3.9,3.2-7.9,4.9-12.2c-4.6,0-8.8,0-13.3,0.1c0.3-0.7,0.3-0.9,0.5-1.1
		c0.2-0.3,0.5-0.6,0.7-0.9C26.3,72.8,33.1,68.6,41,66c0.9-0.3,1.7-0.9,2.3-1.6c5.2-5.7,10.3-11.6,15.6-17.3
		c4.5-4.9,9.9-8.9,16.5-10.6c3.1-0.8,5.6-2.3,7.9-4.4c0.6-0.6,1.3-1.1,2-1.5c1.5-1,3.3-2.4,5-1.1c1.9,1.4,0.9,3.6,0,5.3
		c-1.2,2.5-3,4.7-4,7.2c-2.5,6.4-4.6,12.9-6.8,19.3C79.3,62,79.8,62.9,80.2,63.5z M87.3,76.3c-1.5-5-4.7-8.7-8.3-12.2
		C74.8,69.5,80.1,76.3,87.3,76.3z M89.1,33.9c-1.6,1.6-3.3,3.3-4.8,5c-0.7,0.8-1.3,1.7-1.7,2.7c-2.7,7.3-5.1,14.7-7.8,21.9
		c-0.7,2-0.6,3.1,1.3,4.2C79.9,56.1,81.9,44,89.1,33.9z M73.6,46.4l2.8-3.9c-1.1-0.8-2.6-0.5-3.3,0.6C72.2,44.2,72.5,45.7,73.6,46.4
		z M67.9,82.9c-2.1-1.1-3.4-1.5-5,0.5c-5.2,6.3-10.7,12.4-16.1,18.6c-5,5.8-9.2,12.1-10.8,19.8c2.7-6.5,6-12.6,10.9-17.7
		c4.3-4.4,8.9-8.4,13.3-12.7C62.8,88.7,65.2,85.8,67.9,82.9L67.9,82.9z"/>
</g>
</svg>
