<?xml version="1.0" encoding="utf-8"?>
<!-- Generator: Adobe Illustrator 21.0.0, SVG Export Plug-In . SVG Version: 6.00 Build 0)  -->
<svg version="1.1" id="Calque_1" xmlns="http://www.w3.org/2000/svg" xmlns:xlink="http://www.w3.org/1999/xlink" x="0px" y="0px"
	 viewBox="0 0 105.9 183.4" style="enable-background:new 0 0 105.9 183.4;" xml:space="preserve">
<style type="text/css">
	.st0{fill:#057BE5;}
	.st1{fill:none;stroke:#000000;stroke-width:0.4886;stroke-miterlimit:10;}
	.st2{fill:#727272;}
	.st3{fill:#D6D4D4;}
	.st4{fill:#FF0000;}
	.st5{fill:#FC2B2B;}
	.st6{fill:#F43737;}
	.st7{fill:#918006;}
	.st8{fill:#020000;}
</style>
<g>
	<path class="st0" d="M105.8,107.8v71.8c0,2.1-1.7,3.8-3.8,3.8H3.8c-2.1,0-3.8-1.7-3.8-3.8V3.8C0,1.7,1.7,0,3.8,0H102
		c2.1,0,3.8,1.7,3.8,3.8v71.1c0,1-0.5,1.8-1.4,2.3l-1.1,0.6c-0.9,0.4-1.4,1.3-1.4,2.3v23.8c0,1.1,0.7,2.1,1.8,2.4l1.4,0.4
		C105.5,106.8,105.8,107.3,105.8,107.8z"/>
	<path class="st1" d="M105.8,107.8v71.8c0,2.1-1.7,3.8-3.8,3.8H3.8c-2.1,0-3.8-1.7-3.8-3.8V3.8C0,1.7,1.7,0,3.8,0H102
		c2.1,0,3.8,1.7,3.8,3.8v71.1c0,1-0.5,1.8-1.4,2.3l-1.1,0.6c-0.9,0.4-1.4,1.3-1.4,2.3v23.8c0,1.1,0.7,2.1,1.8,2.4l1.4,0.4
		C105.5,106.8,105.8,107.3,105.8,107.8z"/>
	<path d="M91.9,165.1c0.8,1.1-0.4,2.8-1.7,2.2c-3.4-1.6-6.7-3.7-9.9-5.9c-5-3.4-7.9-9.2-11.1-14.3c-6.7-10.7-12.7-21.9-18.4-33.3
		c-6-12.1-10.3-21.1-15-33l-0.1,0c-0.7,0.3-1.6,0-1.8-0.7c-0.6-1.4-1.2-2.8-1.8-4.2c-1.2,0.5-2.4,1-3.6,1.5
		c-0.7,0.3-1.6-0.1-1.9-0.8L25.2,73c-0.3-0.7,0.1-1.6,0.8-1.9c1.6-0.7,3.3-1.4,4.9-2.1c-4.2-9.9-8.4-19.7-12.5-29.6
		c-0.6,0-1.1-0.4-1.4-0.9c-1-2-2-3.9-3-5.9c-0.4-0.7,0.1-1.6,0.8-1.9c2.9-1.2,5.7-2.4,8.6-3.6c0.3-0.1,0.5-0.1,0.8-0.1
		c0.5,0,0.9,0.3,1.1,0.9c0.7,2.1,1.4,4.2,2.1,6.3c0.2,0.5,0.1,1.2-0.3,1.6c4.2,9.9,8.4,19.7,12.5,29.6c1.6-0.7,3.3-1.4,4.9-2.1
		c0.5-0.2,0.9-0.2,1.2,0c0.3,0.1,0.5,0.4,0.7,0.7c0.5,1.3,1.1,2.5,1.6,3.7c0.3,0.7-0.1,1.6-0.8,1.9c-1.4,0.6-2.7,1.2-4.1,1.8
		c0.6,1.4,1.2,2.8,1.8,4.2c0.2,0.5,0,1.2-0.5,1.6c5.6,14.1,11.6,26.3,18.8,40.2C71.4,133.9,80.8,150.2,91.9,165.1L91.9,165.1z
		 M80.7,158.1c1.6,1.3,3.4,2.5,5.2,3.6c-9.3-13.1-17.4-27.4-24.7-41.6c-7.9-15.2-13.6-26.3-19.5-41.8c-1.1,0.5-2.3,0.9-3.4,1.4
		c4.5,11.1,7.9,17.9,13.4,29.2c5.6,11.5,11.6,22.9,18.3,33.9C73,147.8,76.1,154.4,80.7,158.1z M44.6,67.6c-0.2-0.4-0.3-0.7-0.5-1.1
		c-5.3,2.2-10.6,4.5-15.9,6.7l0.5,1.1c1.2-0.5,2.4-1,3.6-1.5c2.7-1.1,5.4-2.3,8.2-3.4C41.9,68.7,43.2,68.2,44.6,67.6L44.6,67.6z
		 M41.4,75.2c-0.4-0.9-0.7-1.8-1.1-2.7l-5.5,2.3c0.4,1,0.8,2,1.3,2.9c1.3-0.5,2.6-1.1,3.9-1.6C40.3,75.8,40.8,75.5,41.4,75.2z
		 M40.7,75.8L40.7,75.8c-0.2,0-0.4,0.2-0.6,0.2C40.3,75.9,40.5,75.9,40.7,75.8L40.7,75.8z M36.1,66c-0.7-0.6-1.5-1.2-2.3-1.8
		c-0.1,0.9-0.2,1.9-0.3,2.9C34.4,66.8,35.2,66.4,36.1,66z M35.2,62.6c-0.3-0.7-0.6-1.4-0.9-2.2c0,0.5-0.1,0.9-0.2,1.4
		C34.5,62.1,34.8,62.4,35.2,62.6z M32.6,56.5c-0.2-0.4-0.4-0.8-0.5-1.2c-1-0.7-2-1.4-3-2.1c-0.2,1.1-0.4,2.3-0.5,3.4
		c0.2,0.5,0.5,1.1,0.7,1.6c0.9,0.7,1.9,1.5,2.9,2.2C32.2,59,32.4,57.7,32.6,56.5L32.6,56.5z M31.7,63.9c0-0.4,0.1-0.7,0.1-1.1
		c-0.3-0.2-0.6-0.5-0.9-0.7C31.2,62.7,31.5,63.3,31.7,63.9z M30.4,51.5c-0.3-0.7-0.5-1.3-0.8-2c-0.1,0.4-0.1,0.8-0.2,1.2
		C29.8,51,30.1,51.2,30.4,51.5z M28,45.7c0-0.1-0.1-0.2-0.1-0.3l-3-2.3c-0.2,1.2-0.3,2.4-0.4,3.6c0.1,0.2,0.2,0.4,0.3,0.7
		c0.9,0.7,1.8,1.3,2.8,2C27.7,48.1,27.8,46.9,28,45.7L28,45.7z M27,52.7c0-0.4,0.1-0.7,0.2-1l-0.8-0.6C26.5,51.7,26.7,52.2,27,52.7z
		 M26.2,41.5c-0.3-0.7-0.6-1.4-0.9-2.2c0,0.5-0.1,0.9-0.2,1.4C25.5,40.9,25.8,41.2,26.2,41.5z M23.9,33.3c-0.3-1-0.7-1.9-1-2.9
		c-1.9,0.8-3.9,1.6-5.8,2.5c0.5,0.9,0.9,1.8,1.4,2.7C20.3,34.8,22.1,34,23.9,33.3z M23.1,39.1c0.1-0.5,0.1-1.1,0.2-1.7
		c-0.5,0.2-1,0.4-1.5,0.7C22.2,38.4,22.7,38.8,23.1,39.1L23.1,39.1z M22.7,42.7c0-0.4,0.1-0.7,0.1-1.1c-0.3-0.2-0.6-0.5-0.9-0.7
		C22.2,41.5,22.5,42.1,22.7,42.7z"/>
	<path class="st2" d="M86,161.8c-1.9-1.1-3.7-2.3-5.2-3.6c-4.5-3.8-7.7-10.3-10.7-15.3c-6.7-10.9-12.7-22.3-18.3-33.9
		c-5.5-11.3-8.9-18.1-13.4-29.2c1.1-0.5,2.2-0.9,3.4-1.4c6,15.6,11.6,26.5,19.5,41.8C68.6,134.5,76.7,148.6,86,161.8z"/>
	<path class="st3" d="M44.2,66.5c0.2,0.4,0.3,0.7,0.5,1.1c-1.4,0.6-2.7,1.2-4.1,1.8c-2.7,1.2-5.4,2.3-8.2,3.4
		c-1.2,0.5-2.4,1-3.6,1.5l-0.5-1.1C33.6,70.9,38.9,68.7,44.2,66.5L44.2,66.5z"/>
	<path class="st3" d="M40.3,72.5c0.4,0.9,0.7,1.8,1.1,2.7c-0.5,0.3-1.1,0.6-1.5,0.9c-1.3,0.5-2.6,1.1-3.9,1.6c-0.4-1-0.8-2-1.3-2.9
		C36.6,74.1,38.4,73.3,40.3,72.5z"/>
	<path class="st4" d="M33.8,64.3c0.7,0.6,1.5,1.2,2.3,1.8c-0.9,0.4-1.7,0.7-2.6,1.1C33.6,66.2,33.7,65.3,33.8,64.3L33.8,64.3z"/>
	<path class="st5" d="M34.2,60.5c0.3,0.7,0.6,1.4,0.9,2.2c-0.4-0.3-0.7-0.5-1.1-0.8C34.2,61.4,34.2,60.9,34.2,60.5z"/>
	<path class="st4" d="M32.1,55.3c0.2,0.4,0.4,0.8,0.5,1.2c-0.2,1.3-0.3,2.5-0.4,3.8c-0.9-0.7-1.9-1.5-2.9-2.2
		c-0.2-0.5-0.5-1.1-0.7-1.6c0.2-1.1,0.4-2.3,0.5-3.4C30.1,53.8,31.1,54.5,32.1,55.3z"/>
	<path class="st5" d="M31.8,62.8c0,0.4-0.1,0.7-0.1,1.1c-0.3-0.6-0.5-1.2-0.7-1.8C31.2,62.3,31.5,62.6,31.8,62.8L31.8,62.8z"/>
	<path class="st6" d="M29.6,49.5c0.3,0.7,0.5,1.3,0.8,2c-0.4-0.2-0.7-0.5-1-0.7C29.5,50.3,29.6,49.9,29.6,49.5z"/>
	<path class="st4" d="M27.9,45.4c0,0.1,0.1,0.2,0.1,0.3c-0.2,1.2-0.4,2.4-0.5,3.6c-0.9-0.7-1.8-1.3-2.8-2c-0.1-0.2-0.2-0.4-0.3-0.7
		c0.2-1.2,0.3-2.4,0.4-3.6C25.9,43.9,26.9,44.7,27.9,45.4L27.9,45.4z"/>
	<path class="st6" d="M27.1,51.7c0,0.4-0.1,0.7-0.2,1c-0.2-0.5-0.4-1.1-0.7-1.6L27.1,51.7z"/>
	<path class="st5" d="M25.3,39.3c0.3,0.7,0.6,1.4,0.9,2.2c-0.4-0.3-0.7-0.5-1.1-0.8C25.2,40.2,25.3,39.7,25.3,39.3z"/>
	<path class="st7" d="M22.9,30.4c0.3,0.9,0.7,1.9,1,2.9c-1.8,0.7-3.6,1.5-5.4,2.3c-0.5-0.9-0.9-1.8-1.4-2.7
		C19.1,32,21,31.2,22.9,30.4z"/>
	<path class="st4" d="M23.3,37.4c-0.1,0.5-0.1,1.1-0.2,1.7c-0.5-0.4-0.9-0.7-1.3-1C22.3,37.8,22.8,37.6,23.3,37.4L23.3,37.4z"/>
	<path class="st5" d="M22.9,41.6c0,0.4-0.1,0.7-0.1,1.1c-0.3-0.6-0.5-1.2-0.7-1.8C22.3,41.1,22.6,41.3,22.9,41.6z"/>
	<path class="st8" d="M66.3,10.4c-0.3,1.2,0.1,2.5,1,3.4l-3.9,0.6l-1.7,11.9l9-8l-1.6-3.6c1.2,0.3,2.4-0.1,3.4-1l0.7,3.9l11.9,1.7
		l-8-9l-3.6,1.6c0.3-1.2-0.1-2.5-1-3.4l3.9-0.7L77.5,0h-3.9l-4.4,3.9l1.6,3.6c-1.2-0.3-2.5,0.1-3.4,1l-0.7-3.9L54.7,3l8,9L66.3,10.4
		z M68.3,10.3c0.5-0.9,1.6-1.2,2.4-0.7c0.9,0.5,1.2,1.6,0.7,2.4c-0.5,0.9-1.5,1.2-2.4,0.7C68.1,12.3,67.8,11.2,68.3,10.3z"/>
	<path class="st8" d="M9.7,123.2l-3.2-2.3L0,125.7v2.6l8.8,0.5l1.5-3.7c0.6,1.1,1.8,1.7,3.1,1.7L11,130l7.2,9.6l0.7-12l-3.7-1.5
		c1.1-0.6,1.7-1.8,1.7-3.1l3.2,2.3l9.6-7.2l-12-0.7l-1.5,3.7c-0.6-1.1-1.8-1.7-3.1-1.7l2.3-3.2l-7.2-9.6l-0.7,12l3.7,1.5
		C10.3,120.7,9.6,122,9.7,123.2L9.7,123.2z M12.8,121.5c1-0.3,2,0.3,2.2,1.2c0.3,1-0.2,1.9-1.2,2.2c-1,0.3-2-0.3-2.2-1.2
		C11.3,122.7,11.9,121.8,12.8,121.5z"/>
	<path class="st8" d="M101.9,103.8v-6L99,98.5c0.5-1.1,0.3-2.5-0.4-3.5l3.3,0v-8.7l-5.8,3.7l0.9,3.9c-1.1-0.5-2.5-0.3-3.5,0.4l0-3.9
		l-11.4-3.6l6.4,10.2l3.9-0.9c-0.5,1.1-0.3,2.5,0.4,3.5h-4l-3.6,11.4l10.2-6.4l-0.9-3.9c1.1,0.5,2.4,0.3,3.5-0.4l0,4l4.8,1.5
		C102.2,105.1,101.9,104.5,101.9,103.8z M97.1,98.3c-0.6,0.8-1.7,0.9-2.5,0.3c-0.8-0.6-0.9-1.8-0.3-2.5c0.6-0.8,1.8-0.9,2.5-0.3
		C97.6,96.4,97.6,97.6,97.1,98.3z"/>
</g>
</svg>
