<?xml version="1.0" encoding="utf-8"?>
<!-- Generator: Adobe Illustrator 21.0.0, SVG Export Plug-In . SVG Version: 6.00 Build 0)  -->
<svg version="1.1" id="Calque_1" xmlns="http://www.w3.org/2000/svg" xmlns:xlink="http://www.w3.org/1999/xlink" x="0px" y="0px"
	 viewBox="0 0 105.9 183.4" style="enable-background:new 0 0 105.9 183.4;" xml:space="preserve">
<style type="text/css">
	.st0{fill:#031356;}
	.st1{fill:none;stroke:#000000;stroke-width:0.4886;stroke-miterlimit:10;}
	.st2{fill:#383838;}
	.st3{fill:#B79800;}
	.st4{fill:#3F2701;}
	.st5{fill:#1F6801;}
</style>
<g>
	<path class="st0" d="M105.8,107.8v71.8c0,2.1-1.7,3.8-3.8,3.8H3.8c-2.1,0-3.8-1.7-3.8-3.8V3.8C0,1.7,1.7,0,3.8,0H102
		c2.1,0,3.8,1.7,3.8,3.8v71.1c0,1-0.5,1.8-1.4,2.3l-1.1,0.6c-0.9,0.4-1.4,1.3-1.4,2.3v23.8c0,1.1,0.7,2.1,1.8,2.4l1.4,0.4
		C105.5,106.8,105.8,107.3,105.8,107.8z"/>
	<path class="st1" d="M105.8,107.8v71.8c0,2.1-1.7,3.8-3.8,3.8H3.8c-2.1,0-3.8-1.7-3.8-3.8V3.8C0,1.7,1.7,0,3.8,0H102
		c2.1,0,3.8,1.7,3.8,3.8v71.1c0,1-0.5,1.8-1.4,2.3l-1.1,0.6c-0.9,0.4-1.4,1.3-1.4,2.3v23.8c0,1.1,0.7,2.1,1.8,2.4l1.4,0.4
		C105.5,106.8,105.8,107.3,105.8,107.8z"/>
	<path class="st2" d="M93,53.8c8.8,7.3,10.2,20.2,3.6,29.3v0l-0.9,1.1l-18.7,22.3l10.7,8.9l-4.8,5.7l-0.2-0.1L44.2,88.8l-1.8-1.5
		l-0.2-1.8l-1.8-3.9l-4,0.8L28,75.3l4.8-5.7l11,9.2l18.7-22.4c4.1-4.9,10.2-7.7,16.5-7.7C84.2,48.7,89.2,50.5,93,53.8L93,53.8z
		 M92.3,81.3c6-7.2,5-18-2.2-24c-3.1-2.6-7-4-11-4c-5,0-9.8,2.2-13.1,6.1L48.3,80.6l26.2,22L92.3,81.3z"/>
	<polygon class="st3" points="82.1,63.2 85.5,66.1 81.6,70.7 86.6,74.9 83.7,78.4 78.7,74.2 67.7,87.3 64.3,84.4 75.2,71.3 
		70.4,67.2 73.3,63.8 78.1,67.9 	"/>
	<polygon class="st4" points="37.8,124 54.7,123.5 53.9,121.1 82.8,121.1 82.8,124.3 37.8,124.3 	"/>
	<polygon class="st4" points="48.2,121.1 53.9,121.1 54.7,123.5 37.8,124 37.2,121.1 	"/>
	<polygon class="st2" points="42.5,87.3 36.6,82.4 40.6,81.6 42.4,85.5 	"/>
	<polygon class="st4" points="22,121.1 30.1,121.1 37.2,121.1 37.8,124 37.8,124.3 22,124.3 	"/>
	<polygon class="st5" points="13.6,96.6 14.7,99.8 15.2,101.6 16.6,101.7 17.2,100.4 21,101.4 33.8,100.3 35.2,98.7 34.6,96.5 
		31.3,95.5 31.2,92.9 33.2,92.7 34.4,93.9 35.2,93.6 34.4,91.8 31.8,90.1 32.3,88.5 31.3,87.6 33.3,85.4 33.2,84.1 34.6,82.9 
		36.6,82.4 42.5,87.3 42.9,92 40,95 41.6,96.4 45.2,97.3 53.9,121.1 48.2,121.1 37.2,121.1 35.8,114.1 18.6,116.4 8,114.8 8,113.4 
		6.6,113.9 3.6,109.2 2.3,109.3 2,108 3.8,107.5 2.8,106.2 4,105.6 4.8,106.8 5.4,107.6 5.7,106.4 4.6,104.7 5.9,104.2 6.8,106.4 
		7,107.8 8.2,109.9 9.5,109.8 9.4,108.7 17.2,110.3 28.4,107.9 18.6,107.8 13.7,106.6 14.1,105.1 12.7,104.8 11.5,103.3 9.1,101.3 
		10.2,100.2 11.2,101.1 12.2,101.4 12,98.8 10.6,97.3 9.2,97.4 8.7,96 10.4,96.2 12.1,96.6 11.3,95.1 10.8,93.9 12.4,94.4 
		13.1,95.9 	"/>
</g>
</svg>
