<?xml version="1.0" encoding="utf-8"?>
<!-- Generator: Adobe Illustrator 21.0.0, SVG Export Plug-In . SVG Version: 6.00 Build 0)  -->
<svg version="1.1" id="Calque_1" xmlns="http://www.w3.org/2000/svg" xmlns:xlink="http://www.w3.org/1999/xlink" x="0px" y="0px"
	 viewBox="0 0 105.9 183.4" style="enable-background:new 0 0 105.9 183.4;" xml:space="preserve">
<style type="text/css">
	.st0{fill:#515050;}
	.st1{fill:none;stroke:#000000;stroke-width:0.4886;stroke-miterlimit:10;}
	.st2{fill:#B70000;}
	.st3{fill:#FFFFFF;}
</style>
<g>
	<path class="st0" d="M105.8,107.8v71.8c0,2.1-1.7,3.8-3.8,3.8H3.8c-2.1,0-3.8-1.7-3.8-3.8V3.8C0,1.7,1.7,0,3.8,0H102
		c2.1,0,3.8,1.7,3.8,3.8v71.1c0,1-0.5,1.8-1.4,2.3l-1.1,0.6c-0.9,0.4-1.4,1.3-1.4,2.3v23.8c0,1.1,0.7,2.1,1.8,2.4l1.4,0.4
		C105.5,106.8,105.8,107.3,105.8,107.8z"/>
	<path class="st1" d="M105.8,107.8v71.8c0,2.1-1.7,3.8-3.8,3.8H3.8c-2.1,0-3.8-1.7-3.8-3.8V3.8C0,1.7,1.7,0,3.8,0H102
		c2.1,0,3.8,1.7,3.8,3.8v71.1c0,1-0.5,1.8-1.4,2.3l-1.1,0.6c-0.9,0.4-1.4,1.3-1.4,2.3v23.8c0,1.1,0.7,2.1,1.8,2.4l1.4,0.4
		C105.5,106.8,105.8,107.3,105.8,107.8z"/>
	<path class="st2" d="M97.9,55.4c0,11.8-8.7,21.3-19.5,21.3c-10.7,0-19.5-9.5-19.5-21.3s9.4-25,19.5-36.1
		C88.5,30.5,97.9,43.6,97.9,55.4z M77.2,69.6c0.5-1,0.2-2.3-0.8-2.8c-4.3-2.3-7.6-8.2-7.1-12.3c0-0.2,0-0.3,0-0.5
		c-0.1-1.1-1.1-2-2.3-1.8c-1,0.1-1.7,0.9-1.8,1.8c-0.8,6.4,3.3,13.2,9.2,16.4C75.4,70.9,76.6,70.6,77.2,69.6z"/>
	<path class="st3" d="M76.3,66.8c1,0.5,1.4,1.8,0.8,2.8c-0.5,1-1.8,1.4-2.8,0.8c-5.9-3.2-9.9-10-9.2-16.4c0.1-1,0.9-1.7,1.8-1.8
		c1.1-0.1,2.1,0.7,2.3,1.8v0.5C68.8,58.6,72.1,64.4,76.3,66.8z"/>
	<path class="st2" d="M83.3,135.6c0,18.4-13.6,33.3-30.4,33.3c-16.8,0-30.4-14.9-30.4-33.3c0-18.4,14.6-39,30.4-56.3
		C68.7,96.6,83.3,117.2,83.3,135.6z M50.9,157.6c0.9-1.6,0.3-3.5-1.3-4.4c-6.6-3.6-11.8-12.8-11.1-19.2c0-0.2,0-0.5,0-0.7
		c-0.2-1.8-1.8-3-3.5-2.9c-1.5,0.2-2.7,1.4-2.9,2.9c-1.2,10,5.2,20.6,14.3,25.6C48.1,159.7,50.1,159.2,50.9,157.6z"/>
	<path class="st3" d="M49.7,153.2c1.6,0.9,2.1,2.8,1.3,4.4c-0.9,1.5-2.8,2.1-4.3,1.3c-9.1-5-15.5-15.6-14.3-25.6
		c0.2-1.5,1.4-2.7,2.9-2.9c1.8-0.2,3.3,1.1,3.5,2.9c0,0.2,0,0.5,0,0.7C37.9,140.5,43,149.6,49.7,153.2z"/>
	<path class="st2" d="M35.8,67.6c0,6.7-5,12.2-11.1,12.2c-6.1,0-11.1-5.4-11.1-12.2c0-6.7,5.4-14.3,11.1-20.6
		C30.4,53.3,35.8,60.9,35.8,67.6z M24,75.7c0.3-0.5,0.1-1.3-0.5-1.6c-2.4-1.3-4.3-4.7-4-7v-0.3c-0.1-0.6-0.6-1.1-1.3-1.1
		c-0.5,0-1,0.5-1.1,1.1c-0.4,3.6,1.9,7.5,5.2,9.3C22.9,76.4,23.6,76.2,24,75.7z"/>
	<path class="st3" d="M18.2,65.7c0.7-0.1,1.2,0.4,1.3,1.1v0.3c-0.3,2.3,1.6,5.7,4,7c0.6,0.3,0.8,1.1,0.5,1.6c-0.3,0.5-1,0.8-1.6,0.5
		c-3.3-1.8-5.7-5.7-5.2-9.3C17.2,66.2,17.6,65.8,18.2,65.7z"/>
</g>
</svg>
