<?xml version="1.0" encoding="utf-8"?>
<!-- Generator: Adobe Illustrator 21.0.0, SVG Export Plug-In . SVG Version: 6.00 Build 0)  -->
<svg version="1.1" id="Calque_1" xmlns="http://www.w3.org/2000/svg" xmlns:xlink="http://www.w3.org/1999/xlink" x="0px" y="0px"
	 viewBox="0 0 105.9 183.4" style="enable-background:new 0 0 105.9 183.4;" xml:space="preserve">
<style type="text/css">
	.st0{fill:#FFFFFF;}
	.st1{fill:none;stroke:#000000;stroke-width:0.4882;stroke-miterlimit:10;}
</style>
<g>
	<path class="st0" d="M105.8,107.7v71.8c0,2.1-1.7,3.8-3.8,3.8H3.9c-2.1,0-3.8-1.7-3.8-3.8V3.9C0,1.8,1.8,0,3.9,0H102
		c2.1,0,3.8,1.7,3.8,3.8v71c0,1-0.5,1.8-1.4,2.3l-1.1,0.6c-0.9,0.4-1.4,1.3-1.4,2.3v23.7c0,1.1,0.7,2.1,1.8,2.4l1.4,0.4
		C105.5,106.8,105.8,107.3,105.8,107.7z"/>
	<path class="st1" d="M105.8,107.7v71.8c0,2.1-1.7,3.8-3.8,3.8H3.9c-2.1,0-3.8-1.7-3.8-3.8V3.9C0,1.8,1.8,0,3.9,0H102
		c2.1,0,3.8,1.7,3.8,3.8v71c0,1-0.5,1.8-1.4,2.3l-1.1,0.6c-0.9,0.4-1.4,1.3-1.4,2.3v23.7c0,1.1,0.7,2.1,1.8,2.4l1.4,0.4
		C105.5,106.8,105.8,107.3,105.8,107.7z"/>
	<path d="M105.8,40.5v34.4c0,1-0.5,1.8-1.4,2.3l-1.1,0.6c-0.9,0.4-1.4,1.3-1.4,2.3v12c-6.8,22.7-16.3,47.5-20.1,63.3
		c-2,8.1-4.3,18.4-6.5,28h-4.1c0-4.6,0.9-10.3,1.6-17.3c1.3-12.7,3-12.6,8.6-34.2c5.4-21.8,12.9-53.1,22.5-85.2
		C104.4,44.5,105.1,42.5,105.8,40.5z"/>
	<path d="M105.8,3.9v1c-2,3.8-3.9,8-5.9,12.3c-12,27.4-12.4,37.4-17.1,60.2c-4.7,22.8-4.9,38.4-12.1,71.9c-3.1,14.4-2.9,25.7-1.6,34
		h-15c1.8-5.1,3.9-12.5,5.4-22.9c3.5-23.6,7.1-33.3,8.7-51.3c1.8-17.9-1.1-30.2,8.1-60c4.3-14.3,13.6-33,22.4-49h3.2
		C104.1,0,105.8,1.8,105.8,3.9z"/>
	<path d="M105.8,176.2v3.2c0,1.4-0.7,2.6-1.8,3.2C104.6,180.6,105.1,178.4,105.8,176.2z"/>
	<path d="M105.8,110v26c-2.8,7.1-5.5,15.1-8.2,24.8c-2.2,7.8-4.5,15.3-6.6,22.5H80.6c2.5-8.7,5.2-17.8,7.3-25.1
		C91.6,145.8,98.5,127.9,105.8,110z"/>
	<path d="M85.5,0h3.8C86.6,5.7,85.4,4.5,85.5,0z"/>
	<path d="M76.5,0h3.6c-3.2,12.1-8.6,29.4-17.7,46.8c-14.4,27.1-8,43.5-6,63.2c2.1,19.5-0.1,27.6-0.4,37.7c0,6.6-2.8,24.6-4.6,35.6
		h-5.3c0.2-0.7,0.3-1.3,0.4-1.7c0.7-2.3,0.9-6.3,1.2-20c0.2-13.7-3.9-52.9-4.5-65.2c-0.5-12.3-6.1-14.5-5.2-19.1
		c0.7-4.5,8.4-12.7,15.5-26.6C59.9,38.9,69.7,15.8,76.5,0z"/>
	<path d="M58.1,0h7.7C64.4,3.2,63,6.2,61.9,9c-7.7,18.5-19.2,44.3-32.6,56.6C23.1,71.2,11.8,81.2,0,92.8V82.3
		c14.8-15.4,29.8-30.7,37-38.3C45.2,35.5,52.5,16.6,58.1,0L58.1,0z"/>
	<path d="M45,172.1c0.3,4.5,0.2,8.2-0.1,11.2h-5c0.7-5.7-1.4-12.3-3-19.4c-1.6-8.1-5.9-14.7-9.1-21s-2.3-8.5-4.2-14.6
		c-1.9-6.1-6.3-3.3-7.7-1c-1.4,2.3,1.7,4.8,3.5,7.4c1.6,2.5,0.4,7-1,7.9c-1.8,1.3-7.5-3.5-18.4-0.8v-14.3c6-3.2,10.9-7,16.8-11.4
		c8.5-6.3,12.6-8.7,17.8,3.6C39.7,132.1,44.1,156.5,45,172.1z"/>
	<path d="M32.7,0h10.9c-4.9,13.4-12.6,32.3-20.7,43C18.4,49.2,9.7,58.6,0,69V58c7.3-8.2,13.4-16,16.8-22.5
		C23.7,22.1,28.6,10.7,32.7,0L32.7,0z"/>
	<path d="M39.1,183.3H28.6c-3.6-5.5-8.8-10.6-16.2-13.7c-3.5-1.4-7.8-2-12.4-2.1v-15.1c13.7-3.1,22.3-1.1,29.4,9.3
		C35.2,170.3,38.1,179.4,39.1,183.3z"/>
	<path d="M30.7,86.5c6.3-1.2,5.8,7.1,3.6,10C31.9,99.5,7.1,111,7.1,111c-0.7,0.3-3.2,1.8-7,4.3v-10.4c0.8-0.6,1.5-1.2,2.2-1.7
		C9.5,97.7,24.5,87.6,30.7,86.5z"/>
	<path d="M17.9,183.3H3.9c-2.1,0-3.8-1.7-3.8-3.8v-1.2c4.7,0.3,9.6,1.3,14.6,3.4C15.8,182.2,16.9,182.7,17.9,183.3z"/>
	<path d="M3.9,0h9.8c-1.9,7.3-4.2,14.5-6.1,20.1C6.3,23.6,3.6,28.6,0,34.5V11.8c1.1-2.8,2.1-5.3,2.9-7.4L0,8.6V3.8
		C0,1.8,1.8,0,3.9,0z"/>
	<path class="st1" d="M0,69c9.7-10.4,18.3-19.8,22.9-25.9C31,32.4,38.7,13.4,43.6,0H32.7c-4.1,10.7-9,22-15.9,35.5
		C13.4,42,7.3,49.8,0,58L0,69L0,69z"/>
	<path class="st1" d="M80.1,0h-3.6c-6.8,15.7-16.6,38.8-22.7,50.7c-7.1,13.9-14.9,22-15.5,26.6c-0.9,4.6,4.6,6.8,5.2,19.1
		c0.5,12.3,4.6,51.5,4.5,65.2c-0.2,13.7-0.5,17.7-1.2,20c-0.1,0.4-0.2,1-0.4,1.7h5.3c1.8-11.1,4.6-28.9,4.6-35.6
		c0.2-10.1,2.5-18.2,0.4-37.7c-2-19.7-8.4-36.1,6-63.2C71.5,29.5,76.9,12.1,80.1,0L80.1,0z"/>
	<path class="st1" d="M89.3,0h-3.8C85.4,4.5,86.6,5.7,89.3,0z"/>
	<path class="st1" d="M29.5,161.8c-7.1-10.4-15.7-12.4-29.4-9.3v15.1c4.6,0,8.9,0.6,12.4,2.1c7.3,3,12.6,8.2,16.2,13.7h10.5
		C38.1,179.4,35.2,170.3,29.5,161.8z"/>
	<path class="st1" d="M105.8,110c-7.3,17.9-14.2,35.8-17.8,48.2c-2.2,7.3-4.8,16.4-7.3,25.1h10.3c2.1-7.2,4.4-14.7,6.6-22.5
		c2.7-9.7,5.4-17.7,8.2-24.8V110z"/>
	<path class="st1" d="M0,82.3v10.5c11.8-11.6,23.1-21.6,29.3-27.3C42.7,53.3,54.3,27.5,61.9,9c1.1-2.8,2.4-5.8,3.8-8.9h-7.7
		c-5.6,16.6-12.9,35.5-21,44C29.9,51.6,14.8,67,0,82.3z"/>
	<path class="st1" d="M103.9,182.8c1.1-0.7,1.8-1.9,1.8-3.2v-3.2C105.1,178.4,104.6,180.6,103.9,182.8z"/>
	<path class="st1" d="M2.9,4.5C2.1,6.6,1.2,9.1,0,11.9v22.7c3.6-5.9,6.3-10.9,7.5-14.4c1.9-5.6,4.2-12.8,6.1-20.1H3.9
		C1.8,0.1,0,1.8,0,3.9v4.8L2.9,4.5z"/>
	<path class="st1" d="M14.7,181.7c-5-2.1-10-3.1-14.6-3.4v1.2c0,2.1,1.7,3.8,3.8,3.8h14.1C16.9,182.7,15.8,182.2,14.7,181.7z"/>
	<path class="st1" d="M103.9,46.6c-9.6,32.1-17.1,63.5-22.5,85.2c-5.5,21.6-7.3,21.5-8.6,34.2c-0.7,7.1-1.6,12.7-1.6,17.3h4.1
		c2.2-9.5,4.6-19.8,6.5-28c3.7-15.8,13.3-40.7,20.1-63.3V80c0-0.9,0.5-1.8,1.4-2.3l1.1-0.6c0.9-0.4,1.4-1.3,1.4-2.3V40.5
		C105.1,42.5,104.4,44.5,103.9,46.6z"/>
	<path class="st1" d="M70.7,149.3c7.2-33.5,7.4-49.2,12.1-71.9c4.7-22.8,5.1-32.8,17.1-60.2c1.9-4.4,3.9-8.5,5.9-12.3v-1
		c0-2.1-1.7-3.8-3.8-3.8h-3.2C90,16,80.7,34.7,76.4,49c-9.2,29.9-6.4,42.1-8.1,60c-1.6,18-5.2,27.7-8.7,51.3
		c-1.5,10.4-3.6,17.8-5.4,22.9h15C67.9,175,67.7,163.7,70.7,149.3L70.7,149.3z"/>
	<path class="st1" d="M34.3,96.4c2.2-2.9,2.7-11.1-3.6-10c-6.3,1.2-21.2,11.2-28.5,16.7c-0.7,0.5-1.4,1.1-2.2,1.7v10.4
		c3.8-2.5,6.3-3.9,7-4.3C7,111,31.9,99.5,34.3,96.4z"/>
	<path class="st1" d="M44.9,183.3c0.3-3,0.4-6.7,0.1-11.2c-0.9-15.6-5.4-40-10.4-52.4c-5.2-12.2-9.3-9.8-17.8-3.6
		c-6,4.5-10.9,8.3-16.8,11.4v14.3c10.8-2.6,16.6,2.2,18.4,0.8c1.4-1,2.6-5.4,1-7.9c-1.8-2.7-4.9-5.1-3.5-7.4s5.8-5.1,7.7,1
		c1.9,6.1,1.1,8.2,4.2,14.6c3.1,6.3,7.4,12.9,9.1,21c1.6,7.1,3.7,13.7,3,19.4L44.9,183.3L44.9,183.3z"/>
</g>
</svg>
