<?xml version="1.0" encoding="utf-8"?>
<!-- Generator: Adobe Illustrator 21.0.0, SVG Export Plug-In . SVG Version: 6.00 Build 0)  -->
<svg version="1.1" id="Calque_1" xmlns="http://www.w3.org/2000/svg" xmlns:xlink="http://www.w3.org/1999/xlink" x="0px" y="0px"
	 viewBox="0 0 211.9 212" style="enable-background:new 0 0 211.9 212;" xml:space="preserve">
<style type="text/css">
	.st0{fill:#FF97BF;}
	.st1{fill:#FFFFFF;}
</style>
<g id="XMLID_28_">
	<g>
		<path d="M199.5,103.9c1.1,0,1.8,0.9,1.8,1.8c0,3.2-0.2,6.3-0.4,9.3c0,0.9-0.7,1.6-1.6,1.6c-0.2,0-0.2,0-0.2,0
			c-0.9,0-1.6-0.9-1.6-1.8c0.2-2.9,0.4-5.9,0.4-8.8C197.9,105.1,198.6,104.2,199.5,103.9z"/>
		<path d="M198.8,96.7c-0.7,0-1.6-0.7-1.6-1.6c-0.2-2.9-0.9-5.9-1.6-8.6c-0.2-0.9,0.4-1.8,1.4-2c0.9-0.2,1.8,0.5,2,1.4
			c0.7,2.9,1.1,5.9,1.6,9.1c0,0.9-0.7,1.8-1.6,1.8H198.8z"/>
		<path d="M197.4,126.8c1.1,0.2,1.6,1.1,1.4,2c-0.9,3-1.6,5.9-2.7,8.8c-0.2,0.7-0.9,1.1-1.6,1.1c-0.2,0-0.5,0-0.7,0
			c-0.9-0.4-1.4-1.4-1.1-2.3c0.9-2.7,1.8-5.7,2.7-8.4C195.6,127,196.5,126.6,197.4,126.8z"/>
		<path d="M195.2,72.2c0.4,0.9,0,2-0.9,2.3c-0.2,0-0.4,0-0.7,0c-0.7,0-1.4-0.5-1.6-1.1c-1.1-2.7-2.3-5.4-3.4-7.9
			c-0.4-0.9-0.2-1.8,0.7-2.3c0.9-0.5,1.8-0.2,2.3,0.7C192.9,66.6,194,69.3,195.2,72.2z"/>
		<path d="M185.4,158.5c-0.2,0.5-0.9,0.7-1.4,0.7c-0.2,0-0.7,0-0.9-0.2c-0.7-0.7-0.9-1.6-0.5-2.3c1.6-2.5,3.2-5,4.5-7.7
			c0.5-0.9,1.4-1.1,2.3-0.7c0.9,0.4,1.1,1.4,0.7,2.3C188.6,153.3,187,156,185.4,158.5z"/>
		<path d="M184.3,51.9c0.4,0.7,0.2,1.8-0.5,2.3c-0.2,0.2-0.7,0.2-0.9,0.2c-0.5,0-1.1-0.2-1.4-0.7c-1.6-2.3-3.4-4.8-5.7-6.8
			c-0.7-0.9-0.5-1.8,0.2-2.5c0.9-0.7,1.8-0.5,2.5,0.2C180.7,46.9,182.5,49.4,184.3,51.9z"/>
		<path d="M105.9,0c58.4,0,106,47.6,106,106s-47.6,106-106,106S0,164.4,0,106S47.5,0,105.9,0z M208.5,106
			c0-56.6-46-102.6-102.6-102.6C49.3,3.4,3.3,49.4,3.3,106s46,102.6,102.6,102.6C162.6,208.6,208.5,162.6,208.5,106z"/>
		<path d="M168.2,176c-0.7-0.7-0.7-1.8,0-2.5c2.3-2,4.3-4.1,6.3-6.3c0.7-0.9,1.8-0.9,2.5-0.2c0.9,0.7,0.9,1.8,0.2,2.5
			c-2,2.3-4.3,4.5-6.6,6.6c-0.2,0.2-0.7,0.5-1.1,0.5C169.1,176.4,168.4,176.4,168.2,176z"/>
		<path d="M169.1,34.4c0.7,0.7,0.9,1.8,0.2,2.5c-0.4,0.5-0.9,0.7-1.4,0.7c-0.4,0-0.9-0.2-1.1-0.5c-2.3-2-4.5-3.9-7-5.7
			c-0.9-0.7-0.9-1.8-0.5-2.5c0.7-0.9,1.8-0.9,2.5-0.5C164.4,30.3,166.9,32.4,169.1,34.4z"/>
		<path class="st0" d="M164.1,106c0.2,2.9,0.4,6.1,0.4,9.1c0,19.7-8.8,34.9-20.1,45.1c1.1-6.8,1.4-19-7.7-24
			c-0.9-0.4-1.8-0.2-2.3,0.7c-0.4,0.9-0.2,1.8,0.7,2.3c9.5,5.4,5.9,21.7,5.2,24.7c-5.4,4.3-11.3,7.5-16.8,9.5
			c-1.1,0.5-2.3,0.9-3.6,1.1c-0.7,0-1.4,0.2-1.8,0.2c-5,0-9.3-3.2-10.4-7.5c0.2-0.7,0.2-1.4,0.2-2v-43c6.4,3.4,20.8,9.3,32.8-1.8
			c0.9,4.3,3.6,11.1,10.6,12.4h0.2c0.9,0,1.6-0.7,1.6-1.4c0.2-0.9-0.5-1.8-1.4-2c-7.7-1.4-8.4-12.7-8.4-12.7c0-0.7-0.4-1.3-1.1-1.6
			c-0.7-0.2-1.4,0-1.8,0.5c-12,14-28.1,5.4-32.4,2.7V83.8c1.6-1.1,4.5-2.9,7.7-2.7c2,0.2,3.9,1.1,5.4,3.2c0.2,0.4,0.9,0.7,1.4,0.7
			c0.4,0,0.7-0.2,1.1-0.5c0.7-0.7,0.9-1.6,0.2-2.5c-2.3-2.7-4.8-4.3-7.7-4.5c-2.9-0.2-5.9,0.9-7.9,2v-34c0-0.7,0-1.4-0.2-2
			c0.7-4.1,5-7.2,10.2-7.2c2,0,3.8,0.5,5.4,1.4c0.9,0.7,1.8,1.4,2.7,2c2.9,2.5,5.9,5,8.4,7.7c0,0,1.2,1.3,1.2,4.3
			c0,2.9-1.1,7.3-5.3,13.8c-0.4,0.7-0.2,1.8,0.5,2.3c0.2,0.2,0.7,0.2,0.9,0.2c0.5,0,1.1-0.2,1.4-0.7c4.3-6.6,5.7-11.6,5.9-15.2
			c5.9,6.6,10.9,13.6,14.7,20.8c-0.5,2-3.2,9.5-12.5,11.1c-0.9,0.2-1.6,1.1-1.4,2c0.2,0.9,0.9,1.4,1.6,1.4h0.2
			c8.2-1.6,12.2-6.6,14-10.4c3.6,7.7,6.1,15.9,7.3,24.2c-6.3-4.5-20.4-11.1-37.1,2.7c-0.7,0.7-0.9,1.6-0.2,2.5
			c0.2,0.5,0.9,0.7,1.4,0.7s0.7-0.2,1.1-0.4C147.2,91.3,161.7,103.5,164.1,106z M136.7,77.2c0.2-0.9-0.2-1.8-1.1-2.3
			c-5.9-2-9.7-5.2-11.3-9.1c-2-4.8-0.5-9.3-0.5-9.3c0.5-0.9,0-1.8-0.9-2.3c-0.9-0.5-1.8,0-2.3,0.9c0,0.2-2.3,5.9,0.5,12
			c2.3,5,6.8,8.6,13.4,11.1c0.2,0,0.4,0,0.7,0C135.8,78.4,136.5,77.9,136.7,77.2z M130.4,161c0-0.2,1.6-7.7-2.7-14
			c-2.7-3.9-7-6.3-13.4-7.2c-0.9-0.2-1.8,0.4-2,1.4c-0.2,0.9,0.4,1.8,1.4,2c5.2,0.7,8.8,2.7,11.1,5.9c3.4,5,2.3,11.3,2.3,11.3
			c-0.2,0.9,0.4,1.8,1.4,2c0.2,0,0.2,0,0.4,0C129.5,162.4,130.4,161.9,130.4,161z"/>
		<path d="M160.3,182.5c0.4,0.7,0.2,1.8-0.4,2.3c-2.5,1.6-5.2,3.2-7.9,4.8c-0.5,0.2-0.7,0.2-0.9,0.2c-0.7,0-1.4-0.2-1.6-0.9
			c-0.4-0.7-0.2-1.8,0.7-2.3c2.7-1.6,5.2-3.2,7.7-4.8C158.7,181.4,159.6,181.6,160.3,182.5z"/>
		<path d="M150.1,21.5c0.7,0.5,1.1,1.4,0.7,2.3c-0.4,0.7-0.9,0.9-1.6,0.9c-0.2,0-0.5,0-0.7-0.2c-2.7-1.6-5.4-2.7-8.1-3.9
			c-0.9-0.2-1.4-1.1-0.9-2c0.5-0.9,1.4-1.4,2.3-0.9C144.4,18.8,147.4,19.9,150.1,21.5z"/>
		<path d="M140.1,193.2c0.5,0.9,0,2-0.9,2.3c-2.9,0.9-5.9,2-8.8,2.7c-0.2,0-0.2,0-0.5,0c-0.7,0-1.4-0.7-1.6-1.4
			c-0.2-0.9,0.2-1.8,1.1-2c2.9-0.7,5.9-1.6,8.6-2.7C139,191.8,139.9,192.3,140.1,193.2z"/>
		<path d="M135.6,75c0.9,0.5,1.4,1.4,1.1,2.3c-0.2,0.7-0.9,1.1-1.6,1.1c-0.2,0-0.4,0-0.7,0c-6.6-2.5-11.1-6.1-13.4-11.1
			c-2.7-6.1-0.5-11.8-0.5-12c0.5-0.9,1.4-1.4,2.3-0.9c0.9,0.5,1.4,1.4,0.9,2.3c0,0-1.6,4.5,0.5,9.3C125.9,69.7,129.7,72.9,135.6,75z
			"/>
		<path d="M127.7,147c4.3,6.3,2.7,13.8,2.7,14c0,0.9-0.9,1.4-1.6,1.4c-0.2,0-0.2,0-0.4,0c-0.9-0.2-1.6-1.1-1.4-2
			c0,0,1.1-6.3-2.3-11.3c-2.3-3.2-5.9-5.2-11.1-5.9c-0.9-0.2-1.6-1.1-1.4-2c0.2-0.9,1.1-1.6,2-1.4C120.7,140.6,125,143.1,127.7,147z
			"/>
		<path d="M128.4,13.1c0.9,0.2,1.6,1.1,1.4,2c-0.2,0.9-0.9,1.4-1.6,1.4c-0.2,0-0.2,0-0.4,0c-3-0.7-5.9-1.1-8.8-1.6
			c-0.9-0.2-1.6-0.9-1.6-2.3c0.2-0.9,1.1-1.6,2-1.4C122.2,11.8,125.4,12.5,128.4,13.1z"/>
		<path d="M118.9,198.8c0,0.9-0.7,1.8-1.6,1.8c-3.2,0.4-6.1,0.7-9.3,0.7c-1.1,0-1.8-0.7-1.8-1.6c0-1.1,0.7-1.8,1.6-1.8
			c2.9-0.2,5.9-0.4,8.8-0.7C117.5,197.3,118.2,197.9,118.9,198.8z"/>
		<path d="M107.1,12.2c0.2,1.1-0.7,1.8-1.6,1.8c-2.9,0-5.9,0.2-9.1,0.5c-0.9,0-1.6-0.7-2-1.6c0-0.9,0.7-1.8,1.6-1.8
			c3.2-0.2,6.1-0.4,9.3-0.4C106.4,10.6,107.1,11.3,107.1,12.2z"/>
		<path class="st0" d="M104.4,164.9c0,0.7,0,1.4,0.2,2c-1.1,4.3-5.4,7.5-10.4,7.5c-0.7,0-1.4,0-1.8-0.2c-1.4-0.4-2.5-0.7-3.6-1.1
			c-5.4-2-11.3-5.2-16.8-9.5c-0.7-2.9-4.3-19.3,5.2-24.7c0.9-0.4,1.1-1.6,0.7-2.3c-0.5-0.9-1.6-1.1-2.3-0.7
			c-9.1,5.2-8.8,17.2-7.7,24c-11.3-10.2-20.2-25.4-20.2-45.1c0-3.2,0.2-6.1,0.5-9.1c2.7-2.5,17-14.7,35.5,0.7
			c0.2,0.2,0.7,0.5,1.1,0.5c0.5,0,0.9-0.2,1.4-0.7c0.7-0.7,0.5-1.8-0.2-2.5c-16.8-13.8-30.8-7.3-37.1-2.7c1.4-8.4,3.6-16.5,7.3-24.2
			c1.8,3.6,5.9,8.8,14,10.4h0.2c0.9,0,1.6-0.7,1.6-1.4c0.2-0.9-0.5-1.8-1.4-2c-9.5-1.8-12-9.1-12.5-11.1C62,65.4,67,58.4,72.9,51.9
			c0.2,3.6,1.6,8.4,5.9,15.2c0.2,0.4,0.9,0.7,1.4,0.7c0.2,0,0.7,0,0.9-0.2c0.7-0.4,0.9-1.6,0.5-2.3c-8.6-13.1-4.3-17.9-4.1-18.1
			c2.7-2.7,5.4-5.2,8.4-7.7c0.9-0.7,1.8-1.4,2.7-2c1.6-0.9,3.6-1.4,5.7-1.4c5,0.2,9.1,3.4,10.2,7.5c-0.2,0.7-0.2,1.4-0.2,2v34
			c-2-1.1-4.8-2.3-7.9-2c-2.9,0.2-5.7,1.8-7.7,4.5c-0.7,0.7-0.5,1.8,0.2,2.5c0.2,0.2,0.7,0.5,1.1,0.5c0.4,0,0.9-0.2,1.4-0.7
			c1.6-2,3.4-3.2,5.4-3.2c3.2-0.2,6.1,1.6,7.7,2.7v34.4c-4.5,2.9-20.6,11.3-32.6-2.7c-0.5-0.5-1.1-0.7-1.8-0.5
			c-0.7,0.2-1.1,0.9-1.1,1.6c0,0.2-0.7,11.3-8.4,12.7c-0.9,0.2-1.6,1.1-1.4,2c0.2,0.9,0.9,1.4,1.6,1.4h0.2c7-1.4,9.7-8.2,10.6-12.4
			c12,11.1,26.5,5.2,32.8,1.8V164.9z M98.5,142.9c0.9-0.2,1.6-0.9,1.4-2c-0.2-0.9-0.9-1.6-2-1.4c-6.1,0.9-10.6,3.4-13.4,7.5
			c-4.3,6.1-2.7,13.6-2.7,14c0.2,0.9,0.9,1.4,1.8,1.4c0.2,0,0.2,0,0.4,0c0.9-0.2,1.6-1.1,1.4-2c0,0-1.4-6.3,2-11.3
			C89.6,145.8,93.3,143.8,98.5,142.9z M91,67.7c2.7-6.1,0.4-11.8,0.4-12c-0.4-0.9-1.4-1.4-2.3-0.9c-0.9,0-1.4,1.1-0.9,2
			c0,0,1.8,4.5-0.4,9.3c-1.8,3.8-5.7,6.8-11.3,9.1c-0.9,0.2-1.3,1.4-1.1,2.3c0.2,0.7,0.9,1.1,1.6,1.1c0.2,0,0.4,0,0.7,0
			C84.4,76.1,89,72.5,91,67.7z"/>
		<path d="M99.8,140.9c0.2,1.1-0.5,1.8-1.4,2c-5.2,0.9-8.8,2.9-11.1,6.1c-3.4,5-2,11.3-2,11.3c0.2,0.9-0.5,1.8-1.4,2
			c-0.2,0-0.2,0-0.4,0c-0.9,0-1.6-0.4-1.8-1.4c0-0.4-1.6-7.9,2.7-14c2.7-4.1,7.3-6.6,13.4-7.5C98.9,139.3,99.6,140,99.8,140.9z"/>
		<path class="st1" d="M96.4,14.5c3.2-0.2,6.1-0.5,9.1-0.5c0.9,0,1.8-0.7,1.6-1.8c0-0.9-0.7-1.6-1.8-1.6c-3.2,0-6.1,0.2-9.3,0.4
			c-0.9,0-1.6,0.9-1.6,1.8C94.8,13.8,95.5,14.5,96.4,14.5z M12.4,106.4c0.9,0,1.6-0.7,1.8-1.6c0-3,0.2-5.9,0.5-8.8
			c0-0.9-0.7-1.8-1.6-1.8c-0.9-0.2-1.8,0.7-1.8,1.6c-0.2,2.9-0.4,6.1-0.4,9.3C10.6,105.8,11.3,106.4,12.4,106.4z M105.9,3.4
			c56.6,0,102.6,46,102.6,102.6s-46,102.6-102.6,102.6c-56.6,0-102.6-46-102.6-102.6S49.3,3.4,105.9,3.4z M201.3,105.8
			c0-0.9-0.7-1.8-1.8-1.8c-0.9,0.2-1.6,1.1-1.6,2c0,2.9-0.2,5.9-0.4,8.8c0,0.9,0.7,1.8,1.6,1.8c0,0,0,0,0.2,0c0.9,0,1.6-0.7,1.6-1.6
			C201.1,112.1,201.3,108.9,201.3,105.8z M199,96.7c0.9,0,1.6-0.9,1.6-1.8c-0.4-3.2-0.9-6.1-1.6-9.1c-0.2-0.9-1.1-1.6-2-1.4
			c-0.9,0.2-1.6,1.1-1.4,2c0.7,2.7,1.4,5.7,1.6,8.6c0,0.9,0.9,1.6,1.6,1.6H199z M198.8,128.9c0.2-0.9-0.2-1.8-1.4-2
			c-0.9-0.2-1.8,0.2-2,1.4c-0.9,2.7-1.8,5.7-2.7,8.4c-0.2,0.9,0.2,1.8,1.1,2.3c0.2,0,0.4,0,0.7,0c0.7,0,1.4-0.4,1.6-1.1
			C197.2,134.7,197.9,131.8,198.8,128.9z M194.3,74.5c0.9-0.2,1.4-1.4,0.9-2.3c-1.1-3-2.3-5.7-3.6-8.4c-0.4-0.9-1.4-1.1-2.3-0.7
			c-0.9,0.5-1.1,1.4-0.7,2.3c1.1,2.5,2.3,5.2,3.4,7.9c0.2,0.7,0.9,1.1,1.6,1.1C193.8,74.5,194,74.5,194.3,74.5z M190.2,150.6
			c0.5-0.9,0.2-1.8-0.7-2.3c-0.9-0.5-1.8-0.2-2.3,0.7c-1.4,2.7-2.9,5.2-4.5,7.7c-0.4,0.7-0.2,1.6,0.5,2.3c0.2,0.2,0.7,0.2,0.9,0.2
			c0.5,0,1.1-0.2,1.4-0.7C187,156,188.6,153.3,190.2,150.6z M183.8,54.1c0.7-0.4,0.9-1.6,0.5-2.3c-1.8-2.5-3.6-5-5.7-7.2
			c-0.7-0.7-1.6-0.9-2.5-0.2c-0.7,0.7-0.9,1.6-0.2,2.5c2.3,2,4.1,4.5,5.7,6.8c0.2,0.4,0.9,0.7,1.4,0.7
			C183.2,54.3,183.6,54.3,183.8,54.1z M177.3,169.4c0.7-0.7,0.7-1.8-0.2-2.5c-0.7-0.7-1.8-0.7-2.5,0.2c-2,2.3-4.1,4.3-6.3,6.3
			c-0.7,0.7-0.7,1.8,0,2.5c0.2,0.5,0.9,0.5,1.4,0.5c0.4,0,0.9-0.2,1.1-0.5C173,173.9,175.2,171.7,177.3,169.4z M169.4,36.9
			c0.7-0.7,0.5-1.8-0.2-2.5c-2.3-2-4.8-4.1-7.2-5.9c-0.7-0.5-1.8-0.5-2.5,0.5c-0.4,0.7-0.4,1.8,0.5,2.5c2.5,1.8,4.8,3.6,7,5.7
			c0.2,0.2,0.7,0.5,1.1,0.5C168.4,37.6,168.9,37.4,169.4,36.9z M168.2,115c0-3.4-0.2-6.6-0.5-9.7c-1.3-13-5.3-25.3-11.7-36.7
			c-6.5-11.4-15.6-22-27.2-31.7c-1.1-0.9-2-1.6-3.2-2.3c-2.3-1.1-4.8-1.8-7.3-1.8c-5.2,0-9.7,2.5-12.2,6.3c-2.5-3.9-7-6.3-12.2-6.3
			c-2.5-0.2-5,0.4-7.5,1.8c-1.1,0.7-2,1.4-2.9,2.3c-11.7,9.6-20.7,20.2-27.2,31.7C49.8,80,45.9,92.3,44.6,105.3
			c-0.2,3.2-0.5,6.3-0.5,9.7c0,33.1,23.3,53.7,43.3,61.2c1.3,0.7,2.7,1.1,4.1,1.4c0.9,0.2,1.6,0.2,2.5,0.2c5.2,0,9.7-2.5,12.2-6.3
			c2.5,3.9,7,6.3,12.2,6.3c0.7,0,1.6,0,2.5-0.2c0,0,0,0,0.2,0c1.4-0.2,2.5-0.7,3.8-1.4c10-3.7,20.8-10.8,29.1-21
			C162.4,145,168.2,131.6,168.2,115z M159.8,184.8c0.7-0.4,0.9-1.6,0.4-2.3c-0.7-0.9-1.6-1.1-2.5-0.7c-2.5,1.6-5,3.2-7.7,4.8
			c-0.9,0.4-1.1,1.6-0.7,2.3c0.2,0.7,0.9,0.9,1.6,0.9c0.2,0,0.5,0,0.9-0.2C154.6,188,157.4,186.4,159.8,184.8z M150.8,23.8
			c0.4-0.9,0-1.8-0.7-2.3c-2.7-1.6-5.7-2.7-8.4-3.9c-0.9-0.5-1.8,0-2.3,0.9c-0.4,0.9,0,1.8,0.9,2c2.7,1.1,5.4,2.3,8.1,3.9
			c0.2,0.2,0.5,0.2,0.7,0.2C149.9,24.7,150.3,24.5,150.8,23.8z M139.2,195.4c0.9-0.2,1.4-1.4,0.9-2.3c-0.2-0.9-1.1-1.4-2-1.1
			c-2.7,1.1-5.7,2-8.6,2.7c-0.9,0.2-1.4,1.1-1.1,2c0.2,0.7,0.9,1.4,1.6,1.4c0.2,0,0.2,0,0.5,0C133.3,197.5,136.3,196.3,139.2,195.4z
			 M129.7,15.2c0.2-0.9-0.5-1.8-1.4-2c-3-0.7-6.1-1.4-9.1-1.8c-0.9-0.2-1.8,0.5-2,1.4c0,1.4,0.7,2,1.6,2.3c2.9,0.4,5.9,0.9,8.8,1.6
			c0.2,0,0.2,0,0.4,0C128.8,16.5,129.5,16.1,129.7,15.2z M117.3,200.7c0.9,0,1.6-0.9,1.6-1.8c-0.7-0.9-1.4-1.6-2.3-1.6
			c-2.9,0.2-5.9,0.4-8.8,0.7c-0.9,0-1.6,0.7-1.6,1.8c0,0.9,0.7,1.6,1.8,1.6C111.2,201.3,114.1,201.1,117.3,200.7z M95.5,199.1
			c0.2-0.9-0.4-1.8-1.4-1.8c-2.9-0.4-5.9-0.9-8.8-1.6c-0.9-0.2-1.8,0.5-2,1.4c-0.2,0.9,0.5,1.8,1.4,2c2.9,0.7,6.1,1.1,9.1,1.6h0.2
			C94.8,200.7,95.5,200,95.5,199.1z M83.5,17c0.9-0.2,1.3-1.1,1.1-2c-0.2-0.9-1.1-1.4-2-1.1c-2.9,0.7-5.9,1.6-8.8,2.7
			c-0.9,0.2-1.4,1.4-1.1,2.3c0.2,0.2,0.9,0.7,1.6,0.7c0.2,0,0.5,0,0.7,0C77.6,18.6,80.6,17.7,83.5,17z M73.6,194.1
			c0.5-1.1,0-2-0.9-2.3c-2.7-1.1-5.4-2.3-8.2-3.6c-0.9-0.5-1.8,0-2.3,0.7c-0.5,0.9,0,1.8,0.7,2.3c2.7,1.4,5.7,2.7,8.4,3.9
			c0.2,0,0.5,0.2,0.7,0.2C72.6,195.2,73.3,194.8,73.6,194.1z M62.7,24.9c0.9-0.4,1.1-1.6,0.7-2.3c-0.5-0.9-1.6-1.1-2.3-0.7
			c-2.7,1.4-5.4,2.9-7.9,4.8c-0.7,0.5-0.9,1.6-0.5,2.3c0.2,0.4,0.9,0.7,1.3,0.7c0.2,0,0.7,0,0.9-0.2C57.5,27.9,60,26.3,62.7,24.9z
			 M53.2,183.7c0.4-0.7,0.4-1.8-0.5-2.3c-2-2-4.5-3.8-6.8-5.7c-0.7-0.7-1.8-0.4-2.5,0.2c-0.7,0.7-0.5,1.8,0.2,2.5
			c2.3,2,4.8,3.9,7.2,5.7c0.2,0.2,0.7,0.2,0.9,0.2C52.3,184.3,52.9,184.1,53.2,183.7z M44.6,37.6c0.7-0.7,0.7-1.8,0.2-2.5
			c-0.7-0.7-1.8-0.7-2.5-0.2c-2.3,2-4.5,4.3-6.6,6.6c-0.7,0.7-0.7,1.8,0,2.5c0.2,0.5,0.7,0.5,1.1,0.5s0.9-0.2,1.4-0.5
			C40.3,41.7,42.3,39.6,44.6,37.6z M36.4,168.7c0.7-0.7,0.7-1.6,0.2-2.5c-2-2.3-3.8-4.5-5.4-7c-0.5-0.7-1.6-0.9-2.5-0.4
			c-0.7,0.4-0.9,1.6-0.5,2.5c1.8,2.5,3.6,5,5.7,7.3c0.2,0.5,0.9,0.7,1.4,0.7C35.7,169.2,36.2,168.9,36.4,168.7z M30.3,54.3
			c0-0.7-0.2-1.8-0.9-2.3c-0.7-0.5-1.8-0.2-2.3,0.4c-1.8,2.5-3.4,5.2-4.8,7.9c-0.5,0.9-0.2,1.8,0.7,2.3C23.3,63,23.5,63,24,63
			c0.7,0,1.1-0.2,1.6-0.9C26.9,59.6,28.5,56.8,30.3,54.3z M23.3,150.1c0.9-0.4,1.1-1.4,0.7-2.3c-1.4-2.7-2.5-5.4-3.6-8.1
			c-0.4-0.9-1.4-1.4-2.3-0.9c-0.9,0.5-1.4,1.4-0.9,2.3c1.1,2.9,2.5,5.7,3.9,8.4c0.2,0.7,0.9,0.9,1.6,0.9
			C22.8,150.4,23.1,150.4,23.3,150.1z M19.4,73.8c0.5-0.5,0-1.6-0.9-1.8c-0.9-0.2-1.8,0.2-2.3,0.9c-1.1,2.9-2,5.9-2.7,8.8
			c-0.2,0.9,0.2,1.8,1.1,2c0.2,0,0.2,0,0.4,0c0.7,0,1.4-0.5,1.6-1.4C17.4,79.5,18.3,76.8,19.4,73.8z M15.4,129.1
			c0.9-0.2,1.6-1.1,1.4-2c-0.9-2.9-1.6-5.9-1.8-8.8c-0.2-0.9-0.9-1.6-1.8-1.4c-0.9,0.2-1.6,0.9-1.4,1.8c0.5,2.9,0.9,6.1,1.6,9.1
			c0.2,0.7,0.9,1.4,1.6,1.4C15.1,129.1,15.1,129.1,15.4,129.1z"/>
		<path d="M94.2,197.3c0.9,0,1.6,0.9,1.4,1.8c0,0.9-0.7,1.6-1.6,1.6h-0.2c-3-0.5-6.1-0.9-9.1-1.6c-0.9-0.2-1.6-1.1-1.4-2
			c0.2-0.9,1.1-1.6,2-1.4C88.3,196.3,91.2,196.8,94.2,197.3z"/>
		<path d="M91.4,55.7c0,0.2,2.3,5.9-0.4,12c-2,4.8-6.6,8.4-13.4,10.9c-0.2,0-0.5,0-0.7,0c-0.7,0-1.4-0.5-1.6-1.1
			c-0.2-0.9,0.2-2,1.1-2.3c5.7-2.3,9.5-5.2,11.3-9.1c2.3-4.8,0.4-9.3,0.4-9.3c-0.4-0.9,0-2,0.9-2C90.1,54.3,91,54.8,91.4,55.7z"/>
		<path d="M86.5,34.6c2.5-1.4,5-2,7.5-1.8c5.2,0,9.7,2.5,12.2,6.3c2.5-3.9,7-6.3,12.2-6.3c2.5,0,5,0.7,7.3,1.8
			c1.1,0.7,2,1.4,3.2,2.3c11.7,9.7,20.7,20.3,27.2,31.7c6.5,11.4,10.4,23.6,11.7,36.7c0.2,3.2,0.5,6.3,0.5,9.7
			c0,16.5-5.8,29.9-14.2,40.2c-8.3,10.2-19.1,17.2-29.1,21c-1.4,0.7-2.5,1.1-3.8,1.4c-0.2,0-0.2,0-0.2,0c-0.9,0.2-1.8,0.2-2.5,0.2
			c-5.2,0-9.7-2.5-12.2-6.3c-2.5,3.9-7,6.3-12.2,6.3c-0.9,0-1.6,0-2.5-0.2c-1.4-0.2-2.7-0.7-4.1-1.4c-19.9-7.5-43.3-28.1-43.3-61.2
			c0-3.4,0.2-6.6,0.5-9.7c1.4-13,5.3-25.3,11.8-36.7c6.5-11.4,15.5-22,27.2-31.7C84.4,36,85.3,35.3,86.5,34.6z M164.6,115
			c0-2.9-0.2-6.1-0.4-9.1c-2.5-2.5-17-14.7-35.6,0.7c-0.5,0.2-0.7,0.4-1.1,0.4s-1.1-0.2-1.4-0.7c-0.7-0.9-0.4-1.8,0.2-2.5
			c16.8-13.8,30.8-7.2,37.1-2.7c-1.1-8.4-3.6-16.5-7.3-24.2c-1.8,3.8-5.9,8.8-14,10.4H142c-0.7,0-1.4-0.4-1.6-1.4
			c-0.2-0.9,0.4-1.8,1.4-2c9.3-1.6,12-9.1,12.5-11.1c-3.8-7.3-8.8-14.3-14.7-20.8c-0.2,3.6-1.6,8.6-5.9,15.2
			c-0.2,0.5-0.9,0.7-1.4,0.7c-0.2,0-0.7,0-0.9-0.2c-0.7-0.5-0.9-1.6-0.5-2.3c4.2-6.5,5.3-11,5.3-13.8c0-3-1.2-4.3-1.2-4.3
			c-2.5-2.7-5.4-5.2-8.4-7.7c-0.9-0.7-1.8-1.3-2.7-2c-1.6-0.9-3.4-1.4-5.4-1.4c-5.2,0-9.5,3.2-10.2,7.2c0.2,0.7,0.2,1.4,0.2,2v34
			c2-1.1,5-2.3,7.9-2c2.9,0.2,5.4,1.8,7.7,4.5c0.7,0.9,0.5,1.8-0.2,2.5c-0.5,0.2-0.7,0.5-1.1,0.5c-0.5,0-1.1-0.2-1.4-0.7
			c-1.6-2-3.4-2.9-5.4-3.2c-3.2-0.2-6.1,1.6-7.7,2.7v34.4c4.3,2.7,20.4,11.3,32.4-2.7c0.4-0.5,1.1-0.7,1.8-0.5
			c0.7,0.2,1.1,0.9,1.1,1.6c0,0,0.7,11.3,8.4,12.7c0.9,0.2,1.6,1.1,1.4,2c0,0.7-0.7,1.4-1.6,1.4h-0.2c-7-1.4-9.7-8.2-10.6-12.4
			c-12,11.1-26.5,5.2-32.8,1.8v43c0,0.7,0,1.4-0.2,2c1.1,4.3,5.4,7.5,10.4,7.5c0.4,0,1.1-0.2,1.8-0.2c1.4-0.2,2.5-0.7,3.6-1.1
			c5.4-2,11.3-5.2,16.8-9.5c0.7-2.9,4.3-19.3-5.2-24.7c-0.9-0.5-1.1-1.4-0.7-2.3c0.4-0.9,1.4-1.1,2.3-0.7c9.1,5,8.8,17.2,7.7,24
			C155.8,149.9,164.6,134.7,164.6,115z M104.6,166.9c-0.2-0.7-0.2-1.4-0.2-2v-42.8c-6.3,3.4-20.8,9.3-32.8-1.8
			c-0.9,4.3-3.6,11.1-10.6,12.4h-0.2c-0.7,0-1.4-0.4-1.6-1.4c-0.2-0.9,0.5-1.8,1.4-2c7.7-1.4,8.4-12.5,8.4-12.7
			c0-0.7,0.5-1.3,1.1-1.6c0.7-0.2,1.4,0,1.8,0.5c12,14,28.1,5.7,32.6,2.7V83.8c-1.6-1.1-4.5-2.9-7.7-2.7c-2,0-3.8,1.1-5.4,3.2
			c-0.5,0.4-0.9,0.7-1.4,0.7c-0.5,0-0.9-0.2-1.1-0.5c-0.7-0.7-0.9-1.8-0.2-2.5c2-2.7,4.8-4.3,7.7-4.5c3.2-0.2,5.9,0.9,7.9,2v-34
			c0-0.7,0-1.4,0.2-2c-1.1-4.1-5.2-7.2-10.2-7.5c-2,0-4.1,0.5-5.7,1.4c-0.9,0.7-1.8,1.4-2.7,2c-2.9,2.5-5.7,5-8.4,7.7
			c-0.2,0.2-4.5,5,4.1,18.1c0.5,0.7,0.2,1.8-0.5,2.3c-0.2,0.2-0.7,0.2-0.9,0.2c-0.4,0-1.1-0.2-1.4-0.7c-4.3-6.8-5.7-11.6-5.9-15.2
			C67,58.4,62,65.4,58.2,72.7c0.5,2,2.9,9.3,12.5,11.1c0.9,0.2,1.6,1.1,1.4,2c0,0.7-0.7,1.4-1.6,1.4h-0.2c-8.1-1.6-12.2-6.8-14-10.4
			c-3.6,7.7-5.9,15.8-7.3,24.2c6.3-4.5,20.4-11.1,37.1,2.7c0.7,0.7,0.9,1.8,0.2,2.5c-0.4,0.4-0.9,0.7-1.4,0.7
			c-0.4,0-0.9-0.2-1.1-0.5c-18.6-15.4-32.8-3.2-35.5-0.7c-0.2,2.9-0.5,5.9-0.5,9.1c0,19.7,8.8,34.9,20.2,45.1
			c-1.1-6.8-1.4-18.8,7.7-24c0.7-0.5,1.8-0.2,2.3,0.7c0.5,0.7,0.2,1.8-0.7,2.3c-9.5,5.4-5.9,21.7-5.2,24.7
			c5.4,4.3,11.3,7.5,16.8,9.5c1.1,0.4,2.3,0.7,3.6,1.1c0.4,0.2,1.1,0.2,1.8,0.2C99.1,174.4,103.5,171.2,104.6,166.9z"/>
		<path d="M84.7,14.9c0.2,0.9-0.2,1.8-1.1,2c-2.9,0.7-5.9,1.6-8.6,2.5c-0.2,0-0.4,0-0.7,0c-0.7,0-1.4-0.5-1.6-0.7
			c-0.2-0.9,0.2-2,1.1-2.3c2.9-1.1,5.9-2,8.8-2.7C83.5,13.6,84.4,14,84.7,14.9z"/>
		<path d="M72.6,191.8c0.9,0.2,1.4,1.1,0.9,2.3c-0.2,0.7-0.9,1.1-1.6,1.1c-0.2,0-0.5-0.2-0.7-0.2c-2.7-1.1-5.7-2.5-8.4-3.9
			c-0.7-0.4-1.1-1.3-0.7-2.3c0.5-0.7,1.4-1.1,2.3-0.7C67.2,189.6,69.9,190.7,72.6,191.8z"/>
		<path d="M63.4,22.6c0.5,0.7,0.2,1.8-0.7,2.3c-2.7,1.4-5.2,3-7.7,4.5c-0.2,0.2-0.7,0.2-0.9,0.2c-0.5,0-1.1-0.2-1.3-0.7
			c-0.5-0.7-0.2-1.8,0.5-2.3c2.5-1.8,5.2-3.4,7.9-4.8C61.8,21.5,62.9,21.7,63.4,22.6z"/>
		<path d="M52.7,181.4c0.9,0.4,0.9,1.6,0.5,2.3c-0.2,0.4-0.9,0.7-1.4,0.7c-0.2,0-0.7,0-0.9-0.2c-2.5-1.8-5-3.6-7.2-5.7
			c-0.7-0.7-0.9-1.8-0.2-2.5c0.7-0.7,1.8-0.9,2.5-0.2C48.2,177.6,50.7,179.4,52.7,181.4z"/>
		<path d="M44.8,35.1c0.5,0.7,0.5,1.8-0.2,2.5c-2.3,2-4.3,4.1-6.3,6.3c-0.5,0.2-0.9,0.5-1.4,0.5s-0.9,0-1.1-0.5
			c-0.7-0.7-0.7-1.8,0-2.5c2-2.3,4.3-4.5,6.6-6.6C43,34.4,44.1,34.4,44.8,35.1z"/>
		<path d="M36.6,166.2c0.5,0.9,0.5,1.8-0.2,2.5c-0.2,0.2-0.7,0.5-1.1,0.5c-0.5,0-1.1-0.2-1.4-0.7c-2-2.3-3.9-4.8-5.7-7.3
			c-0.5-0.9-0.2-2,0.5-2.5c0.9-0.4,2-0.2,2.5,0.4C32.8,161.7,34.6,164,36.6,166.2z"/>
		<path d="M27.1,52.5c0.5-0.7,1.6-0.9,2.3-0.4c0.7,0.4,0.9,1.6,0.9,2.3c-1.8,2.5-3.4,5.2-4.8,7.7C25.1,62.7,24.6,63,24,63
			c-0.5,0-0.7,0-0.9-0.2c-0.9-0.5-1.1-1.4-0.7-2.3C23.7,57.7,25.3,55,27.1,52.5z"/>
		<path d="M24,147.9c0.5,0.9,0.2,1.8-0.7,2.3c-0.2,0.2-0.4,0.2-0.7,0.2c-0.7,0-1.3-0.2-1.6-0.9c-1.4-2.7-2.7-5.4-3.9-8.4
			c-0.4-0.9,0-1.8,0.9-2.3c0.9-0.4,1.8,0,2.3,0.9C21.5,142.4,22.6,145.2,24,147.9z"/>
		<path d="M18.5,72c0.9,0.2,1.4,1.4,0.9,1.8c-1.1,2.9-2,5.7-2.7,8.6c-0.2,0.9-0.9,1.4-1.6,1.4c-0.2,0-0.2,0-0.4,0
			c-0.9-0.2-1.4-1.1-1.1-2c0.7-3,1.6-5.9,2.7-8.8C16.7,72.2,17.6,71.8,18.5,72z"/>
		<path d="M16.7,127c0.2,0.9-0.5,1.8-1.4,2c-0.2,0-0.2,0-0.5,0c-0.7,0-1.3-0.7-1.6-1.4c-0.7-2.9-1.1-6.1-1.6-9.1
			c-0.2-0.9,0.5-1.6,1.4-1.8c0.9-0.2,1.6,0.4,1.8,1.4C15.1,121.2,15.8,124.1,16.7,127z"/>
		<path d="M13.1,94.2c0.9,0,1.6,0.9,1.6,1.8c-0.2,2.9-0.5,5.9-0.5,8.8c-0.2,0.9-0.9,1.6-1.8,1.6c-1.1,0-1.8-0.7-1.6-1.4
			c0-3.2,0.2-6.3,0.4-9.3C11.3,94.9,12.2,94,13.1,94.2z"/>
	</g>
	<g>
	</g>
</g>
</svg>
