<?xml version="1.0" encoding="utf-8"?>
<!-- Generator: Adobe Illustrator 21.0.0, SVG Export Plug-In . SVG Version: 6.00 Build 0)  -->
<svg version="1.1" id="Calque_1" xmlns="http://www.w3.org/2000/svg" xmlns:xlink="http://www.w3.org/1999/xlink" x="0px" y="0px"
	 viewBox="0 0 105.9 183.4" style="enable-background:new 0 0 105.9 183.4;" xml:space="preserve">
<style type="text/css">
	.st0{fill:#569604;}
	.st1{fill:none;stroke:#000000;stroke-width:0.4886;stroke-miterlimit:10;}
	.st2{fill:#AA8A02;}
	.st3{fill:#FFFFFF;}
	.st4{fill:#2C56AD;}
	.st5{fill:none;stroke:#000000;stroke-width:1.4658;stroke-miterlimit:10;}
	.st6{fill:#996202;}
	.st7{fill:#C10000;}
	.st8{fill:#490202;}
	.st9{fill:none;stroke:#000000;stroke-width:1.9544;stroke-miterlimit:10;}
	.st10{fill:#C97D05;}
	.st11{fill:#D39C4A;}
	.st12{fill:none;stroke:#000000;stroke-width:0.9772;stroke-miterlimit:10;}
</style>
<g>
	<path class="st0" d="M105.8,107.8v71.8c0,2.1-1.7,3.8-3.8,3.8H3.8c-2.1,0-3.8-1.7-3.8-3.8V3.8C0,1.7,1.7,0,3.8,0H102
		c2.1,0,3.8,1.7,3.8,3.8v71.1c0,1-0.5,1.8-1.4,2.3l-1.1,0.6c-0.9,0.4-1.4,1.3-1.4,2.3v23.8c0,1.1,0.7,2.1,1.8,2.4l1.4,0.4
		C105.5,106.8,105.8,107.3,105.8,107.8L105.8,107.8z"/>
	<path class="st1" d="M105.8,107.8v71.8c0,2.1-1.7,3.8-3.8,3.8H3.8c-2.1,0-3.8-1.7-3.8-3.8V3.8C0,1.7,1.7,0,3.8,0H102
		c2.1,0,3.8,1.7,3.8,3.8v71.1c0,1-0.5,1.8-1.4,2.3l-1.1,0.6c-0.9,0.4-1.4,1.3-1.4,2.3v23.8c0,1.1,0.7,2.1,1.8,2.4l1.4,0.4
		C105.5,106.8,105.8,107.3,105.8,107.8L105.8,107.8z"/>
	<path class="st2" d="M54.4,59.5c-0.7-0.2-1.5,0.7-1.8,2.1c-0.4,1.4-0.1,2.7,0.5,3c0.7,0.2,1.5-0.7,1.8-2.1
		C55.3,61,55.1,59.6,54.4,59.5z M54.4,62.2c-0.2,0.8-0.7,1.3-1,1.2c-0.4-0.1-0.5-0.9-0.3-1.6c0.2-0.8,0.7-1.3,1-1.2
		C54.5,60.7,54.6,61.4,54.4,62.2z"/>
	<path class="st3" d="M74.2,54c0,2.4-0.9,3.6-1.8,4.3c-1.3,1.1-1.8-0.3-1.8-0.9c-0.1-1,0.3-2.6,1.1-3.9C72.4,52.1,74.1,51.6,74.2,54
		z"/>
	<path class="st3" d="M66.2,50.9c0.8,2.2,0.9,4.6,0.6,6c-0.2,0.8-1.2,2.7-2.9,0.7c-1.1-1.3-2.1-3.2-1.6-6.7
		C63,47.4,65.4,48.7,66.2,50.9z"/>
	<path class="st4" d="M75.5,47.5c-0.5,0-1.1,0.3-1.1,0.3c1.2-0.5,2.4-0.7,2.7,0.8c-0.2-1-0.8-1.1-1.2-1.1
		C75.8,47.5,75.6,47.5,75.5,47.5z"/>
	<path class="st4" d="M71.3,26c0.8,1.6,1.8,5.5,1.9,5.7c-0.1-0.2-4.5-5.7-6.1,6.3c-0.3-0.1-0.6-0.2-0.9-0.2
		C66.6,32.6,67.9,19.1,71.3,26z"/>
	<path class="st4" d="M66.8,48.1c-7.5-7.3-6.1,2.8-6.1,2.8C60.6,43.4,66.6,48,66.8,48.1z M71.5,49.7c5-2.9,5.6-1.4,5.6-1.1v0
		c0.1,0.6,0.1,1.6-0.2,3l-0.3,4.3c0,0,2.7,2.9,0.1,5.6c0,0,9.3,15.3,0.5,15.3c-0.4,0-0.7,0-1.1-0.1c0,0,2.8,4.8,0.1,8
		c-0.9,1.1-2.7,2-4.1,2c-1.4,0-2.3-0.9-1.6-3.3c0.2-0.8,0.7-1.3,1.1-1.3c0.4,0,0.9,0.5,1.1,1.8c0,0-0.4-0.4-0.8-0.4
		c-0.2,0-0.4,0.1-0.5,0.5c-0.1,0.5,0.1,0.7,0.4,0.7c1.6,0,6.6-4.3,0.2-7.9c-2.4-1.4-3.8-1.8-10.6-2c-3.5-0.1-8.3,0.1-5.1-15.4
		c0,0-1.1,1.7-2.2,2.1c-0.2,0.1-0.3,0.1-0.4,0.1c-0.7,0-0.7-1.3-0.7-1.3s2-10.7,1.6-12.5c0,0-3.4-3.9-2.4-4.2c0.3-0.1,0.6-0.2,1-0.2
		c1.1,0,2.8,0.6,4.7,4c0,0,3-8.2,7.8-8.2h0.3c0.3,0,0.6,0.1,0.9,0.2c2.2,0.6,4.7,3,7.4,8.4C73,48.4,71.6,49.6,71.5,49.7z M72.4,58.2
		c0.8-0.7,1.8-1.8,1.8-4.3c0-2.4-1.8-1.9-2.5-0.5c-0.7,1.3-1.1,2.9-1.1,3.9C70.7,57.9,71.1,59.3,72.4,58.2L72.4,58.2z M66.8,56.9
		c0.4-1.4,0.2-3.9-0.6-6c-0.7-2.2-3.2-3.5-3.8,0c-0.6,3.5,0.5,5.5,1.6,6.7C65.6,59.6,66.6,57.7,66.8,56.9z"/>
	<path class="st5" d="M73.2,31.7c0-0.2-1.1-4.1-1.9-5.7c-3.5-6.9-4.8,6.6-5.1,11.8c0.3,0,0.6,0.1,0.9,0.2
		C68.7,26,73.1,31.5,73.2,31.7z"/>
	<path class="st5" d="M71.5,49.7c0.1-0.1,1.5-1.3,2.9-1.9c-2.7-5.4-5.2-7.8-7.4-8.4c-0.3-0.1-0.6-0.2-0.9-0.2h-0.3
		c-4.8,0-7.8,8.2-7.8,8.2c-1.9-3.4-3.5-4-4.7-4c-0.4,0-0.7,0.1-1,0.2c-1,0.2,2.4,4.2,2.4,4.2c0.4,1.8-1.6,12.5-1.6,12.5
		s0,1.3,0.7,1.3c0.1,0,0.2,0,0.4-0.1c1.1-0.5,2.2-2.2,2.2-2.2c-3.2,15.5,1.6,15.3,5.1,15.4c6.8,0.3,8.1,0.7,10.6,2
		c6.3,3.6,1.4,7.9-0.2,7.9c-0.4,0-0.5-0.2-0.4-0.7c0.1-0.4,0.3-0.5,0.5-0.5c0.4,0,0.8,0.4,0.8,0.4c-0.2-1.3-0.6-1.8-1.1-1.8
		c-0.4,0-0.9,0.5-1.1,1.3c-0.7,2.4,0.2,3.3,1.6,3.3c1.4,0,3.1-0.9,4.1-2c2.7-3.2-0.1-8-0.1-8c0.4,0,0.8,0.1,1.1,0.1
		c8.8,0-0.5-15.3-0.5-15.3c2.7-2.7-0.1-5.6-0.1-5.6l0.3-4.3c0.3-1.4,0.3-2.4,0.2-3v0C77,48.3,76.5,46.7,71.5,49.7"/>
	<line class="st5" x1="66.8" y1="48.2" x2="66.8" y2="48.1"/>
	<path class="st5" d="M66.8,48.1c-0.2-0.2-6.2-4.7-6.1,2.8C60.7,50.9,59.4,40.8,66.8,48.1z"/>
	<path class="st5" d="M66.8,56.9c-0.2,0.8-1.2,2.7-2.9,0.7c-1.1-1.3-2.1-3.2-1.6-6.7c0.6-3.5,3-2.2,3.8,0C67,53,67.2,55.4,66.8,56.9
		z"/>
	<path class="st5" d="M72.4,58.2c-1.3,1.1-1.8-0.3-1.8-0.9c-0.1-1,0.3-2.6,1.1-3.9c0.7-1.3,2.5-1.8,2.5,0.5
		C74.2,56.4,73.3,57.5,72.4,58.2z"/>
	<path class="st5" d="M74.4,47.7c0,0,0.7-0.3,1.1-0.3h0.4c0.4,0,1,0.1,1.2,1.1C76.8,47.1,75.6,47.2,74.4,47.7z"/>
	<path class="st4" d="M82.5,78.5c-1.3-0.1-2.8,0.1-4.3,0.2c0.5,2,0.7,4.7-1.2,6.9c-1.2,1.4-3.2,2.4-4.9,2.4c-1.4,0-2.2-0.7-2.6-1.3
		c-0.6-1-0.6-2.3-0.2-3.9c0.4-1.4,1.3-2.3,2.2-2.3c0.4,0,1.3,0.2,1.8,1.5c0.2-0.3,0.4-0.7,0.5-1.1c0.2-1.3-1.6-2.5-2.4-3
		c-2.1-1.2-3.2-1.6-10.1-1.9h-0.3c-0.5,0-1.1,0-1.6-0.1L58.9,78c0,0-13.6,7.6-14.7,20c-0.4,4.2-1,13.2,8.3,13.6
		c2.3,0.1,5.4,1.9,6.4,7.5c0.5,3.2,1.6,21.2-4.7,11.9c-3.4-5-3.4-14.1-21.3-2.5c1.8-1.1,11.2-6.3,17.4,3.7c6.9,11,13.8,4.3,17,0
		c3.2-4.3,19.4-2.6,18.4-25.8c0,0,7.3,2.9,11.4-2C101,99.6,104.3,80.7,82.5,78.5z"/>
	<path class="st5" d="M82.5,78.5c-1.3-0.1-2.8,0.1-4.3,0.2c0.5,2,0.7,4.7-1.2,6.9c-1.2,1.4-3.2,2.4-4.9,2.4c-1.4,0-2.2-0.7-2.6-1.3
		c-0.6-1-0.6-2.3-0.2-3.9c0.4-1.4,1.3-2.3,2.2-2.3c0.4,0,1.3,0.2,1.8,1.5c0.2-0.3,0.4-0.7,0.5-1.1c0.2-1.3-1.6-2.5-2.4-3
		c-2.1-1.2-3.2-1.6-10.1-1.9h-0.3c-0.5,0-1.1,0-1.6-0.1L58.9,78c0,0-13.6,7.6-14.7,20c-0.4,4.2-1,13.2,8.3,13.6
		c2.3,0.1,5.4,1.9,6.4,7.5c0.5,3.2,1.6,21.2-4.7,11.9c-3.4-5-3.4-14.1-21.3-2.5c1.8-1.1,11.2-6.3,17.4,3.7c6.9,11,13.8,4.3,17,0
		c3.2-4.3,19.4-2.6,18.4-25.8c0,0,7.3,2.9,11.4-2C101,99.6,104.3,80.7,82.5,78.5z"/>
	<path class="st6" d="M2.2,129.6c0.3-1.2,1.4-1.6,2.4-1.6c0.4,0,0.8-0.1,1.2,0c2.4,0.2,2.7,0.5,2.9,3.4c0,0.2,0.1,0.3,0.2,0.8
		c0.5-0.7,1.5-3.5,5.4-4.5c-0.3-0.7-0.8-1.5,0-2.2c0.3-0.2,0.9-0.2,1.1,0c0.7,0.6,0.4,1.4-0.1,2.3c0.3,0.2,0.5,0.4,0.8,0.5
		c1.1,0.6,2.2,1.3,3,2.5c0.3,0.5,1.1,0.7,1.7,0.7c0.9,0,2-0.2,2.9-0.5c1.2-0.4,2.3-0.9,3.4-1.5c1.2-0.7,2.4-0.5,3.6-0.4
		c0.2,0,0.9,0.6,1.1,0.7c-0.1,0.2-0.7,0.3-0.9,0.4c-3.4,0.8-5.7,3.7-8.4,5.8c-1.8,1.4-3.6,2.7-5.4,3.1c0.4,0.6,0.9,1.1,1.3,1.7
		c0.5,0.7,0.5,1.3-0.2,1.6c-1.2,0.6-5.4,0.8-7.1,0.2c-0.8-0.3-0.9-0.9-0.3-1.7c0.5-0.6,1.1-1.2,1.8-1.9c-1.8-0.5-3.2-1.6-4.2-3.4
		c-0.7,0.7-1.3,1.6-2.1,0.7c-0.8-0.8-0.3-1.6,0.3-2.4c-0.7-0.3-1.3-0.6-2-0.9c-1-0.5-2.1-0.9-2.4-2.2C2.2,130.4,2.1,129.9,2.2,129.6
		z M7.7,133.4c0-1.7-0.7-3.9-1.8-4.1c-0.3-0.1-2.5,0-1.3,1.3C5.5,131.6,6.5,132.4,7.7,133.4L7.7,133.4z"/>
	<path class="st5" d="M2.2,129.6c0.3-1.2,1.4-1.6,2.4-1.6c0.4,0,0.8-0.1,1.2,0c2.4,0.2,2.7,0.5,2.9,3.4c0,0.2,0.1,0.3,0.2,0.8
		c0.5-0.7,1.5-3.5,5.4-4.5c-0.3-0.7-0.8-1.5,0-2.2c0.3-0.2,0.9-0.2,1.1,0c0.7,0.6,0.4,1.4-0.1,2.3c0.3,0.2,0.5,0.4,0.8,0.5
		c1.1,0.6,2.2,1.3,3,2.5c0.3,0.5,1.1,0.7,1.7,0.7c0.9,0,2-0.2,2.9-0.5c1.2-0.4,2.3-0.9,3.4-1.5c1.2-0.7,2.4-0.5,3.6-0.4
		c0.2,0,0.9,0.6,1.1,0.7c-0.1,0.2-0.7,0.3-0.9,0.4c-3.4,0.8-5.7,3.7-8.4,5.8c-1.8,1.4-3.6,2.7-5.4,3.1c0.4,0.6,0.9,1.1,1.3,1.7
		c0.5,0.7,0.5,1.3-0.2,1.6c-1.2,0.6-5.4,0.8-7.1,0.2c-0.8-0.3-0.9-0.9-0.3-1.7c0.5-0.6,1.1-1.2,1.8-1.9c-1.8-0.5-3.2-1.6-4.2-3.4
		c-0.7,0.7-1.3,1.6-2.1,0.7c-0.8-0.8-0.3-1.6,0.3-2.4c-0.7-0.3-1.3-0.6-2-0.9c-1-0.5-2.1-0.9-2.4-2.2C2.2,130.4,2.1,129.9,2.2,129.6
		z M7.7,133.4c0-1.7-0.7-3.9-1.8-4.1c-0.3-0.1-2.5,0-1.3,1.3C5.5,131.6,6.5,132.4,7.7,133.4L7.7,133.4z"/>
	<path class="st3" d="M74.8,73.3l0.6-10.7c-8.9,1.6-16.4,0.6-16.9-2.3C60,68.9,59.1,72.8,74.8,73.3z"/>
	<path class="st5" d="M74.8,73.3l0.6-10.7c-8.9,1.6-16.4,0.6-16.9-2.3C60,68.9,59.1,72.8,74.8,73.3z"/>
	<polygon class="st7" points="74.5,69.1 74.5,69.1 74.5,69.1 	"/>
	<path class="st7" d="M65.1,68.8c1.8,0.3,4.5,0.4,8.6,0.7c-0.9,0.2-2.5,0.2-4.3,0C67.5,69.4,66,69.1,65.1,68.8z"/>
	<path class="st7" d="M69.5,67.8c2.7,0.2,4.9,0.8,5,1.3v0.1c0,0.2-0.4,0.3-0.8,0.4c-4.1-0.3-6.8-0.5-8.6-0.7
		c-0.5-0.2-0.7-0.4-0.7-0.5C64.4,67.7,66.7,67.5,69.5,67.8z"/>
	<path class="st8" d="M64.3,68.2c0,0.2,0.3,0.4,0.7,0.5c-3.2-0.5-3.5-1.5-4.1-4.8c0.3,1.8,6,3.5,13.7,2.1l-0.2,3
		c-0.1-0.5-2.3-1.1-5-1.3C66.7,67.5,64.4,67.7,64.3,68.2z"/>
	<path class="st9" d="M73.7,69.5c0.2,0,0.5,0,0.8,0.1l0-0.4v-0.1l0.2-3c-7.7,1.4-13.4-0.3-13.7-2.1c0.5,3.4,0.8,4.3,4.1,4.8
		C66.9,69.1,69.5,69.2,73.7,69.5z"/>
	<polygon class="st4" points="72.6,65.6 66.5,61.9 70.2,58.7 	"/>
	<ellipse transform="matrix(0.9687 -0.2481 0.2481 0.9687 -11.9982 17.9242)" cx="65.1" cy="56.6" rx="0.9" ry="1.4"/>
	<ellipse transform="matrix(0.9687 -0.2481 0.2481 0.9687 -11.9982 17.9242)" class="st1" cx="65.1" cy="56.6" rx="0.9" ry="1.4"/>
	<ellipse transform="matrix(0.3707 -0.9287 0.9287 0.3707 -7.8555 102.7679)" cx="71.9" cy="57.2" rx="1.1" ry="0.7"/>
	<ellipse transform="matrix(0.3707 -0.9287 0.9287 0.3707 -7.8555 102.7679)" class="st1" cx="71.9" cy="57.2" rx="1.1" ry="0.7"/>
	<polygon class="st10" points="71,108.3 56.3,104.6 57.5,97.7 71.5,105.2 	"/>
	<polygon class="st10" points="70.3,112.1 55.2,111.1 55.7,108.1 70.7,110 	"/>
	<polygon class="st11" points="70.7,110 55.7,108.1 56.3,104.6 71,108.3 	"/>
	<polygon class="st12" points="71.5,105.2 57.5,97.7 56.3,104.6 55.7,108.1 55.2,111.1 70.3,112.1 70.7,110 71,108.3 	"/>
	<line class="st12" x1="55.7" y1="108.1" x2="70.7" y2="110"/>
	<line class="st12" x1="56.3" y1="104.6" x2="71" y2="108.3"/>
	<polygon class="st10" points="70.6,104.1 85.4,105.9 85.4,102.7 70.6,101.9 	"/>
	<polygon class="st11" points="70.6,101.9 85.4,102.7 85.4,99 70.6,100.1 	"/>
	<polygon class="st10" points="70.6,100.1 85.4,99 85.4,91.7 70.7,96.9 	"/>
	<polygon class="st12" points="70.7,96.9 85.4,91.7 85.4,99 85.4,102.7 85.4,105.9 70.6,104.1 70.6,101.9 70.6,100.1 	"/>
	<line class="st12" x1="85.4" y1="102.7" x2="70.6" y2="101.9"/>
	<line class="st12" x1="85.4" y1="99" x2="70.6" y2="100.1"/>
</g>
</svg>
