<?xml version="1.0" encoding="utf-8"?>
<!-- Generator: Adobe Illustrator 21.0.0, SVG Export Plug-In . SVG Version: 6.00 Build 0)  -->
<svg version="1.1" id="Calque_1" xmlns="http://www.w3.org/2000/svg" xmlns:xlink="http://www.w3.org/1999/xlink" x="0px" y="0px"
	 viewBox="0 0 193.6 188.1" style="enable-background:new 0 0 193.6 188.1;" xml:space="preserve">
<style type="text/css">
	.st0{fill:#6B0303;}
	.st1{fill:#FFFFFF;}
</style>
<g>
	<path class="st0" d="M187.8,118.9c-0.6,0.4-1.3,0.7-1.9,1.1c-0.7,0.1-1.2,0.4-1.9,0.5l1.7,1.5c0,0.6,0,1.1,0,1.5
		c-0.4,1.1-0.7,2.3-1.1,3.3l-0.3,0.7c-0.4,0.9-0.8,1.6-1.1,2.3c-0.7,0.1-1.4,0.3-2.1,0.4c-0.6,0.4-1.2,0.8-1.6,1.4
		c0.6,0.7,1.2,1.1,1.9,1.6c-0.5,0.7-0.9,1.1-1.4,1.8c-0.5,0.2-1.2,0.4-1.7,0.6l0.4,1.2l0.4,1c-1.5,2.8-3.1,5.5-4.5,8.5
		c-3.2,4.2-6.6,8.3-9.9,12.5c-1.9,1.6-3.5,3.4-5.4,5c-1.7,1.6-3.7,2.9-5.5,4.7c-2,1.3-4,2.6-5.8,4c-2.9,1.4-5.3,3.1-8.4,4.4
		c-0.6,0.4-1.3,0.7-1.9,1.1c-0.7,0.1-1.5,0.5-2.1,0.6c-3.4,2-7,3.1-10.8,4.1c-2.3,1-4.4,1.4-6.8,1.7c0.1-0.8,0.2-1.4,0.3-2.2
		c0.7-0.1,1.6-0.2,2.3-0.5c0.9-0.1,1.5,0,2.4-0.3c0.3-0.7,0.8-1.6,1.3-2.2c-0.6-0.7-1.1-1.1-1.6-1.9c0.3-0.7,0.4-1.5,0.7-2.3l2.3-1
		c1-1.3,2-2.8,2.7-4.2c2.8-1.2,5.5-2.6,8.3-3.8c4.8-2.9,9.2-6,13.9-9.2c1.1-1.1,2.4-2.2,3.6-3.2c1.1-1.2,2.3-2.5,3.5-3.4
		c3.4-4.1,6.8-8,10-12l0.9-2.2c0.6-0.4,1.2-1,1.8-1.4c0-0.6,0.1-1.2,0.3-1.8c0.4-0.5,1.1-1.2,1.6-1.9c0.4-0.9,0.7-1.6,1.1-2.3
		c0.3-0.7,0.4-1.5,0.7-2.3l1.7-2.1c0.9,0.4,1.6,0.8,2.3,1.1c0.5,0.4,0.9,0.8,1.6,1.3c0.3-0.7,0.6-1.5,1.1-2.1c-0.1-0.9,0-1.7,0-2.5
		c-0.6-0.7-1.2-1.1-1.8-1.8c-0.3-0.8-0.7-1.3-1-2.1c-0.1-0.9-0.1-1.7,0-2.5c0.2-0.5,0.4-1.1,0.9-1.7c-0.1-0.7-0.5-1.5-0.5-2.3
		c0.6-1.9,1.1-3.8,1.7-5.8c-0.1-0.9,0-1.7,0-2.5c0.5-0.2,1.1-0.6,1.4-0.9c0-0.6-0.2-1.1-0.1-1.7c-0.1-0.7-0.5-1.5-0.5-2.3
		c-0.3-0.8-0.5-1.5-0.6-2.1c0-4.2,0-8.3-0.2-12.6l0.7,0.5l0.7-0.1c0.2,1.6,0.7,3,1.3,4.6c0.7,0.5,1.5,1,2.1,1.5
		c0.9,0.4,1.7,0.5,2.6,0.8c0.4,0,1.1-0.2,1.6-0.2c-0.3-0.8-0.7-1.3-1-2.1c-1.5-1-3.2-2.1-4.6-3.2c-0.4-0.6-0.7-1.3-1.1-1.9
		c0.3-0.7,0.4-1.5,0.7-2.3c-0.9-0.4-1.6-0.8-2.4-1.4c-0.6-0.7-1.2-1.1-1.8-1.8c-0.1-0.9-0.2-1.6-0.1-2.4c-0.5-1.5-0.9-2.9-1.1-4.7
		c-0.5-1.5-0.9-2.9-1.4-4.4c-0.6-1.5-1.2-2.8-1.7-4.3c-0.7-0.3-1.6-0.8-2.3-1.1c0.1-0.8,0.4-1.5,0.6-2.5c-0.3-0.8-0.7-1.3-1-2.1
		c-0.4-0.6-0.7-1.3-1.1-1.9c-0.7,0.1-1.3,0.1-2.1,0c-0.4-1.6-0.7-3-0.8-4.8c-0.3-0.8-0.5-1.5-0.8-2.2c-0.6-0.7-1-1.2-1.3-2
		c-0.8-0.1-1.6-0.2-2.4-0.3c-0.6-0.7-1-1.2-1.4-1.8l-1-2.3c-0.1-0.7-0.5-1.5-0.5-2.3c-0.6-0.7-1.1-1.1-1.6-1.7
		c-0.7,0.1-1.3,0.1-2.1,0c-0.7-0.5-1.5-1-2.1-1.5c-0.3-0.9-0.5-1.9-0.5-2.9l-2.1-1.7c-0.6-0.7-1.1-1.1-1.6-1.9
		c-2.4-1.4-4.5-3.1-6.5-4.8c-2.5-1.2-5-2.9-7.4-4.3c-0.9-0.4-2-0.8-2.8-1.4c-0.9-0.4-2.1-0.6-3-1c-0.8-0.5-1.5-1-2.3-1.6
		c-0.9-0.4-2.1-0.6-3-1c-1-0.2-1.9-0.6-2.9-0.7c-2-0.2-3.9-0.7-5.7-1.5c-4.4-0.5-8.9-1.5-13.4-1.8c-0.9,0.1-1.7,0.1-2.6,0.2
		c-0.8-0.1-1.8-0.3-2.7-0.2c-3.6,0.5-7.3,0.2-10.9,0.9c-3.6,0.5-7,1-10.5,1.9c-2,0.9-4.4,1.4-6.5,2.4c-0.7,0.1-1.5,0.5-2.1,0.6
		c-1.9,1.1-4,2.2-6.3,3c-4.7,2.7-9.9,5.1-13.7,8.8c-0.8,0.3-1.5,0.5-2.2,0.8c-0.6,0.4-1.3,0.7-1.9,1.1l-0.8,2
		c-0.8-0.1-1.8-0.3-2.7-0.2c-0.5,0.7-0.7,1.2-1.2,1.8l0.6,1.5c-0.7,0.6-1.1,1.2-1.6,1.9c-0.7,0.1-1.5,0.5-2.3,0.5
		c-0.3,0.3-0.7,0.6-1.1,1.1c0.1,0.7,0.1,1.3,0.2,2c-0.7,0.6-1.2,1-1.8,1.4c-0.8-0.1-1.6-0.2-2.4-0.3l-0.6,2.1
		c0.1,0.7,0.3,1.4,0.4,2.1c-0.2,0.5-0.6,1-0.9,1.7C27,52,24.9,56,23.1,60.4c-0.5,0.7-1,1.3-1.2,2c-0.4,0.9-1,1.9-1.4,2.8l-0.8,1.6
		c-0.6,0.4-1.3,0.7-1.9,1.1c0.2,0.5,0.4,1.2,0.6,1.7l0.1,2.4c-0.6,0-1.2-0.1-1.9,0.1c0.4,0.6,0.9,1,1.5,1.5c-0.4,2.6-1,5.1-1.2,7.7
		c-0.7,0.6-1.1,1.1-1.6,1.4l-1.2,2c-0.2,1.6-0.3,3.3-0.1,5l0.4,1l0.6,1.1l-0.9,2.2c-0.1,0.8-0.3,1.8-0.6,2.5l0.6,2.1
		c0.2-0.5,0.6-1,0.8-1.6c0.1,0.7,0.5,1.5,0.6,2.1c-0.7,0.1-1.3,0.5-2,0.7c-0.4,0.9-0.7,1.8-0.9,2.8c0.6,0,1.4,0.2,2,0.4
		c-0.7,0.6-1.1,1.1-1.6,1.4l-0.1,0.8l0,0.6c0.4,0.6,0.8,1.2,1.4,1.8l-0.5,0.2l-0.3,0.3c0.8,0.7,1.5,1.5,2.6,1.9l0.7,0.3
		c-1.3,0.7-2.7,1.4-4.2,1.9l2.2,0.9c0.1,0.7,0.5,1.5,0.6,2.1c1.2,1.1,2.5,2.1,4.1,2.9c0.5,1.5,0.9,2.9,1.7,4.3
		c-0.6,0.4-1.4,0.9-2,1.3c0.1,0.7,0.2,1.6,0.5,2.3c0.7,0.5,1.2,0.7,1.8,1.2c0.5,0.2,1.3,0.3,1.9,0.6c0.1,0.9,0,1.7,0,2.5
		c0.4,0.6,1,1.2,1.4,1.8c-0.5,0.7-0.7,1.2-1.2,1.8l-1.5,0.6c0.5,1.3,1.3,2.4,1.9,3.5c1.7,0.5,3.4,1,5.2,1.3c0.3,0.3,0.7,0.9,1,1.2
		l0,0l0.2,0.1l0.9,0.8c0.2,0.1,0,0,0.1,0.3l0,0c-0.1,0.2-0.3,0.1-0.3,0.1l-0.2-0.1c1.2,1.8,2.6,3.4,4,5.2c0.1,0.7,0.3,1.4,0.4,2.1
		c0.3,0.8,0.9,1.4,1.3,2c0.6,0,1.5,0,2.1,0l0,0.4l0.2,0.5l-0.4,2c0.9,0.4,1.7,0.9,2.6,1.3c0.7,0.5,1.5,1,2.1,1.5
		c0.7-0.1,1.3-0.1,2-0.2c0.7,0.3,1.5,0.6,2.3,0.7c0.3,0.8,0.7,1.3,1.1,1.9c0.3,0.8,0.5,1.3,0.9,1.9c0.8,0.1,1.7,0,2.5,0.2
		c1,1.2,2.2,2.4,3.4,3.5c5.4,2.2,10.6,5.1,16.2,7c0.8,0.5,1.6,0.8,2.2,1.3c0.1,0.9,0,1.7,0,2.5c-0.1,0.8,0,1.7-0.2,2.5
		c1.7,0,3.2,0.5,4.9,0.5c0.7-0.1,1.6-0.2,2.3-0.5c0.2-0.5,0.4-1.1,0.9-1.7c-0.6-0.7-1-1.2-1.4-1.8c1.3,0.3,2.8,0.5,4.3,0.5
		c0.7-0.1,1.6-0.2,2.3-0.5l0.8,1.6c-0.1,0.8-0.2,1.6-0.3,2.4c-0.3,0.7-0.4,1.5-0.5,2.3l-0.8,2c0.8-0.3,1.4-0.9,2.1-1.5
		c0.3-1.8,0.5-3.4,0.8-5.2c0.2-0.5,0.7-1.2,0.9-1.7c4.4,0.5,9.1,0.1,13.4-0.3c4.4-0.3,8.8-1.3,12.8-2.4c0.6,0,1.4,0.2,2,0.2
		l-1.2,1.8c-0.2,0.5-0.2,1-0.4,1.5c-0.3,0.7-0.8,1.4-1.1,2.1c-0.8,0.3-1.3,0.7-2.1,1c-0.7,0.1-1.6,0.4-2.3,0.5
		c-0.7-0.5-1.5-1-2.1-1.7c-0.9-0.4-1.6-0.7-2.3-1.1c-0.6,0.4-1.3,0.7-1.9,1.1c0.4,0.6,0.7,1.3,1.1,1.9c0.8,0.1,1.6,0.2,2.3,0.5
		c0.7,0.3,1.5,0.6,2.4,0.8c0.4,0.6,0.7,1.3,1.3,2c-0.5,0.7-1,1.3-1.6,1.9c-1.6,0.2-3.1,0.4-4.7,0.6c-0.9-0.4-1.7-0.5-2.6-0.8
		c-0.7,0.1-1.5,0.5-2.3,0.5c-0.7-0.5-1.2-1.1-1.9-1.6c-2.1,1-4.1,1.7-6.4,2.3c-2.5,0-4.9-0.3-7.6-0.5l-0.3-0.3l-0.1-0.3l0.6-0.4
		c-0.4,0-1.1,0-1.7,0.1c-0.8,0.3-1.5,0.5-2.2,0.8c-0.8-0.1-1.8-0.3-2.7-0.2c-0.9-0.4-1.9-0.6-2.8-0.9c-1-0.2-1.9-0.6-2.9-0.7
		c-0.8-0.1-1.8-0.3-2.6-0.4l-0.4-1l-0.4-1l0.9-2.2c-0.4-0.6-0.7-1.3-1.1-1.9l-2.3,0.4c-0.5,0.7-0.9,1.1-1.4,1.8
		c-0.7,0.6-1.2,1-1.7,1.6c-5.1-2.1-10.9-4.4-15.5-7.7l-0.1,0.4l0,0.4l-0.5,0.8c-0.3-0.3-0.8-0.7-1.1-0.9c-1.8-0.7-3.6-1.7-5.2-2.8
		c0.6-0.4,1.1-0.6,1.5-1.1c-0.7-0.5-1.1-1.1-1.7-1.5c-0.7-0.5-1.5-1-2.1-1.7c-0.7,0.1-1.6,0.4-2.3,0.5c-0.6-0.7-1.2-1.1-1.8-1.8
		c-0.1-0.7-0.1-1.3-0.2-2c-0.6-0.7-1.2-1.1-1.8-1.8c-0.7,0.1-1.3,0.5-2,0.7c-0.6-0.7-1-1.2-1.4-1.8c-0.1-0.7-0.2-1.6-0.4-2.3
		l-1.3,0.7c-0.2-0.5-0.3-0.9-0.4-1.6c-0.4-0.6-0.5-1.3-0.9-1.9l-1.6-1.9c-0.3,0.3-0.8,0.5-1.3,0.7c-0.5-0.4-1.1-0.9-1.6-1.3
		c-0.3-0.8-0.7-1.3-1-2.1c-1-0.2-1.8-0.3-2.8-0.5c0-0.6-0.2-1.1-0.1-1.7c0.8-0.3,1.3-0.7,1.9-1.1l1.2-1l-0.6-0.7
		c-0.9,0.1-1.7,0-2.5-0.2c-0.4-0.6-1-1.2-1.3-2l-0.5-2.3c0.3-0.1,0.6-0.4,0.7-0.6l0.3-0.3l0.3-0.3c-0.5-0.2-1.2-0.3-1.7-0.5
		l-2.4,0.3c-0.6-0.7-1-1.2-1.4-1.8c0.8-0.3,1.3-0.7,1.9-1.1c0.4-0.5,0.9-0.7,1.3-1.2c-0.4-0.6-0.7-1.3-1.1-1.9
		c-0.1-0.7-0.5-1.5-0.5-2.3c-0.4,0-0.9,0.1-1.1,0.2c-0.9-0.4-1.7-0.5-2.6-0.8c-0.2-0.5-0.3-0.9-0.5-1.5c0.6-0.4,1.2-1,1.8-1.4
		l-0.2-1.1l0.1-1.2c-0.8-0.1-1.4-0.2-2.2-0.3l-1.5-0.6c0.8-0.3,1.3-0.7,2.1-1c0.1-0.8,0.2-1.4,0.3-2.2c-0.3-0.8-0.5-1.5-0.6-2.1
		l-1.6-0.7c-0.9,0.1-1.7,0-2.5,0c-0.1-0.7-0.5-1.5-0.5-2.3c0.6-0.4,1.2-0.8,1.9-1.1l1.4-1.3c-0.4-0.6-0.7-0.9-0.9-1.4L7,111.6
		l-0.1-0.7l-0.2-0.5l0-0.4c-0.9,0.1-1.6,0.2-2.3,0.4c-0.8-0.1-1.6-0.2-2.3-0.5l0.8-2c0.1-0.8,0.2-1.6,0.2-2.5
		c-0.1-0.7-0.2-1.6-0.4-2.3c0.6-0.4,1.2-0.8,1.9-1.1c0.3-1.2,0.7-2.3,1.2-3.5c0.1-0.8,0.2-1.6,0.3-2.4l-0.3-0.3l-0.2-0.5
		c-0.2-0.1-0.4,0-0.6,0c-0.3-0.8-0.7-1.3-1-2.1l0.4-2c0.6-0.4,1.2-1,1.8-1.4c-0.3-0.8-0.5-1.5-0.6-2.1c-0.7-0.3-1.2-0.7-1.8-1.2
		l1.7-1.6c0.2-0.5,0.6-1,1.1-1.7c-0.3-0.8-0.5-1.5-0.8-2.2c0.3-0.7,0.7-1.6,1.1-2.3c-0.3-0.8-0.5-1.5-0.8-2.2
		c0.6-0.4,1.1-1.1,1.6-1.4l-0.4-2.1c0.5-0.7,1-1.5,1.3-2.2c-0.5-0.4-0.9-0.8-1.3-1.4c0.3-0.7,0.3-1.3,0.6-2.1c0.7-0.6,1.2-1,2-1.3
		c2.9-7.1,5.1-14.6,9.9-20.7c2.4-4.8,6.2-8.9,9.6-13.2c0.7-0.6,1.1-1.1,1.7-1.6c2.6-3.2,6-5.8,8.9-8.4c3-2.6,6.5-4.6,9.6-6.9
		c2.1-1,4.1-2.3,6.2-3.2c0.6-0.4,1.2-1,2-1.3c2-0.9,4.3-1.8,6.4-2.7c2.3-0.5,4.4-1.4,6.6-2.2c4.3-0.8,8.3-2.3,12.6-2.9
		c4.5-0.7,8.8-0.9,13.2-1.4c3.3,0.3,6.7,0.2,10,0.3c2.7,0.7,5.3,0.9,8,1.1c1.6,0.2,3.4,0.5,5.2,0.8c1.1,0.4,2,0.8,3,1
		c0.8,0.1,1.8,0.3,2.7,0.2c2.9,1.2,6,2.4,9,3.4c1.7,0.9,3.7,1.9,5.5,2.6c2.6,1.5,4.9,3,7.5,4.3c2.1,1.7,4.4,3.3,6.5,4.8
		c1.2,1.1,2.6,2.3,4.1,3.4l-0.6,1.5c0.3,0.3,0.8,0.7,1.1,1.1l2.2-0.2c0.1,0.7,0,1.5,0.2,2.2c0.3,0.8,0.7,1.3,1.1,1.9l0-0.6
		c0-0.6,0.3-1.3,0.4-2c0.6,1.1,1.3,2,2,2.9l0.8,0.7c-0.4,0.5-0.7,0.8-1,1.3c0.6,0.7,1.2,1.1,1.8,1.8c0.7-0.1,1.3-0.1,2-0.2l-0.7,1.8
		c0,0.4,0.3,0.9,0.5,1.3c0.5,0.4,1,0.6,1.7,1.1l-0.1,0.8l0.1,0.7c0.5,0.4,0.9,0.8,1.5,1c-0.2-0.5-0.3-0.9-0.3-1.4
		c0.5,0.2,1.2,0.3,1.8,0.3c0.4,0.6,0.7,1.3,1.3,2l-0.4,0.5l-0.4,0.5c0.4,0.6,0.9,1,1.3,1.4l2,0.8c-0.1,0.8-0.2,1.4-0.3,2.2
		c0,0.6,0.2,1.1,0.2,1.6l0.7,0.5l0.8,0.5c0.6,0,1.2,0.1,1.9,0.1c0.3,0.8,0.5,1.5,0.8,2.2l1.3,2c0.1,0.7,0.5,1.5,0.6,2.1
		c0.3,0.8,0.7,1.3,1.1,1.9c-0.3,0.7-0.8,1.4-1.1,2.1l0.2,2.2c0.6,0.7,1,1.2,1.6,1.9c0.5,0.2,1.3,0.3,1.9,0.6l-0.3,1.3l-0.7,1.8
		c0.7,0.3,1.5,0.6,2.3,0.7l0.4,1.2l0.5,1.3c0.2,1.6,0.7,3,1.1,4.5c-0.1,1.9-0.2,3.5-0.5,5.3c0.1,0.7,0.2,1.6,0.5,2.3
		c0.4,0.6,0.7,1.3,1.3,2c0,1.7,0.2,3.2,0.6,4.9c-0.1,3.3-0.4,6.6-0.7,10.1c-0.5,0.2-1.2,0.4-1.8,0.8c-0.7,0.1-1.6,0.4-2.3,0.5
		c-0.3,0.7-0.5,1.3-0.6,2.1c-0.5,0.7-0.8,1.4-1.2,2l-1.2,0.8c0.6,0,1.1-0.2,1.7-0.1c1.4,1.2,2.7,2.2,4.1,3.4c0,1.7,0,3.2,0.1,4.9
		c-0.4,0.9-0.6,1.9-0.7,2.9L187.8,118.9z M11,69.4c0.2-0.5,0.1-0.8-0.1-0.7l-0.4,0L11,69.4z M21,49c-0.6,0.4-1.2,0.8-1.6,1.3
		c0.9-0.3,1.3-0.5,1.4-0.9L21,49z M11.4,74.2l0.1-0.4c-0.6,0.4-1.2,0.8-1.6,1.3c-0.1,0.2-0.5,0.7-0.7,0.8C9.2,76.1,9,76.5,9,76.5
		l0.2,0.1c0.7-0.6,1.2-1,1.4-1.3C10.9,74.9,11.3,74.4,11.4,74.2L11.4,74.2z M19.1,56.2L19.1,56.2L19.1,56.2l0.1-0.4l-0.6,0.4
		c-0.6,0.4-1.5,1.1-1.7,1.6c0.8-0.5,1.3-0.7,1.7-1C18.8,56.5,19,56.4,19.1,56.2L19.1,56.2z M23.9,46.1c0-0.6,0.2-1,0.1-1.2
		c0.1-0.2-0.6-2.1-0.9-1.4c-0.1,0.2,0.1,0.9,0,1.1c0.1,0.3,0.3,0.9,0.4,1.2L23.9,46.1z M17.8,64.8L17,64.5c-0.4-0.1-1-0.2-1.4-0.2
		c-0.4,0-0.9,0.1-1.2,0.4L14.1,65C15.5,64.7,16.5,64.7,17.8,64.8z M21,51.7c0.1-0.4-0.1-0.7-0.3-0.8l-0.5-0.4
		C20.3,50.8,20.6,51.5,21,51.7L21,51.7z M24.8,48L24.8,48c-1-0.2-1.8-0.3-2.6-0.8c-0.2-0.1-0.3-0.3-0.5-0.4
		c-0.1,0.2,0.5,0.4,0.5,0.4c0.1,0.3,0.2,0.1,0.1,0.3C22.5,47.9,23.2,48.2,24.8,48L24.8,48z M24.6,42.2c0.1-0.8,0-1.5,0-2.1l-0.5,0.7
		c-0.1,0.4-0.1,0.8,0,1.1L24.6,42.2z M14.7,67.6l-0.4-0.1c-0.2-0.1-0.4,0-0.7,0.1l-0.3,0.3L14.7,67.6z M16.8,63.5L16.8,63.5
		L16.8,63.5c0.1-0.2-0.5-0.4-0.7-0.3l-0.6,0c0.4,0.1,0.5,0.2,0.9,0.4C16.4,63.6,16.5,63.6,16.8,63.5C16.7,63.7,16.7,63.7,16.8,63.5
		L16.8,63.5z M18.1,59.8L18.1,59.8L18.1,59.8c0.1-0.2-0.4-0.1-0.7,0.1c-0.3,0.1-0.6,0.4-0.6,0.4l0,0C17.2,60.3,17.8,60.1,18.1,59.8
		L18.1,59.8z M13.3,72.7c0.3-0.7,0.1-1.2-0.1-1.3L12.9,71C12.9,71.5,13.2,72.4,13.3,72.7L13.3,72.7z M7.7,84.4
		c0-0.6,0.3-1.3,0.6-1.9L7.9,83C7.9,83.4,7.9,84,7.7,84.4z M21.8,50.1L21.8,50.1c0,0,0.1-0.2-0.1-0.3c-0.2-0.1-0.3,0.1-0.3,0.3
		l-0.2,0.5C21.4,50.6,21.7,50.3,21.8,50.1L21.8,50.1z M17.4,66.3l-0.4,0c-0.2-0.1-0.7,0.1-1,0.4c-0.3,0.3-0.7,0.6-0.7,0.6l-0.1,0.2
		c0.9-0.3,1.3-0.7,1.6-0.8L17.4,66.3z M28.5,38.9c0,0-1.2-0.1-1.1,0l0.1,0.3L28.5,38.9z M26.5,44.8c-0.3,0.1-0.8,0.3-1,0.4
		c-0.3,0.1-0.6,0.4-0.7,0.6l-0.3,0.7c0.8-0.5,1.3-0.7,1.5-1.1L26.5,44.8z M14.7,73.3L14.7,73.3L14.7,73.3c0-0.4-0.6,0-1.1,0.6
		c-0.6,0.4-0.9,1.1-0.7,1.2l0.4,0C13.8,74.6,14.5,74,14.7,73.3L14.7,73.3z M15.1,77.6l-0.6,0c-0.2-0.1-0.9,0.1-1.1,0.2
		c-0.3,0.1-0.8,0.3-1.2,0.4c-0.4,0-0.8,0.3-0.9,0.7l0,0.4C12.6,79,13.9,78.4,15.1,77.6z M18.7,63c0.1-0.4,0.2-0.5,0-1.1l-0.2-0.5
		l-0.1,0.8c0,0.4,0.1,0.7,0.1,0.9l0.1,0.3L18.7,63z M26.6,43.6L26.6,43.6c0.1-0.2,0.1-0.2,0-0.4c-0.1-0.9-0.7-0.5-0.5,0.2l0,0.4
		C26.2,43.9,26.5,43.8,26.6,43.6L26.6,43.6z M30.4,34.2C30.4,34.2,30.5,34,30.4,34.2c0.1-0.2,0.1-0.2,0-0.4l-0.2-0.5l-0.3,1.2
		C30.1,34.5,30.3,34.4,30.4,34.2L30.4,34.2z M22.2,57.5l-0.3-0.3c-0.2-0.1-0.5-0.4-0.6-0.7c-0.1-0.3-0.4-0.1-0.5,0.2l0,0.4
		L22.2,57.5z M25.4,48.4c0.2-0.5,0.2-1,0-1.1l-0.3-0.3L25.4,48.4z M25.2,49.6C25.3,49.4,25.3,49.4,25.2,49.6c0.1-0.4,0-0.6-0.1-0.9
		l-0.4,0.5c-0.1,0.2-0.2,0.5,0,0.6l0.1,0.3C24.9,49.9,25.1,49.8,25.2,49.6L25.2,49.6z M13.4,83.5l-0.7-0.3c-0.4-0.1-0.7-0.3-1-0.2
		l-0.4,0c0.9,0.4,1.3,0.3,1.7,0.5L13.4,83.5z M28,44.6c-0.1-0.3-0.1-1.9-0.4-2.1c-0.2-0.1-0.5,1.3-0.4,1.1c0,0.6-0.1,1.2,0.4,1.2
		L28,44.6z M10.2,89.8L10.2,89.8c0,0-0.4-0.1-0.7-0.3l-0.8-0.1C9.1,89.8,9.7,89.8,10.2,89.8L10.2,89.8L10.2,89.8z M21.2,62L21.2,62
		c0.1-0.4,0-0.6-0.4-0.6L20,61.3l0.8,1.2C21.2,62,21.2,62.1,21.2,62L21.2,62z M26,52.3L26,52.3c0.1-0.2,0.1-0.2-0.3-0.3
		c-0.4-0.1-0.7-0.3-0.8-0.5l0-0.6l-0.1,0.8c0,0.4-0.1,0.8-0.4,1.1c-0.1,0.2-0.4,0.5-0.4,0.5l0,0c1,0.2,1.6-0.2,1.7-0.6
		C26,52.3,25.9,52.4,26,52.3L26,52.3z M12.4,85.4L12.4,85.4c0.1-0.2,0.1-0.4,0-0.6c0-0.4-1.2-1.3-1.2-0.7c0.1,0.3,0.2,0.5,0.6,0.7
		c0.4,0.1,0.5,0.4,0.2,0.5c-0.1,0.2-0.1,0.4,0,0.4l0.2,0.1C12.2,85.8,12.1,86,12.4,85.4L12.4,85.4z M30.9,38.6l-0.3,0.1
		c-0.3,0.1-0.6,0.4-0.8,0.5L30.9,38.6z M16.3,76.2C16.4,76,16.4,76,16.3,76.2c0.1-0.4-0.2-0.5-0.7-0.5c-0.3,0.1-0.6,0.4-0.7,0.6
		l0,0.4C15.5,76.7,16,76.5,16.3,76.2L16.3,76.2z M15.8,80.5l-0.6,0c-0.6,0-1.4,0.3-2,0.7l0.2,0.1c0.9-0.3,1.6-0.4,1.8-0.3L15.8,80.5
		z M22.2,60l0.3-1.2L22.2,59c-0.1,0.2-0.1,0.4,0,0.6L22.2,60z M10.6,91.3l-0.6,0c-0.2-0.1-0.4,0-0.5,0.2l0.1,0.3L10.6,91.3z
		 M37.5,29c-0.7,0.1-1.5,0-2.3,0.4c-0.3,0.1-0.5,0.2-0.3,0.3l0.3,0.3c0.8-0.3,1.3-0.5,1.7-0.6L37.5,29z M8.9,96.1L8.9,96.1
		C9,95.9,9,95.9,9,95.9c0-0.6-0.7-0.9-0.5-0.2c0.1,0.3,0.2,0.5,0.1,0.7l0.1,0.3C8.8,96.2,8.7,96.4,8.9,96.1L8.9,96.1z M5.4,104.2
		c0.1-0.2,0.1-0.4,0-0.4c-0.2-0.1-0.3,0.1-0.3,0.3L5.4,104.2L5.4,104.2z M32.6,38.7L32,38.4c-0.2-0.1-0.5,0.2-0.5,0.2L31.4,39
		L32.6,38.7z M6.8,107l-0.7,0.1c-0.3,0.1-0.8,0.3-1.1,0.6c-0.3,0.3-0.6,0.4-0.7,0.6C5.1,108,5.9,107.5,6.8,107z M33.6,41.4
		c0.1-0.4,0.2-0.5,0-1.1c-0.1-0.3-0.6-0.7-0.8-0.7l-0.5-0.2l0.5,0.4c0.3,0.3,0.7,0.9,0.6,1.1L33.6,41.4L33.6,41.4z M36.1,36.3
		L36.1,36.3c0.2-0.5-0.3-0.8-1-0.6c-0.7,0.1-1.3,0.5-1.3,0.5l0.2,0.1C35.2,37,35.9,36.8,36.1,36.3L36.1,36.3z M36.3,32.7
		C36.3,32.6,36.3,32.6,36.3,32.7c0-0.4-0.3-0.3-0.3-0.3l-0.4,0L36.3,32.7L36.3,32.7z M8.6,104c-0.6,0-1.4-0.2-1.9,0.1l-0.3,0.1
		c1.1,0,1.7,0,1.9-0.1L8.6,104z M11.7,93.8l0-1.1l0,0.4C11.5,93.3,11.6,93.6,11.7,93.8L11.7,93.8z M41.6,24.3
		c-0.1-0.9-0.4-1.2-0.6-1.1c-0.2-0.1-0.3,0.3,0,0.4C41.1,23.9,41.4,24.3,41.6,24.3L41.6,24.3z M12.5,97.1c0.1-0.4,0.3-0.7,0-1.1
		l-0.2-0.5l-0.1,0.8c0,0.4,0.1,0.9,0.1,0.9l0.1,0.3L12.5,97.1z M40.5,31.1l-0.4,0c-0.2-0.1-0.4-0.6-0.4-1c0-0.4-0.1-0.9-0.1-0.9
		s-0.3,0.3-0.4,0.5c-0.1,0.4,0,1.1,0.1,1.3l0.4,0.6L40.5,31.1z M42,27l-0.8-0.1c-0.4-0.1-0.7,0.1-0.5,0.2l0.1,0.3L42,27z M45.2,21.6
		C45.3,21.4,45.2,21.6,45.2,21.6s-1.9,0.1-2,0.2l0.1,0.3c0.7,0.3,1.2,0.1,1.5,0C44.9,21.9,45.1,21.8,45.2,21.6L45.2,21.6z
		 M41.2,30.3c-0.1-0.9-0.1-1.3-0.2-1.6l-0.2-0.5l0.1,0.9c0,0.4,0.3,0.9,0.3,0.9L41.2,30.3z M11.6,105.4l-0.4,0
		c-0.2-0.1-0.4,0-0.7,0.1l-0.3,0.1L11.6,105.4z M50.5,24.1C50.5,24.1,50.6,24,50.5,24.1c0-0.6-0.7-0.9-1.1-1.1
		c-0.7-0.3-1.1-0.9-0.8-1.2c0.3-0.3,0.3-0.7-0.1-0.9c-0.4-0.1-0.8-0.5-0.9-1l-0.1-0.9l-0.5,1.3c-0.2,0.5-0.9,1.7-1.3,2.2
		c-0.4,0.5-1.3,1.2-1.6,1.3c-0.3,0.3,0,0.6,0.8,0.7l1,0.2c1.1-0.2,2.3-0.4,3.3-0.3c-0.8-0.1-1.4-0.2-2.2-0.3l0.5-0.2
		c0.3-0.3,1.1,0,1.6,0.2C49.7,24.7,50.3,24.7,50.5,24.1L50.5,24.1z M43.5,29.4l-1.1-1.9l-0.1,0.8c0,0.4,0.3,0.8,0.4,1l0.7,0.3
		L43.5,29.4z M11.5,113.2L11.5,113.2L11.5,113.2c0.1-0.4,0.1-0.8-0.1-0.9c-0.2-0.1-0.5-0.4-0.7-0.5c-0.4-0.1-0.6,0-0.7,0.1
		c0,0.6-0.3,1.3-0.6,1.9l0.1,0.3c0.8-0.3,1.3-0.5,1.5-0.6C11.1,113.5,11.4,113.4,11.5,113.2L11.5,113.2z M45.4,28.4
		c-0.2-0.1-0.9,0.3-0.9,0.3l0.2,0.1L45.4,28.4z M48.5,26.5L47.9,26c-0.3-0.3-0.9-0.4-1-0.2c-0.3,0.1-0.5,0.2-0.4,0.5l0.1,0.3
		c1.1,0,1.7,0,1.9,0.1L48.5,26.5z M15.1,122c-0.1-0.9-0.2-1.6-0.1-2.4c1.1-0.2,1-0.9,0.8-1.6c-0.2-0.5-1.1-1.5-1.7-2
		c-0.5-0.4-1.6-0.7-2.3-0.5c-1.3,0.1-2.4,1.2-0.4,1.5c0.6,0,1.6,0.7,2.1,1.1c0.4,0.6,1.2,1.8,1.3,2.4L15.1,122z M52.7,16.8
		L52.7,16.8c0.1-0.4,0.2-1,0.1-1.2c0-0.4-0.4-0.6-0.7-0.5c-0.3,0.1-0.5,0.7-0.4,1.1c0.1,0.3,0.3,0.9,0.2,1.1l0,0.4
		C52.1,17.6,52.4,17.3,52.7,16.8L52.7,16.8z M51.6,19.5c0.1-0.2,0.2-0.5,0.3-0.7l-0.3,0.1c0,0-0.3,0.3-0.7,0.6
		c-0.1,0.4-0.5,0.7-0.5,0.8l0,0.4C50.8,20.3,51.3,20,51.6,19.5L51.6,19.5z M55.7,20.3l-1,0.9c-0.4,0.5-1.2,0.8-1.6,0.8
		c-0.9,0.1-1.7,0.1-2.6,0.2c1.2,0.1,2.5,0.2,3.7,0.2L55.7,20.3z M59.1,19.6L59.1,19.6l-0.2-0.5c-0.1-0.3-0.2-0.5-0.3-0.8
		c0-0.4-1.2-1.1-1.5-1.5c-0.4-0.6-0.8-1.6-1.7-1.5c-0.4,0-0.7,0.6-0.3,1.3c0.1,0.7,0.6,1.7,0.8,1.8c0.6,0.7,1.4,1.2,2.1,1.7
		C58.6,19.8,59.1,19.8,59.1,19.6L59.1,19.6z M69.1,14.8c0.1-0.4,0.4-0.9,0.1-1.2c-0.1-0.3-0.8-1.2-1.4-1.8c-0.6-0.7-1.2-1.8-1.2-2.4
		c0-0.6-0.5-0.8-0.9-0.4c-0.6,0.4-0.8,0.9-0.5,1.3c0.3,0.3,0.3,0.9,0.3,1.4c-0.1,0.4,0.4,0.6,0.8,0.5l1.1,0c-2,1.3-4.2,2.5-6.2,3.8
		l0.4-0.9c0.2-0.5,0.9-1.1,1.2-1.4c0.3-0.3,0.5-1.3,0.1-1.9l-0.5-1.3l0,0.6c0.1,0.3-0.7,0.6-1.1,0.6c-0.4,0-1.3,0.1-1.8,0.3
		c-0.4,0-1,0.4-1.3,0.7c-0.3,0.1-0.4,0.9-0.2,1.4c0.3,0.9,1,1.7,1.4,2.7c0.2,0.5,0.5,1.5,0.2,2l-0.1,0.8c1-0.9,1.6-1.4,2-1.7
		s0.1-0.2,0.4-0.5c0.1-0.2,0.2-0.5-0.1-0.7l-0.4-0.6l0.2,0.1c0.2,0.1,0.5,0.2,0.8,0.1c0.4,0,0.9,0.4,1,0.6c0.3,0.3,1.1,0.4,1.8,0.3
		l1.5-0.5c-0.4-1.6-0.2-2.2,0-2.1c0.4,0,1,0.2,1.5,0.6C68,15.4,68.7,15.2,69.1,14.8L69.1,14.8z M17.2,121c0.1-0.2,0.2-0.5,0-0.6
		c-0.2-0.1-0.4,0-0.9,0.1c-0.3,0.1-0.7,0.6-0.7,0.8l0,0.4C16.3,121.7,16.9,121.3,17.2,121L17.2,121z M63.4,10.1
		c0.1-0.2,0.1-0.4-0.1-0.3c-0.2-0.1-0.7,0.1-0.9,0.1l-0.3,0.1C62.8,10.5,63.2,10.5,63.4,10.1L63.4,10.1z M19.8,122.3
		c0.1-0.4,0.2-0.5-0.1-0.9c-0.1-0.3-0.6-0.7-0.8-0.5c-0.2-0.1-0.3,0.3-0.3,0.7c0,0.4,0.3,0.9,0.4,1l0.3,0.3
		C19.5,122.6,19.8,122.4,19.8,122.3L19.8,122.3z M72.1,14.3c0.1-0.2,0.1-0.4,0.2-0.5c-0.6,0.4-1.1,0.6-1.6,0.8
		c0.4,0,0.9-0.1,1.3-0.1C72.1,14.3,72.1,14.3,72.1,14.3L72.1,14.3z M29.8,140.9l-0.4,0c-0.2-0.1-0.4,0-0.3,0.3l0.1,0.3L29.8,140.9z
		 M88.7,5.6L88.7,5.6c0.1-0.4,0.1-0.2,0-0.4c0.1-0.4-0.1-0.9-0.4-1c-0.2-0.1-0.5,0.2-0.7,0.6c0,0.4,0.1,0.9,0.1,1.3l0.2,0.5
		C88.2,6.2,88.5,6,88.7,5.6L88.7,5.6z M90.7,6.4c-0.7,0.1-4.1,1.3-4,1.5l0.1,0.3c1.9-0.5,2.7-1,3.1-1.3L90.7,6.4z M47.5,171.3
		l-0.7-0.5c-0.5-0.4-1.2-0.7-1.9-1c0.4,0.6,0.7,0.9,1.2,1.3l0.2,0.1L47.5,171.3z M118.6,12.2L118.6,12.2L118.6,12.2L118.6,12.2z
		 M121.2,12l-0.5-0.2c-0.4-0.1-0.8-0.1-1.1,0c-0.8,0.3-0.3,0.3-1,0.4c0.7,0.3,0.4,0.1,0.9,0.4c0.2,0.1,0.4,0.1,0.6,0l0,0
		c0.1-0.2,0.5-0.2,0.5-0.2L121.2,12z M73.7,178.8c0.1-0.4,0.3-0.7-0.1-0.9c-0.4-0.1-0.4,0-0.3,0.3L73.7,178.8L73.7,178.8z
		 M73.7,181.3c-0.2-0.1-1-0.2-1-0.2l-0.1,0.2L73.7,181.3z M141.8,20.6L141.8,20.6c0.3-0.7-1.6-0.7-1.9-0.6l-1,0.4
		c1.1,0,1.8,0.3,2,0.4C141.5,20.9,141.7,20.8,141.8,20.6L141.8,20.6z M141.2,17.4L141.2,17.4c0.1-0.2,0-0.4-0.3-0.3
		c-0.3,0.1-0.6,0.4-0.5,0.8l-0.1,0.8l0.2,0.1C140.7,18,141.1,17.6,141.2,17.4L141.2,17.4z M143.6,15.6L143.6,15.6
		c0.1-0.2,0.1-0.4-0.3-0.3c-0.2-0.1-0.4,0-0.3,0.3l0.5,0.4C143.5,15.8,143.5,15.8,143.6,15.6L143.6,15.6z M78.4,182.2L78.4,182.2
		c0.1-0.2,0.1-0.2,0-0.4c-0.6-1.7-3.2-1.1-1.9,0.1c0.4,0.1,0.7,0.5,0.7,0.5l0.2,0.1C77.6,182.5,77.9,182.4,78.4,182.2
		C78.2,182.3,78.2,182.3,78.4,182.2L78.4,182.2z M145.1,18.3l-0.6,0c-0.4-0.1-0.4,0-0.5,0.2l0,0.4L145.1,18.3z M144.3,22.7
		L144.3,22.7c0.1-0.2,0.1-0.2,0.1-0.4c0-0.4-0.1-0.7-0.1-0.9c0,0-0.4,0-0.7,0.1s-0.5,0.7-0.4,0.9l0.2,0.5
		C143.8,22.9,144.1,22.8,144.3,22.7L144.3,22.7z M80.6,181.6L80.6,181.6c0.1-0.2,0.1-0.2-0.1-0.3s-0.4,0-0.3,0.3s0,0.6,0,0.6
		l0.2,0.1C80.4,181.9,80.5,181.7,80.6,181.6L80.6,181.6z M151,24.9c0.4-1.5,0.1-2.3-0.4-2.7c-0.5-0.4-1.4-1.2-1.8-1.8
		c-0.2-0.5-0.5-1.5-0.1-1.7c0.1-0.4-0.1-0.7-0.8-0.7c-0.6,0-1.2,0.4-1.3,0.5c0,0.4,0.5,1.5,0.9,2c1,1.2,1.7,3,2.9,3.9L151,24.9z
		 M85.3,181.4L85.3,181.4c0.1-0.4-0.1-0.7-0.7-0.9c-0.5-0.2-1.5,0-1.7,0.6l-0.7,1.2l1-0.4C84.7,181.8,85.2,181.5,85.3,181.4
		L85.3,181.4z M148,24.6c0.1-0.4,0.2-0.5,0-1.1c0-0.4-0.4-0.6-0.7-0.5c-0.3,0.1-0.2,0.5-0.1,0.8c0.1,0.3,0.3,0.8,0.3,0.8l0.2,0.1
		L148,24.6z M148,26.1c-0.4-0.6-0.9-1-1.3-1.6l0.1,0.3c0.1,0.3,0.4,0.6,0.6,0.7L148,26.1z M86.9,180.1l-0.3-0.3
		c-0.1-0.3-0.1-0.7-0.1-0.9c0.4-0.5-0.7-0.9-0.7-0.3c-0.1,0.2,0,0.6-0.1,0.8l0,0.4L86.9,180.1z M150.5,27.9l0.3-0.7l-0.5,0.2
		c-0.3,0.1-0.3,0.3-0.1,0.4L150.5,27.9z M156.1,23c-1-0.6-1.7-0.9-2.3-1.1l-0.8-0.1l1.1,1.1c0.6,0.7,1.3,1,1.6,0.7L156.1,23z
		 M162,34.3L162,34.3c0.1-0.2,0.1-0.2,0.1-0.4c0-0.4-0.1-0.7-0.4-1c-1.3-1-3-1-4.4-1.6l1.1-0.2c0.5-0.2,1.3-0.5,1.4-0.9
		c0.3-0.3,0.3-1.2-0.1-1.7c-0.2-0.5-0.8-1.2-1.2-1.3c-0.4,0-1.2-0.1-1.9-0.1c-0.6,0-1.4-0.8-1.5-1.5c-0.1-0.7-0.7-0.9-1.2-0.7
		c-0.3,0.3-1.1,1.1-1.5,1.5c-0.4,0.5-0.3,1.3-0.2,2c-0.4,0-0.6,0-1.1,0l0.2,0.1l0.9-0.1l0,0c0.4,1,1.2,2.2,1.8,2.8
		c0.7,0.5,1.1,1.5,1.1,1.9c0,0.4,0.7,1.3,1.4,1.6l1.9,0.6c1.5,0.6,2.1,0.4,2.2,0.3c0.3-0.3,0.8-0.9,1.1-1.2
		C162,34.3,162,34.5,162,34.3L162,34.3z M163.5,33.2L163,33l-0.5-0.4l0.1,0.3l0.3,0.3L163.5,33.2z M171,45.1
		c-0.5-1.3-0.6-1.7-0.8-1.8c0,0,0.4-0.5,0.5-0.8c0.7-0.8-1.1-1.5-1.6-0.8c-0.1,0.4-0.2,1-0.2,1.4l0.1,0.7l-0.4-0.6
		c-0.3-0.3-0.7-1.3-1.1-1.9c-0.6-1.7-2.9-1.8-3.9-2.9c-0.4-0.6-1.2-0.7-1.5-0.4c-0.1,0.4-0.1,1.2,0.2,1.6c0.5,0.4,0.9,1,0.8,1.2
		c0.1,0.3,0.5,0.2,1.1,0l1-0.4l-0.4,1.1c-0.2,0.5,0,1.5,0.4,2.1c0.5,0.4,1.3,1,1.6,0.8c0.4,0,1.2,0.1,1.7-0.1l0.9-0.3
		c-0.4,0.5-0.9,1.1-1.3,1.6C169.4,45.3,170.3,45.2,171,45.1z M164.9,36.1L164.9,36.1c0.1-0.2,0.1-0.2,0.1-0.4c0-0.4-0.1-0.9,0-1.1
		s-0.3-0.3-0.5-0.2s-0.7,0.6-0.7,0.8c-0.1,0.4,0.1,0.7,0.3,0.9l0.3,0.3C164.5,36.5,164.8,36.4,164.9,36.1L164.9,36.1z M164.2,44.7
		c-0.1-0.9-0.5-1.5-0.6-1.7c-0.4-0.6-1.1-1.1-1.4-1.8l0.1,0.9c0,0.4,0.4,1,0.8,1.2c0.4,0.1,0.8,0.7,0.9,0.8L164.2,44.7z M166.8,37.7
		L166.8,37.7c0.1-0.2,0.1-0.4,0-0.4c0-0.4-0.4-0.6-0.5-0.2c-0.1,0.4-0.4,0.9-0.3,1.2l0.2,0.5C166.3,38.3,166.7,38,166.8,37.7
		L166.8,37.7z M174,48.6L174,48.6c0.1-0.4,0.3-0.7,0.1-1.2c-0.2-0.5-0.8-0.7-1.3-0.3c-1.2,0.8-0.9-1-1.9-1c-0.4,0-0.8,0.3-0.7,0.8
		c0,0.4,0.5,1.3,0.8,1.8s0.9,1,1.5,1l1,0.2C173.3,49.2,173.7,48.9,174,48.6L174,48.6z M169.3,49.3l0.4-1.1l-0.3,0.3
		c-0.1,0.2-0.1,0.4-0.1,0.4L169.3,49.3z M173.9,45.6l-0.2-0.1c-0.2-0.1-0.4-0.1-0.6,0l-0.5,0.2L173.9,45.6z M175.4,52.6L175.4,52.6
		c0.1-0.4,0.4-1.1-0.1-1.3c-0.3-0.3-0.8-0.1-0.9,0.3c-0.3,1.2-1.8-0.3-2.1-0.6l-0.8-0.7l0,1.1c0.2,0.5,0.6,1.7,1,2.3
		c0.4,0.6,1.1,0.9,1.7,0.5l0.9-0.7C175.3,52.7,175.2,52.9,175.4,52.6L175.4,52.6z M177.2,54.4L177.2,54.4c0.1-0.2,0.1-0.2,0.1-0.2
		c-0.2-0.1-0.4,0-0.9,0.1c-0.3,0.3-0.8,0.5-1.4,0.9c1,0.2,1.5,0,1.8-0.3C177,54.7,177.1,54.5,177.2,54.4L177.2,54.4z M176.4,56.2
		L176.4,56.2c0.1-0.2-0.3-0.3-0.7-0.3c-0.4,0-0.7,0.1-0.8,0.3l0.1,0.3C175.7,56.5,176.1,56.5,176.4,56.2L176.4,56.2z M175.2,61.2
		c-0.2-0.5-0.5-0.8-1-1.2l0.2,0.5C174.8,60.6,174.9,60.9,175.2,61.2z M179.4,50.4c-0.4,0-0.9,0.1-1.1,0L179.4,50.4z M180.2,60.9
		L180.2,60.9C180.3,60.7,180.3,60.7,180.2,60.9c-0.5-0.4-1.4-0.2-1.9-0.1c-0.2-0.1-0.5,0.2-0.7,0.6c-0.1,0.4-0.1,0.8-0.1,0.8
		l-0.1,0.2c0.5-0.8,1.2-0.8,1.4-0.9c0.4,0.1,1.1,0,1.2-0.4C180.1,61.1,180.1,61.1,180.2,60.9L180.2,60.9z M181.4,56.5L181.4,56.5
		c0.1-0.2-0.1-0.3-0.2-0.5c-0.3-0.3-0.5-0.2-0.7,0.1c0.1,0.3,0.1,0.7,0.1,0.7l0.2,0.1C181,56.8,181.1,56.6,181.4,56.5L181.4,56.5z
		 M178.5,63.1L178.5,63.1c0.1-0.2,0.1-0.4,0-0.4l-0.1-0.3l-0.5,0.7c-0.1,0.4-0.4,1.1-0.4,1.5c0,0.4,0,0.6-0.1,0.8l0.2,0.1
		C177.9,64.6,178.2,63.9,178.5,63.1L178.5,63.1z M181.6,64.2c-0.5,0.2-2.3,0.5-2.5,0.9c1.1,0,1.6-0.4,1.9-0.5L181.6,64.2z
		 M181.6,65.9l-0.3,0.3c-0.1,0.2-0.5,0.2-1,0.4c-0.4,0-0.9,0.1-0.9,0.1l-0.3,0.1c1,0.2,1.7,0,2-0.2L181.6,65.9z M181.8,71.5
		L181.8,71.5c0.1-0.2,0.1-0.2-0.1-0.3c-0.4-0.6-0.9-1-1.3-1.6c0.3,0.8,0.5,1.5,0.5,2.3C181.3,71.7,181.8,71.7,181.8,71.5L181.8,71.5
		z M182.7,69.9l-0.4-0.1c-0.2-0.1-0.4,0-0.6,0l-0.4,0L182.7,69.9z M183,73.2L183,73.2c-0.2-0.1-0.4,0-0.7,0.1
		c-0.5,0.2-1.1,0.6-1.5,1.1c0.8-0.5,1.3-0.7,1.8-0.8C182.7,73.5,182.8,73.3,183,73.2L183,73.2z M187.6,76.1c-0.6,0-1.3,0.1-2,0.2
		l-0.5,0.2C186.1,76.6,186.9,76.3,187.6,76.1z M163.1,148c0-0.6-0.1-0.7-0.1-0.7c-0.2-0.1-0.1,0.2,0,0.4L163.1,148z M167.5,142.4
		l-0.6,0c-0.4-0.1-0.4,0-0.4,0l0.1,0.3L167.5,142.4z M166.5,146.2l0.3-0.7l-0.3,0.3C166.5,145.8,166.4,146,166.5,146.2L166.5,146.2z
		 M174.1,133.9c0.1-0.2,0.1-0.2,0-0.4c-0.3-0.3-0.5-0.2-0.8-0.1c-0.1,0.4-0.2,0.5-0.3,0.7l0.2,0.1C173.6,134.1,174,134,174.1,133.9
		L174.1,133.9z M178.2,129.4c0.1-0.2,0.2-0.5,0.1-0.8c0-0.4-0.4-0.6-0.8-0.5c-0.3,0.1-0.7,0.8-0.9,1.1c-0.1,0.4-0.1,0.8-0.3,1.2
		c1.1,0,1.6-0.4,1.7-0.6C178.2,129.6,178.1,129.8,178.2,129.4L178.2,129.4z M176.4,140.3c0.3-0.7,0.1-1.2-0.2-1.6s-0.7-0.9-1-1.2
		c-0.3-0.3-0.7-0.5-0.9-0.4c-0.9,0.3,0.6,1.7,0.7,2C175.4,139.5,175.9,139.9,176.4,140.3z M188,114.1c0-0.4-0.1-0.7-0.3-0.9
		c-0.4-0.6-1.5-1.5-2.2-1.3c-0.6,0-1.1,0.6-1,1.3c0.3,0.8,1.2,1.3,1.8,1.4l1.1,0C187.7,114.4,187.9,114.3,188,114.1L188,114.1z
		 M182.7,124l-0.7-0.3c-0.4-0.1-0.6,0-0.6,0l0.1,0.3L182.7,124z"/>
	<g>
		<path class="st0" d="M134.7,132.3c0-0.1,0.1-0.1,0.1-0.2c-0.4,0.4-0.8,0.7-1.3,1.1C133.9,133.1,134.4,132.9,134.7,132.3z"/>
		<path class="st0" d="M99.2,70.1c0.3,0.1,0.7,0.3,1,0.4l0.2-0.5l-0.5-0.4L99.2,70.1z"/>
		<polygon class="st0" points="98,93.9 99.9,92.5 101.8,93.9 101.1,91.6 103,90.2 100.7,90.1 99.9,87.9 99.2,90.1 96.8,90.1 
			98.7,91.6 		"/>
		<polygon class="st0" points="98,48.2 99.9,46.8 101.8,48.2 101.1,45.9 103,44.5 100.7,44.4 99.9,42.2 99.2,44.4 96.8,44.4 
			98.7,45.9 		"/>
		<polygon class="st0" points="101.8,67.3 100.5,70 101.8,71 101.1,68.7 103,67.3 		"/>
		<path class="st0" d="M98,71l1.2-0.9c-0.3-0.1-0.6-0.3-0.8-0.4L98,71z"/>
		<polygon class="st0" points="98,82.4 99.9,81 101.8,82.4 101.1,80.1 103,78.7 100.7,78.7 99.9,76.4 99.2,78.7 96.8,78.7 
			98.7,80.1 		"/>
		<path class="st0" d="M104.3,62.2l1.1,0.8l-0.7,2.3l1.9-1.4l1.9,1.4l-0.7-2.3l1.9-1.4l-2.4,0l-0.1-0.3c-1,0.3-2,0.5-2.8,0.7
			L104.3,62.2z"/>
		<path class="st0" d="M107.2,49.6l-0.6-1.8l-0.8,2.3l-2.4,0l1,0.8C105.3,50.4,106.2,49.9,107.2,49.6z"/>
		<path class="st0" d="M98.1,59.1c0.2-0.1,0.5-0.2,0.6-0.4c0.4-0.8,1.1-1.8,1.9-2.9l-0.7-2.2l-0.8,2.3l-2.4,0l1.9,1.4L98.1,59.1z"/>
		<polygon class="st0" points="104.7,76.7 106.6,75.3 108.5,76.7 107.8,74.4 109.7,73 107.4,73 106.6,70.7 105.9,73 103.5,73 
			105.4,74.4 		"/>
		<polygon class="st0" points="91.2,53.8 93.1,52.5 95.1,53.9 94.4,51.6 96.3,50.1 93.9,50.1 93.1,47.8 92.4,50.1 90,50.1 
			91.9,51.6 		"/>
		<polygon class="st0" points="84.5,93.9 86.5,92.5 88.4,93.9 87.7,91.6 89.6,90.2 87.2,90.1 86.5,87.9 85.7,90.1 83.3,90.1 
			85.2,91.6 		"/>
		<path class="st0" d="M93.4,60.2l-0.3-0.9l-0.3,1C93,60.2,93.2,60.2,93.4,60.2z"/>
		<polygon class="st0" points="91.2,88.1 93.1,86.7 95.1,88.1 94.4,85.8 96.3,84.4 93.9,84.4 93.1,82.1 92.4,84.4 90,84.4 
			91.9,85.8 		"/>
		<path class="st0" d="M90.7,73.5C90.7,73.5,90.7,73.5,90.7,73.5l1.3,1l-0.7,2.3l1.9-1.4l1.9,1.4l-0.7-2.3l1.9-1.4l-2.4,0l-0.7-2.3
			L92.4,73L90,73l0.5,0.3C90.5,73.4,90.6,73.4,90.7,73.5z"/>
		<polygon class="st0" points="111.4,48.2 113.3,46.8 115.3,48.2 114.6,45.9 116.5,44.5 114.1,44.4 113.3,42.2 112.6,44.4 
			110.2,44.4 112.1,45.9 		"/>
		<path class="st0" d="M151.3,103.6L151.3,103.6c0.1-0.3,0.1-0.7,0.2-1c-0.2-0.2-0.4-0.1-0.4,0.3
			C151.3,103.2,151.4,103.4,151.3,103.6z"/>
		<path class="st0" d="M144.1,63.9h-24.1v8.2h28.3C147.2,69.2,145.8,66.5,144.1,63.9z"/>
		<path class="st0" d="M148.4,87.7c0.3-0.7,0.7-1.7,1.2-2.3c-0.3-0.8-0.5-1.5-0.8-2.3c0.6-0.4,1.1-1.1,1.7-1.5l-0.3-1.4h-30.1v8.2
			h28.6C148.6,88.2,148.5,88,148.4,87.7z"/>
		<path class="st0" d="M147.1,115.9c0-0.1,0.1-0.1,0.1-0.2C147.1,115.8,147,115.9,147.1,115.9C147,115.9,147,115.9,147.1,115.9z"/>
		<path class="st0" d="M152.3,96.7c0,0-0.1,0-0.1-0.1l-0.3,0h-0.4c0.3,0.2,0.5,0.3,0.8,0.3C152.3,96.8,152.3,96.8,152.3,96.7z"/>
		<path class="st0" d="M71.8,134c-1.4-0.4-2.8,0.1-4.2,0l0.9-0.5c0.4-0.3,0.9-0.9,0.9-1.2c0.2-0.4-0.1-1.1-0.6-1.5
			c-0.3-0.4-1-0.8-1.4-0.8c-0.4,0.2-1.1,0.3-1.6,0.5c-0.5,0.2-1.4-0.2-1.7-0.8c-0.3-0.5-0.9-0.6-1.2-0.2c-0.1,0.2-0.3,0.6-0.4,0.9
			c2.6,2.5,5.4,4.7,8.4,6.7c0.8-0.1,1.1-0.3,1.1-0.4c0.2-0.4,0.4-1.1,0.6-1.4c0-0.2,0,0,0-0.2c0-0.2,0-0.2,0-0.4
			C72.3,134.4,72.2,134.2,71.8,134z"/>
		<path class="st0" d="M137.7,129.2h-0.8c0.2,0.1,0.3,0.2,0.5,0.3C137.5,129.4,137.6,129.3,137.7,129.2z"/>
		<path class="st0" d="M132.5,132.9c-0.7-0.5-0.8-1.2-0.9-1.8c0.2-0.6,0.4-1.1,0.2-1.9H71.1c0.7,0.6,1.4,1,2.1,1.5l0.9,0.4
			c-0.2,0.5-0.4,0.9-0.4,1.4c0.7,0.4,1.4,0.6,2.1,1c0.5-0.3,1.1-0.5,1.6-0.8l-0.1,1.8c0.2,0.4,0.5,0.7,0.8,0.9
			c0.5,0.2,1,0.2,1.7,0.4l0.1,0.7l0.3,0.5c0.3,0.1,0.7,0.2,1,0.3h0.5c-0.3-0.3-0.4-0.7-0.6-1c0.5,0,1.1-0.1,1.6-0.3
			c0.5,0.4,1,0.9,1.7,1.3h43.2c2-1.3,4-2.7,5.8-4.2C133.2,133.2,132.8,133.1,132.5,132.9z"/>
		<path class="st0" d="M134.8,132.1c0.2-0.2,0.4-0.4,0.6-0.5C135.2,131.6,135,131.7,134.8,132.1z"/>
		<polygon class="st0" points="72.4,133.5 72.6,133.7 72.9,133.9 73.4,133.8 72.9,133.7 		"/>
		<path class="st0" d="M74.6,134.5c-0.2,0.2-0.4,0.7-0.4,0.9c0,0.4,0.3,0.5,0.5,0.7l0.3,0.2c0.2,0,0.4-0.2,0.4-0.5
			c0-0.2,0-0.2,0-0.4c-0.2-0.4-0.3-0.7-0.3-0.9C75.2,134.4,74.8,134.3,74.6,134.5z"/>
		<path class="st0" d="M69.5,129.8c0.5,0.6,1,0.9,1.5,1.3l-0.2-0.5c-0.1-0.4-0.1-0.9-0.2-1.4h-1.5C69.3,129.4,69.4,129.7,69.5,129.8
			z"/>
		<path class="st0" d="M77.4,136.2c-0.2-0.4-0.5-0.4-0.5,0c0,0.4,0,0.9,0.1,1.1l0.1,0.1h0.3c0.1-0.3,0.2-0.5,0.2-0.8
			C77.6,136.4,77.6,136.2,77.4,136.2z"/>
		<polygon class="st0" points="104.7,88.1 106.6,86.7 108.5,88.1 107.8,85.8 109.7,84.4 107.4,84.4 106.6,82.1 105.9,84.4 
			103.5,84.4 105.4,85.8 		"/>
		<polygon class="st0" points="84.5,82.4 86.5,81 88.4,82.4 87.7,80.1 89.6,78.7 87.2,78.7 86.5,76.4 85.7,78.7 83.3,78.7 
			85.2,80.1 		"/>
		<polygon class="st0" points="111.4,71 113.3,69.6 115.3,71 114.6,68.7 116.5,67.3 114.1,67.3 113.3,65 112.6,67.3 110.2,67.3 
			112.1,68.7 		"/>
		<path class="st0" d="M129.5,52.6l1.9-2.4c-0.1-0.1-0.2-0.1-0.3-0.2l-5.8,1.4c-2.3,0.4-4.3,1.4-5.3,2.5v1.8h5
			C126.9,54.6,128.3,53.5,129.5,52.6z"/>
		<polygon class="st0" points="111.4,93.9 113.3,92.5 115.3,93.9 114.6,91.6 116.5,90.2 114.1,90.1 113.3,87.9 112.6,90.1 
			110.2,90.1 112.1,91.6 		"/>
		<polygon class="st0" points="111.4,82.4 113.3,81 115.3,82.4 114.6,80.1 116.5,78.7 114.1,78.7 113.3,76.4 112.6,78.7 110.2,78.7 
			112.1,80.1 		"/>
		<path class="st0" d="M47.4,91.6l1.9-1.4l-2.4,0l-0.4-1.3c-0.1,1.2-0.1,2.4-0.1,3.6c0,0,0,0.1,0,0.1l1.7,1.2L47.4,91.6z"/>
		<polygon class="st0" points="64.3,76.7 66.3,75.3 68.2,76.7 67.5,74.4 69.4,73 67,73 66.3,70.7 65.5,73 63.2,73 65.1,74.4 		"/>
		<polygon class="st0" points="66.7,61.6 65.2,63.9 67.2,62.3 69.4,61.6 69.4,61.6 67.2,61.5 		"/>
		<path class="st0" d="M61.5,70.9C61.5,70.9,61.4,70.9,61.5,70.9l0,0.1L61.5,70.9z"/>
		<polygon class="st0" points="57.7,82.4 59.6,81 61.5,82.4 60.8,80.1 62.7,78.7 60.3,78.7 59.6,76.4 58.8,78.7 56.5,78.7 
			58.4,80.1 		"/>
		<polygon class="st0" points="51,76.3 50.9,76.7 51.2,76.5 		"/>
		<path class="st0" d="M54.7,65.1l-0.3-0.8c-0.1,0.2-0.2,0.3-0.3,0.5l0,0C54.4,64.9,54.6,65,54.7,65.1z"/>
		<polygon class="st0" points="71.1,82.4 73,81 75,82.4 74.3,80.1 76.2,78.7 73.8,78.7 73,76.4 72.3,78.7 69.9,78.7 71.8,80.1 		"/>
		<path class="st0" d="M75,48.2l-0.7-2.3l0.4-0.3c-1.1,0.6-2.3,1.2-3.4,1.9l-0.2,0.7l1.9-1.4L75,48.2z"/>
		<path class="st0" d="M146.1,117.8c-0.5-0.1-1-0.2-1.4-0.4l0.8-2c0.1-0.8,0.2-1.6,0.2-2.4H88c0.1,0.1,0.1,0.1,0.2,0.2
			c0.1,0.2,0.1,0.8-0.3,1.2c-0.3,0.4-0.7,0.3-0.8-0.1c0-0.4-0.8-0.9-1.2-1.2c-0.2-0.1-0.4-0.1-0.7-0.1h-4.7c0,0.1,0,0.1,0,0.2
			c-0.1,0.5-0.5,0.7-1,0.2c-0.5-0.4-1.3-0.5-1.7-0.1c-0.3,0.4-0.8,0.8-1,1.1c-0.3,0.1-1,0-1.4-0.2c-0.6-0.2-1.1-0.7-1.2-1.2h-3.4
			l-0.3,0.1l0.1-0.1h-1.5c-0.1,0.1-0.3,0.2-0.3,0c0,0,0,0,0,0H50.4c1.2,2.9,2.6,5.6,4.3,8.2h89.4C144.8,120,145.5,118.9,146.1,117.8
			z M82.6,115.1c-0.4,0.2-0.9,0.4-1.8,0.6l-0.1-0.6c0-0.4,0.5-0.7,1.2-0.5l1.2,0.1L82.6,115.1z M116,117.8c-0.6,0.4-1.7,1.5-2.7,1.3
			c0-0.3,0-0.3,0-0.3c-0.1-0.6,0.8-1.4,1.4-1.4c0.3-0.4,1.2-0.8,1.3-2.4l0,0.3c0,0,0.4,0.6,0.5,1.2
			C116.6,117.1,116.4,117.8,116,117.8z M120,114.8c0.7,0.2,1,0.5,1.6,0.4l0.7,0.5C121.4,115.5,120.7,115.3,120,114.8z"/>
		<path class="st0" d="M51,104.3c0,0.2,0,0.3,0,0.5h1.2l0-0.1c0-0.7,0.6-0.9,1.1-0.7c0.4,0.1,1.1,0.6,1.6,0.9h93.7
			c0.1-0.5,0.1-1,0.2-1.5l-0.3-0.3l-0.2-0.5c-0.2-0.1-0.4,0-0.6,0c-0.3-0.8-0.7-1.4-1.1-2.2l0.4-2c0.6-0.4,1.3-1,1.9-1.4
			c0-0.1-0.1-0.1-0.1-0.2h-28.7H46.5c0.2,2.8,0.6,5.5,1.3,8.2h2.8C50.7,104.6,50.9,104.4,51,104.3z M47,100.1
			c0.4,0.1,0.6,0.2,0.8,0.1l0.4,0.2C47.8,100.4,47.5,100.3,47,100.1z M50.2,104.2c-0.2,0.3-0.5,0.4-0.5,0.2c0-0.4,0.2-0.7,0.5-1.1
			l0.2,0.1C50.5,103.7,50.4,103.9,50.2,104.2z"/>
		<path class="st0" d="M73.8,55.8L73.8,55.8L73,53.6l-0.8,2.3l-2.4,0l1.7,1.3C72.4,56.8,73.1,56.3,73.8,55.8z"/>
		<path class="st0" d="M78.1,74.1l0.4,0.3l-0.7,2.3l1.9-1.4l1.9,1.4l-0.7-2.3l0.9-0.7C80.6,73.8,79.3,74,78.1,74.1z"/>
		<path class="st0" d="M87.2,67.3L86.8,66c-0.2,0-0.4,0-0.6,0l-0.4,1.3l-2.1,0l0.6,0.4c0.8,0.5,1.5,1.2,2.3,1.9l0,0l1.9,1.4
			l-0.7-2.3l1.9-1.4L87.2,67.3z"/>
		<polygon class="st0" points="77.8,88.1 79.7,86.7 81.6,88.1 80.9,85.8 82.8,84.4 80.5,84.4 79.7,82.1 79,84.4 76.6,84.4 
			78.5,85.8 		"/>
		<path class="st0" d="M78.4,52c0.7-0.7,1.4-1.4,2.1-2l-0.7-2.1L79,50.1l-2.4,0l1.9,1.4L78.4,52z"/>
		<path class="st0" d="M86.1,44.8L84.8,48l1.7-1.2l1.9,1.4l-0.7-2.3l1.9-1.4l-2.4,0l-0.7-2.3l-0.8,2.3l-2.4,0l1.6,1.2
			C85.3,45.4,85.7,45.1,86.1,44.8z"/>
		<path class="st0" d="M87.2,55.8l-0.7-2.3l-0.8,2.3l-1.7,0c0.1,0.3,0.2,0.5,0.3,0.8l0.9,0.7l-0.2,0.6c0.2,0.3,0.5,0.5,0.8,0.7
			l0.6-0.4l1.9,1.4l-0.7-2.3l1.9-1.4L87.2,55.8z"/>
		<path class="st0" d="M48.2,78.7c-0.1,0.3-0.2,0.7-0.3,1l1.4-1L48.2,78.7z"/>
		<polygon class="st0" points="71.1,93.9 73,92.5 75,93.9 74.3,91.6 76.2,90.2 73.8,90.1 73,87.9 72.3,90.1 69.9,90.1 71.8,91.6 		
			"/>
		<path class="st0" d="M47.6,80.9c-0.1,0.3-0.1,0.7-0.2,1l0.7,0.5L47.6,80.9z"/>
		<polygon class="st0" points="57.7,93.9 59.6,92.5 61.5,93.9 60.8,91.6 62.7,90.2 60.3,90.1 59.6,87.9 58.8,90.1 56.5,90.1 
			58.4,91.6 		"/>
		<polygon class="st0" points="50.9,88.1 52.9,86.7 54.8,88.1 54.1,85.8 56,84.4 53.6,84.4 52.9,82.1 52.1,84.4 49.7,84.4 
			51.6,85.8 		"/>
		<path class="st0" d="M68.2,53.9l-0.7-2.3l1.9-1.4l-1.9,0c-0.9,0.7-1.8,1.4-2.6,2.1l-0.5,1.6l1.9-1.4L68.2,53.9z"/>
		<polygon class="st0" points="64.3,88.1 66.3,86.7 68.2,88.1 67.5,85.8 69.4,84.4 67,84.4 66.3,82.1 65.5,84.4 63.2,84.4 
			65.1,85.8 		"/>
		<path class="st0" d="M70.7,129.2h0.4c-0.2-0.1-0.3-0.3-0.5-0.4C70.7,128.9,70.7,129.1,70.7,129.2z"/>
	</g>
	<path class="st1" d="M143.5,155.7H58.5c-6.6,0-12-5.4-12-12v-36.6c0-6.6,5.4-12,12-12h84.9c6.6,0,12,5.4,12,12v36.6
		C155.5,150.3,150.1,155.7,143.5,155.7z"/>
	<g>
		<g id="XMLID_53_">
			<g>
				<path class="st0" d="M127.8,165.4c0,0.2,0.1,0.3,0,0.5l-0.1,0.1c0,0-0.3-0.1-0.5-0.2c-0.2-0.2-0.1-0.4,0.2-0.5
					C127.6,165.3,127.7,165.2,127.8,165.4z"/>
				<path class="st0" d="M118.4,166.1l-0.2,0.5c0,0-0.1,0-0.1,0l0,0c0-0.2,0.1-0.3,0.2-0.4L118.4,166.1z"/>
				<path class="st0" d="M114.3,142.1c0,0,0.1,0,0.1,0C114.4,142.1,114.3,142.1,114.3,142.1z"/>
				<path class="st0" d="M113.9,141.8c0.1,0.1,0.2,0.2,0.3,0.1c0,0.1,0,0.1,0,0.1C114.2,142,114,142,113.9,141.8
					C113.9,141.9,113.9,141.9,113.9,141.8z"/>
				<path class="st0" d="M113.9,141.4c0,0.2,0,0.3,0,0.5C113.9,141.7,113.9,141.5,113.9,141.4z"/>
				<path class="st0" d="M112.6,84.4c0.2,0.3,0.6,0.6,1,0.8c-0.1,0.2-0.1,0.3-0.1,0.5c0,0.5-0.6,0.7-1,0.4c-0.4-0.3-1-1.2-1.2-1.6
					l-0.3-0.8l0.9-0.4C112.1,83.7,112.3,84,112.6,84.4z"/>
				<path class="st1" d="M112,111c0.9,3.5,1.5,6.9-1.1,10c-0.5,0.6-0.8,1.5-0.8,2.3c-0.3,4.8-2.5,8.4-6.2,11.3c-1.3,1-2.1,0.7-3-0.6
					c-1.4-2-2.9-3.9-4.6-5.6c-1.1-1-2.7-1.6-4.1-2.1c-3.3-1.1-5.7-3.5-8.3-5.5c-0.7,0.2-1.3,0.5-2,0.7c0.4,0.7,0.7,1.4,1.2,2.3
					c-2.4,3.8-7.4,5.7-7.9,11c-0.3,0-0.5-0.1-0.8-0.1c-0.4-1.3-1.2-2.6-1.2-3.9c0-6.3,0-12.7,0.3-19c0.2-3.5,1.4-4.3,5.5-4.5
					c-0.3,2.4-4.6,2.7-3.1,5.6c1.2-0.6,2.5-1.5,3.9-2c2.4-0.8,3.3-0.1,3.3,2.4c0,0.8,0,1.6,0,2.4c0.2,0.1,0.4,0.2,0.6,0.3
					c0.4-1,0.9-1.9,1.2-2.9c0.5-1.3,0.7-2.8,1.4-3.9c0.8-1.3,2.3-2.2,2.1-4.1c0-0.2,1.3-0.9,1.5-0.7c1.7,1.7,3.4,3.5,5.4,5.7
					c2,0,4.7,0,7.3,0c-0.9-0.9-2-2.1-3.1-3.2c0.2-0.3,0.3-0.6,0.5-0.9c1.4,0.3,2.7,0.6,4.2,1c0.1-0.7,0.2-1.5,0.3-2.2
					c0.2-0.1,0.3-0.1,0.3-0.1C107,105.1,111.5,108.9,112,111z"/>
				<path class="st1" d="M102.2,82.9c-0.4-0.5-1-1.2-1.1-1.9c0.1-0.3,0.3-0.3,0.4-0.2c0.5,0.2,0.9,0.5,1,0.8c0.3,0.3,0.5,0.7,1,1.4
					l-0.4,0.2C102.8,83.3,102.5,83.2,102.2,82.9z"/>
				<path class="st0" d="M125.1,90.7c-0.1-0.2-0.2-0.6-0.3-0.6c-0.2-0.1-0.2-0.1-0.2-0.1c-0.4,0.2-0.1,0.8,0.3,0.8L125.1,90.7z
					 M127.2,91.2c-0.5-0.7-0.9-1.2-1-1.2c-0.1-0.4,0.1-0.2-0.2-0.4c-0.2,0-0.2,0.1-0.3,0.3c-0.1,0.3,0.1,0.7,0.4,1
					c0.1,0.2,0.6,0.4,0.8,0.4L127.2,91.2z M128.9,90.7c-0.2,0.1-0.5,0.4-0.5,0.5c-0.1,0.2,0.1,0.4,0.3,0.3c0.4-0.1,0.8-0.4,1.1-0.5
					l0.5-0.5C129.5,90.5,129.1,90.6,128.9,90.7z M119.4,134.7c0.2-1,0-0.5,0.3-1.5c-0.3,0-0.7,0-1,0l-0.2,0.5l0.2,0.7
					c0.3,0.5,0.2,0.3,0.5,0.5L119.4,134.7z M120.3,133.2l-0.3,1c0.2-0.3,0.5-0.5,0.8-0.8V133L120.3,133.2z M121,86.8l0.1,0.4
					c0.1,0.2,0.2,0.4,0.3,0.3l0.2-0.1L121,86.8z M115.6,140.9c-0.3,0.7-0.2,0.3-0.2,0.8h0.2v-0.2c0.2-0.2,0.2-0.3,0.2-0.5
					C115.7,140.9,115.7,141.1,115.6,140.9z M101.8,87.4c0.3-0.3,1.2-1,1.7-1c-0.4-0.1-0.7-0.2-1.1,0c-0.2,0.1-0.6,0.3-0.8,0.4
					c-0.2,0.1-0.4,0.2-0.4,0.6C101.4,87.6,101.6,87.6,101.8,87.4z M113,165.6c0.3,0.1,0.6,0.3,1,0.3c-0.3,0.3-0.8,0.4-1.2,0.6
					l-0.5-0.2l-0.5-0.4c-0.5,0.2-0.8,0.4-1.1,0.6c-0.3,0-0.6,0-1,0c-0.1,0-0.1,0-0.2-0.1l-0.9-1.1c-0.1,0.4-0.3,0.8-0.5,1.2
					c-0.7,0-1.4,0-2.2,0c0-0.1-0.1-0.3-0.1-0.4l-0.7,0.2c-0.8,0.1-1.6,0.2-2.5,0.2c0,0,0,0,0,0c-2.9,0-5.7,0-8.6,0
					c8.3-6.2,16.6-11.7,20.8-20.7c1.1-0.1,2-0.2,2.8-0.3c-0.5-0.9-0.8-1.9-1.5-2.6c-0.4-0.5-1.1-0.7-1.7-0.9c0.2,0,0.3-0.2,0.5-0.2
					c0.3-0.7,0.2-0.3,0.3-1.2c-0.5,0.2-0.8,0.2-1,0.3l-0.2,0.2c-0.1,0-0.1,0.1-0.1,0.1c0-2.2,0-4.2,0-5.7c1.7-1.5,3.9-2.6,4.4-4.2
					c0.8-2.4,1.5-4.8,3.2-6.8c1.1-1.3,0.3-3.8-1-4c-1-0.1-1.9-0.3-3.2-0.5c-0.7,0.6-1.8,1.4-2.8,2.2c0.6,1.2,1.2,2.4,1.8,3.6
					c-0.1,0.1-0.2,0.1-0.3,0.2c-0.5-0.4-1-0.8-2.1-1.6c-0.4,2.3-1,4-1,5.9c-0.4,11.2-6.1,19.3-17.8,22.1c-4.6,1.1-9.7,2.2-13.7-2
					c-0.2-0.2-0.5-0.3-0.8-0.4c-2.7-1.3-4.8-3.2-5.8-6c-1.1-3.3-1.7-6.9-2.6-10.3c-0.2-0.9-0.7-1.9-1.4-2.4c-3.8-3-7.7-5.9-11.6-8.8
					c0.2-0.2,0.4-0.4,0.6-0.6l-1.1-0.1c-0.1,0-0.2,0-0.3,0.1c-0.3-0.2-0.7-0.5-1-0.7c-0.3-0.2-0.6-0.4-0.8-0.7
					c0.3-0.4,0.6-0.9,0.9-1.3c-0.3-0.3-0.4-0.6-0.7-0.9c-0.7,0-1.3,0.1-2,0c-0.1,0.1-0.2,0.1-0.4,0.2c-0.4-0.4-0.9-0.8-1.3-1.3
					c0,0,0,0,0,0c0,0,0,0,0,0c-0.4-0.4-0.7-0.8-1.1-1.3c0.2-0.3,0.4-0.5,0.5-0.9c0.3-0.4,0.6-0.8,1.1-1.2c-0.4-0.3-0.8-0.6-1.4-0.9
					l-1.6,0.8c-0.1,0-0.2,0-0.3,0c-0.2-0.3-0.4-0.6-0.5-0.8c0-0.1,0.1-0.1,0.2-0.2l-0.9-1.5c-0.1-0.1-0.2-0.2-0.3-0.3
					c-1-1.9-1.7-4-2.2-6.3c-0.2-1-0.5-2.1-0.8-3.1c0-1.3,0-2.6,0-3.9c1.4-3.8,2.8-6.2,4.9-7.5c0.4,0.2,1,0.4,1.4,0.6
					c0.4-0.4,0.8-0.7,1.2-1.2c0.6,0.1,1.3,0.1,1.8,0.1c0.4-0.4,0.7-0.7,1.1-1.1c0.2,0,0.3,0,0.5,0c0.4,0.1,0.7,0.2,1,0.1l1.6,0.6
					c0.1-0.3,0.1-0.6,0.2-0.8c5.4,0.1,10.8,0.4,16.2,0.7c0.7-2.8,1.3-5.9,2.3-9c0.1-0.2,0.1-0.4,0.2-0.6c0.1,0.1,0.3,0.2,0.4,0.3
					c0.6-0.3,1-0.7,1.4-1c-0.3-0.5-0.5-1.1-0.8-1.6c0.5-0.9,1-1.7,1.5-2.4c0.4-0.1,0.7-0.2,1.2-0.4c0.4,0.4,0.9,0.7,1.3,1.1l0-1.1
					c-0.2-0.6-0.3-1-0.5-1.5l0.8-0.3l0.7-0.5c0.4,0.3,1,0.5,1.4,0.8c0.3-0.3,0.5-0.4,0.8-0.7c0-0.5-0.1-0.9-0.2-1.4
					c1.3-0.5,2.8-0.9,4.4-1c0.6-0.1,1.3-0.3,1.9-0.4c1.6,0,3.2,0,4.8,0c3.9,0.8,7.2,2.4,9.4,6.1c1.5,2.7,3.2,5.4,5,7.9l-0.9,0.4
					l0,0.5c-0.1,0.3-0.1,0.9-0.2,1.2c-0.1,0.3,0.4,1,0.9,1.5c0.4,0.5,1.4,0.6,1.8,0.4c0.4-0.2,1.1-0.7,1.2-1l0.4-0.6c0,0,0,0,0,0
					c0.1,0,0.1,0,0.2,0c3.6,0.3,7.2,0.1,10.7,0.5c6.2,0.6,11.7,2.8,15,8.5c0.1,0.1,0.1,0.3,0.2,0.4c-0.4,0.1-0.9,0.3-1.3,0.4
					c0,0.4-0.1,0.7-0.1,1.1c0.5,0.5,1,0.8,1.5,1.2c0.2,0,0.5,0.1,0.8,0.2c-0.2,0.6-0.1,1.2-0.2,1.7c0.1,0.5,0.1,1.1,0.3,1.6
					c-0.4,0.2-0.8,0.2-1.2,0.5c-0.5,0.1-1,0.2-1.6,0.3c0.1,0.5,0.2,1,0.5,1.6l1.7,0.4c0.3,0.3,0.7,0.5,1,0.8l-0.3,0.1l-0.3,0.1
					c-0.1,0.1-0.4,0.2-0.6,0.2l-0.2,1.7c0,0.6,0.2,1.2,0.4,1.7c0.5,0.3,1,0.6,1.6,0.7l0.2,0.6l-1.1,0.3c-0.5,0.1-1,0.2-1.6,0.3
					c-0.2,0.4-0.2,0.8-0.3,1.2c0.6,0.4,1.1,0.7,1.7,1c0,0.6,0.1,1.1,0.2,1.7c0.1,0.1,0.2,0.3,0.3,0.4c-0.6,1.7-1.3,3.4-2.2,5
					c-3.2,5.9-8.6,9.6-14.3,12.8c-1.6,0.9-2.8,2-1.4,4c0.2,0.2,0.1,0.6,0.1,1c-0.1,3.3-0.2,6.6-0.3,9.9c-1.4-0.1-2.4,1-3.1,2.8
					c-0.7,1.7,0.6,2.5,1.5,3.5c0.6,0.8,1.4,1.6,1.6,2.6c0.5,2.5,2.2,3.7,4.4,4.3c5.7,1.6,11.3,3.3,17,4.9c0.6,0.2,1.3,0.4,1.9,0.6
					c0,0.1-0.1,0.3-0.1,0.4c-2.5,0-5,0-7.6,0c-0.3-0.1-0.7-0.2-1-0.4l-1-0.1l-0.9-0.2c-0.2,0.3-0.4,0.5-0.7,0.7c-0.3,0-0.6,0-0.9,0
					l-0.5-0.7l-0.7-0.7c-0.3,0.3-0.7,0.7-1,1c-0.6,0.1-1.1,0.2-1.7,0.3l-1.4-0.7c-0.3-0.4-0.6-1-0.9-1.4c-0.5,0-1,0.1-1.6,0
					c-0.5-0.2-1.1-0.2-1.6-0.4l-1.7,0.1c-0.6-0.1-1.1-0.2-1.7-0.3c-0.2,0.4-0.5,0.7-0.7,1.1l-0.6,0.3l-0.5,0.2
					c-0.3-0.1-0.7-0.2-1.1-0.4c-0.5-0.4-0.8-0.6-1.3-1l-1.2,1c-0.4,0.1-0.8,0.3-1.3,0.3l-0.1-0.4l-0.1-0.4c-0.6,0.1-1.2,0.1-1.7,0.1
					C113.6,165,113.3,165.4,113,165.6z M101.8,84.2c-0.7,0-1.1,0-1.3,0.3c-0.2,0.1-1.7,0.9-1.6,1.1c0,0,0.3,0.1,0.7,0
					c0.6-0.3,1.2-0.9,1.9-1.1L101.8,84.2z M102.2,82.9c0.3,0.3,0.6,0.4,0.8,0.3l0.4-0.2c-0.5-0.7-0.7-1.1-1-1.4
					c-0.1-0.4-0.5-0.7-1-0.8c-0.2-0.1-0.3-0.1-0.4,0.2C101.2,81.7,101.8,82.4,102.2,82.9z M101.6,83.2c0.1,0.2,0.3,0.3,0.4,0.3
					l0.2-0.1l-0.9-0.5L101.6,83.2z M118.3,88l0.1-0.2c-0.3-0.1-0.6-0.2-0.9,0.1c-0.3,0.3-0.1,0.3,0.2,0.4
					C117.9,88.3,118.3,88.2,118.3,88z M110.9,121c2.6-3.1,2.1-6.5,1.1-10c-0.6-2.1-5.1-5.9-7.3-6.4c-0.1,0-0.1,0-0.3,0.1
					c-0.1,0.7-0.2,1.6-0.3,2.2c-1.5-0.3-2.9-0.7-4.2-1c-0.2,0.3-0.3,0.6-0.5,0.9c1.1,1.1,2.2,2.2,3.1,3.2c-2.6,0-5.3,0-7.3,0
					c-2.1-2.2-3.7-4-5.4-5.7c-0.1-0.1-1.5,0.5-1.5,0.7c0.2,1.9-1.3,2.8-2.1,4.1c-0.7,1.2-0.9,2.6-1.4,3.9c-0.4,1-0.8,2-1.2,2.9
					c-0.2-0.1-0.4-0.2-0.6-0.3c0-0.8,0-1.6,0-2.4c0-2.5-0.9-3.2-3.3-2.4c-1.4,0.5-2.7,1.3-3.9,2c-1.5-2.9,2.7-3.2,3.1-5.6
					c-4.1,0.1-5.3,1-5.5,4.5c-0.3,6.3-0.3,12.7-0.3,19c0,1.3,0.8,2.6,1.2,3.9c0.3,0,0.5,0.1,0.8,0.1c0.5-5.3,5.5-7.2,7.9-11
					c-0.4-0.9-0.8-1.6-1.2-2.3c0.8-0.3,1.4-0.5,2-0.7c2.6,2,5,4.5,8.3,5.5c1.5,0.5,3,1.1,4.1,2.1c1.7,1.6,3.2,3.6,4.6,5.6
					c0.9,1.3,1.7,1.6,3,0.6c3.8-2.8,5.9-6.5,6.2-11.3C110.1,122.5,110.4,121.6,110.9,121z M97.6,83.4c0.4-0.2,0.6-0.9,0.6-1.2
					l-0.3-0.6c-0.2,0.6-0.4,1.3-0.7,1.5l-0.4,0.7L97.6,83.4z M98.8,137.7c-0.6-1.2-0.8-3-1.7-3.5c-3.6-1.8-7.5-3.4-11.7-2.7
					c-1.7,0.3-3.3,0.9-5,1.4c-1.4,0.4-2.2,1.3-2.2,2.8c-0.1,1.6,0.8,2.5,2.1,2.5c1.7,0,3.4-0.6,5.2-0.8c1.1-0.1,2.2-0.3,3.2-0.1
					c1.9,0.4,3.8,1.1,5.7,1.7c0-0.2,0.1-0.3,0.1-0.5c0.4,0,0.7,0.1,1.1,0C96.7,138.2,97.7,138,98.8,137.7z"/>
				<path class="st1" d="M98.2,82.2c0.1,0.4-0.1,1-0.6,1.2l-0.8,0.4l0.4-0.7c0.3-0.3,0.5-0.9,0.7-1.5L98.2,82.2z"/>
				<path class="st1" d="M97.1,134.2c0.9,0.5,1.2,2.3,1.7,3.5c-1.1,0.2-2.2,0.5-3.2,0.7c-0.3,0.1-0.7,0-1.1,0c0,0.2-0.1,0.3-0.1,0.5
					c-1.9-0.6-3.8-1.3-5.7-1.7c-1-0.2-2.2,0-3.2,0.1c-1.7,0.2-3.4,0.8-5.2,0.8c-1.3,0-2.2-0.9-2.1-2.5c0.1-1.5,0.8-2.4,2.2-2.8
					c1.7-0.5,3.3-1.1,5-1.4C89.6,130.8,93.5,132.4,97.1,134.2z"/>
			</g>
			<g>
			</g>
		</g>
	</g>
	<g>
		<path class="st0" d="M34.4,135.4c-1.1-1.6-1.7-2.8-1.8-4.9l3.9-2.7l-0.8,4.1c-0.2,0.9-0.1,1.5,0.4,2.3c1.7,2.5,4.7,0.4,7-1.2
			c2.3-1.6,5.3-3.6,3.6-6.1c-0.5-0.8-1.1-1-2.1-1.2l-4-0.8l3.9-2.7c1.9,0.8,2.7,1.8,3.8,3.4c2.4,3.5,1.2,8.8-2.5,11.3
			C42.1,139.6,36.9,139,34.4,135.4L34.4,135.4z M48.9,129.2c-0.4,1.9-1.1,3.6-4.4,5.9c-3.3,2.3-5.4,2.2-7.1,2
			c1.2,0.8,4.9,1.5,8.1-0.6C48.4,134.4,49.1,130.7,48.9,129.2L48.9,129.2z"/>
		<path class="st0" d="M45.3,122.3l-2.6-1.1L32,125.4l-1.1,2.5l-4.1-5.1l7.3-2.9l-1.3-0.5c-1.4-0.6-2.4-1.5-2.9-2.6
			c-0.4-1.1-0.1-2.9,1.4-3.5l7.2-2.8l1.1-2.6l2.3,5.9l-7.9,3.1c-0.2,0.1-0.5,0.5-0.3,0.9c0.1,0.3,0.5,0.6,0.8,0.7l1.4,0.6l5.2-2
			l1.1-2.5L45.3,122.3z M28.8,124.4l2.9,0.4l10.8-4.2l0.9-1.9L28.8,124.4z M33,115.1c-0.8,0.3-1.2,1-0.9,1.9c0.2,0.6,1,0.8,1,0.8
			s-0.6-0.9,0.8-1.4l7.3-2.8l-0.5-1.4L33,115.1z"/>
		<path class="st0" d="M38.8,100.3l-2,0.3l1.1,0.8c1.2,0.9,2,1.9,2.1,3.1c0.3,2.1-1.7,3-2.1,3l-5.9,0.8l-1.6,2.2l-2.9-5.9l8.6-1.2
			c0.2,0,0.6-0.4,0.5-0.8c0-0.3-0.2-0.6-0.6-0.9l-1.3-1l-3.7,0.5l-1.6,2.2l-2.9-5.9l9.8-1.4l1.7-2.2L38.8,100.3z M28.1,99.7l2.8,1.1
			l7.2-1l-0.2-1.4L28.1,99.7z M29.1,106.7l2.8,1.1l5.9-0.8c0.8-0.1,1.8-1,1.6-2.2c-0.1-0.4-0.1-0.7-0.3-0.9c0.1,0.8-0.5,1.5-2.1,1.8
			L29.1,106.7z"/>
		<path class="st0" d="M32.7,89.5c3.4,0.2,4.3-0.1,4.4-2c0-0.7-0.1-1.7-0.9-2.4l1.4-1.2c1.2,1.5,1.5,2.6,1.4,4.7
			c-0.2,3.3-3.5,6-6.6,5.7c-3.4-0.2-5.9-3.5-5.7-6.6c0.1-1.8,0.3-3,1.4-4.5l4.3,0.3l-3,2.6c-0.6,0.5-0.8,1-0.9,1.7
			C28.4,88.9,30.9,89.4,32.7,89.5z M32.5,91.9c-2.8-0.2-4.6-1.8-5.1-2.5c0.3,1,1.7,4,4.9,4.3c2.9,0.2,4.7-2.2,5.2-2.9
			C36.8,91.4,35.6,92.1,32.5,91.9z"/>
		<path class="st0" d="M40.8,76.6l-2.3,7.9L37.2,82l-11.1-3.2l-2.4,1.3l-0.1-6.5l11,3.2l-2.8-5.1l-2,1.1l1.9-6.5l3.6,6.5l7.9-4.4
			l-1.8,6.3l-1.5-0.4L35,76.9l3.4,1L40.8,76.6z M24.2,76l2.1,2.1l11.1,3.2l1.8-1L24.2,76z M35.7,74.4L35.2,76l6-3.3l0.5-1.6
			L35.7,74.4z"/>
		<path class="st0" d="M43,44l12.9,10.1l-16.2-0.8l7,5.5l2.9-0.4l-4,5.1l-0.3-2.9l-9.5-7.4l-3,0.4l3.4-4.3l10.4,0.4l-5-3.9l-3,0.4
			l4-5.1L43,44z M35.6,51.2l-1,1.2l19.2,0.9L52,52L35.6,51.2z"/>
		<path class="st0" d="M52.6,37.9c2.8-2.3,6.9-2.2,9.2,0.5c2.3,2.8,1.6,6.9-1.2,9.2c-2.8,2.3-6.9,2.2-9.2-0.6
			C49.1,44.2,49.8,40.1,52.6,37.9z M53.2,45.5c-2.1-2.5-1.7-4.8-1.6-5.5c-0.2,0.3-2.3,3.5,0.2,6.6c2.6,3.2,6.2,1.7,6.4,1.5
			C57.9,48.1,55.4,48.2,53.2,45.5z M58,41.5C56.7,40,55,38,53.6,39.2c-1.4,1.2,0.2,3.2,1.5,4.7c1.3,1.6,2.9,3.6,4.4,2.4
			C60.9,45.1,59.3,43.1,58,41.5z M54.9,38.2c0.6,0.2,1.5,0.4,3.6,2.9c2.1,2.6,2.1,3.7,2.2,4.1c0.6-0.9,1-2.9-0.8-5.2
			C57.9,37.6,55.9,37.7,54.9,38.2L54.9,38.2z"/>
		<path class="st0" d="M68.8,27.8c0.2-0.1,1.1-0.5,1.1-0.5l2.7,5.1l-4.1-1.3l-0.8,3.2l2.3,4.3l2.6,0.8l-7.3,3.8l0.8-2.7l-2.8-5.3
			l-2.6-0.8l4.6-4.7l1.1,2l0.4-1.4C66.8,29.6,67.4,28.6,68.8,27.8z M63.9,32l-0.1,3l2.8,5.3l2,0.6L63.9,32z"/>
		<path class="st0" d="M81.3,23.5c0.3-0.1,1.1-0.2,1.1-0.2l1.7,5.5l-3.8-2l-1.4,3l1.4,4.6l2.4,1.3l-7.9,2.4l1.3-2.5l-1.8-5.7
			l-2.4-1.3l5.3-3.8l0.7,2.2l0.6-1.3C79.1,24.9,79.8,24,81.3,23.5z M75.8,26.8l-0.6,2.9l1.8,5.7l1.8,1L75.8,26.8z"/>
		<path class="st0" d="M85.9,34.8l1.7-2.2l-0.8-5.9l-2.2-1.6l5.9-2.9l1.4,9.8l2.2,1.7L85.9,34.8z M85.3,19.8l2.2-2.8l2.8,2.1
			L88.2,22L85.3,19.8z M88.6,23.8l-1.1,2.8l0.8,5.9l1.7,1.3L88.6,23.8z"/>
		<path class="st0" d="M98.9,34.3c-0.6,0-1.2-0.1-1.8-0.2l-3.3-0.9l1.8-3l1.7,2.1c0.3,0.4,0.9,0.6,1.3,0.6c1,0,1.7-0.6,1.7-1.6
			c0-0.3-0.2-0.5-0.7-0.8l-3.3-1.8c-1.7-0.9-2-2.5-2-3.4c0-2.7,2.3-3.8,4.5-3.8c0.6,0,1.2,0.1,1.8,0.2l3.1,0.9l-1.6,2.8l-1.5-1.9
			c-0.4-0.4-0.6-0.5-1-0.5c-1.1,0-1.7,0.7-1.7,1.3c0,0.3,0.4,0.5,0.7,0.7l3.3,1.9c0.8,0.4,1.9,1.5,1.9,3.3
			C103.6,32.2,102.2,34.3,98.9,34.3z M97.3,26.8c-0.9-0.5-1.4-1.2-1.4-2c0-0.8,0.3-1.7,0.9-2.3C95.6,23,95,24,94.9,25.1
			c0,1.3,0.5,2.3,1.7,2.9l3.1,1.7c0.6,0.3,1.2,0.8,1.2,1.3c0,0.8-0.2,1.4-0.7,1.8c1-0.5,1.7-1.2,1.7-2.3c0-1-0.6-1.6-1.4-2.1
			L97.3,26.8z"/>
		<path class="st0" d="M114.1,33.5l1.3,2.6l-6-2.1l2.7-1.3l9.3-11.7l3,1l0.3,15l1.3,2.7l-8.6-3l2.6-1.3l0-2.3l-4.5-1.6L114.1,33.5z
			 M120.1,26l-3.2,4.1l3.2,1.1L120.1,26z M122.3,23.3l-1.5,1.8l-0.1,10.7l1.6,2L122.3,23.3z"/>
		<path class="st0" d="M128.1,44.7l0.6,2.7l-6.9-4.5l2.7-0.6l5.7-8.8l-0.6-2.6l6.4,1.6l-0.8,1.2c0.9-0.4,2.3-0.5,3.6,0.3
			c2.3,1.5,2.6,5.2,0.8,8c-1.9,2.9-5.4,4.1-7.7,2.7c-1.2-0.8-1.6-2.2-1.7-3.2L128.1,44.7z M133.4,32.6l-2.6,1.4l-5.7,8.8l0.4,2
			L133.4,32.6z M131.4,39.8c-0.3,0.9,0.1,2,0.7,2.4c1.1,0.7,2.5-1.2,3.4-2.7c0.9-1.4,2.2-3.5,1.1-4.3c-0.5-0.3-1.8-0.3-2.4,0.4
			L131.4,39.8z M136,39.8c-1.6,2.5-2.8,3.1-3.4,3.2c1.1,0.7,3.4,0.2,4.9-2.2c1.5-2.3,1.1-4.7,0-5.4C137.6,36.1,137.6,37.4,136,39.8z
			"/>
		<path class="st0" d="M138.4,52.8l-0.1,2.8l-5.7-5.9l2.8,0l7.6-7.3l0-2.7l5.8,3l-1,1c1-0.1,2.4,0,3.4,1.1c1.9,1.9,1.4,5.6-1.1,8
			c-2.5,2.4-6.2,2.8-8.1,0.9c-1-1-1.1-2.5-0.9-3.5L138.4,52.8z M146.3,42.1l-2.9,0.8l-7.6,7.3l0,2.1L146.3,42.1z M142.7,48.7
			c-0.5,0.8-0.3,2,0.1,2.5c0.9,0.9,2.7-0.6,4-1.9c1.2-1.2,2.9-3,2-3.9c-0.4-0.4-1.7-0.7-2.5-0.2L142.7,48.7z M147.2,49.7
			c-2.1,2-3.4,2.4-4.1,2.3c0.9,0.9,3.3,0.9,5.3-1c1.9-1.9,2.2-4.4,1.2-5.3C149.6,46.5,149.2,47.8,147.2,49.7z"/>
		<path class="st0" d="M161.3,59c0.1,0.2,0.5,1,0.5,1l-4.8,3l1-4.2l-3.2-0.6l-4.1,2.6l-0.6,2.7l-4.4-7l2.7,0.6l5-3.2l0.6-2.6
			l5.1,4.2l-1.9,1.2l1.4,0.2C159.3,57.2,160.4,57.6,161.3,59z M156.6,54.4l-3,0.1l-5,3.2l-0.5,2L156.6,54.4z"/>
		<path class="st0" d="M165.4,68.1c1.3,3.4-0.1,7.3-3.5,8.5c-3.4,1.3-7-0.7-8.3-4.1c-1.3-3.3,0.1-7.2,3.5-8.5
			C160.5,62.7,164.2,64.7,165.4,68.1z M158,66.2c3.1-1.2,5.1,0,5.7,0.3c-0.2-0.3-2.6-3.3-6.3-1.9c-3.8,1.4-3.6,5.3-3.5,5.6
			C154,69.8,154.7,67.5,158,66.2z M160.2,72c1.9-0.7,4.3-1.6,3.6-3.3c-0.6-1.7-3.1-0.8-4.9-0.1c-1.9,0.7-4.3,1.6-3.7,3.4
			C155.9,73.6,158.3,72.7,160.2,72z M164.4,70.2c-0.4,0.5-0.8,1.3-3.9,2.5s-4.2,0.8-4.6,0.7c0.7,0.8,2.5,1.9,5.2,0.9
			C164,73.2,164.4,71.3,164.4,70.2L164.4,70.2z"/>
		<path class="st0" d="M157.6,86.9l2-0.3l-1.1-0.9c-1.2-0.9-2-1.9-2.1-3.1c-0.3-2.1,1.7-3,2.2-3l6-0.8l1.6-2.2l2.9,5.9l-8.6,1.1
			c-0.2,0-0.6,0.4-0.5,0.8c0,0.3,0.2,0.6,0.6,0.9l1.3,1l3.7-0.5l1.6-2.2l2.9,5.9l-9.8,1.3l-1.7,2.2L157.6,86.9z M167.3,80.6
			l-2.7-1.1l-5.9,0.8c-0.8,0.1-1.8,0.9-1.6,2.2c0.1,0.4,0.1,0.7,0.3,0.9c-0.1-0.8,0.5-1.5,2.1-1.7L167.3,80.6z M168.3,87.6l-2.7-1.1
			l-7.2,1l0.2,1.4L168.3,87.6z"/>
		<path class="st0" d="M168.9,101l-1.8-2.1l-5.2,1.7l4.8,2.5l2.1-1.8l-0.5,5.9l-1.8-2.2l-9-4.8l0.2-2.7l9.8-3.2l2.2-1.8L168.9,101z
			 M168.7,96.3l0.1-1.4l-10.4,3.3l-0.1,1.4L168.7,96.3z"/>
		<path class="st0" d="M161.1,111.6l-1.3-0.4c-1.9-0.6-3.1,0.2-3.4,1.3c-0.4,1.3,0,2.6,0.3,3.1l0.4,0.6l-1.7,0.9
			c-1.3-2.1-1.2-3.9-0.5-6.1c0.9-3,4.5-5.1,7.8-4.1c3.2,1,5.2,4.5,4.2,7.7c-1,3.2-4.4,5.1-7.9,4L161.1,111.6z M166.3,112.7
			c0.1-1.1-0.5-4.1-3.9-5.1c-3.1-0.9-5.2,1-5.6,1.5c0.8-0.5,2.5-0.7,5.1,0.1C164.9,110.2,166,111.5,166.3,112.7L166.3,112.7z
			 M162.5,115.8c-0.4-0.1-0.7-0.4-0.7-0.4l-0.5,1.7c1.8,0.5,3.5-0.7,3.9-1.9C165.2,115.2,164.2,116.3,162.5,115.8z M165.1,114.2
			c0.3-0.9-1-1.6-2.3-2.1c-0.1,0.5-0.8,2.5-0.8,2.5c0.2,0.3,0.4,0.4,0.7,0.5C163.6,115.4,164.8,115.1,165.1,114.2z"/>
		<path class="st0" d="M158.6,119.7c3,1.7,4.4,5.1,3,7.5c-0.7,1.3-2,1.8-3.1,1.9l2.7,1.5l2.6-0.7l-1.4,6.4l-13.4-7.6l-2.7,0.7
			l3.1-5.4l1,0.6c-0.4-0.9-0.7-2.4,0-3.6C151.9,118.6,155.6,118,158.6,119.7z M162.5,133.8l-1.5-2.5l-11.2-6.4l-0.7,1.3L162.5,133.8
			z M151.7,120.5c0.6,0,2.5-0.5,5.7,1.3c3.3,1.9,3.8,3.5,4,4.2c0.2-0.8,0.1-3.8-3.1-5.7C155.1,118.5,152.4,119.9,151.7,120.5
			L151.7,120.5z M156.8,128.1c0.9,0.3,2.1-0.3,2.4-0.8c0.6-1.1-1.4-2.4-2.9-3.3c-1.5-0.9-3.7-2-4.3-0.9c-0.3,0.5-0.2,1.8,0.5,2.5
			L156.8,128.1z"/>
	</g>
</g>
</svg>
