<?xml version="1.0" encoding="utf-8"?>
<!-- Generator: Adobe Illustrator 21.0.0, SVG Export Plug-In . SVG Version: 6.00 Build 0)  -->
<svg version="1.1" id="Calque_1" xmlns="http://www.w3.org/2000/svg" xmlns:xlink="http://www.w3.org/1999/xlink" x="0px" y="0px"
	 viewBox="0 0 243 241.8" style="enable-background:new 0 0 243 241.8;" xml:space="preserve">
<style type="text/css">
	.st0{fill:#ADABAA;}
	.st1{fill:none;stroke:#000000;stroke-width:3.164;stroke-miterlimit:10;}
</style>
<g>
	<g id="XMLID_1_">
		<g>
			<path d="M205.3,184.6l-19.5,19.6l-2.4-0.7c-11.3-3.3-23.8-3.2-35.2,0.3l-2.4,0.7l-63.6-63.3c-0.8-0.8-1.2-1.9-1.2-2.9
				c0-1.1,0.4-2.1,1.2-2.9c1.6-1.6,4.3-1.6,5.9,0l60.1,59.8c11.4-3,23.7-3.1,35.1-0.2l12.5-12.6c-1.6-5.7-2.4-11.7-2.5-17.7
				c-0.1-5.5,0.7-11.1,2-16.4L135,88.2c-1.6-1.6-1.6-4.2,0-5.9c1.6-1.6,4.3-1.6,5.9,0l63.9,63.5l-0.7,2.4
				c-1.6,5.3-2.4,10.8-2.3,16.4v0c0,6,1,11.9,2.8,17.6L205.3,184.6z"/>
			<path d="M182.6,163.1c1.2,1.2,2.6,3.6,1,5.1c-0.8,0.8-2,0.9-2.8,0c-0.7-0.7-0.8-1.8-0.1-2.5c0.2-0.2,0.5-0.4,0.8-0.5
				c0.3-0.2,0.5-0.3,0.6-0.3c0.2-0.2,0.3-0.8-0.1-1.2c-0.6-0.6-1-0.8-1.8-0.7c-1.2,0.2-6.3,2.8-8.2,4.7c-0.8,0.8-0.5,1.6,0.2,2.3
				c1.6,1.6,3.9,2,6.1,1.7l0,0.7c-2.6,0.4-5.3-0.2-7.2-2.1c-2.1-2.1-2.3-5.4-0.1-7.6C173.9,159.7,179.7,160.3,182.6,163.1z"/>
			<path class="st0" d="M161.5,172.6c0.9,0.9,0.8,1.6-0.1,2.5c-2.1,2.1-4.4,1.2-5.1,0.6l-1.3-1.3l3.2-1.8
				C159.9,171.7,160.8,171.9,161.5,172.6z"/>
			<path d="M161.4,175.1c0.8-0.8,1-1.6,0.1-2.5c-0.7-0.7-1.5-0.9-3.2,0l-3.2,1.8l1.3,1.3C157,176.3,159.3,177.2,161.4,175.1z
				 M150.3,171.8c3-3,9.1-2.5,12,0.4c1.4,1.4,2.7,3.9,0.9,5.7c-1.4,1.4-3.2,1.2-4.8,0.4c-0.8-0.4-1.7-0.9-2.3-1.6l-1.8-1.8
				c-0.9,0.6-1.9,1.2-2.7,1.9c-0.8,0.8-0.6,1.5,0.1,2.2c1.9,1.9,4.5,2.4,7.1,2l0,0.7c-3.1,0.6-5.9-0.2-8.1-2.5
				C148.6,177.1,148.1,174.1,150.3,171.8z"/>
			<path d="M179.2,152c-0.9,0.9-2.3,0.9-3.2,0c-0.8-0.8-0.7-2.2,0.2-3c0.7-0.7,2.2-0.8,2.9,0C180,149.8,180.1,151.2,179.2,152z"/>
			<path d="M169.5,162.3c-2.6,1.2-4.8,1.5-7-0.6c-0.9-0.9-1.3-2.3-0.6-3.1c0.3-0.3,1.2-0.9,2.1-1.4l6.8-4.3l-1.6-1.6l0.8-0.5
				l2.3,2.3c0.4,0.4,0.8,0.7,1.2,1.1c0.4,0.4,0.8,0.7,1.2,1.1l-9.2,5.7c-0.7,0.5-1.1,0.7-0.6,1.2c0.8,0.8,3.5-0.1,4.4-0.5
				L169.5,162.3z"/>
			<path d="M159,158.1c0.8,0.8,1,2.2,0.1,3c-0.9,0.9-2.3,0.9-3.2,0c-0.8-0.8-0.7-2.2,0.2-3C156.8,157.5,158.2,157.4,159,158.1z"/>
			<path d="M149.3,171.5c-2.6,1.2-4.8,1.5-7-0.6c-0.9-0.9-1.3-2.3-0.6-3.1c0.3-0.3,1.2-0.9,2.1-1.5l6.8-4.3l-1.6-1.6l0.8-0.5
				l2.3,2.3c0.4,0.4,0.8,0.7,1.2,1.1c0.4,0.4,0.8,0.7,1.2,1.1l-9.2,5.7c-0.7,0.5-1.1,0.7-0.6,1.2c0.8,0.8,3.5-0.1,4.4-0.5
				L149.3,171.5z"/>
			<path d="M165.8,146.3c1,1,2.2,3,0.9,4.3c-0.6,0.6-1.5,0.7-2.1,0.1c-0.7-0.7-0.8-1.4-0.2-2.1c0.1-0.2,0.7-0.6,1-0.8
				c0.3-0.2-0.3-1.1-0.5-1.2c-0.5-0.5-1.5-1.3-2.2-0.6c-0.4,0.4-0.4,0.7-0.3,1.2l0.6,3.9c0.2,1.3,0.1,2.6-0.9,3.6
				c-2.2,2.2-5.1,1.4-7-0.5c-1.2-1.2-2.9-3.7-1.3-5.3c0.8-0.8,1.9-0.8,2.6,0c0.7,0.7,0.6,1.7,0,2.3c-0.4,0.4-1.1,0.5-1.4,0.8
				c-0.4,0.4,0.4,1.3,0.8,1.7c0.7,0.7,1.9,1.7,2.8,0.7c0.5-0.5,0.5-1.2,0.4-1.9l-0.6-4.5c-0.2-1.4,0.5-1.9,0.9-2.3
				C160.7,144.3,163.5,144,165.8,146.3z"/>
			<path d="M157.1,137.6c1,1,2.2,3,0.9,4.3c-0.6,0.6-1.5,0.7-2.1,0.1c-0.7-0.7-0.8-1.4-0.2-2.1c0.1-0.2,0.7-0.6,1-0.8
				c0.3-0.2-0.3-1.1-0.5-1.2c-0.5-0.5-1.5-1.3-2.2-0.6c-0.4,0.4-0.4,0.7-0.3,1.2l0.6,3.9c0.2,1.3,0.1,2.6-0.9,3.6
				c-2.2,2.2-5.1,1.4-7-0.5c-1.2-1.2-2.9-3.7-1.3-5.3c0.8-0.8,1.9-0.8,2.6,0c0.6,0.6,0.6,1.7,0,2.3c-0.4,0.4-1.1,0.5-1.4,0.8
				c-0.4,0.4,0.4,1.3,0.8,1.7c0.7,0.7,1.9,1.7,2.8,0.7c0.5-0.5,0.5-1.2,0.4-1.9l-0.6-4.5c-0.2-1.4,0.5-1.9,0.9-2.3
				C152,135.6,154.8,135.3,157.1,137.6z"/>
			<path d="M138,164c-1.5,0-3.2-0.7-4.5-2c-1.2-1.2-1.6-3.1-0.3-4.4c0.4-0.4,1-0.7,1.8-1.2l4-2.4c0.8-0.5,1.5-1,1.7-1.2
				c0.2-0.2,0-0.4-0.1-0.5c-0.7-0.7-3.4,0.1-4.2,0.5l-0.4-0.6c1.9-1,4.6-1.5,6.3,0.1c1.7,1.7,1.1,3.7-0.2,4.5l-3.7,2.2
				c-1.3,0.8-2.5,1.5-2.7,1.7c-0.4,0.4-0.3,1.3,0.1,1.7c2,2,7.4-0.2,9.2-2c0.1-0.1,0.1-0.3-0.1-0.5c-0.2-0.2-0.4-0.3-0.5-0.4
				c-0.7-0.7-0.8-1.8,0-2.5c0.8-0.8,1.8-0.8,2.6,0c1.1,1.1,0.6,2.7-0.4,3.7C144.7,162.5,140.7,164,138,164z"/>
			<path class="st0" d="M133.3,144.4c0.8,0.8,1,1.6,0.2,2.4c-1.2,1.2-5.8,4-7.5,4.7c-0.7,0.3-1.2,0.3-1.7,0
				c-0.3-0.2-0.6-0.5-0.9-0.8c-0.6-0.6-1.3-1.4-0.6-2.1c0.7-0.7,6-4.2,7.2-4.8c0.9-0.4,1.8-0.4,2.6,0.1
				C132.8,143.9,133,144.2,133.3,144.4z"/>
			<path d="M134.5,151.9c-2.5,2.5-7.2,2.3-10,0.6c-0.2-0.1-0.4-0.3-0.6-0.4l0.5-0.7c0.5,0.3,1,0.4,1.7,0c1.7-0.7,6.2-3.5,7.5-4.7
				c0.8-0.8,0.6-1.6-0.2-2.4c-0.3-0.3-0.5-0.5-0.8-0.6l0.5-0.7c0.4,0.3,0.8,0.6,1.2,0.9C136.3,146.2,136.7,149.7,134.5,151.9z"/>
			<path d="M145.6,137.9c-2,0.7-4.8,1.6-6.5-0.1c-1.1-1.1-0.6-2.5,0.1-3.7c-0.7,0.2-1.5,0.3-2.2,0.3l0-0.6c2.6,0,6.5-2.3,7.8-3.6
				c0.5-0.5,0.8-1.1,0.9-1.8l0.6,0.4c0,0.4-0.2,0.7-0.3,1.1l2-1.1l2.5,2.5l-9.1,5.3c-0.9,0.5-0.6,0.9-0.5,1.1
				c0.8,0.8,3.4-0.1,4.3-0.5L145.6,137.9z"/>
			<path class="st0" d="M145.2,127c0.4,0.4,0.5,0.9,0.5,1.4c-0.1,0.6-0.5,1.3-0.9,1.8c-1.3,1.3-5.2,3.6-7.8,3.6
				c-0.7,0-1.4-0.2-1.8-0.7c-0.6-0.6-0.5-1.3,0-1.8c0.5-0.5,3.5-2.3,4.3-2.8C143.7,126,144.9,126.6,145.2,127z"/>
			<path d="M122.1,143.1c2.8-2.8,7.8-2.2,10.9,0l-0.5,0.7c-0.8-0.5-1.6-0.5-2.6-0.1c-1.2,0.6-6.6,4.1-7.2,4.8
				c-0.7,0.7,0.1,1.6,0.6,2.1c0.3,0.3,0.6,0.6,0.9,0.8l-0.5,0.7c-0.6-0.4-1-0.8-1.5-1.3C119.6,148.1,120.1,145,122.1,143.1z"/>
			<path d="M137,134.3c-1.1,0-2.2-0.3-3-1.2c-1.9-1.9-1.4-4.7,0.4-6.5c2.4-2.4,6.3-3.1,9.4-1.7c0.6,0.2,1.2,0.6,1.6,1
				c0.9,0.9,1.1,1.9,1,2.9l-0.6-0.4c0-0.5-0.1-1-0.5-1.4c-0.4-0.4-1.5-1.1-5.7,1.4c-0.8,0.5-3.8,2.4-4.3,2.8c-0.6,0.6-0.6,1.3,0,1.8
				c0.5,0.5,1.1,0.6,1.8,0.7L137,134.3z"/>
			<path d="M133.1,126.2c-2.5,1-4.6,1.5-6.6-0.6c-1.1-1.1-1.3-2.6-0.1-3.8c0.5-0.5,0.9-0.6,1.2-0.8l14.6-9.2l-1.6-1.6l0.8-0.5
				l2.3,2.3c0.8,0.8,1.7,1.4,2.5,2.1l-16.9,10.6c-0.4,0.3-1.1,0.7-0.7,1.2c0.7,0.9,3.4,0,4.3-0.4L133.1,126.2z"/>
			<path d="M117,132.4c2.2-0.5,4.8-0.7,6.5,1c1.2,1.2,1.4,2.7,0.2,3.9c-0.3,0.3-1.1,0.8-1.9,1.3l-3.9,2.3c-0.8,0.4-1.5,0.9-1.6,1
				c-0.2,0.2-0.3,0.4,0,0.7c0.8,0.8,3.5,0,4.5-0.3l0.3,0.7c-2.3,0.8-4.7,1.3-6.6-0.6c-1.5-1.5-1.3-2.7-0.5-3.6
				c0.4-0.4,1.1-0.8,2-1.3l5.4-3.2c0.8-0.4,0.8-0.8,0.6-1c-0.7-0.7-2.6-0.7-4.6-0.2L117,132.4z"/>
			<path d="M115.2,128.8c0.8-0.5,1.3-0.8,0.8-1.4l0.4-0.7c0.5,0.2,0.9,0.5,1.4,0.9c1.7,1.7,1.1,3.5-0.7,4.7l0,0.1l0.3,0.6
				c-1.5,0.4-3.2,1.1-4.5,1.9l-3.5,2.3l-2.9-2.9L115.2,128.8z"/>
			<path class="st0" d="M133.1,126.2l-0.2-0.7c-0.9,0.3-3.6,1.2-4.3,0.4c-0.4-0.5,0.2-0.9,0.7-1.2l16.9-10.6
				c-0.9-0.7-1.7-1.3-2.5-2.1l-2.3-2.3l-0.8,0.5l1.6,1.6l-14.6,9.2c-0.3,0.2-0.7,0.3-1.2,0.8c-1.2,1.2-1,2.7,0.1,3.8
				C128.5,127.7,130.6,127.2,133.1,126.2z M148.5,52.7c-1.6-1.6-4.3-1.6-5.9,0l-2.9,2.9c-0.8,0.8-1.2,1.9-1.2,2.9
				c0,1.1,0.4,2.1,1.2,2.9c1.6,1.6,4.3,1.6,5.9,0l2.9-2.9C150.1,56.9,150.1,54.3,148.5,52.7z M103.9,4.4l135.3,134.6
				c0.8,0.8,1.2,1.8,1.2,2.9v0c0,1.1-0.4,2.2-1.2,3c-5.4,5.3-8.4,12.4-8.3,19.9c0,7.7,3.2,15.1,8.8,20.8c1.6,1.6,1.6,4.3,0,5.9
				l-46.6,46.9c-0.8,0.8-1.8,1.2-2.9,1.2c-1.1,0-2.2-0.4-2.9-1.2c-11.1-11-30.9-10.8-42.3,0.5c-1.6,1.6-4.2,1.6-5.9,0l-85.4-84.9
				l1-1c1.6-1.6,1.6-4.2,0-5.9c-1.6-1.6-4.3-1.6-5.9,0l-1,1l-44-43.8c-0.8-0.8-1.2-1.8-1.2-2.9l0,0c0-1.1,0.4-2.2,1.2-2.9
				c5.7-5.6,8.9-13.5,8.9-21.6c0-7.8-3-15-8.3-20.3c-1.6-1.5-1.6-4.3,0-5.9L50.9,3.8c1.6-1.6,4.2-1.6,5.9,0
				c11.5,11.4,30,11.7,41.3,0.6C99.7,2.8,102.3,2.8,103.9,4.4z M144.6,171.3c-0.5-0.5-0.1-0.7,0.6-1.2l9.2-5.7
				c-0.4-0.4-0.8-0.7-1.2-1.1c-0.4-0.3-0.8-0.7-1.2-1.1l-2.3-2.3l-0.8,0.5l1.6,1.6l-6.8,4.3c-0.9,0.6-1.7,1.1-2.1,1.5
				c-0.8,0.8-0.4,2.1,0.6,3.1c2.1,2.1,4.3,1.8,7,0.6l-0.2-0.7C148.1,171.2,145.4,172.1,144.6,171.3z M159,158.1
				c-0.7-0.7-2.2-0.7-2.9,0c-0.8,0.8-1,2.2-0.2,3c0.8,0.8,2.3,0.9,3.2,0C159.9,160.3,159.8,159,159,158.1z M171,162.7
				c-2.2,2.2-2,5.5,0.1,7.6c1.9,1.9,4.5,2.5,7.2,2.1l0-0.7c-2.2,0.3-4.5-0.1-6.1-1.7c-0.7-0.7-0.9-1.5-0.2-2.3
				c1.9-1.9,6.9-4.6,8.2-4.7c0.9-0.1,1.2,0,1.8,0.7c0.4,0.4,0.3,0.9,0.1,1.2c-0.1,0.1-0.3,0.2-0.6,0.3c-0.3,0.1-0.5,0.3-0.8,0.5
				c-0.7,0.7-0.7,1.8,0.1,2.5c0.8,0.8,2,0.8,2.8,0c1.5-1.5,0.2-3.9-1-5.1C179.7,160.3,173.9,159.7,171,162.7z M150.3,171.8
				c-2.2,2.2-1.7,5.3,0.4,7.4c2.2,2.2,5,3.1,8.1,2.5l0-0.7c-2.6,0.4-5.2-0.1-7.1-2c-0.7-0.7-0.9-1.4-0.1-2.2
				c0.8-0.8,1.8-1.3,2.7-1.9l1.8,1.8c0.7,0.7,1.5,1.2,2.3,1.6c1.7,0.8,3.4,1.1,4.8-0.4c1.7-1.7,0.5-4.2-0.9-5.7
				C159.4,169.3,153.4,168.8,150.3,171.8z M162,158.7c-0.8,0.8-0.4,2.1,0.6,3.1c2.1,2.1,4.3,1.8,7,0.6l-0.2-0.7
				c-0.9,0.4-3.6,1.3-4.4,0.5c-0.5-0.5-0.1-0.7,0.6-1.2l9.2-5.7c-0.4-0.4-0.8-0.7-1.2-1.1c-0.4-0.4-0.8-0.7-1.2-1.1l-2.3-2.3
				l-0.8,0.5l1.6,1.6l-6.8,4.3C163.2,157.8,162.3,158.3,162,158.7z M146.3,145.5c1.9,1.9,4.9,2.7,7,0.5c1-1,1.1-2.3,0.9-3.6
				l-0.6-3.9c-0.1-0.5-0.1-0.8,0.3-1.2c0.7-0.7,1.7,0.1,2.2,0.6c0.2,0.2,0.8,1,0.5,1.2c-0.2,0.2-0.9,0.6-1,0.8
				c-0.5,0.8-0.4,1.5,0.2,2.1c0.6,0.6,1.6,0.4,2.1-0.1c1.3-1.3,0.1-3.3-0.9-4.3c-2.3-2.3-5.1-2-6.5-0.6c-0.4,0.4-1.1,0.9-0.9,2.3
				l0.6,4.5c0.1,0.7,0,1.4-0.4,1.9c-0.9,0.9-2.2-0.1-2.8-0.7c-0.3-0.3-1.2-1.3-0.8-1.7c0.3-0.3,1-0.4,1.4-0.8c0.7-0.7,0.7-1.7,0-2.3
				c-0.8-0.8-1.9-0.8-2.6,0C143.4,141.7,145,144.2,146.3,145.5z M144.4,156.9c-0.8,0.8-0.7,1.8,0,2.5c0.2,0.2,0.4,0.3,0.5,0.4
				c0.2,0.2,0.2,0.4,0.1,0.5c-1.7,1.7-7.2,4-9.2,2c-0.4-0.4-0.6-1.2-0.1-1.7c0.2-0.2,1.4-0.9,2.7-1.7l3.7-2.2
				c1.4-0.8,1.9-2.8,0.2-4.5c-1.7-1.7-4.4-1.1-6.3-0.1l0.4,0.6c0.8-0.4,3.5-1.2,4.2-0.5c0.1,0.1,0.3,0.4,0.1,0.5
				c-0.2,0.2-1,0.7-1.7,1.2l-4,2.4c-0.8,0.5-1.4,0.8-1.8,1.2c-1.3,1.3-0.9,3.2,0.3,4.4c1.3,1.3,3,1.9,4.5,2c2.6,0,6.7-1.5,8.6-3.4
				c1-1,1.5-2.6,0.4-3.7C146.3,156.2,145.2,156.2,144.4,156.9z M165.4,147.9c-0.2,0.1-0.9,0.6-1,0.8c-0.5,0.8-0.4,1.5,0.2,2.1
				c0.6,0.6,1.6,0.4,2.1-0.1c1.3-1.3,0.1-3.3-0.9-4.3c-2.3-2.3-5.1-2-6.5-0.6c-0.4,0.4-1.1,0.9-0.9,2.3l0.6,4.5
				c0.1,0.7,0,1.4-0.4,1.9c-0.9,0.9-2.2-0.1-2.8-0.7c-0.3-0.3-1.2-1.3-0.8-1.7c0.3-0.3,1-0.4,1.4-0.8c0.7-0.7,0.7-1.7,0-2.3
				c-0.8-0.8-1.9-0.8-2.6,0c-1.6,1.6,0,4.1,1.3,5.3c1.9,1.9,4.9,2.7,7,0.5c1-1,1.1-2.3,0.9-3.6l-0.6-3.9c-0.1-0.5-0.1-0.8,0.3-1.2
				c0.7-0.7,1.7,0.1,2.2,0.6C165,146.8,165.7,147.7,165.4,147.9z M134.3,126.6c-1.8,1.8-2.3,4.6-0.4,6.5c0.9,0.9,1.9,1.2,3,1.2
				c0.7,0,1.5-0.1,2.2-0.3c-0.8,1.1-1.2,2.6-0.1,3.7c1.7,1.7,4.5,0.8,6.5,0.1l-0.3-0.6c-0.9,0.3-3.6,1.2-4.3,0.5
				c-0.1-0.1-0.4-0.6,0.5-1.1l9.1-5.3l-2.5-2.5l-2,1.1c0.1-0.4,0.3-0.7,0.3-1.1c0.2-1.1-0.1-2.1-1-2.9c-0.4-0.4-1-0.8-1.6-1
				C140.7,123.6,136.7,124.2,134.3,126.6z M123.5,133.4c-1.7-1.7-4.3-1.5-6.5-1l0-0.1c1.8-1.2,2.4-3,0.7-4.7
				c-0.4-0.4-0.9-0.7-1.4-0.9c-1.5-0.6-3.3-0.4-4.9-0.3v-0.1l3-1.9c-0.7-0.7-1.5-1.4-2.3-2.1l-2.2-2.2l-0.8,0.5l1.6,1.6l-10.1,6.3
				l2.9,2.9l5.1-3c1.7-1,3.8-1.4,5.5-1.4c0.7,0,1.5,0,1.8,0.4c0.6,0.6,0,0.9-0.8,1.4l-8.8,5.5l2.9,2.9l3.5-2.3
				c1.3-0.8,2.9-1.5,4.5-1.9c2-0.5,3.8-0.5,4.6,0.2c0.2,0.2,0.1,0.6-0.6,1l-5.4,3.2c-0.9,0.5-1.6,0.9-2,1.3c-0.8,0.8-1,2.1,0.5,3.6
				c1.9,1.9,4.3,1.3,6.6,0.6l-0.3-0.7c-1,0.3-3.7,1.1-4.5,0.3c-0.3-0.3-0.2-0.5,0-0.7c0.1-0.1,0.8-0.5,1.6-1l3.9-2.3
				c0.8-0.5,1.6-1,1.9-1.3C124.9,136,124.7,134.5,123.5,133.4z M122.1,143.1c-1.9,1.9-2.5,5,0.2,7.7c0.5,0.5,1,0.9,1.5,1.3
				c0.2,0.1,0.4,0.3,0.6,0.4c2.8,1.7,7.5,1.9,10-0.6c2.2-2.2,1.8-5.7-0.3-7.9c-0.3-0.3-0.7-0.7-1.2-0.9
				C129.9,140.9,124.8,140.3,122.1,143.1z M185.8,204.3l19.5-19.6l-0.8-2.4c-1.8-5.7-2.8-11.6-2.8-17.6v0c0-5.6,0.8-11.1,2.3-16.4
				l0.7-2.4l-63.9-63.5c-1.6-1.6-4.3-1.6-5.9,0c-1.6,1.6-1.6,4.3,0,5.9l60.4,60.1c-1.4,5.3-2.1,10.9-2,16.4c0,6,0.9,11.9,2.5,17.7
				l-12.5,12.6c-11.4-2.9-23.7-2.8-35.1,0.2l-60.1-59.8c-1.6-1.6-4.3-1.6-5.9,0c-0.8,0.8-1.2,1.9-1.2,2.9c0,1.1,0.4,2.1,1.2,2.9
				l63.6,63.3l2.4-0.7c11.3-3.5,23.8-3.6,35.2-0.3L185.8,204.3z M176.1,152.1c0.8,0.8,2.3,0.8,3.2,0c0.9-0.9,0.7-2.2-0.1-3
				c-0.7-0.7-2.2-0.7-2.9,0C175.4,149.9,175.2,151.3,176.1,152.1z M133.8,110.9l4.9-3.6l-0.5-0.5l-1.9-0.1c-0.1-1.5-0.6-3.1-1.7-4.2
				c-2.1-2.1-6.3-2.8-9.2-2.6c-3.3,0.2-6.8,1.3-9.2,3.7c-3.5,3.5-3.4,8.4,0.1,11.8c1.3,1.3,3.1,2.4,5,2.6l-0.2,1.6l0.5,0.5l5.2-3.1
				l-0.7-1c-3,1-6.4,1.6-8.8-0.9c-1.7-1.7-2.1-2.8-0.3-4.6c2-2,4.5-3.6,7-5.1c1.7-1,5.2-3.2,7.1-3.3c1.3,0,2,0.2,2.9,1.1
				c2.1,2.1,0.6,5-0.9,6.7L133.8,110.9z M57.6,144.1c1.6,1.6,4.3,1.6,5.9,0l2.9-2.9c1.6-1.6,1.6-4.3,0-5.9c-1.6-1.6-4.3-1.6-5.9,0
				l-2.9,3c-0.8,0.8-1.2,1.9-1.2,2.9C56.4,142.2,56.8,143.2,57.6,144.1z M75.2,132.3l2.9-3c1.6-1.6,1.6-4.3,0-5.9
				c-1.6-1.6-4.3-1.6-5.9,0l-2.9,2.9c-0.8,0.8-1.2,1.9-1.2,2.9c0,1.1,0.4,2.1,1.2,2.9C70.9,133.9,73.6,133.9,75.2,132.3z M81,120.5
				c1.6,1.6,4.3,1.6,5.9,0l2.9-2.9c1.6-1.6,1.6-4.3,0-5.9c-1.6-1.6-4.3-1.6-5.9,0l-2.9,2.9c-0.8,0.8-1.2,1.9-1.2,2.9
				C79.8,118.6,80.2,119.7,81,120.5z M98.7,108.7l2.9-2.9c1.6-1.6,1.6-4.3,0-5.9c-1.6-1.6-4.3-1.6-5.9,0l-2.9,2.9
				c-0.8,0.8-1.2,1.9-1.2,2.9c0,1.1,0.4,2.1,1.2,2.9C94.4,110.3,97,110.3,98.7,108.7z M104.5,96.9c1.6,1.6,4.3,1.6,5.9,0l2.9-2.9
				c1.6-1.6,1.6-4.3,0-5.9c-1.6-1.6-4.3-1.6-5.9,0l-2.9,2.9c-0.8,0.8-1.2,1.9-1.2,2.9C103.3,95,103.7,96.1,104.5,96.9z M122.1,85.1
				l2.9-2.9c1.6-1.6,1.6-4.3,0-5.9c-1.6-1.6-4.3-1.6-5.9,0l-2.9,2.9c-0.8,0.8-1.2,1.9-1.2,2.9c0,1.1,0.4,2.1,1.2,2.9
				C117.9,86.7,120.5,86.7,122.1,85.1z M128,73.3c1.6,1.6,4.3,1.6,5.9,0l2.9-2.9c1.6-1.6,1.6-4.3,0-5.9c-1.6-1.6-4.3-1.6-5.9,0
				l-2.9,2.9c-0.8,0.8-1.2,1.9-1.2,2.9C126.7,71.4,127.1,72.5,128,73.3z M61.4,120.5c1.6,1.6,4.3,1.6,5.9,0c1.6-1.6,1.6-4.3,0-5.9
				L47.6,95.1c1.6-5.9,2.5-12,2.5-18.2v-0.1c0-5.7-0.8-11.4-2.2-16.9l12.3-12.4c11.3,3.1,23.1,3.3,34.3,0.4l18.5,18.4
				c1.6,1.6,4.3,1.6,5.9,0c1.6-1.6,1.6-4.3,0-5.9L97,38.6l-2.4,0.7c-11.2,3.3-23.1,3.1-34.3-0.4L57.9,38L38.5,57.5l0.7,2.4
				c1.7,5.4,2.5,11.2,2.5,16.9c0.1,6.1-0.9,12.3-2.8,18.2l-0.8,2.4L61.4,120.5z"/>
			<path d="M114.2,127c-1.7,0-3.9,0.4-5.5,1.4l-5.1,3l-2.9-2.9l10.1-6.3l-1.6-1.6l0.8-0.5l2.2,2.2c0.7,0.7,1.5,1.4,2.3,2.1l-3,1.9
				v0.1c1.7-0.2,3.4-0.4,4.9,0.3l-0.4,0.7C115.6,127,114.9,127,114.2,127z"/>
			<path d="M117.2,115.1c2.4,2.4,5.9,1.8,8.8,0.9l0.7,1l-5.2,3.1l-0.5-0.5l0.2-1.6c-1.9-0.2-3.6-1.2-5-2.6
				c-3.4-3.4-3.6-8.3-0.1-11.8c2.4-2.4,5.9-3.5,9.2-3.7c2.9-0.2,7.1,0.5,9.2,2.6c1.1,1.1,1.6,2.7,1.7,4.2l1.9,0.1l0.5,0.5l-4.9,3.6
				l-0.7-0.9c1.5-1.7,2.9-4.7,0.9-6.7c-0.9-0.9-1.6-1.2-2.9-1.1c-1.9,0.1-5.4,2.3-7.1,3.3c-2.4,1.5-4.9,3.1-7,5.1
				C115.2,112.3,115.6,113.4,117.2,115.1z"/>
			<path d="M67.3,120.5c-1.6,1.6-4.3,1.6-5.9,0L38.2,97.4L39,95c1.9-5.9,2.9-12.1,2.8-18.2c0-5.8-0.9-11.5-2.5-16.9l-0.7-2.4
				L57.9,38l2.4,0.8c11.3,3.6,23.1,3.7,34.3,0.4l2.4-0.7l22,21.8c1.6,1.6,1.6,4.2,0,5.9c-1.6,1.6-4.2,1.6-5.9,0L94.5,47.9
				c-11.3,2.8-23,2.7-34.3-0.4L47.9,59.9c1.4,5.5,2.2,11.2,2.2,16.9v0.1c0,6.1-0.8,12.2-2.5,18.2l19.6,19.5
				C68.9,116.2,68.9,118.9,67.3,120.5z"/>
		</g>
		<g>
			<path class="st1" d="M144.9,238.8c11.4-11.3,31.2-11.6,42.3-0.5c0.8,0.8,1.8,1.2,2.9,1.2c1.1,0,2.2-0.4,2.9-1.2l46.6-46.9
				c1.5-1.6,1.5-4.3,0-5.9c-5.7-5.7-8.8-13-8.8-20.8c0-7.5,2.9-14.5,8.3-19.9c0.8-0.8,1.2-1.8,1.2-3v0c0-1.1-0.4-2.2-1.2-2.9
				L103.9,4.4c-1.6-1.6-4.2-1.6-5.9,0C86.8,15.5,68.3,15.2,56.8,3.8c-1.6-1.6-4.3-1.6-5.9,0L4.4,50.6c-1.5,1.6-1.5,4.3,0,5.9
				c5.3,5.3,8.3,12.5,8.3,20.3c0,8.1-3.2,16-8.9,21.6c-0.8,0.8-1.2,1.8-1.2,2.9l0,0c0,1.1,0.4,2.2,1.2,2.9l44,43.8l1-1
				c1.6-1.6,4.2-1.6,5.9,0c1.6,1.6,1.6,4.2,0,5.9l-1,1l85.4,84.9C140.7,240.4,143.3,240.4,144.9,238.8z"/>
			<path class="st1" d="M125,76.2c1.6,1.6,1.6,4.2,0,5.9l-2.9,2.9c-1.6,1.6-4.2,1.6-5.9,0c-0.8-0.8-1.2-1.9-1.2-2.9
				c0-1.1,0.4-2.1,1.2-2.9l2.9-2.9C120.8,74.6,123.4,74.6,125,76.2z"/>
			<path class="st1" d="M113.3,88c1.6,1.6,1.6,4.3,0,5.9l-2.9,2.9c-1.6,1.6-4.2,1.6-5.9,0c-0.8-0.8-1.2-1.9-1.2-2.9
				c0-1.1,0.4-2.1,1.2-2.9l2.9-2.9C109,86.4,111.7,86.4,113.3,88z"/>
			<path class="st1" d="M101.6,105.7l-2.9,2.9c-1.6,1.6-4.2,1.6-5.9,0c-0.8-0.8-1.2-1.9-1.2-2.9c0-1.1,0.4-2.1,1.2-2.9l2.9-2.9
				c1.6-1.6,4.2-1.6,5.9,0C103.2,101.4,103.2,104.1,101.6,105.7z"/>
			<path class="st1" d="M136.8,64.4c1.6,1.6,1.6,4.3,0,5.9l-2.9,2.9c-1.6,1.6-4.3,1.6-5.9,0c-0.8-0.8-1.2-1.9-1.2-2.9
				c0-1.1,0.4-2.1,1.2-2.9l2.9-2.9C132.5,62.8,135.1,62.8,136.8,64.4z"/>
			<path class="st1" d="M148.5,52.7c1.6,1.6,1.6,4.2,0,5.9l-2.9,2.9c-1.6,1.6-4.3,1.6-5.9,0c-0.8-0.8-1.2-1.9-1.2-2.9
				c0-1.1,0.4-2.1,1.2-2.9l2.9-2.9C144.2,51,146.9,51,148.5,52.7z"/>
			<path class="st1" d="M61.4,120.5L38.2,97.4L39,95c1.9-5.9,2.9-12.1,2.8-18.2c0-5.8-0.9-11.5-2.5-16.9l-0.7-2.4L57.9,38l2.4,0.8
				c11.3,3.6,23.1,3.7,34.3,0.4l2.4-0.7l22,21.8c1.6,1.6,1.6,4.2,0,5.9c-1.6,1.6-4.2,1.6-5.9,0L94.5,47.9c-11.3,2.8-23,2.7-34.3-0.4
				L47.9,59.9c1.4,5.5,2.2,11.2,2.2,16.9v0.1c0,6.1-0.8,12.2-2.5,18.2l19.6,19.5c1.6,1.6,1.6,4.2,0,5.9
				C65.7,122.1,63,122.1,61.4,120.5z"/>
			<path class="st1" d="M81,120.5c-0.8-0.8-1.2-1.9-1.2-2.9c0-1.1,0.4-2.1,1.2-2.9l2.9-2.9c1.6-1.6,4.2-1.6,5.9,0
				c1.6,1.6,1.6,4.2,0,5.9l-2.9,2.9C85.3,122.1,82.7,122.1,81,120.5z"/>
			<path class="st1" d="M69.3,132.3c-0.8-0.8-1.2-1.9-1.2-2.9c0-1.1,0.4-2.1,1.2-2.9l2.9-2.9c1.6-1.6,4.3-1.6,5.9,0
				c1.6,1.6,1.6,4.2,0,5.9l-2.9,3C73.6,133.9,70.9,133.9,69.3,132.3z"/>
			<path class="st1" d="M57.6,144.1c-0.8-0.8-1.2-1.9-1.2-2.9c0-1.1,0.4-2.1,1.2-2.9l2.9-3c1.6-1.6,4.2-1.6,5.9,0
				c1.6,1.6,1.6,4.2,0,5.9l-2.9,2.9C61.8,145.7,59.2,145.7,57.6,144.1z"/>
			<path class="st1" d="M82.3,141.2c-0.8-0.8-1.2-1.9-1.2-2.9c0-1.1,0.4-2.1,1.2-2.9c1.6-1.6,4.3-1.6,5.9,0l60.1,59.8
				c11.4-3,23.7-3.1,35.1-0.2l12.5-12.6c-1.6-5.7-2.4-11.7-2.5-17.7c-0.1-5.5,0.7-11.1,2-16.4L135,88.2c-1.6-1.6-1.6-4.2,0-5.9
				c1.6-1.6,4.3-1.6,5.9,0l63.9,63.5l-0.7,2.4c-1.6,5.3-2.4,10.8-2.3,16.4v0c0,6,1,11.9,2.8,17.6l0.8,2.4l-19.5,19.6l-2.4-0.7
				c-11.3-3.3-23.8-3.2-35.2,0.3l-2.4,0.7L82.3,141.2z"/>
		</g>
	</g>
</g>
</svg>
