<?xml version="1.0" encoding="utf-8"?>
<!-- Generator: Adobe Illustrator 21.0.0, SVG Export Plug-In . SVG Version: 6.00 Build 0)  -->
<svg version="1.1" id="Calque_1" xmlns="http://www.w3.org/2000/svg" xmlns:xlink="http://www.w3.org/1999/xlink" x="0px" y="0px"
	 viewBox="0 0 105.9 183.4" style="enable-background:new 0 0 105.9 183.4;" xml:space="preserve">
<style type="text/css">
	.st0{fill:#8D0BFF;}
	.st1{fill:none;stroke:#000000;stroke-width:0.4886;stroke-miterlimit:10;}
</style>
<g>
	<path class="st0" d="M105.8,107.8v71.8c0,2.1-1.7,3.8-3.8,3.8H3.8c-2.1,0-3.8-1.7-3.8-3.8V3.8C0,1.7,1.7,0,3.8,0H102
		c2.1,0,3.8,1.7,3.8,3.8v71.1c0,1-0.5,1.8-1.4,2.3l-1.1,0.6c-0.9,0.4-1.4,1.3-1.4,2.3v23.8c0,1.1,0.7,2.1,1.8,2.4l1.4,0.4
		C105.5,106.8,105.8,107.3,105.8,107.8L105.8,107.8z"/>
	<path class="st1" d="M105.8,107.8v71.8c0,2.1-1.7,3.8-3.8,3.8H3.8c-2.1,0-3.8-1.7-3.8-3.8V3.8C0,1.7,1.7,0,3.8,0H102
		c2.1,0,3.8,1.7,3.8,3.8v71.1c0,1-0.5,1.8-1.4,2.3l-1.1,0.6c-0.9,0.4-1.4,1.3-1.4,2.3v23.8c0,1.1,0.7,2.1,1.8,2.4l1.4,0.4
		C105.5,106.8,105.8,107.3,105.8,107.8L105.8,107.8z"/>
	<path d="M50.9,41.6c-26.6,0-48.2,21.7-48.2,48.2s21.7,48.2,48.2,48.2c26.6,0,48.2-21.7,48.2-48.2S77.5,41.6,50.9,41.6z M50.9,133.6
		c-24.1,0-43.7-19.6-43.7-43.7c0-24.1,19.6-43.7,43.7-43.7c24.1,0,43.7,19.6,43.7,43.7C94.6,114,75,133.6,50.9,133.6z"/>
	<path d="M22.2,69.6l18.7,3.8c0.2,0,0.3,0,0.5,0c1.1,0,2-0.7,2.2-1.8c0.2-1.2-0.5-2.4-1.8-2.7l-18.7-3.8c-1.3-0.2-2.4,0.5-2.7,1.8
		C20.2,68.2,21,69.3,22.2,69.6z"/>
	<path d="M56.8,72.6c0.2,0,0.4,0,0.5-0.1l18.5-4.6c1.2-0.3,2-1.5,1.6-2.7c-0.3-1.2-1.5-2-2.7-1.6l-18.5,4.6c-1.2,0.3-2,1.5-1.6,2.7
		C54.9,71.9,55.8,72.6,56.8,72.6L56.8,72.6z"/>
	<path d="M38.5,120.5c-1.1-0.4-2.1-0.7-3.2-1.2c-1.2-0.5-2.5,0.1-3,1.3c-0.5,1.2,0.1,2.5,1.3,3c25.1,10.2,39.5-9.1,39.7-9.3
		c0.7-1,0.5-2.4-0.5-3.2c-0.5-0.4-1.1-0.5-1.7-0.4c-0.6,0.1-1.1,0.4-1.5,0.9c0,0-0.7,0.9-2,2.2c-1.5,1.4-3.8,3.4-6.8,5
		C53.9,122.4,46.4,123,38.5,120.5z"/>
	<path d="M66.5,74.2c-2.3,0.4-4.5,1.4-6.5,3c-4.1,3.2-6.7,8.3-7.2,14c-0.1,1.7,0.2,4.5,0.6,6.1c2.5,8.4,10.1,12.4,17.8,9.3
		c1.2-0.5,2.6-1.3,3.8-2.2c1.3-1,3.5-3.6,4.3-5c3.3-5.7,3.6-12.5,0.9-17.9C77.7,76,72.1,73.1,66.5,74.2z M70.2,75.4
		c3.4,0.4,6.4,2.5,8.3,5.5c2,3.2,2.8,7.3,2,11.5c-0.3,1.6-0.5,2.6-1.3,4.2c-2.9,6.8-9.2,10.7-15.3,9.6c-2.7-0.5-5.5-2.3-7.2-4.8
		c-1.7-2.4-2.5-5-2.7-8.4c-0.1-2.7,0.3-4.9,1.3-7.6c0.8-1.9,1.7-3.4,3-4.9c2.3-2.7,5.2-4.4,8.4-5C67.7,75.3,69.4,75.3,70.2,75.4z"/>
	<path d="M66.3,78.6c-0.4,0.1-1.1,0.3-1.7,0.6c-5,2.1-8.4,7.9-7.9,13.8c0.4,5.2,3.5,9.1,8.1,10.1c0.9,0.2,1.2,0.2,2.5,0.1
		c1.6-0.1,2.5-0.4,3.9-1.1c2.9-1.5,5.3-4.3,6.4-7.7c1.3-3.9,0.9-7.8-0.9-11C74.5,79.6,70.5,77.7,66.3,78.6z M70.1,79.9
		c4.9,1.1,7.8,6.3,6.8,12.2c-1.1,5.9-6.2,10.4-11.2,9.7c-3.2-0.4-5.9-2.7-7-6.1c-0.4-1.2-0.7-3.7-0.5-5c0.5-5.1,3.9-9.5,8.3-10.7
		C67.3,79.7,69.1,79.7,70.1,79.9z"/>
	<path d="M66.1,83c-1.3,0.5-2.5,1.3-3.4,2.4c-1,1.2-1.6,2.4-2,4.1c-0.2,0.9-0.2,1.1-0.1,2.7c0.1,1.4,0.2,1.8,0.4,2.3
		c0.9,2.2,2.4,3.7,4.4,4.2c0.7,0.2,1,0.2,2.1,0.2c1-0.1,1.4-0.2,2-0.4c4-1.6,6.3-6.9,4.8-11.2c-0.8-2.3-2.8-4.1-5-4.5
		C68.3,82.6,66.8,82.7,66.1,83L66.1,83z M69.2,84.2c3.6,0.8,5.2,5.5,3.3,9.5c-0.5,1.1-1.8,2.5-2.7,3.1c-1,0.6-1.7,0.8-2.9,0.8
		c-1.2,0-2.2-0.4-3.2-1.2c-1.2-1.1-1.8-2.5-2-4.3C61.6,90.3,62,88.7,63,87c0.8-1.2,2.2-2.3,3.4-2.7C67.2,84,68.5,84,69.2,84.2z"/>
	<path d="M66.5,87.4c-1.9,0.8-2.9,3.4-2,5.4c0.4,0.9,1.3,1.6,2.2,1.8c2.3,0.5,4.4-1.6,4.2-4.3c-0.1-1.5-1.1-2.8-2.3-3
		C67.7,87,67.2,87,66.5,87.4L66.5,87.4z M68.6,88.6c0.2,0.1,0.4,0.4,0.6,0.6c0.2,0.4,0.3,0.5,0.3,1.3c0,0.7,0,0.9-0.3,1.4
		c-0.5,1.1-1.6,1.6-2.5,1.3c-1.4-0.6-1.7-2.5-0.6-3.8C66.8,88.5,67.8,88.1,68.6,88.6z"/>
	<path d="M29.2,79.7c-1.6,0.5-2.8,1.3-3.9,2.6c-1.8,1.9-2.8,4.5-3.1,7.4c-0.1,1.2,0.1,3.6,0.5,4.6c0.7,2.3,1.8,4,3.4,5.5
		c1.4,1.2,2.6,1.8,4.3,2.2c0.8,0.2,1.1,0.2,2.3,0.1c1.3-0.1,1.5-0.2,2.3-0.4c1.5-0.6,2.6-1.3,3.7-2.6c3.8-4.2,4.1-11.2,0.6-15.9
		c-0.6-0.9-2-2.1-2.9-2.7c-0.9-0.5-2-1-3.1-1.2C32.1,79.1,30.5,79.2,29.2,79.7L29.2,79.7z M33.1,80.5c5.7,1,9.1,8.3,6.7,14.6
		c-0.5,1.3-1,2.1-1.8,3.1c-3.8,4.3-9.9,3.6-12.9-1.5c-2.4-4.1-2.1-9.5,0.7-13.1c1.1-1.4,2.3-2.3,3.8-2.8
		C30.4,80.5,32.2,80.3,33.1,80.5z"/>
	<path d="M29.9,82.6c-2.2,0.8-3.8,2.5-4.7,4.8c-1.4,3.9,0,8.7,3.2,10.7c2.3,1.5,5.2,1.5,7.3-0.1c0.7-0.5,1.7-1.6,2.1-2.3
		c0.5-0.7,0.9-2,1.2-3c0.3-1.3,0.2-3.3-0.1-4.5c-0.9-3-2.9-5.2-5.5-5.9C32.5,82.1,30.8,82.2,29.9,82.6z M33.1,83.5
		c2.2,0.5,3.9,2.3,4.7,4.8c0.3,0.9,0.4,2.6,0.3,3.6c-0.4,3.1-2.6,5.6-5.2,6.1c-2.7,0.4-5.4-1.4-6.4-4.5c-0.4-1.1-0.5-3.2-0.3-4.3
		c0.5-2.5,2-4.5,4-5.4C30.8,83.4,32.2,83.3,33.1,83.5z"/>
	<path d="M30.4,85.4c-1.6,0.7-2.9,2.4-3.2,4.4c-0.1,0.6-0.1,1,0,1.8c0.2,1.6,0.8,2.7,1.9,3.7c1.4,1.2,3,1.4,4.6,0.7
		c1.4-0.6,2.5-2,2.9-3.8c0.2-0.7,0.2-1,0.1-2c-0.1-1-0.2-1.3-0.4-1.9C35.3,85.8,32.7,84.5,30.4,85.4z M33.1,86.5
		c1.6,0.7,2.7,2.7,2.5,4.6c-0.1,1.5-1,3-2.1,3.6c-0.7,0.4-1.8,0.5-2.5,0.2c-0.7-0.3-1.6-1-2-1.7c-0.4-0.7-0.6-1.3-0.7-2.2
		c-0.2-2.1,0.9-4,2.5-4.7C31.4,86.2,32.6,86.3,33.1,86.5z"/>
	<path d="M30.9,88.4c-1.3,0.7-1.6,2.6-0.7,3.9c0.7,1.2,2.1,1.4,3.2,0.6c0.8-0.6,1.3-1.9,0.9-2.9C33.8,88.3,32.2,87.6,30.9,88.4z
		 M32.6,89.5c0.7,0.6,0.7,1.8,0,2.5c-1,0.9-2.2-0.6-1.7-2c0.2-0.5,0.5-0.7,1-0.8C32.2,89.2,32.4,89.3,32.6,89.5z"/>
</g>
</svg>
