<?xml version="1.0" encoding="utf-8"?>
<!-- Generator: Adobe Illustrator 21.0.0, SVG Export Plug-In . SVG Version: 6.00 Build 0)  -->
<svg version="1.1" id="Calque_1" xmlns="http://www.w3.org/2000/svg" xmlns:xlink="http://www.w3.org/1999/xlink" x="0px" y="0px"
	 viewBox="0 0 105.9 183.4" style="enable-background:new 0 0 105.9 183.4;" xml:space="preserve">
<style type="text/css">
	.st0{fill:#80D4F9;}
	.st1{fill:none;stroke:#000000;stroke-width:0.4886;stroke-miterlimit:10;}
	.st2{fill:#02960C;}
	.st3{fill:#0FC6F7;}
	.st4{fill:#32FF00;}
	.st5{fill:#FF0092;}
	.st6{fill:#FF2400;}
	.st7{fill:#A806B5;}
	.st8{fill:#FF2CAF;}
	.st9{fill:#FFEC00;}
	.st10{fill:#00DD93;}
</style>
<g>
	<path class="st0" d="M105.8,107.8v71.8c0,2.1-1.7,3.8-3.8,3.8H3.8c-2.1,0-3.8-1.7-3.8-3.8V3.8C0,1.7,1.7,0,3.8,0H102
		c2.1,0,3.8,1.7,3.8,3.8v71.1c0,1-0.5,1.8-1.4,2.3l-1.1,0.6c-0.9,0.4-1.4,1.3-1.4,2.3v23.8c0,1.1,0.7,2.1,1.8,2.4l1.4,0.4
		C105.5,106.8,105.8,107.3,105.8,107.8z"/>
	<path class="st1" d="M105.8,107.8v71.8c0,2.1-1.7,3.8-3.8,3.8H3.8c-2.1,0-3.8-1.7-3.8-3.8V3.8C0,1.7,1.7,0,3.8,0H102
		c2.1,0,3.8,1.7,3.8,3.8v71.1c0,1-0.5,1.8-1.4,2.3l-1.1,0.6c-0.9,0.4-1.4,1.3-1.4,2.3v23.8c0,1.1,0.7,2.1,1.8,2.4l1.4,0.4
		C105.5,106.8,105.8,107.3,105.8,107.8z"/>
	<path d="M98.1,66.8L97.9,67c-0.8-4-2.7-10.9-7-17.7c0-0.1,0.1-0.2,0.2-0.3C95.4,55.8,97.3,62.8,98.1,66.8z"/>
	<path class="st2" d="M97.9,67c0.4,2.1,0.5,3.4,0.5,3.4c0,4.8-2.2,6.9-6.3,6.9H67.3l0-0.1h8.1C80.5,76,86,74.4,90.7,72
		c2.6-0.3,4.6-2.5,4.6-5.2c0-2.9-2.3-5.2-5.2-5.2c-0.8,0-1.6,0.2-2.3,0.5c0.7-0.4,1.6-0.6,2.5-0.6c2.9,0,5.2,2.3,5.2,5.2
		c0,1.1-0.4,2.2-0.9,3C95.8,68.8,96.9,68,97.9,67z"/>
	<path d="M58.5,82.6c1.3,2.7,2.8,5.3,4.4,7.7h-0.2v0.1h-0.2c0,4.7,0.7,9.3,1.6,13.8c-3.8-9.3-5.5-17.8-5.5-17.8
		c-5.7,22.7,1.3,42.8,8.3,51.2c-0.8,1.2-1.8,2.2-3.2,2.9c-2.5,1.3-5.9,1.9-10.4,2c-19.7-11.8,2.8-53.1,2.8-53.1
		c-6.7,4.8-12,10.4-16,16.1c0.7-3.4,1.3-6.7,1.7-10.1c6-3.4,10.7-5.3,10.7-5.3c-3.8-0.2-7.4-0.1-10.9,0.2H38c-1.8,0-2.9-1.4-2.6-3.1
		l0.4-2.1c7.5,1.3,13.1,3.1,13.3,3.2c-3.9-3.7-8-6.7-12.1-9.1l0.4-1.9h-3.8C23.6,72,13.6,70,6.1,70c0-0.4,0.2-1.2,0.3-2.3
		c1.7,1,3.6,1.5,5.7,1.5c2,0,3.9-0.5,5.6-1.4c3.3-1.7,5.7-5,6.3-8.9c2.7,1.8,5.4,4,7.9,6.3c-0.3,0.8-0.5,1.7-0.5,2.6
		c0,3.9,3.2,7.1,7.1,7.1c0.7,0,1.4-0.1,2.1-0.3c4.5,5.5,7.3,10,7.3,10c-0.5-4.8-1.6-9.3-2.9-13.6l0-0.1c0.5-1,0.8-2.1,0.8-3.3
		c0-3.2-2.1-5.9-5.1-6.8c-5.5-10.6-12.9-18.1-18.7-21.3c2.2-1.8,4.7-3.5,7.5-5c0.1,0,0.2-0.1,0.4-0.2c2.2-1.1,4.7-2,7.3-2.8
		c1.8,0.9,3.4,2.2,4.7,3.6c-0.9,0.1-1.7,0.3-2.5,0.7c-2.1,1-3.6,3.2-3.6,5.7c0,3.4,2.8,6.3,6.3,6.3c1.1,0,2.1-0.3,3-0.8
		c0.9-0.4,1.6-1,2.1-1.8c4.7,15,1.9,35.6,1.9,35.6c5.1-7.7,8.2-15.7,9.9-23.2c1.4,2.9,3.9,5.1,6.9,6.3c-6.4,8.6-13.5,15-13.5,15
		c20.2-5.9,33.5-19.7,38.6-29.9c4.4,6.8,6.3,13.8,7,17.7c-1,0.9-2.1,1.8-3.3,2.6c0.6-0.9,0.9-1.9,0.9-3c0-2.9-2.3-5.2-5.2-5.2
		c-0.9,0-1.8,0.2-2.5,0.6c-1.7,0.8-2.9,2.6-2.9,4.7c0,2.9,2.3,5.2,5.2,5.2c0.2,0,0.4,0,0.6,0C86,74.3,80.5,76,75.3,77.2h-8.1l0,0.1
		H67l0.3,1.3c-6.5,0.9-11.3,1.1-11.3,1.1c4.1,1.8,8.2,3.2,12.3,4.1l0.7,3.5c0.2,0.8,0,1.6-0.5,2.1C62.7,85.9,58.6,82.7,58.5,82.6z"
		/>
	<path d="M90.9,71.8l-0.2,0.1c-0.2,0-0.4,0-0.6,0c-2.9,0-5.2-2.3-5.2-5.2c0-2.1,1.2-3.8,2.9-4.7c-1.6,0.9-2.7,2.6-2.7,4.5
		c0,2.9,2.3,5.2,5.2,5.2C90.5,71.8,90.7,71.8,90.9,71.8z"/>
	<path class="st3" d="M82.6,52.5c0-6.9-5.6-12.4-12.4-12.4c-2,0-3.8,0.5-5.5,1.3c1.7-0.9,3.6-1.4,5.7-1.4c2.1,0,4.1,0.5,5.8,1.4
		c0.2-2.2-0.1-4.3-0.7-6.4c7.1,3.7,12,9,15.4,14.3c-5.1,10.2-18.3,24-38.6,29.9c0,0,7.1-6.4,13.5-15c1.3,0.5,2.8,0.8,4.3,0.8
		C77,64.9,82.6,59.4,82.6,52.5z"/>
	<path d="M75.4,35c0.7,2,0.9,4.2,0.7,6.4c-1.7-0.9-3.7-1.4-5.8-1.4c-2.1,0-4,0.5-5.7,1.4c-1.6,0.8-3,2-4.2,3.4
		c0-5.9-0.8-10.9-2.2-14.6C65.1,30.8,70.7,32.6,75.4,35z"/>
	<path d="M75.3,34.7c0,0.1,0.1,0.2,0.1,0.3c-4.7-2.5-10.4-4.2-17.2-4.9l-0.1-0.2C65,30.6,70.6,32.3,75.3,34.7z"/>
	<path d="M69.2,87.2c0.2,0.9-0.1,1.8-0.6,2.3l-0.1,0c0.4-0.5,0.6-1.3,0.5-2.2l-0.7-3.5c0.1,0,0.2,0,0.3,0.1L69.2,87.2z"/>
	<path class="st2" d="M67.3,78.6l1,5.2c-4-0.9-8.1-2.3-12.3-4.1C56,79.7,60.8,79.6,67.3,78.6z"/>
	<path d="M67.3,77.3l0.3,1.3c-0.1,0-0.2,0-0.3,0L67,77.3H67.3z"/>
	<path class="st4" d="M68.5,131c0,2.7-0.5,4.9-1.6,6.6c-7-8.3-14-28.5-8.3-51.2c0,0,1.7,8.4,5.5,17.8
		C65.9,112.9,68.5,121.5,68.5,131z"/>
	<path d="M66.9,137.6l0.1,0.1c-0.8,1.2-1.9,2.1-3.3,2.8C65,139.8,66.1,138.8,66.9,137.6z"/>
	<path class="st5" d="M68.5,89.5c-0.5,0.6-1.2,1-2.1,1h-3.8v-0.1h0.2c-1.6-2.4-3-5-4.4-7.7C58.6,82.7,62.7,85.9,68.5,89.5z"/>
	<path d="M65.9,64c0,0.1-0.1,0.1-0.1,0.2c-3-1.1-5.5-3.4-6.9-6.3l0.1-0.5C60.4,60.4,62.9,62.8,65.9,64z"/>
	<path d="M64.6,105.6l-0.6-1.4c-0.9-4.5-1.6-9.1-1.6-13.8h0.2C62.7,95.6,63.6,100.7,64.6,105.6L64.6,105.6z"/>
	<path class="st6" d="M53.3,142.5c4.5-0.1,7.9-0.7,10.4-2c-2.7,1.4-6.4,2.1-11.6,2.1c-11.5,0-16.4-3.2-16.4-11.6
		c0-9,2.4-17.2,4.1-25.5l0.2,0c4-5.7,9.3-11.3,16-16.1C56.1,89.4,33.6,130.7,53.3,142.5z"/>
	<path d="M60.5,44.7c1.1-1.4,2.6-2.5,4.2-3.4c-1.6,0.9-3.1,2.1-4.2,3.5V44.7z"/>
	<path class="st7" d="M58.3,30.1c1.4,3.6,2.2,8.7,2.2,14.6c-1.7,2.2-2.8,4.8-2.8,7.8c0,2,0.4,3.8,1.3,5.4
		c-1.6,7.5-4.8,15.5-9.9,23.2c0,0,2.9-20.6-1.9-35.6c-0.6,0.7-1.3,1.3-2.1,1.8c1.9-1.1,3.2-3.1,3.2-5.5c0-3.4-2.8-6.3-6.3-6.3
		c-0.9,0-1.8,0.2-2.7,0.6c0.7-0.4,1.6-0.6,2.5-0.7c-1.4-1.5-2.9-2.7-4.7-3.6c4.4-1.3,9.4-2,15-2C54.3,29.8,56.3,29.9,58.3,30.1z"/>
	<path class="st8" d="M52.5,90.1c0,0-4.7,2-10.7,5.3c-0.4,3.4-1,6.8-1.7,10.1l-0.2,0c1.1-4.9,1.9-9.9,1.9-15h-0.2v-0.1
		C45.1,89.9,48.7,89.9,52.5,90.1z"/>
	<path class="st9" d="M44.8,71.1c1.4,4.2,2.4,8.7,2.9,13.6c0,0-2.8-4.5-7.3-10c1.9-0.6,3.5-2,4.3-3.7L44.8,71.1L44.8,71.1z"/>
	<path class="st10" d="M49.1,88.3c-0.2,0-5.7-1.8-13.3-3.2l-0.4,2.1c-0.4,1.7,0.8,3.1,2.6,3.1h3.6v0.1h-3.9c-1.8,0-2.9-1.4-2.6-3.1
		l2-10h-3.6v-0.1h3.8L37,79.1C41.2,81.5,45.3,84.6,49.1,88.3z"/>
	<path class="st9" d="M45.7,67.8c0,1.2-0.3,2.3-0.8,3.3L44.7,71c0.4-0.9,0.7-2,0.7-3.1c0-3.9-3.2-7.1-7.1-7.1c-3,0-5.6,1.9-6.6,4.5
		c-2.5-2.3-5.1-4.5-7.9-6.3c-0.5,3.9-2.9,7.2-6.3,8.9c3.6-2,6.1-5.8,6.1-10.2c0-5.2-3.4-9.8-8.4-11.2c3.4-4.5,7.9-8.6,14-11.7
		c-2.8,1.4-5.3,3.1-7.5,5C27.6,42.9,35,50.3,40.5,61C43.5,61.8,45.7,64.5,45.7,67.8z"/>
	<path d="M42.2,47.9c1,0,1.9-0.2,2.8-0.6c-0.9,0.5-1.9,0.8-3,0.8c-3.4,0-6.3-2.8-6.3-6.3c0-2.5,1.4-4.7,3.6-5.7
		c-2,1.1-3.3,3.1-3.3,5.5C36,45.1,38.8,47.9,42.2,47.9z"/>
	<path d="M40.4,74.6L40.4,74.6c-0.6,0.2-1.3,0.4-2,0.4c-3.9,0-7.1-3.2-7.1-7.1c0-0.9,0.2-1.8,0.5-2.6c0,0,0.1,0.1,0.2,0.2
		c-0.3,0.7-0.4,1.5-0.4,2.3c0,3.9,3.2,7.1,7.1,7.1C39.2,74.9,39.8,74.8,40.4,74.6z"/>
	<path d="M37,31.7L37,31.7c-2.6,0.8-5,1.7-7.3,2.8C31.9,33.4,34.3,32.5,37,31.7z"/>
	<path class="st10" d="M33.6,77.2v0.1H12.2c-4.1,0-6.3-3.4-6.3-6.9c0,0,0.1-1.1,0.4-2.8c0.1,0,0.1,0.1,0.2,0.1
		c-0.2,1.1-0.3,1.8-0.3,2.3C13.6,69.9,23.6,72,33.6,77.2z"/>
	<path d="M29.7,34.6c-0.1,0-0.2,0.1-0.4,0.2C29.4,34.6,29.6,34.6,29.7,34.6z"/>
	<path d="M12.4,69.1c1.9,0,3.7-0.5,5.3-1.3c-1.6,0.9-3.5,1.4-5.6,1.4c-2.1,0-4-0.6-5.7-1.5c0-0.1,0-0.2,0-0.2
		C8.2,68.5,10.2,69.1,12.4,69.1z"/>
</g>
</svg>
