<?xml version="1.0" encoding="utf-8"?>
<!-- Generator: Adobe Illustrator 21.0.0, SVG Export Plug-In . SVG Version: 6.00 Build 0)  -->
<svg version="1.1" id="Calque_1" xmlns="http://www.w3.org/2000/svg" xmlns:xlink="http://www.w3.org/1999/xlink" x="0px" y="0px"
	 viewBox="0 0 105.9 183.4" style="enable-background:new 0 0 105.9 183.4;" xml:space="preserve">
<style type="text/css">
	.st0{fill:#AD9B7B;}
	.st1{fill:none;stroke:#000000;stroke-width:0.4886;stroke-miterlimit:10;}
	.st2{fill:#F9C37D;}
	.st3{fill:#3F2201;}
	.st4{fill:none;stroke:#000000;stroke-width:0.7747;stroke-miterlimit:10;}
	.st5{fill:#939393;}
	.st6{fill:#B5B5B5;}
	.st7{fill:#8E8E8E;}
	.st8{fill:#565656;}
	.st9{fill:#7A7A7A;}
	.st10{fill:#9E9990;}
	.st11{fill:#352200;}
	.st12{fill:#C6C5C4;}
</style>
<path class="st0" d="M105.8,107.8v71.8c0,2.1-1.7,3.8-3.8,3.8H3.8c-2.1,0-3.8-1.7-3.8-3.8V3.8C0,1.7,1.7,0,3.8,0H102
	c2.1,0,3.8,1.7,3.8,3.8v71.1c0,1-0.5,1.8-1.4,2.3l-1.1,0.6c-0.9,0.4-1.4,1.3-1.4,2.3v23.8c0,1.1,0.7,2.1,1.8,2.4l1.4,0.4
	C105.5,106.8,105.8,107.3,105.8,107.8z"/>
<path class="st1" d="M105.8,107.8v71.8c0,2.1-1.7,3.8-3.8,3.8H3.8c-2.1,0-3.8-1.7-3.8-3.8V3.8C0,1.7,1.7,0,3.8,0H102
	c2.1,0,3.8,1.7,3.8,3.8v71.1c0,1-0.5,1.8-1.4,2.3l-1.1,0.6c-0.9,0.4-1.4,1.3-1.4,2.3v23.8c0,1.1,0.7,2.1,1.8,2.4l1.4,0.4
	C105.5,106.8,105.8,107.3,105.8,107.8z"/>
<path d="M53.4,83.3c0.1,0.3,0.1,0.6,0,0.9c-0.1,0.3-0.3,0.5-0.6,0.6c-0.6,0.3-1.8,0.5-3,0.6c-0.4,0.1-0.8,0.1-1.2,0.2v0
	c1.7-0.3,2.8-1.1,2.8-2s-1.2-1.7-2.8-2V65.5c0-0.4-0.2-0.7-0.5-0.9c-0.3-0.2-0.6-0.2-0.9,0c-0.4,0.2-0.7,0.4-1.1,0.6v-4.9
	c0-3.5-2.9-6.4-6.4-6.4h-2.3v-4.3c0-1.3-1-2.3-2.3-2.3H21.4c-1.3,0-2.3,1-2.3,2.3v4.3h-2.3c-3.5,0-6.4,2.9-6.4,6.4v4.1
	c-0.5,0-0.8,0.1-0.8,0.1c-0.5,0-0.9,0.5-0.9,1v16.2c-1.7,0.3-2.9,1.1-2.9,2c0,0.9,1.2,1.7,2.9,2v0c0,0-0.1,0-0.1,0
	c-1.3-0.2-3.2-0.4-3.8-0.8c-0.5-0.3-0.7-0.9-0.5-1.5C6.4,78.1,6.9,68,7,62.5c0.1-4.3,1.1-8.3,3-11.7c2.8-5,6.5-7.3,9.7-8.8
	c5.5-2.7,11.8-2.7,17.2,0c2.7,1.3,6.7,3.8,10.4,9.9c2,3.4,3.1,7.4,3.3,11.8C50.8,69.9,51.4,78.4,53.4,83.3z"/>
<path d="M48.6,81.6c1.7,0.3,2.8,1.1,2.8,2s-1.2,1.7-2.8,2V81.6z"/>
<path d="M48.6,81.6v4.1c-0.5,0.1-1.1,0.2-1.7,0.2c-2.3,0-4.3-0.9-4.5-2c1.1-0.5,2-1.2,2.6-2.2c0.6-0.1,1.2-0.2,1.9-0.2
	C47.5,81.4,48.1,81.5,48.6,81.6z"/>
<path d="M48.6,65.5v16.1c-0.5-0.1-1.1-0.2-1.7-0.2c-0.7,0-1.3,0.1-1.9,0.2c0.7-1,1.1-2.3,1.1-3.6V65.1c0.4-0.1,0.7-0.3,1.1-0.6
	c0.3-0.2,0.6-0.2,0.9,0C48.4,64.8,48.6,65.1,48.6,65.5z"/>
<path d="M46.2,65.1V78c0,1.3-0.4,2.6-1.1,3.6c-0.7,0.2-1.3,0.4-1.7,0.7l-0.7-0.1c1.3-0.9,2.2-2.5,2.2-4.2V65.4
	C45.3,65.4,45.7,65.3,46.2,65.1z"/>
<path d="M46.2,60.2v4.9c-0.4,0.2-0.9,0.3-1.3,0.3v-5.2c0-2.8-2.3-5.1-5.1-5.1h-2.3h-2.4c-0.1-0.2-0.1-0.3-0.1-0.3
	c-0.1-0.3-0.4-0.6-0.7-0.6c-0.3,0-0.6,0.1-0.8,0.4c-0.1,0.2-0.2,0.3-0.3,0.5h-14h-2.3c-2.8,0-5.1,2.3-5.1,5.1v4
	c-0.5,0.1-1,0.1-1.3,0.1v-4.1c0-3.5,2.9-6.4,6.4-6.4h2.3v-4.3c0-1.3,1.1-2.3,2.3-2.3h13.7c1.3,0,2.3,1,2.3,2.3v4.3h2.3
	C43.3,53.9,46.2,56.7,46.2,60.2z M36.2,53.9v-4.3c0-0.6-0.5-1-1-1H21.4c-0.6,0-1,0.5-1,1v4.3H36.2z"/>
<path class="st2" d="M44.9,65.4V78c0,1.7-0.9,3.3-2.2,4.2c-0.8,0.5-1.8,0.9-2.8,0.9h-23c-1,0-2-0.3-2.8-0.9
	c-1.3-0.9-2.2-2.5-2.2-4.2V64.3c4.9-0.5,16.9-2.5,21.3-9.1h2c0.3,0.8,1.3,2.9,2.7,5c1.7,2.6,4.2,5.3,6.8,5.3
	C44.7,65.4,44.8,65.4,44.9,65.4z M35.6,67.1c0-0.3-0.1-0.6-0.2-0.9c-0.1-0.2-0.2-0.3-0.3-0.4c-0.3-0.3-0.8-0.5-1.3-0.5
	c-1,0-1.8,0.8-1.8,1.8c0,1,0.8,1.8,1.8,1.8c0.5,0,1-0.2,1.3-0.5c0.1-0.1,0.2-0.3,0.3-0.4C35.5,67.7,35.6,67.4,35.6,67.1z M34.2,74.7
	c0.3-0.3,0.3-0.8,0-1.1c-0.3-0.3-0.8-0.3-1.1,0c-2.6,2.6-6.9,2.6-9.6,0c-0.3-0.3-0.8-0.3-1.1,0h0c-0.1,0.1-0.1,0.2-0.2,0.2
	c-0.1,0.3-0.1,0.6,0.2,0.8c1.6,1.6,3.7,2.4,5.9,2.4C30.5,77.1,32.6,76.3,34.2,74.7z M24.7,67.1c0-1-0.8-1.8-1.8-1.8
	c-1,0-1.8,0.8-1.8,1.8c0,1,0.8,1.8,1.8,1.8C23.9,68.9,24.7,68.1,24.7,67.1z"/>
<path class="st2" d="M44.9,60.2v5.2c-0.1,0-0.1,0-0.2,0c-2.7,0-5.1-2.6-6.8-5.3c-1.4-2.1-2.4-4.2-2.7-5h2.4h2.3
	C42.6,55.2,44.9,57.4,44.9,60.2z"/>
<path d="M45,81.6c-0.6,0.9-1.6,1.7-2.6,2.2c0-0.1,0-0.1,0-0.2c0-0.5,0.3-0.9,0.9-1.3C43.8,82,44.4,81.8,45,81.6z"/>
<path d="M42.6,82.2l0.7,0.1c-0.6,0.4-0.9,0.8-0.9,1.3c0,0.1,0,0.1,0,0.2c-0.7,0.3-1.6,0.5-2.4,0.6v1.1V87v1.3H16.6V87v-1.5v-1.1
	c-0.6,0-1.2-0.1-1.8-0.3c0.1-0.1,0.1-0.3,0.1-0.4c0-0.5-0.4-1-1-1.4l0-0.1c0.8,0.5,1.8,0.9,2.8,0.9h23
	C40.8,83.1,41.8,82.8,42.6,82.2z M38.7,87v-2.6H17.9V87H38.7z"/>
<rect x="17.9" y="84.4" class="st2" width="20.8" height="2.6"/>
<path d="M36.2,49.6v4.3H20.4v-4.3c0-0.6,0.5-1,1-1h13.7C35.7,48.5,36.2,49,36.2,49.6z"/>
<path d="M35.4,66.2c0.1,0.3,0.2,0.6,0.2,0.9c0,0.3-0.1,0.6-0.2,0.9c-0.1,0.2-0.2,0.3-0.3,0.4c-0.3,0.3-0.8,0.5-1.3,0.5
	c-1,0-1.8-0.8-1.8-1.8c0-1,0.8-1.8,1.8-1.8c0.5,0,1,0.2,1.3,0.5C35.2,65.9,35.3,66,35.4,66.2z"/>
<path d="M35,65.8c0.1,0.1,0.2,0.3,0.3,0.4C35.3,66,35.2,65.9,35,65.8z"/>
<path d="M35.4,67.9c-0.1,0.2-0.2,0.3-0.3,0.4C35.2,68.2,35.3,68.1,35.4,67.9z"/>
<path d="M35.1,55.2h-2c0.1-0.2,0.2-0.3,0.3-0.5c0.2-0.3,0.5-0.5,0.8-0.4c0.3,0,0.6,0.3,0.7,0.6C34.9,54.8,35,55,35.1,55.2z"/>
<path d="M34.2,73.6c0.3,0.3,0.3,0.8,0,1.1c-1.6,1.6-3.7,2.4-5.9,2.4c-2.1,0-4.2-0.8-5.9-2.4c-0.2-0.2-0.3-0.6-0.2-0.8
	c0-0.1,0.1-0.2,0.2-0.2c0.3-0.3,0.8-0.3,1.1,0c2.6,2.6,6.9,2.6,9.6,0C33.4,73.3,33.9,73.3,34.2,73.6z"/>
<path class="st2" d="M19.1,55.2h14c-4.4,6.6-16.4,8.6-21.3,9.1v-4c0-2.8,2.3-5.1,5.1-5.1H19.1z"/>
<ellipse cx="22.9" cy="67.1" rx="1.8" ry="1.8"/>
<path d="M14.9,83.7c0,0.1,0,0.3-0.1,0.4c-1.4-0.4-2.6-1.4-3.3-2.5c1,0.1,1.8,0.4,2.4,0.8C14.6,82.7,14.9,83.2,14.9,83.7z"/>
<path d="M14,82.2L14,82.2c-0.7-0.3-1.5-0.6-2.5-0.7c-0.7-1-1.1-2.2-1.1-3.5V64.4c0.3,0,0.8-0.1,1.3-0.1V78
	C11.8,79.8,12.6,81.3,14,82.2z"/>
<path d="M14.8,84.1c-0.4,1-2.2,1.8-4.4,1.8c-0.6,0-1.1-0.1-1.7-0.2v-4.1c0.5-0.1,1.1-0.2,1.7-0.2c0.4,0,0.7,0,1.1,0.1
	C12.3,82.7,13.5,83.7,14.8,84.1z"/>
<path d="M11.5,81.6c-0.3,0-0.7-0.1-1.1-0.1c-0.6,0-1.1,0.1-1.7,0.2V65.5c0-0.5,0.4-1,0.9-1c0,0,0.3,0,0.8-0.1V78
	C10.4,79.3,10.8,80.6,11.5,81.6z"/>
<path d="M8.8,81.6v4.1c-1.7-0.3-2.9-1.1-2.9-2C5.9,82.8,7.1,82,8.8,81.6z"/>
<path d="M95.4,60.3v17.8c0,3.4-2.8,6.3-6.2,6.4v1.1v1.5v1.3H65.8v-1.3v-1.5v-1.1c-3.4-0.1-6.2-2.9-6.2-6.4V60.3
	c0-3.5,2.9-6.4,6.4-6.4h2.3v-4.3c0-1.3,1-2.3,2.3-2.3h13.7c1.3,0,2.3,1,2.3,2.3v4.3H89C92.5,53.9,95.4,56.8,95.4,60.3z M94.1,78.1
	V60.3c0-2.8-2.3-5.1-5.1-5.1h-2.3H68.3H66c-2.8,0-5.1,2.3-5.1,5.1v17.8c0,2.8,2.3,5.1,5.1,5.1h23C91.8,83.2,94.1,80.9,94.1,78.1z
	 M87.9,87.1v-2.6H67.1v2.6H87.9z M85.4,53.9v-4.3c0-0.6-0.5-1-1-1H70.6c-0.6,0-1,0.5-1,1v4.3H85.4z"/>
<path class="st3" d="M94.1,60.3v17.8c0,2.8-2.3,5.1-5.1,5.1H66c-2.8,0-5.1-2.3-5.1-5.1V60.3c0-2.8,2.3-5.1,5.1-5.1h2.3h18.4H89
	C91.8,55.3,94.1,57.5,94.1,60.3z M84.8,67.1c0-1-0.8-1.8-1.8-1.8c-1,0-1.8,0.8-1.8,1.8c0,1,0.8,1.8,1.8,1.8
	C84,69,84.8,68.2,84.8,67.1z M83.4,74.8c0.3-0.3,0.3-0.8,0-1.1c-0.3-0.3-0.8-0.3-1.1,0c-2.6,2.6-6.9,2.6-9.6,0
	c-0.3-0.3-0.8-0.3-1.1,0c-0.3,0.3-0.3,0.8,0,1.1c1.6,1.6,3.7,2.4,5.9,2.4S81.8,76.4,83.4,74.8z M73.9,67.1c0-1-0.8-1.8-1.8-1.8
	s-1.8,0.8-1.8,1.8c0,1,0.8,1.8,1.8,1.8S73.9,68.2,73.9,67.1z"/>
<rect x="67.1" y="84.5" class="st3" width="20.8" height="2.6"/>
<path class="st3" d="M85.4,49.6v4.3H69.6v-4.3c0-0.6,0.5-1,1-1h13.7C84.9,48.6,85.4,49.1,85.4,49.6z"/>
<ellipse cx="82.9" cy="67.1" rx="1.8" ry="1.8"/>
<path d="M83.4,73.7c0.3,0.3,0.3,0.8,0,1.1c-1.6,1.6-3.7,2.4-5.9,2.4s-4.2-0.8-5.9-2.4c-0.3-0.3-0.3-0.8,0-1.1c0.3-0.3,0.8-0.3,1.1,0
	c2.6,2.6,6.9,2.6,9.6,0C82.6,73.4,83.1,73.4,83.4,73.7z"/>
<ellipse cx="72.1" cy="67.1" rx="1.8" ry="1.8"/>
<path d="M59.6,74.7l-0.4-0.2c-0.2-0.1-0.3-0.3-0.4-0.5l-0.6-2c-0.1-0.4-0.4-0.9-0.7-1.2l-0.5-0.4c-0.9-0.9-1.3-2-1.2-3.2l0-0.5
	c0-0.5,0-0.9-0.3-1.4l-0.2-0.5c-0.5-1.1-0.5-2.3,0-3.4l0.2-0.5c0.2-0.4,0.3-0.9,0.3-1.4l0-0.5c-0.1-1.2,0.3-2.3,1.2-3.2l0.5-0.4
	c0.4-0.3,0.6-0.7,0.7-1.2l0.2-0.5c0.3-1.1,1.1-2.1,2.3-2.6l0.7-0.4c0.4-0.2,0.8-0.5,1.1-0.9l0.4-0.6c0.7-0.9,1.8-1.6,3-1.8l0.9-0.2
	c0.5-0.1,0.9-0.3,1.3-0.6l0.7-0.5c0.9-0.7,2.2-1,3.4-0.9l1,0.1c0.5,0,1,0,1.4-0.2l0.9-0.3c0.6-0.2,1.2-0.3,1.8-0.3
	c0.6,0,1.2,0.1,1.8,0.3l0.9,0.3c0.4,0.2,0.9,0.2,1.4,0.2l1-0.1c1.2-0.1,2.4,0.2,3.4,0.9l0.7,0.5c0.4,0.3,0.8,0.5,1.3,0.6l0.9,0.2
	c1.2,0.2,2.3,0.9,3,1.8l0.4,0.6c0.3,0.4,0.6,0.7,1.1,0.9l0.7,0.4c1.1,0.6,2,1.5,2.3,2.6l0.2,0.5c0.1,0.4,0.4,0.9,0.7,1.2l0.4,0.4
	c0.9,0.9,1.4,2,1.2,3.2l0,0.5c0,0.5,0,0.9,0.3,1.4l0.2,0.5c0.5,1.1,0.5,2.3,0,3.4L99,65.3c-0.2,0.4-0.3,0.9-0.3,1.4l0,0.5
	c0.1,1.2-0.3,2.3-1.2,3.2l-0.5,0.4c-0.3,0.3-0.6,0.7-0.7,1.2l-0.5,1.7c-2.2,1-1.5-2.2-1.5-2.2l0.1-0.2c0.2-0.6,0.4-1.1,0.6-1.6
	c0.2-0.4,0.3-0.7,0.2-1.2c-0.1-0.5-0.3-1-0.8-1.3c-0.3-0.2-0.7-0.5-1-0.8c-0.4-0.4-0.6-1-0.6-1.5l0-0.4c0.2-0.9,0.1-1.6-0.3-2.3
	l-0.2-0.5c-0.6-0.8-0.8-0.7-1.2-1l-0.6-0.3c-0.3-0.2-0.6-0.4-0.8-0.7l-0.3-0.5c-0.6-0.8-1.5-1.4-2.5-1.6l-0.7-0.1
	c-0.4-0.1-0.7-0.2-1-0.4l-0.6-0.4c-0.8-0.6-1.8-0.9-2.8-0.8L81,55.9c-0.4,0-0.7,0-1-0.1l-0.8-0.3c-1-0.3-2-0.3-3,0l-0.8,0.3
	c-0.3,0.1-0.7,0.2-1,0.1l-0.8-0.1c-1-0.1-2.1,0.2-2.9,0.8l-0.6,0.4c-0.3,0.2-0.6,0.4-1,0.4l-0.7,0.1c-1,0.2-1.9,0.8-2.5,1.6
	l-0.3,0.5l0,0c-0.2,0.3-0.5,0.5-0.8,0.7l-0.6,0.3c-0.3,0.1-0.7,0.4-0.9,0.8c-0.9,1.1-1,2.5-1.1,2.7c0,0.1,0.1,2.1,0.1,2.1
	 M62.4,66.3c-0.3,8.1-2.3,8.4-2.7,8.4l0,0"/>
<path class="st4" d="M59.6,74.7l-0.4-0.2c-0.2-0.1-0.3-0.3-0.4-0.5l-0.6-2c-0.1-0.4-0.4-0.9-0.7-1.2l-0.5-0.4
	c-0.9-0.9-1.3-2-1.2-3.2l0-0.5c0-0.5,0-0.9-0.3-1.4l-0.2-0.5c-0.5-1.1-0.5-2.3,0-3.4l0.2-0.5c0.2-0.4,0.3-0.9,0.3-1.4l0-0.5
	c-0.1-1.2,0.3-2.3,1.2-3.2l0.5-0.4c0.4-0.3,0.6-0.7,0.7-1.2l0.2-0.5c0.3-1.1,1.1-2.1,2.3-2.6l0.7-0.4c0.4-0.2,0.8-0.5,1.1-0.9
	l0.4-0.6c0.7-0.9,1.8-1.6,3-1.8l0.9-0.2c0.5-0.1,0.9-0.3,1.3-0.6l0.7-0.5c0.9-0.7,2.2-1,3.4-0.9l1,0.1c0.5,0,1,0,1.4-0.2l0.9-0.3
	c0.6-0.2,1.2-0.3,1.8-0.3c0.6,0,1.2,0.1,1.8,0.3l0.9,0.3c0.4,0.2,0.9,0.2,1.4,0.2l1-0.1c1.2-0.1,2.4,0.2,3.4,0.9l0.7,0.5
	c0.4,0.3,0.8,0.5,1.3,0.6l0.9,0.2c1.2,0.2,2.3,0.9,3,1.8l0.4,0.6c0.3,0.4,0.6,0.7,1.1,0.9l0.7,0.4c1.1,0.6,2,1.5,2.3,2.6l0.2,0.5
	c0.1,0.4,0.4,0.9,0.7,1.2l0.4,0.4c0.9,0.9,1.4,2,1.2,3.2l0,0.5c0,0.5,0,0.9,0.3,1.4l0.2,0.5c0.5,1.1,0.5,2.3,0,3.4L99,65.3
	c-0.2,0.4-0.3,0.9-0.3,1.4l0,0.5c0.1,1.2-0.3,2.3-1.2,3.2l-0.5,0.4c-0.3,0.3-0.6,0.7-0.7,1.2l-0.5,1.7c-2.2,1-1.5-2.2-1.5-2.2
	l0.1-0.2c0.2-0.6,0.4-1.1,0.6-1.6c0.2-0.4,0.3-0.7,0.2-1.2c-0.1-0.5-0.3-1-0.8-1.3c-0.3-0.2-0.7-0.5-1-0.8c-0.4-0.4-0.6-1-0.6-1.5
	l0-0.4c0.2-0.9,0.1-1.6-0.3-2.3l-0.2-0.5c-0.6-0.8-0.8-0.7-1.2-1l-0.6-0.3c-0.3-0.2-0.6-0.4-0.8-0.7l-0.3-0.5
	c-0.6-0.8-1.5-1.4-2.5-1.6l-0.7-0.1c-0.4-0.1-0.7-0.2-1-0.4l-0.6-0.4c-0.8-0.6-1.8-0.9-2.8-0.8L81,55.9c-0.4,0-0.7,0-1-0.1l-0.8-0.3
	c-1-0.3-2-0.3-3,0l-0.8,0.3c-0.3,0.1-0.7,0.2-1,0.1l-0.8-0.1c-1-0.1-2.1,0.2-2.9,0.8l-0.6,0.4c-0.3,0.2-0.6,0.4-1,0.4l-0.7,0.1
	c-1,0.2-1.9,0.8-2.5,1.6l-0.3,0.5l0,0c-0.2,0.3-0.5,0.5-0.8,0.7l-0.6,0.3c-0.3,0.1-0.7,0.4-0.9,0.8c-0.9,1.1-1,2.5-1.1,2.7
	c0,0.1,0.1,2.1,0.1,2.1 M62.4,66.3c-0.3,8.1-2.3,8.4-2.7,8.4l0,0"/>
<path d="M77.3,72.8c0,0-10.1-0.9-10.1,10.8l-2.5-1.6c0-12.8,12.7-12.2,12.7-12.2h0.1c0,0,12.7-0.6,12.7,12.2l-2.5,1.6
	C87.5,71.9,77.4,72.8,77.3,72.8L77.3,72.8z"/>
<path d="M7.9,115.1C7.9,115.1,7.9,115.1,7.9,115.1l-0.1,0c0.1,0.2,0.1,0.4,0,0.6c-0.1,0.1-0.1,0.1-0.2,0.2c0,0.1-0.1,0.2-0.1,0.4
	c0.3,0,0.5-0.1,0.8-0.2c0.3-0.1,0.5-0.2,0.7-0.4C8.5,115.1,8.2,115.8,7.9,115.1z M9.6,137.2c-0.2,1.5-0.4,3.5-0.4,3.9
	c-0.1,1.7-0.1,3.6,0.2,4.6c0.3,0.8,0.5,1.2,0.7,1.4c0-0.1,0-0.3,0-0.5c0-0.1,0-1.4,0-3.3c0-1.9,0-4.2,0.1-6.3c0-0.6,0-1.2,0-1.8
	c-0.1,0.1-0.2,0.2-0.2,0.3C9.9,135.7,9.7,136.4,9.6,137.2z M48.7,106.2c0.1,0.3,0.4,1.1,0.1,1.4l0,0c0.1,0.7-0.4,1.1-0.9,1.3
	l-7.5,3.2l-0.3,0.1c0,0.3-0.1,0.5-0.4,0.6l-8.8,3.7c-0.2,0.1-0.5,0.3-0.6,0.5l0,0c-0.8,1.1-0.1,2.5,0.4,3.7c0.5,1.2,0.4,3.1-2.5,4.3
	l-3.9,1.6c0,0-0.6,0.2-1.3,0.7c-0.3,0.2-0.6,0.5-0.8,0.7l-0.1,0.2c-0.2,0.3-0.4,0.6-0.4,1c0,0.3,0,0.6,0,0.9c0,0.6,0,1.2,0.1,1.7
	c0.1,0.9,0.2,1.8,0.3,2.4c0.1,1.1,0.7,7,0.8,7.2c0.1,0.8,0.1,2.2-0.8,2.5c-1,0.3-9.7,3-9.7,3l-1.5,0.4c-0.2,0.1-0.5,0-0.7-0.2
	c-1.8-1.8-0.9-7.7-0.6-10.1h0v0c0.1-1,0.3-1.8,0.4-2c0-0.1,0.1-0.1,0.1-0.2l-0.3,0.1c-0.5,0.2-0.7-0.3-0.6-0.7
	c0-0.2,0.3-2.6-0.1-4.5c-0.2-0.6-0.5-1.1-1-1.4c-1-0.6-2-0.4-3.1-0.1c-0.5,0.2-1.1,0.4-1.6,0.5c-0.4,0.1-0.6,0-0.8-0.4
	c-0.7-1.8,1.2-2.5,2.4-3c0.6-0.6,1.4-1.3,1.4-2.2c0-0.3-0.1-0.6-0.2-0.9c0,0-0.1-0.3-0.3-0.7c-0.4-0.9-0.5-1-1.4-1.2
	c-0.6-0.1-1.9-0.1-2.3-0.4c-0.5-0.4-0.1-1.3,0.9-1.1c0.7,0.1,0.9,0.2,1.8-0.1c0.3-0.1,0.6-0.4,0.6-0.7v-0.2c0-1,0.7-1.5,1.1-1.7
	c0,0,0.3-0.1,0.9-0.4c0-0.2,0-0.4,0.1-0.5c0.2-0.3,0.4-0.2,0.2-0.5c-0.1-0.2,0-0.4,0.2-0.4c0.2-0.1,0.4-0.1,0.5,0.1
	c0.1,0.3,0.2,0.1,0.5,0.2c0.2,0,0.4,0.2,0.5,0.3c3.8-1.5,10-4.1,10-4.1c0.1-0.1,0.4,0.2,0.5,0.3l6.2-2.6c0-0.1-0.1-0.2-0.1-0.2
	c0-0.1,0-0.2,0.1-0.2l16.6-6.9c0.1-0.1,0.2-0.3,0.4-0.5c0.5-0.6,1.3-1.2,2.2-0.7l0.1,0.1l0,0l0.1,0c0.5-0.3,1,0.3,1.2,0.7l0,0
	c0.3-0.1,0.6,0.1,0.7,0.5c0.2,0.6,0.6,2,0.7,2.2l0.6,1.6c0.1,0.2,0,0.3-0.1,0.4C48.6,106,48.6,106.1,48.7,106.2z M47.8,108.7
	c0,0,0.9-0.3,0.7-0.9c-0.2-0.8-0.5-1.6-0.6-2l-0.6-1.3l-3.1,1.3c-1.2,0.5-4.3,2-5,3.5l-0.5,0.2c0.2,0.1,0.5,0.2,0.5,0.3
	c0,0,0,0.1,0.1,0.3c0.3,0.7,0.5,1.3,0.7,2L47.8,108.7L47.8,108.7z M48.2,105.8L48.2,105.8c0.1-0.1-0.3-1.1-0.5-1.5l-0.1,0.1l0.5,1.3
	C48.2,105.6,48.2,105.7,48.2,105.8z M46.7,101.6l0.8,1.8c-0.1-0.5-0.4-1.2-0.5-1.6C46.9,101.8,46.8,101.7,46.7,101.6z M47.4,104
	l-1-2.3l-0.1-0.4c-0.1-0.3-0.4-0.8-0.8-0.6l-19.3,8c0.1,0.3,0.2,0.7,0.2,0.9c-0.1,0.6-0.5,1.1-1.3,1.5l-3.3,1.4c0,0-0.1,0-0.2,0.1
	c-0.7,0.1-1.4-0.1-1.9-0.6l-0.4-0.4c-0.8,0.3-6.3,2.6-9.8,4l0,0c-0.3,0.3-0.6,0.4-1,0.6c-0.4,0.2-0.8,0.3-1.2,0.3l0-0.1
	c-0.6,0.2-1.2,0.5-1.5,1.1l0,0c0.1,0.3,0.1,0.5,0.1,0.7c0,0.4,0,0.7,0,1.1c0,1.1,0.4,2.2,0.8,3.2l3.5-1.5l-1.6-3.9l-0.1-0.2l0.3,0.1
	l1.6,3.9l0.1,0L8.7,117l0.3,0.1l1.6,3.9l0.1,0l-1.7-4.1l0.3,0.1l1.6,3.9l0.1-0.1l-1.7-4.1l0.3,0.1l1.6,3.9l0.1-0.1l-1.7-4.1l0.3,0.1
	l1.6,3.9l0.1,0l-1.7-4.1l0.3,0.1l1.6,3.9l0.1-0.1l-1.7-4.1l0.3,0.1l1.6,3.9l0.1-0.1L11,116l0.3,0.1L13,120l0.1,0l-1.7-4.1l0.3,0.1
	l1.6,3.9l0.1-0.1l-1.7-4.1l0.3,0.1l1.6,3.9l0.1,0l-1.7-4.1l0.3,0.1l1.6,3.9l0.1,0l-1.7-4.1l0.3,0.1l1.6,3.9l0.1-0.1l-1.7-4.1
	l0.3,0.1l1.6,3.9l0.1-0.1l-1.7-4.1l0.4,0.1l1.6,3.9l0.1,0l-1.7-4.1L14,115l1.6,3.9l0.1-0.1l-1.7-4.1l0.3,0.1l1.6,3.9l0.1-0.1
	l-1.7-4.1l0.3,0.1l1.6,3.9l0.1,0l-1.7-4.1l0.3,0.1l1.6,3.9l0.1,0l-1.7-4.1l0.3,0.1l1.6,3.9l21.8-9.2c0.2-0.3,1.3-1.9,5.1-3.6
	L47.4,104z M43.2,101.4l1.7-0.7C44.3,100.4,43.6,100.9,43.2,101.4z M39.6,112.6c0.2-0.1,0.2-0.3,0.1-0.5c-0.1-0.4-0.2-0.8-0.3-1.2
	l-8.8,3.7c-1.9,0.7-1.3,1.8-2.3,2.2l-5.8,2.5c-0.7,1-1.1,1.9-1.1,2.9c0,0.8,0.1,1.5,0.3,2.4c0.3,0.3,0.8,0.9,0.8,1.1
	c0,0.1,0,0.2-0.1,0.3c-0.2,0.3-0.4,0.5-0.7,0.8c-0.4,0.4-1.3,1.6-1.4,1.9c-0.3,0.5-0.5,1.3-0.2,3.5c0,0.2,0,0.4,0.1,0.6
	c0.3,3.4,0.9,10.2,1,11.3l0.6-0.2c0.8-0.3,0.6-2.1,0.6-2.2c0,0-0.6-6.1-0.8-7.2c-0.1-0.5-0.2-1.4-0.3-2.3c-0.1-0.9-0.1-2-0.1-2.8
	c0-0.5,0.3-0.9,0.6-1.3l0.2-0.2c0,0,0.3-0.4,0.6-0.8c0.3-0.6,0.6-1.2,0.2-1.8c-0.6-0.9-0.9-1.2-1.1-2.3c0-0.2-0.1-0.5,0-0.7
	c0-0.9,0.5-1.7,1.2-2.3l7.2-3l0,0c0.2-0.3,0.5-0.5,0.8-0.6L39.6,112.6L39.6,112.6z M39.2,110.6c-0.1-0.2-0.1-0.4-0.2-0.5l-0.1-0.2
	l-0.2-0.1l-0.2-0.1l-0.3-0.1L6.3,123.1c0.2,1-0.1,1.6-1,2.4c-0.1,0.1-0.2,0.2-0.2,0.2c-0.1,0.2-0.3,0.4-0.4,0.6l0,0.1
	c0,0.1,0.1,0.1,0.2,0.1c2-0.4,3,0,4,0.6c1.4,0.9,2,2.3,2.1,4.5c0,0.5,0,1.3,0,2.2c0,0.8,0,1.6,0,2.6c0,4.3-0.1,9.8-0.1,9.8
	c0,0.3,0,0.7,0.4,0.7l0.8-0.2c0.2,0,6.4-2,8.8-2.7c0-0.5-0.2-2.4-0.4-4.7c-0.2-2.3-0.4-4.9-0.6-6.6c0-0.3,0-0.5-0.1-0.7
	c-0.2-2.2-0.1-3.1,0.3-3.7c0.2-0.3,1.1-1.5,1.4-1.9c0.3-0.3,0.5-0.6,0.6-0.8c-0.2-0.4-0.6-0.8-0.9-1.1c-0.4-0.2-0.7-0.3-1-0.6
	c-0.5-0.4-0.9-1.1-0.8-2.3c0.1-1.4,1.7-2.3,2.9-2.7l5.9-2.5c0.4-0.2,0.4-0.6,0.6-0.9c0.4-0.7,0.9-1.1,1.7-1.4L39.2,110.6z
	 M27.9,124.9c2.7-1.1,2.7-2.9,2.3-3.9c-0.5-1.2-1.1-2.5-0.5-3.6l-2.7,1.1c1.3,0.1,2.2,1.1,2.8,2.4c0.6,1.5-0.5,2.8-1.2,3.1
	c-0.3,0.2-1,0.5-3.1,1.3c-0.8,0.3-1.6,0.3-2.3-0.1c0,0.1,0.1,0.2,0.1,0.3c0.1,0.4-0.1,1-0.4,1.6c0.4-0.3,0.8-0.5,1.2-0.6L27.9,124.9
	z M28.4,123.8c0.6-0.2,1.6-1.4,1.1-2.7c-0.5-1.4-1.6-2.4-3.1-2.2c-0.2,0-0.4,0.1-0.4,0.1l-0.4,0.1l-2.5,1.1c-0.4,0.9-0.4,1.9,0,2.9
	c0.4,1,1.3,1.8,2.3,2.1C27.5,124.3,28.1,124,28.4,123.8z M24.9,111c0.9-0.4,1.3-0.9,1.1-1.6l-6.1,2.6c0.4,0.4,1.1,0.6,1.7,0.4
	L24.9,111z M22.6,124.5c0,0,0.9,1.2,2.3,0.8c-0.9-0.4-1.7-1.1-2.1-2.1c-0.4-0.9-0.4-1.8-0.2-2.7C21.7,121.6,21.9,123.2,22.6,124.5z
	 M21.3,124.3c-0.4-1.7-0.3-3.3,0.7-4.8c-1,0.4-2.2,1.2-2.3,2.3C19.6,123.1,20.2,123.8,21.3,124.3z M10.7,147.2L10.7,147.2
	c-0.1-0.2-0.2-0.5-0.2-0.9c0-0.1,0-1.4,0-3.3c0-1.9,0-4.2,0.1-6.3c0-2.2,0-4.1,0-4.9c-0.1-2.1-0.7-3.4-1.9-4.2
	C7.8,127,6.9,126.6,5,127c-0.1,0-0.2,0-0.3,0c0,0.1,0,0.3,0.1,0.4c0.2,0.4,0.6,0.4,1,0.3c0.4-0.1,1.2-0.4,1.5-0.5
	c0.3-0.1,0.9,0.2,1.2,0.3c1.4,0.9,2,2.2,2.1,4.4c0,0.5,0,1.3,0,2.3c0,0.8,0,1.6,0,2.6c0,4.3-0.1,9.8-0.1,9.8
	C10.4,146.9,10.4,147.3,10.7,147.2z M10.2,134.6c0-1.2,0-2.1,0-2.6c-0.1-2.1-0.7-3.4-2-4.2c-0.2-0.1-0.7-0.3-0.9-0.3
	c-0.4,0.1-1,0.4-1.6,0.5c-0.5,0.1-1,0-1.3-0.5c-0.2-0.4-0.1-0.9,0-1.3l-0.7,0.3c-1.1,0.5-1.4,1.3-1.1,2.1c0.1,0.2,0.2,0.3,0.4,0.2
	c0.5-0.1,1.1-0.3,1.6-0.5c0.4-0.1,0.7-0.2,1.1-0.3c0.7-0.1,1.5-0.1,2.2,0.4c0.5,0.4,0.9,0.9,1.1,1.6c0.4,1.9,0.2,4.4,0.1,4.6
	c0,0.2-0.1,0.5,0.2,0.4L10.2,134.6z M5.3,120.8c0.1,0.1,0.2,0.3,0.4,0.5c-0.3-1-0.4-1.6-0.5-2.2c-0.3,0.3-0.8,0.5-1.3,0.6l0.3,0.7
	C4.7,120.5,5.1,120.6,5.3,120.8z M3.7,120.1l-0.2-0.4c-0.2,0-0.4,0-0.6-0.1c-0.2,0-0.5-0.1-0.7,0C2.2,120,3.7,120.1,3.7,120.1z
	 M2.7,120.3c-0.3-0.1-0.6-0.2-0.7-0.4C1.9,120.2,2.4,120.3,2.7,120.3z"/>
<path class="st5" d="M48.5,107.8c0.1,0.7-0.7,0.9-0.7,0.9l0,0L40,112c-0.2-0.7-0.4-1.4-0.7-2c-0.1-0.2-0.1-0.3-0.1-0.3
	c0-0.1-0.3-0.2-0.5-0.3l0.5-0.2c0.7-1.5,3.8-3,5-3.5l3.1-1.3l0.6,1.3C48,106.1,48.3,107,48.5,107.8z"/>
<path class="st6" d="M46.4,101.7l1,2.3l-3.3,1.4c-3.9,1.6-4.9,3.2-5.1,3.6l-21.8,9.2l-1.6-3.9l-0.3-0.1l1.7,4.1l-0.1,0l-1.6-3.9
	l-0.3-0.1l1.7,4.1l-0.1,0l-1.6-3.9l-0.3-0.1l1.7,4.1l-0.1,0.1l-1.6-3.9l-0.3-0.1l1.7,4.1l-0.1,0.1L14,115l-0.3-0.1l1.7,4.1l-0.1,0
	l-1.6-3.9l-0.4-0.1l1.7,4.1l-0.1,0.1l-1.6-3.9l-0.3-0.1l1.7,4.1l-0.1,0.1l-1.6-3.9l-0.3-0.1l1.7,4.1l-0.1,0l-1.6-3.9l-0.3-0.1
	l1.7,4.1l-0.1,0l-1.6-3.9l-0.3-0.1l1.7,4.1l-0.1,0.1l-1.6-3.9l-0.3-0.1l1.7,4.1l-0.1,0l-1.6-3.9L11,116l1.7,4.1l-0.1,0.1l-1.6-3.9
	l-0.3-0.1l1.7,4.1l-0.1,0.1l-1.6-3.9l-0.3-0.1l1.7,4.1l-0.1,0l-1.6-3.9l-0.3-0.1l1.7,4.1l-0.1,0.1l-1.6-3.9l-0.3-0.1l1.7,4.1
	l-0.1,0.1l-1.6-3.9l-0.3-0.1l1.7,4.1l-0.1,0l-1.6-3.9L8.7,117l1.7,4.1l-0.1,0l-1.6-3.9l-0.3-0.1l0.1,0.2l-0.2,0.1
	c0-0.1-0.1-0.1-0.2-0.1l-2,0.8c-0.1,0-0.1,0.1-0.1,0.1l-0.2,0c0-0.2,0-0.4-0.1-0.7l0,0c0.3-0.6,0.9-0.8,1.5-1.1l0,0.1
	c0.4-0.1,0.8-0.1,1.2-0.3c0.4-0.2,0.7-0.4,1-0.6l0,0c3.5-1.4,9-3.7,9.8-4l0.4,0.4c0.5,0.5,1.2,0.7,1.9,0.6c0.1,0,0.2-0.1,0.2-0.1
	l3.3-1.4c0.8-0.4,1.3-0.8,1.3-1.5l0.4,0c0,0.1,0.1,0.2,0.2,0.2l19.2-7.9c0.1,0,0.1-0.1,0.1-0.2L46.4,101.7z M19.9,112.9
	c0.2-0.1,0.1-0.4-0.1-0.3l-3.7,1.6c-0.2,0.1-0.1,0.4,0.1,0.3L19.9,112.9z"/>
<path class="st6" d="M46.2,101.4l0.1,0.4l-0.2,0.1c0-0.1-0.1-0.1-0.2-0.1l-19.2,7.9c-0.1,0-0.1,0.1-0.1,0.1l-0.4,0
	c0-0.3,0-0.6-0.2-0.9l19.3-8C45.9,100.6,46.1,101.1,46.2,101.4z"/>
<path d="M46.2,101.8c0,0.1,0,0.2-0.1,0.2L27,110c-0.1,0.1-0.2,0-0.2-0.2c0-0.1,0-0.1,0.1-0.1l19.2-7.9
	C46.1,101.7,46.2,101.7,46.2,101.8z"/>
<path class="st5" d="M39.7,112.1c0,0.2,0,0.4-0.1,0.5l0,0l-8.7,3.7c-0.3,0.1-0.6,0.3-0.8,0.6l0,0l-7.2,3c-0.7,0.5-1.1,1.4-1.2,2.3
	l-0.3,0c0.1-1,0.4-1.9,1.1-2.9l5.8-2.5c0.9-0.4,0.4-1.5,2.3-2.2l8.8-3.7C39.5,111.3,39.6,111.7,39.7,112.1z"/>
<path class="st7" d="M39,110.1c0.1,0.2,0.1,0.4,0.2,0.5l-8.8,3.7c-0.7,0.3-1.3,0.7-1.7,1.4c-0.2,0.3-0.3,0.7-0.6,0.9l-5.9,2.5
	c-1.2,0.3-2.8,1.3-2.9,2.7c-0.1,1.2,0.3,1.9,0.8,2.3c0.3,0.3,0.6,0.4,1,0.6c0.4,0.3,0.7,0.7,0.9,1.1c-0.2,0.2-0.4,0.5-0.6,0.8
	c-0.4,0.4-1.3,1.6-1.4,1.9c-0.4,0.6-0.5,1.5-0.3,3.7c0,0.2,0,0.5,0.1,0.7c0.2,1.7,0.4,4.3,0.6,6.6c0.2,2.3,0.4,4.2,0.4,4.7
	c-2.4,0.8-8.7,2.7-8.8,2.7l-0.8,0.2c-0.4,0-0.4-0.4-0.4-0.7c0,0,0.1-5.5,0.1-9.8c0-0.9,0-1.8,0-2.6c0-1,0-1.8,0-2.2
	c-0.1-2.2-0.7-3.6-2.1-4.5c-1-0.7-2-1-4-0.6c-0.2,0-0.2,0-0.2-0.1l0-0.1c0.1-0.2,0.3-0.5,0.4-0.6c0.1-0.1,0.1-0.1,0.2-0.2
	c0.9-0.9,1.2-1.4,1-2.4l31.9-13.5l0.3,0.1l0.2,0.1l0.2,0.1L39,110.1z M25.3,116.8c0-0.3-0.3-0.6-0.6-0.6c-0.3,0-0.6,0.3-0.6,0.6
	c0,0.3,0.3,0.6,0.6,0.6C25,117.4,25.3,117.2,25.3,116.8z M21.1,126.7c0.6-0.2,0.8-0.9,0.6-1.5c-0.2-0.6-0.9-0.8-1.5-0.6
	c-0.2,0.1-0.3,0.2-0.4,0.3l-0.6,0c-0.4,0-0.8,0.4-0.7,0.8c0.1,0.8,0.9,0.7,1.5,0.7C20.3,126.8,20.7,126.9,21.1,126.7z M20.2,144.3
	c0.3-0.1,0.4-0.4,0.4-0.6c-0.3-3.6-0.6-7.2-0.9-10.7c-0.2-2.1-0.4-4.2-0.5-6.3c-0.4-0.1-0.6-0.3-0.7-0.8c0-0.4,0.2-0.7,0.5-0.9
	c-0.1-1.3-0.2-2.6-0.3-3.9c0-0.1,0-0.2,0-0.3c-0.1-0.6-1-0.6-1.4-0.6c-2-0.1-3.9,0.4-5.5,1.6c-0.2,0.2-0.5,0.5-0.4,0.8l0,6.8
	l-0.1,7.2l-0.1,7.5c0,0.2,0,0.5,0.1,0.6c0.1,0.1,0.2,0.1,0.2,0.1c0.9,0.4,0.9,0.3,1.4,1.1c0.2,0.4,0.6,0.4,1,0.3
	C14,146.2,19.9,144.5,20.2,144.3z M12.1,146.5c0.2-0.1,0.4-0.4,0.2-0.6c-0.1-0.2-0.4-0.4-0.6-0.2s-0.4,0.4-0.2,0.6
	S11.8,146.6,12.1,146.5z M11,124.4c0-0.2-0.2-0.3-0.3-0.3c-0.2,0-0.3,0.2-0.3,0.3c0,0.2,0.2,0.3,0.3,0.3
	C10.9,124.7,11,124.6,11,124.4z M8.4,123.8c0-0.3-0.2-0.5-0.4-0.5c-0.3,0-0.5,0.2-0.5,0.5c0,0.2,0.2,0.4,0.5,0.4
	C8.2,124.2,8.4,124,8.4,123.8z M6.6,126c0-0.2-0.2-0.4-0.5-0.4c-0.2,0-0.5,0.2-0.5,0.4s0.2,0.5,0.5,0.5C6.4,126.4,6.6,126.2,6.6,126
	z"/>
<path class="st5" d="M30.3,121c0.4,1,0.4,2.8-2.3,3.9l-3.9,1.6c-0.4,0.1-0.8,0.4-1.2,0.6c0.3-0.5,0.5-1.1,0.4-1.6
	c0-0.1-0.1-0.2-0.1-0.3c0.7,0.4,1.6,0.4,2.3,0.1c2.1-0.9,2.7-1.2,3.1-1.3c0.7-0.3,1.8-1.6,1.2-3.1c-0.5-1.3-1.4-2.3-2.8-2.4l2.7-1.1
	C29.2,118.5,29.8,119.8,30.3,121z"/>
<path class="st8" d="M26,109.4c0.1,0.7-0.2,1.2-1.1,1.6l-3.3,1.4c-0.6,0.2-1.2,0-1.7-0.4L26,109.4z"/>
<circle cx="24.7" cy="116.8" r="0.6"/>
<path class="st9" d="M25,125.3c-1.4,0.4-2.3-0.8-2.3-0.8c-0.8-1.3-0.9-2.9,0.1-4c-0.2,0.9-0.2,1.8,0.2,2.7
	C23.3,124.1,24.1,124.9,25,125.3z"/>
<path class="st5" d="M22.8,125.3c0.4,0.6,0.1,1.2-0.2,1.8c-0.3,0.5-0.6,0.8-0.6,0.8l-0.2,0.2c-0.3,0.4-0.5,0.8-0.6,1.3
	c-0.1,0.9,0,1.9,0.1,2.8c0.1,0.9,0.2,1.7,0.3,2.3c0.1,1.1,0.8,7.2,0.8,7.2c0,0.1,0.2,1.9-0.6,2.2l-0.6,0.2c-0.1-1.2-0.7-7.9-1-11.3
	c0-0.2,0-0.4-0.1-0.6c-0.2-2.2-0.1-3,0.2-3.5c0.1-0.2,1-1.4,1.4-1.9c0.2-0.3,0.4-0.5,0.7-0.8c0-0.1,0.1-0.2,0.1-0.3
	c-0.1-0.2-0.5-0.7-0.8-1.1c-0.2-0.8-0.3-1.6-0.3-2.4l0.3,0c0,0.3,0,0.5,0,0.7C21.9,124.1,22.2,124.4,22.8,125.3z"/>
<path d="M21.7,125.2c0.2,0.6,0,1.2-0.6,1.5c-0.4,0.2-0.8,0.1-1.1-0.2c-0.6,0.1-1.4,0.1-1.5-0.7c0-0.4,0.3-0.8,0.7-0.8l0.6,0
	c0.1-0.1,0.3-0.3,0.4-0.3C20.8,124.4,21.5,124.7,21.7,125.2z M21,126.4c0.4-0.2,0.6-0.6,0.4-1c-0.2-0.4-0.6-0.6-1-0.4
	c-0.1,0.1-0.2,0.1-0.3,0.2c-0.1,0.1-0.1,0.2-0.2,0.4c0,0.1,0,0.3,0,0.4c0,0.1,0.1,0.2,0.2,0.3C20.4,126.5,20.7,126.5,21,126.4z
	 M19.7,126.2l-0.1-0.1c-0.1-0.3-0.1-0.5,0-0.8l-0.4,0c-0.3,0-0.5,0.3-0.4,0.5c0,0.2,0.2,0.4,0.5,0.4L19.7,126.2z"/>
<path class="st10" d="M21.4,125.4c0.2,0.4,0,0.9-0.4,1c-0.3,0.1-0.6,0.1-0.9-0.2c-0.1-0.1-0.1-0.2-0.2-0.3c-0.1-0.1-0.1-0.3,0-0.4
	c0-0.1,0.1-0.2,0.2-0.4c0.1-0.1,0.2-0.2,0.3-0.2C20.8,124.8,21.3,125,21.4,125.4z"/>
<path class="st5" d="M22,119.5c-1,1.5-1.1,3.1-0.7,4.8c-1.1-0.5-1.6-1.2-1.5-2.5C19.8,120.6,21,119.9,22,119.5z"/>
<path d="M11.4,136.4l-0.1,7.7c0,0,0,0.1,0,0.2c0,0.1,0,0.2,0.1,0.2c0.2,0.2,0.7,0.2,1,0.5c0.3,0.2,0.5,0.6,0.7,0.9
	c0.1,0.2,0.4,0.2,0.6,0.1c0,0,6.1-1.9,6.4-2c0.1-0.1,0.2-0.2,0.2-0.3c0,0-0.5-5.2-0.9-10.7h0c-0.2-2.1-0.4-4.3-0.5-6.2
	c-0.9-0.4-0.9-1.6-0.2-2.1c-0.2-2.1-0.3-3.6-0.3-3.7c0-0.3,0-0.5-0.3-0.6c-1.2-0.3-3-0.1-4.1,0.3c-0.7,0.3-1.4,0.6-2,1.1
	c-0.1,0.1-0.3,0.3-0.3,0.5v0v0l0,6.8L11.4,136.4z M19.6,133c0.3,3.6,0.6,7.2,0.9,10.7c0.1,0.3-0.1,0.5-0.4,0.6
	c-0.3,0.1-6.2,1.9-6.4,2c-0.3,0.1-0.8,0.1-1-0.3c-0.5-0.9-0.4-0.8-1.4-1.1c-0.1,0-0.2-0.1-0.2-0.1c-0.2-0.2-0.2-0.4-0.1-0.6l0.1-7.5
	l0.1-7.2l0-6.8c0-0.3,0.2-0.6,0.4-0.8c1.6-1.2,3.5-1.7,5.5-1.6c0.5,0,1.3,0,1.4,0.6c0,0.1,0,0.2,0,0.3c0.1,1.3,0.2,2.6,0.3,3.9
	c-0.3,0.2-0.6,0.5-0.5,0.9c0,0.5,0.3,0.6,0.7,0.8C19.2,128.8,19.4,130.9,19.6,133z"/>
<path class="st11" d="M20.2,143.7c0,0.1,0,0.2-0.2,0.3c-0.3,0.1-6.4,2-6.4,2c-0.2,0.1-0.5,0.1-0.6-0.1c-0.2-0.3-0.3-0.6-0.7-0.9
	c-0.4-0.3-0.8-0.3-1-0.5c0,0-0.1-0.1-0.1-0.2c0-0.1,0-0.2,0-0.2l0.1-7.7l0.1-7l0-6.8v0v0c0-0.2,0.2-0.4,0.3-0.5
	c0.6-0.4,1.3-0.8,2-1.1c1.1-0.4,3-0.7,4.1-0.3c0.3,0.1,0.3,0.2,0.3,0.6c0,0.1,0.1,1.5,0.3,3.7c-0.7,0.5-0.7,1.7,0.2,2.1
	c0.2,1.9,0.4,4,0.5,6.2h0C19.8,138.5,20.2,143.7,20.2,143.7z M16.1,143.8c0.6-0.3,0.9-1,0.6-1.6c-0.3-0.6-1-0.9-1.6-0.6
	c-0.6,0.3-0.9,1-0.6,1.6C14.7,143.7,15.4,144,16.1,143.8z M15.3,124.7c0.6-0.3,0.9-1,0.6-1.6c-0.3-0.6-1-0.9-1.6-0.6
	c-0.6,0.3-0.9,1-0.6,1.6C13.9,124.7,14.7,125,15.3,124.7z"/>
<path d="M19.7,112.6c0.2-0.1,0.3,0.2,0.1,0.3l-3.7,1.6c-0.2,0.1-0.3-0.2-0.1-0.3L19.7,112.6z"/>
<path class="st10" d="M19.7,126.1l0.1,0.1l-0.4,0c-0.3,0-0.5-0.2-0.5-0.4c0-0.2,0.2-0.5,0.4-0.5l0.4,0
	C19.6,125.6,19.6,125.9,19.7,126.1z"/>
<path d="M16.7,142.2c0.3,0.6,0,1.3-0.6,1.6c-0.6,0.3-1.3,0-1.6-0.6c-0.3-0.6,0-1.3,0.6-1.6C15.7,141.3,16.4,141.6,16.7,142.2z
	 M15.9,143.5c0.4-0.2,0.6-0.6,0.5-1l-1.6,0.7C15.1,143.5,15.5,143.6,15.9,143.5z M14.7,142.8l1.6-0.7c-0.2-0.4-0.7-0.5-1.1-0.3
	C14.8,142,14.6,142.4,14.7,142.8z"/>
<path class="st10" d="M16.5,142.5c0.1,0.4-0.1,0.8-0.5,1c-0.4,0.2-0.9,0-1.1-0.3L16.5,142.5z"/>
<path class="st10" d="M16.3,142.2l-1.6,0.7c-0.1-0.4,0.1-0.8,0.5-1C15.6,141.7,16.1,141.8,16.3,142.2z"/>
<path d="M15.9,123.1c0.3,0.6,0,1.3-0.6,1.6c-0.6,0.3-1.3,0-1.6-0.6c-0.3-0.6,0-1.3,0.6-1.6C14.9,122.2,15.6,122.5,15.9,123.1z
	 M15.1,124.4c0.4-0.2,0.6-0.6,0.5-1l-1.6,0.7C14.3,124.4,14.7,124.6,15.1,124.4z M13.9,123.8l1.6-0.7c-0.2-0.4-0.7-0.5-1.1-0.3
	C14,122.9,13.8,123.4,13.9,123.8z"/>
<path class="st10" d="M15.7,123.4c0.1,0.4-0.1,0.8-0.5,1c-0.4,0.2-0.9,0-1.1-0.3L15.7,123.4z"/>
<path class="st10" d="M15.5,123.1l-1.6,0.7c-0.1-0.4,0.1-0.8,0.5-1C14.8,122.6,15.3,122.7,15.5,123.1z"/>
<ellipse transform="matrix(0.9207 -0.3902 0.3902 0.9207 -56.0652 16.2239)" cx="11.9" cy="146.1" rx="0.5" ry="0.5"/>
<path class="st7" d="M10.8,147.2L10.8,147.2c-0.4,0.1-0.4-0.3-0.4-0.6c0,0,0.1-5.5,0.1-9.8c0-0.9,0-1.8,0-2.6c0-1,0-1.8,0-2.3
	c-0.1-2.2-0.7-3.6-2.1-4.4c-0.2-0.1-0.8-0.4-1.2-0.3c-0.3,0.1-1.1,0.4-1.5,0.5c-0.4,0.1-0.8,0.1-1-0.3c-0.1-0.1-0.1-0.3-0.1-0.4
	c0.1,0,0.2,0,0.3,0c1.9-0.4,2.8,0,3.8,0.6c1.3,0.8,1.9,2.1,1.9,4.2c0,0.8,0,2.8,0,4.9c0,2.1,0,4.5-0.1,6.3c0,1.9,0,3.2,0,3.3
	C10.5,146.7,10.6,147,10.8,147.2z"/>
<circle cx="10.7" cy="124.4" r="0.3"/>
<path class="st7" d="M10.2,132c0,0.5,0,1.5,0,2.6L9.4,135c-0.3,0.1-0.2-0.2-0.2-0.4c0-0.2,0.3-2.7-0.1-4.6c-0.2-0.7-0.6-1.2-1.1-1.6
	c-0.8-0.5-1.5-0.5-2.2-0.4l0,0c0.6-0.1,1.2-0.4,1.6-0.5c0.2,0,0.7,0.2,0.9,0.3C9.5,128.6,10.1,129.9,10.2,132z"/>
<path class="st7" d="M10.2,135.2c0,0.6,0,1.1,0,1.8c0,2.1,0,4.5-0.1,6.3c0,1.9,0,3.2,0,3.3c0,0.2,0,0.4,0,0.5
	c-0.2-0.2-0.4-0.6-0.7-1.4c-0.3-1-0.3-2.9-0.2-4.6c0-0.4,0.2-2.4,0.4-3.9c0.1-0.8,0.2-1.5,0.3-1.7C10,135.4,10.1,135.3,10.2,135.2z"
	/>
<path class="st6" d="M8.5,117.4l1.6,3.9l-3.5,1.5c-0.4-1-0.7-2.1-0.8-3.2c0-0.5,0-0.8,0-1.1l0.2,0c0,0.1,0.1,0.2,0.2,0.2l2-0.8
	c0.1,0,0.1-0.1,0.1-0.2L8.5,117.4z"/>
<path class="st12" d="M7.9,115.1c0.3,0.7,0.6,0.1,1.1,0.6c-0.2,0.1-0.4,0.3-0.7,0.4c-0.3,0.1-0.6,0.2-0.8,0.2c0-0.2,0-0.3,0.1-0.4
	c0.1-0.1,0.1-0.1,0.2-0.2c0.2-0.2,0.1-0.4,0-0.6L7.9,115.1C7.9,115.1,7.9,115.1,7.9,115.1z"/>
<path d="M8.2,117.4c0,0.1,0,0.2-0.1,0.2l-2,0.8c-0.1,0.1-0.2,0-0.2-0.2c0-0.1,0-0.1,0.1-0.1l2-0.8C8.1,117.3,8.2,117.4,8.2,117.4z"
	/>
<circle cx="7.9" cy="123.8" r="0.5"/>
<ellipse cx="6.2" cy="126" rx="0.5" ry="0.5"/>
<path class="st7" d="M5.7,128L5.7,128c-0.4,0.1-0.7,0.2-1.1,0.3c-0.5,0.2-1,0.4-1.6,0.5c-0.3,0-0.4,0-0.4-0.2
	c-0.3-0.8,0-1.6,1.1-2.1l0.7-0.3c-0.1,0.4-0.1,0.9,0,1.3C4.7,128.1,5.2,128.1,5.7,128z"/>
<path class="st8" d="M5.7,121.2c-0.1-0.2-0.2-0.4-0.4-0.5c-0.2-0.2-0.6-0.3-1.1-0.3l-0.3-0.7c0.5-0.1,1-0.3,1.3-0.6
	C5.2,119.6,5.3,120.2,5.7,121.2z"/>
<path class="st8" d="M3.5,119.7l0.2,0.4c0,0-1.5-0.2-1.5-0.5c0.2-0.1,0.6,0,0.7,0C3.1,119.7,3.3,119.7,3.5,119.7z"/>
<path class="st7" d="M2,119.8c0.1,0.2,0.4,0.3,0.7,0.4C2.4,120.3,1.9,120.2,2,119.8z"/>
<path class="st5" d="M57.4,107.6c-0.1,0.7,0.7,0.9,0.7,0.9l0,0l7.8,3.3c0.2-0.7,0.4-1.4,0.7-2c0.1-0.2,0.1-0.3,0.1-0.3
	c0-0.1,0.3-0.2,0.5-0.3l-0.5-0.2c-0.7-1.5-3.8-3-5-3.5l-3.1-1.3l-0.6,1.3C57.8,105.9,57.5,106.8,57.4,107.6z"/>
<path d="M59.6,101.6c0,0.1,0,0.2,0.1,0.2l19.2,7.9c0.1,0.1,0.2,0,0.2-0.2c0-0.1,0-0.1-0.1-0.1l-19.2-7.9
	C59.7,101.5,59.6,101.6,59.6,101.6z"/>
<path class="st6" d="M60.4,100.6c-0.4-0.2-0.7,0.3-0.8,0.6l-0.1,0.4l0.2,0.1c0-0.1,0.1-0.1,0.2-0.1l19.2,7.9c0.1,0,0.1,0.1,0.1,0.1
	l0.4,0c0-0.3,0-0.6,0.2-0.9L60.4,100.6z"/>
<circle cx="81.2" cy="116.7" r="0.6"/>
<path class="st5" d="M83,127c-0.3-0.5-0.5-1.1-0.4-1.6c0-0.1,0.1-0.2,0.1-0.3c-0.7,0.4-1.6,0.4-2.3,0.1c-2.1-0.9-2.7-1.2-3.1-1.3
	c-0.7-0.3-1.8-1.6-1.2-3.1c0.5-1.3,1.4-2.3,2.8-2.4l-2.7-1.1c0.5,1.1-0.1,2.4-0.5,3.6c-0.4,1-0.4,2.8,2.3,3.9l3.9,1.6
	C82.1,126.5,82.6,126.7,83,127z"/>
<path class="st9" d="M83.1,120.3c0.2,0.9,0.2,1.8-0.2,2.7c-0.4,1-1.2,1.7-2.1,2.1c1.4,0.4,2.3-0.8,2.3-0.8
	C84,123,84.2,121.4,83.1,120.3z"/>
<path class="st5" d="M83,119.8c0.7,0.5,1.1,1.4,1.2,2.3l0.3,0c-0.1-1-0.4-1.9-1.1-2.9l-5.8-2.5c-0.9-0.4-0.4-1.5-2.3-2.2l-8.8-3.7
	c-0.1,0.4-0.2,0.8-0.3,1.2c0,0.2,0,0.4,0.1,0.5l0,0l8.7,3.7c0.3,0.1,0.6,0.3,0.8,0.6l0,0L83,119.8z"/>
<path class="st5" d="M84.1,122.8c-0.2,1.1-0.5,1.5-1.1,2.3c-0.4,0.6-0.1,1.2,0.2,1.8c0.3,0.5,0.6,0.8,0.6,0.8l0.2,0.2
	c0.3,0.4,0.5,0.8,0.6,1.3c0,0.3,0,0.6,0,0.9c0,0.6,0,1.3-0.1,1.9c-0.1,0.9-0.2,1.7-0.3,2.3c-0.1,1.1-0.8,7.2-0.8,7.2
	c0,0.1-0.2,1.9,0.6,2.2l0.6,0.2c0-0.6,0.2-2.6,0.4-4.8c0.2-2.3,0.4-4.8,0.6-6.5c0-0.2,0-0.4,0.1-0.6c0.2-2.2,0.1-3-0.2-3.5
	c-0.1-0.2-1-1.4-1.4-1.9c-0.2-0.3-0.4-0.5-0.7-0.8c0-0.1-0.1-0.2-0.1-0.3c0.1-0.2,0.5-0.7,0.8-1.1c0.2-0.8,0.3-1.6,0.3-2.4l-0.3,0
	C84.2,122.3,84.2,122.5,84.1,122.8z"/>
<path class="st5" d="M84.6,124.1c1.1-0.5,1.6-1.2,1.5-2.5c-0.1-1.1-1.3-1.9-2.3-2.3C84.9,120.8,84.9,122.4,84.6,124.1z"/>
<path class="st10" d="M84.4,125.2c-0.2,0.4,0,0.9,0.4,1c0.3,0.1,0.6,0.1,0.9-0.2c0.1-0.1,0.1-0.2,0.2-0.3c0.1-0.1,0.1-0.3,0-0.4
	c0-0.1-0.1-0.2-0.2-0.4c-0.1-0.1-0.2-0.2-0.3-0.2C85.1,124.6,84.6,124.8,84.4,125.2z"/>
<path class="st8" d="M84.3,112.2c0.6,0.2,1.2,0,1.7-0.4l-6.1-2.6c-0.1,0.7,0.2,1.2,1.1,1.6L84.3,112.2z"/>
<path class="st10" d="M86.5,126.1c0.3,0,0.5-0.2,0.5-0.4c0-0.2-0.2-0.5-0.4-0.5l-0.4,0c0.1,0.2,0.1,0.5,0,0.8l-0.1,0.1L86.5,126.1z"
	/>
<path d="M85.7,126.1c-0.2,0.2-0.6,0.3-0.9,0.2c-0.4-0.2-0.6-0.6-0.4-1c0.2-0.4,0.6-0.6,1-0.4c0.1,0.1,0.2,0.1,0.3,0.2
	c0.1,0.1,0.1,0.2,0.2,0.4c0,0.1,0,0.3,0,0.4C85.8,125.9,85.8,126,85.7,126.1z M87.3,125.7c0-0.4-0.3-0.8-0.7-0.8l-0.6,0
	c-0.1-0.1-0.3-0.3-0.4-0.3c-0.6-0.2-1.2,0-1.5,0.6c-0.2,0.6,0,1.2,0.6,1.5c0.4,0.2,0.8,0.1,1.1-0.2
	C86.4,126.4,87.2,126.5,87.3,125.7z M87,125.7c0,0.2-0.2,0.4-0.5,0.4l-0.4,0l0.1-0.1c0.1-0.3,0.1-0.5,0-0.8l0.4,0
	C86.8,125.2,87,125.4,87,125.7z"/>
<path class="st10" d="M91.1,142.7c0.1-0.4-0.1-0.8-0.5-1c-0.4-0.2-0.9,0-1.1,0.3L91.1,142.7z"/>
<path d="M86,112.7l3.7,1.6c0.2,0.1,0.3-0.2,0.1-0.3l-3.7-1.6C85.9,112.4,85.8,112.7,86,112.7z"/>
<path class="st10" d="M91.4,122.6c-0.4-0.2-0.9,0-1.1,0.3l1.6,0.7C92,123.2,91.8,122.8,91.4,122.6z"/>
<path class="st10" d="M89.9,143.3c0.4,0.2,0.9,0,1.1-0.3l-1.6-0.7C89.3,142.7,89.5,143.1,89.9,143.3z"/>
<path class="st10" d="M90.2,123.2c-0.1,0.4,0.1,0.8,0.5,1c0.4,0.2,0.9,0,1.1-0.3L90.2,123.2z"/>
<path d="M91.4,142.9c0.3-0.6,0-1.3-0.6-1.6c-0.6-0.3-1.3,0-1.6,0.6c-0.3,0.6,0,1.3,0.6,1.6C90.4,143.8,91.1,143.5,91.4,142.9z
	 M90.6,141.6c0.4,0.2,0.6,0.6,0.5,1l-1.6-0.7C89.8,141.6,90.2,141.5,90.6,141.6z M91,142.9c-0.2,0.4-0.7,0.5-1.1,0.3
	c-0.4-0.2-0.6-0.6-0.5-1L91,142.9z"/>
<path d="M90.3,122.9c0.2-0.4,0.7-0.5,1.1-0.3c0.4,0.2,0.6,0.6,0.5,1L90.3,122.9z M91.8,123.9c-0.2,0.4-0.7,0.5-1.1,0.3
	c-0.4-0.2-0.6-0.6-0.5-1L91.8,123.9z M90.6,124.5c0.6,0.3,1.3,0,1.6-0.6c0.3-0.6,0-1.3-0.6-1.6c-0.6-0.3-1.3,0-1.6,0.6
	C89.7,123.5,90,124.3,90.6,124.5z"/>
<path class="st11" d="M94.4,144.3c0,0,0.1-0.1,0.1-0.2c0-0.1,0-0.2,0-0.2l-0.1-7.7l-0.1-7l0-6.9v0v0c0-0.2-0.2-0.4-0.3-0.5
	c-0.6-0.4-1.3-0.8-2-1.1c-1.1-0.4-3-0.7-4.1-0.3c-0.3,0.1-0.3,0.2-0.3,0.6c0,0.1-0.1,1.5-0.3,3.7c0.7,0.5,0.7,1.7-0.2,2.1
	c-0.2,1.9-0.4,4-0.5,6.2h0c-0.5,5.4-0.9,10.7-0.9,10.7c0,0.1,0,0.2,0.2,0.3c0.3,0.1,6.4,2,6.4,2c0.2,0.1,0.5,0.1,0.6-0.1
	c0.2-0.3,0.3-0.6,0.7-0.9C93.8,144.5,94.3,144.5,94.4,144.3z M89.9,122.9c0.3-0.6,1-0.9,1.6-0.6c0.6,0.3,0.9,1,0.6,1.6
	c-0.3,0.6-1,0.9-1.6,0.6C90,124.3,89.7,123.5,89.9,122.9z M89.2,142c0.3-0.6,1-0.9,1.6-0.6c0.6,0.3,0.9,1,0.6,1.6
	c-0.3,0.6-1,0.9-1.6,0.6C89.2,143.3,88.9,142.6,89.2,142z"/>
<ellipse transform="matrix(0.3902 -0.9207 0.9207 0.3902 -77.0401 175.4709)" cx="94" cy="145.9" rx="0.5" ry="0.5"/>
<path d="M86.6,132.9c0.2-2.1,0.4-4.3,0.5-6.2c0.9-0.4,0.9-1.6,0.2-2.1c0.2-2.1,0.3-3.6,0.3-3.7c0-0.3,0-0.5,0.3-0.6
	c1.2-0.3,3-0.1,4.1,0.3c0.7,0.3,1.4,0.6,2,1.1c0.1,0.1,0.3,0.3,0.3,0.5v0v0l0,6.9l0.1,7l0.1,7.7c0,0,0,0.1,0,0.2
	c0,0.1,0,0.2-0.1,0.2c-0.2,0.2-0.7,0.2-1,0.5c-0.3,0.2-0.5,0.6-0.7,0.9c-0.1,0.2-0.4,0.2-0.6,0.1c0,0-6.1-1.9-6.4-2
	c-0.1-0.1-0.2-0.2-0.2-0.3C85.6,143.6,86.1,138.3,86.6,132.9L86.6,132.9z M87.3,120.9c-0.1,1.3-0.2,2.6-0.3,3.9
	c0.3,0.2,0.6,0.5,0.5,0.9c0,0.5-0.3,0.6-0.7,0.8c-0.2,2.1-0.4,4.2-0.5,6.3c-0.3,3.6-0.6,7.2-0.9,10.7c-0.1,0.3,0.1,0.5,0.4,0.6
	c0.3,0.1,6.2,1.9,6.4,2c0.3,0.1,0.8,0.1,1-0.3c0.5-0.9,0.4-0.8,1.4-1.1c0.1,0,0.2-0.1,0.2-0.1c0.2-0.2,0.2-0.4,0.1-0.6l-0.1-7.5
	l-0.1-7.2l0-6.8c0-0.3-0.2-0.6-0.4-0.8c-1.6-1.2-3.5-1.7-5.5-1.6c-0.5,0-1.3,0-1.4,0.6C87.3,120.7,87.3,120.8,87.3,120.9z"/>
<circle cx="95.2" cy="124.2" r="0.3"/>
<path class="st7" d="M96.5,145.5c0.3-1,0.3-2.9,0.2-4.6c0-0.4-0.2-2.4-0.4-3.9c-0.1-0.8-0.2-1.5-0.3-1.7c0-0.1-0.1-0.2-0.2-0.3
	c0,0.6,0,1.1,0,1.8c0,4.2,0.1,9.5,0.1,9.7c0,0.2,0,0.4,0,0.5C96,146.7,96.2,146.3,96.5,145.5z"/>
<circle cx="97.9" cy="123.6" r="0.5"/>
<path class="st12" d="M98.1,115.5c-0.2-0.2-0.1-0.4,0-0.6l0,0c-0.1,0-0.1,0-0.1,0c-0.3,0.7-0.6,0.1-1.1,0.6c0.2,0.1,0.4,0.3,0.7,0.4
	c0.3,0.1,0.6,0.2,0.8,0.2c0-0.2,0-0.3-0.1-0.4C98.3,115.6,98.2,115.6,98.1,115.5z"/>
<ellipse cx="99.7" cy="125.8" rx="0.5" ry="0.5"/>
<path d="M99.7,118.3c0.1,0.1,0.2,0,0.2-0.2c0-0.1,0-0.1-0.1-0.1l-2-0.8c-0.1,0-0.2,0-0.2,0.1c0,0.1,0,0.2,0.1,0.2L99.7,118.3z"/>
<path class="st6" d="M100.1,119.3c0-0.5,0-0.8,0-1.1l-0.2,0c0,0.1-0.1,0.2-0.2,0.2l-2-0.8c-0.1,0-0.1-0.1-0.1-0.2l-0.2-0.1l-1.6,3.9
	l3.5,1.5C99.7,121.5,100,120.4,100.1,119.3z"/>
<path class="st6" d="M86.1,112.5l3.7,1.6c0.2,0.1,0.1,0.4-0.1,0.3l-3.7-1.6C85.8,112.7,85.9,112.4,86.1,112.5z M97.8,117.2l2,0.8
	c0.1,0,0.1,0.1,0.1,0.1l0.2,0c0-0.2,0-0.4,0.1-0.7l0,0c-0.3-0.6-0.9-0.8-1.5-1.1l0,0.1c-0.4-0.1-0.8-0.1-1.2-0.3
	c-0.4-0.2-0.7-0.4-1-0.6l0,0c-3.5-1.4-9-3.7-9.8-4l-0.4,0.4c-0.5,0.5-1.2,0.7-1.9,0.6c-0.1,0-0.2-0.1-0.2-0.1l-3.3-1.4
	c-0.8-0.4-1.3-0.8-1.3-1.5l-0.4,0c0,0.1-0.1,0.2-0.2,0.2l-19.2-7.9c-0.1,0-0.1-0.1-0.1-0.2l-0.2-0.1l-1,2.3l3.3,1.4
	c3.9,1.6,4.9,3.2,5.1,3.6l21.8,9.2l1.6-3.9l0.3-0.1l-1.7,4.1l0.1,0l1.6-3.9l0.3-0.1l-1.7,4.1l0.1,0l1.6-3.9l0.3-0.1l-1.7,4.1
	l0.1,0.1l1.6-3.9l0.3-0.1l-1.7,4.1l0.1,0.1l1.6-3.9l0.3-0.1l-1.7,4.1l0.1,0l1.6-3.9l0.4-0.1l-1.7,4.1L91,119l1.6-3.9L93,115
	l-1.7,4.1l0.1,0.1l1.6-3.9l0.3-0.1l-1.7,4.1l0.1,0l1.6-3.9l0.3-0.1l-1.7,4.1l0.1,0l1.6-3.9l0.3-0.1l-1.7,4.1l0.1,0.1l1.6-3.9
	l0.3-0.1l-1.7,4.1l0.1,0l1.6-3.9l0.3-0.1l-1.7,4.1l0.1,0.1l1.6-3.9l0.3-0.1l-1.7,4.1l0.1,0.1l1.6-3.9l0.3-0.1l-1.7,4.1l0.1,0
	l1.6-3.9l0.3-0.1l-1.7,4.1l0.1,0.1l1.6-3.9l0.3-0.1l-1.7,4.1l0.1,0.1l1.6-3.9l0.3-0.1l-1.7,4.1l0.1,0l1.6-3.9l0.3-0.1l-1.7,4.1
	l0.1,0l1.6-3.9l0.3-0.1l-0.1,0.2l0.2,0.1C97.6,117.2,97.7,117.1,97.8,117.2z"/>
<path class="st7" d="M96.5,134.8c0.3,0.1,0.2-0.2,0.2-0.4c0-0.2-0.3-2.7,0.1-4.6c0.2-0.7,0.6-1.2,1.1-1.6c0.8-0.5,1.5-0.5,2.2-0.4
	l0,0c-0.6-0.1-1.2-0.4-1.6-0.5c-0.2,0-0.7,0.2-0.9,0.3c-1.3,0.8-1.9,2.1-2,4.2c0,0.5,0,1.5,0,2.6L96.5,134.8z"/>
<path class="st8" d="M100.6,120.6c0.2-0.2,0.6-0.3,1.1-0.3l0.3-0.7c-0.5-0.1-1-0.3-1.3-0.6c0,0.6-0.1,1.2-0.5,2.2
	C100.3,120.9,100.4,120.7,100.6,120.6z"/>
<path class="st7" d="M81.2,116c0.3,0,0.6,0.3,0.6,0.6c0,0.3-0.3,0.6-0.6,0.6c-0.3,0-0.6-0.3-0.6-0.6C80.6,116.3,80.8,116,81.2,116z
	 M93.8,146.3c-0.2-0.1-0.4-0.4-0.2-0.6c0.1-0.2,0.4-0.4,0.6-0.2s0.4,0.4,0.2,0.6C94.3,146.3,94,146.4,93.8,146.3z M94.8,124.2
	c0-0.2,0.2-0.3,0.3-0.3c0.2,0,0.3,0.2,0.3,0.3c0,0.2-0.2,0.3-0.3,0.3C95,124.5,94.8,124.4,94.8,124.2z M86.6,124.9
	c0.4,0,0.8,0.4,0.7,0.8c-0.1,0.8-0.9,0.7-1.5,0.7c-0.3,0.2-0.7,0.3-1.1,0.2c-0.6-0.2-0.8-0.9-0.6-1.5c0.2-0.6,0.9-0.8,1.5-0.6
	c0.2,0.1,0.3,0.2,0.4,0.3L86.6,124.9z M86.9,124.8c0.1-1.3,0.2-2.6,0.3-3.9c0-0.1,0-0.2,0-0.3c0.1-0.6,1-0.6,1.4-0.6
	c2-0.1,3.9,0.4,5.5,1.6c0.2,0.2,0.5,0.5,0.4,0.8l0,6.8l0.1,7.2l0.1,7.5c0,0.2,0,0.5-0.1,0.6c-0.1,0.1-0.2,0.1-0.2,0.1
	c-0.9,0.4-0.9,0.3-1.4,1.1c-0.2,0.4-0.6,0.4-1,0.3c-0.2-0.1-6.1-1.9-6.4-2c-0.3-0.1-0.4-0.4-0.4-0.6c0.3-3.6,0.6-7.2,0.9-10.7
	c0.2-2.1,0.4-4.2,0.5-6.3c0.4-0.1,0.6-0.3,0.7-0.8C87.5,125.3,87.3,125,86.9,124.8z M97.9,123.1c0.3,0,0.5,0.2,0.5,0.5
	c0,0.2-0.2,0.4-0.5,0.4c-0.2,0-0.4-0.2-0.4-0.4C97.5,123.3,97.7,123.1,97.9,123.1z M100.5,125.4c-0.9-0.9-1.2-1.4-1-2.4l-31.9-13.5
	l-0.3,0.1l-0.2,0.1l-0.2,0.1l-0.1,0.2c-0.1,0.2-0.1,0.4-0.2,0.5l8.8,3.7c0.7,0.3,1.3,0.7,1.7,1.4c0.2,0.3,0.3,0.7,0.6,0.9l5.9,2.5
	c1.2,0.3,2.8,1.3,2.9,2.7c0.1,1.2-0.3,1.9-0.8,2.3c-0.3,0.3-0.6,0.4-1,0.6c-0.4,0.3-0.7,0.7-0.9,1.1c0.2,0.2,0.4,0.5,0.6,0.8
	c0.4,0.4,1.3,1.6,1.4,1.9c0.4,0.6,0.5,1.5,0.3,3.7c0,0.2,0,0.5-0.1,0.7c-0.3,3.5-0.9,10.4-1,11.3c2.4,0.8,8.7,2.7,8.8,2.7l0.8,0.2
	c0.4,0,0.4-0.4,0.4-0.7c0,0,0-1.4,0-3.3c0-1.9,0-4.4-0.1-6.5c0-2.1,0-4,0-4.8c0.1-2.2,0.7-3.6,2.1-4.5c1-0.7,2-1,4-0.6
	c0.2,0,0.2,0,0.2-0.1l0-0.1c-0.1-0.2-0.3-0.5-0.4-0.6C100.7,125.6,100.6,125.5,100.5,125.4z M99.2,125.8c0-0.2,0.2-0.4,0.5-0.4
	c0.2,0,0.5,0.2,0.5,0.4c0,0.2-0.2,0.5-0.5,0.5C99.4,126.2,99.2,126,99.2,125.8z"/>
<path class="st7" d="M97.5,127.4c0.2-0.1,0.8-0.4,1.2-0.3c0.3,0.1,1.1,0.4,1.5,0.5c0.4,0.1,0.8,0.1,1-0.3c0.1-0.1,0.1-0.3,0.1-0.4
	c-0.1,0-0.2,0-0.3,0c-1.9-0.4-2.8,0-3.8,0.6c-1.3,0.8-1.9,2.1-1.9,4.2c0,0.5,0,1.4,0,2.6c0,0.7,0,1.5,0,2.4c0,4.2,0.1,9.5,0.1,9.7
	c0,0.3,0,0.6-0.2,0.8l0,0c0.4,0,0.4-0.3,0.3-0.6c0,0,0-1.4,0-3.3c0-1.9,0-4.4-0.1-6.5c0-2.1,0-4,0-4.8
	C95.4,129.6,96.1,128.2,97.5,127.4z"/>
<path class="st7" d="M101.4,126c0.1,0.4,0.1,0.9,0,1.3c-0.2,0.6-0.7,0.6-1.3,0.5l0,0c0.4,0.1,0.7,0.2,1.1,0.3c0.5,0.2,1,0.4,1.6,0.5
	c0.3,0,0.4,0,0.4-0.2c0.3-0.8,0-1.6-1.1-2.1L101.4,126z"/>
<path class="st8" d="M102.9,119.5c-0.2,0-0.4,0.1-0.6,0.1l-0.2,0.4c0,0,1.5-0.2,1.5-0.5C103.4,119.4,103.1,119.4,102.9,119.5z"/>
<path class="st7" d="M103.1,120.1c0.3,0,0.8-0.1,0.7-0.4C103.7,119.9,103.5,120,103.1,120.1z"/>
<path d="M100.2,121.1c0.3-1,0.4-1.6,0.5-2.2c0.3,0.3,0.8,0.5,1.3,0.6l-0.3,0.7c-0.5,0.1-0.9,0.2-1.1,0.3
	C100.4,120.7,100.3,120.9,100.2,121.1z M59.2,101.4l-0.8,1.8c0.1-0.5,0.4-1.2,0.5-1.6C58.9,101.6,59,101.5,59.2,101.4z M57.5,105.5
	c0,0,0.4-1,0.6-1.4l0.1,0.1l-0.5,1.3C57.7,105.5,57.7,105.5,57.5,105.5L57.5,105.5z M102.3,119.5c0.2,0,0.4,0,0.6-0.1
	c0.2,0,0.5-0.1,0.7,0c0,0.3-1.4,0.5-1.5,0.5L102.3,119.5z M62.7,101.3l-1.7-0.7C61.6,100.2,62.2,100.7,62.7,101.3z M61.7,105.5
	c1.2,0.5,4.3,2,5,3.5l0.5,0.2c-0.2,0.1-0.5,0.2-0.5,0.3c0,0,0,0.1-0.1,0.3c-0.3,0.7-0.5,1.3-0.7,2l-7.8-3.3l0,0c0,0-0.9-0.3-0.7-0.9
	c0.2-0.8,0.5-1.6,0.6-2l0.6-1.3L61.7,105.5z M103.9,119.6c0.1,0.3-0.4,0.4-0.7,0.4C103.5,120,103.7,119.9,103.9,119.6z M83.9,119.3
	c1,0.4,2.2,1.2,2.3,2.3c0.1,1.3-0.4,2-1.5,2.5C84.9,122.4,84.9,120.8,83.9,119.3z M85.9,111.8c-0.4,0.4-1.1,0.6-1.7,0.4l-3.3-1.4
	c-0.9-0.4-1.3-0.9-1.1-1.6L85.9,111.8z M82.7,120c0.4,0.9,0.4,1.9,0,2.9c-0.4,1-1.3,1.8-2.3,2.1c-2-0.9-2.7-1.1-3-1.3
	c-0.6-0.2-1.6-1.4-1.1-2.7c0.5-1.4,1.6-2.4,3.1-2.2c0.2,0,0.4,0.1,0.4,0.1l0.4,0.1L82.7,120z M82.5,125.4c-0.1,0.4,0.1,1,0.4,1.6
	c-0.4-0.3-0.8-0.5-1.2-0.6l-3.9-1.6c-2.7-1.1-2.7-2.9-2.3-3.9c0.5-1.2,1.1-2.5,0.5-3.6l2.7,1.1c-1.3,0.1-2.2,1.1-2.8,2.4
	c-0.6,1.5,0.5,2.8,1.2,3.1c0.3,0.2,1,0.5,3.1,1.3c0.8,0.3,1.6,0.3,2.3-0.1C82.6,125.2,82.6,125.3,82.5,125.4z M84.2,122
	c0-0.9-0.5-1.7-1.2-2.3l-7.2-3l0,0c-0.2-0.3-0.5-0.5-0.8-0.6l-8.7-3.7l0,0c-0.2-0.1-0.2-0.3-0.1-0.5c0.1-0.4,0.2-0.8,0.3-1.2
	l8.8,3.7c1.9,0.7,1.3,1.8,2.3,2.2l5.8,2.5c0.7,1,1,1.9,1.1,2.9c0,0.8-0.1,1.5-0.3,2.4c-0.3,0.3-0.8,0.9-0.8,1.1c0,0.1,0,0.2,0.1,0.3
	c0.2,0.3,0.4,0.5,0.7,0.8c0.4,0.4,1.3,1.6,1.4,1.9c0.3,0.5,0.5,1.3,0.2,3.5c0,0.2,0,0.4-0.1,0.6c-0.2,1.7-0.4,4.2-0.6,6.5
	c-0.2,2.3-0.4,4.3-0.4,4.8l-0.6-0.2c-0.8-0.3-0.6-2.1-0.6-2.2c0,0,0.6-6.1,0.8-7.2c0.1-0.5,0.2-1.4,0.3-2.3c0.1-0.6,0.1-1.3,0.1-1.9
	c0-0.3,0-0.6,0-0.9c0-0.5-0.3-0.9-0.6-1.3l-0.2-0.2c0,0-0.3-0.4-0.6-0.8c-0.3-0.6-0.6-1.2-0.2-1.8c0.6-0.8,0.9-1.2,1.1-2.3
	C84.2,122.5,84.2,122.3,84.2,122z M83,123c0.4-0.9,0.4-1.8,0.2-2.7c1,1.1,0.9,2.7,0.1,4c0,0-0.9,1.2-2.3,0.8
	C81.8,124.7,82.5,124,83,123z M100.1,118.2c0,0.4,0,0.7,0,1.1c0,1.1-0.4,2.2-0.8,3.2l-3.5-1.5l1.6-3.9l0.1-0.2l-0.3,0.1l-1.6,3.9
	l-0.1,0l1.7-4.1l-0.3,0.1l-1.6,3.9l-0.1,0l1.7-4.1l-0.3,0.1l-1.6,3.9l-0.1-0.1l1.7-4.1l-0.3,0.1l-1.6,3.9l-0.1-0.1l1.7-4.1l-0.3,0.1
	l-1.6,3.9l-0.1,0l1.7-4.1l-0.3,0.1l-1.6,3.9l-0.1-0.1l1.7-4.1l-0.3,0.1l-1.6,3.9l-0.1-0.1l1.7-4.1l-0.3,0.1l-1.6,3.9l-0.1,0l1.7-4.1
	l-0.3,0.1l-1.6,3.9l-0.1-0.1l1.7-4.1l-0.3,0.1l-1.6,3.9l-0.1,0l1.7-4.1l-0.3,0.1l-1.6,3.9l-0.1,0l1.7-4.1l-0.3,0.1l-1.6,3.9
	l-0.1-0.1L93,115l-0.3,0.1L91,119l-0.1-0.1l1.7-4.1l-0.4,0.1l-1.6,3.9l-0.1,0l1.7-4.1l-0.3,0.1l-1.6,3.9l-0.1-0.1l1.7-4.1l-0.3,0.1
	l-1.6,3.9l-0.1-0.1l1.7-4.1l-0.3,0.1l-1.6,3.9l-0.1,0l1.7-4.1l-0.3,0.1l-1.6,3.9l-0.1,0l1.7-4.1l-0.3,0.1l-1.6,3.9l-21.8-9.2
	c-0.2-0.3-1.3-1.9-5.1-3.6l-3.3-1.4l1-2.3l0.1-0.4c0.1-0.3,0.4-0.8,0.8-0.6l19.3,8c-0.1,0.3-0.2,0.7-0.2,0.9
	c0.1,0.6,0.5,1.1,1.3,1.5l3.3,1.4c0,0,0.1,0,0.2,0.1c0.7,0.1,1.4-0.1,1.9-0.6l0.4-0.4c0.8,0.3,6.3,2.6,9.8,4l0,0
	c0.3,0.3,0.6,0.4,1,0.6c0.4,0.2,0.8,0.3,1.2,0.3l0-0.1c0.6,0.2,1.2,0.5,1.5,1.1l0,0C100.1,117.8,100.1,118,100.1,118.2z M98.6,127.4
	c0.4,0.1,1,0.4,1.6,0.5c0.5,0.1,1,0,1.3-0.5c0.2-0.4,0.1-0.9,0-1.3l0.7,0.3c1.1,0.5,1.4,1.3,1.1,2.1c-0.1,0.2-0.2,0.3-0.4,0.2
	c-0.5-0.1-1.1-0.3-1.6-0.5c-0.4-0.1-0.7-0.2-1.1-0.3c-0.7-0.1-1.5-0.1-2.2,0.4c-0.5,0.4-0.9,0.9-1.1,1.6c-0.4,1.9-0.2,4.4-0.1,4.6
	c0,0.2,0.1,0.5-0.2,0.4l-0.8-0.3c0-1.2,0-2.1,0-2.6c0.1-2.1,0.7-3.4,2-4.2C97.8,127.5,98.4,127.3,98.6,127.4z M99.5,123
	c-0.2,1,0.1,1.6,1,2.4c0.1,0.1,0.2,0.2,0.2,0.2c0.1,0.2,0.3,0.4,0.4,0.6l0,0.1c0,0.1-0.1,0.1-0.2,0.1c-2-0.4-3,0-4,0.6
	c-1.4,0.9-2,2.3-2.1,4.5c0,0.8,0,2.7,0,4.8c0,2.2,0,4.6,0.1,6.5c0,1.9,0,3.3,0,3.3c0,0.3,0,0.7-0.4,0.7l-0.8-0.2
	c-0.2,0-6.4-2-8.8-2.7c0.1-0.9,0.7-7.8,1-11.3c0-0.3,0-0.5,0.1-0.7c0.2-2.2,0.1-3.1-0.3-3.7c-0.2-0.3-1.1-1.5-1.4-1.9
	c-0.3-0.3-0.5-0.6-0.6-0.8c0.2-0.4,0.6-0.8,0.9-1.1c0.4-0.2,0.7-0.3,1-0.6c0.5-0.4,0.9-1.1,0.8-2.3c-0.1-1.4-1.7-2.3-2.9-2.7
	l-5.9-2.5c-0.4-0.2-0.4-0.6-0.6-0.9c-0.4-0.7-0.9-1.1-1.7-1.4l-8.8-3.7c0.1-0.2,0.1-0.4,0.2-0.5l0.1-0.2l0.2-0.1l0.2-0.1l0.3-0.1
	L99.5,123z M96.7,140.9c0.1,1.7,0.1,3.6-0.2,4.6c-0.3,0.8-0.5,1.2-0.7,1.4c0-0.1,0-0.3,0-0.5c0-0.2-0.1-5.4-0.1-9.7
	c0-0.6,0-1.2,0-1.8c0.1,0.1,0.2,0.2,0.2,0.3c0.1,0.3,0.2,0.9,0.3,1.7C96.4,138.5,96.6,140.5,96.7,140.9z M97,134.3
	c0-0.2-0.3-2.6,0.1-4.5c0.2-0.6,0.5-1.1,1-1.4c1-0.6,2-0.4,3.1-0.1c0.5,0.2,1.1,0.4,1.6,0.5c0.4,0.1,0.6,0,0.8-0.4
	c0.7-1.8-1.2-2.5-2.4-3c-0.6-0.6-1.4-1.3-1.4-2.2c0-0.3,0.1-0.6,0.2-0.9c0,0,0.1-0.3,0.3-0.7c0.4-0.9,0.5-1,1.4-1.2
	c0.6-0.1,1.9-0.1,2.3-0.4c0.5-0.4,0.1-1.3-0.9-1.1c-0.7,0.1-0.9,0.2-1.8-0.1c-0.3-0.1-0.6-0.4-0.6-0.7v-0.2c0-1-0.7-1.5-1.1-1.7
	c0,0-0.3-0.1-0.9-0.4c0-0.2,0-0.4-0.1-0.5c-0.2-0.3-0.4-0.2-0.2-0.5c0.1-0.2,0-0.4-0.2-0.4c-0.2-0.1-0.4-0.1-0.5,0.1
	c-0.1,0.3-0.2,0.1-0.5,0.2c-0.2,0-0.4,0.2-0.5,0.3c-3.8-1.5-10-4.1-10-4.1c-0.1-0.1-0.4,0.2-0.5,0.3l-6.2-2.6c0-0.1,0.1-0.2,0.1-0.2
	c0-0.1,0-0.2-0.1-0.2l-16.6-6.9c-0.1-0.1-0.2-0.3-0.4-0.5c-0.5-0.6-1.3-1.2-2.2-0.7l-0.1,0.1l0,0l-0.1,0c-0.5-0.3-1,0.3-1.2,0.7l0,0
	c-0.3-0.1-0.6,0.1-0.7,0.5c-0.2,0.6-0.6,2-0.7,2.2l-0.6,1.6c-0.1,0.2,0,0.3,0.1,0.4c-0.1,0.1-0.2,0.2-0.2,0.3
	c-0.1,0.3-0.4,1.1-0.1,1.4l0,0c-0.1,0.7,0.4,1.1,0.9,1.3l7.5,3.2l0.3,0.1c0,0.3,0.1,0.5,0.4,0.6l8.8,3.7c0.2,0.1,0.5,0.3,0.6,0.5
	l0,0c0.8,1.1,0.1,2.5-0.4,3.7c-0.5,1.2-0.4,3.1,2.5,4.3l3.9,1.6c0,0,0.6,0.2,1.3,0.7c0.3,0.2,0.6,0.5,0.8,0.7l0.1,0.2
	c0.2,0.3,0.4,0.6,0.4,1c0.1,0.8,0,1.8,0,2.7c-0.1,0.9-0.2,1.8-0.3,2.4c-0.1,1.1-0.7,7-0.8,7.2c-0.1,0.8-0.1,2.2,0.8,2.5
	c1,0.3,9.7,3,9.7,3l1.5,0.4c0.2,0.1,0.5,0,0.7-0.2c1.8-1.8,0.9-7.7,0.6-10.1h0v0c-0.1-1-0.3-1.8-0.4-2c0-0.1-0.1-0.1-0.1-0.2
	l0.3,0.1C96.9,135.3,97.1,134.8,97,134.3z M97.1,127.4c0.9-0.6,1.8-0.9,3.8-0.6c0.1,0,0.2,0,0.3,0c0,0.1,0,0.3-0.1,0.4
	c-0.2,0.4-0.6,0.4-1,0.3c-0.4-0.1-1.2-0.4-1.5-0.5c-0.3-0.1-0.9,0.2-1.2,0.3c-1.4,0.9-2,2.2-2.1,4.4c0,0.8,0,2.7,0,4.8
	c0,2.2,0,4.6,0.1,6.5c0,1.9,0,3.3,0,3.3c0,0.3,0,0.7-0.3,0.6l0,0c0.2-0.2,0.2-0.5,0.2-0.8c0-0.2-0.1-5.4-0.1-9.7c0-0.8,0-1.7,0-2.4
	c0-1.1,0-2.1,0-2.6C95.3,129.5,95.9,128.2,97.1,127.4z M98.1,114.9c-0.1,0.2-0.1,0.4,0,0.6c0.1,0.1,0.1,0.1,0.2,0.2
	c0,0.1,0.1,0.2,0.1,0.4c-0.3,0-0.5-0.1-0.8-0.2c-0.3-0.1-0.5-0.2-0.7-0.4c0.5-0.5,0.8,0.1,1.1-0.6C98,114.9,98,114.9,98.1,114.9
	L98.1,114.9z"/>
<g>
	<g>
		<path d="M53.4,83.4c0.1,0.3,0.1,0.6,0,0.9c-0.1,0.3-0.3,0.5-0.6,0.6c-0.6,0.3-1.8,0.5-3,0.6c-0.4,0.1-0.8,0.1-1.2,0.2v0
			c1.7-0.3,2.8-1.1,2.8-2s-1.2-1.7-2.8-2V65.6c0-0.4-0.2-0.7-0.5-0.9c-0.3-0.2-0.6-0.2-0.9,0c-0.4,0.2-0.7,0.4-1.1,0.6v-4.9
			c0-3.5-2.9-6.4-6.4-6.4h-2.3v-4.3c0-1.3-1-2.3-2.3-2.3H21.4c-1.3,0-2.3,1-2.3,2.3V54h-2.3c-3.5,0-6.4,2.9-6.4,6.4v4.1
			c-0.5,0-0.8,0.1-0.8,0.1c-0.5,0-0.9,0.5-0.9,1v16.2c-1.7,0.3-2.9,1.1-2.9,2c0,0.9,1.2,1.7,2.9,2v0c0,0-0.1,0-0.1,0
			c-1.3-0.2-3.2-0.4-3.8-0.8c-0.5-0.3-0.7-0.9-0.5-1.5c2.1-5.4,2.5-15.4,2.6-21c0.1-4.3,1.1-8.3,3-11.7c2.8-5,6.5-7.3,9.7-8.8
			c5.5-2.7,11.8-2.7,17.2,0c2.7,1.3,6.7,3.8,10.4,9.9c2,3.4,3.1,7.4,3.3,11.8C50.8,70,51.4,78.5,53.4,83.4z"/>
		<path d="M48.6,81.7c1.7,0.3,2.8,1.1,2.8,2s-1.2,1.7-2.8,2V81.7z"/>
		<path d="M48.6,81.7v4.1c-0.5,0.1-1.1,0.2-1.7,0.2c-2.3,0-4.3-0.9-4.5-2c1.1-0.5,2-1.2,2.6-2.2c0.6-0.1,1.2-0.2,1.9-0.2
			C47.5,81.6,48.1,81.6,48.6,81.7z"/>
		<path d="M48.6,65.6v16.1c-0.5-0.1-1.1-0.2-1.7-0.2c-0.7,0-1.3,0.1-1.9,0.2c0.7-1,1.1-2.3,1.1-3.6V65.3c0.4-0.1,0.7-0.3,1.1-0.6
			c0.3-0.2,0.6-0.2,0.9,0C48.4,64.9,48.6,65.2,48.6,65.6z"/>
		<path d="M46.2,65.3v12.9c0,1.3-0.4,2.6-1.1,3.6c-0.7,0.2-1.3,0.4-1.7,0.7l-0.7-0.1c1.3-0.9,2.2-2.5,2.2-4.2V65.5
			C45.3,65.5,45.7,65.4,46.2,65.3z"/>
		<path d="M46.2,60.3v4.9c-0.4,0.2-0.9,0.3-1.3,0.3v-5.2c0-2.8-2.3-5.1-5.1-5.1h-2.3h-2.4c-0.1-0.2-0.1-0.3-0.1-0.3
			c-0.1-0.3-0.4-0.6-0.7-0.6c-0.3,0-0.6,0.1-0.8,0.4c-0.1,0.2-0.2,0.3-0.3,0.5h-14h-2.3c-2.8,0-5.1,2.3-5.1,5.1v4
			c-0.5,0.1-1,0.1-1.3,0.1v-4.1c0-3.5,2.9-6.4,6.4-6.4h2.3v-4.3c0-1.3,1.1-2.3,2.3-2.3h13.7c1.3,0,2.3,1,2.3,2.3V54h2.3
			C43.3,54,46.2,56.8,46.2,60.3z M36.2,54v-4.3c0-0.6-0.5-1-1-1H21.4c-0.6,0-1,0.5-1,1V54H36.2z"/>
		<path class="st2" d="M44.9,65.5v12.6c0,1.7-0.9,3.3-2.2,4.2c-0.8,0.5-1.8,0.9-2.8,0.9h-23c-1,0-2-0.3-2.8-0.9
			c-1.3-0.9-2.2-2.5-2.2-4.2V64.4c4.9-0.5,16.9-2.5,21.3-9.1h2c0.3,0.8,1.3,2.9,2.7,5c1.7,2.6,4.2,5.3,6.8,5.3
			C44.7,65.5,44.8,65.5,44.9,65.5z M35.6,67.2c0-0.3-0.1-0.6-0.2-0.9c-0.1-0.2-0.2-0.3-0.3-0.4c-0.3-0.3-0.8-0.5-1.3-0.5
			c-1,0-1.8,0.8-1.8,1.8c0,1,0.8,1.8,1.8,1.8c0.5,0,1-0.2,1.3-0.5c0.1-0.1,0.2-0.3,0.3-0.4C35.5,67.8,35.6,67.5,35.6,67.2z
			 M34.2,74.8c0.3-0.3,0.3-0.8,0-1.1c-0.3-0.3-0.8-0.3-1.1,0c-2.6,2.6-6.9,2.6-9.6,0c-0.3-0.3-0.8-0.3-1.1,0h0
			c-0.1,0.1-0.1,0.2-0.2,0.2c-0.1,0.3-0.1,0.6,0.2,0.8c1.6,1.6,3.7,2.4,5.9,2.4C30.5,77.2,32.6,76.4,34.2,74.8z M24.7,67.2
			c0-1-0.8-1.8-1.8-1.8c-1,0-1.8,0.8-1.8,1.8c0,1,0.8,1.8,1.8,1.8C23.9,69,24.7,68.2,24.7,67.2z"/>
		<path class="st2" d="M44.9,60.3v5.2c-0.1,0-0.1,0-0.2,0c-2.7,0-5.1-2.6-6.8-5.3c-1.4-2.1-2.4-4.2-2.7-5h2.4h2.3
			C42.6,55.3,44.9,57.6,44.9,60.3z"/>
		<path d="M45,81.8c-0.6,0.9-1.6,1.7-2.6,2.2c0-0.1,0-0.1,0-0.2c0-0.5,0.3-0.9,0.9-1.3C43.8,82.1,44.4,81.9,45,81.8z"/>
		<path d="M42.6,82.4l0.7,0.1c-0.6,0.4-0.9,0.8-0.9,1.3c0,0.1,0,0.1,0,0.2c-0.7,0.3-1.6,0.5-2.4,0.6v1.1v1.5v1.3H16.6v-1.3v-1.5
			v-1.1c-0.6,0-1.2-0.1-1.8-0.3c0.1-0.1,0.1-0.3,0.1-0.4c0-0.5-0.4-1-1-1.4l0-0.1c0.8,0.5,1.8,0.9,2.8,0.9h23
			C40.8,83.2,41.8,82.9,42.6,82.4z M38.7,87.1v-2.6H17.9v2.6H38.7z"/>
		<rect x="17.9" y="84.5" class="st2" width="20.8" height="2.6"/>
		<path d="M36.2,49.7V54H20.4v-4.3c0-0.6,0.5-1,1-1h13.7C35.7,48.6,36.2,49.1,36.2,49.7z"/>
		<path d="M35.4,66.3c0.1,0.3,0.2,0.6,0.2,0.9c0,0.3-0.1,0.6-0.2,0.9c-0.1,0.2-0.2,0.3-0.3,0.4c-0.3,0.3-0.8,0.5-1.3,0.5
			c-1,0-1.8-0.8-1.8-1.8c0-1,0.8-1.8,1.8-1.8c0.5,0,1,0.2,1.3,0.5C35.2,66,35.3,66.1,35.4,66.3z"/>
		<path d="M35,65.9c0.1,0.1,0.2,0.3,0.3,0.4C35.3,66.1,35.2,66,35,65.9z"/>
		<path d="M35.4,68c-0.1,0.2-0.2,0.3-0.3,0.4C35.2,68.3,35.3,68.2,35.4,68z"/>
		<path d="M35.1,55.3h-2c0.1-0.2,0.2-0.3,0.3-0.5c0.2-0.3,0.5-0.5,0.8-0.4c0.3,0,0.6,0.3,0.7,0.6C34.9,55,35,55.1,35.1,55.3z"/>
		<path d="M34.2,73.7c0.3,0.3,0.3,0.8,0,1.1c-1.6,1.6-3.7,2.4-5.9,2.4c-2.1,0-4.2-0.8-5.9-2.4c-0.2-0.2-0.3-0.6-0.2-0.8
			c0-0.1,0.1-0.2,0.2-0.2c0.3-0.3,0.8-0.3,1.1,0c2.6,2.6,6.9,2.6,9.6,0C33.4,73.4,33.9,73.4,34.2,73.7z"/>
		<path class="st2" d="M19.1,55.3h14c-4.4,6.6-16.4,8.6-21.3,9.1v-4c0-2.8,2.3-5.1,5.1-5.1H19.1z"/>
		<ellipse cx="22.9" cy="67.2" rx="1.8" ry="1.8"/>
		<path d="M14.9,83.8c0,0.1,0,0.3-0.1,0.4c-1.4-0.4-2.6-1.4-3.3-2.5c1,0.1,1.8,0.4,2.4,0.8C14.6,82.8,14.9,83.3,14.9,83.8z"/>
		<path d="M14,82.4L14,82.4c-0.7-0.3-1.5-0.6-2.5-0.7c-0.7-1-1.1-2.2-1.1-3.5V64.5c0.3,0,0.8-0.1,1.3-0.1v13.8
			C11.8,79.9,12.6,81.4,14,82.4z"/>
		<path d="M14.8,84.2c-0.4,1-2.2,1.8-4.4,1.8c-0.6,0-1.1-0.1-1.7-0.2v-4.1c0.5-0.1,1.1-0.2,1.7-0.2c0.4,0,0.7,0,1.1,0.1
			C12.3,82.9,13.5,83.8,14.8,84.2z"/>
		<path d="M11.5,81.7c-0.3,0-0.7-0.1-1.1-0.1c-0.6,0-1.1,0.1-1.7,0.2V65.6c0-0.5,0.4-1,0.9-1c0,0,0.3,0,0.8-0.1v13.7
			C10.4,79.5,10.8,80.7,11.5,81.7z"/>
		<path d="M8.8,81.8v4.1c-1.7-0.3-2.9-1.1-2.9-2C5.9,82.9,7.1,82.1,8.8,81.8z"/>
		<ellipse cx="29.2" cy="50.1" rx="13.2" ry="4.7"/>
		<ellipse cx="47.4" cy="70.9" rx="1.9" ry="14.5"/>
		<ellipse cx="47.7" cy="82.8" rx="4.4" ry="2.1"/>
		<ellipse cx="44.2" cy="83.5" rx="1.4" ry="1.8"/>
		<ellipse cx="49" cy="81.4" rx="3.3" ry="4.2"/>
	</g>
	<rect x="12.6" y="48.5" width="32.1" height="6.3"/>
	<rect x="8.4" y="56" width="3.4" height="29.4"/>
	<ellipse cx="9.2" cy="83.7" rx="3.8" ry="2.1"/>
	<ellipse cx="11.9" cy="82.6" rx="1.4" ry="1.7"/>
	<ellipse cx="12.5" cy="83.7" rx="2.2" ry="1.8"/>
	<ellipse cx="14.3" cy="83.5" rx="0.8" ry="0.8"/>
	<ellipse transform="matrix(0.5342 -0.8454 0.8454 0.5342 -41.3511 36.0568)" cx="12" cy="55.5" rx="3" ry="1.4"/>
	<ellipse transform="matrix(0.866 -0.5 0.5 0.866 -22.0316 30.4589)" cx="45.8" cy="56.3" rx="2.1" ry="4.5"/>
	<ellipse cx="46.9" cy="65.6" rx="2" ry="4.2"/>
	<ellipse cx="46.4" cy="81.1" rx="1.3" ry="2.1"/>
	<ellipse transform="matrix(0.8982 -0.4395 0.4395 0.8982 -32.239 27.674)" cx="43.6" cy="83.5" rx="1.3" ry="1.5"/>
	<ellipse cx="42.3" cy="83.6" rx="0.3" ry="0.4"/>
	<ellipse cx="42.8" cy="82.6" rx="0.2" ry="0.3"/>
	<ellipse cx="48.8" cy="85.2" rx="1" ry="0.6"/>
</g>
</svg>
