<?xml version="1.0" encoding="utf-8"?>
<!-- Generator: Adobe Illustrator 21.0.0, SVG Export Plug-In . SVG Version: 6.00 Build 0)  -->
<svg version="1.1" id="Calque_1" xmlns="http://www.w3.org/2000/svg" xmlns:xlink="http://www.w3.org/1999/xlink" x="0px" y="0px"
	 viewBox="0 0 105.9 183.4" style="enable-background:new 0 0 105.9 183.4;" xml:space="preserve">
<style type="text/css">
	.st0{fill:#F4A00B;}
	.st1{fill:none;stroke:#000000;stroke-width:0.4879;stroke-miterlimit:10;}
	.st2{fill:#562D00;}
	.st3{fill:#5B3B02;}
	.st4{fill:#939393;}
	.st5{fill:#B7B7B6;}
	.st6{fill:#6A6B6B;}
	.st7{fill:#9D9E9E;}
	.st8{fill:#B2B2B1;}
	.st9{fill:#DDDDD9;}
	.st10{fill:#898989;}
	.st11{fill:#FFFFFF;}
	.st12{fill:#494948;}
	.st13{fill:#727272;}
	.st14{fill:#898986;}
	.st15{fill:#605E4A;}
	.st16{fill:none;stroke:#000000;stroke-width:2.9276;stroke-miterlimit:10;}
</style>
<g>
	<path class="st0" d="M105.7,107.9v71.7c0,2.1-1.7,3.8-3.8,3.8h-98c-2.1,0-3.8-1.7-3.8-3.8V4.1C0,2,1.7,0.3,3.8,0.3h98.1
		c2.1,0,3.8,1.7,3.8,3.8v71c0,1-0.5,1.8-1.4,2.3l-1.1,0.6c-0.9,0.4-1.4,1.3-1.4,2.3v23.7c0,1.1,0.7,2.1,1.8,2.4l1.4,0.4
		C105.4,106.9,105.7,107.4,105.7,107.9z"/>
	<path class="st1" d="M105.7,107.9v71.7c0,2.1-1.7,3.8-3.8,3.8h-98c-2.1,0-3.8-1.7-3.8-3.8V4.1C0,2,1.7,0.3,3.8,0.3h98.1
		c2.1,0,3.8,1.7,3.8,3.8v71c0,1-0.5,1.8-1.4,2.3l-1.1,0.6c-0.9,0.4-1.4,1.3-1.4,2.3v23.7c0,1.1,0.7,2.1,1.8,2.4l1.4,0.4
		C105.4,106.9,105.7,107.4,105.7,107.9z"/>
	<path class="st2" d="M91.4,133.8c0.6-0.4,1.3-0.7,2-1c-0.5,0.8-1,1.5-1.6,2.2C91.7,134.6,91.6,134.2,91.4,133.8z"/>
	<path class="st2" d="M90.4,134.3c0.2,0.5,0.4,1.1,0.4,1.6c-0.5,0.4-0.9,0.9-1.5,1.2c-0.7-0.2-1.2-0.6-1.8-1.1v0
		C88.6,135.4,89.5,134.9,90.4,134.3z"/>
	<path class="st2" d="M89,131.2l1.1,2.1c-1,0.6-2.1,1.2-3.1,1.9c-0.4-0.7-0.5-1.5-0.5-2.3l0,0C87.4,132.3,88.2,131.7,89,131.2z"/>
	<path class="st2" d="M88.5,130.3l-1.9,1.2c0.1-0.5,0.2-1.1,0.4-1.6h0.1l0.9-0.7C88.1,129.5,88.3,129.9,88.5,130.3z"/>
	<path class="st2" d="M84,117.6c0.5,0.1,1.1,0.2,1.6,0.2c-0.2,0.2-0.4,0.4-0.5,0.6l-0.9,1.1l-1-0.2C83.5,118.7,83.8,118.2,84,117.6z
		"/>
	<path class="st2" d="M86.6,118.2l1.5,1.3c-0.3,0.4-0.5,0.7-0.8,1.1c-0.6-0.4-1.2-0.6-1.9-0.8l0.7-1.1
		C86.3,118.6,86.4,118.4,86.6,118.2z"/>
	<path class="st2" d="M90.6,117.9l1.8,1.4l-1.4,1.2l-1.4-1.2C89.9,118.8,90.2,118.4,90.6,117.9z"/>
	<path class="st2" d="M89,120l1.2,1.1c-0.4,0.4-0.8,0.9-1.2,1.3c0-0.1-0.1-0.1-0.2-0.2c-0.2-0.1-0.3-0.1-0.4-0.2
		c-0.1-0.3-0.2-0.5-0.4-0.7l0.1-0.1C88.5,120.8,88.7,120.4,89,120L89,120z"/>
	<path class="st2" d="M92.9,123.5l-2.1,1.8c-0.4-0.6-0.7-1.2-1.1-1.9c0.5-0.5,0.9-1,1.4-1.5C91.7,122.5,92.3,123,92.9,123.5z"/>
	<path class="st2" d="M89.9,126.1l-1.4,1.2c-0.4-0.2-0.5-0.3-0.5-0.5l0.1-0.2c0.2-0.7,0.2-1,0.4-1.5c0.1,0,0.2-0.1,0.2-0.2l0.4-0.5
		C89.2,125,89.5,125.5,89.9,126.1z"/>
	<path class="st2" d="M91.6,128.2l-2.2,1.5c-0.2-0.4-0.4-0.9-0.6-1.3l1.7-1.4C90.9,127.3,91.3,127.7,91.6,128.2z"/>
	<path class="st2" d="M93.8,131.5c-0.1,0-0.1,0-0.2,0.1v0c-0.9,0.4-1.8,0.8-2.6,1.3c-0.4-0.7-0.7-1.4-1.1-2.2l2.4-1.6
		C92.9,129.8,93.4,130.6,93.8,131.5z"/>
	<path class="st2" d="M95.5,127c-0.2,1.2-0.5,2.4-1,3.5c-0.4-0.7-0.8-1.4-1.2-2C94.1,127.9,94.8,127.5,95.5,127z"/>
	<path class="st2" d="M93.6,124.3c0.5,0.5,1,1.1,1.5,1.6c-0.9,0.5-1.7,1.1-2.5,1.6c-0.2-0.3-0.4-0.5-0.6-0.7
		c-0.2-0.2-0.4-0.4-0.6-0.7L93.6,124.3z"/>
	<path class="st2" d="M95.8,122.5c0.1,0.9,0.1,1.7,0,2.5c-0.4-0.5-0.9-1-1.3-1.4L95.8,122.5z"/>
	<path class="st2" d="M95.6,121.3v0.2c-0.2,0-0.4,0-0.5,0.1l-1.4,1.3c-0.6-0.5-1.2-1.1-1.8-1.6c0.5-0.4,1-0.9,1.5-1.3l1.8,1.3
		C95.2,121.4,95.4,121.4,95.6,121.3L95.6,121.3z"/>
	<path class="st2" d="M95.4,120.1l-1.1-0.8l0.7-0.6C95.1,119.2,95.2,119.6,95.4,120.1z"/>
	<path class="st2" d="M89.2,116.9l0.5,0.4c-0.4,0.4-0.7,0.8-1,1.2l-1.3-1.1c0.6-0.2,1.1-0.4,1.7-0.6v0L89.2,116.9L89.2,116.9z"/>
	<path class="st2" d="M91.5,115.3c-0.4,0.4-0.7,0.8-1.1,1.2l-0.3-0.2C90.6,115.9,91.1,115.6,91.5,115.3z"/>
	<path class="st2" d="M94.5,117.7c-0.1,0-0.2,0-0.3,0.1v0l-0.9,0.7l-2-1.4c0.6-0.7,1.1-1.3,1.8-2C93.6,116,94.2,116.8,94.5,117.7z"
		/>
	<path class="st2" d="M12.5,128.2c-0.4,0.7-0.9,1.4-1.2,2.1c-0.5-1.1-0.8-2.3-1-3.5C11,127.1,11.8,127.6,12.5,128.2z"/>
	<path class="st2" d="M13.5,128.9l2.5,1.5c-0.4,0.7-0.7,1.4-1.1,2.2c-0.9-0.5-1.7-1-2.6-1.4v0H12C12.4,130.4,12.9,129.7,13.5,128.9z
		"/>
	<path class="st2" d="M14.4,133.4c-0.2,0.4-0.3,0.8-0.4,1.2c-0.6-0.7-1.1-1.4-1.6-2.2C13.1,132.8,13.8,133.1,14.4,133.4z"/>
	<path class="st2" d="M15.3,134.1c0.9,0.5,1.9,1.1,2.8,1.7c-0.5,0.5-1.1,0.9-1.7,1.1l0,0c-0.5-0.4-1-0.8-1.5-1.2
		C15,135.1,15.1,134.6,15.3,134.1z"/>
	<path class="st2" d="M19.3,132.5c0,0.8-0.1,1.6-0.5,2.3c-1-0.6-2-1.2-3.1-1.9c0.3-0.7,0.7-1.4,1.1-2.1
		C17.6,131.4,18.5,132,19.3,132.5z"/>
	<path class="st2" d="M19.2,131.2l-1.9-1.2c0.2-0.4,0.4-0.8,0.5-1.2l0.9,0.7h0.1C18.9,130.1,19,130.7,19.2,131.2z"/>
	<path class="st2" d="M15.3,126.6l1.6,1.4c-0.2,0.5-0.4,0.9-0.6,1.3l-2.2-1.5C14.5,127.5,14.9,127,15.3,126.6z"/>
	<path class="st2" d="M17.8,125.9l0.1,0.3c0,0.4-0.2,0.5-0.5,0.7l-1.4-1.2c0.4-0.5,0.7-1.1,0.9-1.7l0.4,0.5c0,0.1,0.1,0.1,0.2,0.2
		C17.6,125.2,17.6,125.3,17.8,125.9z"/>
	<path class="st2" d="M12.1,123.9l2.2,1.9c-0.2,0.2-0.4,0.4-0.6,0.6c-0.2,0.2-0.5,0.5-0.7,0.7c-0.9-0.5-1.7-1.1-2.5-1.6l0,0
		C11.1,125,11.6,124.4,12.1,123.9z"/>
	<path class="st2" d="M10,122.1l1.3,1.1c-0.4,0.5-0.8,1-1.2,1.5l0,0C9.9,123.8,9.9,123,10,122.1z"/>
	<path class="st3" d="M11.6,118.9l-1.1,0.8c0.1-0.4,0.2-0.9,0.4-1.4v0L11.6,118.9z"/>
	<path class="st2" d="M12.4,119.6c0.5,0.4,1,0.9,1.5,1.3c-0.5,0.6-1.1,1.1-1.7,1.6l0,0l-1.5-1.2c-0.1-0.1-0.3-0.2-0.5-0.1v-0.2
		c0.2,0.1,0.3,0,0.4,0L12.4,119.6z"/>
	<path class="st2" d="M16.1,123.1c-0.4,0.6-0.7,1.2-1.1,1.8l-2.1-1.8c0.6-0.5,1.2-1.1,1.8-1.6C15.1,122.1,15.7,122.6,16.1,123.1
		L16.1,123.1z"/>
	<path class="st2" d="M17.6,120.9L17.6,120.9c-0.1,0.3-0.2,0.6-0.2,0.9c-0.1,0.1-0.2,0.1-0.4,0.2c-0.2,0.1-0.2,0.1-0.2,0.2
		c-0.4-0.5-0.8-0.9-1.2-1.3l1.2-1.1C17.1,120.2,17.4,120.5,17.6,120.9z"/>
	<path class="st2" d="M16.2,119l-1.4,1.2c-0.5-0.4-0.9-0.8-1.4-1.2l1.8-1.4C15.5,118.1,15.8,118.5,16.2,119z"/>
	<path class="st2" d="M14.5,116.8l-2,1.4l-0.9-0.7c-0.1-0.1-0.2-0.1-0.3-0.1c0.4-0.9,0.9-1.8,1.4-2.5
		C13.3,115.4,13.9,116.1,14.5,116.8z"/>
	<path class="st2" d="M15.7,116l-0.3,0.2c-0.4-0.4-0.7-0.8-1.1-1.2C14.7,115.4,15.2,115.7,15.7,116z"/>
	<path class="st2" d="M18.3,117.2l-1.3,1.1c-0.3-0.5-0.6-0.9-0.9-1.3l0.5-0.4l0.1-0.1C17.2,116.8,17.8,117,18.3,117.2z"/>
	<path class="st2" d="M19.6,118.4l0.8,1.1c-0.7,0.2-1.3,0.4-1.9,0.7l0,0c-0.3-0.4-0.5-0.8-0.8-1.1l1.5-1.3
		C19.3,118.1,19.5,118.3,19.6,118.4z"/>
	<path class="st4" d="M27.1,116.1c-0.1-0.1-0.3-0.1-0.4-0.2c-0.4-0.3-0.7-0.6-0.9-1c0.3-0.2,0.6-0.5,0.9-0.7
		C26.7,114.9,26.9,115.5,27.1,116.1L27.1,116.1z"/>
	<path class="st4" d="M93.4,113.3c4.3,3.4,5.5,10.4,4.1,15.4c-0.6,2.2-3.2,8.1-6.5,8.6c6.8-5.7,8.2-16.9,2.2-23.7L93.4,113.3z"/>
	<path class="st4" d="M12.3,113.1l0.2,0.3c-5.9,6.8-4.4,18,2.3,23.8c-2.9-0.4-5.1-5.2-5.9-7.2l0,0C6.8,124.6,7.5,116.8,12.3,113.1z"
		/>
	<path class="st5" d="M13.4,107.2c0,0.7-0.3,1.3-0.8,1.8c-0.2,0-0.4,0-0.5,0c-1.1,0.2-2.2,0-3.2-0.4c0.5,0,1.1,0,1.6-0.1
		C11.6,108.4,12.6,107.9,13.4,107.2L13.4,107.2z"/>
	<path class="st6" d="M43.7,98.2c0,0.7,0.2,0.4-0.2,0.7c-0.6,0.7-2.3,1.1-3.2,1.5c-1.2,0.5-2.4,1.1-3.6,1.8
		c-0.2-0.6-0.4-1.1-0.5-1.7c2.4-1.3,4.9-2.6,7.4-3.8C43.6,97.2,43.7,97.7,43.7,98.2z"/>
	<path class="st7" d="M40.2,84.3l1.6,0.7c-0.2,0.4-0.4,0.9-0.5,1.4C40.4,85.7,39.9,85,40.2,84.3z"/>
	<path class="st7" d="M70.5,97.9c0.1,0,0.2,0.1,0.3,0.1c-0.2,0.4-0.4,0.7-0.5,1.1l-0.2,0.4c-6.1-3-12-6.1-18.3-8.7
		c-0.7-0.3-2.9-1-5.3-1.8c-1.6-0.6-3.2-1.3-4.4-2c0.1-0.1,0.1-0.2,0.1-0.2c0.1-0.5,0.3-0.9,0.5-1.3C52.1,89.4,61.4,93.4,70.5,97.9z"
		/>
	<path class="st7" d="M65.6,83.9c0.1,0.8-0.3,1.6-1,2.1c-0.1-0.5-0.3-1-0.6-1.4L65.6,83.9z"/>
	<path class="st7" d="M63.6,86.4c0,0.1,0.1,0.2,0.1,0.3c-1.6,0.9-3.2,1.5-4.9,2l-2-0.8c2.1-0.9,4.1-1.8,6.2-2.7
		C63.3,85.5,63.5,85.9,63.6,86.4z"/>
	<path class="st7" d="M48.9,91.4l1.6,0.7c-1.2,0.5-2.5,1.1-3.7,1.7c-3.7,1.7-7.4,3.5-11,5.5v0.1l-0.2-0.4c-0.2-0.4-0.4-0.8-0.5-1.1
		c0.1,0,0.2,0,0.3-0.1c4.4-2.2,8.9-4.1,13.3-6.1C48.7,91.5,48.8,91.5,48.9,91.4z"/>
	<path class="st8" d="M42.8,83.3l-0.4,0.6l-1.2-0.5C41.7,83.2,42.2,83.2,42.8,83.3z"/>
	<path class="st8" d="M64.9,82.9l-1.5,0.7l-0.5-0.7c0.5-0.1,0.8-0.3,1.2-0.3C64.3,82.6,64.6,82.7,64.9,82.9z"/>
	<path class="st9" d="M60,82.1c0,0,0.1,0.2,0.2,0.4c-1.4,0.5-2.7,1.1-4.1,1.7c-0.1-0.4,0-0.7,0.5-0.9c0.6-0.2,1.2-0.4,1.9-0.6
		C59,82.4,59.5,82.2,60,82.1z"/>
	<path class="st9" d="M49.8,84.3c0,0.2,0,0.4-0.1,0.5l-1.4-0.6l-1-0.4c-0.7-0.3-1.2-0.5-1.8-0.8c0.1-0.2,0.2-0.3,0.2-0.5
		c0.2,0.1,0.4,0.1,0.5,0.2l1,0.4c0.2,0,0.4,0.1,0.5,0.2c0.4,0.1,0.8,0.2,1.1,0.4C49.5,83.7,49.8,83.7,49.8,84.3L49.8,84.3z"/>
	<path class="st8" d="M61.9,83.2c0.2,0.2,0.3,0.5,0.5,0.7l-7.1,3.2l-1.2-0.5C56.6,85.3,59.2,84.2,61.9,83.2z"/>
	<path class="st8" d="M46.1,90.1l1.3,0.5c-4.3,1.9-8.5,3.7-12.7,5.9c-0.1,0-0.2,0.1-0.2,0.2c-0.3-0.4-0.6-0.7-1-1
		c4.1-1.8,8.2-3.6,12.3-5.4C45.9,90.3,45.9,90.2,46.1,90.1L46.1,90.1L46.1,90.1z"/>
	<path class="st8" d="M72.3,96c-0.4,0.3-0.7,0.6-0.9,1c0-0.1-0.1-0.2-0.2-0.2c-9.1-4.5-18.4-8.5-27.8-12.5c0.2-0.2,0.3-0.5,0.5-0.7
		c1.2,0.4,2.7,0.9,4,1.5c0.4,0.2,0.9,0.4,1.3,0.6c1.7,0.8,3.1,1.6,3.7,1.9C59.3,90.3,65.8,93.2,72.3,96L72.3,96z"/>
	<path class="st10" d="M90.9,103.8l-0.1,0.1c-1,3.4-1.6,5.8,1.4,7.5c-1.1,2-3,3.4-5.2,3.9l-0.1-0.4c0.4-0.1,0.7-0.4,0.9-0.8l0-0.1
		c0.1-0.5-0.2-0.9-0.6-1.1l1.1,0c0.5,0.3,1.2,0.2,1.7-0.2c0.5-0.5,0.5-1.3,0-1.8l-0.1-0.1c-0.1,0-0.1-0.1-0.2-0.1
		c0-0.1-0.1-0.1-0.2-0.2c-0.6-0.4-1.3-0.2-1.8,0.3l-0.7-0.2c1.8-1.7,2.1-4.5,0.7-6.6c-0.1-0.1-0.2-0.2-0.3-0.4
		c-0.3-0.5-0.7-0.9-1.2-1.1l-8.4-3.2l-0.1,0l0.2-1.1c1.8,0.5,3.6,1.1,5.3,1.8C85.4,101,89.1,101.8,90.9,103.8L90.9,103.8z"/>
	<path class="st10" d="M88.2,112.9l-1.1,0l-0.2,0h0c0-0.1-0.1-0.1-0.2-0.2c-0.7-0.2-1.4,0-1.7,0.7c-0.2,0.6,0.1,1.2,0.6,1.4
		c0.1,0,0.2,0,0.2,0.1c0.3,0.1,0.6,0.1,0.9,0l0.1,0.4c-0.1,0-0.2,0-0.3,0.1c-4.6,0.6-2.7-0.9-4.9-2.1c-1.3-0.8-2.7-1.4-4.1-2
		c-1.6-0.5-3.7-0.5-5.2-1.4c-2.4-1.5-1.6-4.6-1.1-7v0.1c0.9-3.5,1.4-5.5,5.7-4.9c0.2,0,0.5,0.1,0.7,0.2l-0.2,1.1
		c-0.5-0.1-1.1,0.3-1.2,0.8l-2.7,6.9c-0.1,0.5,0.1,1,0.5,1.2c2.7,1.1,5.3,2.5,8,3.5c1.4,0.6,3.1,0.4,4.3-0.7
		c0.2-0.1,0.3-0.2,0.5-0.4l0.7,0.2c0,0-0.1,0.1-0.1,0.2c-0.4,0.6-0.2,1.4,0.4,1.8C88.1,112.7,88.1,112.8,88.2,112.9z"/>
	<path class="st6" d="M69.6,100.9c-0.2,0.5-0.4,1.1-0.5,1.7c-1.1-0.7-2.3-1.3-3.6-1.9v0.1c-0.9-0.5-1.9-0.9-2.9-1.4
		c-1-0.5-0.4,0-0.5-0.9c0-0.4,0-0.8,0.1-1.2C64.7,98.4,67.1,99.7,69.6,100.9L69.6,100.9z"/>
	<path class="st5" d="M95.2,108.8c0.6,0.1,1.2,0.1,1.8,0.1c-1.1,0.5-2.2,0.6-3.3,0.4c-0.2,0-0.4,0-0.5,0c-0.5-0.5-0.7-1.1-0.8-1.8
		C93.2,108.2,94.2,108.7,95.2,108.8z"/>
	<path class="st4" d="M79.2,114.5c0.3,0.2,0.6,0.5,0.9,0.7c-0.2,0.4-0.5,0.7-0.9,1c-0.1,0.1-0.3,0.2-0.4,0.2
		C78.9,115.8,79.1,115.1,79.2,114.5L79.2,114.5z"/>
	<path class="st11" d="M89.1,111.5c0.3,0.3-0.2,0.5-0.4,0.3c-0.3-0.2-0.1-0.6,0.2-0.4L89.1,111.5L89.1,111.5z"/>
	<path class="st12" d="M84.6,109.5c-1.1,0.4-2.4-0.2-3.6-0.7l-5-2.1l0.2-0.5c1.3,0.8,2.7,1.6,4.1,2.2
		C81.7,108.8,83.2,109.2,84.6,109.5z"/>
	<path class="st13" d="M86.2,108l-0.1,0.2c-1.5-0.5-3.1-0.7-4.6-1.2c-1.6-0.7-3.1-1.4-4.6-2.4l0.3-0.7c1.2,0.6,2.4,1.2,3.6,1.7
		c1.2,0.5,3.7,0.8,4.9,1.7C86.1,107.6,86.1,107.8,86.2,108L86.2,108z"/>
	<path class="st14" d="M85.4,104.8c0.4,0.3,0.6,0.6,0.9,1c-0.6-0.3-1.3-0.5-2-0.7c-2.3-0.7-4.4-1.7-6.6-2.7l0.3-0.7l6.7,2.6
		C84.9,104.4,85.2,104.6,85.4,104.8L85.4,104.8z"/>
	<path class="st2" d="M22.6,118.9l-1,0.2l-0.9-1.1c-0.1-0.2-0.4-0.4-0.5-0.6c0.5,0,1.1,0,1.6-0.2C22.1,117.8,22.3,118.4,22.6,118.9z
		"/>
	<path class="st11" d="M19.6,113.4L19.6,113.4L19.6,113.4z"/>
	<path d="M87,129.9c-0.2,0.5-0.3,1.1-0.4,1.6l1.9-1.2c-0.2-0.4-0.4-0.8-0.5-1.2L87,129.9L87,129.9L87,129.9z M61.9,83.2
		c-2.7,1-5.3,2.1-7.8,3.4l1.2,0.5l7.1-3.2C62.2,83.7,62,83.5,61.9,83.2z M100.2,107c0.1,1.5-0.7,2.9-2,3.7c-1.1,0.7-2.4,0.9-3.6,0.8
		c7.7,6.1,7.5,22.2-1.5,27.4c-3.4,2-7,0-8.3-3.6c-0.8-2.2-0.3-4.6,0.3-6.9c0.4-1.6,1.7-4,1.1-5.5c-0.6-1.6-2.7-1.6-4.4-2
		c-0.3,0.2-0.7,0.4-1.1,0.5c-1.8,0.2-3.6-0.2-5.1-1.2c-2.5-1.9-4.2-5.3-2.5-8c-0.5-0.1-1-0.3-1.4-0.5c-1.4-0.6-2.5-1.2-3-2.8
		c-0.3-1.4-0.3-2.9,0-4.3c0-0.1-0.1-0.1-0.1-0.1c-0.5-0.6-2.5-1.4-3.2-1.8c-1.1-0.6-2.3-1.2-3.5-1.7c-0.8-0.4-1.6-0.6-1.8-1.6
		c-0.1-1,0-2,0.2-3c0-0.2,0-0.3,0.1-0.4c-2.7-1.2-5.3-2.4-8-3.6c-1.7,0.7-3.4,1.5-5.1,2.3l-0.4-1.2c1.2-0.6,2.5-1.1,3.7-1.7
		l-1.6-0.7c0,0.1-0.1,0.1-0.2,0.2c-4.4,2-9,3.9-13.3,6.1c-0.1,0-0.2,0.1-0.3,0.1l-0.6-1.1c0-0.1,0.1-0.2,0.2-0.2
		c4.1-2.1,8.4-4,12.7-5.9L46.1,90l0.5-1.2c2.3,0.9,4.5,1.5,5.3,1.8c6.2,2.7,12.2,5.7,18.3,8.7l0.2-0.4c0.2-0.4,0.4-0.7,0.5-1.1
		c-0.1,0-0.2,0-0.3-0.1l0.9-0.9c0.3-0.4,0.6-0.7,0.9-1c-6.5-2.9-13-5.7-19.5-8.5c-0.6-0.2-2-1.1-3.7-1.9c-0.4-0.2-0.9-0.4-1.3-0.6
		l0.4-0.9l1.4,0.6c0.1-0.2,0.1-0.3,0.1-0.5c0-0.5-0.3-0.5-0.9-0.8c-0.4-0.2-0.7-0.3-1.1-0.4l0.3-0.9c0.7,0.2,2.2,0.4,2.6,1.1
		c0.2,0.6,0.2,1.3-0.2,1.9l1.8,0.7c0.9-0.5,1.8-0.9,2.7-1.3c-0.3-0.5-0.3-1.2,0-1.8c0.5-0.7,1.9-0.9,2.6-1.1c0.7-0.2,2-1,2.8-0.8
		c0.4,0.1,0.6,0.5,0.9,0.9c1.4-0.6,2.9-1.2,4.3-0.3c5,3.2-1.2,6.4-4.9,7.8c4.4,1.9,8.9,3.9,13.3,5.9c3.4-0.7,8.4,2.1,11.4,3.3
		c2.8,1.1,5.9,2,7.7,4.4l0,0c0.3,0.4,0.2,0.9-0.2,1.2v0.2l-0.1,0.5c0.2,0.1,0.3,0.2,0.4,0.3c0.6,0.8,1.5,1.3,2.5,1.4
		c0.8,0.1,2.1,0.3,2.7-0.5C99,105.5,100.1,106.2,100.2,107L100.2,107z M97.5,128.7c1.4-5,0.3-12-4.1-15.4l-0.2,0.3
		c6,6.8,4.5,18-2.2,23.7C94.3,136.8,96.8,130.9,97.5,128.7z M97,109c-0.6,0-1.2,0-1.8-0.1v0c-1.1-0.2-2-0.6-2.8-1.3
		c0,0.7,0.3,1.3,0.8,1.8c0.2,0,0.4,0,0.5,0C94.9,109.5,96,109.4,97,109z M95.8,125c0-0.9,0-1.7,0-2.5l-1.3,1.1
		C94.9,124.1,95.4,124.5,95.8,125z M95.6,121.4v-0.2v0c-0.2,0.1-0.4,0-0.5,0l-1.8-1.3c-0.5,0.4-1,0.9-1.5,1.3
		c0.6,0.5,1.2,1.1,1.8,1.6l1.4-1.3C95.2,121.4,95.4,121.4,95.6,121.4z M94.2,119.3l1.1,0.8c-0.1-0.5-0.3-0.9-0.4-1.4L94.2,119.3z
		 M94.5,130.5c0.5-1.1,0.8-2.3,1-3.5c-0.7,0.5-1.5,1-2.2,1.5C93.8,129.1,94.2,129.8,94.5,130.5z M94.2,117.9
		c0.1-0.1,0.2-0.1,0.3-0.1c-0.4-0.9-0.9-1.8-1.4-2.5c-0.7,0.6-1.2,1.3-1.8,2l2,1.4L94.2,117.9L94.2,117.9z M95.1,125.9
		c-0.5-0.5-1-1.1-1.5-1.6l-2.2,1.9c0.2,0.2,0.4,0.4,0.6,0.7c0.2,0.2,0.4,0.5,0.6,0.7C93.4,127,94.3,126.4,95.1,125.9z M93.6,131.6
		c0.1,0,0.1,0,0.2-0.1c-0.4-0.9-0.9-1.7-1.5-2.5l-2.4,1.6c0.4,0.8,0.8,1.5,1.1,2.2C91.8,132.3,92.7,131.9,93.6,131.6L93.6,131.6
		L93.6,131.6z M90.8,125.3l2.1-1.8c-0.6-0.5-1.2-1.1-1.8-1.6c-0.5,0.5-1,1-1.4,1.5C90.1,124.1,90.4,124.7,90.8,125.3z M92.4,119.3
		l-1.8-1.4v0c-0.4,0.4-0.7,0.9-1,1.3l1.4,1.2C91.5,120,91.9,119.7,92.4,119.3z M93.4,132.9c-0.7,0.3-1.3,0.6-2,1
		c0.2,0.4,0.3,0.8,0.4,1.2C92.4,134.3,92.9,133.6,93.4,132.9z M89.4,129.7l2.2-1.5c-0.3-0.4-0.7-0.9-1.1-1.3l-1.7,1.4
		C89,128.8,89.2,129.2,89.4,129.7z M90.4,116.5c0.4-0.4,0.7-0.8,1.1-1.2c-0.4,0.4-0.9,0.7-1.3,1L90.4,116.5z M90.8,103.9l0.1-0.1
		c-1.8-2-5.4-2.8-7.8-3.7c-1.7-0.8-3.5-1.4-5.3-1.8c-0.2-0.1-0.5-0.1-0.7-0.2c-4.3-0.6-4.8,1.4-5.7,4.9v-0.1c-0.6,2.5-1.4,5.6,1.1,7
		c1.4,0.9,3.6,0.9,5.2,1.4c1.4,0.5,2.8,1.2,4.1,2c2.2,1.2,0.3,2.7,4.9,2.1c0.1,0,0.2,0,0.3-0.1c2.2-0.5,4.1-1.9,5.2-3.9
		C89.2,109.7,89.9,107.4,90.8,103.9z M90.9,135.9c-0.1-0.5-0.2-1.1-0.4-1.6c-0.9,0.6-1.9,1.1-2.8,1.7v0c0.5,0.5,1.1,0.9,1.8,1.1
		C89.9,136.8,90.4,136.4,90.9,135.9z M90.2,121.1l-1.2-1.1l0,0c-0.3,0.4-0.5,0.7-0.7,1.1l-0.1,0.1c0.2,0.2,0.3,0.5,0.4,0.7
		c0.1,0.1,0.2,0.1,0.4,0.2c0.1,0,0.2,0.1,0.2,0.2C89.4,122,89.8,121.5,90.2,121.1z M88.5,127.3l1.4-1.2c-0.4-0.6-0.7-1.1-0.9-1.7
		l-0.4,0.5c0,0.1-0.1,0.1-0.2,0.2c-0.1,0.5-0.2,0.8-0.4,1.5l-0.1,0.2C87.9,127,88.1,127,88.5,127.3z M89.7,117.3l-0.5-0.4l-0.1-0.1
		v0c-0.5,0.2-1.1,0.4-1.7,0.6l1.3,1.1C89.1,118.1,89.4,117.7,89.7,117.3z M90.1,133.3c-0.3-0.7-0.7-1.4-1.1-2.1
		c-0.8,0.5-1.7,1.1-2.5,1.6l0,0c0,0.8,0.2,1.6,0.5,2.3C88,134.5,89,133.9,90.1,133.3z M88.1,119.5l-1.5-1.3
		c-0.2,0.2-0.3,0.4-0.5,0.5l-0.7,1.1h0v0.1l0-0.1c0.7,0.2,1.3,0.5,1.9,0.8C87.6,120.2,87.8,119.9,88.1,119.5z M85.6,117.7
		c-0.5,0-1.1,0-1.6-0.2c-0.2,0.6-0.5,1.1-0.8,1.7l1,0.2l0.9-1.1C85.3,118.2,85.4,117.9,85.6,117.7z M81.9,116.9l-0.3-0.2
		c-1.2,1.7-3.6,3.1-5.3,1.6c-0.2-0.2-0.3-0.3-0.5-0.5c-0.2-0.4-0.2-0.9,0.2-1.3c0.8-0.8,1.1-1.9,0.9-3c-0.6-0.2-1.1-0.3-1.7-0.4
		c-1.7,1.7-0.5,3.9,1,5.3l0.1,0.1c0.9,0.8,2.1,1.2,3.3,1.1v-0.1C80.9,119.3,81.5,118,81.9,116.9L81.9,116.9z M80,115.2
		c-0.3-0.2-0.6-0.5-0.9-0.7l0,0c0,0.6-0.2,1.3-0.4,1.9c0.1-0.1,0.3-0.1,0.4-0.2C79.5,115.9,79.8,115.6,80,115.2z M69.1,102.6
		c0.2-0.5,0.4-1.1,0.5-1.7c-2.5-1.2-4.9-2.5-7.4-3.6c-0.1,0.4-0.1,0.8-0.1,1.2c0.1,0.9-0.5,0.4,0.5,0.9s2,0.9,2.9,1.4v-0.1
		C66.7,101.2,67.9,101.9,69.1,102.6z M64.6,86c0.7-0.5,1.1-1.3,1-2.1L64,84.6C64.3,85,64.5,85.5,64.6,86z M64.9,82.9
		c-0.3-0.2-0.6-0.3-0.8-0.3c-0.4,0-0.7,0.2-1.2,0.3l0.5,0.7L64.9,82.9z M63.7,86.6c-0.1-0.1-0.1-0.2-0.1-0.3
		c-0.1-0.5-0.3-0.9-0.5-1.3c-2.1,0.9-4.2,1.8-6.2,2.7l2,0.8C60.5,88.2,62.2,87.5,63.7,86.6z M60.2,82.4c-0.1-0.2-0.2-0.4-0.2-0.4
		c-0.5,0.1-1,0.3-1.5,0.5c-0.6,0.2-1.2,0.4-1.9,0.6c-0.5,0.3-0.6,0.5-0.5,0.9C57.5,83.6,58.9,83,60.2,82.4z"/>
	<path d="M94.5,130.5L94.5,130.5z"/>
	<path d="M89.9,110.8c0.5,0.5,0.5,1.3,0,1.8c-0.5,0.4-1.1,0.5-1.7,0.2c-0.1,0-0.1-0.1-0.2-0.1c-0.6-0.4-0.8-1.2-0.4-1.8
		c0,0,0.1-0.1,0.1-0.2c0.4-0.5,1.2-0.6,1.8-0.3c0.1,0,0.1,0.1,0.2,0.2c0.1,0,0.2,0.1,0.2,0.1L89.9,110.8z M88.7,111.8
		c0.3,0.2,0.7,0,0.4-0.3l0-0.1H89C88.6,111.3,88.4,111.6,88.7,111.8z"/>
	<path d="M87.6,103.9c1.5,2.1,1.2,4.9-0.7,6.6c-0.2,0.2-0.3,0.3-0.5,0.4c-1.2,1.1-2.8,1.4-4.3,0.7c-2.7-1.1-5.3-2.4-8-3.5
		c-0.4-0.2-0.6-0.7-0.5-1.2l2.7-6.9c0.2-0.5,0.7-0.9,1.2-0.8l0.1,0l8.4,3.2c0.5,0.2,1,0.5,1.2,1.1C87.4,103.7,87.5,103.8,87.6,103.9
		z M86.1,108.2l0.1-0.2c-0.1-0.2-0.1-0.4-0.5-0.7c-1.2-0.9-3.7-1.2-4.9-1.7c-1.2-0.5-2.4-1.1-3.6-1.7l-0.3,0.7
		c1.4,0.9,3,1.7,4.6,2.4C82.9,107.6,84.5,107.8,86.1,108.2L86.1,108.2z M86.3,105.8c-0.2-0.4-0.5-0.7-0.9-1v0
		c-0.2-0.2-0.5-0.4-0.7-0.5l-6.7-2.6l-0.3,0.7c2.1,1.1,4.3,2,6.6,2.7C85,105.3,85.6,105.6,86.3,105.8z M81,108.8
		c1.2,0.5,2.5,1.1,3.6,0.7c-1.4-0.3-2.8-0.6-4.3-1.1c-1.4-0.7-2.8-1.4-4.1-2.2l-0.2,0.5L81,108.8L81,108.8z"/>
	<path d="M87.2,112.9c0.4,0.2,0.7,0.6,0.6,1.1l0,0.1c-0.2,0.4-0.5,0.7-0.9,0.8c-0.3,0.1-0.6,0.1-0.9,0c-0.1,0-0.2,0-0.2-0.1
		c-0.6-0.2-0.9-0.9-0.6-1.4c0.3-0.6,1.1-0.9,1.7-0.7c0.1,0,0.1,0.1,0.2,0.2h0C87.1,112.8,87.1,112.9,87.2,112.9z M86.3,113.8
		l-0.1-0.1l-0.1,0C86.2,113.8,86.3,113.8,86.3,113.8z"/>
	<polygon points="85.4,119.8 85.3,119.9 85.3,119.8 	"/>
	<path d="M15.3,126.6c-0.4,0.4-0.8,0.9-1.2,1.2l2.2,1.5c0.2-0.4,0.4-0.9,0.6-1.3L15.3,126.6z M71.4,97.1l-0.9,0.9
		c-9.1-4.5-18.4-8.5-27.8-12.6c-0.2,0.4-0.4,0.9-0.5,1.3c0,0.1,0,0.2-0.1,0.2c1.2,0.7,2.8,1.4,4.4,2L46,90.1l0,0
		c-0.1,0.1-0.2,0.2-0.2,0.2c-4.1,1.8-8.2,3.6-12.3,5.4c0.4,0.3,0.7,0.6,1,1l0.6,1.1c0.2,0.4,0.4,0.7,0.5,1.1l0.2,0.4v-0.1
		c3.6-2,7.3-3.8,11-5.5l0.4,1.2c-0.5,0.3-1.1,0.5-1.7,0.8c0.2,0.2,0.2,0.4,0.3,0.6c0.2,1,0.3,2.1,0.1,3.1c-0.3,0.9-1,1.1-1.8,1.4
		c-1.2,0.6-2.5,1.2-3.7,1.8c-0.7,0.4-2.4,0.9-2.9,1.6c0,0.1-0.1,0.1-0.1,0.1c0.3,1.4,0.3,2.9,0,4.3c-0.4,1.5-1.6,2.1-3,2.8
		c-0.4,0.2-0.9,0.4-1.4,0.5c1.6,2.7,0,6.1-2.6,8c-1.6,1.1-3.6,1.5-5.4,1.1c-0.3-0.1-0.6-0.3-0.9-0.5c-2.4,0.5-4.3,0.2-4.7,2.8
		c-0.2,1.3,1,3.4,1.3,4.6c0.5,2.3,1,4.8,0.2,7c-1.3,3.6-4.9,5.4-8.2,3.4c-4.7-2.7-7-8.5-7-14.2c0-5.2,1.9-10.3,5.6-13.2
		c-1.2,0.1-2.5-0.2-3.6-0.8c-1.3-0.7-2-2.1-2-3.6c0-0.9,1.4-1.4,1.8-0.8c0.5,0.6,2,0.6,2.7,0.5c1-0.1,1.9-0.7,2.5-1.4
		c0.1-0.1,0.2-0.2,0.4-0.3l-0.1-0.5V104l0,0c-0.4-0.3-0.4-0.9-0.1-1.2c1.8-2.5,4.9-3.3,7.7-4.4c3-1.1,8-4,11.4-3.3
		c4.2-1.9,8.4-3.7,12.6-5.5l-2-0.8c-3.3-1.4-5.8-2.3-3.2-5.5c1.7-2.1,3.2-1.6,5.2-0.7c0.2-0.5,0.5-1,1-1.1c0.7-0.2,2,0.6,2.7,0.8
		l-0.3,0.9c-0.2,0-0.4-0.1-0.5-0.2l-1-0.4c-0.2,0-0.4-0.1-0.5-0.2v0l0,0l-0.2,0.5c0.5,0.3,1.1,0.5,1.8,0.8l1,0.4l-0.4,0.9
		c-1.3-0.6-2.7-1.2-4-1.5c-0.2,0.2-0.3,0.5-0.5,0.7c9.3,4,18.7,8,27.8,12.5C71.2,96.9,71.3,97,71.4,97.1L71.4,97.1z M43.5,98.9
		c0.4-0.4,0.2-0.1,0.2-0.7c0-0.5,0-1-0.1-1.4c-2.5,1.2-4.9,2.5-7.4,3.8c0.2,0.6,0.4,1.1,0.5,1.7c1.2-0.7,2.3-1.3,3.6-1.8
		C41.1,100,42.9,99.6,43.5,98.9z M42.7,83.3c-0.5-0.1-1.1-0.1-1.6,0l1.2,0.5L42.7,83.3z M41.7,84.9l-1.6-0.7c-0.2,0.7,0.2,1.4,1,2
		C41.3,85.8,41.5,85.3,41.7,84.9z M33.4,109.5c2.4-1.5,1.6-4.6,0.9-7c-1-4.2-2.1-5.3-6.6-4.6c-1.8,0.5-3.5,1.1-5.2,1.8
		c-2.3,0.9-6,1.7-7.8,3.7l0.1,0.1c1,3.4,1.6,5.8-1.4,7.5c1.2,2,3.2,3.5,5.5,3.9c3.2,0.4,3.6-1.2,5.5-2.5
		C27.2,110.8,30.8,111.2,33.4,109.5L33.4,109.5z M29.6,117.9c1.6-1.4,2.7-3.6,0.9-5.2c-0.6,0.1-1.1,0.3-1.7,0.4
		c-0.2,1.1,0.1,2.2,0.9,3c0.4,0.4,0.4,0.9,0.2,1.3c-0.1,0.2-0.2,0.3-0.4,0.4c-1.6,1.6-4.2,0.2-5.4-1.5l-0.3,0.2
		c0.5,1.2,1.1,2.6,2.6,2.7c1.1,0,2.2-0.4,3-1.1l0,0C29.5,118,29.5,117.9,29.6,117.9z M26.7,115.9c0.1,0.1,0.3,0.2,0.4,0.2
		c-0.3-0.6-0.4-1.3-0.5-1.9c-0.3,0.2-0.6,0.5-0.9,0.7C26,115.3,26.3,115.6,26.7,115.9z M21.6,119.2l1-0.2c-0.3-0.5-0.5-1.1-0.7-1.6
		c-0.5,0.1-1.1,0.2-1.6,0.2c0.2,0.2,0.4,0.4,0.5,0.6L21.6,119.2z M20.4,119.5l-0.8-1.1c-0.1-0.2-0.3-0.4-0.5-0.5l-1.5,1.3
		c0.3,0.4,0.5,0.7,0.8,1.1l0,0C19.1,119.9,19.8,119.7,20.4,119.5z M18.8,134.8c0.4-0.7,0.5-1.5,0.5-2.3c-0.8-0.5-1.7-1.1-2.5-1.6
		c-0.4,0.7-0.7,1.4-1.1,2.1C16.8,133.6,17.8,134.2,18.8,134.8z M17.3,130l1.9,1.2c-0.1-0.5-0.2-1.1-0.4-1.6h-0.1l-0.9-0.7
		C17.6,129.2,17.5,129.6,17.3,130z M17,118.3l1.3-1.1c-0.6-0.2-1.1-0.4-1.7-0.6l-0.1,0.1l-0.5,0.4v0l0,0l0,0
		C16.4,117.4,16.7,117.8,17,118.3z M17.8,126.2l-0.1-0.3c-0.2-0.7-0.2-0.7-0.3-1.3c-0.1,0-0.2-0.1-0.2-0.2l-0.4-0.5
		c-0.3,0.6-0.6,1.2-0.9,1.7l1.4,1.2C17.6,126.7,17.8,126.6,17.8,126.2z M17.7,120.9L17.7,120.9c-0.4-0.5-0.6-0.8-0.9-1.2l-1.2,1.1
		c0.4,0.4,0.8,0.9,1.2,1.3c0-0.1,0.1,0,0.2-0.2c0.2-0.1,0.3-0.1,0.4-0.2C17.4,121.5,17.6,121.2,17.7,120.9z M18.1,135.7
		c-0.9-0.6-1.8-1.1-2.8-1.7c-0.2,0.5-0.4,1.1-0.4,1.6c0.5,0.5,1,0.9,1.5,1.2l0,0C17.1,136.6,17.6,136.2,18.1,135.7z M14.8,120.2
		l1.4-1.2c-0.4-0.4-0.7-0.9-1.1-1.3l-1.8,1.4C13.9,119.3,14.3,119.8,14.8,120.2z M16.2,123.1L16.2,123.1c-0.5-0.5-1-1-1.4-1.5
		c-0.6,0.5-1.2,1.1-1.8,1.6L15,125C15.4,124.3,15.8,123.7,16.2,123.1z M15.9,130.4l-2.5-1.5c-0.5,0.7-1.1,1.6-1.5,2.4h0.2v0
		c0.9,0.4,1.8,0.8,2.6,1.4C15.1,131.8,15.5,131.1,15.9,130.4L15.9,130.4z M15.3,116.2l0.3-0.2c-0.5-0.3-0.9-0.6-1.3-1
		C14.7,115.4,15,115.8,15.3,116.2z M12.5,118.2l2-1.4c-0.6-0.7-1.2-1.3-1.8-2c-0.6,0.8-1.1,1.6-1.4,2.5c0.1,0,0.2,0,0.3,0.1
		L12.5,118.2z M14.4,125.8l-2.2-1.9c-0.5,0.5-1,1.1-1.5,1.6l0,0c0.9,0.5,1.7,1.1,2.5,1.6c0.2-0.3,0.4-0.5,0.7-0.7
		C14,126.3,14.2,126,14.4,125.8z M14.1,134.7c0.1-0.4,0.2-0.9,0.4-1.2c-0.6-0.4-1.3-0.7-2-1C12.9,133.2,13.5,134,14.1,134.7z
		 M13.9,120.8c-0.5-0.4-1-0.9-1.5-1.3l-1.8,1.3c-0.1,0.1-0.3,0.1-0.4,0v0.2c0.2,0,0.4,0,0.5,0.1l1.5,1.2l0,0
		C12.7,122,13.3,121.4,13.9,120.8z M12.6,109c0.5-0.5,0.7-1.1,0.8-1.8c-0.8,0.7-1.8,1.2-2.9,1.3c-0.5,0.1-1.1,0.1-1.6,0.1l-0.1,0
		l0,0h0.2c1,0.5,2.1,0.6,3.2,0.4C12.3,109,12.5,109,12.6,109z M12.5,113.3l-0.2-0.3c-4.8,3.8-5.5,11.6-3.4,16.9l0,0
		c0.8,2,3,6.8,5.9,7.2C8.1,131.4,6.6,120.2,12.5,113.3z M10.5,119.7l1.1-0.8l-0.7-0.6v0C10.7,118.8,10.5,119.3,10.5,119.7z
		 M11.3,130.2c0.4-0.7,0.8-1.4,1.2-2.1c-0.7-0.5-1.5-1-2.3-1.5C10.5,127.9,10.8,129.1,11.3,130.2L11.3,130.2z M11.3,123.2l-1.3-1.1
		c-0.1,0.9-0.1,1.7,0,2.5l0,0C10.5,124.2,10.9,123.7,11.3,123.2L11.3,123.2z"/>
	<path class="st10" d="M34.3,102.6c0.6,2.4,1.4,5.5-0.9,7l0,0c-2.6,1.6-6.1,1.2-8.7,3c-1.9,1.3-2.4,2.9-5.5,2.5l0.1-0.5
		c0.2,0,0.4,0,0.6,0l0.1,0c0.6-0.1,1-0.7,0.9-1.3c0-0.1,0-0.1,0-0.2c-0.3-0.6-1.1-0.9-1.7-0.7c-0.1,0-0.1,0.1-0.2,0.2
		c-0.1,0-0.2,0.1-0.4,0.1l-0.9-0.1c0.1,0,0.1-0.1,0.2-0.1c0.6-0.4,0.8-1.2,0.4-1.8l-0.1-0.1l1-0.1c0.1,0.1,0.2,0.2,0.3,0.2
		c1.1,1,2.7,1.3,4.2,0.8c2.8-0.9,5.5-2.3,8.2-3.5c0.4-0.2,0.6-0.7,0.5-1.2l-2.7-6.9c-0.2-0.5-0.7-0.9-1.3-0.7
		c-1.7,0.6-3.4,1.1-5.1,1.7l-0.4-0.9c1.7-0.7,3.4-1.4,5.2-1.8C32.2,97.2,33.3,98.3,34.3,102.6z"/>
	<path d="M32.1,106.6c0.1,0.5-0.1,0.9-0.5,1.2c-2.7,1.2-5.4,2.5-8.2,3.5c-1.4,0.6-3,0.3-4.2-0.8c-0.1-0.1-0.2-0.2-0.3-0.2
		c-2.1-1.9-2.9-5.3-0.7-7.1c0.3-0.3,0.2-0.4,1-0.9c1.2-0.7,2.4-1.2,3.7-1.6c1.7-0.6,3.4-1.1,5.1-1.7c0.6-0.1,1.1,0.2,1.3,0.7
		L32.1,106.6z M29.7,106.3l-0.2-0.5c-1.3,0.8-2.7,1.6-4.1,2.2c-1.4,0.5-2.8,0.9-4.2,1.1c1.2,0.4,2.4-0.2,3.6-0.7L29.7,106.3z
		 M28.9,104.3l-0.3-0.7c-1.2,0.6-2.3,1.2-3.6,1.7c-1.3,0.5-3.7,0.8-4.9,1.7c-0.2,0.2-0.7,0.3-0.5,0.6c0,0.1,0.1,0.1,0.1,0.2
		c1.5-0.5,3.1-0.7,4.6-1.2C26,106.1,27.5,105.3,28.9,104.3L28.9,104.3z M28,102.1l-0.3-0.7l-6.7,2.6c-0.1,0.1-0.4,0.3-0.7,0.5
		c-0.4,0.3-0.7,0.7-0.9,1.1c0.6-0.3,1.3-0.5,2-0.7C23.7,104.1,25.9,103.1,28,102.1z"/>
	<path class="st12" d="M29.5,105.8l0.2,0.5l-5,2.1c-1.1,0.5-2.4,1.1-3.6,0.7c1.4-0.3,2.8-0.6,4.2-1.1
		C26.9,107.4,28.2,106.7,29.5,105.8z"/>
	<path class="st13" d="M28.7,103.6l0.3,0.7c-1.4,0.9-3,1.7-4.6,2.4c-1.5,0.5-3.1,0.7-4.6,1.2c0-0.1-0.1-0.1-0.1-0.2
		c-0.1-0.4,0.3-0.5,0.5-0.6c1.2-0.9,3.6-1.2,4.9-1.7C26.3,104.8,27.5,104.2,28.7,103.6z"/>
	<path class="st14" d="M27.8,101.4l0.3,0.7c-2.1,1.1-4.3,2-6.5,2.8c-0.7,0.2-1.3,0.4-2,0.7c0.2-0.4,0.5-0.8,0.9-1.1
		c0.3-0.2,0.6-0.4,0.7-0.5L27.8,101.4z"/>
	<path class="st10" d="M22.6,99.8l0.4,0.9c-1.3,0.4-2.5,0.9-3.7,1.6c-0.8,0.4-0.7,0.6-1,0.9c-2.1,1.8-1.4,5.2,0.7,7.1l-1,0.1
		c-0.4-0.5-1.2-0.6-1.7-0.2c-0.1,0-0.1,0.1-0.2,0.2c-0.1,0-0.2,0.1-0.2,0.1c-0.5,0.5-0.6,1.2-0.1,1.8l0.1,0.1
		c0.5,0.4,1.1,0.5,1.7,0.2l0.9,0.1c-0.4,0.2-0.5,0.6-0.5,1c0.2,0.5,0.6,0.9,1.1,0.9l-0.1,0.5c-2.3-0.5-4.3-1.9-5.5-3.9
		c2.9-1.7,2.3-4.1,1.4-7.5l-0.1-0.1C16.7,101.5,20.3,100.7,22.6,99.8L22.6,99.8z"/>
	<path d="M19.5,113.4L19.5,113.4L19.5,113.4z M19.4,113.4L19.4,113.4z M20.8,113.2c0.1,0.6-0.3,1.2-0.9,1.3l-0.1,0
		c-0.2,0.1-0.4,0.1-0.6,0c-0.5-0.1-0.9-0.4-1.1-0.9c-0.1-0.4,0.2-0.8,0.5-1c0.1,0,0.2-0.1,0.4-0.1c0-0.1,0.1-0.1,0.2-0.2
		c0.7-0.3,1.4,0,1.7,0.7C20.7,113.1,20.8,113.1,20.8,113.2L20.8,113.2z"/>
	<path d="M19.4,113.4L19.4,113.4z"/>
	<path d="M18.2,110.6c0.4,0.6,0.2,1.4-0.4,1.8c-0.1,0-0.1,0.1-0.2,0.1c-0.5,0.3-1.2,0.2-1.7-0.2l-0.1-0.1c-0.5-0.5-0.4-1.3,0.1-1.8
		c0.1,0,0.1-0.1,0.2-0.1c0-0.1,0.1-0.1,0.2-0.2c0.5-0.4,1.3-0.2,1.7,0.2C18.1,110.5,18.2,110.5,18.2,110.6z M17.1,111.5
		c0.2-0.2,0-0.6-0.2-0.4h-0.1l0,0.1C16.4,111.5,16.9,111.7,17.1,111.5z"/>
	<path class="st10" d="M16.9,111.1c0.3-0.2,0.5,0.2,0.2,0.4c-0.3,0.2-0.7,0-0.4-0.3l0-0.1H16.9z"/>
	<path d="M16.1,117L16.1,117L16.1,117z"/>
	<polygon points="8.9,108.7 8.7,108.7 8.7,108.6 	"/>
	<circle class="st15" cx="51.8" cy="37.7" r="20.5"/>
	<circle class="st16" cx="51.8" cy="37.7" r="20.5"/>
	<line class="st16" x1="51.8" y1="37.7" x2="51.8" y2="26"/>
	<line class="st16" x1="51.8" y1="37.7" x2="47.4" y2="21.3"/>
</g>
</svg>
