<?xml version="1.0" encoding="utf-8"?>
<!-- Generator: Adobe Illustrator 21.0.0, SVG Export Plug-In . SVG Version: 6.00 Build 0)  -->
<svg version="1.1" id="Calque_1" xmlns="http://www.w3.org/2000/svg" xmlns:xlink="http://www.w3.org/1999/xlink" x="0px" y="0px"
	 viewBox="0 0 105.9 183.4" style="enable-background:new 0 0 105.9 183.4;" xml:space="preserve">
<style type="text/css">
	.st0{fill:#DD0303;}
	.st1{fill:none;stroke:#000000;stroke-width:0.4886;stroke-miterlimit:10;}
	.st2{fill:#DDD205;}
	.st3{fill:#DB5D07;}
</style>
<g>
	<path class="st0" d="M105.8,107.8v71.8c0,2.1-1.7,3.8-3.8,3.8H3.8c-2.1,0-3.8-1.7-3.8-3.8V3.8C0,1.7,1.7,0,3.8,0H102
		c2.1,0,3.8,1.7,3.8,3.8v71.1c0,1-0.5,1.8-1.4,2.3l-1.1,0.6c-0.9,0.4-1.4,1.3-1.4,2.3v23.8c0,1.1,0.7,2.1,1.8,2.4l1.4,0.4
		C105.5,106.8,105.8,107.3,105.8,107.8L105.8,107.8z"/>
	<path class="st1" d="M105.8,107.8v71.8c0,2.1-1.7,3.8-3.8,3.8H3.8c-2.1,0-3.8-1.7-3.8-3.8V3.8C0,1.7,1.7,0,3.8,0H102
		c2.1,0,3.8,1.7,3.8,3.8v71.1c0,1-0.5,1.8-1.4,2.3l-1.1,0.6c-0.9,0.4-1.4,1.3-1.4,2.3v23.8c0,1.1,0.7,2.1,1.8,2.4l1.4,0.4
		C105.5,106.8,105.8,107.3,105.8,107.8L105.8,107.8z"/>
	<path d="M76.2,161.9h-2.7v21.6h5.3v-15.9c3.6-0.6,6.5-2.5,8.6-5.6c4.2-6.3,4.7-17.2,1.3-29.4c0.7-1.4,1.1-3,1.1-4.8v-14.3
		c0-3.1-1.1-5.8-3.2-7.7c-1.8-1.6-4.1-2.5-6.5-2.5c-1.6,0-3.1,0.4-4.5,1.1c-0.4-2.5-1.4-4.6-3.3-6.1c-1.8-1.6-4.3-2.4-6.8-2.4
		c-2.3,0-4.6,0.7-6.4,2.1c-0.5-0.8-1.1-1.6-1.9-2.2c-1.8-1.6-4.3-2.4-6.8-2.4c-3,0-6.1,1.3-8.1,3.7l-0.2-0.2
		c-1.8-1.6-4.3-2.4-6.8-2.4c-5.1,0-10.2,3.5-10.2,10.1v7.2c-5.6,1.7-10.7,9.3-12.2,18.8c-1,6-2.2,26,21.1,36.3v16.7h5.3v-20.7
		l-1.8-0.7C16.8,153.9,17,138,18.1,131.6c1.3-8.2,6-14.3,9.3-14.3H48c3.1,0,3.9,3.8,3.9,6.1s-0.8,6.1-3.9,6.1H32.8
		c-0.2,0-0.4,0-0.6,0.1c-1.3,0.2-2.2,1.4-2.2,2.9c0,1.6,1.2,2.9,2.7,2.9h18.2c6.9,0,12.9,7,12.9,15c0,1.6,1.2,2.9,2.7,2.9
		c1.4,0,2.7-1.3,2.7-2.9c0-4.7-1.4-9-3.8-12.5h0.2c2.8,0,5.6-1.1,7.5-3l0.6,0.6c1.8,1.6,4.1,2.5,6.5,2.5c1.4,0,2.9-0.3,4.3-0.9
		c2.1,9.1,1.7,17.4-1.1,21.6C81.6,160.7,79.3,161.9,76.2,161.9z M40.2,107.3v4.1h-9.8v-6.8c0-3.4,3.1-4.3,4.9-4.3
		c1.4,0,2.7,0.4,3.6,1.2c0.9,0.7,1.3,1.8,1.3,3.1L40.2,107.3L40.2,107.3z M55.3,105.9v9.7c-1.6-2.5-3.9-4.3-7.2-4.3h-2.6v-4.1v-2.7
		v-1.1c0-3.4,3.1-4.3,4.9-4.3c1.8,0,4.9,0.9,4.9,4.3V105.9z M70.4,113.4v14.3c0,3.4-3.1,4.3-4.9,4.3c-1.8,0-4.9-0.9-4.9-4.3v-2.5
		v-19.2c0-3.4,3.1-4.3,4.9-4.3c1.8,0,4.9,0.9,4.9,4.3V113.4z M84.5,127.6c0,4.1-3.9,4.3-4.4,4.3c-0.5,0-4.4-0.1-4.4-4.3v-14.3
		c0-4.1,3.9-4.3,4.4-4.3c1.2,0,2.4,0.4,3.2,1.1c0.8,0.7,1.3,1.8,1.3,3.1V127.6z"/>
	<path d="M25.1,76.7v7.2c0,6.6,5.1,10.1,10.2,10.1c2.5,0,5-0.9,6.8-2.4c0.1-0.1,0.2-0.1,0.2-0.2c2,2.5,5,3.7,8.1,3.7
		c2.5,0,5-0.9,6.8-2.4c0.7-0.6,1.4-1.4,1.9-2.2c1.8,1.4,4.1,2.1,6.4,2.1c2.5,0,5-0.9,6.8-2.4c1.8-1.5,2.9-3.7,3.3-6.1
		c1.4,0.7,3,1.1,4.5,1.1c2.5,0,4.8-0.9,6.5-2.5c2-1.8,3.2-4.6,3.2-7.7V60.9c0-1.9-0.4-3.5-1.1-4.8c3.4-12.2,2.9-23.1-1.3-29.4
		c-2.1-3.1-5-5-8.6-5.6V0.5h-5.3v26.1h2.7c3.1,0,5.4,1.1,7,3.5c2.8,4.2,3.2,12.5,1.1,21.6c-1.3-0.6-2.8-0.9-4.3-0.9
		c-2.5,0-4.8,0.9-6.5,2.5l-0.6,0.6c-2-2-4.7-3-7.5-3h-0.2c2.4-3.5,3.8-7.9,3.8-12.5c0-1.6-1.2-2.9-2.7-2.9c-1.4,0-2.7,1.3-2.7,2.9
		c0,8-6,15-12.9,15H32.6c-1.4,0-2.7,1.3-2.7,2.9c0,1.4,0.9,2.6,2.2,2.9c0.2,0,0.4,0.1,0.6,0.1h15.2c3.1,0,3.9,3.8,3.9,6.1
		s-0.8,6.1-3.9,6.1H27.3c-3.3,0-8-6.1-9.3-14.3c-1-6.4-1.2-22.3,19.4-30.5l1.8-0.7V0.4h-5.3v21.2c-23.3,10.3-22,30.3-21.1,36.3
		C14.4,67.4,19.5,75,25.1,76.7L25.1,76.7z M75.7,60.8c0-4.1,3.9-4.3,4.4-4.3c0.5,0,4.4,0.1,4.4,4.3v14.3c0,1.3-0.4,2.4-1.3,3.1
		c-0.8,0.7-2,1.1-3.2,1.1c-0.5,0-4.4-0.1-4.4-4.3V60.8z M60.6,63.3v-2.5c0-3.4,3.1-4.3,4.9-4.3c1.8,0,4.9,0.9,4.9,4.3v14.3v7.5
		c0,3.4-3.1,4.3-4.9,4.3c-1.8,0-4.9-0.9-4.9-4.3V63.3z M45.5,83.9v-2.7v-4.1h2.6c3.2,0,5.7-1.7,7.2-4.3v9.7V85
		c0,3.4-3.1,4.3-4.9,4.3c-1.8,0-4.9-0.9-4.9-4.3V83.9z M30.4,77.1h9.8v4.1v2.7c0,1.3-0.4,2.3-1.3,3.1c-0.9,0.7-2.2,1.2-3.6,1.2
		c-1.8,0-4.9-0.9-4.9-4.3L30.4,77.1L30.4,77.1z"/>
	<polygon class="st2" points="69,128 53.4,113.9 43.7,132.5 40.8,111.7 21.4,119.6 32.5,101.9 12.6,95.5 32.5,89.1 21.4,71.3 
		40.7,79.2 43.6,58.5 53.4,77 68.9,62.9 64.5,83.4 85.4,82.6 68.9,95.5 85.5,108.3 64.6,107.5 	"/>
	<polygon class="st3" points="64.6,120.4 52.8,109.8 45.4,123.8 43.2,108.1 28.4,114.1 36.9,100.6 21.7,95.7 36.9,90.8 28.4,77.3 
		43.1,83.3 45.3,67.6 52.8,81.6 64.6,70.9 61.2,86.5 77.1,85.9 64.6,95.7 77.1,105.4 61.2,104.9 	"/>
</g>
</svg>
