<?xml version="1.0" encoding="utf-8"?>
<!-- Generator: Adobe Illustrator 21.0.0, SVG Export Plug-In . SVG Version: 6.00 Build 0)  -->
<svg version="1.1" id="Calque_1" xmlns="http://www.w3.org/2000/svg" xmlns:xlink="http://www.w3.org/1999/xlink" x="0px" y="0px"
	 viewBox="0 0 105.9 183.4" style="enable-background:new 0 0 105.9 183.4;" xml:space="preserve">
<style type="text/css">
	.st0{fill:#0F26F7;}
	.st1{fill:none;stroke:#000000;stroke-width:0.4886;stroke-miterlimit:10;}
	.st2{fill:#FF0000;}
</style>
<g>
	<path class="st0" d="M105.8,107.8v71.8c0,2.1-1.7,3.8-3.8,3.8H3.8c-2.1,0-3.8-1.7-3.8-3.8V3.8C0,1.7,1.7,0,3.8,0H102
		c2.1,0,3.8,1.7,3.8,3.8v71.1c0,1-0.5,1.8-1.4,2.3l-1.1,0.6c-0.9,0.4-1.4,1.3-1.4,2.3v23.8c0,1.1,0.7,2.1,1.8,2.4l1.4,0.4
		C105.5,106.8,105.8,107.3,105.8,107.8L105.8,107.8z"/>
	<path class="st1" d="M105.8,107.8v71.8c0,2.1-1.7,3.8-3.8,3.8H3.8c-2.1,0-3.8-1.7-3.8-3.8V3.8C0,1.7,1.7,0,3.8,0H102
		c2.1,0,3.8,1.7,3.8,3.8v71.1c0,1-0.5,1.8-1.4,2.3l-1.1,0.6c-0.9,0.4-1.4,1.3-1.4,2.3v23.8c0,1.1,0.7,2.1,1.8,2.4l1.4,0.4
		C105.5,106.8,105.8,107.3,105.8,107.8L105.8,107.8z"/>
	<path d="M12.8,140.9h17.5c1.4,0,2.5-1.1,2.5-2.6v-17.5c0-1.4-1.1-2.5-2.5-2.5H12.8c-1.4,0-2.6,1.1-2.6,2.5v17.5
		C10.2,139.7,11.4,140.9,12.8,140.9z"/>
	<path d="M36.7,164.5h17.5c1.4,0,2.5-1.1,2.5-2.6v-17.5c0-1.4-1.1-2.5-2.5-2.5H36.7c-1.4,0-2.6,1.1-2.6,2.5v17.5
		C34.1,163.3,35.3,164.5,36.7,164.5z"/>
	<path d="M36.7,140.9h17.5c1.4,0,2.5-1.1,2.5-2.6v-17.5c0-1.4-1.1-2.5-2.5-2.5H36.7c-1.4,0-2.6,1.1-2.6,2.5v17.5
		C34.1,139.7,35.3,140.9,36.7,140.9z"/>
	<path d="M60.5,164.5H78c1.4,0,2.5-1.1,2.5-2.6v-17.5c0-1.4-1.1-2.5-2.5-2.5H60.5c-1.4,0-2.6,1.1-2.6,2.5v17.5
		C57.9,163.3,59.1,164.5,60.5,164.5z"/>
	<rect x="43.5" y="77.7" class="st2" width="5.7" height="5.7"/>
	<rect x="37.8" y="72" class="st2" width="5.7" height="5.7"/>
	<rect x="32.1" y="20.7" class="st2" width="5.7" height="5.7"/>
	<rect x="60.6" y="77.7" class="st2" width="5.7" height="5.7"/>
	<rect x="66.3" y="72" class="st2" width="5.7" height="5.7"/>
	<path class="st2" d="M83.3,54.9v-5.7h-5.7V32.1h-5.7v-5.7h-5.7v5.7H43.4v-5.7h-5.7v5.7H32v17.1h-5.7v5.7h-5.7V72h5.7V60.6H32V72
		h5.7v-5.7h17.1h17.1V72h5.7V60.6h5.7V72H89V54.9H83.3L83.3,54.9z M37.8,54.9V43.5h5.7v11.4H37.8z M66.3,54.9V43.5H72v11.4H66.3z"/>
	<rect x="72" y="20.7" class="st2" width="5.7" height="5.7"/>
</g>
</svg>
