<?xml version="1.0" encoding="utf-8"?>
<!-- Generator: Adobe Illustrator 21.0.0, SVG Export Plug-In . SVG Version: 6.00 Build 0)  -->
<svg version="1.1" id="Calque_1" xmlns="http://www.w3.org/2000/svg" xmlns:xlink="http://www.w3.org/1999/xlink" x="0px" y="0px"
	 viewBox="0 0 105.9 183.4" style="enable-background:new 0 0 105.9 183.4;" xml:space="preserve">
<style type="text/css">
	.st0{fill:#FFCE00;}
	.st1{fill:none;stroke:#000000;stroke-width:0.4886;stroke-miterlimit:10;}
</style>
<g>
	<path class="st0" d="M105.8,107.8v71.8c0,2.1-1.7,3.8-3.8,3.8H3.8c-2.1,0-3.8-1.7-3.8-3.8V3.8C0,1.7,1.7,0,3.8,0H102
		c2.1,0,3.8,1.7,3.8,3.8v71.1c0,1-0.5,1.8-1.4,2.3l-1.1,0.6c-0.9,0.4-1.4,1.3-1.4,2.3v23.8c0,1.1,0.7,2.1,1.8,2.4l1.4,0.4
		C105.5,106.8,105.8,107.3,105.8,107.8L105.8,107.8z"/>
	<path class="st1" d="M105.8,107.8v71.8c0,2.1-1.7,3.8-3.8,3.8H3.8c-2.1,0-3.8-1.7-3.8-3.8V3.8C0,1.7,1.7,0,3.8,0H102
		c2.1,0,3.8,1.7,3.8,3.8v71.1c0,1-0.5,1.8-1.4,2.3l-1.1,0.6c-0.9,0.4-1.4,1.3-1.4,2.3v23.8c0,1.1,0.7,2.1,1.8,2.4l1.4,0.4
		C105.5,106.8,105.8,107.3,105.8,107.8L105.8,107.8z"/>
	<path d="M43.8,113.6l-13.2-13.4c-0.7-0.7-1.9-1.4-3.1-2.1c-1.9-1.1-4.3-0.7-5.8,0.9c-0.5,0.5-0.9,0.9-1.1,1.2c-0.7,1-0.3,3.3,1,4.7
		c2.4,2.6,11.1,12,11.2,12.1c0.7,0.8,0.7,2-0.1,2.7c-0.4,0.4-0.9,0.5-1.3,0.5c-0.5,0-1-0.2-1.4-0.6c-0.1-0.1-8.9-9.5-11.3-12.1
		c-2.7-3-2.3-15.8-2.3-16.3l-0.1-11.9c0-2.1-1.5-4-3.6-4.2c-2.4-0.2-4.4,1.6-4.4,3.9l0,32.4c0,2.2,0.9,4.4,2.5,5.9l22,20.8
		l-0.1,17.4l16.7,0.1c-0.2-0.9,0-17.2,0.2-27.5C49.7,122.7,47.6,117.5,43.8,113.6L43.8,113.6z"/>
	<path d="M97.6,111.4l0-32.4c0-2.3-2-4.2-4.4-3.9c-2.1,0.2-3.6,2.1-3.6,4.2l-0.1,11.9c0,0.4,0.4,13.3-2.3,16.3
		c-2.4,2.6-11.2,12-11.3,12.1c-0.4,0.4-0.9,0.6-1.4,0.6c-0.5,0-1-0.2-1.3-0.5c-0.8-0.7-0.8-2-0.1-2.7c0.1-0.1,8.9-9.5,11.2-12.1
		c1.3-1.3,1.6-3.7,1-4.7c-0.2-0.2-0.5-0.7-1.1-1.2c-1.5-1.6-3.9-2-5.8-0.9c-1.2,0.7-2.4,1.4-3.1,2.1l-13.2,13.4
		c-3.8,3.9-5.9,9.1-5.8,14.5c0.1,10.3,0.3,26.5,0.2,27.5l16.8-0.1l-0.1-17.4l22-20.8C96.7,115.8,97.6,113.6,97.6,111.4L97.6,111.4z"
		/>
	<polygon points="86.1,58 62.3,63.2 86.1,68.5 61.8,66.2 82.8,78.6 60.5,68.9 76.6,87.1 58.4,71 68.1,93.3 55.7,72.4 58,96.5 
		52.7,72.8 47.5,96.5 49.8,72.4 37.4,93.3 47.1,71 28.9,87.1 45,68.9 22.7,78.6 43.7,66.2 19.4,68.5 43.2,63.2 19.4,58 43.7,60.3 
		22.7,47.9 45,57.6 28.9,39.4 47.1,55.5 37.4,33.2 49.8,54.1 47.5,29.9 52.7,53.7 58,29.9 55.7,54.1 68.1,33.2 58.4,55.5 76.6,39.4 
		60.5,57.6 82.8,47.9 61.8,60.3 	"/>
	<polygon points="72.5,63.1 58.3,64.1 71.5,69.2 57.7,65.7 68.8,74.7 56.7,67.2 64.4,79.1 55.3,68.2 58.9,82 53.7,68.8 52.8,82.9 
		51.9,68.8 46.7,82 50.2,68.2 41.2,79.3 48.8,67.2 36.9,74.9 47.8,65.8 34,69.4 47.2,64.1 33,63.4 47.2,62.4 34,57.3 47.8,60.7 
		36.7,51.8 48.8,59.3 41.1,47.4 50.2,58.3 46.6,44.5 51.8,57.7 52.7,43.5 53.6,57.7 58.7,44.5 55.3,58.2 64.3,47.3 56.7,59.3 
		68.6,51.6 57.7,60.7 71.5,57.1 58.2,62.3 	"/>
</g>
</svg>
