<?xml version="1.0" encoding="utf-8"?>
<!-- Generator: Adobe Illustrator 21.0.0, SVG Export Plug-In . SVG Version: 6.00 Build 0)  -->
<svg version="1.1" id="Calque_1" xmlns="http://www.w3.org/2000/svg" xmlns:xlink="http://www.w3.org/1999/xlink" x="0px" y="0px"
	 viewBox="0 0 105.9 183.4" style="enable-background:new 0 0 105.9 183.4;" xml:space="preserve">
<style type="text/css">
	.st0{fill:#3873AD;}
	.st1{fill:none;stroke:#000000;stroke-width:0.4886;stroke-miterlimit:10;}
	.st2{fill:#848484;}
	.st3{fill:#C2C3C4;}
	.st4{fill:#6F7070;}
	.st5{fill:#A0A0A0;}
	.st6{fill:#824C20;}
	.st7{fill:none;stroke:#000000;stroke-width:4.886;stroke-miterlimit:10;}
</style>
<g>
	<path class="st0" d="M105.8,107.8v71.8c0,2.1-1.7,3.8-3.8,3.8H3.8c-2.1,0-3.8-1.7-3.8-3.8V3.8C0,1.7,1.7,0,3.8,0H102
		c2.1,0,3.8,1.7,3.8,3.8v71.1c0,1-0.5,1.8-1.4,2.3l-1.1,0.6c-0.9,0.4-1.4,1.3-1.4,2.3v23.8c0,1.1,0.7,2.1,1.8,2.4l1.4,0.4
		C105.5,106.8,105.8,107.3,105.8,107.8L105.8,107.8z"/>
	<path class="st1" d="M105.8,107.8v71.8c0,2.1-1.7,3.8-3.8,3.8H3.8c-2.1,0-3.8-1.7-3.8-3.8V3.8C0,1.7,1.7,0,3.8,0H102
		c2.1,0,3.8,1.7,3.8,3.8v71.1c0,1-0.5,1.8-1.4,2.3l-1.1,0.6c-0.9,0.4-1.4,1.3-1.4,2.3v23.8c0,1.1,0.7,2.1,1.8,2.4l1.4,0.4
		C105.5,106.8,105.8,107.3,105.8,107.8L105.8,107.8z"/>
	<path class="st2" d="M91.7,144.1v27.3H75.6c-14.9,0-27.5-11.1-29.4-26v-2.7l-7.4-7.4l-1.2,0.2c-0.7,0-1.3,0.2-1.8,0.2
		c-9.2,0-16.6-7.4-16.6-16.6V95.7h12.9H37h9.7h5.7V119c0,1.5-0.2,2.9-0.5,4.4l-0.7,2.3l5.7,1.3V138l0.4,0.5c2.2,3.5,6,5.5,10,5.5
		L91.7,144.1L91.7,144.1z M48.6,118.9V99H23.3v19.9c0,7,5.7,12.7,12.6,12.7C42.9,131.7,48.6,126,48.6,118.9z"/>
	<polygon class="st3" points="19,36.8 15.6,33.4 15.6,31.7 19,31.7 	"/>
	<rect x="37.1" y="54.9" class="st4" width="4.8" height="36.2"/>
	<polygon class="st5" points="23.6,48.5 23.6,30.3 32.2,30.3 32.2,50 32.2,91.1 23.6,91.1 	"/>
	<rect x="28" y="103.9" class="st5" width="5.5" height="9.6"/>
	<rect x="38.4" y="103.9" class="st4" width="5.5" height="9.6"/>
	<path class="st5" d="M43.9,118.1v0.8c0,4.3-3.5,7.9-7.9,7.9s-7.9-3.5-7.9-7.9v-0.8H43.9z"/>
	<path d="M48.6,99v19.9c0,7-5.7,12.7-12.7,12.7c-6.9,0-12.6-5.7-12.6-12.7V99H48.6z M43.9,118.9v-0.8H28.2v0.8
		c0,4.3,3.5,7.9,7.9,7.9C40.4,126.8,43.9,123.3,43.9,118.9z M43.9,113.4v-9.5h-5.6v9.5H43.9z M33.5,113.4v-9.5H28v9.5H33.5z"/>
	<polygon class="st6" points="34.7,15.2 34.4,21.1 34,25.4 21.7,25.4 20.7,15.2 	"/>
	<polygon points="33.8,29.3 22.2,29.3 21.7,25.4 34,25.4 	"/>
	<path d="M23.6,30.3v18.3v42.6h8.6V50.1V30.3L23.6,30.3L23.6,30.3z M41.9,91.1V54.9h-4.8v36.2H41.9z M46.6,78v12.9h10.6v5.4
		c8.1,1.2,14.3,8.1,14.3,16.4c0,6.9-4,12.6-9.7,15.2v8.6c1.3,1.8,3.5,2.9,5.7,2.9h29.2v36.9h-21c-17.4,0-32-13.1-34.2-30v-0.4v-1
		l-4.4-4.3h-1.3c-0.7,0-1.5,0-2.3-0.2c-0.4,0.2-0.5,0.5-0.8,0.7c-2.5,2-3.9,4.8-3.9,8.1H17.9c0-4.8,1.7-9.6,4.7-13.3
		c-4.8-4-8.1-10-8.1-16.8v-28H19V43.6l-8.2-8.2v-8.6H19v-1.5h2.8l0.4,3.9h11.6l0.3-3.9h2.8v24.5h9.7L46.6,78L46.6,78z M91.7,171.4
		v-27.3H67.4c-4,0-7.9-2-10-5.5l-0.4-0.5v-10.9l-5.7-1.3l0.7-2.3c0.4-1.5,0.5-2.9,0.5-4.4V95.8h-5.7h-9.7h-4.8H19.3v23.3
		c0,9.2,7.4,16.6,16.6,16.6c0.5,0,1.2-0.2,1.8-0.2l1.2-0.2l7.4,7.4v2.7c1.8,14.9,14.4,26,29.4,26L91.7,171.4L91.7,171.4z
		 M60.9,123.1c3.5-2,5.9-5.9,5.9-10.2c0-5.7-4-10.6-9.4-11.4v11.1c0.8-0.4,1.5-0.7,2.3-1c0.9-0.4,1.7-0.8,2.3-1.3l2.7,3.9
		c-1,0.5-2,1.2-3,1.7c-1.5,0.7-3,1.3-4.5,1.7v1.7c0,1,0,2.2-0.2,3.2L60.9,123.1L60.9,123.1z M19,36.8v-5h-3.4v1.7L19,36.8z"/>
	<path class="st7" d="M33.7,21.1c0.2,0,0.4,0,0.7,0c22.9,1.4,43.5,10.4,50.3,21.1c9,14.2-5.1,33.2-38.1,35.8
		c-1.2,0.1-2.4,0.2-3.6,0.2"/>
</g>
</svg>
