<?xml version="1.0" encoding="utf-8"?>
<!-- Generator: Adobe Illustrator 21.0.0, SVG Export Plug-In . SVG Version: 6.00 Build 0)  -->
<svg version="1.1" id="Calque_1" xmlns="http://www.w3.org/2000/svg" xmlns:xlink="http://www.w3.org/1999/xlink" x="0px" y="0px"
	 viewBox="0 0 211.9 197.2" style="enable-background:new 0 0 211.9 197.2;" xml:space="preserve">
<style type="text/css">
	.st0{fill:#FFDA00;}
	.st1{fill:#F9D07D;}
</style>
<g>
	<g id="XMLID_36_">
		<g>
			<path d="M208.3,147c2.1,6.2,3.7,10.6,3.7,15.1c-0.1,14-26.5,14-35.2,14c-1.8,0-3.6-0.7-4.9-2c0,0,0,0,0,0c0,0-0.1-0.1-0.1-0.1
				c0,0,0.1,0.1,0.1,0.1c-6.2,5.5-14.3,9-23.3,9v14.1H64v-14.1c-9,0-17.1-3.5-23.3-9c-1.3,1.2-3,2-4.8,2c-8.7,0-35.1,0-35.2-14
				c0-4.4,1.5-8.9,3.7-15.1c4.1-11.9,10.4-29.9,10.4-62.5C14.7,37.1,55,0,106.3,0C131,0,154,8.6,171.1,24.3
				c17.3,15.8,26.8,37.2,26.8,60.2C197.9,117.1,204.1,135.1,208.3,147z M204.9,162c0.1-10.1-14.1-28.2-14.1-77.5
				c0-43.4-37.1-77.5-84.5-77.5s-84.5,34-84.5,77.5c0,49.3-14.2,67.3-14.1,77.5c0.1,7,28.2,7,28.2,7V91.6c49.3-7,56.3-42.3,81-42.3
				s24.7,35.2,59.9,42.3V169C176.7,169,204.8,169,204.9,162z M169.7,166.3c0-11.1,0-54,0-69.3c-17.2-5.2-26.2-16.8-33.5-26.3
				c-7.3-9.4-11.4-14.4-19.3-14.4c-7.7,0-13.2,4.7-22.4,13C83.6,79.1,69,92.3,42.9,97.5v68.8c5.2,5.9,12.7,9.7,21.1,9.7h84.5
				C157,176.1,164.5,172.3,169.7,166.3z M141.5,190.2v-7H71.1v7H141.5z"/>
			<path class="st0" d="M190.8,84.5c0,49.3,14.2,67.3,14.1,77.5c-0.1,7-28.2,7-28.2,7V91.6c-35.2-7-35.2-42.3-59.9-42.3
				s-31.7,35.2-81,42.3V169c0,0-28.1,0-28.2-7c-0.1-10.1,14.1-28.2,14.1-77.5C21.8,41.1,58.9,7,106.3,7S190.8,41.1,190.8,84.5z"/>
			<path d="M171.9,174.1C171.9,174.1,171.9,174.1,171.9,174.1c-0.1,0-0.1-0.1-0.1-0.1C171.8,174,171.8,174.1,171.9,174.1z"/>
			<path class="st1" d="M169.7,97c0,15.3,0,58.2,0,69.3c-5.2,5.9-12.7,9.7-21.1,9.7H64c-8.4,0-16-3.8-21.1-9.7V97.5
				C69,92.3,83.6,79.1,94.5,69.3c9.2-8.3,14.7-13,22.4-13c7.9,0,12.1,4.9,19.3,14.4C143.5,80.2,152.4,91.8,169.7,97z M137,136.3
				c1.4-1.4,1.4-3.6,0-5c-1.4-1.4-3.6-1.4-5,0c-6.1,6.1-15.4,9.5-25.7,9.5c-10.3,0-19.6-3.5-25.7-9.5c-1.4-1.4-3.6-1.4-5,0
				c-1.4,1.4-1.4,3.6,0,5c7.4,7.4,18.5,11.6,30.7,11.6C118.4,147.9,129.6,143.7,137,136.3z M134.5,105.6c0-3.9-3.2-7-7-7
				c-3.9,0-7,3.2-7,7c0,3.9,3.2,7,7,7C131.3,112.7,134.5,109.5,134.5,105.6z M92.2,105.6c0-3.9-3.2-7-7-7s-7,3.2-7,7
				c0,3.9,3.2,7,7,7S92.2,109.5,92.2,105.6z"/>
			<rect x="71.1" y="183.1" class="st1" width="70.4" height="7"/>
			<path d="M137,131.3c1.4,1.4,1.4,3.6,0,5c-7.4,7.4-18.6,11.6-30.7,11.6c-12.1,0-23.3-4.2-30.7-11.6c-1.4-1.4-1.4-3.6,0-5
				c1.4-1.4,3.6-1.4,5,0c6.1,6.1,15.4,9.5,25.7,9.5c10.3,0,19.6-3.5,25.7-9.5C133.4,130,135.6,130,137,131.3z"/>
			<path d="M127.4,98.6c3.9,0,7,3.2,7,7c0,3.9-3.2,7-7,7c-3.9,0-7-3.2-7-7C120.4,101.8,123.5,98.6,127.4,98.6z"/>
			<path d="M85.2,98.6c3.9,0,7,3.2,7,7c0,3.9-3.2,7-7,7s-7-3.2-7-7C78.1,101.8,81.3,98.6,85.2,98.6z"/>
		</g>
		<g>
		</g>
	</g>
</g>
</svg>
