<?xml version="1.0" encoding="utf-8"?>
<!-- Generator: Adobe Illustrator 21.0.0, SVG Export Plug-In . SVG Version: 6.00 Build 0)  -->
<svg version="1.1" id="Calque_1" xmlns="http://www.w3.org/2000/svg" xmlns:xlink="http://www.w3.org/1999/xlink" x="0px" y="0px"
	 viewBox="0 0 105.9 183.4" style="enable-background:new 0 0 105.9 183.4;" xml:space="preserve">
<style type="text/css">
	.st0{fill:#EDEDED;}
	.st1{fill:none;stroke:#000000;stroke-width:0.4886;stroke-miterlimit:10;}
	.st2{fill:#FFFFFF;}
	.st3{fill:#D8CDB2;}
</style>
<g>
	<path class="st0" d="M105.8,107.8v71.8c0,2.1-1.7,3.8-3.8,3.8H3.8c-2.1,0-3.8-1.7-3.8-3.8V3.8C0,1.7,1.7,0,3.8,0H102
		c2.1,0,3.8,1.7,3.8,3.8v71.1c0,1-0.5,1.8-1.4,2.3l-1.1,0.6c-0.9,0.4-1.4,1.3-1.4,2.3v23.8c0,1.1,0.7,2.1,1.8,2.4l1.4,0.4
		C105.5,106.8,105.8,107.3,105.8,107.8z"/>
	<path class="st1" d="M105.8,107.8v71.8c0,2.1-1.7,3.8-3.8,3.8H3.8c-2.1,0-3.8-1.7-3.8-3.8V3.8C0,1.7,1.7,0,3.8,0H102
		c2.1,0,3.8,1.7,3.8,3.8v71.1c0,1-0.5,1.8-1.4,2.3l-1.1,0.6c-0.9,0.4-1.4,1.3-1.4,2.3v23.8c0,1.1,0.7,2.1,1.8,2.4l1.4,0.4
		C105.5,106.8,105.8,107.3,105.8,107.8z"/>
	<path class="st2" d="M62.1,91.9v20.2H49.2V91.9l5-4C54.1,89,54,90,54,91.1c0,0.9,0.7,1.6,1.6,1.6c0.9,0,1.6-0.7,1.6-1.6
		c0-1,0-2,0.1-3L62.1,91.9z M57.2,107.3v-9.7c0-0.9-0.7-1.6-1.6-1.6c-0.9,0-1.6,0.7-1.6,1.6v9.7c0,0.9,0.7,1.6,1.6,1.6
		C56.5,108.9,57.2,108.2,57.2,107.3z"/>
	<path d="M98.3,68.8c0.6,1,0.9,2.3,0.9,3.7s-0.3,2.7-0.9,3.7c-0.4,0.6-0.8,1.1-1.4,1.4c0.5,1.8,0.7,3.7,0.7,5.6
		c0,5.1-1.6,16.2-4.2,26c-3.5,13-7.6,20.2-12.4,21.5c-1.7,0.5-3.3,0.7-4.7,0.7h0c-2.6,0-4.7-0.8-6.2-2.4c-2.1-2.3-2.9-5.9-2.5-11.2
		c0.3-3.8,0.9-6.6,1.3-9.1c0.6-2.9,1.1-5.4,1-8.9c-0.1-1.8-1.5-4.8-3-8c-0.3-0.7-0.6-1.3-0.9-2c-1.5-3.2-2.9-6.7-3.6-10.1
		c-0.4-2-0.5-3.8-0.3-5.5c-1,1.3-1.8,2.8-2.5,4.3c-0.8,1.8-1.4,3.7-1.8,5.8l6.8,5.5c0.2,0.2,0.3,0.3,0.4,0.6
		c0.1,0.2,0.2,0.5,0.2,0.7v22.6c0,0.9-0.7,1.6-1.6,1.6H47.5c-0.9,0-1.6-0.7-1.6-1.6V91.1c0-0.5,0.2-1,0.6-1.3l8.1-6.5
		c0.1-0.1,0.1-0.1,0.2-0.1c0.5-2.1,1.1-4.2,2-6.1c1.3-3,3.2-5.7,5.4-7.9c-0.1-0.1-0.1-0.3-0.2-0.4c-1-2.2-1.6-4.8-1.6-6.8
		c0-2.1,0.6-4,1.7-5.5c1.2-1.6,2.9-2.5,4.7-2.5c1.8,0,3.5,0.9,4.7,2.5c1.1,1.5,1.7,3.5,1.7,5.5c0,0.2,0,0.4,0,0.6l0,0
		c0-1.8,0.6-3.4,1.5-4.7c1.1-1.5,2.6-2.3,4.2-2.3c1.6,0,3.1,0.9,4.2,2.3c0.6,0.8,1,1.8,1.2,2.8c0.9-1.2,2.1-1.9,3.5-1.9
		c2.7,0,4.9,2.8,4.9,6.5c0,1.3-0.3,2.5-0.8,3.6l0.1,0.1l0-0.1c0.8-1.3,1.9-2,3.1-2C96.5,66.9,97.6,67.6,98.3,68.8z M96.1,72.5
		c0-1.4-0.6-2.3-0.8-2.4c-0.2,0.1-0.6,0.8-0.8,1.8c0.5,0.7,0.9,1.5,1.3,2.3C95.9,73.8,96.1,73.2,96.1,72.5z M90.4,108.5
		c2.6-9.6,4.1-20.3,4.1-25.2c0-6.6-3.1-10.8-5.7-13.1c-3.3-2.9-7.6-4.6-11.9-4.6c-1.2,0-2.4,0.1-3.5,0.4c-0.1,0.1-0.3,0.2-0.4,0.2
		c0,0-1.6,0.5-3.8,1.8c-0.5,0.4-1.1,0.9-1.5,1.4c-2.1,2.5-2.7,5.7-1.9,9.8c0.8,3.8,2.7,7.9,4.3,11.4c1.7,3.7,3.2,6.8,3.3,9.3
		c0.1,3.8-0.4,6.5-1,9.6c-0.5,2.4-1,5-1.3,8.7c-0.3,4.3,0.2,7.2,1.6,8.8c0.9,0.9,2.1,1.4,3.8,1.4h0c1.1,0,2.4-0.2,3.9-0.6
		c1.2-0.3,3.1-1.7,5.4-6.1C87.3,118.3,88.9,113.9,90.4,108.5z M89.4,66.5c0.1-0.4,0.1-0.8,0.1-1.3c0-2-1-3.2-1.6-3.2
		c-0.6,0-1.4,1-1.6,2.6C87.5,65.2,88.5,65.8,89.4,66.5z M81.5,62.9L81.5,62.9c0-2.4-1.3-4.1-2.4-4.1c-1.1,0-2.2,1.4-2.4,3.5
		c0.1,0,0.1,0,0.2,0C78.4,62.3,80,62.5,81.5,62.9z M70,63.7c0.1-0.6,0.1-1.2,0.1-1.7c0-2.6-1.5-4.8-3.2-4.8c-1.8,0-3.2,2.2-3.2,4.8
		c0,1.4,0.4,3.4,1.1,5c0.9-0.7,1.7-1.3,2.5-1.7C68.1,64.6,69,64.1,70,63.7z M62.1,112.2V91.9l-4.7-3.8c-0.1,1-0.1,2-0.1,3
		c0,0.9-0.7,1.6-1.6,1.6c-0.9,0-1.6-0.7-1.6-1.6c0-1.1,0-2.2,0.1-3.2l-5,4v20.2H62.1z"/>
	<path class="st3" d="M95.2,70.1c0.3,0.1,0.8,1,0.8,2.4c0,0.7-0.1,1.3-0.3,1.7c-0.4-0.8-0.8-1.6-1.3-2.3
		C94.6,70.9,95,70.2,95.2,70.1z"/>
	<path class="st3" d="M94.5,83.3c0,4.9-1.5,15.6-4.1,25.2c-1.4,5.4-3,9.8-4.7,13.1c-2.3,4.5-4.2,5.8-5.4,6.1
		c-1.5,0.4-2.8,0.6-3.9,0.6h0c-1.7,0-2.9-0.5-3.8-1.4c-1.4-1.5-2-4.5-1.6-8.8c0.3-3.7,0.8-6.3,1.3-8.7c0.6-3.1,1.1-5.8,1-9.6
		c-0.1-2.4-1.5-5.6-3.3-9.3c-1.7-3.6-3.5-7.6-4.3-11.4c-0.8-4.1-0.2-7.3,1.9-9.8c0.4-0.5,1-1,1.5-1.4c2.2-1.3,3.8-1.8,3.8-1.8
		c0.2,0,0.3-0.1,0.4-0.2c1.1-0.3,2.3-0.4,3.5-0.4c4.3,0,8.6,1.7,11.9,4.6C91.4,72.5,94.5,76.6,94.5,83.3z"/>
	<path class="st3" d="M89.6,65.3c0,0.5-0.1,0.9-0.1,1.3c-1-0.7-2-1.3-3.1-1.9c0.2-1.6,1-2.6,1.6-2.6C88.6,62,89.6,63.3,89.6,65.3z"
		/>
	<path class="st3" d="M81.5,62.8L81.5,62.8c-1.5-0.3-3.1-0.5-4.6-0.5c-0.1,0-0.1,0-0.2,0c0.2-2.1,1.3-3.5,2.4-3.5
		C80.2,58.8,81.5,60.4,81.5,62.8z"/>
	<path class="st3" d="M70.2,62c0,0.5-0.1,1.1-0.1,1.7c-1,0.4-1.9,1-2.7,1.6c-0.8,0.5-1.6,1.1-2.5,1.7c-0.6-1.6-1.1-3.6-1.1-5
		c0-2.6,1.5-4.8,3.2-4.8C68.7,57.2,70.2,59.4,70.2,62z"/>
	<path d="M57.2,97.6v9.7c0,0.9-0.7,1.6-1.6,1.6c-0.9,0-1.6-0.7-1.6-1.6v-9.7c0-0.9,0.7-1.6,1.6-1.6C56.5,96,57.2,96.7,57.2,97.6z"/>
	<path d="M43.4,62c0,2.1-0.6,4.7-1.6,6.8c-0.1,0.1-0.1,0.3-0.2,0.4l0.1,5c0.2,1.7,0.1,3.5-0.3,5.5c-0.8,4.2-2.8,8.4-4.5,12.1
		c-1.5,3.2-2.9,6.2-3,8c-0.1,3.4,0.4,6,1,8.9c0.5,2.4,1,5.2,1.3,9.1c0.4,5.3-0.4,9-2.5,11.2c-1.5,1.6-3.6,2.4-6.2,2.4h0
		c-1.4,0-3-0.2-4.7-0.7c-4.8-1.3-8.9-8.6-12.4-21.5c-2.6-9.8-4.2-20.9-4.2-26c0-1.9,0.2-3.8,0.7-5.6c-0.5-0.3-1-0.8-1.4-1.4
		c-0.6-1-0.9-2.3-0.9-3.7s0.3-2.7,0.9-3.7c0.8-1.3,1.9-2,3.1-2c1.2,0,2.3,0.7,3.1,2l0,0.1l0.1-0.1c-0.5-1-0.8-2.2-0.8-3.6
		c0-3.6,2.1-6.5,4.8-6.5c1.4,0,2.6,0.7,3.5,1.9c0.2-1,0.7-2,1.2-2.8c1.1-1.5,2.6-2.3,4.2-2.3c1.6,0,3.1,0.9,4.2,2.3
		c0.9,1.3,1.4,3,1.5,4.7l0,0c0-0.2,0-0.4,0-0.6c0-2.1,0.6-4,1.7-5.5c1.2-1.6,2.9-2.5,4.7-2.5c1.8,0,3.5,0.9,4.7,2.5
		C42.8,58,43.4,59.9,43.4,62z M39.1,67c0.6-1.6,1.1-3.6,1.1-5c0-2.6-1.5-4.8-3.2-4.8c-1.8,0-3.2,2.2-3.2,4.8c0,0.5,0.1,1.1,0.2,1.7
		c1,0.4,1.9,1,2.7,1.6C37.4,65.8,38.2,66.3,39.1,67z M38.2,79.2c0.8-4.1,0.2-7.3-1.9-9.8c-0.5-0.5-1-1-1.5-1.4
		c-2.2-1.3-3.8-1.8-3.8-1.8c-0.2,0-0.3-0.1-0.4-0.2c-1.1-0.3-2.3-0.4-3.5-0.4c-4.3,0-8.6,1.7-11.9,4.6c-2.6,2.3-5.7,6.5-5.7,13.1
		c0,4.9,1.5,15.6,4.1,25.2c1.4,5.4,3,9.8,4.7,13.1c2.3,4.5,4.2,5.8,5.4,6.1c1.5,0.4,2.8,0.6,3.9,0.6c1.7,0,2.9-0.5,3.8-1.4
		c1.4-1.5,2-4.5,1.6-8.8c-0.3-3.7-0.8-6.3-1.3-8.7c-0.6-3.1-1.1-5.8-1-9.6c0.1-2.4,1.5-5.6,3.3-9.3C35.6,87.1,37.4,83,38.2,79.2z
		 M27,62.3c0.1,0,0.1,0,0.2,0c-0.2-2.1-1.3-3.5-2.4-3.5c-1.1,0-2.4,1.7-2.4,4v0C23.9,62.5,25.5,62.3,27,62.3z M17.5,64.6
		c-0.2-1.6-1-2.6-1.6-2.6c-0.7,0-1.6,1.3-1.6,3.2c0,0.5,0.1,0.9,0.1,1.3C15.4,65.8,16.4,65.2,17.5,64.6z M9.4,71.9
		c-0.1-1-0.6-1.7-0.8-1.8c-0.3,0.1-0.8,1-0.8,2.4c0,0.7,0.1,1.3,0.3,1.7C8.5,73.4,8.9,72.6,9.4,71.9z"/>
	<path class="st3" d="M40.2,62c0,1.4-0.4,3.4-1.1,5c-0.9-0.7-1.7-1.3-2.5-1.7c-0.8-0.6-1.8-1.2-2.7-1.6c-0.1-0.6-0.2-1.2-0.2-1.7
		c0-2.6,1.5-4.8,3.2-4.8C38.7,57.2,40.2,59.4,40.2,62z"/>
	<path class="st3" d="M36.3,69.4c2.1,2.5,2.7,5.7,1.9,9.8c-0.8,3.8-2.7,7.9-4.3,11.4c-1.7,3.7-3.2,6.8-3.3,9.3
		c-0.1,3.8,0.4,6.5,1,9.6c0.5,2.4,1,5,1.3,8.7c0.3,4.3-0.2,7.2-1.6,8.8c-0.9,0.9-2.1,1.4-3.8,1.4c-1.1,0-2.4-0.2-3.9-0.6
		c-1.2-0.3-3.1-1.7-5.4-6.1c-1.7-3.3-3.3-7.7-4.7-13.1C11,98.9,9.4,88.2,9.4,83.3c0-6.6,3.1-10.8,5.7-13.1c3.3-2.9,7.6-4.6,11.9-4.6
		c1.2,0,2.4,0.1,3.5,0.4c0.1,0.1,0.3,0.2,0.4,0.2c0,0,1.6,0.5,3.8,1.8C35.3,68.4,35.8,68.9,36.3,69.4z"/>
	<path class="st3" d="M27.2,62.3c-0.1,0-0.1,0-0.2,0c-1.6,0-3.1,0.2-4.6,0.5v0c0-2.4,1.3-4,2.4-4C25.9,58.8,27.1,60.2,27.2,62.3z"/>
	<path class="st3" d="M15.9,62c0.6,0,1.4,1,1.6,2.6c-1.1,0.5-2.1,1.2-3.1,1.9c-0.1-0.4-0.1-0.8-0.1-1.3C14.3,63.3,15.3,62,15.9,62z"
		/>
	<path class="st3" d="M8.7,70.1c0.2,0.1,0.6,0.8,0.8,1.8c-0.5,0.7-0.9,1.5-1.3,2.3c-0.2-0.4-0.3-1-0.3-1.7
		C7.8,71.1,8.4,70.3,8.7,70.1z"/>
</g>
</svg>
