<?xml version="1.0" encoding="utf-8"?>
<!-- Generator: Adobe Illustrator 21.0.0, SVG Export Plug-In . SVG Version: 6.00 Build 0)  -->
<svg version="1.1" id="Calque_1" xmlns="http://www.w3.org/2000/svg" xmlns:xlink="http://www.w3.org/1999/xlink" x="0px" y="0px"
	 viewBox="0 0 105.9 183.4" style="enable-background:new 0 0 105.9 183.4;" xml:space="preserve">
<style type="text/css">
	.st0{fill:#226D03;}
	.st1{fill:none;stroke:#000000;stroke-width:0.4886;stroke-miterlimit:10;}
	.st2{fill:none;stroke:#9B5C10;stroke-width:8.4146;stroke-linecap:square;stroke-linejoin:round;stroke-miterlimit:10;}
	.st3{fill:none;stroke:#9B5C10;stroke-width:8.7948;stroke-linecap:round;stroke-linejoin:round;stroke-miterlimit:10;}
</style>
<g>
	<path class="st0" d="M105.8,107.8v71.8c0,2.1-1.7,3.8-3.8,3.8H3.8c-2.1,0-3.8-1.7-3.8-3.8V3.8C0,1.7,1.7,0,3.8,0H102
		c2.1,0,3.8,1.7,3.8,3.8v71.1c0,1-0.5,1.8-1.4,2.3l-1.1,0.6c-0.9,0.4-1.4,1.3-1.4,2.3v23.8c0,1.1,0.7,2.1,1.8,2.4l1.4,0.4
		C105.5,106.8,105.8,107.3,105.8,107.8z"/>
	<path class="st1" d="M105.8,107.8v71.8c0,2.1-1.7,3.8-3.8,3.8H3.8c-2.1,0-3.8-1.7-3.8-3.8V3.8C0,1.7,1.7,0,3.8,0H102
		c2.1,0,3.8,1.7,3.8,3.8v71.1c0,1-0.5,1.8-1.4,2.3l-1.1,0.6c-0.9,0.4-1.4,1.3-1.4,2.3v23.8c0,1.1,0.7,2.1,1.8,2.4l1.4,0.4
		C105.5,106.8,105.8,107.3,105.8,107.8z"/>
	<line class="st2" x1="55.2" y1="6.8" x2="55.2" y2="43"/>
	<path class="st3" d="M73,128c0,9.9-7.9,17.8-17.8,17.8c-9.9,0-17.8-7.9-17.8-17.8s17.8-53.4,17.8-53.4S73,118.2,73,128z"/>
	<line class="st3" x1="48.1" y1="75.2" x2="62.2" y2="74"/>
	<line class="st3" x1="48.1" y1="67.7" x2="62.2" y2="66.5"/>
	<line class="st3" x1="48.1" y1="60.2" x2="62.2" y2="58.9"/>
	<line class="st3" x1="48.1" y1="52.6" x2="62.2" y2="51.4"/>
	<line class="st3" x1="48.1" y1="45.1" x2="62.2" y2="43.9"/>
	<line class="st3" x1="47.2" y1="37.7" x2="55.2" y2="44.5"/>
</g>
</svg>
