<?xml version="1.0" encoding="utf-8"?>
<!-- Generator: Adobe Illustrator 21.0.0, SVG Export Plug-In . SVG Version: 6.00 Build 0)  -->
<svg version="1.1" id="Calque_1" xmlns="http://www.w3.org/2000/svg" xmlns:xlink="http://www.w3.org/1999/xlink" x="0px" y="0px"
	 viewBox="0 0 105.9 183.4" style="enable-background:new 0 0 105.9 183.4;" xml:space="preserve">
<style type="text/css">
	.st0{fill:#FFFFFF;}
	.st1{fill:none;stroke:#000000;stroke-width:0.4886;stroke-miterlimit:10;}
</style>
<g>
	<path class="st0" d="M105.8,107.8v71.8c0,2.1-1.7,3.8-3.8,3.8H3.8c-2.1,0-3.8-1.7-3.8-3.8V3.8C0,1.7,1.7,0,3.8,0H102
		c2.1,0,3.8,1.7,3.8,3.8v71.1c0,1-0.5,1.8-1.4,2.3l-1.1,0.6c-0.9,0.4-1.4,1.3-1.4,2.3v23.8c0,1.1,0.7,2.1,1.8,2.4l1.4,0.4
		C105.5,106.8,105.8,107.3,105.8,107.8L105.8,107.8z"/>
	<path class="st1" d="M105.8,107.8v71.8c0,2.1-1.7,3.8-3.8,3.8H3.8c-2.1,0-3.8-1.7-3.8-3.8V3.8C0,1.7,1.7,0,3.8,0H102
		c2.1,0,3.8,1.7,3.8,3.8v71.1c0,1-0.5,1.8-1.4,2.3l-1.1,0.6c-0.9,0.4-1.4,1.3-1.4,2.3v23.8c0,1.1,0.7,2.1,1.8,2.4l1.4,0.4
		C105.5,106.8,105.8,107.3,105.8,107.8L105.8,107.8z"/>
	<path d="M16.8,7c0,0.6-0.4,1.1-0.9,1.2C10.2,9.6,7.5,13,7.5,18.5c0,2.1,0.6,3,1.8,3c0.2,0,0.6,0,0.9-0.1c0.7-0.2,1.4-0.4,2-0.4
		c1.6,0,2.9,0.5,3.8,1.5c0.9,1.1,1.4,2.1,1.4,3.4c0,1.3-0.5,2.4-1.4,3.4c-0.9,0.9-2.2,1.5-3.7,1.5c-2.1,0-3.8-0.9-5.4-2.9
		s-2.3-4.5-2.3-7.8c0-3.7,1.1-7,3.2-9.6c1.8-2.3,4.4-3.8,7.5-4.7C16.1,5.6,16.8,6.2,16.8,7L16.8,7z M38.9,7c0,0.6-0.4,1.1-0.9,1.2
		c-5.7,1.4-8.4,4.8-8.4,10.3c0,2.1,0.6,3,1.7,3c0.2,0,0.6,0,0.9-0.1c0.8-0.2,1.4-0.4,2-0.4c1.6,0,2.9,0.5,3.8,1.5
		c0.9,1.1,1.4,2.1,1.4,3.4c0,1.3-0.5,2.4-1.4,3.4s-2.2,1.5-3.7,1.5c-2.1,0-3.9-0.9-5.4-2.9c-1.5-2-2.3-4.5-2.3-7.8
		c0-3.7,1.1-7,3.2-9.6c1.8-2.3,4.4-3.8,7.5-4.7C38,5.6,38.9,6.2,38.9,7L38.9,7z"/>
	<path class="st1" d="M16.8,7c0,0.6-0.4,1.1-0.9,1.2C10.2,9.6,7.5,13,7.5,18.5c0,2.1,0.6,3,1.8,3c0.2,0,0.6,0,0.9-0.1
		c0.7-0.2,1.4-0.4,2-0.4c1.6,0,2.9,0.5,3.8,1.5c0.9,1.1,1.4,2.1,1.4,3.4c0,1.3-0.5,2.4-1.4,3.4c-0.9,0.9-2.2,1.5-3.7,1.5
		c-2.1,0-3.8-0.9-5.4-2.9s-2.3-4.5-2.3-7.8c0-3.7,1.1-7,3.2-9.6c1.8-2.3,4.4-3.8,7.5-4.7C16.1,5.6,16.8,6.2,16.8,7L16.8,7z M38.9,7
		c0,0.6-0.4,1.1-0.9,1.2c-5.7,1.4-8.4,4.8-8.4,10.3c0,2.1,0.6,3,1.7,3c0.2,0,0.6,0,0.9-0.1c0.8-0.2,1.4-0.4,2-0.4
		c1.6,0,2.9,0.5,3.8,1.5c0.9,1.1,1.4,2.1,1.4,3.4c0,1.3-0.5,2.4-1.4,3.4s-2.2,1.5-3.7,1.5c-2.1,0-3.9-0.9-5.4-2.9
		c-1.5-2-2.3-4.5-2.3-7.8c0-3.7,1.1-7,3.2-9.6c1.8-2.3,4.4-3.8,7.5-4.7C38,5.6,38.9,6.2,38.9,7L38.9,7z"/>
	<path d="M70.5,166.8c0-0.5,0.3-0.9,0.9-1.2c5.2-1.3,7.7-4.5,7.7-9.5c0-1.9-0.5-2.8-1.6-2.8c-0.2,0-0.5,0-0.9,0.1
		c-0.6,0.2-1.3,0.3-1.8,0.3c-1.5,0-2.7-0.4-3.5-1.4c-0.9-0.9-1.3-1.9-1.3-3.1c0-1.2,0.4-2.2,1.3-3.1c0.9-0.9,2-1.4,3.4-1.4
		c1.9,0,3.5,0.9,5,2.7c1.5,1.8,2.1,4.1,2.1,7.1c0,3.4-0.9,6.4-3,8.8c-1.7,2.1-4,3.5-6.9,4.3C71.3,168.1,70.5,167.6,70.5,166.8
		L70.5,166.8z M90.7,166.8c0-0.5,0.3-0.9,0.9-1.2c5.2-1.3,7.7-4.5,7.7-9.5c0-1.9-0.5-2.8-1.7-2.8c-0.2,0-0.5,0-0.9,0.1
		c-0.6,0.2-1.3,0.3-1.8,0.3c-1.4,0-2.5-0.4-3.4-1.4c-0.9-0.9-1.3-1.9-1.3-3.1c0-1.1,0.4-2.1,1.3-3.1c0.9-0.9,2-1.4,3.4-1.4
		c1.9,0,3.5,0.9,5,2.7c1.5,1.8,2.1,4.1,2.1,7.1c0,3.4-0.9,6.4-3,8.8c-1.7,2.1-4,3.5-6.9,4.3C91.3,168.1,90.7,167.6,90.7,166.8
		L90.7,166.8z"/>
	<path class="st1" d="M70.5,166.8c0-0.5,0.3-0.9,0.9-1.2c5.2-1.3,7.7-4.5,7.7-9.5c0-1.9-0.5-2.8-1.6-2.8c-0.2,0-0.5,0-0.9,0.1
		c-0.6,0.2-1.3,0.3-1.8,0.3c-1.5,0-2.7-0.4-3.5-1.4c-0.9-0.9-1.3-1.9-1.3-3.1c0-1.2,0.4-2.2,1.3-3.1c0.9-0.9,2-1.4,3.4-1.4
		c1.9,0,3.5,0.9,5,2.7c1.5,1.8,2.1,4.1,2.1,7.1c0,3.4-0.9,6.4-3,8.8c-1.7,2.1-4,3.5-6.9,4.3C71.3,168.1,70.5,167.6,70.5,166.8
		L70.5,166.8z M90.7,166.8c0-0.5,0.3-0.9,0.9-1.2c5.2-1.3,7.7-4.5,7.7-9.5c0-1.9-0.5-2.8-1.7-2.8c-0.2,0-0.5,0-0.9,0.1
		c-0.6,0.2-1.3,0.3-1.8,0.3c-1.4,0-2.5-0.4-3.4-1.4c-0.9-0.9-1.3-1.9-1.3-3.1c0-1.1,0.4-2.1,1.3-3.1c0.9-0.9,2-1.4,3.4-1.4
		c1.9,0,3.5,0.9,5,2.7c1.5,1.8,2.1,4.1,2.1,7.1c0,3.4-0.9,6.4-3,8.8c-1.7,2.1-4,3.5-6.9,4.3C91.3,168.1,90.7,167.6,90.7,166.8
		L90.7,166.8z"/>
	<ellipse transform="matrix(0.1937 -0.9811 0.9811 0.1937 -28.7154 75.4603)" cx="31.5" cy="55.2" rx="7.7" ry="7.7"/>
	<path d="M57.4,84.5l0.2-0.5c0.1,0,0.2,0,0.2,0.1c0.3,0.1,0.6,0.2,0.9,0.2c1.1,0,2.2-0.7,2.6-1.9c0.5-1.4-0.3-2.9-1.7-3.4l0.2-0.4
		L70.9,83l1.6-4.1l-15.7-6.2l-1.6,4.1l1.4,0.5l-0.2,0.5c-6.4-2.4-11.5-5.1-15-7.2c-2-1.3-3.6-2.3-4.6-3.1c-0.5-0.4-0.9-0.7-1.1-0.9
		c-0.1-0.1-0.2-0.2-0.3-0.2l0,0c-0.3-0.3-0.7-0.5-1.1-0.6c-0.3-0.1-0.5-0.2-0.9-0.2H20.8c-0.4-0.1-0.8,0-1.2,0
		c-0.4,0.1-3.3,1-6.1,4.3c-2.9,3.4-5.4,9.1-5.4,18.3c0,1.8,0.1,3.8,0.3,5.9c0.2,1.4,1.3,2.5,2.7,2.5h0.3c1.5-0.2,2.6-1.5,2.4-3
		c-0.2-2-0.3-3.7-0.3-5.4c0-8.2,2.2-12.4,4.1-14.7v16.8l-4,35.4c-0.3,2.3,1.4,4.4,3.7,4.7c2.3,0.3,4.4-1.4,4.7-3.7l3.7-32.5H28
		l3.7,32.5c0.3,2.3,2.3,4,4.7,3.7c2.3-0.3,4-2.3,3.7-4.7l-4-35.4V73.7c3.8,2.5,9.9,6.1,18.3,9.3l-0.2,0.4L57.4,84.5L57.4,84.5z"/>
	<ellipse transform="matrix(0.7103 -0.7039 0.7039 0.7103 -37.4627 89.4674)" cx="90" cy="90.2" rx="7.7" ry="7.7"/>
	<path d="M81.2,122.9l-11.6-8.9c2.9-4.1,7.5-7.6,10.2-10.5c2.6-2.3,3.7-6.5,1.6-8.6c-1.5-1.5-4.1-2.4-7-1.6c0.9,0.2,1.7,0.5,2.2,0.7
		l0,0h0c1.8,0.7,2.6,2.7,2,4.4c-0.5,1.3-1.8,2.2-3.2,2.2c-0.4,0-0.8-0.1-1.2-0.2h0c0,0-0.1,0-0.2-0.1c-0.2,0-0.5-0.2-1-0.3
		c-0.6-0.2-1.9-0.4-3.2-0.4h0c-1,0-1.9,0.2-2.7,0.4c-0.7,0.3-1.8,0.6-2.4,1.2c-0.3,0.3-0.5,0.6-0.7,0.9c0.2-0.4,0.4-0.6,0.5-0.9v0
		c0,0,0.1-0.1,0.1-0.2c0.7-0.9,1.4-1.3,2.3-1.7c0.9-0.4,1.9-0.5,2.9-0.5c1.3,0,2.5,0.2,3.4,0.4c0.5,0.1,0.8,0.2,1.1,0.3
		c0.1,0,0.2,0.1,0.3,0.1l0,0c1.4,0.5,3-0.2,3.5-1.6c0.5-1.4-0.2-3-1.6-3.5c-0.2,0-3-1.2-6.7-1.2c-1.5,0-3.2,0.2-4.9,0.9
		c-0.4,0.1-0.7,0.3-1.1,0.5c-1.3,0.7-2.6,1.6-3.6,3c-1.6,2.1-2.6,5-2.8,8.7c0.1,0,0.2,0,0.4,0c0.9,0.1,2,0.2,3.1,0.3
		c-0.2,0.3-0.4,0.7-0.5,1c-1.1-0.1-2.1-0.2-3-0.3v0.6c0,0.5,0,1.1,0,1.8c0,0.9,0.5,1.6,1.2,2.1c-0.9,3.6,0.7,5.3,2.7,6.6l0.1,0
		l4.7,3.6h-3.7c-2.3,0-4.3,1.9-4.3,4.3c0,2.3,1.9,4.3,4.3,4.3h16.3c1.8,0,3.4-1.2,4-2.9C83.2,125.9,82.7,123.9,81.2,122.9
		L81.2,122.9z"/>
</g>
</svg>
