<?xml version="1.0" encoding="utf-8"?>
<!-- Generator: Adobe Illustrator 21.0.0, SVG Export Plug-In . SVG Version: 6.00 Build 0)  -->
<svg version="1.1" id="Calque_1" xmlns="http://www.w3.org/2000/svg" xmlns:xlink="http://www.w3.org/1999/xlink" x="0px" y="0px"
	 viewBox="0 0 105.9 183.4" style="enable-background:new 0 0 105.9 183.4;" xml:space="preserve">
<style type="text/css">
	.st0{fill:none;stroke:#000000;stroke-width:0.4883;stroke-miterlimit:10;}
	.st1{fill:#FFFFFF;}
</style>
<g>
	<path d="M105.7,107.8v71.8c0,2.1-1.7,3.8-3.8,3.8H3.8c-2.1,0-3.8-1.7-3.8-3.8V4c0-2.1,1.7-3.8,3.8-3.8h98.1c2.1,0,3.8,1.7,3.8,3.8
		v71c0,1-0.5,1.8-1.4,2.3l-1.1,0.6c-0.9,0.4-1.4,1.3-1.4,2.3v23.7c0,1.1,0.7,2.1,1.8,2.4l1.4,0.4
		C105.4,106.9,105.7,107.4,105.7,107.8z"/>
	<path class="st0" d="M105.7,107.8v71.8c0,2.1-1.7,3.8-3.8,3.8H3.8c-2.1,0-3.8-1.7-3.8-3.8V4c0-2.1,1.7-3.8,3.8-3.8h98.1
		c2.1,0,3.8,1.7,3.8,3.8v71c0,1-0.5,1.8-1.4,2.3l-1.1,0.6c-0.9,0.4-1.4,1.3-1.4,2.3v23.7c0,1.1,0.7,2.1,1.8,2.4l1.4,0.4
		C105.4,106.9,105.7,107.4,105.7,107.8z"/>
	<path class="st1" d="M90.2,76v61.6L52.1,141L14,137.6V76l8.4-0.7V58.7C22.4,42.3,35.7,29,52.1,29c16.4,0,29.7,13.3,29.7,29.7v16.6
		L90.2,76z M72.8,74.5V58.7c0-11.4-9.3-20.7-20.7-20.7c-11.4,0-20.7,9.3-20.7,20.7v15.8l20.7-1.8L72.8,74.5z M56.6,115.8l-2.5-9.4
		c1.5-0.7,2.5-2.3,2.5-4c0-2.5-2-4.5-4.5-4.5c-2.5,0-4.5,2-4.5,4.5c0,1.8,1.1,3.3,2.6,4l-2.6,9.4h4.5H56.6z"/>
	<path d="M54,106.4l2.5,9.4h-4.5h-4.5l2.6-9.4c-1.5-0.7-2.6-2.3-2.6-4c0-2.5,2-4.5,4.5-4.5s4.5,2,4.5,4.5
		C56.6,104.1,55.5,105.7,54,106.4z"/>
	<path d="M93.2,99h-0.3c-0.7,0-1.3-0.7-1.3-1.3v-3.9c0-0.7,0.7-1.3,1.3-1.3h0.3c0.7,0,1.3,0.7,1.3,1.3v3.9
		C94.5,98.7,93.8,99,93.2,99z"/>
</g>
</svg>
