<?xml version="1.0" encoding="utf-8"?>
<!-- Generator: Adobe Illustrator 21.0.0, SVG Export Plug-In . SVG Version: 6.00 Build 0)  -->
<svg version="1.1" id="Calque_1" xmlns="http://www.w3.org/2000/svg" xmlns:xlink="http://www.w3.org/1999/xlink" x="0px" y="0px"
	 viewBox="0 0 331.3 660.8" style="enable-background:new 0 0 331.3 660.8;" xml:space="preserve">
<g>
	<path d="M331.3,660.9c-110.5,0-220.8,0-331.2,0c0-220.3,0-440.4,0-660.7c110.3,0,220.7,0,331.2,0
		C331.3,220.3,331.3,440.5,331.3,660.9z M319.5,649.1c0-212.5,0-424.8,0-637.2c-102.6,0-205.1,0-307.6,0c0,212.5,0,424.8,0,637.2
		C114.5,649.1,217,649.1,319.5,649.1z"/>
	<path d="M34.5,305.3c0-18.6,0-36.9,0-55.4c86.3,0,172.6,0,259,0c0,18.4,0,36.8,0,55.4c-27.7,0-55.3,0-83,0c2.1,2.9,4.2,5.6,6,8.5
		c5.4,8.7,8.5,18.2,8.2,28.6c-0.2,8.8,0,17.7,0,26.8c23,0,45.9,0,68.9,0c0,18.6,0,37,0,55.6c-22.9,0-45.8,0-68.9,0
		c0,3.9,0,7.7,0,11.8c-0.8-0.5-1.4-0.8-1.9-1.2c-4.9-3.2-9.9-6.4-14.9-9.5c-1-0.6-2.4-1.1-3.6-1.1c-55.8-0.1-111.7,0-167.5,0
		c-0.7,0-1.4,0-2.3,0c0-18.5,0-36.9,0-55.5c55.5,0,110.9,0,166.4,0c0-21.4,0-42.6,0-63.9C145.5,305.3,90.1,305.3,34.5,305.3z"/>
	<path d="M271.8,219.4c0-0.9,0-1.6,0-2.2c0-29.1,0-58.2,0-87.3c0-12.2-4.8-22.2-14.5-29.7c-13-10-29.9-9-42.5,2.3
		c-8,7.2-13.2,16.2-17.3,25.9c-3.9,9.1-5.9,18.7-8.7,28c-4.1,13.9-8.8,27.6-16.2,40.3c-5.8,9.9-13.2,18.4-23.5,24
		c-7.5,4.1-15.6,6-24,7.1c-10.1,1.3-20.1,1.2-30-1.7c-13.8-4.1-25.1-12.1-34.4-22.8c-13.5-15.5-22.1-33.5-25.5-53.8
		c-0.6-3.2-0.8-6.6-0.8-9.9c-0.1-33.2,0-66.5,0-99.7c0-0.5,0-1.1,0-1.9c0.7,0.3,1.2,0.4,1.7,0.7c6.2,2.9,12.4,5.8,18.6,8.6
		c1.2,0.6,1.6,1.2,1.6,2.5c0,25.4,0,50.8,0,76.2c0,15,5.2,27.7,16.6,37.7c7.6,6.7,16.5,10.3,26.7,9.9c9.4-0.4,17.1-4.4,23.7-10.8
		c7-6.8,11.4-15.1,14.9-24.1c3.5-8.9,5.2-18.3,7.1-27.6c2.7-12.7,6-25.3,11.8-37c5.5-11.3,13-20.8,24.1-27.1
		c7.4-4.2,15.3-6.5,23.6-7.8c10.8-1.7,21.5-1.6,32.1,1.4c17.6,4.9,31.4,15.3,41.8,30.1c11.3,16.1,16.4,34.2,16.4,53.8
		c0.1,27.8,0,55.6,0,83.4c0,1.2-0.3,1.9-1.5,2.4c-6.8,2.9-13.6,5.8-20.4,8.7C273,218.9,272.5,219.1,271.8,219.4z"/>
	<path d="M34.5,448.2c4.4,1,8.6,1.9,12.8,2.9c40.9,9.2,81.9,18.5,122.8,27.7c33,7.4,66,14.9,98.9,22.3c1,0.2,2.1,0.2,3.1,0
		c7.1-1.7,14.2-3.5,21.3-5.3c0.5-0.1,1.1-0.2,1.7-0.4c0,0.6,0.1,1.1,0.1,1.6c0,19.7,0,39.3,0,59c0,1.3-0.4,1.7-1.6,2
		c-70.5,17.7-140.9,35.4-211.3,53.1c-15.4,3.9-30.7,7.7-46.1,11.6c-0.5,0.1-1.1,0.2-1.8,0.4c0-0.7-0.1-1.2-0.1-1.7
		c0-19.6,0-39.1,0-58.7c0-1.4,0.5-1.9,1.8-2.2c60-15.1,120.1-30.2,180.1-45.3c0.5-0.1,0.9-0.3,1.8-0.5c-6.7-1.5-13.1-3-19.4-4.5
		c-41-9.4-81.9-18.8-122.9-28c-9.5-2.1-19.1-3.3-28.8-1.3c-1.7,0.3-3.3,1.1-4.9,1.6c-1.1,0.3-2.2,0.6-3.3,0.6
		c-3.5,0.1-4.2-0.7-4.2-4.1c0-9.6,0-19.2,0-28.8C34.5,449.6,34.5,449,34.5,448.2z"/>
</g>
</svg>
