<?xml version="1.0" encoding="utf-8"?>
<!-- Generator: Adobe Illustrator 21.0.0, SVG Export Plug-In . SVG Version: 6.00 Build 0)  -->
<svg version="1.1" id="Calque_1" xmlns="http://www.w3.org/2000/svg" xmlns:xlink="http://www.w3.org/1999/xlink" x="0px" y="0px"
	 viewBox="0 0 105.9 183.4" style="enable-background:new 0 0 105.9 183.4;" xml:space="preserve">
<style type="text/css">
	.st0{fill:#DD0303;}
	.st1{fill:none;stroke:#000000;stroke-width:0.4886;stroke-miterlimit:10;}
	.st2{fill:#FFFFFF;}
	.st3{fill:#B50404;}
	.st4{fill:none;stroke:#000000;stroke-width:4.3974;stroke-miterlimit:10;}
</style>
<g>
	<path class="st0" d="M105.8,107.8v71.8c0,2.1-1.7,3.8-3.8,3.8H3.8c-2.1,0-3.8-1.7-3.8-3.8V3.8C0,1.7,1.7,0,3.8,0H102
		c2.1,0,3.8,1.7,3.8,3.8v71.1c0,1-0.5,1.8-1.4,2.3l-1.1,0.6c-0.9,0.4-1.4,1.3-1.4,2.3v23.8c0,1.1,0.7,2.1,1.8,2.4l1.4,0.4
		C105.5,106.8,105.8,107.3,105.8,107.8L105.8,107.8z"/>
	<path class="st1" d="M105.8,107.8v71.8c0,2.1-1.7,3.8-3.8,3.8H3.8c-2.1,0-3.8-1.7-3.8-3.8V3.8C0,1.7,1.7,0,3.8,0H102
		c2.1,0,3.8,1.7,3.8,3.8v71.1c0,1-0.5,1.8-1.4,2.3l-1.1,0.6c-0.9,0.4-1.4,1.3-1.4,2.3v23.8c0,1.1,0.7,2.1,1.8,2.4l1.4,0.4
		C105.5,106.8,105.8,107.3,105.8,107.8L105.8,107.8z"/>
	<path d="M10.8,50.8V124v4.5H93V124V50.8v-4.5H10.8V50.8z M96.9,42.4v90c0,1.1-0.9,2-2,2c-1.1,0-2-0.9-2-2h-3.9c0,1.1-0.9,2-2,2
		c-1.1,0-2-0.9-2-2h-3.9c0,1.1-0.9,2-2,2c-1.1,0-2-0.9-2-2h-3.9c0,1.1-0.9,2-2,2c-1.1,0-2-0.9-2-2h-3.9c0,1.1-0.9,2-2,2
		c-1.1,0-2-0.9-2-2h-3.9c0,1.1-0.9,2-2,2c-1.1,0-2-0.9-2-2H50c0,1.1-0.9,2-2,2c-1.1,0-2-0.9-2-2h-3.9c0,1.1-0.9,2-2,2
		c-1.1,0-2-0.9-2-2h-3.9c0,1.1-0.9,2-2,2c-1.1,0-2-0.9-2-2h-3.9c0,1.1-0.9,2-2,2c-1.1,0-2-0.9-2-2h-3.9c0,1.1-0.9,2-2,2
		c-1.1,0-2-0.9-2-2h-3.9c0,1.1-0.9,2-2,2c-1.1,0-2-0.9-2-2v-90c0-1.1,0.9-2,2-2c1.1,0,2,0.9,2,2h3.9c0-1.1,0.9-2,2-2
		c1.1,0,2,0.9,2,2h3.9c0-1.1,0.9-2,2-2c1.1,0,2,0.9,2,2h3.9c0-1.1,0.9-2,2-2c1.1,0,2,0.9,2,2h3.9c0-1.1,0.9-2,2-2c1.1,0,2,0.9,2,2
		h3.9c0-1.1,0.9-2,2-2c1.1,0,2,0.9,2,2h3.9c0-1.1,0.9-2,2-2c1.1,0,2,0.9,2,2h3.9c0-1.1,0.9-2,2-2c1.1,0,2,0.9,2,2h3.9
		c0-1.1,0.9-2,2-2c1.1,0,2,0.9,2,2h3.9c0-1.1,0.9-2,2-2c1.1,0,2,0.9,2,2h3.9c0-1.1,0.9-2,2-2c1.1,0,2,0.9,2,2H93c0-1.1,0.9-2,2-2
		C96.1,40.5,96.9,41.3,96.9,42.4z"/>
	<rect x="10.8" y="124" class="st2" width="82.2" height="4.5"/>
	<path class="st2" d="M93,50.8V124H10.8V50.8H93z M84.4,87.4C84.4,69.5,69.9,55,51.9,55C34,55,19.5,69.5,19.5,87.4
		c0,17.9,14.5,32.5,32.5,32.5C69.9,119.9,84.4,105.4,84.4,87.4z"/>
	<rect x="10.8" y="46.3" class="st2" width="82.2" height="4.5"/>
	<path class="st2" d="M78.7,76.1c1.5,3.6,2.3,7.4,2.3,11.3c0,3.9-0.8,7.7-2.3,11.3c-1.5,3.5-3.6,6.6-6.3,9.2
		c-2.7,2.7-5.8,4.8-9.3,6.3c-3.6,1.5-7.4,2.3-11.3,2.3c-3.9,0-7.7-0.8-11.3-2.3c-3.5-1.5-6.6-3.6-9.2-6.3c-2.7-2.7-4.8-5.8-6.3-9.2
		c-1.5-3.6-2.3-7.4-2.3-11.3s0.8-7.7,2.3-11.3c1.4-3.5,3.6-6.6,6.3-9.2c2.7-2.7,5.8-4.8,9.2-6.2c3.6-1.5,7.4-2.3,11.3-2.3
		c3.9,0,7.7,0.8,11.3,2.3c3.5,1.4,6.6,3.6,9.3,6.2C75.2,69.5,77.3,72.7,78.7,76.1z M64.5,89.8c3-3.4,3-9,0-12.5c-3-3.4-7.9-3.4-11,0
		L52.1,79l-1.4-1.7c-1.5-1.7-3.5-2.6-5.5-2.6c-2,0-3.9,0.9-5.5,2.6c-3,3.4-3,9,0,12.5l11.7,13.4c0.4,0.4,1,0.4,1.4,0
		C56.7,98.7,60.6,94.3,64.5,89.8z M53.6,111.4c0-0.9-0.8-1.7-1.7-1.7c-3,0-5.9-0.6-8.6-1.8c-2.7-1.1-5-2.7-7.1-4.8
		c-2-2-3.6-4.4-4.8-7.1c-1.2-2.7-1.8-5.7-1.8-8.6c0-0.9-0.8-1.7-1.7-1.7s-1.7,0.8-1.7,1.7c0,14.2,11.5,25.6,25.6,25.6
		C52.9,113.1,53.6,112.3,53.6,111.4z M34.8,72.7c0.5-0.8,0.2-1.9-0.7-2.3c-0.8-0.5-1.9-0.2-2.3,0.7c-1.9,2.5-3.4,5.6-4.3,8.8
		c-0.2,0.9,0.3,1.8,1.2,2.1c0.9,0.2,1.8-0.3,2.1-1.2C31.6,77.8,33,75,34.8,72.7z"/>
	<path d="M51.9,54.9c17.9,0,32.5,14.5,32.5,32.5c0,17.9-14.5,32.5-32.5,32.5c-17.9,0-32.5-14.5-32.5-32.5
		C19.4,69.5,34,54.9,51.9,54.9z M81,87.4c0-3.9-0.8-7.7-2.3-11.3c-1.5-3.5-3.6-6.6-6.3-9.2c-2.7-2.7-5.8-4.8-9.3-6.2
		c-3.6-1.5-7.4-2.3-11.3-2.3c-3.9,0-7.7,0.8-11.3,2.3c-3.5,1.4-6.6,3.6-9.2,6.2c-2.7,2.7-4.8,5.8-6.3,9.2c-1.5,3.6-2.3,7.4-2.3,11.3
		c0,3.9,0.8,7.7,2.3,11.3c1.4,3.5,3.6,6.6,6.3,9.2c2.7,2.7,5.8,4.8,9.2,6.3c3.6,1.5,7.4,2.3,11.3,2.3c3.9,0,7.7-0.8,11.3-2.3
		c3.5-1.5,6.6-3.6,9.3-6.3c2.7-2.7,4.8-5.8,6.3-9.2C80.2,95.2,81,91.3,81,87.4z"/>
	<path d="M64.5,77.4c3,3.4,3,9,0,12.5c-3.9,4.5-7.8,8.9-11.7,13.3c-0.4,0.4-1,0.4-1.4,0L39.7,89.8c-3-3.4-3-9,0-12.5
		c1.5-1.7,3.5-2.6,5.5-2.6c2,0,4,0.9,5.5,2.6l1.4,1.7l1.4-1.6C56.6,73.9,61.5,73.9,64.5,77.4L64.5,77.4z M63.1,88.2
		c2.3-2.6,2.3-6.7,0-9.3c-2.3-2.6-5.9-2.6-8.1,0l-2.1,2.5c-0.4,0.4-1,0.4-1.4,0L49.3,79c-1.1-1.3-2.6-2-4.1-2c-1.5,0-2.9,0.7-4.1,2
		c-2.3,2.6-2.3,6.7,0,9.3l11,12.5C55.8,96.6,59.5,92.4,63.1,88.2z"/>
	<path class="st3" d="M63.1,79c2.3,2.6,2.3,6.7,0,9.3l-11,12.5l-11-12.5c-2.3-2.6-2.3-6.7,0-9.3c1.1-1.3,2.6-2,4.1-2
		c1.4,0,2.9,0.7,4.1,2l2.2,2.5c0.4,0.4,1,0.4,1.4,0L55,79C57.3,76.4,60.9,76.4,63.1,79z"/>
	<path d="M51.9,109.6c0.9,0,1.7,0.8,1.7,1.7s-0.8,1.7-1.7,1.7c-14.2,0-25.6-11.5-25.6-25.6c0-0.9,0.8-1.7,1.7-1.7
		c0.9,0,1.7,0.8,1.7,1.7c0,3,0.6,5.9,1.8,8.6c1.1,2.7,2.7,5,4.8,7.1c2,2,4.4,3.6,7.1,4.8C46,109.1,48.9,109.6,51.9,109.6z"/>
	<path d="M34.1,70.4c0.8,0.5,1.1,1.5,0.7,2.3c-1.8,2.3-3.2,5.1-3.9,8c-0.2,0.9-1.2,1.4-2.1,1.2c-0.9-0.2-1.4-1.2-1.2-2.1
		c0.9-3.2,2.4-6.3,4.3-8.8C32.2,70.2,33.3,69.9,34.1,70.4z"/>
	<polyline class="st4" points="8.7,50.8 10.8,50.8 93,50.8 94.7,50.8 	"/>
	<polyline class="st4" points="8.7,124 10.8,124 93,124 94.7,124 	"/>
</g>
</svg>
