<?xml version="1.0" encoding="utf-8"?>
<!-- Generator: Adobe Illustrator 21.0.0, SVG Export Plug-In . SVG Version: 6.00 Build 0)  -->
<svg version="1.1" id="Calque_1" xmlns="http://www.w3.org/2000/svg" xmlns:xlink="http://www.w3.org/1999/xlink" x="0px" y="0px"
	 viewBox="0 0 105.9 183.4" style="enable-background:new 0 0 105.9 183.4;" xml:space="preserve">
<style type="text/css">
	.st0{fill:#003DFF;}
	.st1{fill:none;stroke:#000000;stroke-width:0.4886;stroke-miterlimit:10;}
	.st2{fill:#FCFCFC;}
	.st3{fill:#6D6D6D;}
	.st4{fill:#565656;}
	.st5{fill:#424141;}
	.st6{fill:#C4C4C4;}
	.st7{fill:#FFC50B;}
	.st8{fill:none;stroke:#000000;stroke-width:0.9772;stroke-miterlimit:10;}
</style>
<g>
	<path class="st0" d="M105.8,107.8v71.8c0,2.1-1.7,3.8-3.8,3.8H3.8c-2.1,0-3.8-1.7-3.8-3.8V3.8C0,1.7,1.7,0,3.8,0H102
		c2.1,0,3.8,1.7,3.8,3.8v71.1c0,1-0.5,1.8-1.4,2.3l-1.1,0.6c-0.9,0.4-1.4,1.3-1.4,2.3v23.8c0,1.1,0.7,2.1,1.8,2.4l1.4,0.4
		C105.5,106.8,105.8,107.3,105.8,107.8z"/>
	<path class="st1" d="M105.8,107.8v71.8c0,2.1-1.7,3.8-3.8,3.8H3.8c-2.1,0-3.8-1.7-3.8-3.8V3.8C0,1.7,1.7,0,3.8,0H102
		c2.1,0,3.8,1.7,3.8,3.8v71.1c0,1-0.5,1.8-1.4,2.3l-1.1,0.6c-0.9,0.4-1.4,1.3-1.4,2.3v23.8c0,1.1,0.7,2.1,1.8,2.4l1.4,0.4
		C105.5,106.8,105.8,107.3,105.8,107.8z"/>
	<path class="st2" d="M94.2,128.3H11.6c-2.6,0-4.7-2.1-4.7-4.7V12.3c0-2.6,2.1-4.7,4.7-4.7h82.6c2.6,0,4.7,2.1,4.7,4.7v111.3
		C98.9,126.2,96.8,128.3,94.2,128.3z"/>
	<path class="st1" d="M94.2,128.3H11.6c-2.6,0-4.7-2.1-4.7-4.7V12.3c0-2.6,2.1-4.7,4.7-4.7h82.6c2.6,0,4.7,2.1,4.7,4.7v111.3
		C98.9,126.2,96.8,128.3,94.2,128.3z"/>
	<path d="M88.7,41c-0.2,14.2-5.4,29.9-14.3,38.9c-1.6,1.6-3.4,2.9-5.2,3.8c-1.9,0.9-3.9,1.4-5.7,1.8c-1.4,0.3-3.1,0.7-4.8,0.9
		c-1.2,0.2-2.5,0.5-3.9,1c-1.3,0.5-2.6,1.1-3.9,1.8c-3,1.7-5.8,3.9-8.4,6.7c-3.2,3.1-6.1,6.3-8.4,9.4c-2.7,3.6-5,7.5-7.2,11.4
		l-0.5,0.9c-0.7,1.2-1.4,2.4-2.1,3.7c-0.1,0.2-0.2,0.4-0.4,0.5c-0.4,0.5-0.7,1-0.9,1.6c-0.1,0.3-0.2,0.7-0.5,0.9
		c-0.6,0.5-1.5,0.4-2.1,0l-0.2-0.1c-1.9-1.5-3-3.8-3-5.9c0-0.4,0-0.8,0.2-1.2c0.2-0.3,0.4-0.5,0.6-0.7l0.3-0.3l0.2-0.2
		c2.9-3.6,5.6-7.2,8.2-10.9c3.4-4.6,6.6-9.4,9.6-14.2c2-4.3,3.7-8.8,4.8-13.3c1.3-5,2-10.2,2.2-15.3v-0.2C43,51.7,44.7,42,48.7,31.8
		c2.3-5.7,4.7-9.9,7.7-13.6c2.7-3.2,8-8.4,13.8-6.4c4.1,0.9,7.9,2.9,10.8,5.5c1.3,1.2,2.5,2.5,3.6,4.2C87.6,26.8,88.8,33.7,88.7,41z
		 M79.1,52c2.1-8.6,2.3-16.7,1.1-22.3c-0.6-5.4-2.2-10.4-5.4-13.8c-2-2.1-4.2-3.1-6.7-3c-5.3,0.3-9.8,5.6-11.6,7.9
		C52.7,26.1,49.9,32,47.6,40c-1.3,4.3-2.5,11-2.9,17.8c-0.1,1.4-0.1,2.9-0.1,4.3c0.1,8.8,2,15.2,5.7,19.2c2.3,2.5,5,3.4,7.9,2.8
		c4.8-1,8.8-5.7,10.3-7.8c3.4-4.5,5.9-9.5,8-16.1C77.6,57.7,78.4,54.9,79.1,52z M50,86c0.2-0.1,0.3-0.4,0.3-0.6c0-0.1,0-0.2-0.1-0.4
		c-0.2-0.3-0.6-0.4-0.9-0.2c-1.5,0.9-2.9,2-4.3,3.2c-1.6,1.4-3,2.9-4.3,4.6c-0.2,0.3-0.2,0.7,0.1,0.9c0.3,0.2,0.7,0.2,0.9-0.1
		c1.3-1.6,2.7-3,4.2-4.4C47.2,87.9,48.6,86.9,50,86L50,86z M40,95.5c0.1-0.1,0.2-0.3,0.2-0.4c0-0.2-0.1-0.4-0.2-0.5
		c-0.3-0.2-0.7-0.2-0.9,0.1l-1,1.2c-0.2,0.3-0.2,0.7,0.1,0.9c0.3,0.2,0.7,0.2,0.9-0.1L40,95.5z"/>
	<path d="M80.2,29.6c1.3,5.7,1,13.8-1.1,22.3c-0.7,2.9-1.6,5.7-2.5,8.2c0.3-1,0.6-2,0.9-3.1c1.4-5,2.9-12.8,3-20.6
		C80.6,34.2,80.5,31.9,80.2,29.6z"/>
	<path d="M80.5,36.5c-0.1,7.8-1.6,15.6-3,20.6c-0.3,1.1-0.6,2.1-0.9,3.1C72.4,71.1,66.2,78.3,61.1,77c-6.3-1.5-8.3-15.2-4.6-30.5
		c3.7-15.4,11.8-26.6,18-25.1c2.7,0.7,4.7,3.7,5.7,8.2C80.5,31.9,80.6,34.2,80.5,36.5z M76.3,51.4c2.9-11.8,1.3-22.2-3.5-23.4
		s-10.9,7.5-13.8,19.2c-2.9,11.8-1.3,22.2,3.5,23.4S73.4,63.2,76.3,51.4z"/>
	<path class="st3" d="M72.7,28c4.8,1.2,6.4,11.6,3.5,23.4c-2.9,11.8-9,20.4-13.8,19.2c-4.8-1.2-6.4-11.6-3.5-23.4S67.9,26.9,72.7,28
		z M72.6,50.9c1.8-7.3,0.8-13.8-2.2-14.5c-3-0.7-6.8,4.6-8.6,11.9c-1.8,7.3-0.8,13.8,2.2,14.5C67,63.6,70.9,58.2,72.6,50.9z"/>
	<path class="st4" d="M76.6,60.2c-2.1,6.5-4.6,11.6-8,16.1c-1.5,2-5.5,6.8-10.3,7.8c-3,0.6-5.7-0.4-7.9-2.8
		c-3.7-3.9-5.6-10.4-5.7-19.2c0-1.4,0-2.9,0.1-4.3c0.4-6.8,1.6-13.4,2.9-17.8c2.3-8,5-13.9,8.9-19.2c1.7-2.3,6.3-7.7,11.6-7.9
		c2.5-0.1,4.7,0.9,6.7,3c3.1,3.4,4.7,8.3,5.4,13.8c-1-4.5-2.9-7.5-5.7-8.2c-6.3-1.5-14.3,9.7-18,25.1c-3.7,15.4-1.6,29,4.6,30.5
		C66.2,78.3,72.4,71.1,76.6,60.2L76.6,60.2z M68.3,19.4c-0.2-0.1-0.4-0.2-0.7-0.3c-3.9-0.9-10.4,10.5-14.2,25.4
		c-3.9,14.9-3.7,27.8,0.2,28.7c0.2,0,0.5,0,0.7,0c-3.3-2.2-3.7-14.4,0-28.5C58,30.6,64.3,19.9,68.3,19.4z"/>
	<path d="M70.4,36.4c3,0.7,3.9,7.2,2.2,14.5c-1.8,7.3-5.6,12.6-8.6,11.9c-3-0.7-3.9-7.2-2.2-14.5C63.6,41,67.5,35.7,70.4,36.4z
		 M71.1,50.6c1.3-5.3,0.5-10-1.6-10.6c-2.2-0.5-5,3.4-6.2,8.7c-1.3,5.3-0.5,10,1.6,10.6C67.1,59.8,69.9,55.9,71.1,50.6z"/>
	<path class="st5" d="M69.6,40c2.2,0.5,2.9,5.2,1.6,10.6c-1.3,5.3-4.1,9.2-6.2,8.7c-2.2-0.5-2.9-5.2-1.6-10.6
		C64.6,43.3,67.4,39.5,69.6,40z"/>
	<path d="M67.7,19.1c0.2,0,0.5,0.2,0.7,0.3c-3.9,0.5-10.3,11.3-14,25.3c-3.6,14-3.2,26.3,0,28.5c-0.2,0-0.5,0-0.7,0
		c-3.9-0.9-4.1-13.7-0.2-28.7C57.3,29.6,63.7,18.2,67.7,19.1z"/>
	<path class="st6" d="M50.3,85.4c0,0.2-0.1,0.4-0.3,0.6c-1.4,0.9-2.8,1.9-4.1,3c-1.5,1.3-2.9,2.8-4.2,4.4c-0.2,0.3-0.7,0.4-0.9,0.1
		c-0.3-0.2-0.4-0.7-0.1-0.9C42,91,43.4,89.4,45,88c1.4-1.2,2.8-2.3,4.3-3.2c0.3-0.2,0.7-0.1,0.9,0.2C50.3,85.1,50.3,85.3,50.3,85.4z
		"/>
	<path class="st6" d="M40.1,95c0,0.2,0,0.3-0.2,0.4l-1,1.2c-0.2,0.3-0.7,0.3-0.9,0.1c-0.3-0.2-0.3-0.7-0.1-0.9l1-1.2
		c0.2-0.3,0.7-0.3,0.9-0.1C40.1,94.6,40.1,94.8,40.1,95z"/>
	<polygon class="st7" points="72,143.3 77,142.2 79.7,137.9 82.3,142.2 87.3,143.5 84,147.3 84.3,152.4 79.6,150.4 74.9,152.3 
		75.3,147.2 	"/>
	<polygon class="st8" points="72,143.3 77,142.2 79.7,137.9 82.3,142.2 87.3,143.5 84,147.3 84.3,152.4 79.6,150.4 74.9,152.3 
		75.3,147.2 	"/>
	<polygon class="st7" points="54.4,143.3 59.4,142.2 62.1,137.9 64.7,142.2 69.7,143.5 66.3,147.3 66.7,152.4 62,150.4 57.3,152.3 
		57.7,147.2 	"/>
	<polygon class="st8" points="54.4,143.3 59.4,142.2 62.1,137.9 64.7,142.2 69.7,143.5 66.3,147.3 66.7,152.4 62,150.4 57.3,152.3 
		57.7,147.2 	"/>
	<polygon class="st7" points="36.1,143.3 41.1,142.2 43.8,137.9 46.4,142.2 51.4,143.5 48,147.3 48.4,152.4 43.7,150.4 39,152.3 
		39.4,147.2 	"/>
	<polygon class="st8" points="36.1,143.3 41.1,142.2 43.8,137.9 46.4,142.2 51.4,143.5 48,147.3 48.4,152.4 43.7,150.4 39,152.3 
		39.4,147.2 	"/>
	<polygon class="st7" points="18.6,143.3 23.5,142.2 26.2,137.9 28.9,142.2 33.8,143.5 30.5,147.3 30.8,152.4 26.1,150.4 
		21.4,152.3 21.9,147.2 	"/>
	<polygon class="st8" points="18.6,143.3 23.5,142.2 26.2,137.9 28.9,142.2 33.8,143.5 30.5,147.3 30.8,152.4 26.1,150.4 
		21.4,152.3 21.9,147.2 	"/>
</g>
</svg>
