<?xml version="1.0" encoding="utf-8"?>
<!-- Generator: Adobe Illustrator 21.0.0, SVG Export Plug-In . SVG Version: 6.00 Build 0)  -->
<svg version="1.1" id="Calque_1" xmlns="http://www.w3.org/2000/svg" xmlns:xlink="http://www.w3.org/1999/xlink" x="0px" y="0px"
	 viewBox="0 0 106.1 183.4" style="enable-background:new 0 0 106.1 183.4;" xml:space="preserve">
<style type="text/css">
	.st0{fill:#FFFFFF;}
	.st1{fill:none;stroke:#000000;stroke-width:0.4872;stroke-miterlimit:10;}
</style>
<g id="XMLID_1_">
	<g>
		<path class="st0" d="M105.8,4.1v175.3c0,2.1-1.7,3.8-3.8,3.8H4.1c-2.1,0-3.8-1.7-3.8-3.8v-70.9c0-1,0.6-1.8,1.4-2.3l1.1-0.6
			c0.9-0.4,1.4-1.3,1.4-2.3V79.7c0-1.1-0.7-2.1-1.7-2.4l-1.4-0.4c-0.5-0.2-0.8-0.7-0.8-1.1V4.1C0.3,2,2,0.3,4.1,0.3H102
			C104.1,0.3,105.8,2,105.8,4.1z"/>
	</g>
	<g>
		<path class="st1" d="M0.3,75.7V4.1C0.3,2,2,0.3,4.1,0.3H102c2.1,0,3.8,1.7,3.8,3.8v175.3c0,2.1-1.7,3.8-3.8,3.8H4.1
			c-2.1,0-3.8-1.7-3.8-3.8v-70.9c0-1,0.6-1.8,1.4-2.3l1.1-0.6c0.9-0.4,1.4-1.3,1.4-2.3V79.7c0-1.1-0.7-2.1-1.7-2.4l-1.4-0.4
			C0.6,76.6,0.3,76.2,0.3,75.7z"/>
	</g>
</g>
</svg>
