<?xml version="1.0" encoding="utf-8"?>
<!-- Generator: Adobe Illustrator 21.0.0, SVG Export Plug-In . SVG Version: 6.00 Build 0)  -->
<svg version="1.1" id="Calque_1" xmlns="http://www.w3.org/2000/svg" xmlns:xlink="http://www.w3.org/1999/xlink" x="0px" y="0px"
	 viewBox="0 0 105.9 183.4" style="enable-background:new 0 0 105.9 183.4;" xml:space="preserve">
<style type="text/css">
	.st0{fill:#E0E0E0;}
	.st1{fill:none;stroke:#000000;stroke-width:0.4886;stroke-miterlimit:10;}
	.st2{fill:#FFFFFF;}
</style>
<g>
	<path class="st0" d="M105.8,107.8v71.8c0,2.1-1.7,3.8-3.8,3.8H3.8c-2.1,0-3.8-1.7-3.8-3.8V3.8C0,1.7,1.7,0,3.8,0H102
		c2.1,0,3.8,1.7,3.8,3.8v71.1c0,1-0.5,1.8-1.4,2.3l-1.1,0.6c-0.9,0.4-1.4,1.3-1.4,2.3v23.8c0,1.1,0.7,2.1,1.8,2.4l1.4,0.4
		C105.5,106.8,105.8,107.3,105.8,107.8z"/>
	<path class="st1" d="M105.8,107.8v71.8c0,2.1-1.7,3.8-3.8,3.8H3.8c-2.1,0-3.8-1.7-3.8-3.8V3.8C0,1.7,1.7,0,3.8,0H102
		c2.1,0,3.8,1.7,3.8,3.8v71.1c0,1-0.5,1.8-1.4,2.3l-1.1,0.6c-0.9,0.4-1.4,1.3-1.4,2.3v23.8c0,1.1,0.7,2.1,1.8,2.4l1.4,0.4
		C105.5,106.8,105.8,107.3,105.8,107.8z"/>
	<path class="st2" d="M97.5,82.2c0.8,0.7,0.8,1.9,0.1,2.6l-16.7,18.8c-0.5,0.6-1.3,0.8-2,0.5L58.1,97c-1.1-0.4-2.2,0.4-2.2,1.5
		l-0.9,11.7c-0.1,0.8,0.4,1.5,1.2,1.7l21.6,7.1c0.9,0.3,1.4,1.2,1.3,2.1l-1.2,6.1c0,0.1,0,0.1-0.1,0.2c-0.3,1-1.3,1.5-2.3,1.2
		l-28.2-8.4c-0.7-0.2-1.3-0.9-1.3-1.7l-1.2-20.3c0-0.4-0.2-0.8-0.5-1.1L31,84.7c-0.9-0.8-2.3-0.5-2.8,0.6l-2.4,6.4
		c-0.3,0.8-1.1,1.3-2,1.2L6.5,91c-0.1,0-0.3,0-0.4-0.1c-1-0.3-1.5-1.4-1.2-2.4l1.8-5.4C7,82.3,7.8,81.8,8.6,82l11.6,2
		c0.9,0.2,1.7-0.4,1.9-1.2l1.9-6.3c0.3-1-0.4-2-1.5-2.2c-0.6-0.1-1.2-0.2-1.8-0.4c-4.6-1.6-7-6.6-5.5-11.2c1.6-4.6,6.6-7,11.1-5.5
		c3.6,1.2,5.9,4.6,6,8.2c0,1.3,1.3,2.1,2.4,1.6l18.4-8.6c0.5-0.2,1.2-0.2,1.7,0.1l15,8.3c0.2,0.1,0.4,0.3,0.6,0.5
		c0.6,0.8,0.4,2-0.4,2.6l-4,3c-0.7,0.5-1.6,0.5-2.2,0l-9-6.6c-0.5-0.4-1.3-0.4-1.8-0.1l-8.5,4.8c-1,0.6-1.2,2-0.2,2.8l16.2,13.3
		c0.1,0.1,0.3,0.2,0.5,0.3l15.1,5.8c0.6,0.2,1.4,0.1,1.8-0.4l12.5-13c0.6-0.6,1.5-0.7,2.2-0.3l4.4,2.4C97.3,82,97.4,82.1,97.5,82.2z
		"/>
	<path class="st2" d="M99,80.5c1.7,1.5,1.9,4.2,0.3,5.9l-16.7,18.7c-1.1,1.2-2.9,1.7-4.5,1.2l-18-6.2c-1.1-0.4-2.2,0.4-2.2,1.5
		l-0.5,6.9c-0.1,0.8,0.4,1.5,1.2,1.7l19.8,6.5c2,0.7,3.2,2.7,2.8,4.8l-1.2,6.1c0,0.1-0.1,0.3-0.1,0.4c-0.7,2.2-3,3.5-5.2,2.8
		l-28.2-8.4c-1.7-0.5-2.8-2-3-3.7l-1.1-19.4c0-0.4-0.2-0.8-0.5-1.1l-9.9-9.4c-0.9-0.8-2.3-0.5-2.8,0.6L28,92.5
		c-0.7,1.8-2.5,2.9-4.4,2.7L6.2,93.3c-0.3,0-0.6-0.1-0.8-0.2C3.2,92.4,2,90,2.7,87.8l2.4-7.3c0.3-0.8,1.1-1.3,1.9-1.1l11.5,2
		c0.9,0.1,1.7-0.4,1.9-1.2l0.6-2c0.3-0.9-0.2-1.8-1.1-2.1c-4.1-1.4-7-5.1-7.4-9.5c-0.6-6.1,4-11.5,10.1-12c5.4-0.5,10.3,3,11.7,8
		c0.3,1,1.4,1.5,2.4,1.1l15.6-7.3c1.2-0.6,2.6-0.5,3.8,0.1l15,8.3c0.5,0.3,1,0.7,1.3,1.1c1.4,1.8,1,4.5-0.8,5.8l-4,3
		c-1.5,1.1-3.5,1.1-5,0l-7.7-5.7c-0.5-0.4-1.3-0.4-1.8-0.1l-4.3,2.4c-1,0.6-1.2,2-0.2,2.8l13.3,10.9c0.1,0.1,0.3,0.2,0.5,0.3
		l13.3,5.1c0.6,0.2,1.4,0.1,1.8-0.4l11.4-11.9c1.3-1.4,3.4-1.7,5-0.8l4.4,2.4C98.5,80.1,98.8,80.3,99,80.5z M97.6,84.8
		c0.7-0.8,0.6-1.9-0.1-2.6c-0.1-0.1-0.2-0.2-0.3-0.2l-4.4-2.4c-0.7-0.4-1.7-0.3-2.2,0.3L78,92.8c-0.5,0.5-1.2,0.7-1.8,0.4l-15.1-5.8
		c-0.2-0.1-0.3-0.2-0.5-0.3L44.5,73.9c-0.9-0.8-0.8-2.2,0.2-2.8l8.5-4.8c0.6-0.3,1.3-0.3,1.8,0.1l9,6.6c0.6,0.5,1.5,0.5,2.2,0l4-3
		c0.8-0.6,1-1.8,0.4-2.6c-0.2-0.2-0.4-0.4-0.6-0.5l-15-8.3c-0.5-0.3-1.1-0.3-1.7-0.1l-18.4,8.6c-1.1,0.5-2.4-0.3-2.4-1.6
		c0-3.6-2.3-7-6-8.2c-4.6-1.6-9.6,0.9-11.1,5.5c-1.6,4.6,0.9,9.6,5.5,11.2c0.6,0.2,1.2,0.3,1.8,0.4c1.1,0.1,1.8,1.2,1.5,2.2
		l-1.9,6.3c-0.2,0.8-1.1,1.3-1.9,1.2L8.6,82c-0.8-0.1-1.6,0.3-1.9,1.1l-1.8,5.4c-0.3,1,0.2,2,1.2,2.4C6.2,91,6.4,91,6.5,91l17.4,1.9
		c0.9,0.1,1.7-0.4,2-1.2l2.4-6.4c0.4-1.1,1.9-1.5,2.8-0.6l13.1,12.4c0.3,0.3,0.5,0.7,0.5,1.1l1.2,20.3c0.1,0.8,0.6,1.5,1.3,1.7
		l28.2,8.4c1,0.3,2-0.3,2.3-1.2c0-0.1,0-0.1,0.1-0.2l1.2-6.1c0.2-0.9-0.4-1.8-1.3-2.1l-21.6-7.1c-0.7-0.2-1.2-1-1.2-1.7l0.9-11.7
		c0.1-1.1,1.2-1.8,2.2-1.5l20.9,7.1c0.7,0.2,1.5,0,2-0.5L97.6,84.8z"/>
	<path class="st1" d="M20.8,73.9c-4.6-1.6-7-6.6-5.5-11.2c1.6-4.6,6.6-7,11.1-5.5c3.6,1.2,5.9,4.6,6,8.2c0,1.3,1.3,2.1,2.4,1.6
		l18.4-8.6c0.5-0.2,1.2-0.2,1.7,0.1l15,8.3c0.2,0.1,0.4,0.3,0.6,0.5c0.6,0.8,0.4,2-0.4,2.6l-4,3c-0.7,0.5-1.6,0.5-2.2,0l-9-6.6
		c-0.5-0.4-1.3-0.4-1.8-0.1l-8.5,4.8c-1,0.6-1.2,2-0.2,2.8l16.2,13.3c0.1,0.1,0.3,0.2,0.5,0.3l15.1,5.8c0.6,0.2,1.4,0.1,1.8-0.4
		l12.5-13c0.6-0.6,1.5-0.7,2.2-0.3l4.4,2.4c0.1,0.1,0.2,0.2,0.3,0.2c0.8,0.7,0.8,1.9,0.1,2.6l-16.7,18.8c-0.5,0.6-1.3,0.8-2,0.5
		L58.1,97c-1.1-0.4-2.2,0.4-2.2,1.5l-0.9,11.7c-0.1,0.8,0.4,1.5,1.2,1.7l21.6,7.1c0.9,0.3,1.4,1.2,1.3,2.1l-1.2,6.1
		c0,0.1,0,0.1-0.1,0.2c-0.3,1-1.3,1.5-2.3,1.2l-28.2-8.4c-0.7-0.2-1.3-0.9-1.3-1.7l-1.2-20.3c0-0.4-0.2-0.8-0.5-1.1L31,84.7
		c-0.9-0.8-2.3-0.5-2.8,0.6l-2.4,6.4c-0.3,0.8-1.1,1.3-2,1.2L6.5,91c-0.1,0-0.3,0-0.4-0.1c-1-0.3-1.5-1.4-1.2-2.4l1.8-5.4
		C7,82.3,7.8,81.8,8.6,82l11.6,2c0.9,0.2,1.7-0.4,1.9-1.2l1.9-6.3c0.3-1-0.4-2-1.5-2.2C22,74.3,21.4,74.1,20.8,73.9z"/>
	<path class="st1" d="M21.1,78.2l-0.6,2c-0.2,0.8-1.1,1.3-1.9,1.2l-11.5-2c-0.8-0.1-1.6,0.3-1.9,1.1l-2.4,7.3
		C2,90,3.2,92.4,5.4,93.1c0.3,0.1,0.5,0.2,0.8,0.2l17.4,1.9c1.9,0.2,3.7-0.9,4.4-2.7l1.2-3.1c0.4-1.1,1.9-1.5,2.8-0.6l9.9,9.4
		c0.3,0.3,0.5,0.7,0.5,1.1l1.1,19.4c0.1,1.7,1.3,3.2,3,3.7l28.2,8.4c2.2,0.7,4.5-0.6,5.2-2.8c0-0.1,0.1-0.3,0.1-0.4l1.2-6.1
		c0.4-2.1-0.8-4.1-2.8-4.8l-19.8-6.5c-0.7-0.2-1.2-1-1.2-1.7l0.5-6.9c0.1-1.1,1.2-1.8,2.2-1.5l18,6.2c1.6,0.5,3.3,0.1,4.5-1.2
		l16.7-18.7c1.5-1.7,1.4-4.3-0.3-5.9c-0.2-0.2-0.5-0.4-0.8-0.5l-4.4-2.4c-1.6-0.9-3.7-0.6-5,0.8L77.4,90.1c-0.5,0.5-1.2,0.7-1.8,0.4
		l-13.3-5.1c-0.2-0.1-0.3-0.2-0.5-0.3L48.6,74.3c-0.9-0.8-0.8-2.2,0.2-2.8l4.3-2.4c0.6-0.3,1.3-0.3,1.8,0.1l7.7,5.7
		c1.5,1.1,3.5,1.1,5,0l4-3c1.8-1.4,2.2-4,0.8-5.8c-0.4-0.5-0.8-0.9-1.3-1.1l-15-8.3c-1.2-0.6-2.6-0.7-3.8-0.1l-15.6,7.3
		c-1,0.4-2.1-0.1-2.4-1.1c-1.4-5-6.3-8.5-11.7-8c-6.1,0.5-10.6,5.9-10.1,12C13,71,16,74.7,20,76.1C20.9,76.4,21.4,77.3,21.1,78.2z"
		/>
</g>
</svg>
