<?xml version="1.0" encoding="utf-8"?>
<!-- Generator: Adobe Illustrator 21.0.0, SVG Export Plug-In . SVG Version: 6.00 Build 0)  -->
<svg version="1.1" id="Calque_1" xmlns="http://www.w3.org/2000/svg" xmlns:xlink="http://www.w3.org/1999/xlink" x="0px" y="0px"
	 viewBox="0 0 105.9 183.4" style="enable-background:new 0 0 105.9 183.4;" xml:space="preserve">
<style type="text/css">
	.st0{fill:#FFC408;}
	.st1{fill:none;stroke:#000000;stroke-width:0.4886;stroke-miterlimit:10;}
	.st2{fill:#136D00;}
	.st3{fill:#161616;}
	.st4{fill:#8B8C85;}
	.st5{fill:#5A5A5B;}
	.st6{fill:#3E8A96;}
</style>
<g>
	<path class="st0" d="M105.8,107.8v71.8c0,2.1-1.7,3.8-3.8,3.8H3.8c-2.1,0-3.8-1.7-3.8-3.8V3.8C0,1.7,1.7,0,3.8,0H102
		c2.1,0,3.8,1.7,3.8,3.8v71.1c0,1-0.5,1.8-1.4,2.3l-1.1,0.6c-0.9,0.4-1.4,1.3-1.4,2.3v23.8c0,1.1,0.7,2.1,1.8,2.4l1.4,0.4
		C105.5,106.8,105.8,107.3,105.8,107.8L105.8,107.8z"/>
	<path class="st1" d="M105.8,107.8v71.8c0,2.1-1.7,3.8-3.8,3.8H3.8c-2.1,0-3.8-1.7-3.8-3.8V3.8C0,1.7,1.7,0,3.8,0H102
		c2.1,0,3.8,1.7,3.8,3.8v71.1c0,1-0.5,1.8-1.4,2.3l-1.1,0.6c-0.9,0.4-1.4,1.3-1.4,2.3v23.8c0,1.1,0.7,2.1,1.8,2.4l1.4,0.4
		C105.5,106.8,105.8,107.3,105.8,107.8L105.8,107.8z"/>
	<path class="st2" d="M74.4,32H44v-5.5c0-6.1-5-8.3-8.3-8.3H21.9c-1.5,0-2.8,1.3-2.8,2.8c0,1.5,1.3,2.8,2.8,2.8h13.8
		c1.3,0,2.8,0.5,2.8,2.8V32H8.1c-1.5,0-2.8,1.3-2.8,2.8c0,1.5,1.3,2.8,2.8,2.8h41.5v5.5c0,2.2-1.5,2.7-2.8,2.8H33
		c-1.5,0-2.8,1.3-2.8,2.8s1.3,2.8,2.8,2.8h13.8c3.3,0,8.3-2.2,8.3-8.3v-5.5h19.3v24.9h-8.3V57H57c-0.7,0-1.4,0.6-1.4,1.4
		c0,0.8,0.6,1.4,1.4,1.4h6.4v2.8H44c-0.8,0-1.4,0.6-1.4,1.4c0,0.7,0.6,1.4,1.4,1.4h13.8V68h-6.4c-0.7,0-1.4,0.6-1.4,1.4
		c0,0.8,0.6,1.4,1.4,1.4h9.1v-5.5h13.8v19.3h2.8V7.2h-2.8L74.4,32L74.4,32z"/>
	<path class="st3" d="M92.1,20c6.6,0,11.9,5.3,11.9,11.9c0,6.6-5.3,11.9-11.9,11.9c-6.6,0-11.9-5.3-11.9-11.9
		C80.2,25.3,85.5,20,92.1,20z M97.1,31.9c0-2.8-2.3-5-5-5c-2.8,0-5,2.3-5,5c0,2.8,2.3,5,5,5C94.9,36.9,97.1,34.6,97.1,31.9z"/>
	<path d="M91.6,7.9c0,0,2.1,2.6,2.9,9.4c0,0.2,0,0.5,0.1,0.8c-0.8-0.2-1.6-0.2-2.5-0.2c-7.7,0-13.9,6.3-13.9,13.9
		c0,7.7,6.3,13.9,13.9,13.9c1.4,0,2.7-0.2,4-0.6c0.1,2.5,0.2,4,0.2,4l0.8,74.3l-0.2,3.4c-1.4-0.5-3-0.8-4.6-0.8
		c-7.7,0-13.9,6.3-13.9,13.9c0,7.7,6.3,13.9,13.9,13.9c0.9,0,1.9-0.1,2.8-0.3l-0.1,1.7l-1.8,18.2c-5.9,8.4-20.9,2.4-20.9,2.4
		s-1.8-18.4-2-18.8c-0.2-0.4-12.1-35-12.1-35s-3.3-10-3.4-23.5c-0.2-13.5,2.5-17.8,2.5-17.8l1-2l1,0.4l11.8-17.2
		c0,0-0.4-3.6-0.7-6.8v0c0,0-0.2-1.2-0.3-3.3c0-0.6,0-1,0-1.2c0-0.1,0.1-0.2,0-0.1l0,0.1l-0.1,0.1c-0.2-3.4-0.2-8.7,0.3-15.1
		c1-11.8,2.2-29.2,4.2-29.3c2-0.1,9.5,1.1,9.5,1.1L84,5.5h3.1l0.2,2.4L91.6,7.9L91.6,7.9z M90.8,73c-0.1-5.4-0.2-10.7-0.4-16.1
		c-0.2,5.4-0.2,10.7-0.3,16.1l-0.2,16.1c0,2.7-0.1,5.4-0.1,8.1v8.1l0,15.4h-0.6c-0.4,0-0.9,0.1-1.3,0.2c-0.4,0.1-0.9,0.2-1.3,0.2
		c-0.4,0.1-0.9,0.2-1.3,0.4c-0.4,0.2-0.9,0.3-1.3,0.5c-0.4,0.2-0.8,0.4-1.2,0.6c-0.4,0.2-0.7,0.4-1,0.7l-0.2-13.3l-0.2-7.4L81.2,95
		L81,87.6c-0.1-2.5-0.1-4.9-0.2-7.4c-0.2-4.9-0.3-9.9-0.5-14.8c-0.1,4.9-0.1,9.9-0.1,14.8c0,2.5,0,4.9,0,7.4l0,7.4v7.4l0.1,7.4
		l0.2,14.8v1.7l1.3-1.3c0.1-0.1,0.3-0.2,0.4-0.4l0.5-0.4c0.3-0.2,0.7-0.4,1-0.6c0.4-0.2,0.7-0.4,1.1-0.5c0.4-0.2,0.7-0.3,1.1-0.4
		c0.4-0.1,0.8-0.2,1.2-0.3c0.4-0.1,0.8-0.2,1.2-0.2c0.4-0.1,0.8-0.1,1.2-0.1c0.4,0,0.8,0,1.3,0l0.7,0v-0.7l-0.1-16.1l0-8.1
		c0-2.7-0.1-5.4-0.1-8.1L90.8,73L90.8,73z M71.3,112.2l-0.1-43.1L58.8,85.1c-1.7,14.9,2.4,30.3,2.4,30.3L71.3,112.2z M70,123.5
		l0.1-3.4l-6.8,2.3l0.8,2.6L70,123.5z M69.9,128.7l0-2.5l-5.2,1.1l0.7,2.5L69.9,128.7z M69.8,133.7v-2.2l-3.6,0.5l0.7,2.2
		L69.8,133.7z M69.6,139.8v-3.2l-1.9,0.3l0.9,3L69.6,139.8z"/>
	<path class="st4" d="M92.1,26.9c2.8,0,5,2.2,5,5c0,2.8-2.2,5-5,5c-2.8,0-5-2.2-5-5C87.1,29.1,89.3,26.9,92.1,26.9z"/>
	<path class="st5" d="M90.4,56.9c0.2,5.4,0.3,10.7,0.4,16.1L91,89.1c0,2.7,0.1,5.4,0.1,8.1l0,8.1l0.1,16.1v0.7l-0.7,0
		c-0.4,0-0.8,0-1.3,0c-0.4,0-0.8,0.1-1.2,0.1c-0.4,0.1-0.8,0.1-1.2,0.2c-0.4,0.1-0.8,0.2-1.2,0.3c-0.4,0.2-0.8,0.3-1.1,0.4
		c-0.4,0.2-0.7,0.3-1.1,0.5c-0.4,0.2-0.7,0.4-1,0.6l-0.5,0.4c-0.2,0.1-0.3,0.3-0.4,0.4l-1.3,1.3v-1.7l-0.2-14.8l-0.1-7.4V95l0-7.4
		c0-2.5,0-4.9,0-7.4c0-4.9,0-9.9,0.1-14.8c0.2,4.9,0.4,9.8,0.5,14.8l0.2,7.4l0.2,7.4l0.2,7.4l0.2,7.4l0.2,13.3
		c0.3-0.2,0.7-0.5,1-0.7c0.4-0.2,0.8-0.4,1.2-0.6c0.4-0.2,0.8-0.4,1.3-0.5c0.4-0.1,0.9-0.3,1.3-0.4c0.4-0.1,0.9-0.2,1.3-0.2
		c0.4-0.1,0.9-0.1,1.3-0.2h0.6l0-15.4v-8.1c0-2.7,0-5.4,0.1-8.1L90,73.1C90.2,67.7,90.3,62.3,90.4,56.9L90.4,56.9z"/>
	<path class="st3" d="M92.3,128.1c6.6,0,11.9,5.3,11.9,11.9c0,6.6-5.3,11.9-11.9,11.9s-11.9-5.3-11.9-11.9
		C80.4,133.4,85.7,128.1,92.3,128.1z M97.3,139.9c0-2.8-2.3-5-5-5c-2.8,0-5,2.3-5,5c0,2.8,2.3,5,5,5C95.1,145,97.3,142.7,97.3,139.9
		z"/>
	<path class="st6" d="M71.2,69.1l0.1,43.1l-10,3.2c0,0-4.1-15.4-2.4-30.3L71.2,69.1z"/>
	<path class="st4" d="M92.3,134.9c2.8,0,5,2.2,5,5c0,2.8-2.2,5-5,5s-5-2.2-5-5C87.3,137.2,89.6,134.9,92.3,134.9z"/>
	<polygon class="st5" points="70,123.5 64.1,125 63.3,122.4 70,120.1 	"/>
	<polygon class="st5" points="69.9,128.7 65.5,129.7 64.7,127.2 69.9,126.2 	"/>
	<polygon class="st5" points="69.8,133.7 66.9,134.2 66.2,132.1 69.8,131.5 	"/>
	<polygon class="st5" points="69.6,139.8 68.6,139.8 67.7,136.9 69.6,136.5 	"/>
</g>
</svg>
