<?xml version="1.0" encoding="utf-8"?>
<!-- Generator: Adobe Illustrator 21.0.0, SVG Export Plug-In . SVG Version: 6.00 Build 0)  -->
<svg version="1.1" id="Calque_1" xmlns="http://www.w3.org/2000/svg" xmlns:xlink="http://www.w3.org/1999/xlink" x="0px" y="0px"
	 viewBox="0 0 105.9 183.4" style="enable-background:new 0 0 105.9 183.4;" xml:space="preserve">
<style type="text/css">
	.st0{fill:#AAD803;}
	.st1{fill:none;stroke:#000000;stroke-width:0.4886;stroke-miterlimit:10;}
	.st2{fill:#414242;}
	.st3{fill:#E3E5E5;}
	.st4{fill:#CFD1D1;}
</style>
<g>
	<path class="st0" d="M105.8,107.8v71.8c0,2.1-1.7,3.8-3.8,3.8H3.8c-2.1,0-3.8-1.7-3.8-3.8V3.8C0,1.7,1.7,0,3.8,0H102
		c2.1,0,3.8,1.7,3.8,3.8v71.1c0,1-0.5,1.8-1.4,2.3l-1.1,0.6c-0.9,0.4-1.4,1.3-1.4,2.3v23.8c0,1.1,0.7,2.1,1.8,2.4l1.4,0.4
		C105.5,106.8,105.8,107.3,105.8,107.8L105.8,107.8z"/>
	<path class="st1" d="M105.8,107.8v71.8c0,2.1-1.7,3.8-3.8,3.8H3.8c-2.1,0-3.8-1.7-3.8-3.8V3.8C0,1.7,1.7,0,3.8,0H102
		c2.1,0,3.8,1.7,3.8,3.8v71.1c0,1-0.5,1.8-1.4,2.3l-1.1,0.6c-0.9,0.4-1.4,1.3-1.4,2.3v23.8c0,1.1,0.7,2.1,1.8,2.4l1.4,0.4
		C105.5,106.8,105.8,107.3,105.8,107.8L105.8,107.8z"/>
	<path class="st2" d="M91.8,76.5c2.5,0,4.7,2.1,4.7,4.7c0,2.5-2.1,4.7-4.7,4.7c-2.6,0-4.7-2.1-4.7-4.7
		C87.2,78.6,89.3,76.5,91.8,76.5z M95.1,81.1c0-1.8-1.5-3.3-3.3-3.3c-1.8,0-3.3,1.5-3.3,3.3s1.5,3.3,3.3,3.3
		C93.7,84.4,95.1,82.9,95.1,81.1z"/>
	<circle cx="91.8" cy="81.1" r="3.3"/>
	<path class="st2" d="M80.6,91.1c8.1,0,14.7,6.6,14.7,14.7c0,8.1-6.6,14.5-14.7,14.5s-14.7-6.6-14.7-14.7
		C65.9,97.6,72.5,91.1,80.6,91.1z M84.6,105.8c0-2.2-1.8-4-4-4c-2.2,0-4,1.8-4,4s1.8,4,4,4C82.8,109.8,84.6,108,84.6,105.8z"/>
	<circle cx="80.6" cy="105.8" r="4"/>
	<polygon class="st3" points="49.6,75.2 51,75.2 52.4,75.2 53.8,75.2 55.2,75.2 56.6,75.2 57.9,75.2 59.3,75.2 60.7,75.2 81.3,75.2 
		81.3,83.2 22.2,83.2 22.2,75.2 42.8,75.2 44.1,75.2 45.5,75.2 46.9,75.2 48.3,75.2 	"/>
	<path class="st2" d="M68.7,91.1c0.7,0,1.3,0.6,1.3,1.4c0,0.7-0.6,1.4-1.4,1.4s-1.3-0.7-1.3-1.4C67.3,91.9,67.9,91.1,68.7,91.1z"/>
	<path d="M59.3,85.8v10.6H43.4V85.8H59.3z M56.7,91.1c0-0.7-0.5-1.4-1.3-1.4c-0.7,0-1.4,0.6-1.4,1.4c0,0.7,0.6,1.4,1.4,1.4
		C56.1,92.5,56.7,91.9,56.7,91.1z M48.8,91.1c0-0.7-0.6-1.4-1.4-1.4c-0.7,0-1.4,0.6-1.4,1.4c0,0.7,0.6,1.4,1.4,1.4
		C48.1,92.5,48.8,91.9,48.8,91.1z"/>
	<rect x="46" y="116.3" class="st4" width="10.6" height="1.4"/>
	<rect x="46" y="112.4" class="st4" width="10.6" height="1.4"/>
	<rect x="46" y="108.4" class="st4" width="10.6" height="1.4"/>
	<rect x="46" y="104.4" class="st4" width="10.6" height="1.4"/>
	<path class="st2" d="M55.4,89.7c0.7,0,1.3,0.6,1.3,1.4c0,0.7-0.6,1.4-1.3,1.4c-0.7,0-1.4-0.6-1.4-1.4C54,90.4,54.6,89.7,55.4,89.7z
		"/>
	<path class="st2" d="M47.4,89.7c0.7,0,1.4,0.6,1.4,1.4c0,0.7-0.7,1.4-1.4,1.4c-0.7,0-1.4-0.6-1.4-1.4C46,90.4,46.7,89.7,47.4,89.7z
		"/>
	<path d="M46.9,75.2h-1.4h-1.4h-1.4H22.2v8h59.2v-8H60.8h-1.4H58h-1.4h-1.4h-1.4h-1.4h-1.4h-1.4h-1.4H46.9z M46.2,73.9h1.4v-1.4h1.4
		v1.4h1.4v-1.4h1.4v1.4H53v-1.4h1.4v1.4h1.4v-1.4h1.4v1.4h1.4v-1.4h1.4v1.4h33.9v-12H8.9v12H42v-1.4h1.4v1.4h1.4v-1.4h1.4L46.2,73.9
		L46.2,73.9z M99.2,73.9v50.5H3.6V73.9h2.7V56.6h90.3v17.3H99.2z M96.5,81.1c0-2.5-2.1-4.7-4.7-4.7c-2.6,0-4.7,2.1-4.7,4.7
		c0,2.5,2.1,4.7,4.7,4.7C94.4,85.8,96.5,83.7,96.5,81.1z M95.2,105.8c0-8.1-6.6-14.7-14.7-14.7s-14.7,6.5-14.7,14.5
		c0,8.1,6.6,14.7,14.7,14.7S95.2,113.9,95.2,105.8z M70,92.5c0-0.7-0.5-1.4-1.3-1.4c-0.7,0-1.4,0.7-1.4,1.4c0,0.6,0.5,1.4,1.3,1.4
		C69.3,93.9,70,93.3,70,92.5z M60.7,97.8V84.5H42.1v13.3H60.7z M56.7,117.7v-1.4H46v1.4H56.7z M56.7,113.7v-1.4H46v1.4H56.7z
		 M56.7,109.7v-1.4H46v1.4H56.7z M56.7,105.8v-1.4H46v1.4H56.7z M35.4,92.5c0-0.7-0.6-1.4-1.4-1.4c-0.7,0-1.4,0.6-1.4,1.4
		c0,0.7,0.6,1.4,1.4,1.4C34.8,93.9,35.4,93.3,35.4,92.5z M36.8,105.8c0-8.1-6.6-14.7-14.7-14.7c-8.1,0-14.7,6.5-14.7,14.5
		c0,8.1,6.6,14.7,14.7,14.7C30.2,120.4,36.8,113.9,36.8,105.8z M15.6,81.3c0-2.5-2.1-4.7-4.7-4.7c-2.6,0-4.7,2.1-4.7,4.7
		c0,2.5,2.1,4.7,4.7,4.7C13.4,86,15.6,83.8,15.6,81.3z"/>
	<path class="st2" d="M42.1,84.5h18.6v13.3H42.1V84.5z M59.3,85.8H43.4v10.6h15.9V85.8z"/>
	<path class="st2" d="M34,91.1c0.7,0,1.4,0.6,1.4,1.4c0,0.7-0.6,1.4-1.4,1.4s-1.4-0.6-1.4-1.4C32.7,91.8,33.3,91.1,34,91.1z"/>
	<path class="st2" d="M22.2,91.1c8.1,0,14.7,6.6,14.7,14.7c0,8.1-6.6,14.5-14.7,14.5s-14.7-6.6-14.7-14.7
		C7.5,97.6,14.1,91.1,22.2,91.1z M26.2,105.8c0-2.2-1.8-4-4-4s-4,1.8-4,4s1.8,4,4,4S26.2,108,26.2,105.8z"/>
	<path d="M22.2,101.7c2.2,0,4,1.8,4,4c0,2.2-1.8,4-4,4s-4-1.8-4-4C18.1,103.5,19.9,101.7,22.2,101.7z"/>
	<circle cx="10.9" cy="81.1" r="3.3"/>
	<path class="st2" d="M10.9,77.9c-1.8,0-3.3,1.5-3.3,3.3s1.5,3.3,3.3,3.3s3.3-1.5,3.3-3.3C14.2,79.3,12.7,77.9,10.9,77.9z
		 M10.9,76.6c2.5,0,4.7,2.1,4.7,4.7c0,2.5-2.1,4.7-4.7,4.7s-4.7-2.1-4.7-4.7C6.2,78.7,8.3,76.6,10.9,76.6z"/>
</g>
</svg>
