<?xml version="1.0" encoding="utf-8"?>
<!-- Generator: Adobe Illustrator 21.0.0, SVG Export Plug-In . SVG Version: 6.00 Build 0)  -->
<svg version="1.1" id="Calque_1" xmlns="http://www.w3.org/2000/svg" xmlns:xlink="http://www.w3.org/1999/xlink" x="0px" y="0px"
	 viewBox="0 0 105.9 183.4" style="enable-background:new 0 0 105.9 183.4;" xml:space="preserve">
<style type="text/css">
	.st0{fill:#FF0000;}
	.st1{fill:#FFE000;}
	.st2{fill:#97BF06;}
	.st3{fill:#57BF06;}
	.st4{fill:#97F706;}
	.st5{fill:#FFFFFF;}
	.st6{fill:none;stroke:#000000;stroke-width:1.4592;stroke-miterlimit:10;}
	.st7{fill:#AD00A1;}
</style>
<g>
	<path class="st0" d="M105.6,107.6V179c0,2.1-1.7,3.8-3.8,3.8H4c-2.1,0-3.8-1.7-3.8-3.8V4.1C0.2,2,1.9,0.3,4,0.3h97.7
		c2.1,0,3.8,1.7,3.8,3.8v70.7c0,1-0.5,1.8-1.4,2.3l-1.1,0.6c-0.9,0.4-1.4,1.3-1.4,2.3v23.7c0,1.1,0.7,2.1,1.8,2.4l1.4,0.4
		C105.3,106.6,105.6,107.1,105.6,107.6L105.6,107.6"/>
	<path d="M105.6,107.6h-0.2V179c0,1-0.4,1.9-1,2.5c-0.6,0.6-1.5,1-2.5,1H4c-1,0-1.9-0.4-2.5-1c-0.6-0.6-1-1.5-1-2.5V4.1
		c0-1,0.4-1.9,1-2.5c0.6-0.6,1.5-1,2.5-1h97.7c1,0,1.9,0.4,2.5,1c0.6,0.6,1,1.5,1,2.5v70.7c0,0.9-0.5,1.6-1.3,2l0,0l-1.1,0.6
		l0.1,0.2l-0.1-0.2c-0.9,0.5-1.5,1.4-1.5,2.5v23.7c0,1.2,0.8,2.3,1.9,2.6l0.1-0.2l-0.1,0.2l1.4,0.4l0.1-0.2l-0.1,0.2
		c0.4,0.2,0.6,0.5,0.6,0.9v0.2h0.2V107.6h-0.2H105.6v-0.2h0L105.6,107.6h0.2c0-0.6-0.4-1.1-0.9-1.4l0,0l-1.4-0.4l0,0
		c-0.9-0.3-1.6-1.2-1.6-2.2V79.9c0-0.8,0.5-1.7,1.3-2l0,0l1.1-0.6l-0.1-0.2l0.1,0.2c0.9-0.5,1.5-1.4,1.5-2.5V4.1
		c0-2.2-1.8-4.1-4.1-4.1H4C1.8,0,0,1.9,0,4.1V179c0,2.2,1.8,4.1,4.1,4.1h97.7c2.2,0,4.1-1.8,4.1-4.1v-71.7h-0.2V107.6"/>
	<path class="st1" d="M105.6,143.1V179c0,2.1-1.7,3.8-3.8,3.8H68.4l7.4-3.2l-1.7-6l-29.2,9.2H4c-2,0-3.7-1.6-3.8-3.6l73-7l0.2-6.2
		l-73.3-0.6v-22.6l72.7,20.7l2.5-5.7L0.2,127.8v-22.2l75.4,50.5l4.1-4.7L0.2,85.3V59.6l81.4,90.3l5.1-3.5L0.2,27.4V4
		c0-2.1,1.7-3.8,3.8-3.8h19.3l64.4,144.9l6-1.8L47,0.2h42.4l6.5,141.9l6.2,0.5l2-36.5l0.6,0.2c0.5,0.2,0.8,0.7,0.8,1.1v28.2
		l-1.8,6.6L105.6,143.1L105.6,143.1"/>
	<path d="M103.8,142.3l0.2,0.1l1.8-6.6v-28.3c0-0.6-0.4-1.1-0.9-1.4l0,0l-0.9-0.3l-2,36.5l-5.7-0.5L89.7,0H46.7l46.7,143.2l-5.5,1.6
		L23.5,0H4C1.8,0,0,1.8,0,4.1v23.4l86.4,118.9l-4.8,3.2L0,59v26.5l79.4,66l-3.8,4.3L0,105.2V128l75.1,29.9l-2.3,5.3L0,142.5v23.2
		l73.3,0.6L73,172l-73,7l0,0.2c0.1,2.1,1.9,3.8,4.1,3.8H45l29-9.2l1.6,5.5l-8.3,3.6h34.5c2.2,0,4.1-1.8,4.1-4.1V143l-2.3-1v0.4v1.8
		l0.5-1.8L103.8,142.3h0.2v0L103.8,142.3l-0.1,0.2l1.7,0.8v35.8c0,1-0.4,1.9-1,2.5c-0.6,0.6-1.5,1-2.5,1H69.6l6.6-2.8l-1.8-6.4
		l-29.4,9.3H4.1c-1.9,0-3.5-1.5-3.6-3.4l-0.2,0l0,0.2l73.2-7l0.3-6.7l-73.3-0.6v-22l72.6,20.6l2.7-6.1l-75.3-30v-21.6l75.2,50.4
		l4.4-5L0.5,85.3v-25l81.1,90l5.5-3.8L0.5,27.3V4.1c0-1,0.4-1.9,1-2.5c0.6-0.6,1.5-1,2.5-1h19.1l64.5,145l6.4-1.9L47.4,0.5h41.8
		l6.5,141.9l6.6,0.6l2-36.4l0.3,0.1l0.1-0.2l-0.1,0.2c0.4,0.2,0.6,0.5,0.6,0.9v28.2l-1.8,6.5L103.8,142.3h0.2H103.8"/>
	<path class="st2" d="M74,174l-27.3,8.6h21.8l7.1-3.1L74,174 M38.9,166l0,9.3L73,172l0.2-5.8L38.9,166 M39,143.5l0,10l33.9,9.6
		l2.3-5.3L39,143.5 M39.1,118L39,131.4l36.6,24.5l3.8-4.3L39.1,118 M39.3,81.5l-0.1,21l42.5,47.1l4.8-3.2L39.3,81.5 M55.2,41.2
		l-12.3,2.3l45.1,101.4l5.5-1.6l-7-21.5L55.2,41.2"/>
	<polyline class="st3" points="68.5,182.6 46.7,182.6 46.7,182.6 68.5,182.6 68.5,182.6 	"/>
	<path class="st4" d="M42.3,43.6l-2.9,0.5l-0.2,36.6l47.8,65.8l-5.5,3.8l-42.4-47l-0.1,14.1l41,34.1l-4.4,5L39,131.9L39,143
		l36.8,14.6l-2.7,6.1l-34.2-9.7l-0.1,11.4l34.9,0.3l-0.3,6.7l-34.7,3.3l0,6.8H45l29.3-9.3l1.8,6.4l-6.5,2.8h31.7l1.4-0.2
		c1.4-0.5,2.4-1.8,2.6-3.3c0,0,0,0,0,0v-8.5L89.6,130l4.4,13.6l-6.4,1.9L42.3,43.6"/>
	<path class="st3" d="M74.3,173.4L45,182.6h1.6l0,0L74,174l1.6,5.5l-7.1,3.1l0,0h1.2l6.5-2.8L74.3,173.4 M105.4,170.6v8.5
		c0,0,0,0,0,0c0-0.1,0-0.2,0-0.3L105.4,170.6L105.4,170.6 M38.9,165.5l0,0.5l34.4,0.3L73,172l-34.2,3.3l0,0.5l34.7-3.3l0.3-6.7
		L38.9,165.5 M39,143l0,0.5l36.1,14.4l-2.3,5.3l-33.9-9.6l0,0.5l34.2,9.7l2.7-6.1L39,143 M39.1,117.4l0,0.6l40.3,33.5l-3.8,4.3
		L39,131.4l0,0.6l36.6,24.5l4.4-5L39.1,117.4 M39.3,80.7l0,0.8l47.1,64.8l-4.8,3.2l-42.5-47.1l0,0.7l42.4,47l5.5-3.8L39.3,80.7
		 M42.8,43.5l-0.5,0.1l45.3,101.9l6.4-1.9L89.6,130l-3.2-8.3l7,21.5l-5.5,1.6L42.8,43.5"/>
	<path d="M78.3,129.9h0.1H78.3z"/>
	<path d="M74.2,126.3c0,0.5-0.1,1.6-0.1,2.5C74.1,127.9,74.1,126.9,74.2,126.3L74.2,126.3z"/>
	<path class="st5" d="M73.9,123.8c0.2,0.2,0.4,0.5,0.4,0.8c0.2,0.5,0.1,1.1-0.1,1.6c0-0.1,0-0.2,0-0.2c0-0.2,0-0.3,0-0.5
		c-0.1-0.4-0.1-0.7-0.2-1C73.9,124.3,73.9,124.1,73.9,123.8L73.9,123.8z"/>
	<path class="st5" d="M52.8,139.6c0,1.2-0.7,1.6-1.4,1.9c-0.1,0-0.1,0.1-0.2,0.1c-0.2,0.1-0.5,0.2-0.7,0.2v-0.1v-0.1
		c0.1-0.5,0.2-1.1,0.3-1.6c0.1-0.3,0.2-0.5,0.3-0.8c0-0.1,0-0.2,0.1-0.2c0.5,0,0.9,0.3,1.4,0.5C52.8,139.6,52.8,139.6,52.8,139.6z"
		/>
	<path class="st5" d="M77.7,128.6c0.2,0,0.3,0,0.4-0.1c0.2,0.2,0.3,0.2,0.5,0.3c0.2,0,0.4,0.1,0.5,0.2c-0.2,0.2-0.5,0.4-0.9,0.4
		c-0.1,0-0.3,0-0.4,0c-0.4,0-0.9,0.1-1.3,0.2c-0.7,0.2-1.2,0.3-1.8,0.2c0,0-0.2,0-0.6-0.2v-0.9c0.2,0.1,0.5,0.2,0.7,0.2
		c0.3,0.1,0.9,0,1.4-0.2C76.7,128.7,77.2,128.6,77.7,128.6z"/>
	<path d="M75,122.3L75,122.3c0,0.3,0.1,0.6,0.2,0.9h0C75.1,122.9,75,122.6,75,122.3z"/>
	<path d="M75.6,124.8c0-0.1-0.1-0.2-0.1-0.2c-0.1-0.2-0.1-0.3-0.2-0.5c0-0.1-0.1-0.2-0.1-0.4h0c0,0.1,0,0.2,0.1,0.3
		c0,0.2,0.1,0.3,0.2,0.5C75.5,124.6,75.6,124.7,75.6,124.8c0.1,0.2,0.2,0.4,0.3,0.6l0,0C75.8,125.2,75.7,125,75.6,124.8z"/>
	<path d="M78.4,129.9c0.2,0,0.5,0.2,0.5,0.6c0,0.1,0.1,0.2,0.2,0.2c-0.1,0-0.2,0-0.2-0.1C78.9,130.1,78.7,129.9,78.4,129.9z"/>
	<path d="M49.9,149.9c0,0-0.2,0.1-0.3,0.1l-0.1-0.1l0-0.1c0-0.2,0.2-0.5,0.4-0.5l0.2,0C50.1,149.7,50,149.9,49.9,149.9z"/>
	<path d="M75.3,124.1c0-0.1-0.1-0.2-0.1-0.3c0.3,0.2,1.4,1,1.8,1.6c0.1,0.2,0.9,0.9,1.3,1.2c0.9,0.7,1.1,1,1.2,1.2
		c0.1,0.3,0,0.6-0.2,0.9c0,0.1-0.1,0.2-0.2,0.3c-0.2-0.1-0.3-0.2-0.5-0.2c-0.2,0-0.4-0.2-0.5-0.3c0.4-0.1,0.5-0.3,0.5-0.4
		c-0.2-0.2-0.6-0.5-0.9-0.8c-0.8-0.7-1.4-1.2-1.6-1.5c0-0.1-0.2-0.2-0.3-0.4c-0.1-0.2-0.2-0.4-0.3-0.6c0-0.1-0.1-0.2-0.1-0.2
		C75.5,124.4,75.4,124.3,75.3,124.1z"/>
	<path d="M78.1,128.5c0.1,0.2,0.3,0.2,0.5,0.3c0.2,0,0.4,0.1,0.5,0.2c-0.2-0.1-0.3-0.2-0.5-0.2C78.4,128.7,78.3,128.7,78.1,128.5z"
		/>
	<path class="st5" d="M73.9,123.8l-0.1,0.1c0-0.1-0.1-0.2-0.1-0.3C73.8,123.7,73.8,123.8,73.9,123.8z"/>
	<path class="st5" d="M66.8,134.8c-0.4,2.5-0.2,5.4,0.5,8.8c0,0.3,0.3,0.5,0.5,0.8c0.1,0.2,0.2,0.3,0.3,0.4c0,0.1,0.1,0.2,0.2,0.3
		l-1.5,0.3c0-0.3,0-0.7,0-0.8c0-0.7-0.1-1.2-0.1-1.7c0-0.9-0.3-1.8-0.5-2.6l-0.1-0.4c-0.2-0.7-0.4-1.2-0.8-1.8
		c-0.1-0.2-0.2-0.3-0.4-0.5c-0.3-0.4-0.6-0.8-0.8-1.2c-0.2-0.5-0.4-0.9-0.5-1.4c-0.1-0.2-0.3-0.4-0.5-0.3c-0.2,0.1-0.4,0.3-0.3,0.5
		c0.2,0.5,0.4,1.1,0.6,1.6c0,0.1,0.1,0.2,0.2,0.3c-0.7,0.2-1.3,0.5-1.9,0.8c-0.4,0.2-0.8,0.4-1.2,0.5l-0.5,0.2
		c-0.8,0.4-1.6,0.7-2.5,0.9c-1,0.2-2.1,0.1-3.2-0.3c-0.4-0.1-0.7-0.3-1-0.5c-0.5-0.3-1-0.5-1.6-0.6c0.3-1.4,0.7-4,0.2-6.4
		c0-0.2-0.3-0.4-0.5-0.4c-0.2,0-0.4,0.3-0.4,0.5c0.5,2.2,0.1,4.7-0.2,6c-0.1,0.3-0.2,0.6-0.3,1c-0.1,0.3-0.2,0.6-0.3,0.9
		c-0.2,0.6-0.2,1.1-0.3,1.7v0.1c0,0.2-0.1,0.4-0.1,0.6c-0.1,0.7-0.3,1.4-0.1,2c0.1,0.3,0.5,1.3,0.9,2.6c0.2,0.5,0.4,0.9,0.4,1.1
		c0.1,0.4,0.4,0.9,0.7,1.2c-0.4,0.1-0.9,0.2-1.4,0.2c0-0.4,0.1-0.8,0.1-0.9c0,0,0.2-0.7,0-1.5c-0.2-0.5-1.4-3.3-1.8-3.8
		c0-0.2-0.1-0.6-0.1-0.9l-0.1-1.1c-0.2-1-1.5-3.2-1.8-3.5c-0.2-0.2-0.7-1-1.2-1.8c0.4-0.2,0.7-0.3,1-0.5c0.8-0.4,0.6-1,0.8-1.7
		c0.3-0.8,0.9-0.8,1.6-1.2c1.2-0.7,0.3-2.4-0.4-3.3c1.6-0.2,3.2-0.5,4.8-0.9c0.2,0,0.4-0.1,0.5-0.1c0.8,0.4,2.6,1.4,2.8,2.2
		c0.2,0.7-0.9,1.6-1.2,2.2c-0.7,1.1-0.8,3.1,0.4,3.8c1.2,0.7,1.9-0.3,2.6-1.2c0.4-0.5,0.7-1,1.2-1.2s1.2-0.1,1.7-0.4
		c0.6-0.3,0.7-1,0.5-1.6c-0.2-1.1-0.7-1.9-1.5-2.6c-0.4-0.3-0.9-0.6-1.1-1c-0.2-0.4-0.1-0.7,0-1.1c0.3-0.1,0.6-0.1,0.9-0.2
		c0.2,0,0.3-0.1,0.4-0.2l1.2-0.5c0.5-0.2,1.1-0.5,1.7-0.6l0.1,0c-0.4,0.9-0.7,1.9-0.2,2.8c0.4,1,1.6,1.6,1.8,2.7
		c0.3,1.1-0.7,2.3,0.2,3.3C65.5,135.4,66.4,135.1,66.8,134.8L66.8,134.8z"/>
	<path class="st5" d="M72,119.9c0.2,0.5,1.8,1.3,1.8,1.3s0.9-1.5,0.7-2.1c-0.2-0.6-0.9-0.9-1.6-0.6C72.3,118.8,71.9,119.4,72,119.9z
		 M72.9,117.6c0.6-0.1,1.2-0.1,1.9,0c1.5,0.3,1.9,1.6,0.8,2.7c-0.5,0.5-0.6,1.1-0.6,1.7c0,0.1,0,0.2,0,0.3h-0.1
		c-0.5,0-1.1,0.4-1.4,0.7c-0.3-0.6-0.7-1.1-1.4-1.4h0c0,0-0.1,0-0.2-0.1c-0.1,0-0.1,0-0.2-0.1c-0.1,0-0.3-0.1-0.4-0.1h-0.1
		c-1.1-0.7-1.2-1.6-0.3-2.5c0.5-0.5,1-0.9,1.6-1.1c0.1,0,0.2-0.1,0.2-0.1C72.8,117.6,72.8,117.6,72.9,117.6z"/>
	<path d="M72.6,129c-0.4-0.3-0.7-0.6-0.8-1c0-0.2,0-0.3-0.1-0.5c0.3,0,0.6,0,0.9,0c0,0.1,0,0.2,0,0.3c0.1,0.3,0.7,0.7,1.4,0.9v0.9
		c-0.2-0.1-0.4-0.2-0.6-0.2c-0.5,0.4-0.9,0.8-1.2,1.2c-0.1-0.3-0.2-0.6-0.4-1C72.1,129.5,72.3,129.3,72.6,129z"/>
	<path d="M76.3,122.5c0.2,0,0.4,0.3,0.4,0.5c0,0.2-0.3,0.4-0.5,0.4c0,0-0.5-0.1-1-0.1c-0.1-0.3-0.1-0.6-0.1-0.9
		C75.7,122.3,76.3,122.5,76.3,122.5L76.3,122.5z"/>
	<path class="st5" d="M71.8,127.3v0.3c-0.2,0-0.4-0.1-0.5-0.2C71.4,127.4,71.6,127.3,71.8,127.3z"/>
	<path class="st5" d="M73.5,123c0.4-0.3,0.9-0.7,1.4-0.7H75l0.1,0.9h-0.3c-0.3,0-0.7,0.3-1,0.6c0-0.1-0.1-0.1-0.2-0.2
		c-0.1-0.2-0.1-0.4-0.2-0.5C73.5,123,73.5,123,73.5,123z"/>
	<path class="st5" d="M46.1,139.7c-0.1-0.4-0.2-0.7-0.2-1c0.4,0.6,1,1.7,1.3,2.4C46.7,140.7,46.3,140.2,46.1,139.7z"/>
	<path d="M68.2,143.4c0,0.1,0.2,0.3,0.3,0.4c0.1,0.2,0.3,0.4,0.4,0.5c0.2,0.4,0.5,0.8,0.5,0.8c0.1,0.1,0.1,0.3,0,0.4
		c0,0.2-0.2,0.2-0.3,0.3l-2.4,0.5c-0.2,0-0.4-0.1-0.5-0.3c0,0.1,0.1,0.2,0.2,0.2c0,0,0.5,0.2,0.5-0.4v-0.5l1.5-0.3
		c0-0.1-0.1-0.2-0.2-0.3c-0.1-0.2-0.2-0.3-0.3-0.4c-0.2-0.3-0.4-0.5-0.5-0.8c-0.7-3.3-0.9-6.3-0.5-8.8c-0.5,0.3-1.3,0.6-2-0.1
		c-1-0.9,0-2.2-0.2-3.3c-0.3-1.1-1.4-1.7-1.8-2.7c-0.4-0.9-0.2-1.9,0.2-2.8l-0.1,0c-0.5,0.2-1.1,0.4-1.7,0.6
		c-0.4,0.2-0.8,0.4-1.2,0.5l-0.3-0.9c0.4-0.1,0.7-0.3,1.1-0.5c0.6-0.3,1.2-0.5,1.8-0.7c0.8-0.2,1.5-0.1,2.1-0.1c0.4,0,0.7,0.1,1,0.1
		c0.8,0.5,1.6,0.5,2.6,0.2c0.9-0.4,1.2-0.5,1.5,0c0,0.3,0,0.5,0.1,0.8c0.2,0.5,0.5,0.9,0.9,1.2c0.1,0.1,0.1,0.3,0.2,0.4
		c-1.1,0.6-1.9,2.2-2,3.3c-0.1,0.9-0.7,1.7-1.1,2.1c0,0.7,0,1.4-0.1,2c-0.1,0.7-0.2,1.4-0.2,2.1c0.8-0.4,1.3-1.1,1.5-2
		c0.4-1.9,1.2-3.6,2.8-5.3c0.1,0.3,0.2,0.6,0.4,1c-1.3,1.4-2,2.9-2.3,4.5c-0.2,1.3-1.1,2.3-2.3,2.8h0
		C67.6,139.7,67.8,141.5,68.2,143.4L68.2,143.4z"/>
	<path d="M73.5,123.1l-0.1-0.1C73.5,123,73.5,123,73.5,123.1c0.1,0.2,0.1,0.4,0.2,0.5l0,0C73.6,123.4,73.5,123.3,73.5,123.1z"/>
	<path d="M76.3,131c0-0.1-0.2-0.2-0.3-0.2c-0.1,0-0.2,0.2-0.2,0.3l0.3,0.9c0,0.1,0.2,0.2,0.3,0.2c0.1,0,0.2-0.2,0.2-0.3L76.3,131z
		 M75.1,130.9c0.4-0.1,1.1-0.3,1.5-0.4l0.4-0.1c0,0,0.1,0,0.2-0.1l0.1,0.3c-0.1,0-0.2,0.2-0.2,0.3l0.3,0.9c0,0.1,0.2,0.2,0.3,0.2
		l0.2,0.4c-0.6,0.4-1.4,0.6-2,0.4c-0.3,0.2-0.8,0.4-1.4,0.5c-1,0.1-1.6-0.4-1.9-1.5c-0.1-0.3-0.2-0.6-0.3-0.9
		c0.4-0.4,0.8-0.8,1.2-1.2c0.2,0.1,0.5,0.2,0.6,0.2v0.2c0,0.3-0.3,0.5-0.4,0.7c-0.4,1-0.3,1.1,0.5,1.5c0.2,0,0.4,0,0.5-0.1l0,0
		c0.1-0.1,0.1-0.2,0-0.5c-0.1-0.3,0-0.5,0.3-0.6C75,130.9,75.1,130.9,75.1,130.9L75.1,130.9z"/>
	<path d="M74.1,129.7v-0.9V129.7z"/>
	<path d="M71.9,129.8c-0.3-0.7-0.6-1.5-0.9-2.2c0.1,0,0.2-0.1,0.3-0.2c0.2,0.1,0.4,0.1,0.5,0.2c0,0.2,0,0.3,0.1,0.5
		c0.1,0.4,0.4,0.7,0.8,1C72.3,129.3,72.1,129.5,71.9,129.8z"/>
	<path class="st5" d="M73.2,123.3c0.2,0.1,0.4,0.2,0.5,0.4l0.1,0.4l0,0c0,0.1-0.2,0.1-0.2,0.2c-0.2,0-0.4,0.1-0.5,0.1
		c0.4,0.8,0.1,1.6-0.3,2.1c0,0.4-0.1,0.8,0,1.1c-0.3,0.1-0.6,0.1-0.9,0v-0.3c-0.2,0-0.4,0.1-0.5,0.1c-0.2-0.1-0.3-0.2-0.5-0.3
		c-0.2-0.4-0.4-0.7-0.5-1.1c-0.2-0.4-0.3-0.7-0.4-0.9c0-0.4,0.2-0.8,0.4-1.1C71.2,123.8,72.2,123.6,73.2,123.3L73.2,123.3z"/>
	<path d="M79.8,129.5L79.8,129.5z"/>
	<path d="M45.8,138.6c0,0.3,0.1,0.7,0.2,1c0.2,0.5,0.6,1,1,1.4C46.9,140.3,46.2,139.2,45.8,138.6z M45.2,140
		c-0.4-1.2-0.4-2.3-0.4-2.7c-0.5-0.8-1.3-1.8-1.6-2.3c-0.2-0.2-0.4-0.4-0.7-0.5c0.5,2,1.2,5,1.4,6.2l0.1,0.1c0,0.1,1.2,1.8,1.6,4.2
		c0,0.2-0.1,0.5-0.4,0.5c-0.2,0-0.5-0.1-0.5-0.4c-0.2-1-0.5-1.8-0.7-2.5c0.1,1.3,0.4,3.2,1.7,4.7c0.2,0.2,0.1,0.5-0.1,0.6
		c0,0-0.1,0.1-0.2,0.1c-0.2,0-0.4,0-0.5-0.2c-2-2.5-1.9-5.9-1.9-6.8c0-0.5-1.4-6.3-1.9-8.3c-0.2-0.8-0.1-1.8,0.4-2.6
		c0.4-0.7,1-1.1,1.7-1.2c1.3-0.2,2.6-0.4,4-0.6c1.7-0.2,3.5-0.5,5.2-0.9l0.2,0.9c-1.6,0.4-3.2,0.6-4.8,0.9c0.7,0.9,1.6,2.6,0.4,3.3
		c-0.6,0.4-1.3,0.4-1.6,1.2c-0.2,0.7,0,1.3-0.8,1.7c-0.4,0.2-0.7,0.3-1,0.5c0.5,0.8,1.1,1.6,1.2,1.8c0.3,0.4,1.6,2.6,1.8,3.5
		l0.1,1.1c0,0.3,0.1,0.8,0.1,0.9c0.4,0.5,1.6,3.2,1.8,3.8c0.2,0.7,0,1.4,0,1.5c0,0.1,0,0.5-0.1,0.9c-0.1,0-0.1,0-0.2,0
		c-0.2,0-0.4,0.2-0.4,0.5l0,0.1c-0.2-0.3-0.3-1.4-0.3-1.7c0,0,0.1-0.5,0-1.1c-0.2-0.5-1.4-3.1-1.6-3.4c-0.2-0.2-0.3-0.7-0.4-1.4
		v-0.1C47,142.1,45.7,141.2,45.2,140z"/>
	<path d="M67.6,124.8c0.4-0.1,0.8-0.2,1.2-0.4c0.3-0.1,0.7-0.2,1-0.3c0.1,0,0.3-0.1,0.4-0.1c-0.2,0.3-0.4,0.7-0.4,1.1
		c-0.3-0.4-0.6-0.4-1.5,0c-1,0.4-1.8,0.3-2.6-0.2h0.1L67.6,124.8z"/>
	<path class="st5" d="M76,130.9c0.1,0,0.2,0,0.3,0.2l0.3,0.9c0,0.1,0,0.2-0.2,0.3c-0.1,0-0.2,0-0.3-0.2l-0.3-0.9
		C75.9,131.1,75.9,130.9,76,130.9z"/>
	<path class="st5" d="M78.2,123.7c0.1,0.3-0.1,0.6-0.4,0.7c-0.3,0.1-0.6-0.1-0.7-0.4c-0.1-0.3,0.1-0.6,0.4-0.7
		C77.8,123.2,78.1,123.4,78.2,123.7z"/>
	<path d="M74.5,119.2c0.2,0.6-0.7,2.1-0.7,2.1s-1.6-0.8-1.8-1.3c-0.2-0.5,0.3-1.2,0.9-1.4C73.7,118.3,74.4,118.6,74.5,119.2z"/>
	<path d="M72.1,121.6c0.7,0.3,1.1,0.8,1.4,1.4C73.2,122.4,72.7,122,72.1,121.6z"/>
	<path d="M70.8,127.2c0.2,0.1,0.3,0.2,0.5,0.3c-0.1,0-0.2,0.1-0.3,0.2C70.9,127.4,70.9,127.3,70.8,127.2z"/>
	<path class="st5" d="M76.4,129.7c0.4-0.1,0.9-0.2,1.3-0.2c0.2,0,0.3,0,0.4,0c0.5-0.1,0.7-0.3,0.9-0.4c0.1,0.1,0.3,0.2,0.4,0.2
		l0.2,0.2l0.1,0.1v0l0,0.1c0,0.1,0,0.2,0,0.3c-0.1,0.4-0.3,0.5-0.6,0.7l0,0c-0.1,0-0.2,0-0.2-0.2c-0.1-0.5-0.3-0.6-0.5-0.6h-0.1
		h-0.1c-0.2,0-0.4,0.1-0.5,0.2c-0.1,0-0.3,0.1-0.5,0.2c-0.1,0-0.2,0.1-0.2,0.1l-0.4,0.1c-0.4,0.1-1.1,0.3-1.5,0.4
		c-0.1,0-0.2,0-0.2,0.1c-0.2,0.1-0.4,0.3-0.3,0.6c0.1,0.2,0.1,0.4,0,0.5l0,0c-0.1,0.1-0.3,0.1-0.5,0.1c-0.9-0.4-0.9-0.5-0.5-1.5
		c0.2-0.3,0.5-0.4,0.4-0.7v-0.2c0.3,0.1,0.5,0.2,0.6,0.2C75.2,130,75.8,129.9,76.4,129.7L76.4,129.7z"/>
	<path class="st5" d="M75.6,126c0-0.3-0.4-0.5-0.6-0.4c-0.3,0.1-0.5,0.4-0.4,0.6c0.1,0.3,0.4,0.5,0.6,0.4
		C75.5,126.6,75.6,126.3,75.6,126z M74.7,124.5c0.4,0.2,0.8,0.6,1.1,0.9c0.1,0.2,0.2,0.4,0.4,0.6c0.7,0.7,1.1,1.5,1.7,2.3l0.2,0.2
		c-0.1,0-0.2,0.1-0.4,0.1c-0.5,0-1,0.2-1.4,0.2c-0.5,0.1-1.1,0.2-1.4,0.2c-0.2,0-0.5-0.1-0.7-0.2c0-0.9,0.1-2.1,0.1-2.5
		c0.2-0.5,0.3-1.1,0.1-1.6c-0.1-0.3-0.2-0.6-0.4-0.8c0.3-0.3,0.7-0.6,1-0.6h0.3c0,0.2,0.1,0.4,0.1,0.5c-0.2-0.2-0.5-0.1-0.6,0.1
		C74.4,124.1,74.5,124.3,74.7,124.5L74.7,124.5z"/>
	<path d="M77.1,124c0.1,0.3,0.4,0.5,0.7,0.4c0.3-0.1,0.5-0.4,0.4-0.7c-0.1-0.3-0.4-0.5-0.7-0.4C77.2,123.4,77,123.7,77.1,124z
		 M77.7,131.8c0.1,0,0.2-0.2,0.2-0.3l-0.3-0.9c0-0.1-0.2-0.2-0.3-0.2l-0.1-0.3c0.2-0.1,0.4-0.2,0.5-0.2c0.2,0,0.4-0.1,0.5-0.2h0.1
		h0.1c0.2,0,0.5,0.2,0.5,0.6c0,0.1,0.1,0.2,0.2,0.1l0.1,0c0.3-0.2,0.5-0.4,0.6-0.7c0-0.1,0-0.2,0-0.3l0-0.1v0l-0.1-0.1l-0.2-0.2
		c-0.1-0.1-0.2-0.2-0.4-0.2c0.1-0.1,0.2-0.2,0.2-0.3c0.2-0.3,0.2-0.6,0.2-0.9c-0.1-0.3-0.4-0.5-1.2-1.2c-0.5-0.4-1.2-1-1.3-1.2
		c-0.3-0.6-1.4-1.4-1.8-1.6c0-0.2-0.1-0.4-0.1-0.5c0.5,0,1,0.1,1,0.1c0.2,0,0.5-0.1,0.5-0.4c0-0.2-0.1-0.5-0.4-0.5
		c0,0-0.6-0.1-1.3-0.2c0-0.1,0-0.2,0-0.3c0-0.7,0-1.2,0.6-1.7c1.1-1.1,0.7-2.3-0.8-2.7c-0.7-0.2-1.3-0.2-1.9,0c-0.1,0-0.2,0-0.2,0
		l-0.2-0.5c0.3-0.1,0.6-0.2,0.9-0.3c1.4-0.2,2.6,0.4,3.7,1.2c0.3,0.2,0.5,0.2,0.7,0c1.2-1.5,3.1-1.9,4.9-1.7c0.2,0,0.2,2.1-0.2,2.7
		c-0.3,0.5-1.3,1.9-3.5,2.1c-0.4,0,0,1,0,1.4c0.3,1.8,0.5,3.6,1.1,5.3l0.6,1.7c0.4,0.9-0.8,1.7-1.2,1.9c-0.4,0.2-1,0.4-1.4,0.4
		c-0.1,0.1-0.2,0.2-0.4,0.3L77.7,131.8L77.7,131.8z"/>
	<path d="M60.2,139.5c-0.9,0.4-1.7,0.7-2.6,0.9c-1.2,0.2-2.4,0.1-3.7-0.3l-0.1,0c-0.1,1.4-1.2,2-1.9,2.3h0l0,0.2
		c0,0.2-0.1,0.5-0.4,0.5c-0.2,0-0.5-0.1-0.5-0.4l0-0.1c-0.2,0-0.4,0-0.5,0c-0.1,0.5-0.2,0.9,0,1.2c0.1,0.3,0.5,1.6,0.9,2.5
		c0.2,0.5,0.4,0.9,0.4,1.1c0.2,0.5,0.7,1.3,0.9,1.6c0.1,0.1,0.1,0.3,0,0.4c0,0.1-0.1,0.2-0.3,0.3c-0.1,0-0.3,0.1-0.5,0.2
		c-0.7,0.2-1.6,0.2-1.8,0.3c-0.2,0-0.4-0.1-0.5-0.3l0.1,0.1c0.1,0,0.2-0.1,0.3-0.1c0.1,0,0.1-0.3,0.2-0.6c0.4,0,1-0.1,1.4-0.2
		c-0.2-0.4-0.5-0.9-0.7-1.2c-0.1-0.2-0.2-0.6-0.4-1.1c-0.5-1.3-0.9-2.3-0.9-2.6c-0.2-0.6,0-1.4,0.1-2l0.1-0.6v-0.1
		c0.1-0.5,0.2-1.1,0.3-1.7c0.1-0.3,0.2-0.6,0.3-0.9c0.1-0.4,0.3-0.7,0.3-1c0.3-1.3,0.7-3.8,0.2-6c-0.1-0.2,0.1-0.5,0.4-0.5
		c0.2,0,0.5,0.1,0.5,0.4c0.5,2.4,0.1,5-0.2,6.4c0.6,0.1,1.1,0.4,1.6,0.6c0.3,0.2,0.6,0.4,1,0.5c1.2,0.4,2.3,0.5,3.2,0.3
		c0.8-0.2,1.6-0.5,2.5-0.9l0.5-0.2c0.4-0.2,0.8-0.4,1.2-0.5c0.6-0.3,1.2-0.6,1.9-0.8c0-0.1-0.1-0.2-0.2-0.3
		c-0.2-0.5-0.4-1.1-0.6-1.6c-0.1-0.2,0.1-0.5,0.3-0.5c0.2-0.1,0.5,0.1,0.5,0.3c0.1,0.5,0.3,1,0.5,1.4c0.2,0.4,0.5,0.8,0.8,1.2
		c0.1,0.2,0.2,0.3,0.4,0.5c0.4,0.5,0.6,1.1,0.8,1.8l0.1,0.4c0.3,0.8,0.5,1.7,0.5,2.6c0,0.5,0,1.1,0.1,1.7c0,0.2,0,0.5,0,0.8
		l-0.3,0.1c-0.2,0-0.4,0.3-0.4,0.5v0c-0.2-0.4-0.3-1.2-0.3-1.4c0-0.7-0.1-1.2-0.1-1.8c0-0.8-0.3-1.6-0.5-2.3l-0.1-0.4
		c-0.2-0.6-0.4-1.1-0.7-1.5c-0.1-0.2-0.2-0.3-0.4-0.5c-0.1-0.1-0.2-0.2-0.2-0.3c-0.7,0.2-1.4,0.5-2,0.9c-0.4,0.2-0.8,0.4-1.2,0.6
		L60.2,139.5L60.2,139.5z M50.9,140.1c-0.2,0.5-0.2,1.1-0.3,1.6v0.1v0.1c0.2,0,0.4,0,0.7-0.2c0.1,0,0.1-0.1,0.2-0.1
		c0.7-0.3,1.4-0.7,1.4-1.9l-0.1-0.1c-0.5-0.3-0.9-0.5-1.4-0.5c0,0.1,0,0.2-0.1,0.2C51.1,139.5,51,139.8,50.9,140.1L50.9,140.1z"/>
	<path class="st5" d="M74.9,125.6c0.3,0,0.5,0.1,0.6,0.4c0.1,0.3-0.1,0.5-0.4,0.6c-0.3,0-0.5-0.1-0.6-0.4
		C74.5,126,74.7,125.7,74.9,125.6z"/>
	<path class="st5" d="M73.8,123.9c0-0.1-0.1-0.2-0.1-0.3l0,0C73.7,123.7,73.7,123.8,73.8,123.9z"/>
	<path class="st5" d="M77.8,131.5c0,0.1,0,0.2-0.2,0.3c-0.1,0-0.2,0-0.3-0.2l-0.3-0.9c0-0.1,0-0.2,0.2-0.3c0.1,0,0.2,0,0.3,0.2
		L77.8,131.5z"/>
	<path d="M74.2,132.1c0.2,0,0.4,0,0.5-0.1C74.6,132.1,74.4,132.1,74.2,132.1c-0.9-0.4-0.9-0.5-0.5-1.5c0.2-0.2,0.5-0.4,0.4-0.7v-0.2
		h0v0.2c0,0.3-0.3,0.5-0.4,0.7C73.3,131.6,73.3,131.7,74.2,132.1z"/>
	<path d="M73.5,123.1c0,0.2,0.1,0.4,0.2,0.5c-0.2-0.2-0.3-0.3-0.5-0.4c0.1-0.1,0.2-0.2,0.3-0.3L73.5,123.1z"/>
	<path class="st5" d="M73.8,123.9c0.1,0.2,0.2,0.4,0.2,0.7c0.1,0.3,0.1,0.7,0.2,1c0,0.2,0,0.3,0,0.5c0,0,0,0.1,0,0.2
		c-0.3,0.5-0.7,1-1.4,1.2l-0.1,0c0-0.4,0-0.8,0-1.1c0.4-0.6,0.7-1.4,0.3-2.1c0.2,0,0.4-0.1,0.5-0.1
		C73.5,124.1,73.7,124.1,73.8,123.9L73.8,123.9z"/>
	<path d="M72,121.6c0,0-0.1,0-0.2-0.1C71.9,121.6,72,121.6,72,121.6z"/>
	<path class="st5" d="M71.9,129.8c-1.6,1.7-2.5,3.4-2.8,5.3c-0.2,0.9-0.7,1.6-1.5,2c0-0.7,0.1-1.4,0.2-2.1c0.1-0.7,0.1-1.3,0.1-2
		c0.4-0.4,1-1.1,1.1-2.1c0.1-1.1,1-2.6,2-3.3C71.3,128.3,71.6,129,71.9,129.8z"/>
	<path d="M72.8,127.5c0.6-0.2,1.1-0.6,1.4-1.2c0,0.5-0.1,1.6-0.1,2.5c-0.7-0.2-1.3-0.6-1.4-0.9c0-0.1,0-0.2,0-0.3L72.8,127.5z"/>
	<path class="st5" d="M70.3,126c0.2,0.4,0.4,0.7,0.5,1.1c-0.4-0.3-0.7-0.7-0.9-1.2c-0.1-0.3-0.1-0.5-0.1-0.8
		C70,125.4,70.1,125.7,70.3,126z"/>
	<path d="M71.1,117.7c0.5-0.3,1-0.4,1.5-0.6l0.2,0.5c-0.1,0-0.2,0-0.2,0.1c-0.6,0.2-1.1,0.6-1.6,1.1c-0.9,0.9-0.7,1.8,0.3,2.5h0.1
		c0.2,0,0.3,0.1,0.4,0.1c0.1,0,0.1,0,0.2,0.1c0.1,0,0.1,0,0.2,0.1h0c0.7,0.3,1.1,0.8,1.4,1.4l-0.3,0.3c-0.5-0.3-1.1-0.4-1.7-0.2
		c-0.5,0.2-1,0.5-1.3,1c-0.1,0-0.3,0.1-0.4,0.1c-0.3,0.1-0.7,0.2-1,0.3c-0.4,0.1-0.8,0.2-1.2,0.4l-1.7,0.3h-0.1
		c-0.2-0.1-0.4-0.2-0.5-0.4c-0.6-0.4-1.2-0.9-1.6-1.4c-0.5-0.6-0.4-1.1,0.2-1.6c1.2-0.8,2.5-1.4,4.1-1c0.7,0.2,1.1,0,1.3-0.7
		C69.6,119.1,70.2,118.3,71.1,117.7z"/>
	<path d="M66.1,146L66.1,146L66.1,146c-0.1-0.3,0.1-0.5,0.3-0.6l0.3-0.1v0.5c0,0.5-0.4,0.4-0.5,0.4C66.2,146.2,66.2,146.1,66.1,146z
		"/>
	<path d="M71.2,121.4h-0.1c-1.1-0.7-1.2-1.7-0.3-2.5c0.5-0.5,1-0.9,1.6-1.1c-0.5,0.2-1.1,0.6-1.6,1.1
		C70,119.7,70.2,120.7,71.2,121.4L71.2,121.4c0.2,0,0.3,0.1,0.4,0.1C71.5,121.4,71.4,121.4,71.2,121.4z"/>
	<path class="st5" d="M74.2,126.1c0,0,0,0.1,0,0.2l0,0.1C74.2,126.2,74.2,126.1,74.2,126.1c0-0.2,0-0.3-0.1-0.5
		c-0.1-0.4-0.1-0.7-0.2-1c-0.1-0.2-0.1-0.4-0.2-0.7v0c0.1,0.2,0.2,0.4,0.2,0.7c0.1,0.4,0.1,0.7,0.2,1
		C74.2,125.7,74.2,125.9,74.2,126.1z"/>
	<path d="M77.9,128.2c-0.6-0.7-1-1.6-1.7-2.3c-0.1-0.2-0.2-0.4-0.3-0.6c0.2,0.2,0.3,0.3,0.3,0.4c0.2,0.4,0.7,0.9,1.6,1.5
		c0.3,0.3,0.7,0.6,0.9,0.8c0,0.1-0.2,0.3-0.5,0.4C78.1,128.4,78,128.3,77.9,128.2z"/>
	<path class="st5" d="M73.2,123.3L73.2,123.3c-1,0.3-2,0.5-3,0.8c0.3-0.5,0.7-0.8,1.3-1C72.1,122.9,72.6,123,73.2,123.3z"/>
	<path class="st5" d="M75.8,125.4c-0.3-0.3-0.8-0.7-1.1-0.9c-0.2-0.2-0.3-0.4-0.1-0.6c0.2-0.2,0.4-0.3,0.6-0.1c0,0.1,0,0.2,0.1,0.4
		c0,0.2,0.1,0.4,0.2,0.5c0,0.1,0.1,0.2,0.1,0.2C75.7,125,75.8,125.2,75.8,125.4L75.8,125.4z"/>
	<path d="M71.9,121.5c-0.1,0-0.1,0-0.2-0.1C71.8,121.5,71.8,121.5,71.9,121.5z"/>
	<path d="M53.3,128.3c-0.2,0-0.4,0.1-0.5,0.1l-0.2-0.9c0.2,0,0.5-0.1,0.7-0.2c0.9-0.2,1.9-0.4,2.8-0.5c1.1-0.1,2.1-0.3,3.1-0.5
		c0.2,0,0.3-0.1,0.4-0.1l0.3,0.9c-0.2,0-0.3,0.1-0.4,0.2c-0.3,0.1-0.6,0.2-0.9,0.2c-0.1,0.4-0.2,0.7,0,1.1c0.2,0.4,0.8,0.7,1.1,1
		c0.8,0.7,1.3,1.6,1.5,2.6c0.1,0.6,0.1,1.3-0.5,1.6c-0.5,0.2-1.2,0-1.7,0.4c-0.5,0.3-0.9,0.8-1.2,1.2c-0.7,0.9-1.4,1.9-2.6,1.2
		c-1.2-0.7-1.1-2.7-0.4-3.8c0.4-0.6,1.4-1.4,1.2-2.2C56,129.8,54.2,128.8,53.3,128.3L53.3,128.3z"/>
	<path class="st6" d="M73.9,123.8c0.2,0.2,0.4,0.5,0.4,0.8c0.2,0.5,0.1,1.1-0.1,1.6l0,0.1c-0.3,0.5-0.7,1-1.4,1.2l-0.1,0
		c-0.3,0.1-0.6,0.1-0.9,0c-0.2,0-0.4-0.1-0.5-0.2c-0.2-0.1-0.3-0.2-0.5-0.3c-0.4-0.3-0.7-0.7-0.9-1.2c-0.1-0.3-0.1-0.5-0.1-0.8
		c0-0.4,0.2-0.8,0.4-1.1c0.3-0.5,0.7-0.8,1.3-1c0.6-0.2,1.2-0.1,1.7,0.2c0.2,0.1,0.4,0.2,0.5,0.4l0,0
		C73.8,123.7,73.8,123.8,73.9,123.8z"/>
	<path d="M75.2,114.8c0,0.2-0.2,0.4-0.4,0.4s-0.4-0.2-0.4-0.4c0-0.2,0.2-0.4,0.4-0.4S75.2,114.6,75.2,114.8z M77,109.1
		c0,0.7-0.4,1.4-1.2,1.9c-0.6,0.3-0.5,0.7-0.5,0.7v0v1c0,0.2-0.2,0.4-0.4,0.4s-0.4-0.2-0.4-0.4v-0.9c0-0.4,0.2-1,0.9-1.4
		c0.4-0.2,0.8-0.6,0.9-1.2c0-0.7-0.6-1.3-1.3-1.3c-0.7,0-1.3,0.6-1.3,1.3c0,0.2-0.2,0.4-0.4,0.4c-0.2,0-0.4-0.2-0.4-0.4
		c0-1.2,1-2.1,2.1-2.1C76.2,107,77,107.9,77,109.1z"/>
	<path d="M72.3,115.7c0,0.2,0,0.3-0.2,0.4c-0.2,0-0.3,0-0.4-0.2c0-0.2,0-0.3,0.2-0.4C72.1,115.5,72.3,115.6,72.3,115.7z M72.3,111.9
		c0.2,0.5,0,0.9-0.4,1.4c-0.3,0.3-0.2,0.5-0.2,0.6v0l0.2,0.6c0,0.1,0,0.3-0.2,0.3c-0.1,0-0.3,0-0.3-0.2l-0.2-0.6
		c-0.1-0.2-0.1-0.6,0.3-1.1c0.2-0.2,0.4-0.5,0.3-0.9c-0.1-0.4-0.6-0.7-1.1-0.5c-0.4,0.1-0.7,0.6-0.5,1.1c0,0.1,0,0.3-0.2,0.3
		c-0.1,0-0.3,0-0.3-0.2c-0.2-0.7,0.2-1.4,0.9-1.7C71.3,110.9,72.1,111.2,72.3,111.9L72.3,111.9z"/>
	<path d="M69.7,116.3c0.1,0.2,0.1,0.4,0,0.5c-0.2,0.1-0.4,0.1-0.5,0c-0.1-0.2-0.1-0.4,0-0.5C69.4,116.2,69.6,116.2,69.7,116.3z
		 M67.7,111.9c0.4,0.5,0.5,1.1,0.3,1.8c-0.2,0.5,0.1,0.7,0.1,0.8l0,0l0.5,0.6c0.1,0.1,0.1,0.3,0,0.4c-0.1,0.1-0.4,0.1-0.5,0
		l-0.5-0.6c-0.2-0.2-0.4-0.7-0.2-1.4c0.1-0.4,0.2-0.8-0.2-1.2c-0.4-0.4-1.1-0.5-1.5-0.1c-0.4,0.4-0.5,1.1-0.1,1.5
		c0.1,0.1,0.1,0.3,0,0.4c-0.1,0.1-0.3,0.1-0.4,0c-0.6-0.7-0.5-1.8,0.2-2.4C66,111.1,67.1,111.2,67.7,111.9L67.7,111.9z"/>
	<path d="M79.4,26.4c-5,6-18.1,11.8-33.1,14.6c-15,2.8-29.3,2.1-36.1-1.8c3.3-4,10.5-8.1,19.7-11.2c3.5,1.1,8.8,1.1,14.1,0.2
		S54.1,25.3,57,23C66.8,22.6,74.8,23.8,79.4,26.4z"/>
	<path d="M56.6,21.7L56.6,21.7l-0.2,0.2c-2.7,2.2-7.4,4.1-12.7,5.1s-10.4,0.9-13.6-0.2l-0.2,0c0-4.6,5.1-9.1,11.9-10.4
		C48.6,15,54.9,17.4,56.6,21.7z M53,22.2c0.5-0.2,0.8-0.8,0.6-1.5c-0.2-0.7-0.8-1.1-1.3-0.9c-0.5,0.2-0.8,0.8-0.6,1.5
		C51.9,21.9,52.5,22.3,53,22.2z M48.5,24.1c0.7-0.1,1.2-0.8,1-1.6c-0.1-0.7-0.8-1.2-1.5-1.1c-0.7,0.1-1.2,0.9-1,1.6
		C47.1,23.7,47.8,24.3,48.5,24.1z M43.4,25.4c0.8-0.2,1.3-0.9,1.1-1.7c-0.2-0.8-0.9-1.3-1.7-1.1c-0.8,0.2-1.3,0.9-1.1,1.7
		C41.9,25.1,42.6,25.6,43.4,25.4z M38.2,26c0.7-0.1,1.2-0.9,1-1.6c-0.2-0.7-0.8-1.2-1.5-1.1c-0.7,0.1-1.2,0.9-1,1.6
		C36.8,25.7,37.5,26.2,38.2,26z M33.3,25.8c0.5,0,1-0.6,0.9-1.3c0-0.7-0.5-1.2-1.1-1.2c-0.5,0-1,0.6-0.9,1.3
		C32.3,25.3,32.7,25.8,33.3,25.8z"/>
	<path class="st7" d="M53.6,20.7c0.2,0.7,0,1.3-0.6,1.5c-0.5,0.2-1.1-0.2-1.3-0.9c-0.2-0.7,0-1.3,0.6-1.5
		C52.8,19.6,53.4,20,53.6,20.7z"/>
	<path d="M56.6,39.9c-2.1,2.3-5.5,4.2-9.5,4.9c-4,0.7-7.8,0.2-10.6-1.2c3.3-0.3,6.7-0.7,10.1-1.4C50,41.6,53.4,40.9,56.6,39.9z"/>
	<path class="st7" d="M49.5,22.5c0.2,0.7-0.3,1.4-1,1.6c-0.7,0.1-1.4-0.4-1.5-1.1c-0.1-0.7,0.3-1.4,1-1.6
		C48.7,21.3,49.4,21.8,49.5,22.5z"/>
	<path class="st7" d="M44.6,23.7c0.2,0.8-0.4,1.5-1.1,1.7c-0.8,0.2-1.5-0.4-1.7-1.1c-0.2-0.8,0.4-1.5,1.1-1.7
		C43.7,22.5,44.4,23,44.6,23.7z"/>
	<path class="st7" d="M39.2,24.4c0.1,0.7-0.3,1.4-1,1.6c-0.7,0.1-1.4-0.4-1.5-1.1c-0.2-0.7,0.3-1.4,1-1.6
		C38.4,23.2,39.1,23.7,39.2,24.4z"/>
	<path class="st7" d="M34.2,24.5c0,0.7-0.4,1.3-0.9,1.3c-0.5,0-1.1-0.5-1.1-1.2c0-0.7,0.4-1.3,0.9-1.3
		C33.7,23.3,34.2,23.8,34.2,24.5z"/>
</g>
</svg>
