<?xml version="1.0" encoding="utf-8"?>
<!-- Generator: Adobe Illustrator 21.0.0, SVG Export Plug-In . SVG Version: 6.00 Build 0)  -->
<svg version="1.1" id="Calque_1" xmlns="http://www.w3.org/2000/svg" xmlns:xlink="http://www.w3.org/1999/xlink" x="0px" y="0px"
	 viewBox="0 0 211.9 212" style="enable-background:new 0 0 211.9 212;" xml:space="preserve">
<style type="text/css">
	.st0{fill:#139605;}
	.st1{fill:#FFFFFF;}
	.st2{fill:none;stroke:#000000;stroke-miterlimit:10;}
</style>
<g id="XMLID_3_">
	<g>
		<path d="M199.4,104c1.1,0,1.8,0.9,1.8,1.8c0,3.2-0.2,6.3-0.5,9.3c0,0.9-0.7,1.6-1.6,1.6c-0.2,0-0.2,0-0.2,0
			c-0.9,0-1.6-0.9-1.6-1.8c0.2-3,0.4-5.9,0.4-8.8C197.8,105.1,198.5,104.2,199.4,104z"/>
		<path d="M200.6,94.9c0,0.9-0.7,1.8-1.6,1.8h-0.2c-0.7,0-1.6-0.7-1.6-1.6c-0.2-2.9-0.9-5.9-1.6-8.6c-0.2-0.9,0.4-1.8,1.3-2
			c0.9-0.2,1.8,0.4,2,1.4C199.7,88.8,200.1,91.7,200.6,94.9z"/>
		<path d="M197.4,126.8c1.1,0.2,1.6,1.1,1.4,2c-0.9,2.9-1.6,5.9-2.7,8.8c-0.2,0.7-0.9,1.1-1.6,1.1c-0.2,0-0.4,0-0.7,0
			c-0.9-0.4-1.4-1.4-1.1-2.3c0.9-2.7,1.8-5.7,2.7-8.4C195.6,127.1,196.5,126.6,197.4,126.8z"/>
		<path d="M195.1,72.2c0.5,0.9,0,2-0.9,2.3c-0.2,0-0.5,0-0.7,0c-0.7,0-1.4-0.5-1.6-1.1c-1.1-2.7-2.3-5.4-3.4-7.9
			c-0.5-0.9-0.2-1.8,0.7-2.3c0.9-0.5,1.8-0.2,2.3,0.7C192.9,66.6,194,69.3,195.1,72.2z"/>
		<path d="M185.4,158.5c-0.2,0.5-0.9,0.7-1.3,0.7c-0.2,0-0.7,0-0.9-0.2c-0.7-0.7-0.9-1.6-0.4-2.3c1.6-2.5,3.2-5,4.5-7.7
			c0.4-0.9,1.4-1.1,2.3-0.7c0.9,0.4,1.1,1.3,0.7,2.3C188.6,153.3,187,156,185.4,158.5z"/>
		<path d="M184.3,51.9c0.5,0.7,0.2,1.8-0.5,2.3c-0.2,0.2-0.7,0.2-0.9,0.2c-0.5,0-1.1-0.2-1.4-0.7c-1.6-2.3-3.4-4.8-5.7-6.8
			c-0.7-0.9-0.4-1.8,0.2-2.5c0.9-0.7,1.8-0.4,2.5,0.2C180.6,46.9,182.4,49.4,184.3,51.9z"/>
		<path d="M105.9,0c58.4,0,106,47.6,106,106s-47.6,106-106,106s-106-47.6-106-106S47.5,0,105.9,0z M208.5,106
			c0-56.6-46-102.6-102.6-102.6S3.3,49.4,3.3,106c0,56.6,46,102.6,102.6,102.6S208.5,162.6,208.5,106z"/>
		<path d="M170.7,176c-0.2,0.2-0.7,0.5-1.1,0.5s-1.1,0-1.4-0.5c-0.7-0.7-0.7-1.8,0-2.5c2.3-2,4.3-4.1,6.3-6.3
			c0.7-0.9,1.8-0.9,2.5-0.2c0.9,0.7,0.9,1.8,0.2,2.5C175.2,171.7,172.9,173.9,170.7,176z"/>
		<path d="M169.1,34.4c0.7,0.7,0.9,1.8,0.2,2.5c-0.5,0.4-0.9,0.7-1.4,0.7c-0.5,0-0.9-0.2-1.1-0.5c-2.3-2-4.5-3.9-7-5.7
			c-0.9-0.7-0.9-1.8-0.4-2.5c0.7-0.9,1.8-0.9,2.5-0.5C164.3,30.3,166.8,32.4,169.1,34.4z"/>
		<path d="M160.3,182.5c0.4,0.7,0.2,1.8-0.5,2.3c-2.5,1.6-5.2,3.2-7.9,4.8c-0.5,0.2-0.7,0.2-0.9,0.2c-0.7,0-1.4-0.2-1.6-0.9
			c-0.5-0.7-0.2-1.8,0.7-2.3c2.7-1.6,5.2-3.2,7.7-4.8C158.7,181.4,159.6,181.6,160.3,182.5z"/>
		<path d="M150.1,21.5c0.7,0.5,1.1,1.4,0.7,2.3c-0.4,0.7-0.9,0.9-1.6,0.9c-0.2,0-0.4,0-0.7-0.2c-2.7-1.6-5.4-2.7-8.2-3.9
			c-0.9-0.2-1.4-1.1-0.9-2c0.5-0.9,1.4-1.4,2.3-0.9C144.4,18.8,147.3,19.9,150.1,21.5z"/>
		<path d="M140.1,193.2c0.4,0.9,0,2-0.9,2.3c-2.9,0.9-5.9,2-8.8,2.7c-0.2,0-0.2,0-0.4,0c-0.7,0-1.4-0.7-1.6-1.4
			c-0.2-0.9,0.2-1.8,1.1-2c2.9-0.7,5.9-1.6,8.6-2.7C139,191.8,139.9,192.3,140.1,193.2z"/>
		<path d="M128.3,13.1c0.9,0.2,1.6,1.1,1.4,2c-0.2,0.9-0.9,1.4-1.6,1.4c-0.2,0-0.2,0-0.5,0c-2.9-0.7-5.9-1.1-8.8-1.6
			c-0.9-0.2-1.6-0.9-1.6-2.3c0.2-0.9,1.1-1.6,2-1.4C122.2,11.8,125.4,12.5,128.3,13.1z"/>
		<path d="M118.8,198.8c0,0.9-0.7,1.8-1.6,1.8c-3.2,0.4-6.1,0.7-9.3,0.7c-1.1,0-1.8-0.7-1.8-1.6c0-1.1,0.7-1.8,1.6-1.8
			c2.9-0.2,5.9-0.4,8.8-0.7C117.4,197.3,118.1,197.9,118.8,198.8z"/>
		<circle class="st0" cx="105.9" cy="105.9" r="7.3"/>
		<path d="M107,12.2c0.2,1.1-0.7,1.8-1.6,1.8c-2.9,0-5.9,0.2-9.1,0.4c-0.9,0-1.6-0.7-2-1.6c0-0.9,0.7-1.8,1.6-1.8
			c3.2-0.2,6.1-0.4,9.3-0.4C106.4,10.6,107,11.3,107,12.2z"/>
		<path class="st1" d="M96.4,14.5c3.2-0.2,6.1-0.4,9.1-0.4c0.9,0,1.8-0.7,1.6-1.8c0-0.9-0.7-1.6-1.8-1.6c-3.2,0-6.1,0.2-9.3,0.4
			c-0.9,0-1.6,0.9-1.6,1.8C94.8,13.8,95.5,14.5,96.4,14.5z M12.4,106.4c0.9,0,1.6-0.7,1.8-1.6c0-2.9,0.2-5.9,0.5-8.8
			c0-0.9-0.7-1.8-1.6-1.8c-0.9-0.2-1.8,0.7-1.8,1.6c-0.2,2.9-0.5,6.1-0.5,9.3C10.6,105.8,11.2,106.4,12.4,106.4z M105.9,3.4
			c56.6,0,102.6,46,102.6,102.6c0,56.6-46,102.6-102.6,102.6S3.3,162.6,3.3,106C3.3,49.4,49.3,3.4,105.9,3.4z M201.2,105.8
			c0-0.9-0.7-1.8-1.8-1.8c-0.9,0.2-1.6,1.1-1.6,2c0,2.9-0.2,5.9-0.4,8.8c0,0.9,0.7,1.8,1.6,1.8c0,0,0,0,0.2,0c0.9,0,1.6-0.7,1.6-1.6
			C201,112.1,201.2,108.9,201.2,105.8z M199,96.7c0.9,0,1.6-0.9,1.6-1.8c-0.4-3.2-0.9-6.1-1.6-9.1c-0.2-0.9-1.1-1.6-2-1.4
			c-0.9,0.2-1.6,1.1-1.3,2c0.7,2.7,1.3,5.7,1.6,8.6c0,0.9,0.9,1.6,1.6,1.6H199z M198.8,128.9c0.2-0.9-0.2-1.8-1.4-2
			c-0.9-0.2-1.8,0.2-2,1.4c-0.9,2.7-1.8,5.7-2.7,8.4c-0.2,0.9,0.2,1.8,1.1,2.3c0.2,0,0.5,0,0.7,0c0.7,0,1.4-0.4,1.6-1.1
			C197.2,134.8,197.8,131.8,198.8,128.9z M194.2,74.5c0.9-0.2,1.4-1.4,0.9-2.3c-1.1-2.9-2.3-5.7-3.6-8.4c-0.5-0.9-1.4-1.1-2.3-0.7
			c-0.9,0.4-1.1,1.4-0.7,2.3c1.1,2.5,2.3,5.2,3.4,7.9c0.2,0.7,0.9,1.1,1.6,1.1C193.8,74.5,194,74.5,194.2,74.5z M190.1,150.6
			c0.4-0.9,0.2-1.8-0.7-2.3c-0.9-0.5-1.8-0.2-2.3,0.7c-1.4,2.7-2.9,5.2-4.5,7.7c-0.5,0.7-0.2,1.6,0.4,2.3c0.2,0.2,0.7,0.2,0.9,0.2
			c0.4,0,1.1-0.2,1.3-0.7C187,156,188.6,153.3,190.1,150.6z M183.8,54.1c0.7-0.5,0.9-1.6,0.5-2.3c-1.8-2.5-3.6-5-5.7-7.3
			c-0.7-0.7-1.6-0.9-2.5-0.2c-0.7,0.7-0.9,1.6-0.2,2.5c2.3,2,4.1,4.5,5.7,6.8c0.2,0.5,0.9,0.7,1.4,0.7
			C183.1,54.4,183.6,54.4,183.8,54.1z M177.2,169.4c0.7-0.7,0.7-1.8-0.2-2.5c-0.7-0.7-1.8-0.7-2.5,0.2c-2,2.3-4.1,4.3-6.3,6.3
			c-0.7,0.7-0.7,1.8,0,2.5c0.2,0.5,0.9,0.5,1.4,0.5s0.9-0.2,1.1-0.5C172.9,173.9,175.2,171.7,177.2,169.4z M169.3,36.9
			c0.7-0.7,0.4-1.8-0.2-2.5c-2.3-2-4.8-4.1-7.3-5.9c-0.7-0.5-1.8-0.5-2.5,0.5c-0.4,0.7-0.4,1.8,0.4,2.5c2.5,1.8,4.8,3.6,7,5.7
			c0.2,0.2,0.7,0.5,1.1,0.5C168.4,37.6,168.9,37.4,169.3,36.9z M159.8,184.8c0.7-0.4,0.9-1.6,0.5-2.3c-0.7-0.9-1.6-1.1-2.5-0.7
			c-2.5,1.6-5,3.2-7.7,4.8c-0.9,0.5-1.1,1.6-0.7,2.3c0.2,0.7,0.9,0.9,1.6,0.9c0.2,0,0.4,0,0.9-0.2
			C154.6,188,157.3,186.4,159.8,184.8z M150.7,23.8c0.5-0.9,0-1.8-0.7-2.3c-2.7-1.6-5.7-2.7-8.4-3.9c-0.9-0.4-1.8,0-2.3,0.9
			c-0.4,0.9,0,1.8,0.9,2c2.7,1.1,5.4,2.3,8.2,3.9c0.2,0.2,0.4,0.2,0.7,0.2C149.8,24.7,150.3,24.5,150.7,23.8z M139.2,195.4
			c0.9-0.2,1.4-1.4,0.9-2.3c-0.2-0.9-1.1-1.4-2-1.1c-2.7,1.1-5.7,2-8.6,2.7c-0.9,0.2-1.4,1.1-1.1,2c0.2,0.7,0.9,1.4,1.6,1.4
			c0.2,0,0.2,0,0.4,0C133.3,197.5,136.2,196.4,139.2,195.4z M129.7,15.2c0.2-0.9-0.4-1.8-1.4-2c-2.9-0.7-6.1-1.4-9.1-1.8
			c-0.9-0.2-1.8,0.4-2,1.4c0,1.4,0.7,2,1.6,2.3c2.9,0.5,5.9,0.9,8.8,1.6c0.2,0,0.2,0,0.5,0C128.8,16.5,129.5,16.1,129.7,15.2z
			 M117.2,200.7c0.9,0,1.6-0.9,1.6-1.8c-0.7-0.9-1.4-1.6-2.3-1.6c-2.9,0.2-5.9,0.5-8.8,0.7c-0.9,0-1.6,0.7-1.6,1.8
			c0,0.9,0.7,1.6,1.8,1.6C111.1,201.3,114.1,201.1,117.2,200.7z M113.2,105.9c0-4-3.3-7.3-7.3-7.3c-4,0-7.3,3.3-7.3,7.3
			c0,4,3.3,7.3,7.3,7.3C109.9,113.2,113.2,109.9,113.2,105.9z M95.5,199.1c0.2-0.9-0.4-1.8-1.3-1.8c-2.9-0.4-5.9-0.9-8.8-1.6
			c-0.9-0.2-1.8,0.4-2,1.4c-0.2,0.9,0.5,1.8,1.4,2c2.9,0.7,6.1,1.1,9.1,1.6h0.2C94.8,200.7,95.5,200,95.5,199.1z M83.5,17
			c0.9-0.2,1.4-1.1,1.1-2c-0.2-0.9-1.1-1.4-2-1.1c-2.9,0.7-5.9,1.6-8.8,2.7c-0.9,0.2-1.4,1.4-1.1,2.3c0.2,0.2,0.9,0.7,1.6,0.7
			c0.2,0,0.4,0,0.7,0C77.6,18.6,80.5,17.7,83.5,17z M73.5,194.1c0.4-1.1,0-2-0.9-2.3c-2.7-1.1-5.4-2.3-8.2-3.6
			c-0.9-0.5-1.8,0-2.3,0.7c-0.5,0.9,0,1.8,0.7,2.3c2.7,1.4,5.7,2.7,8.4,3.9c0.2,0,0.4,0.2,0.7,0.2C72.6,195.2,73.3,194.8,73.5,194.1
			z M62.6,24.9c0.9-0.4,1.1-1.6,0.7-2.3c-0.5-0.9-1.6-1.1-2.3-0.7c-2.7,1.4-5.4,2.9-7.9,4.8c-0.7,0.4-0.9,1.6-0.5,2.3
			c0.2,0.5,0.9,0.7,1.4,0.7c0.2,0,0.7,0,0.9-0.2C57.4,27.9,59.9,26.3,62.6,24.9z M53.1,183.7c0.5-0.7,0.5-1.8-0.5-2.3
			c-2-2-4.5-3.9-6.8-5.7c-0.7-0.7-1.8-0.4-2.5,0.2c-0.7,0.7-0.5,1.8,0.2,2.5c2.3,2,4.8,3.9,7.3,5.7c0.2,0.2,0.7,0.2,0.9,0.2
			C52.2,184.4,52.9,184.1,53.1,183.7z M44.5,37.6c0.7-0.7,0.7-1.8,0.2-2.5c-0.7-0.7-1.8-0.7-2.5-0.2c-2.3,2-4.5,4.3-6.6,6.6
			c-0.7,0.7-0.7,1.8,0,2.5c0.2,0.4,0.7,0.4,1.1,0.4c0.4,0,0.9-0.2,1.4-0.4C40.2,41.7,42.3,39.6,44.5,37.6z M36.4,168.7
			c0.7-0.7,0.7-1.6,0.2-2.5c-2-2.3-3.9-4.5-5.4-7c-0.5-0.7-1.6-0.9-2.5-0.5c-0.7,0.5-0.9,1.6-0.4,2.5c1.8,2.5,3.6,5,5.7,7.2
			c0.2,0.5,0.9,0.7,1.4,0.7C35.7,169.2,36.1,169,36.4,168.7z M30.3,54.4c0-0.7-0.2-1.8-0.9-2.3c-0.7-0.5-1.8-0.2-2.3,0.5
			c-1.8,2.5-3.4,5.2-4.8,7.9c-0.4,0.9-0.2,1.8,0.7,2.3c0.2,0.2,0.5,0.2,0.9,0.2c0.7,0,1.1-0.2,1.6-0.9
			C26.9,59.6,28.4,56.8,30.3,54.4z M23.2,150.2c0.9-0.5,1.1-1.4,0.7-2.3c-1.4-2.7-2.5-5.4-3.6-8.1c-0.5-0.9-1.4-1.4-2.3-0.9
			c-0.9,0.5-1.4,1.4-0.9,2.3c1.1,2.9,2.5,5.7,3.9,8.4c0.2,0.7,0.9,0.9,1.6,0.9C22.8,150.4,23,150.4,23.2,150.2z M19.4,73.8
			c0.4-0.5,0-1.6-0.9-1.8c-0.9-0.2-1.8,0.2-2.3,0.9c-1.1,2.9-2,5.9-2.7,8.8c-0.2,0.9,0.2,1.8,1.1,2c0.2,0,0.2,0,0.5,0
			c0.7,0,1.4-0.5,1.6-1.4C17.3,79.5,18.3,76.8,19.4,73.8z M15.3,129.1c0.9-0.2,1.6-1.1,1.4-2c-0.9-2.9-1.6-5.9-1.8-8.8
			c-0.2-0.9-0.9-1.6-1.8-1.4c-0.9,0.2-1.6,0.9-1.4,1.8c0.4,2.9,0.9,6.1,1.6,9.1c0.2,0.7,0.9,1.4,1.6,1.4
			C15.1,129.1,15.1,129.1,15.3,129.1z"/>
		<path d="M94.1,197.3c0.9,0,1.6,0.9,1.3,1.8c0,0.9-0.7,1.6-1.6,1.6h-0.2c-2.9-0.4-6.1-0.9-9.1-1.6c-0.9-0.2-1.6-1.1-1.4-2
			c0.2-0.9,1.1-1.6,2-1.4C88.2,196.4,91.2,196.8,94.1,197.3z"/>
		<path d="M84.6,14.9c0.2,0.9-0.2,1.8-1.1,2c-2.9,0.7-5.9,1.6-8.6,2.5c-0.2,0-0.5,0-0.7,0c-0.7,0-1.4-0.5-1.6-0.7
			c-0.2-0.9,0.2-2,1.1-2.3c2.9-1.1,5.9-2,8.8-2.7C83.5,13.6,84.4,14,84.6,14.9z"/>
		<path d="M72.6,191.8c0.9,0.2,1.4,1.1,0.9,2.3c-0.2,0.7-0.9,1.1-1.6,1.1c-0.2,0-0.5-0.2-0.7-0.2c-2.7-1.1-5.7-2.5-8.4-3.9
			c-0.7-0.4-1.1-1.4-0.7-2.3c0.5-0.7,1.4-1.1,2.3-0.7C67.2,189.6,69.9,190.7,72.6,191.8z"/>
		<path d="M63.3,22.6c0.4,0.7,0.2,1.8-0.7,2.3c-2.7,1.4-5.2,2.9-7.7,4.5c-0.2,0.2-0.7,0.2-0.9,0.2c-0.5,0-1.1-0.2-1.4-0.7
			c-0.5-0.7-0.2-1.8,0.5-2.3c2.5-1.8,5.2-3.4,7.9-4.8C61.7,21.5,62.9,21.7,63.3,22.6z"/>
		<path d="M52.7,181.4c0.9,0.4,0.9,1.6,0.5,2.3c-0.2,0.4-0.9,0.7-1.4,0.7c-0.2,0-0.7,0-0.9-0.2c-2.5-1.8-5-3.6-7.3-5.7
			c-0.7-0.7-0.9-1.8-0.2-2.5c0.7-0.7,1.8-0.9,2.5-0.2C48.1,177.6,50.6,179.4,52.7,181.4z"/>
		<path d="M44.7,35.1c0.5,0.7,0.5,1.8-0.2,2.5c-2.3,2-4.3,4.1-6.3,6.3c-0.5,0.2-0.9,0.4-1.4,0.4c-0.5,0-0.9,0-1.1-0.4
			c-0.7-0.7-0.7-1.8,0-2.5c2-2.3,4.3-4.5,6.6-6.6C42.9,34.4,44.1,34.4,44.7,35.1z"/>
		<path d="M36.6,166.2c0.4,0.9,0.4,1.8-0.2,2.5c-0.2,0.2-0.7,0.5-1.1,0.5c-0.5,0-1.1-0.2-1.4-0.7c-2-2.3-3.9-4.8-5.7-7.2
			c-0.5-0.9-0.2-2,0.4-2.5c0.9-0.4,2-0.2,2.5,0.5C32.7,161.7,34.6,164,36.6,166.2z"/>
		<path d="M29.3,52.1c0.7,0.5,0.9,1.6,0.9,2.3c-1.8,2.5-3.4,5.2-4.8,7.7C25,62.7,24.6,63,23.9,63c-0.4,0-0.7,0-0.9-0.2
			c-0.9-0.5-1.1-1.4-0.7-2.3c1.4-2.7,3-5.4,4.8-7.9C27.5,51.9,28.7,51.6,29.3,52.1z"/>
		<path d="M23.9,147.9c0.5,0.9,0.2,1.8-0.7,2.3c-0.2,0.2-0.4,0.2-0.7,0.2c-0.7,0-1.4-0.2-1.6-0.9c-1.4-2.7-2.7-5.4-3.9-8.4
			c-0.5-0.9,0-1.8,0.9-2.3c0.9-0.4,1.8,0,2.3,0.9C21.4,142.5,22.6,145.2,23.9,147.9z"/>
		<path d="M18.5,72c0.9,0.2,1.4,1.4,0.9,1.8c-1.1,2.9-2,5.7-2.7,8.6c-0.2,0.9-0.9,1.4-1.6,1.4c-0.2,0-0.2,0-0.5,0
			c-0.9-0.2-1.4-1.1-1.1-2c0.7-2.9,1.6-5.9,2.7-8.8C16.7,72.2,17.6,71.8,18.5,72z"/>
		<path d="M16.7,127.1c0.2,0.9-0.4,1.8-1.4,2c-0.2,0-0.2,0-0.4,0c-0.7,0-1.4-0.7-1.6-1.4c-0.7-2.9-1.1-6.1-1.6-9.1
			c-0.2-0.9,0.4-1.6,1.4-1.8c0.9-0.2,1.6,0.4,1.8,1.4C15.1,121.2,15.8,124.1,16.7,127.1z"/>
		<path d="M13,94.2c0.9,0,1.6,0.9,1.6,1.8c-0.2,2.9-0.5,5.9-0.5,8.8c-0.2,0.9-0.9,1.6-1.8,1.6c-1.1,0-1.8-0.7-1.6-1.4
			c0-3.2,0.2-6.3,0.5-9.3C11.2,94.9,12.1,94,13,94.2z"/>
	</g>
	<g>
		<circle class="st2" cx="105.9" cy="105.9" r="7.3"/>
	</g>
</g>
</svg>
