<?xml version="1.0" encoding="utf-8"?>
<!-- Generator: Adobe Illustrator 21.0.0, SVG Export Plug-In . SVG Version: 6.00 Build 0)  -->
<svg version="1.1" id="Calque_1" xmlns="http://www.w3.org/2000/svg" xmlns:xlink="http://www.w3.org/1999/xlink" x="0px" y="0px"
	 viewBox="0 0 105.9 183.4" style="enable-background:new 0 0 105.9 183.4;" xml:space="preserve">
<style type="text/css">
	.st0{fill:#E84005;}
	.st1{fill:none;stroke:#000000;stroke-width:0.4882;stroke-miterlimit:10;}
	.st2{fill:#C69200;}
	.st3{fill:#0D5403;}
	.st4{fill:#0F7C03;}
	.st5{fill:#FFFFFF;}
	.st6{fill:#010202;}
	.st7{fill:none;stroke:#000000;stroke-width:0.1313;stroke-miterlimit:10;}
	.st8{fill:none;stroke:#000000;stroke-width:3.9168;stroke-miterlimit:10;}
	.st9{fill:#E50707;}
	.st10{fill:#1C890A;}
	.st11{fill:#0721DD;}
</style>
<g>
	<path class="st0" d="M105.8,107.7v71.7c0,2.1-1.7,3.8-3.8,3.8H3.9c-2.1,0-3.8-1.7-3.8-3.8V3.8C0.1,1.7,1.8,0,3.9,0H102
		c2.1,0,3.8,1.7,3.8,3.8v71c0,1-0.5,1.8-1.4,2.3l-1.1,0.6c-0.9,0.4-1.4,1.3-1.4,2.3v23.7c0,1.1,0.7,2.1,1.8,2.4l1.4,0.4
		C105.5,106.7,105.8,107.2,105.8,107.7L105.8,107.7z"/>
	<path class="st1" d="M105.8,107.7v71.7c0,2.1-1.7,3.8-3.8,3.8H3.9c-2.1,0-3.8-1.7-3.8-3.8V3.8C0.1,1.7,1.8,0,3.9,0H102
		c2.1,0,3.8,1.7,3.8,3.8v71c0,1-0.5,1.8-1.4,2.3l-1.1,0.6c-0.9,0.4-1.4,1.3-1.4,2.3v23.7c0,1.1,0.7,2.1,1.8,2.4l1.4,0.4
		C105.5,106.7,105.8,107.2,105.8,107.7L105.8,107.7z"/>
	<path d="M65.9,31.4v9.8c0,1.9-0.8,5.6-2.1,7.1c-1.9,2.8-4.9,4.9-8.4,5.6v4.3c1,0.8,1.6,1.9,1.6,3.2c0,1.3-0.6,2.5-1.6,3.2v4h4
		c2.3,0,4,1.8,4,4v5.7h-21v-5.7c0-2.3,1.8-4,4-4h4v-4c-1-0.8-1.6-1.9-1.6-3.2c0-1.3,0.6-2.5,1.6-3.2v-4.3c-3.6-0.6-6.5-2.7-8.4-5.6
		c-1.4-1.2-2.1-5.3-2.1-7.1v-9.8v-3.2h25.9V31.4z M64.3,41.2V29.9H41.6v11.3c0,6.2,5.1,11.3,11.3,11.3S64.3,47.4,64.3,41.2z
		 M61.9,76.8v-4c0-1.4-1.1-2.4-2.4-2.4H46.5c-1.4,0-2.4,1.1-2.4,2.4v4H61.9z M55.4,61.4c0-0.9-0.5-1.6-1.2-2.1l-0.4-0.2v-4.9h-1.6
		v4.9l-0.4,0.2c-0.7,0.5-1.2,1.2-1.2,2.1c0,0.9,0.5,1.6,1.2,2.1l0.4,0.2v4.9h1.6v-4.9l0.4-0.2C54.9,63,55.4,62.3,55.4,61.4z"/>
	<path class="st2" d="M64.3,29.9v11.3c0,6.2-5.1,11.3-11.3,11.3s-11.3-5.1-11.3-11.3V29.9H64.3z"/>
	<path class="st2" d="M61.9,72.7v4H44.1v-4c0-1.4,1.1-2.4,2.4-2.4h12.9C60.8,70.3,61.9,71.4,61.9,72.7z"/>
	<path class="st2" d="M54.2,59.3c0.7,0.5,1.2,1.2,1.2,2.1c0,0.9-0.5,1.6-1.2,2.1l-0.4,0.2v4.9h-1.6v-4.9l-0.4-0.2
		c-0.7-0.5-1.2-1.2-1.2-2.1c0-0.9,0.5-1.6,1.2-2.1l0.4-0.2v-4.9h1.6v4.9L54.2,59.3z"/>
	<path class="st3" d="M55.8,159.8c-0.1,0-0.1,0-0.2,0C55.6,159.8,55.7,159.8,55.8,159.8z M79.6,148.5L79.6,148.5L79.6,148.5
		L79.6,148.5l0.1-0.1c0-0.1,0.1-0.1,0.1-0.1c0.1,0,0-0.1,0.1-0.2c0.1,0,0.1,0,0.1-0.2c-0.1,0,0,0.1-0.1,0.2c-0.1,0-0.1,0-0.1,0.2
		c0,0-0.1,0-0.1,0.1l0,0L79.6,148.5L79.6,148.5L79.6,148.5z M89.4,103.7c10.5,4.1,12.2,17.2,11.6,17.4c-0.5,0.3-3.8-12.3-13.1-13.8
		c-4-0.6-9.2,0.7-12.4,4c-1.3,1.5-1.9,3-2.3,4.3c0.6,0.2,1.1,0.4,1.7,0.7c-1.4,0.4-2.1,1-2.1,1l7.9,10.4c0,0,0.4,0,1-0.1
		c0,1.2-0.2,2.3-0.5,3.5c0.6,0.7,1,1.5,1.4,2.3c2.1,4.4,0.9,9.5-2.5,12l-0.1,0.3c0.1,0.9,0.1,1.8,0.2,2.6c0.2,5.9-0.9,9.2-2,11.1
		l1.3,6l-2.4-2.5c0,0.1,0,0.1-0.1,0.2l-0.1,1.4l-1.1-0.8c-0.2,0.2-0.5,0.3-0.8,0.5l0,1.2l-0.9-0.7l-0.1,0c0,0,0,0-0.1,0
		c-0.1,0-0.1,0-0.1,0c-0.3,0.1-0.8,0.3-1.5,0.6l0,1.2l-1-0.8c-0.3,0.1-0.5,0.1-0.7,0.3l0,1.4l-1.4-1.1l0.5,3.7l-3.8-4.6
		c-2.2-0.2-5.8-1.2-10.7-5.4c0,0,0.1,0,0.1,0c0-0.1-0.1-0.1-0.2,0c-0.3-0.2-0.6-0.5-0.9-0.8c-5.8-0.9-11.1-3.9-14.5-8.7
		c-1.2-0.5-2.4-1.3-3.4-2.2c0.5-0.5,0.8-0.8,0.8-0.8l-2.8-12.8c0,0-0.6,0.1-1.3,0.5c0.2-0.5,0.3-1,0.6-1.4c-1.3-0.6-2.7-1-4.5-0.9
		c-4.5,0.2-8.8,3.6-10.7,7.3c-4.4,8.6,3.7,20,3.2,20.2c-0.5,0.3-10.1-10.3-7.1-21.6c1.4-5.2,4.9-8.5,7.8-10.7
		c0.8,0.6,1.7,1.1,2.9,1.3c5.2,1,9.9-4.2,9.7-4.7c0-0.1-0.3-0.1-0.7,0c-1.3,0.2-3.6,0.2-5.9-0.3c5.3-2.6,12-4.3,15.6-3
		c1.5-1.4,3.3-2.6,5.4-3.5c2.7-1.3,5.4-2.1,8.2-2.3c1.5-3,5.9-6.3,10.5-8.7c-0.7,1.8-1.6,3.1-2.3,3.8c-0.1,0.2-0.4,0.4-0.3,0.5
		c0.2,0.4,6,0.6,7.6-3.6c0.4-0.9,0.4-2,0.4-3C76.9,103.2,83.2,101.3,89.4,103.7z M74.3,128.7c-1.8-3.7-6.2-5.3-9.9-3.5
		c-3.7,1.8-5.3,6.2-3.5,9.9c1.8,3.7,6.2,5.3,9.9,3.5C74.5,136.9,76,132.4,74.3,128.7z M79.5,148.7C79.5,148.7,79.5,148.6,79.5,148.7
		C79.5,148.6,79.5,148.6,79.5,148.7L79.5,148.7z M74.4,145.8c-0.4-0.9-0.4-0.9-0.4-0.9l-1.3,1.7l0.8,1.8
		C73.5,148.4,74.9,146.7,74.4,145.8z M72.4,141.4c0,0-5.7,1.7-1.9,7.4C70.5,148.8,68,143.5,72.4,141.4z M61.6,153.1
		c-2.1-6.6-7-3.2-7-3.2C59,147.7,61.6,153.1,61.6,153.1z M55.7,137.5c-1.8-3.7-6.3-5.3-10-3.5c-3.7,1.8-5.3,6.3-3.5,10
		c1.8,3.8,6.3,5.3,10,3.5C55.9,145.7,57.5,141.2,55.7,137.5z M59.3,155.2l-0.8-1.8l-2.2,0c0,0,0,0,0.4,0.9
		C57.1,155.2,59.3,155.2,59.3,155.2z M55.7,159.8c-0.1,0-0.1,0-0.2,0C55.5,159.9,55.6,159.8,55.7,159.8z M55.5,159.9
		c-0.1,0-0.1,0-0.2,0C55.3,159.9,55.4,159.8,55.5,159.9z"/>
	<path class="st4" d="M88.8,125.9c0.3,0.7-4.9,1.4-7.2,1.6c0-1.9-0.4-3.8-1.2-5.6c-1.2-2.5-3.2-4.5-5.6-5.7c2.3-0.6,6.3-0.3,11,5.6
		C85.9,121.8,88.4,125,88.8,125.9z"/>
	<path d="M70.8,97.5c0.3,0.5,2.3,3.6,2.5,6.8c-0.3,0.1-0.7,0.2-1,0.3c-1.4,0.5-2.9,1.2-4.4,2c0.9-2.3,1.5-5.3,0.8-8.2
		c-0.8-3.2-2.8-5-2.5-5.3C66.6,92.8,69.1,94.8,70.8,97.5z"/>
	<path d="M72.4,104.7c0.3-0.1,0.6-0.2,1-0.3c0.1,1,0,2-0.4,3c-1.7,4.3-7.4,4.1-7.6,3.6c0-0.1,0.2-0.3,0.3-0.5
		c0.7-0.7,1.6-2.1,2.3-3.8C69.5,105.9,71,105.2,72.4,104.7z"/>
	<path class="st3" d="M80.4,122c0.9,1.8,1.2,3.7,1.2,5.6c-0.6,0.1-1,0.1-1,0.1l-7.9-10.4c0,0,0.8-0.7,2.1-1
		C77.3,117.5,79.2,119.4,80.4,122z"/>
	<path class="st4" d="M84.3,137.8c0,0,2.1,2.3,2,4.5c0,2.2-2.3,8.7-1.5,10.5c0.8,1.8,0.7,12.7,0.7,12.7l-5.4,9.1l0,2.2l-0.6-0.5
		L80,178l-0.5,1.3l-1.3-0.5l-0.4-0.9l-0.9-0.7l0,1.1l-1.9-1.9l-0.1,0l0.3,0.6l-0.9-0.7l-8.8-1.3c0,0-8.7-6.7-9.5-8.5
		c-0.8-1.8-7.4-4.1-9.1-5.4c-1.7-1.3-2.1-4.4-2.1-4.4s3.9,3.6,9.2,3.2l0,0l8.1,10.2c0,0,3,4,7,3.2c0.1,0,0.3,0,0.4-0.1l0.1-1.2
		l1.1,1c0.7-0.2,1.3-0.4,1.9-0.6l0.1-0.8l0.7,0.5c0.4-0.2,0.7-0.2,0.9-0.3l0.1,0l0.1-1l0.9,0.7l0.9-0.4l0-1.1l0.9,0.7
		c0.3-0.1,0.6-0.4,0.9-0.6l0-1l0.7,0.5c0.5-0.3,1-0.7,1.6-1.1l0-1.6l1.1,0.8c0.3-0.1,0.5-0.3,0.7-0.6c3.1-2.6,1.9-7.4,1.9-7.4
		l-2.8-12.6l0,0l0-0.1C84.7,143.1,84.3,137.8,84.3,137.8z"/>
	<path class="st5" d="M72.2,127.6c0.4,0.6,1.8,2.9-0.3,5.9l-0.8-0.3c0.1-0.5,0-1-0.2-1.5c-0.3-0.5-0.6-0.9-1.1-1.1
		C72.7,129,72.4,128,72.2,127.6z"/>
	<path class="st6" d="M80.9,147.1L80.9,147.1C81,147,80.9,147.2,80.9,147.1z"/>
	<path class="st5" d="M72.2,127.6c0.2,0.4,0.5,1.4-2.4,3c0.4,0.2,0.8,0.6,1.1,1.1c0.2,0.5,0.3,1,0.2,1.5l-3.6-1.3l0,0l-0.1,0
		c0,0,0,0.1,0,0.1l-0.8,2.1c-0.1-0.1-0.2-0.2-0.2-0.4c-0.1-0.3-0.1-0.5-0.3-0.7c-1.3,1.8-0.6,3.6-0.5,3.8l0,0l2,0.1
		c2-1.2,3.3-2.4,4.1-3.5C74,130.5,72.6,128.2,72.2,127.6z M64.2,130.7c1.5-3.6,4.5-6,4.5-6c-4.1,1.3-5.9,3.2-6.5,5.3
		c-1,3.4,1.4,6.9,1.4,6.9C63,134.6,63.4,132.5,64.2,130.7z M64.4,125.2c3.7-1.8,8.1-0.2,9.9,3.5c1.8,3.7,0.2,8.1-3.5,9.9
		c-3.7,1.8-8.1,0.2-9.9-3.5C59.1,131.4,60.7,127,64.4,125.2z"/>
	<path class="st6" d="M80.8,147.2c0,0.1,0,0.1-0.1,0.2C80.7,147.3,80.7,147.3,80.8,147.2z"/>
	<path class="st6" d="M80.2,147.9c0-0.1,0-0.1,0.1-0.2C80.3,147.8,80.3,147.9,80.2,147.9z"/>
	<path d="M80,148c0,0.1,0,0.1-0.1,0.2C80,148.2,80,148.1,80,148z"/>
	<path d="M79.8,148.4c0-0.1,0-0.1,0.1-0.2C79.8,148.2,79.9,148.3,79.8,148.4z"/>
	<path d="M79.8,148.4C79.8,148.4,79.7,148.4,79.8,148.4L79.8,148.4C79.7,148.4,79.7,148.4,79.8,148.4z"/>
	<polygon points="79.7,148.4 79.7,148.4 79.7,148.4 	"/>
	<polygon points="79.7,148.4 79.7,148.4 79.7,148.4 79.7,148.5 79.7,148.5 	"/>
	<polygon points="79.7,148.5 79.7,148.4 79.7,148.5 79.7,148.5 	"/>
	<polygon points="79.7,148.5 79.7,148.5 79.6,148.5 	"/>
	<path d="M79.6,148.6C79.5,148.6,79.5,148.7,79.6,148.6L79.6,148.6C79.5,148.6,79.5,148.6,79.6,148.6z"/>
	<path class="st5" d="M71.2,133.2l0.8,0.3c-0.8,1.1-2.1,2.3-4.1,3.5l-2-0.1l0,0l0.9-2.7c0.7,1,1.9,1.3,3,0.8
		C70.5,134.6,71,133.9,71.2,133.2z"/>
	<path class="st5" d="M67.6,131.9l3.6,1.3c-0.1,0.8-0.6,1.4-1.4,1.8c-1.1,0.5-2.4,0.2-3-0.8l0.8-2.1c0.1,0.4,0.3,1.1,1,1.9
		C68.5,134,68.3,132.6,67.6,131.9z"/>
	<path class="st5" d="M62.2,130c0.6-2,2.4-4,6.5-5.3c0,0-3,2.3-4.5,6L62.2,130z"/>
	<path class="st5" d="M67.6,131.9c0.7,0.6,1,2,1,2c-0.8-0.8-1-1.5-1-1.9L67.6,131.9L67.6,131.9z"/>
	<path class="st5" d="M67.6,131.9l-0.1,0.2C67.5,132.1,67.5,132,67.6,131.9L67.6,131.9z"/>
	<path class="st5" d="M66.7,134.2l-0.9,2.7c-0.1-0.2-0.8-2,0.5-3.8c0.1,0.3,0.1,0.5,0.3,0.7C66.6,134,66.7,134.1,66.7,134.2z"/>
	<path class="st5" d="M62.2,130l2,0.7c-0.7,1.8-1.1,3.9-0.6,6.2C63.5,136.9,61.1,133.4,62.2,130z"/>
	<path class="st5" d="M51,134.8c4,1,5.3,5.6,5.3,5.6c-1.7-2-3.9-3-6-3.4l0.7-1.8L51,134.8z"/>
	<path class="st5" d="M50.3,136.9c2.1,0.5,4.3,1.4,6,3.4c0,0-1.3-4.6-5.3-5.6c-2-0.5-4.5-0.1-7.9,2.2C43,137,46.5,136.1,50.3,136.9z
		 M47.4,144.9c1.6,0.1,3.6-0.2,6.4-1.2l0.8-1l0.6-0.8c0,0-1.1-2.4-4.6-1.8c0.3,0.2,0.6,0.5,0.7,0.8c0.1,0.2,0.2,0.4,0.2,0.7
		l-2.6-0.9l0,0l0,0l-1.2,3.3c-0.3-0.2-0.6-0.6-0.8-1c-0.2-0.4-0.2-1.1-0.1-1.6c-3.1,1.3-3.8,0.5-3.9,0
		C43.1,142.3,43.9,144.6,47.4,144.9z M45.7,133.9c3.8-1.8,8.2-0.2,10,3.5c1.8,3.8,0.2,8.2-3.5,10c-3.7,1.8-8.2,0.2-10-3.5
		C40.4,140.2,41.9,135.7,45.7,133.9z"/>
	<path class="st5" d="M55.2,142l-0.6,0.8l0,0l-3-1.1c0-0.2-0.1-0.5-0.2-0.7c-0.2-0.4-0.4-0.7-0.7-0.8C54,139.6,55.2,142,55.2,142z"
		/>
	<path class="st5" d="M51,134.8l0,0.3l-0.7,1.8c-3.7-0.8-7.3,0.1-7.3,0.1C46.4,134.8,49,134.3,51,134.8z"/>
	<path class="st5" d="M54.6,142.7L54.6,142.7l-0.7,1c-2.8,1-4.8,1.3-6.4,1.2l0.3-0.8c0.7,0.5,1.6,0.6,2.4,0.2c1-0.5,1.5-1.6,1.4-2.6
		L54.6,142.7z"/>
	<path class="st5" d="M48.9,140.7l2.6,0.9c0.2,1.1-0.3,2.1-1.4,2.6c-0.8,0.4-1.8,0.3-2.4-0.2L48.9,140.7c0,0.2,0.1,1.1,1,2.1
		c0,0-0.1-0.7-0.4-1.3C49.4,141.2,49.2,140.9,48.9,140.7z"/>
	<path class="st5" d="M48.9,140.7c0.3,0.2,0.5,0.5,0.6,0.8c0.3,0.6,0.4,1.3,0.4,1.3C49.1,141.9,48.9,141,48.9,140.7L48.9,140.7
		L48.9,140.7z"/>
	<path d="M55.6,159.8c0.1,0,0.1,0,0.2,0C55.7,159.8,55.6,159.8,55.6,159.8z"/>
	<path d="M55.4,159.8c0.1,0,0.1,0,0.2,0C55.6,159.8,55.5,159.9,55.4,159.8z"/>
	<path d="M55.3,159.9c0.1,0,0.1,0,0.2,0C55.4,159.8,55.3,159.9,55.3,159.9z"/>
	<path class="st5" d="M47.7,144.1l-0.3,0.8c-3.5-0.3-4.3-2.6-4.5-3.4c0.1,0.5,0.8,1.2,3.9,0c-0.1,0.5-0.1,1.1,0.1,1.6
		C47.1,143.5,47.4,143.8,47.7,144.1z"/>
	<path d="M55.2,159.9c-0.1,0-0.1,0-0.1,0l0,0C55.1,159.9,55.1,159.9,55.2,159.9z"/>
	<polygon class="st6" points="55,159.9 55.1,159.9 55,159.9 	"/>
	<path class="st6" d="M55,159.9c-0.1,0-0.1,0-0.2,0C54.9,159.9,55,159.9,55,159.9z"/>
	<path class="st6" d="M54.3,159.9c0.1,0,0.1,0,0.2,0C54.5,159.9,54.4,159.9,54.3,159.9z"/>
	<polygon class="st6" points="54.1,159.9 54.2,159.9 54.1,159.9 54.1,159.9 	"/>
	<path d="M34.2,124.5c0.3,0,0.6-0.1,0.7,0c0.2,0.4-4.6,5.7-9.7,4.7c-1.1-0.2-2.1-0.7-2.9-1.3c1.3-1,2.5-1.7,3.4-2.2
		c0.8-0.5,1.7-1,2.7-1.5C30.6,124.7,32.9,124.7,34.2,124.5z"/>
	<path class="st3" d="M34.3,134.6l2.8,12.8c0,0-0.3,0.3-0.8,0.8c-1.1-1-2.1-2.3-2.7-3.8c-1.4-3-1.6-6.3-0.6-9.3
		C33.7,134.7,34.3,134.6,34.3,134.6z"/>
	<path d="M20.9,120.3c1.8,2.1,4.7,3.3,7.4,3.9c-0.9,0.5-1.8,1-2.7,1.5c-0.9,0.6-2.1,1.3-3.4,2.2c-2.8-2.1-3.8-5.7-4-6.3
		c-1-3.1-0.5-6.5,0.1-6.6C18.9,115,18.7,117.8,20.9,120.3z"/>
	<path class="st4" d="M32.9,135.1c-1,3-0.8,6.3,0.6,9.3c0.7,1.4,1.6,2.7,2.7,3.8c-1.8,1.7-5.9,5.5-6.3,4.8c-0.4-0.9-1.2-4.8-1.2-4.8
		C27,139.4,30.8,136.2,32.9,135.1z"/>
	<ellipse transform="matrix(0.9022 -0.4314 0.4314 0.9022 -55.9158 34.8751)" class="st7" cx="48.9" cy="140.7" rx="7.5" ry="7.5"/>
	<ellipse transform="matrix(0.9022 -0.4314 0.4314 0.9022 -50.2973 42.0501)" class="st7" cx="67.6" cy="131.9" rx="7.4" ry="7.4"/>
	<line class="st8" x1="48.9" y1="140.7" x2="43.3" y2="138.7"/>
	<polyline class="st8" points="54.6,142.7 51.6,141.7 48.9,140.7 	"/>
	<polyline class="st8" points="46.9,146.4 47.4,144.9 47.7,144.1 48.9,140.7 48.9,140.7 48.9,140.7 50.3,136.9 50.9,135.1 	"/>
	<polyline class="st8" points="73.2,133.9 71.9,133.5 71.2,133.2 67.6,131.9 67.6,131.9 64.2,130.7 62.2,130 61.9,129.9 	"/>
	<polyline class="st8" points="65.6,137.6 65.8,136.9 66.7,134.2 67.5,132.1 67.6,131.9 69.6,126.3 	"/>
	<polygon class="st9" points="46.7,36.8 44.2,40.4 46.7,43.9 49.3,40.4 	"/>
	<polygon class="st10" points="52.9,36.8 50.4,40.4 52.9,43.9 55.5,40.4 	"/>
	<polygon class="st11" points="59.2,36.8 56.7,40.4 59.2,43.9 61.7,40.4 	"/>
</g>
</svg>
