<?xml version="1.0" encoding="utf-8"?>
<!-- Generator: Adobe Illustrator 21.0.0, SVG Export Plug-In . SVG Version: 6.00 Build 0)  -->
<svg version="1.1" id="Calque_1" xmlns="http://www.w3.org/2000/svg" xmlns:xlink="http://www.w3.org/1999/xlink" x="0px" y="0px"
	 viewBox="0 0 105.9 183.4" style="enable-background:new 0 0 105.9 183.4;" xml:space="preserve">
<style type="text/css">
	.st0{fill:#FFFFFF;}
	.st1{fill:none;stroke:#000000;stroke-width:0.4886;stroke-miterlimit:10;}
	.st2{fill:#FE0000;}
	.st3{fill:#CB0098;}
	.st4{fill:#0000FE;}
	.st5{fill:#FE9800;}
	.st6{fill:#FEFE00;}
	.st7{fill:#009800;}
</style>
<g>
	<path class="st0" d="M105.8,107.8v71.8c0,2.1-1.7,3.8-3.8,3.8H3.8c-2.1,0-3.8-1.7-3.8-3.8V3.8C0,1.7,1.7,0,3.8,0H102
		c2.1,0,3.8,1.7,3.8,3.8v71.1c0,1-0.5,1.8-1.4,2.3l-1.1,0.6c-0.9,0.4-1.4,1.3-1.4,2.3v23.8c0,1.1,0.7,2.1,1.8,2.4l1.4,0.4
		C105.5,106.8,105.8,107.3,105.8,107.8L105.8,107.8z"/>
	<path class="st1" d="M105.8,107.8v71.8c0,2.1-1.7,3.8-3.8,3.8H3.8c-2.1,0-3.8-1.7-3.8-3.8V3.8C0,1.7,1.7,0,3.8,0H102
		c2.1,0,3.8,1.7,3.8,3.8v71.1c0,1-0.5,1.8-1.4,2.3l-1.1,0.6c-0.9,0.4-1.4,1.3-1.4,2.3v23.8c0,1.1,0.7,2.1,1.8,2.4l1.4,0.4
		C105.5,106.8,105.8,107.3,105.8,107.8L105.8,107.8z"/>
	<path class="st2" d="M10.7,58.7c0-4,2.6-5.5,2.5-9.5c0-0.9,1.8-3.8,2.4-3.7c0.2,0,25.4,0,25.6,0C48.9,45.5,50,59,53.4,59
		c1.1,0,9.8-13.5,10.7-13.5c6.2,0,8.5,0,25.6,0c1.1,0,2,1,1.9,2.7c-0.1,3.7,2.9,6.8,2.9,10.5c-0.3,0.6-0.7,0.7-1.2,0.7
		c-0.4,0-0.9,0-1.3,0H13.3C12.4,59.4,11.5,59.8,10.7,58.7z"/>
	<path class="st3" d="M57.4,124.7H45.8c-0.3-4.4-8.6-7.5-8.4-12c0.4-0.5-1-2-0.4-2.1h0.5c40,0-7.5,0,32.5,0.1c1.1,0-3.1,2.3-2.1,3.2
		c0.5,2.6-4.2,2.6-4.2,5.2C63.8,121,57.8,122.8,57.4,124.7L57.4,124.7z"/>
	<path class="st4" d="M23.8,97.5h56.5c1.3,0-0.5-0.4,0.6,0.7c0,4.4-10.3,8.8-10.3,13.2H35.5"/>
	<path class="st5" d="M6.8,58.7h92v13.2c-0.4,0.6-0.8,0.7-1.3,0.7c-0.5,0-1,0-1.5,0H9.5c-0.9,0-2,0.4-2.8-0.8
		C6.8,67.5,6.8,63,6.8,58.7z"/>
	<path class="st6" d="M10.7,71.9h84.8v13.2c-0.3,0.6-0.7,0.7-1.2,0.7c-0.5,0-0.9,0-1.4,0H13.2c-0.9,0-1.8,0.4-2.5-0.7V71.9z"/>
	<path class="st7" d="M13.6,85.1h79.7c0,4.4-9.4,8.8-9.4,13.2H22.2C22.2,93.9,13.6,89.5,13.6,85.1z"/>
	<path d="M93.7,47.1c-9.9-11.3-26.1-11.3-36,0l-4.7,5.4L48.1,47c-5-5.7-11.5-8.5-18-8.5c-6.5,0-13,2.9-18,8.5
		c-9.9,11.3-9.9,29.6,0,40.9l38.4,43.9c1.3,1.4,3.4,1.4,4.7,0C68,117.2,80.8,102.6,93.6,88C103.6,76.7,103.6,58.4,93.7,47.1
		L93.7,47.1z M89,82.7c-12,13.7-24.1,27.5-36.1,41.2l-36-41.2c-7.4-8.5-7.4-22,0-30.4c3.7-4.2,8.5-6.4,13.3-6.4s9.7,2.1,13.4,6.4
		l7.1,8.1c1.3,1.4,3.4,1.4,4.7,0l7-8.1c7.4-8.5,19.2-8.5,26.7,0C96.4,60.8,96.4,74.3,89,82.7L89,82.7z"/>
</g>
</svg>
