<?xml version="1.0" encoding="utf-8"?>
<!-- Generator: Adobe Illustrator 21.0.0, SVG Export Plug-In . SVG Version: 6.00 Build 0)  -->
<svg version="1.1" id="Calque_1" xmlns="http://www.w3.org/2000/svg" xmlns:xlink="http://www.w3.org/1999/xlink" x="0px" y="0px"
	 viewBox="0 0 105.9 183.4" style="enable-background:new 0 0 105.9 183.4;" xml:space="preserve">
<style type="text/css">
	.st0{fill:#A8A7A7;}
	.st1{fill:none;stroke:#000000;stroke-width:0.4886;stroke-miterlimit:10;}
	.st2{fill:#DD0303;}
</style>
<g>
	<path class="st0" d="M105.8,107.8v71.8c0,2.1-1.7,3.8-3.8,3.8H3.8c-2.1,0-3.8-1.7-3.8-3.8V3.8C0,1.7,1.7,0,3.8,0H102
		c2.1,0,3.8,1.7,3.8,3.8v71.1c0,1-0.5,1.8-1.4,2.3l-1.1,0.6c-0.9,0.4-1.4,1.3-1.4,2.3v23.8c0,1.1,0.7,2.1,1.8,2.4l1.4,0.4
		C105.5,106.8,105.8,107.3,105.8,107.8L105.8,107.8z"/>
	<path class="st1" d="M105.8,107.8v71.8c0,2.1-1.7,3.8-3.8,3.8H3.8c-2.1,0-3.8-1.7-3.8-3.8V3.8C0,1.7,1.7,0,3.8,0H102
		c2.1,0,3.8,1.7,3.8,3.8v71.1c0,1-0.5,1.8-1.4,2.3l-1.1,0.6c-0.9,0.4-1.4,1.3-1.4,2.3v23.8c0,1.1,0.7,2.1,1.8,2.4l1.4,0.4
		C105.5,106.8,105.8,107.3,105.8,107.8L105.8,107.8z"/>
	<path d="M56.6,166.4c-9.3,0-25.3-2.9-25.6-5.1c-0.5-2.1,0-6.8,0.5-8c0.3-0.9,2.5-0.9,3.5-1.2l0.3-15.6c-2.7-0.3-8.9-1.2-10.1-2.3
		c-0.7-0.6-1.1-4.4-0.7-9.5c-2.5,0-7.8,0.5-10.5-0.3c-11.3-3.3-12-25.7-1.1-29.5c2.3-0.7,13.7-5.4,14.3-5.9
		C26,76.9,30.1,54.8,49,52.2c0-0.9,1.5-3.6,3-4.1c0.7-1.5,1.8-14.1,2.5-22.4c0-0.2-2.4-0.5-2.4-4.7c0-5.6,9.3-5.6,9.3,0.3
		c0,3.5-2.3,4.4-2.3,4.4c0.2,3.9,0.9,21.8,1.1,22.6c0.2,0.6,2.5,0,3.9,3.8c2,0.3,14.3,3.3,18.6,11.3c6.3,11.9,3.5,35.3,3.5,46.5
		c-0.3,23.2-0.7,48.9-1.2,51.3C84.4,164.6,61.6,166.4,56.6,166.4z M32.1,111.5v4.5c0,0.9-6.2,1.1-6.2,0v-4.7h-6.2
		c0,0,0.5,9.2,11.7,9.5c8.9,0.2,12.4-3.9,12.2-4.7c-0.2-0.5-2.1-3.9-2.3-4.4C41.4,111.5,32.1,111.5,32.1,111.5L32.1,111.5z
		 M55.9,111.9v4.4c0,0.9-6.2,1.1-6.2,0v-4.5l-7.2-0.2c0,0,2.5,9.3,12.8,9.3c13.8,0,12.9-9,12.9-9L55.9,111.9L55.9,111.9z
		 M64.9,136.3H36.3c0,0-0.6,18.8-0.2,19c11.3,4.7,25.7,2.5,31,1.4C76.8,154.4,79.3,136.3,64.9,136.3z M40.2,136.5h-1.5
		c0,0-0.3,19.7,0,19.9c0.2,0,1.1,0.5,1.5,0.3V136.5z M49.3,136.3h-1.5V158c0.5,0,1.4,0.3,1.5,0C49.4,157.7,49.3,136.3,49.3,136.3z
		 M59.5,136.3H58v21.5c0,0,1.5,0.2,1.5-0.3V136.3z M68.8,136.9l-1.5-0.3v20c0,0,1.5-0.5,1.5-0.6V136.9z M73.8,151.1
		c0,0,0.3-0.9,0.6-1.4c0-0.3-9,0.7-19.1,0.6c-9.5-0.2-19.3-1.8-19.3-1.6v1.1c0,0.9,14.1,2.1,19.3,2.1
		C75.1,151.8,73.4,151.5,73.8,151.1z M74.5,142.4c0-0.2-0.2-0.3-0.3-0.7c-0.9,0-9.2,0.9-19.1,0.7c-9.5-0.2-19-1.8-19-1.6v1.4
		c0,0.5,13.8,1.8,19,1.8C75,143.8,74.2,142.6,74.5,142.4L74.5,142.4z"/>
	<path d="M67.4,69c2.8,2.8,2.8,7.3,0,10.1c-3.6,3.6-7.2,7.2-10.7,10.8c-0.4,0.4-0.9,0.4-1.3,0L44.6,79.1c-2.8-2.8-2.8-7.3,0-10.1
		c1.4-1.4,3.2-2.1,5-2.1c1.8,0,3.6,0.7,5,2.1l1.3,1.4l1.3-1.3C60.1,66.2,64.6,66.2,67.4,69L67.4,69z M66.1,77.8
		c2.1-2.1,2.1-5.4,0-7.5c-2.1-2.1-5.4-2.1-7.5,0l-2,2c-0.4,0.4-0.9,0.4-1.3,0l-2-2c-1.1-1.1-2.4-1.6-3.7-1.6c-1.3,0-2.7,0.5-3.7,1.6
		c-2.1,2.1-2.1,5.4,0,7.5l10.1,10.2C59.4,84.5,62.7,81.2,66.1,77.8z"/>
	<path class="st2" d="M66.1,70.3c2.1,2.1,2.1,5.4,0,7.5c-3.4,3.4-6.7,6.8-10.1,10.2L45.9,77.8c-2.1-2.1-2.1-5.4,0-7.5
		c1.1-1.1,2.4-1.6,3.7-1.6c1.3,0,2.7,0.5,3.7,1.6l2,2c0.4,0.4,0.9,0.4,1.3,0l2-2C60.7,68.2,64,68.2,66.1,70.3z"/>
</g>
</svg>
