<?xml version="1.0" encoding="utf-8"?>
<!-- Generator: Adobe Illustrator 21.0.0, SVG Export Plug-In . SVG Version: 6.00 Build 0)  -->
<svg version="1.1" id="Calque_1" xmlns="http://www.w3.org/2000/svg" xmlns:xlink="http://www.w3.org/1999/xlink" x="0px" y="0px"
	 viewBox="0 0 211.9 197.2" style="enable-background:new 0 0 211.9 197.2;" xml:space="preserve">
<style type="text/css">
	.st0{fill:#2D1E03;}
	.st1{fill:#F9D07D;}
	.st2{fill:#008FF9;}
</style>
<g id="XMLID_35_">
	<g>
		<path d="M198.6,84.5c0,23.6-8.4,29.7-10.9,31c-1,0.5-2.1,0.7-3.2,0.7v31.7c0,19.4-15.8,35.2-35.2,35.2v14.1H64.8v-14.1
			c-19.4,0-35.2-15.8-35.2-35.2v-28.2c-0.2,0-0.3,0-0.5,0c-2-0.2-3.9-1.2-5.1-2.8c-0.9-1.2-8.4-12-8.4-32.4C15.5,37.1,55.7,0,107,0
			C158.4,0,198.6,37.1,198.6,84.5z M184.5,109.2c0,0,7-3.5,7-24.7C191.5,41.1,154.4,7,107,7c-47.4,0-84.5,34-84.5,77.5
			c0,18.6,7,28.2,7,28.2s14.1-14.1,14.1-42.3c7,3.5,14.1,7,28.2,7c28.2,0,58.3-14.1,84.5-14.1C184.5,63.4,184.5,91.8,184.5,109.2z
			 M177.5,147.9v-38.7c0-25.1-3.4-38.7-21.1-38.7c-12,0-25.2,3.2-39.1,6.7c-14.9,3.7-30.3,7.4-45.5,7.4c-9.5,0-16.3-1.5-21.8-3.5
			c-2.2,18.2-9.8,29.6-13.4,34.3v32.6c0,15.5,12.6,28.2,28.2,28.2h7.5l-0.1,1l11.2,1.3l0.3-2.3h46.9l0.3,2.3l11.2-1.3l-0.1-1h7.4
			C164.8,176.1,177.5,163.4,177.5,147.9z M142.2,190.2v-7H71.8v7H142.2z"/>
		<path class="st0" d="M191.5,84.5c0,21.1-7,24.7-7,24.7c0-17.4,0-45.8-28.2-45.8c-26.2,0-56.3,14.1-84.5,14.1
			c-14.1,0-21.1-3.5-28.2-7c0,28.2-14.1,42.3-14.1,42.3s-7-9.6-7-28.2C22.5,41.1,59.6,7,107,7C154.4,7,191.5,41.1,191.5,84.5z"/>
		<path class="st1" d="M177.5,109.2v38.7c0,15.5-12.6,28.2-28.2,28.2h-7.4l-3.5-30.3c0.5-1.1,0.3-2.4-0.4-3.4l-3.8-33.2
			c0.6-1,0.9-2.2,0.9-3.5c0-3.9-3.2-7-7-7c-3.9,0-7,3.2-7,7c0,1.9,0.8,3.6,2,4.9l2.7,23.4c-5.6-2.4-12-3.7-18.7-3.7
			c-6.6,0-13,1.3-18.6,3.6l2.7-23.6c1.2-1.2,1.8-2.9,1.8-4.7c0-3.9-3.2-7-7-7c-3.9,0-7,3.2-7,7c0,1.3,0.4,2.6,1,3.7l-3.7,32.8
			c-0.9,1.1-1.1,2.6-0.4,3.9l-3.4,30.1h-7.5c-15.5,0-28.2-12.6-28.2-28.2v-32.6c3.7-4.6,11.2-16,13.4-34.3c5.5,2,12.3,3.5,21.8,3.5
			c15.2,0,30.6-3.8,45.5-7.4c13.9-3.4,27-6.7,39.1-6.7C174.1,70.4,177.5,84,177.5,109.2z"/>
		<rect x="71.8" y="183.1" class="st1" width="70.4" height="7"/>
		<polygon points="141.9,176.1 142,177.1 130.8,178.3 130.6,176.1 		"/>
		<path class="st2" d="M141.9,176.1h-11.3l-3.8-33.8c2.2,1.3,4.2,2.8,6,4.6c1.4,1.4,3.6,1.4,5,0c0.3-0.3,0.6-0.7,0.8-1.1
			L141.9,176.1z"/>
		<path d="M138.1,142.3c0.7,1,0.9,2.3,0.4,3.4L138.1,142.3z"/>
		<path d="M138.1,142.3l0.4,3.4c-0.2,0.4-0.4,0.8-0.8,1.1c-1.4,1.4-3.6,1.4-5,0c-1.7-1.7-3.8-3.3-6-4.6l-0.9-8.3
			c4.6,1.9,8.6,4.6,11.9,7.9C137.8,142,137.9,142.2,138.1,142.3z"/>
		<path class="st2" d="M134.3,109.1l3.8,33.2c-0.1-0.2-0.2-0.3-0.4-0.4c-3.3-3.3-7.3-6-11.9-7.9l-2.7-23.4c1.3,1.3,3.1,2.1,5,2.1
			C130.8,112.7,133.1,111.2,134.3,109.1z"/>
		<path d="M135.2,105.6c0,1.3-0.3,2.4-0.9,3.5l-0.1-1.3l-11.2,1.3l0.2,1.4c-1.2-1.3-2-3-2-4.9c0-3.9,3.2-7,7-7
			C132.1,98.6,135.2,101.8,135.2,105.6z"/>
		<path d="M134.1,107.9l0.1,1.3c-1.2,2.1-3.5,3.6-6.1,3.6c-2,0-3.8-0.8-5-2.1l-0.2-1.4L134.1,107.9z"/>
		<path class="st1" d="M130.6,176.1H83.6l3.8-33.9c5.5-3.2,12.3-4.9,19.5-4.9c7.3,0,14.2,1.8,19.7,5L130.6,176.1z"/>
		<path d="M125.8,134l0.9,8.3c-5.5-3.2-12.4-5-19.7-5c-7.3,0-14,1.7-19.5,4.9l0.9-8.3c5.6-2.4,12-3.6,18.6-3.6
			C113.7,130.3,120.1,131.6,125.8,134z"/>
		<path d="M85.9,98.6c3.9,0,7,3.2,7,7c0,1.8-0.7,3.5-1.8,4.7l0.1-1.2l-11.2-1.3l-0.2,1.5c-0.7-1.1-1-2.3-1-3.7
			C78.9,101.8,82,98.6,85.9,98.6z"/>
		<path d="M91.3,109.1l-0.1,1.2c-1.3,1.4-3.1,2.3-5.2,2.3c-2.5,0-4.8-1.3-6-3.4l0.2-1.5L91.3,109.1z"/>
		<path class="st2" d="M85.9,112.7c2.1,0,3.9-0.9,5.2-2.3l-2.7,23.6c-4.6,1.9-8.7,4.6-12.1,8c-0.1,0.1-0.1,0.1-0.2,0.2l3.7-32.8
			C81.1,111.3,83.4,112.7,85.9,112.7z"/>
		<path d="M88.4,133.9l-0.9,8.3c-2.3,1.3-4.4,2.9-6.1,4.6c-1.4,1.4-3.6,1.4-5,0c-0.3-0.3-0.5-0.6-0.6-0.9l0.4-3.9
			c0.1-0.1,0.1-0.2,0.2-0.2C79.7,138.6,83.8,135.9,88.4,133.9z"/>
		<path class="st2" d="M87.5,142.2l-3.8,33.9H72.3l3.4-30.1c0.2,0.3,0.4,0.6,0.6,0.9c1.4,1.4,3.6,1.4,5,0
			C83.1,145.1,85.2,143.5,87.5,142.2z"/>
		<polygon points="72.3,176.1 83.6,176.1 83.4,178.3 72.2,177.1 		"/>
		<path d="M76.2,142.1l-0.4,3.9C75.1,144.8,75.2,143.2,76.2,142.1z"/>
	</g>
	<g>
	</g>
</g>
</svg>
