<?xml version="1.0" encoding="utf-8"?>
<!-- Generator: Adobe Illustrator 21.0.0, SVG Export Plug-In . SVG Version: 6.00 Build 0)  -->
<svg version="1.1" id="Calque_1" xmlns="http://www.w3.org/2000/svg" xmlns:xlink="http://www.w3.org/1999/xlink" x="0px" y="0px"
	 viewBox="0 0 76.7 183.4" style="enable-background:new 0 0 76.7 183.4;" xml:space="preserve">
<style type="text/css">
	.st0{fill:none;}
	.st1{fill:#FFFFFF;}
	.st2{fill:none;stroke:#FFFFFF;stroke-width:0;stroke-linecap:round;stroke-linejoin:round;}
</style>
<g>
	<path class="st0" d="M22.6,27.7l0.3-1.9c0,0-0.1,0-0.1,0c0,0-0.1,0-0.1,0l-0.3,1.8c0,0-4.5-0.6-21.3-3v0.2
		c14.6,2.1,20,2.8,21.1,2.9C22.5,27.7,22.6,27.7,22.6,27.7z"/>
	<path class="st0" d="M1.1,135.3v0.4c0-0.4,0.2-0.7,0.4-1C1.3,134.8,1.2,135,1.1,135.3z"/>
	<path class="st0" d="M1.1,48.4L1.1,48.4C1.1,48.4,1.1,48.4,1.1,48.4C1.1,48.4,1.1,48.4,1.1,48.4z"/>
	<path class="st0" d="M8.7,48c0,0,0-5.8,3.3-11.6c1.1-2,2.3-3.6,3.5-4.8c-1.2,1.2-2.5,2.8-3.6,4.9C8.6,42.3,8.6,48.1,8.7,48
		c-0.1,0.1,1.6,0.1,3.9,0.1v1.1h0.1V48C10.3,48,8.7,48,8.7,48z"/>
	<path class="st0" d="M76.2,3.4V0.6H1.1v0c12.1,0,60.4,0.1,72.4,0.1C76.1,0.7,76.2,1,76.2,3.4z"/>
	<polygon class="st0" points="37.5,49.2 37.6,49.2 37.6,48 	"/>
	<path class="st0" d="M29,8.2c10.3,0,20.5,3.9,24.9,9.1c-4.4-5.2-14.5-9.2-25-9.2c-13,0-26.6,6.3-27.8,13.6v1.1c0,0,0,0,0,0
		C1.2,14.9,15.3,8.2,29,8.2z"/>
	<path class="st0" d="M73.7,182.6c-11.8,0-60.2,0.1-72.6,0.1v0h75.1v-1.4C76.1,182.4,75.6,182.6,73.7,182.6z"/>
	<rect x="29.3" y="129.2" class="st0" width="0.1" height="2.4"/>
	<path class="st0" d="M10.9,170.3L10.9,170.3c5.2,0,16.5-0.1,17.9-0.1C27.3,170.2,15.9,170.3,10.9,170.3z"/>
	<path class="st0" d="M5,167.9c0.8,0,3.4,0,5.9,0v-0.1c2.5,0,4.7-0.1,4.7-0.1s-4.5-2.2-7.9-4.7c-3.2-2.3-5.3-4.9-5.3-4.9H2.3
		c0,0,2.1,2.6,5.3,4.9c3.4,2.5,7.9,4.7,7.9,4.7s-2.3,0-4.7,0.1C8.4,167.8,5.7,167.8,5,167.9c-2.1-1.9-3.5-4-3.9-6.1v0.1
		C1.5,164.1,2.9,166.2,5,167.9z"/>
	<path class="st0" d="M4.5,54.1L4.5,54.1c-0.9,0-1.5,0.7-1.5,1.5C3,54.8,3.7,54.1,4.5,54.1z"/>
	<path class="st0" d="M54.5,136.1l0.3,22.2h1.3c0,0.9,0,1.8,0,2.6c0,7.7-13.3,14.6-27.2,14.6c0,0,0,0,0,0c13.8,0,27.3-7,27.3-14.6
		c0-0.8,0-1.6,0-2.6c0,0,0-0.1,0-0.1h-1.3L54.5,136.1z"/>
	<path class="st1" d="M2.4,49.2h10.2v-1.1c-2.3,0-4,0-4,0s0-5.8,3.3-11.6c1.2-2.1,2.4-3.6,3.6-4.9c3-3,5.8-3.7,6.7-3.9
		c-1.2-0.2-6.6-0.9-21.1-2.9v23.6c0,0,0,0,0,0C1.4,48.9,1.9,49.2,2.4,49.2z"/>
	<path d="M4.5,54.1c-0.8,0-1.5,0.7-1.5,1.5V128c0,0.8,0.7,1.5,1.5,1.5h12l0.1-75.4H4.5z"/>
	<path class="st1" d="M4.9,167.8c0.8,0,3.5,0,5.9,0c2.4-0.1,4.7-0.1,4.7-0.1s-4.5-2.2-7.9-4.7c-3.2-2.3-5.3-4.9-5.3-4.9H1.1v3.7
		C1.5,164,2.8,166.1,4.9,167.8z"/>
	<path d="M8.7,48c0,0,1.6,0,4,0c2.3,0,5.3,0,8.1,0c0-10.8,16.8-10.3,16.8,0c5.2,0,11.5,0,12.4,0c0,0-0.4-8.3-5.2-13.9
		C40.2,28.8,33.3,27,31.9,27c-0.5,0-4.2-0.5-9-1.2l-0.3,1.9c0,0-0.1,0-0.4,0.1c-1,0.2-3.8,1-6.7,3.9c-1.2,1.2-2.4,2.7-3.5,4.8
		C8.7,42.2,8.7,48,8.7,48z"/>
	<path d="M28.9,170.2C28.9,170.2,28.9,170.2,28.9,170.2c0,0,9.6-0.7,16-3.6c6.9-3.1,10-8.4,10-8.4l-0.3-22.2c0,0-9.1,0.1-16.3,0.1
		c0,12.1-19.1,12-19.1-0.1c-7.3,0-16.4-0.2-16.4-0.2l-0.2,22.3c0,0,2.1,2.6,5.3,4.9c3.4,2.5,7.9,4.7,7.9,4.7s-2.2,0.1-4.7,0.1v0.1
		v2.4c5,0,16.5-0.1,17.9-0.1C28.8,170.2,28.8,170.2,28.9,170.2z"/>
	<polygon points="22.5,129.2 23.4,129.2 23.4,53.9 22.5,54 	"/>
	<path class="st1" d="M29.3,53.9h0.9v-2H2.9c-0.8,0-1.5,0.7-1.5,1.5v76.7c0,0.8,0.7,1.5,1.5,1.5h26.4v-2.4V53.9z M4.5,129.5
		c-0.8,0-1.5-0.7-1.5-1.5V55.6c0-0.8,0.6-1.5,1.4-1.5h0.1h12.1l-0.1,75.4H4.5z M23.4,129.2h-0.9V54l0.9-0.1V129.2z"/>
	<polygon points="29.3,129.2 29.4,129.2 30.2,129.2 30.2,54 30.2,53.9 29.3,53.9 	"/>
	<polygon class="st1" points="35.9,54 35.9,53.9 36.8,53.9 36.8,51.9 30.3,51.9 30.2,51.9 30.2,53.9 30.2,54 30.2,129.2 29.4,129.2 
		29.4,131.6 35.9,131.6 35.9,129.2 	"/>
	<polygon points="35.9,54 35.9,129.2 36.8,129.2 36.8,54 36.8,53.9 35.9,53.9 	"/>
	<polygon class="st1" points="42.6,54 42.6,53.9 43.5,53.9 43.5,51.9 36.8,51.9 36.8,53.9 36.8,54 36.8,129.2 35.9,129.2 
		35.9,131.6 42.6,131.6 42.6,129.2 	"/>
	<path class="st1" d="M37.5,48C37.5,48,37.5,48,37.5,48c0.1-10.3-16.7-10.8-16.7,0c-2.8,0-5.8,0-8.1,0v1.2h24.8h0L37.5,48
		C37.5,48,37.5,48,37.5,48z"/>
	<polygon points="42.6,54 42.6,129.2 43.5,129.2 43.5,54 43.5,53.9 42.6,53.9 	"/>
	<polygon class="st1" points="48.9,54 48.9,53.9 49.8,53.9 49.8,51.9 43.6,51.9 43.5,51.9 43.5,53.9 43.5,54 43.5,129.2 42.6,129.2 
		42.6,131.6 42.7,131.6 48.9,131.6 48.9,129.2 	"/>
	<polygon points="48.9,54 48.9,129.2 49.8,129.2 49.8,54 49.8,53.9 48.9,53.9 	"/>
	<path class="st1" d="M54.7,51.9h-4.9v2V54v75.2h-0.9v2.4h5.8c0.8,0,1.5-0.7,1.5-1.5V53.3C56.2,52.5,55.5,51.9,54.7,51.9z"/>
	<path class="st2" d="M37.6,48C37.5,48,37.5,48,37.6,48"/>
	<path class="st1" d="M29,8.2c-13.7,0-27.8,6.7-27.9,14.5c1.3,0.1,13,1.8,21.6,3l0,0.1c0,0,0.1,0,0.1,0c0,0,0.1,0,0.1,0
		c4.7,0.7,8.5,1.2,9,1.2c1.4,0,8.4,1.8,12.8,7.1c4.8,5.7,5.2,13.9,5.2,13.9c-0.8,0-7.2,0-12.4,0v1.2h17.1v0.1c0.8,0,1.5-0.7,1.5-1.5
		c0,0,0-17.3,0-25.1c0-1.9-0.8-3.8-2.3-5.5C49.5,12.1,39.3,8.2,29,8.2z"/>
	<path class="st1" d="M2.4,158.2l0.2-22.3c0,0,9.2,0.2,16.4,0.2c0,12.1,19.1,12.2,19.1,0.1c7.3,0,16.3-0.1,16.3-0.1l0.4,22.1h1.3
		c0-8.1,0-21.2,0-22.4c0-0.9-0.7-1.5-1.5-1.5H2.5c-0.4,0-0.7,0.2-1,0.4c-0.2,0.3-0.4,0.6-0.4,1v22.5H2.4L2.4,158.2z"/>
	<path d="M22.7,25.8L22.7,25.8c-8.5-1.2-20.3-2.9-21.6-3.1c0,0,0,0,0,0v1.9c16.9,2.4,21.3,3,21.3,3L22.7,25.8z"/>
	<path d="M76.2,181.3v-1.6V3.4c0-2.4-0.1-2.7-2.7-2.7c-12,0-60.3-0.1-72.4-0.1v21C2.3,14.3,15.9,8.1,28.9,8.1
		c10.5,0,20.6,3.9,25,9.2c1.4,1.7,2.3,3.6,2.3,5.5c0,7.8,0,25.1,0,25.1c0,0.8-0.7,1.5-1.5,1.5v-0.1H37.6h-0.1h0H12.7h-0.1H2.4
		c-0.5,0-1-0.3-1.3-0.8c0,0,0,0,0,0v86.8c0.1-0.2,0.2-0.4,0.4-0.6c0.3-0.2,0.6-0.4,1-0.4h52.2c0.8,0,1.5,0.6,1.5,1.5
		c0,1.2,0,14.3,0,22.4c0,0,0,0.1,0,0.1c0,1,0,1.8,0,2.6c0,7.7-13.4,14.6-27.3,14.6c0,0,0,0,0,0c0,0,0,0-0.1,0
		c-7.4,0-14.9-2-20.3-5.1c0,0,0.1,0,0.1,0c0.3,0,1.1,0,2.2,0c0,0,0.1,0,0.1,0v-0.1v-2.4c-2.5,0-5.1,0-5.9,0c-2.1-1.8-3.5-3.8-3.9-6
		v20.7c12.4,0,60.8-0.1,72.6-0.1C75.6,182.6,76.1,182.4,76.2,181.3z M56.2,130.1c0,0.8-0.7,1.5-1.5,1.5h-5.8h-6.2h-0.1h-6.8h-6.5
		h-0.1H2.9c-0.8,0-1.5-0.7-1.5-1.5V53.4c0-0.8,0.7-1.5,1.5-1.5h27.3h0.1h6.5h6.8h0.1h6.2h4.9c0.8,0,1.5,0.6,1.5,1.4V130.1z"/>
	<path class="st1" d="M56.1,160.9c0-0.8,0-1.7,0-2.6h-1.3c0,0-3.1,5.3-10,8.4c-6.4,2.9-15.9,3.6-15.9,3.6s0,0,0,0c0,0-0.1,0-0.1,0
		c-1.4,0-12.7,0.1-17.9,0.2c0,0-0.1,0-0.1,0c-1.1,0-1.9,0-2.2,0c0,0-0.1,0-0.1,0c5.4,3.1,12.9,5.1,20.3,5.1c0,0,0,0,0.1,0
		C42.8,175.5,56.1,168.5,56.1,160.9z"/>
</g>
</svg>
