<?xml version="1.0" encoding="utf-8"?>
<!-- Generator: Adobe Illustrator 21.0.0, SVG Export Plug-In . SVG Version: 6.00 Build 0)  -->
<svg version="1.1" id="Calque_1" xmlns="http://www.w3.org/2000/svg" xmlns:xlink="http://www.w3.org/1999/xlink" x="0px" y="0px"
	 viewBox="0 0 105.9 183.4" style="enable-background:new 0 0 105.9 183.4;" xml:space="preserve">
<style type="text/css">
	.st0{fill:#00CCCC;}
	.st1{fill:none;stroke:#000000;stroke-width:0.4886;stroke-miterlimit:10;}
	.st2{fill:#96AAA9;}
</style>
<g>
	<path class="st0" d="M105.8,107.8v71.8c0,2.1-1.7,3.8-3.8,3.8H3.8c-2.1,0-3.8-1.7-3.8-3.8V3.8C0,1.7,1.7,0,3.8,0H102
		c2.1,0,3.8,1.7,3.8,3.8v71.1c0,1-0.5,1.8-1.4,2.3l-1.1,0.6c-0.9,0.4-1.4,1.3-1.4,2.3v23.8c0,1.1,0.7,2.1,1.8,2.4l1.4,0.4
		C105.5,106.8,105.8,107.3,105.8,107.8L105.8,107.8z"/>
	<path class="st1" d="M105.8,107.8v71.8c0,2.1-1.7,3.8-3.8,3.8H3.8c-2.1,0-3.8-1.7-3.8-3.8V3.8C0,1.7,1.7,0,3.8,0H102
		c2.1,0,3.8,1.7,3.8,3.8v71.1c0,1-0.5,1.8-1.4,2.3l-1.1,0.6c-0.9,0.4-1.4,1.3-1.4,2.3v23.8c0,1.1,0.7,2.1,1.8,2.4l1.4,0.4
		C105.5,106.8,105.8,107.3,105.8,107.8L105.8,107.8z"/>
	<path d="M105.5,106.7c-0.1,0-0.1-0.1-0.2-0.1l-1.4-0.4c-1.1-0.3-1.8-1.3-1.8-2.4V80c0-0.9,0.5-1.8,1.4-2.3l0.4-0.2
		c-0.1-1.1-0.3-2.2-0.8-3.2c-1.1-2.3-3.2-3.8-5.3-5.2c-1.5-1.1-3-2-4-3.3c-1-1.3-1.6-2.9-2.3-4.6c-0.9-2.3-1.9-4.8-3.8-6.3
		c-1.9-1.5-4.5-2-7-2.3c-1.8-0.3-3.6-0.6-5-1.3c-1.4-0.7-2.7-1.9-4.1-3.1c-1.9-1.7-3.8-3.5-6.3-4.1c-0.5-0.1-1.1-0.2-1.7-0.2
		c-1.8,0-3.7,0.5-5.5,1.1c-1.8,0.5-3.6,1.1-5.2,1.1c-1.7,0-3.5-0.5-5.2-1.1c-1.8-0.5-3.7-1.1-5.5-1.1c-0.6,0-1.2,0.1-1.7,0.2
		c-2.5,0.5-4.4,2.3-6.3,4.1c-1.4,1.3-2.7,2.4-4.1,3.1c-1.4,0.7-3.2,1-5,1.3c-2.5,0.4-5.1,0.8-7,2.3c-2,1.6-2.9,4-3.8,6.3
		c-0.7,1.7-1.3,3.4-2.3,4.6c-1,1.3-2.4,2.2-4,3.3c-2.1,1.4-4.3,2.9-5.3,5.2c-1.1,2.2-0.9,4.8-0.7,7.3c0.1,1.8,0.2,3.7-0.1,5.2
		C1.5,88,1,89.2,0.3,90.4v16.4c0.7,1.2,1.2,2.3,1.5,3.5c0.4,1.6,0.2,3.4,0.1,5.2c-0.2,2.5-0.4,5.1,0.7,7.3c1.1,2.3,3.2,3.8,5.3,5.2
		c1.5,1.1,3,2,4,3.3c1,1.3,1.6,2.9,2.3,4.6c0.9,2.3,1.9,4.8,3.8,6.3c1.9,1.5,4.5,2,7,2.3c1.8,0.3,3.6,0.6,5,1.3
		c1.4,0.7,2.7,1.9,4.1,3.1c1.9,1.7,3.8,3.5,6.3,4.1c0.5,0.1,1.1,0.2,1.7,0.2c1.8,0,3.7-0.5,5.5-1.1c1.8-0.5,3.6-1.1,5.2-1.1
		c1.7,0,3.5,0.5,5.2,1.1c1.8,0.5,3.7,1.1,5.5,1.1c0.6,0,1.2-0.1,1.7-0.2c2.5-0.5,4.4-2.3,6.3-4.1c1.4-1.3,2.7-2.4,4.1-3.1
		c1.4-0.7,3.2-1,5-1.3c2.5-0.4,5.1-0.8,7-2.3c2-1.6,2.9-4,3.8-6.3c0.7-1.7,1.3-3.4,2.3-4.6c1-1.3,2.4-2.2,4-3.3
		c2.1-1.4,4.3-2.9,5.3-5.2c1.1-2.2,0.9-4.8,0.7-7.3c-0.1-1.8-0.2-3.7,0.1-5.2C104.3,109.1,104.9,107.9,105.5,106.7z M11.1,84.9
		c-0.1,0.4-0.4,0.6-0.8,0.6c-0.1,0-0.2,0-0.3,0c-0.4-0.2-0.7-0.6-0.5-1.1C14,70.5,25,59.6,38.9,55.1c0.4-0.2,0.9,0.1,1.1,0.5
		c0.2,0.4-0.1,0.9-0.5,1.1C26.1,61,15.5,71.6,11.1,84.9z M79.6,135.6c-7.8,5.6-17,8.6-26.7,8.6c-14.5,0-28.4-7-36.9-18.9
		c-0.3-0.4-0.2-0.9,0.2-1.2c0.4-0.3,0.9-0.2,1.2,0.2c8.3,11.4,21.6,18.2,35.6,18.2c9.3,0,18.1-2.9,25.7-8.3c0.4-0.3,0.9-0.2,1.2,0.2
		C80.1,134.8,80,135.4,79.6,135.6z M98.6,98.7c0,0.5-0.4,0.8-0.9,0.8c-0.5,0-0.9-0.4-0.8-0.9v-0.2c0-14-6.7-27.2-18-35.5
		c-0.4-0.3-0.5-0.8-0.2-1.2c0.3-0.4,0.8-0.5,1.2-0.2C91.6,70.3,98.6,84,98.6,98.5V98.7z"/>
	<circle class="st2" cx="52.9" cy="98.6" r="40.3"/>
	<circle class="st1" cx="52.9" cy="98.6" r="40.3"/>
	<path d="M56.4,106.4l-1.9,0.3l-1.9,0.3c-0.4,0-0.6,0.8-0.5,1.7l0.3,2.3c0.1,0.9,0.5,1.5,0.9,1.4l1.9-0.3l1.9-0.3
		c0.4,0,0.6-0.8,0.5-1.7l-0.3-2.3C57.3,107,56.8,106.4,56.4,106.4z"/>
	<path d="M74.5,90.9c-0.9-0.4-2-0.5-3.2-0.1c-0.2-4.8-2.4-24.4-21.5-21.9c0,0-10.9,1.1-14.8,8.2l0,0.1c0,0.1,0,0.2,0,0.3
		c0,0.4,0.4,0.6,0.7,0.5h0.1c5.8-0.9,29.5-3.9,33,16.8l1.4-0.2h0.2h0.1c0.3-0.1,0.5-0.2,0.7-0.4c0.7-0.9,1.5-1.3,2.2-1
		c0.9,0.5,0.7,2.3,0.2,4.2c-0.1,0.4-0.2,0.8-0.2,1.1c-0.1,0.7-0.2,1.5-0.2,2.2c-0.1,1.3-0.2,3.2-0.7,3.4c-0.6,0.4-1.1,0.5-1.3,0.5
		H71c-0.4,0-0.8,0.2-1.1,0.4c-0.3,0.3-0.4,0.7-0.3,1.1c0.9,6.2-2.6,11.5-5.6,15.5c-2.5,3.2-5.2,3.4-5.3,3.4h-0.2l-1.8,0.2
		c0,0-0.1,0-0.2,0c0,0-2.7,0.6-6-1.9c-4-3-8.8-7.2-9.7-13.4c0-0.4-0.3-0.7-0.6-0.9c-0.3-0.2-0.7-0.3-1.1-0.2c0,0-0.6,0.2-1.6-0.1
		c-0.6-0.2-1.3-2-1.6-3.1c-0.2-0.7-0.5-1.4-0.8-2.1c-0.1-0.3-0.3-0.6-0.5-1c-0.9-1.7-1.7-3.4-0.9-4.1c0.5-0.5,1.4-0.3,2.3,0.4
		c0.2,0.2,0.5,0.2,0.7,0.2l0,0l0.2,0c0,0,0.1,0,0.2,0l1.3-0.2c0.5-4.8-0.7-8.1-2.4-11.4c-1-1.9-0.8-5.1-0.9-6.8v-0.3v-0.1
		c-0.1-0.5-0.5-0.8-0.9-0.7c-0.2,0-0.5,0.2-0.6,0.4l-0.2,0.2c-3.8,6.1-0.7,12.8,0.8,15.4c-0.9,0-1.8,0.4-2.3,0.9
		c-2.4,2.2-0.7,5.4,0.4,7.4l0.4,0.9c0.2,0.5,0.5,1.2,0.7,1.9c0.7,2,1.5,4.3,3.6,4.8c0.5,0.2,1.1,0.2,1.5,0.2
		c1.4,6.5,6.3,10.8,10.5,13.9c4.1,3,7.6,2.5,8.2,2.3l1.7-0.2c0.1,0,0.2,0,0.3,0c1.1-0.2,4.2-0.9,7-4.5c3.2-4.1,6.7-9.7,6.3-16.3
		c0.4-0.1,0.9-0.3,1.4-0.6c1.8-1,2-3.4,2.1-5.6c0-0.7,0.1-1.4,0.2-2c0-0.3,0.1-0.6,0.2-0.9C76.7,96,77.4,92.4,74.5,90.9L74.5,90.9z"
		/>
	<ellipse transform="matrix(0.9905 -0.1373 0.1373 0.9905 -12.436 7.3401)" cx="47" cy="93.8" rx="2.1" ry="2.1"/>
	<path d="M62.2,93c0,0.2-0.3,0.4-0.5,0.4c-1.2-0.3-3.5,0.1-3.5,0.1c-0.2,0-0.5-0.1-0.5-0.4c0-0.1,0-0.2,0-0.3
		c0.7-1.3,1.8-2.2,3.2-2.6c0.2,0,0.5,0.1,0.5,0.4c0,0.2-0.1,0.5-0.4,0.5c-0.8,0.2-1.5,0.7-2.1,1.3c0.9-0.1,1.9-0.1,2.9,0
		C62.1,92.4,62.2,92.7,62.2,93L62.2,93z"/>
	<path d="M61.9,115.1c0.4,0.3,0.4,0.8,0.1,1.1c-1.3,1.2-3,2.1-4.9,2.5l-0.2,0c-3.9,0.5-6.9-0.5-8.4-3c-0.5,0.2-1,0.4-1.6,0.5
		c-0.2,0-0.3,0-0.4,0c-0.5,0-0.9-0.4-0.9-0.8v0c0-0.4,0.4-0.8,0.9-0.8c1.1-0.1,2.1-0.7,2.4-1.6c0.2-0.4,0.7-0.7,1.1-0.6
		c0.5,0.1,0.8,0.5,0.6,0.9c0,0.1,0,0.2-0.1,0.2c-0.2,0.4-0.4,0.7-0.7,1c1.2,2.2,3.5,3,7,2.5c1.4-0.3,2.8-1,3.8-1.9
		C60.9,114.9,61.5,114.8,61.9,115.1L61.9,115.1z"/>
</g>
</svg>
