<?xml version="1.0" encoding="utf-8"?>
<!-- Generator: Adobe Illustrator 21.0.0, SVG Export Plug-In . SVG Version: 6.00 Build 0)  -->
<svg version="1.1" id="Calque_1" xmlns="http://www.w3.org/2000/svg" xmlns:xlink="http://www.w3.org/1999/xlink" x="0px" y="0px"
	 viewBox="0 0 105.9 183.4" style="enable-background:new 0 0 105.9 183.4;" xml:space="preserve">
<style type="text/css">
	.st0{fill:#00A5F7;}
	.st1{fill:none;stroke:#000000;stroke-width:0.4886;stroke-miterlimit:10;}
	.st2{fill:#FFFFFF;}
</style>
<g>
	<path class="st0" d="M105.8,107.8v71.8c0,2.1-1.7,3.8-3.8,3.8H3.8c-2.1,0-3.8-1.7-3.8-3.8V3.8C0,1.7,1.7,0,3.8,0H102
		c2.1,0,3.8,1.7,3.8,3.8v71.1c0,1-0.5,1.8-1.4,2.3l-1.1,0.6c-0.9,0.4-1.4,1.3-1.4,2.3v23.8c0,1.1,0.7,2.1,1.8,2.4l1.4,0.4
		C105.5,106.8,105.8,107.3,105.8,107.8z"/>
	<path class="st1" d="M105.8,107.8v71.8c0,2.1-1.7,3.8-3.8,3.8H3.8c-2.1,0-3.8-1.7-3.8-3.8V3.8C0,1.7,1.7,0,3.8,0H102
		c2.1,0,3.8,1.7,3.8,3.8v71.1c0,1-0.5,1.8-1.4,2.3l-1.1,0.6c-0.9,0.4-1.4,1.3-1.4,2.3v23.8c0,1.1,0.7,2.1,1.8,2.4l1.4,0.4
		C105.5,106.8,105.8,107.3,105.8,107.8z"/>
	<g transform="translate(0,1052.3622)">
		<path class="st2" d="M93.9-1004.1L93.9-1004.1c-0.7-3.9-4.9-7.2-9.5-7.2c-0.6,0-0.9,0.1-1.3,0.1c0.3-0.5,0.3-1.2,0.3-1.9
			c0-4.5-4.4-8.1-9.2-8.1c-1.6,0-2.4,0.1-3.1,0.4c-0.6-8-7.2-14.4-15.6-14.4c-6.9,0-12.9,4.3-14.5,9.8c-1.8-0.2-3-0.6-4.3-0.6
			c-5.6,0-10.2,3.6-10.2,8.2c0,0.2,0.7,0.6,0.7,1c-1.3-0.5-3.1-1-4.6-1c-5.3,0-9.5,3.8-9.5,8.4c0,0.4,0,1,0,1.4
			c-0.7-0.3-1.6-0.3-1.8-0.3c-4.4,0-7.1,2.5-7.1,5.4c0,2.8,2.6,5.2,7.1,5.2l0,0c0,0.4,0,0.5,0,0.8c0,3.1,3,5.5,7.2,5.5
			c3.1,0,5.5-1.4,6.8-3.3c1,1.9,3.5,3.3,7.1,3.3c2.4,0,5.3-1.2,6.6-2.7c4.3,1.9,10.8,3.3,17.5,3.3c9.5,0,17.8-2.3,21.6-5.8
			c1.8,1.2,3.6,2,6.4,2c1.3,0,2.4-0.4,4-0.5c1.3,1.2,3.3,2,5.5,2c4.3,0,7.4-2.4,7.4-5.5C101.3-1001.6,98.2-1004.1,93.9-1004.1
			L93.9-1004.1z"/>
	</g>
	<g>
		<path d="M77.9,124l1.5-46.4L99.3,60c1.3-1.1,2.2-2.6,2.6-4.3l0.4-2c0.8-4.3-2.2-8.4-6.6-8.8l-2.1-0.2c-1.7-0.2-3.4,0.1-4.8,1.2
			L66.2,59.8l-44.9-12c-1.2-0.4-2.5-0.1-3.4,0.6l-5.2,3.9c-1.5,1.1-1.5,3.5,0.1,4.6l16,11.5l-3.5,2.6c-1.4,1.1-1.8,3.2-0.7,4.6
			s3.2,1.8,4.6,0.7l5.2-3.9l8.4,5.9L19.4,97.6L7.1,96.4c-0.6,0-1.3,0.2-1.7,0.7l-1.2,1.2c-1.3,1.3-1,3.3,0.4,4.3l11.8,8.1l4.4,13.6
			c0.6,1.6,2.5,2.5,4.1,1.6l1.5-0.8c0.6-0.3,0.9-0.9,1.1-1.5l2.4-12.3l25.2-16.6l3.2,9.7l-5.2,3.9c-1.4,1.1-1.8,3.2-0.7,4.6
			c1.1,1.4,3.2,1.8,4.6,0.7l3.5-2.6l6.4,18.7c0.6,1.8,2.8,2.5,4.4,1.4l5.3-4C77.3,126.4,77.9,125.3,77.9,124z"/>
	</g>
</g>
</svg>
