<?xml version="1.0" encoding="utf-8"?>
<!-- Generator: Adobe Illustrator 21.0.0, SVG Export Plug-In . SVG Version: 6.00 Build 0)  -->
<svg version="1.1" id="Calque_1" xmlns="http://www.w3.org/2000/svg" xmlns:xlink="http://www.w3.org/1999/xlink" x="0px" y="0px"
	 viewBox="0 0 105.9 183.4" style="enable-background:new 0 0 105.9 183.4;" xml:space="preserve">
<style type="text/css">
	.st0{fill:#FFFFFF;}
</style>
<g id="XMLID_4_">
	<g>
		<polygon points="11.3,180.1 25.7,180.3 25.7,183.4 0.7,183.4 0.8,0.7 25.7,0.9 25.7,3.6 11.3,3.7 		"/>
		<path class="st0" d="M30.1,48.1c0,0,0-14.8,0-23.2c17,2.4,21.6,3,21.6,3s-6.1,0.6-10.7,8.8c-3.3,5.8-3.3,11.6-3.3,11.6s1.7,0,4,0
			v1.3H31.6C30.8,49.5,30.1,48.9,30.1,48.1z"/>
		<path d="M32.1,128.5V55.8c0-0.8,0.7-1.5,1.5-1.5h12.2L45.6,130H33.5C32.7,130,32.1,129.3,32.1,128.5z"/>
		<path class="st0" d="M30.1,161.4c0-0.8,0-1.6,0-2.6h1.3c0,0,2.1,2.6,5.3,4.9c3.4,2.5,7.9,4.7,7.9,4.7s-2.3,0-4.7,0.1
			c-2.4,0-5.1,0-5.9,0C31.6,166.4,30.1,163.9,30.1,161.4z"/>
		<path d="M41.8,48.2c-2.4,0-4,0-4,0s0-5.8,3.3-11.6c4.6-8.2,10.7-8.8,10.7-8.8l0.3-1.9c4.8,0.7,8.6,1.2,9.1,1.2
			c1.4,0,8.4,1.9,12.9,7.1c4.8,5.7,5.2,14,5.2,14s-6.9,0-12.5,0c0-10.3-16.9-10.8-16.9,0C47.1,48.2,44.1,48.2,41.8,48.2z"/>
		<path d="M58.1,170.9c0,0-12.7,0.1-18.1,0.1v-2.5c2.5,0,4.7-0.1,4.7-0.1s-4.5-2.2-7.9-4.7c-3.2-2.3-5.3-4.9-5.3-4.9l0.2-22.4
			c0,0,9.2,0.2,16.5,0.2c0,12.1,19.2,12.2,19.2,0.1c7.2,0,16.4-0.1,16.4-0.1l0.3,22.3c0,0-3.1,5.3-10,8.4
			C67.7,170.2,58.1,170.9,58.1,170.9z"/>
		<rect x="51.7" y="54.1" width="0.9" height="75.6"/>
		<path class="st0" d="M32.1,55.8v72.7c0,0.8,0.7,1.5,1.5,1.5h12l0.1-75.7H33.5C32.7,54.3,32.1,55,32.1,55.8z M58.6,132.1H32
			c-0.8,0-1.5-0.7-1.5-1.5V53.5c0-0.8,0.7-1.5,1.5-1.5h27.4v2.1h-0.9v75.6v2.4H58.6z M51.7,54.2v75.5h0.9V54.1L51.7,54.2L51.7,54.2z
			"/>
		<rect x="58.5" y="54.1" width="0.9" height="75.6"/>
		<polygon class="st0" points="59.4,129.7 59.4,54.2 59.4,52.1 66,52.1 66,54.2 65.1,54.2 65.1,129.7 65.1,132.1 58.6,132.1 
			58.6,129.7 		"/>
		<rect x="65.1" y="54.1" width="0.9" height="75.6"/>
		<polygon class="st0" points="66,129.7 66,54.2 66,52.1 72.8,52.1 72.8,54.2 71.9,54.2 71.9,129.7 71.9,132.1 65.1,132.1 
			65.1,129.7 		"/>
		<path class="st0" d="M66.7,49.5H41.8v-1.3c2.3,0,5.4,0,8.1,0c0-10.8,16.9-10.3,16.9,0L66.7,49.5L66.7,49.5z"/>
		<rect x="71.9" y="54.1" width="0.9" height="75.6"/>
		<polygon class="st0" points="72.8,129.7 72.8,54.2 72.8,52.1 79.1,52.1 79.1,54.2 78.2,54.2 78.2,129.7 78.2,132.1 71.9,132.1 
			71.9,129.7 		"/>
		<rect x="78.2" y="54.1" width="0.9" height="75.6"/>
		<path class="st0" d="M79.1,129.7V54.1V52H84c0.8,0,1.5,0.7,1.5,1.5v77.1c0,0.8-0.7,1.5-1.5,1.5h-5.8v-2.4
			C78.2,129.7,79.1,129.7,79.1,129.7z"/>
		<path class="st0" d="M66.7,48.2c5.6,0,12.5,0,12.5,0s-0.4-8.3-5.2-14c-4.5-5.3-11.5-7.1-12.9-7.1c-0.5,0-4.3-0.5-9.1-1.2
			c-8.9-1.2-21.2-3-21.8-3c0-7.9,14.2-14.7,28-14.7c13.9,0,27.4,7,27.4,14.7s0,25.2,0,25.2c0,0.8-0.7,1.5-1.5,1.5H66.8v-1.4H66.7z"
			/>
		<path class="st0" d="M83.8,136.6c0,0-9.1,0.1-16.4,0.1c0,12.1-19.2,12-19.2-0.1c-7.3,0-16.5-0.2-16.5-0.2l-0.2,22.4h-1.3
			c0-8.5,0-22.6,0-22.6c0-0.8,0.7-1.5,1.5-1.5H84c0.8,0,1.5,0.7,1.5,1.5c0,0,0,14.1,0,22.6h-1.3L83.8,136.6z"/>
		<path d="M103.1,183.3c-13.6,0-75.8,0.1-75.8,0.1l0.1-4.8l-14.9,0.1V5.6l14.8-0.2l0.1-4.8c0,0,61.7,0.1,75.5,0.1
			c2.6,0,2.7,0.3,2.7,2.7c0,20.7,0,155.5,0,177C105.7,183,105.6,183.3,103.1,183.3z M84,49.5c0.8,0,1.5-0.7,1.5-1.5
			c0,0,0-17.4,0-25.2c0-7.7-13.4-14.7-27.4-14.7c-13.7,0-28,6.9-28,14.7c0.6,0,12.9,1.8,21.8,3l-0.3,1.9c0,0-4.5-0.6-21.6-3
			c0,8.4,0,23.2,0,23.2c0,0.8,0.7,1.5,1.5,1.5h10.3h24.9H84V49.5z M84,134.8H31.6c-0.8,0-1.5,0.7-1.5,1.5c0,0,0,14,0,22.6
			c0,0.9,0,1.8,0,2.6c0,2.6,1.5,5,4,7.1c0.8,0,3.4,0,5.9,0v2.5c-1.2,0-2,0-2.3,0c5.4,3.1,13,5.1,20.4,5.1c13.9,0,27.4-7,27.4-14.7
			c0-0.8,0-1.6,0-2.6c0-8.5,0-22.6,0-22.6C85.5,135.4,84.8,134.8,84,134.8z M84,52.1h-4.9h-6.2H66h-6.5H32c-0.8,0-1.5,0.7-1.5,1.5
			v77c0,0.8,0.7,1.5,1.5,1.5h26.6h6.5H72h6.2H84c0.8,0,1.5-0.7,1.5-1.5V53.5C85.5,52.7,84.8,52.1,84,52.1z"/>
		<path class="st0" d="M58.1,170.9c0,0,9.6-0.7,16-3.6c6.9-3.1,10-8.4,10-8.4h1.3c0,0.9,0,1.8,0,2.6c0,7.7-13.4,14.7-27.4,14.7
			c-7.4,0-15-2-20.4-5.1c0.3,0,1.1,0,2.3,0C45.4,171,58.1,170.9,58.1,170.9z"/>
	</g>
</g>
</svg>
