<?xml version="1.0" encoding="utf-8"?>
<!-- Generator: Adobe Illustrator 21.0.0, SVG Export Plug-In . SVG Version: 6.00 Build 0)  -->
<svg version="1.1" id="Calque_1" xmlns="http://www.w3.org/2000/svg" xmlns:xlink="http://www.w3.org/1999/xlink" x="0px" y="0px"
	 viewBox="0 0 105.9 183.4" style="enable-background:new 0 0 105.9 183.4;" xml:space="preserve">
<style type="text/css">
	.st0{fill:#FFFFFF;}
</style>
<g id="XMLID_4_">
	<g>
		<polygon points="12.5,180.2 26.7,180.4 26.7,183.4 2,183.4 2.1,2.5 26.7,2.7 26.7,5.4 12.5,5.5 		"/>
		<path class="st0" d="M31.1,49.4c0,0,0-14.7,0-23c16.8,2.4,21.4,3,21.4,3s-6,0.6-10.6,8.7c-3.3,5.7-3.3,11.5-3.3,11.5s1.7,0,4,0
			v1.3h-10C31.8,50.8,31.1,50.2,31.1,49.4z"/>
		<path d="M33.1,129.1v-72c0-0.8,0.7-1.5,1.5-1.5h12.1l-0.2,75h-12C33.7,130.6,33.1,129.9,33.1,129.1z"/>
		<path class="st0" d="M31.1,161.7c0-0.8,0-1.6,0-2.6h1.3c0,0,2.1,2.6,5.2,4.9c3.4,2.5,7.8,4.7,7.8,4.7s-2.3,0-4.7,0.1
			c-2.4,0-5.1,0-5.8,0C32.6,166.6,31.1,164.1,31.1,161.7z"/>
		<path d="M42.7,49.5c-2.4,0-4,0-4,0s0-5.7,3.3-11.5c4.6-8.1,10.6-8.7,10.6-8.7l0.3-1.9c4.8,0.7,8.5,1.2,9,1.2c1.4,0,8.3,1.9,12.8,7
			c4.8,5.6,5.2,13.9,5.2,13.9s-6.8,0-12.4,0c0-10.2-16.7-10.7-16.7,0C47.9,49.5,45,49.5,42.7,49.5z"/>
		<path d="M58.8,171.1c0,0-12.6,0.1-17.9,0.1v-2.5c2.5,0,4.7-0.1,4.7-0.1s-4.5-2.2-7.8-4.7c-3.2-2.3-5.2-4.9-5.2-4.9l0.2-22.2
			c0,0,9.1,0.2,16.3,0.2c0,12,19,12.1,19,0.1c7.1,0,16.2-0.1,16.2-0.1l0.3,22.1c0,0-3.1,5.2-9.9,8.3
			C68.3,170.4,58.8,171.1,58.8,171.1z"/>
		<rect x="52.5" y="55.4" width="0.9" height="74.9"/>
		<path class="st0" d="M33.1,57.1v72c0,0.8,0.7,1.5,1.5,1.5h11.9l0.1-75H34.5C33.7,55.6,33.1,56.3,33.1,57.1z M59.3,132.6H33
			c-0.8,0-1.5-0.7-1.5-1.5V54.8c0-0.8,0.7-1.5,1.5-1.5h27.1v2.1h-0.9v74.9L59.3,132.6L59.3,132.6z M52.5,55.5v74.8h0.9V55.4
			L52.5,55.5L52.5,55.5z"/>
		<rect x="59.2" y="55.4" width="0.9" height="74.9"/>
		<polygon class="st0" points="60.1,130.3 60.1,55.5 60.1,53.4 66.7,53.4 66.7,55.5 65.8,55.5 65.8,130.3 65.8,132.6 59.3,132.6 
			59.3,130.3 		"/>
		<rect x="65.8" y="55.4" width="0.9" height="74.9"/>
		<polygon class="st0" points="66.7,130.3 66.7,55.5 66.7,53.4 73.4,53.4 73.4,55.5 72.5,55.5 72.5,130.3 72.5,132.6 65.8,132.6 
			65.8,130.3 		"/>
		<path class="st0" d="M67.3,50.8H42.7v-1.3c2.3,0,5.3,0,8,0c0-10.7,16.7-10.2,16.7,0L67.3,50.8L67.3,50.8z"/>
		<rect x="72.5" y="55.4" width="0.9" height="74.9"/>
		<polygon class="st0" points="73.4,130.3 73.4,55.5 73.4,53.4 79.6,53.4 79.6,55.5 78.7,55.5 78.7,130.3 78.7,132.6 72.5,132.6 
			72.5,130.3 		"/>
		<rect x="78.7" y="55.4" width="0.9" height="74.9"/>
		<path class="st0" d="M79.6,130.3V55.4v-2.1h4.9c0.8,0,1.5,0.7,1.5,1.5v76.4c0,0.8-0.7,1.5-1.5,1.5h-5.7v-2.4
			C78.7,130.3,79.6,130.3,79.6,130.3z"/>
		<path class="st0" d="M67.3,49.5c5.5,0,12.4,0,12.4,0s-0.4-8.2-5.2-13.9c-4.5-5.2-11.4-7-12.8-7c-0.5,0-4.3-0.5-9-1.2
			c-8.8-1.2-21-3-21.6-3c0-7.8,14.1-14.6,27.7-14.6c13.8,0,27.1,6.9,27.1,14.6s0,25,0,25c0,0.8-0.7,1.5-1.5,1.5H67.4L67.3,49.5
			L67.3,49.5z"/>
		<path class="st0" d="M84.3,137.1c0,0-9,0.1-16.2,0.1c0,12-19,11.9-19-0.1c-7.2,0-16.3-0.2-16.3-0.2l-0.2,22.2h-1.3
			c0-8.4,0-22.4,0-22.4c0-0.8,0.7-1.5,1.5-1.5h51.8c0.8,0,1.5,0.7,1.5,1.5c0,0,0,14,0,22.4h-1.3L84.3,137.1z"/>
		<path d="M103.4,183.4c-13.5,0-75.1,0.1-75.1,0.1l0.1-4.8l-14.8,0.1V7.3l14.7-0.2l0.1-4.8c0,0,61.1,0.1,74.8,0.1
			c2.6,0,2.7,0.3,2.7,2.7c0,20.5,0,154,0,175.3C106,183.1,105.9,183.4,103.4,183.4z M84.5,50.8c0.8,0,1.5-0.7,1.5-1.5
			c0,0,0-17.2,0-25c0-7.6-13.3-14.6-27.1-14.6c-13.6,0-27.7,6.8-27.7,14.6c0.6,0,12.8,1.8,21.6,3l-0.3,1.9c0,0-4.5-0.6-21.4-3
			c0,8.3,0,23,0,23c0,0.8,0.7,1.5,1.5,1.5h10.2h24.7L84.5,50.8L84.5,50.8z M84.5,135.3H32.6c-0.8,0-1.5,0.7-1.5,1.5
			c0,0,0,13.9,0,22.4c0,0.9,0,1.8,0,2.6c0,2.6,1.5,5,4,7c0.8,0,3.4,0,5.8,0v2.5c-1.2,0-2,0-2.3,0c5.3,3.1,12.9,5.1,20.2,5.1
			c13.8,0,27.1-6.9,27.1-14.6c0-0.8,0-1.6,0-2.6c0-8.4,0-22.4,0-22.4C86,135.9,85.3,135.3,84.5,135.3z M84.5,53.4h-4.9h-6.1h-6.8
			h-6.4H33c-0.8,0-1.5,0.7-1.5,1.5v76.3c0,0.8,0.7,1.5,1.5,1.5h26.3h6.4h6.8h6.1h5.7c0.8,0,1.5-0.7,1.5-1.5V54.8
			C86,54,85.3,53.4,84.5,53.4z"/>
		<path class="st0" d="M58.8,171.1c0,0,9.5-0.7,15.8-3.6c6.8-3.1,9.9-8.3,9.9-8.3h1.3c0,0.9,0,1.8,0,2.6c0,7.6-13.3,14.6-27.1,14.6
			c-7.3,0-14.9-2-20.2-5.1c0.3,0,1.1,0,2.3,0C46.2,171.2,58.8,171.1,58.8,171.1z"/>
	</g>
</g>
</svg>
