<?xml version="1.0" encoding="utf-8"?>
<!-- Generator: Adobe Illustrator 21.0.0, SVG Export Plug-In . SVG Version: 6.00 Build 0)  -->
<svg version="1.1" id="Calque_1" xmlns="http://www.w3.org/2000/svg" xmlns:xlink="http://www.w3.org/1999/xlink" x="0px" y="0px"
	 viewBox="0 0 523.2 860" style="enable-background:new 0 0 523.2 860;" xml:space="preserve">
<style type="text/css">
	.st0{fill:#3F2503;}
	.st1{fill:none;stroke:#000000;stroke-width:2.4846;stroke-miterlimit:10;}
	.st2{fill:#72461A;}
	.st3{fill:#7C4E2E;}
	.st4{fill:#7C4A25;}
	.st5{fill:#723D0D;}
	.st6{fill:#84563D;}
	.st7{fill:#7C4D1A;}
	.st8{fill:none;stroke:#000000;stroke-width:0.1242;stroke-miterlimit:10;}
	.st9{fill:#7A4E22;}
	.st10{fill:none;stroke:#000000;stroke-width:2.5375;stroke-miterlimit:10;}
</style>
<g>
	<rect x="8.6" y="831.3" class="st0" width="502.7" height="28.7"/>
	<rect x="8.6" y="831.3" class="st1" width="502.7" height="28.7"/>
	<path d="M13.2,48.4v38c11-1.2,31.3,0,56.7,1.5c44.9,2.6,106.4,6.2,154.7-1.2c23.8-3.6,40.8-10.1,58.7-16.9
		c40.5-15.4,86.4-32.9,228.1-26.8V31c-49.2-0.3-78.2-4.4-86.2-12.2c-6.3-6.2,2-13.1,7.4-16.9H389c-33,29.8-75.5,23.6-129.3,15.7
		c-41.4-6.1-88.4-13.1-142.7-5.2C95.8,15.5,78.6,23.9,62,32.2C45.7,40.3,30.2,47.8,13.2,48.4z M515.3,1v105.7c0,0.5-0.9,1-1.9,1
		H11.3c-1.1,0-1.9-0.4-1.9-1V1c0-0.5,0.9-1,1.9-1h502.1C514.5,0,515.3,0.4,515.3,1z M511.5,14.6V1.9h-15.6c-3.9,2.2-6.8,5.6-4.3,8.4
		C494,13,500.8,14.4,511.5,14.6L511.5,14.6z M511.5,29.1V16.4c-15.4-0.2-21.3-3-23.4-5.4c-2.7-3-0.6-6.5,3-9.1h-53.5
		c-7,4.7-14.1,10.8-8.7,16C433.8,22.9,452.3,28.8,511.5,29.1z M511.5,76.9L511.5,76.9L511.5,76.9V59.5
		c-147.6-6.9-194.2,18.8-228.2,37.7c-5.5,3.1-10.8,6-16.1,8.5h78.6c-0.8-3.4,3.4-7.7,12.1-12C381.1,82,443,67.4,511.5,76.9
		L511.5,76.9z M511.5,105.7V95c-46.2-7.2-77.8-0.4-86.9,5.7c-2.8,1.9-3.4,3.6-2.1,4.9H511.5z M511.5,93.1V78.8
		c-67.2-9.5-128.1,4.8-150.8,16.2c-8,4-11.9,7.8-10.9,10.7h68.5c-1.1-1.8,0-4,3.2-6.1C431.5,92.9,463.6,85.7,511.5,93.1z
		 M511.5,57.6V44.9c-140.4-6-185.7,11.2-225.7,26.4c-18.2,6.9-35.5,13.5-60,17.2c-21.9,3.3-46.3,4.5-70.6,4.5
		c-30.3,0-60.6-1.8-85.7-3.2c-25.9-1.5-46.4-2.7-56.3-1.4v17.3h248.3c6.2-2.7,12.3-6.1,18.9-9.7C312.9,77.9,362.1,50.7,511.5,57.6z
		 M384.5,1.9H43c1.3,12.5-12.3,17.2-29.8,22.9h0v21.7c15.4-0.6,30.3-7.9,46.1-15.7c16.2-8,34.5-17.1,56.6-20.3
		c55.4-8,103-1,144.9,5.2C312.2,23.3,353.1,29.3,384.5,1.9z M13.2,22.5C29.2,17.3,40.4,13,39.1,1.9H13.2V22.5z"/>
	<path class="st2" d="M511.5,1.9v12.6h0c-10.6-0.1-17.5-1.6-19.9-4.3c-2.4-2.8,0.5-6.2,4.3-8.4H511.5z"/>
	<path class="st3" d="M511.5,31v11.9c-141.6-6.1-187.5,11.4-228.1,26.8c-18,6.8-34.9,13.3-58.7,16.9c-48.4,7.4-109.8,3.8-154.7,1.2
		c-25.4-1.5-45.8-2.7-56.7-1.5v-38c16.9-0.6,32.4-8.1,48.8-16.2c16.6-8.2,33.8-16.7,54.9-19.8c54.3-7.9,101.3-0.9,142.7,5.2
		C313.4,25.5,356,31.7,389,1.9h43.7c-5.3,3.8-13.7,10.7-7.4,16.9C433.3,26.7,462.3,30.8,511.5,31z M277.4,47
		c0.7-5.8-11.5-10.9-36.3-15.4c-23.2-4.2-45.6-6.3-66.6-6.3c-62.3,0-96.6,18.1-98.2,36.1c-0.5,5.2,2.2,9.3,7.9,12.2
		c7.2,3.7,19.4,5.6,36.2,5.6c21.1,0,45.1-2.9,59.4-4.7c2.6-0.3,4.8-0.6,6.7-0.8C201.1,72,275.8,60.6,277.4,47z"/>
	<path class="st4" d="M511.5,16.4v12.7c-59.2-0.3-77.7-6.2-82.7-11.2c-5.3-5.3,1.7-11.3,8.7-16H491c-3.6,2.6-5.7,6.1-3,9.1
		C490.2,13.4,496.1,16.3,511.5,16.4z"/>
	<polygon points="511.5,76.9 511.5,76.9 511.5,76.9 	"/>
	<path class="st5" d="M511.5,95v10.6h-89c-1.4-1.3-0.7-3.1,2.1-4.9C433.7,94.6,465.3,87.8,511.5,95z"/>
	<path class="st2" d="M511.5,78.8v14.2c-47.8-7.3-80-0.2-90,6.5c-3.2,2.1-4.2,4.2-3.2,6.1h-68.5c-0.9-2.9,2.9-6.7,10.9-10.7
		C383.4,83.6,444.2,69.3,511.5,78.8z"/>
	<path class="st4" d="M511.5,59.5v17.3C443,67.4,381.1,82,357.9,93.6c-8.7,4.4-12.9,8.6-12.1,12h-78.6c5.3-2.5,10.5-5.4,16.1-8.5
		C317.3,78.4,363.8,52.6,511.5,59.5z"/>
	<path class="st6" d="M511.5,44.9v12.8c-149.4-6.9-198.5,20.3-231,38.3c-6.5,3.6-12.7,7-18.9,9.7H13.2V88.3
		c9.9-1.3,30.4-0.1,56.3,1.4c25.1,1.5,55.3,3.2,85.7,3.2c24.3,0,48.8-1.1,70.6-4.5c24.5-3.7,41.7-10.3,60-17.2
		C325.8,56.1,371.1,38.8,511.5,44.9z"/>
	<path class="st4" d="M43,1.9h341.5c-31.4,27.4-72.2,21.4-123.7,13.8c-42-6.2-89.5-13.2-144.9-5.2c-22.1,3.2-40.4,12.3-56.6,20.3
		c-15.8,7.8-30.7,15.1-46.1,15.7V24.8h0C30.7,19.2,44.3,14.4,43,1.9z"/>
	<path d="M241.1,31.6c24.8,4.5,37,9.6,36.3,15.4c-1.7,13.6-76.3,25-91,26.7c-1.9,0.2-4.1,0.5-6.7,0.8c-14.3,1.8-38.2,4.7-59.4,4.7
		c-16.8,0-29-1.9-36.2-5.6c-5.7-2.9-8.4-7.1-7.9-12.2c1.6-17.9,35.8-36.1,98.2-36.1C195.5,25.3,217.9,27.4,241.1,31.6z M273.6,46.8
		c0.6-4.8-10.8-9.4-33.8-13.5c-22.8-4.1-44.8-6.2-65.3-6.2c-59.9,0-92.8,17.2-94.3,34.2C79.7,66,82,69.7,87,72.2
		c6.5,3.3,17.7,5,33.4,5c20.7,0,44.3-2.9,58.5-4.6c2.6-0.3,4.8-0.6,6.7-0.8C204.6,69.6,272.2,58.3,273.6,46.8z"/>
	<path class="st4" d="M239.8,33.3c23,4.1,34.4,8.7,33.8,13.5c-1.4,11.5-69,22.8-88,25c-1.9,0.2-4.1,0.5-6.7,0.8
		c-14.1,1.7-37.8,4.6-58.5,4.6c-15.7,0-26.9-1.7-33.4-5c-5-2.6-7.3-6.2-6.9-10.8c1.5-17,34.4-34.2,94.3-34.2
		C195,27.2,217,29.3,239.8,33.3z M202.4,51.3c0.1-4.7-6.3-9.4-15.9-11.7c-2.5-0.6-5.6-0.9-9.1-0.9c-13.4,0-32.8,4.6-42.4,10.1
		c-4.3,2.4-6.2,4.8-5.6,6.9C130.9,61,140,64,155,64c12.6,0,27-2.1,35.7-4.1C198.1,58.2,202.3,55,202.4,51.3z"/>
	<path d="M186.5,39.6c9.6,2.3,15.9,7,15.9,11.7c-0.1,3.8-4.3,6.9-11.6,8.6c-8.7,2-23.1,4.1-35.7,4.1c-15,0-24.1-3-25.6-8.4
		c-0.6-2.1,1.4-4.5,5.6-6.9c9.6-5.5,29-10.1,42.4-10.1C180.9,38.6,184,38.9,186.5,39.6z M198.5,51.3c0.1-4-5.4-8-13.7-10
		c-2-0.5-4.5-0.7-7.4-0.7c-12.4,0-30.5,4.3-39.5,9.4c-3.5,2-5.1,3.9-4.7,5.4c1.3,4.5,8.6,6.8,21.8,6.8c12,0,25.8-2,34.1-3.9
		C195.1,56.8,198.5,54.3,198.5,51.3z"/>
	<path class="st2" d="M184.8,41.3c8.2,2,13.8,6,13.7,10c0,3-3.4,5.5-9.4,6.9c-8.3,2-22.1,3.9-34.1,3.9c-13.2,0-20.6-2.3-21.8-6.8
		c-0.4-1.5,1.2-3.4,4.7-5.4c9-5.1,27.1-9.4,39.5-9.4C180.3,40.5,182.8,40.8,184.8,41.3z"/>
	<path class="st7" d="M39.1,1.9c1.2,11-10,15.4-25.9,20.6V1.9H39.1z"/>
	<path class="st8" d="M513.4,0H11.3c-1.1,0-1.9,0.4-1.9,1v105.7c0,0.5,0.9,1,1.9,1h502.1c1.1,0,1.9-0.4,1.9-1V1
		C515.3,0.4,514.5,0,513.4,0z"/>
	<path class="st8" d="M418.3,105.7h-68.5c-0.9-2.9,2.9-6.7,10.9-10.7c22.7-11.4,83.5-25.7,150.8-16.2v14.2c-47.8-7.3-80-0.2-90,6.5
		C418.2,101.7,417.2,103.8,418.3,105.7z"/>
	<path class="st8" d="M13.2,24.8C30.7,19.2,44.3,14.4,43,1.9h341.5c-31.4,27.4-72.2,21.4-123.7,13.8c-42-6.2-89.5-13.2-144.9-5.2
		c-22.1,3.2-40.4,12.3-56.6,20.3c-15.8,7.8-30.7,15.1-46.1,15.7L13.2,24.8L13.2,24.8z"/>
	<path class="st8" d="M13.2,48.4c16.9-0.6,32.4-8.1,48.8-16.2c16.6-8.2,33.8-16.7,54.9-19.8c54.3-7.9,101.3-0.9,142.7,5.2
		C313.4,25.5,356,31.7,389,1.9h43.7c-5.3,3.8-13.7,10.7-7.4,16.9c8,7.9,37,12,86.2,12.2v11.9c-141.6-6.1-187.5,11.4-228.1,26.8
		c-18,6.8-34.9,13.3-58.7,16.9c-48.4,7.4-109.8,3.8-154.7,1.2c-25.4-1.5-45.8-2.7-56.7-1.5V48.4z"/>
	<line class="st8" x1="13.2" y1="48.4" x2="13.2" y2="48.4"/>
	<path class="st8" d="M491,1.9c-3.6,2.6-5.7,6.1-3,9.1c2.1,2.4,8,5.2,23.4,5.4v12.7c-59.2-0.3-77.7-6.2-82.7-11.2
		c-5.3-5.3,1.7-11.3,8.7-16H491z"/>
	<path class="st8" d="M511.5,76.9C443,67.4,381.1,82,357.9,93.6c-8.7,4.4-12.9,8.6-12.1,12h-78.6c5.3-2.5,10.5-5.4,16.1-8.5
		c34-18.8,80.5-44.6,228.2-37.7V76.9z"/>
	<polygon class="st8" points="511.5,76.9 511.5,76.9 511.5,76.9 	"/>
	<path class="st8" d="M511.5,14.6c-10.6-0.1-17.5-1.6-19.9-4.3c-2.4-2.8,0.5-6.2,4.3-8.4h15.6L511.5,14.6L511.5,14.6z"/>
	<path class="st8" d="M39.1,1.9c1.2,11-10,15.4-25.9,20.6V1.9H39.1z"/>
	<path class="st8" d="M13.2,88.3c9.9-1.3,30.4-0.1,56.3,1.4c25.1,1.5,55.3,3.2,85.7,3.2c24.3,0,48.8-1.1,70.6-4.5
		c24.5-3.7,41.7-10.3,60-17.2c40-15.2,85.3-32.5,225.7-26.4v12.8c-149.4-6.9-198.5,20.3-231,38.3c-6.5,3.6-12.7,7-18.9,9.7H13.2
		V88.3z"/>
	<path class="st8" d="M422.5,105.7c-1.4-1.3-0.7-3.1,2.1-4.9c9.1-6.1,40.8-12.9,86.9-5.7v10.6H422.5z"/>
	<path class="st8" d="M120.4,79.2c21.1,0,45.1-2.9,59.4-4.7c2.6-0.3,4.8-0.6,6.7-0.8c14.6-1.7,89.3-13.1,91-26.7
		c0.7-5.8-11.5-10.9-36.3-15.4c-23.2-4.2-45.6-6.3-66.6-6.3c-62.3,0-96.6,18.1-98.2,36.1c-0.5,5.2,2.2,9.3,7.9,12.2
		C91.4,77.3,103.6,79.2,120.4,79.2z"/>
	<path class="st8" d="M174.4,27.2c20.6,0,42.5,2.1,65.3,6.2c23,4.1,34.4,8.7,33.8,13.5c-1.4,11.5-69,22.8-88,25
		c-1.9,0.2-4.1,0.5-6.7,0.8c-14.1,1.7-37.8,4.6-58.5,4.6c-15.7,0-26.9-1.7-33.4-5c-5-2.6-7.3-6.2-6.9-10.8
		C81.7,44.4,114.6,27.2,174.4,27.2z"/>
	<path class="st8" d="M155,64c12.6,0,27-2.1,35.7-4.1c7.4-1.7,11.6-4.9,11.6-8.6c0.1-4.7-6.3-9.4-15.9-11.7
		c-2.5-0.6-5.6-0.9-9.1-0.9c-13.4,0-32.8,4.6-42.4,10.1c-4.3,2.4-6.2,4.8-5.6,6.9C130.9,61,140,64,155,64z"/>
	<path class="st8" d="M137.9,49.9c9-5.1,27.1-9.4,39.5-9.4c2.9,0,5.4,0.2,7.4,0.7c8.2,2,13.8,6,13.7,10c0,3-3.4,5.5-9.4,6.9
		c-8.3,2-22.1,3.9-34.1,3.9c-13.2,0-20.6-2.3-21.8-6.8C132.8,53.8,134.4,51.9,137.9,49.9z"/>
	<path d="M511.5,180.2v-38c-11,1.2-31.3,0-56.7-1.5c-44.9-2.6-106.4-6.2-154.7,1.2c-23.8,3.6-40.8,10.1-58.7,16.9
		c-40.5,15.4-86.4,32.9-228.1,26.8v11.9c49.2,0.3,78.2,4.4,86.1,12.2c6.3,6.2-2,13.1-7.4,16.9h43.7c33-29.8,75.5-23.6,129.3-15.7
		c41.4,6.1,88.4,13.1,142.7,5.2c21.1-3.1,38.3-11.6,54.9-19.8C479,188.3,494.5,180.7,511.5,180.2z M13.2,151.7v17.3
		c147.6,6.9,194.2-18.8,228.2-37.7c5.5-3.1,10.8-6,16.1-8.5h-78.6c0.8,3.4-3.4,7.7-12.1,12C143.6,146.6,81.7,161.2,13.2,151.7z
		 M9.4,227.6V122c0-0.5,0.9-1,1.9-1h502.1c1.1,0,1.9,0.4,1.9,1v105.7c0,0.5-0.9,1-1.9,1H11.3C10.2,228.6,9.4,228.2,9.4,227.6z
		 M13.2,214v12.6h15.6c3.9-2.2,6.8-5.6,4.3-8.4C30.7,215.6,23.8,214.2,13.2,214L13.2,214z M13.2,199.4v12.7
		c15.4,0.2,21.3,3,23.4,5.4c2.7,3,0.6,6.5-3,9.1h53.5c7-4.7,14.1-10.8,8.7-16C90.9,205.7,72.4,199.8,13.2,199.4z M13.2,122.9v10.6
		c46.2,7.2,77.8,0.4,86.9-5.7c2.8-1.9,3.4-3.6,2.1-4.9H13.2z M13.2,135.5v14.2c67.2,9.5,128.1-4.8,150.8-16.2
		c8-4,11.9-7.8,10.9-10.7h-68.5c1.1,1.8,0,4-3.2,6.1C93.2,135.7,61.1,142.8,13.2,135.5z M13.2,171v12.8
		c140.4,6,185.7-11.2,225.7-26.4c18.2-6.9,35.5-13.5,60-17.2c21.9-3.3,46.3-4.5,70.6-4.5c30.3,0,60.6,1.8,85.7,3.2
		c25.9,1.5,46.4,2.7,56.3,1.4v-17.3H263.1c-6.2,2.7-12.3,6.1-18.9,9.7C211.7,150.7,162.6,177.9,13.2,171z M140.2,226.7h341.5
		c-1.3-12.5,12.3-17.2,29.8-22.9h0v-21.7c-15.4,0.6-30.3,7.9-46.1,15.7c-16.2,8-34.5,17.1-56.6,20.3c-55.4,8-103,1-144.9-5.2
		C212.4,205.2,171.6,199.3,140.2,226.7z M511.5,206.1c-15.9,5.2-27.1,9.5-25.9,20.6h25.9V206.1z"/>
	<path class="st2" d="M13.2,226.7V214h0c10.6,0.1,17.5,1.6,19.9,4.3c2.4,2.8-0.5,6.2-4.3,8.4H13.2z"/>
	<path class="st3" d="M13.2,197.5v-11.9c141.6,6.1,187.5-11.4,228.1-26.8c18-6.8,34.9-13.3,58.7-16.9c48.4-7.4,109.8-3.8,154.7-1.2
		c25.4,1.5,45.8,2.7,56.7,1.5v38c-16.9,0.6-32.4,8.1-48.8,16.2c-16.6,8.2-33.8,16.7-54.9,19.8c-54.3,7.9-101.3,0.9-142.7-5.2
		c-53.8-7.9-96.3-14.2-129.3,15.7H92c5.3-3.8,13.7-10.7,7.4-16.9C91.4,201.9,62.4,197.8,13.2,197.5z M247.3,181.6
		c-0.7,5.8,11.5,10.9,36.3,15.4c23.2,4.2,45.6,6.3,66.6,6.3c62.3,0,96.6-18.1,98.2-36.1c0.5-5.1-2.2-9.3-7.9-12.2
		c-7.2-3.7-19.4-5.6-36.2-5.6c-21.1,0-45.1,2.9-59.4,4.7c-2.6,0.3-4.8,0.6-6.7,0.8C323.6,156.6,248.9,168,247.3,181.6z"/>
	<path class="st4" d="M13.2,212.1v-12.7c59.2,0.3,77.7,6.2,82.7,11.2c5.3,5.3-1.7,11.3-8.7,16H33.7c3.6-2.6,5.7-6.1,3-9.1
		C34.5,215.1,28.6,212.3,13.2,212.1z"/>
	<path class="st5" d="M13.2,133.5v-10.6h89c1.4,1.3,0.7,3.1-2.1,4.9C91,134,59.4,140.8,13.2,133.5z"/>
	<path class="st2" d="M13.2,149.8v-14.2c47.8,7.3,80,0.2,90-6.5c3.2-2.1,4.2-4.2,3.2-6.1H175c0.9,2.9-2.9,6.7-10.9,10.7
		C141.3,145,80.5,159.3,13.2,149.8z"/>
	<path class="st4" d="M13.2,169.1v-17.3c68.4,9.5,130.3-5.2,153.5-16.8c8.7-4.4,12.9-8.6,12.1-12h78.6c-5.3,2.5-10.5,5.4-16.1,8.5
		C207.4,150.2,160.9,175.9,13.2,169.1z"/>
	<path class="st6" d="M13.2,183.7V171c149.4,6.9,198.5-20.3,231-38.3c6.5-3.6,12.7-7,18.9-9.7h248.3v17.3
		c-9.9,1.3-30.4,0.1-56.3-1.4c-25.1-1.5-55.3-3.2-85.7-3.2c-24.3,0-48.8,1.1-70.6,4.5c-24.5,3.7-41.7,10.3-60,17.2
		C198.9,172.5,153.6,189.8,13.2,183.7z"/>
	<path class="st4" d="M481.7,226.7H140.2c31.4-27.4,72.2-21.4,123.7-13.8c42,6.2,89.5,13.2,144.9,5.2c22.1-3.2,40.4-12.3,56.6-20.3
		c15.8-7.8,30.7-15.1,46.1-15.7v21.7h0C494,209.4,480.4,214.1,481.7,226.7z"/>
	<path d="M283.6,197c-24.8-4.5-37-9.6-36.3-15.4c1.7-13.6,76.3-25,91-26.7c1.9-0.2,4.1-0.5,6.7-0.8c14.3-1.8,38.2-4.7,59.4-4.7
		c16.8,0,29,1.9,36.2,5.6c5.7,3,8.4,7.1,7.9,12.2c-1.6,17.9-35.8,36.1-98.2,36.1C329.2,203.3,306.8,201.2,283.6,197z M251.1,181.7
		c-0.6,4.8,10.8,9.4,33.8,13.5c22.8,4.1,44.8,6.2,65.3,6.2c59.9,0,92.8-17.2,94.3-34.2c0.4-4.6-1.9-8.2-6.9-10.8
		c-6.5-3.3-17.7-5-33.4-5c-20.7,0-44.3,2.9-58.5,4.6c-2.6,0.3-4.8,0.6-6.7,0.8C320.1,159,252.5,170.3,251.1,181.7z"/>
	<path class="st4" d="M284.9,195.2c-23-4.1-34.4-8.7-33.8-13.5c1.4-11.5,69-22.8,88-25c1.9-0.2,4.1-0.5,6.7-0.8
		c14.1-1.7,37.8-4.6,58.5-4.6c15.7,0,26.9,1.7,33.4,5c5,2.6,7.3,6.2,6.9,10.8c-1.5,17-34.4,34.2-94.3,34.2
		C329.7,201.4,307.7,199.3,284.9,195.2z M322.3,177.3c-0.1,4.7,6.3,9.4,15.9,11.7c2.5,0.6,5.6,0.9,9.1,0.9
		c13.4,0,32.8-4.6,42.4-10.1c4.3-2.4,6.2-4.8,5.6-6.9c-1.5-5.4-10.6-8.4-25.6-8.4c-12.6,0-27,2.1-35.7,4.1
		C326.6,170.4,322.4,173.5,322.3,177.3z"/>
	<path d="M338.2,189c-9.6-2.3-15.9-7-15.9-11.7c0.1-3.8,4.3-6.9,11.6-8.6c8.7-2,23.1-4.1,35.7-4.1c15,0,24.1,3,25.6,8.4
		c0.6,2.1-1.4,4.5-5.6,6.9c-9.6,5.5-29,10.1-42.4,10.1C343.7,189.9,340.7,189.6,338.2,189z M326.2,177.3c-0.1,4,5.4,8,13.7,10
		c2,0.5,4.5,0.7,7.4,0.7c12.4,0,30.5-4.3,39.5-9.4c3.5-2,5.1-3.9,4.7-5.4c-1.3-4.5-8.6-6.8-21.8-6.8c-12,0-25.8,2-34.1,3.9
		C329.6,171.8,326.2,174.3,326.2,177.3z"/>
	<path class="st2" d="M339.9,187.3c-8.2-2-13.8-6-13.7-10c0-3,3.4-5.5,9.4-6.9c8.3-2,22.1-3.9,34.1-3.9c13.2,0,20.6,2.3,21.8,6.8
		c0.4,1.5-1.2,3.4-4.7,5.4c-9,5.1-27.1,9.4-39.5,9.4C344.3,188,341.8,187.8,339.9,187.3z"/>
	<path class="st7" d="M485.5,226.7c-1.2-11,10-15.4,25.9-20.6v20.6H485.5z"/>
	<path class="st8" d="M11.3,228.6h502.1c1.1,0,1.9-0.4,1.9-1V122c0-0.5-0.9-1-1.9-1H11.3c-1.1,0-1.9,0.4-1.9,1v105.7
		C9.4,228.2,10.2,228.6,11.3,228.6z"/>
	<path class="st8" d="M106.4,122.9H175c0.9,2.9-2.9,6.7-10.9,10.7c-22.7,11.4-83.5,25.7-150.8,16.2v-14.2c47.8,7.3,80,0.2,90-6.5
		C106.4,126.9,107.5,124.7,106.4,122.9z"/>
	<path class="st8" d="M511.5,203.8c-17.4,5.6-31.1,10.3-29.8,22.9H140.2c31.4-27.4,72.2-21.4,123.7-13.8c42,6.2,89.5,13.2,144.9,5.2
		c22.1-3.2,40.4-12.3,56.6-20.3c15.8-7.8,30.7-15.1,46.1-15.7L511.5,203.8L511.5,203.8z"/>
	<path class="st8" d="M511.5,180.2c-16.9,0.6-32.4,8.1-48.8,16.2c-16.6,8.2-33.8,16.7-54.9,19.8c-54.3,7.9-101.3,0.9-142.7-5.2
		c-53.8-7.9-96.3-14.2-129.3,15.7H92c5.3-3.8,13.7-10.7,7.4-16.9c-8-7.9-37-12-86.1-12.2v-11.9c141.6,6.1,187.5-11.4,228.1-26.8
		c18-6.8,34.9-13.3,58.7-16.9c48.4-7.4,109.8-3.8,154.7-1.2c25.4,1.5,45.8,2.7,56.7,1.5V180.2z"/>
	<line class="st8" x1="511.5" y1="180.2" x2="511.5" y2="180.2"/>
	<path class="st8" d="M33.7,226.7c3.6-2.6,5.7-6.1,3-9.1c-2.1-2.4-8-5.2-23.4-5.4v-12.7c59.2,0.3,77.7,6.2,82.7,11.2
		c5.3,5.3-1.7,11.3-8.7,16H33.7z"/>
	<path class="st8" d="M13.2,151.7c68.4,9.5,130.3-5.2,153.5-16.8c8.7-4.4,12.9-8.6,12.1-12h78.6c-5.3,2.5-10.5,5.4-16.1,8.5
		c-34,18.8-80.5,44.6-228.2,37.7V151.7z"/>
	<polyline class="st8" points="13.2,151.7 13.2,151.7 13.2,151.7 	"/>
	<path class="st8" d="M13.2,214c10.6,0.1,17.5,1.6,19.9,4.3c2.4,2.8-0.5,6.2-4.3,8.4H13.2L13.2,214L13.2,214z"/>
	<path class="st8" d="M485.5,226.7c-1.2-11,10-15.4,25.9-20.6v20.6H485.5z"/>
	<path class="st8" d="M511.5,140.2c-9.9,1.3-30.4,0.1-56.3-1.4c-25.1-1.5-55.3-3.2-85.7-3.2c-24.3,0-48.8,1.1-70.6,4.5
		c-24.5,3.7-41.7,10.3-60,17.2c-40,15.2-85.3,32.5-225.7,26.4V171c149.4,6.9,198.5-20.3,231-38.3c6.5-3.6,12.7-7,18.9-9.7h248.3
		V140.2z"/>
	<path class="st8" d="M102.2,122.9c1.4,1.3,0.7,3.1-2.1,4.9c-9.1,6.1-40.8,12.9-86.9,5.7v-10.6H102.2z"/>
	<path class="st8" d="M404.3,149.4c-21.1,0-45.1,2.9-59.4,4.7c-2.6,0.3-4.8,0.6-6.7,0.8c-14.6,1.7-89.3,13.1-91,26.7
		c-0.7,5.8,11.5,10.9,36.3,15.4c23.2,4.2,45.6,6.3,66.6,6.3c62.3,0,96.6-18.1,98.2-36.1c0.5-5.1-2.2-9.3-7.9-12.2
		C433.2,151.3,421.1,149.4,404.3,149.4z"/>
	<path class="st8" d="M350.2,201.4c-20.6,0-42.5-2.1-65.3-6.2c-23-4.1-34.4-8.7-33.8-13.5c1.4-11.5,69-22.8,88-25
		c1.9-0.2,4.1-0.5,6.7-0.8c14.1-1.7,37.8-4.6,58.5-4.6c15.7,0,26.9,1.7,33.4,5c5,2.6,7.3,6.2,6.9,10.8
		C443,184.2,410.1,201.4,350.2,201.4z"/>
	<path class="st8" d="M369.7,164.6c-12.6,0-27,2.1-35.7,4.1c-7.4,1.7-11.6,4.9-11.6,8.6c-0.1,4.7,6.3,9.4,15.9,11.7
		c2.5,0.6,5.6,0.9,9.1,0.9c13.4,0,32.8-4.6,42.4-10.1c4.3-2.4,6.2-4.8,5.6-6.9C393.8,167.6,384.7,164.6,369.7,164.6z"/>
	<path class="st8" d="M386.8,178.6c-9,5.1-27.1,9.4-39.5,9.4c-2.9,0-5.4-0.2-7.4-0.7c-8.2-2-13.8-6-13.7-10c0-3,3.4-5.5,9.4-6.9
		c8.3-2,22.1-3.9,34.1-3.9c13.2,0,20.6,2.3,21.8,6.8C391.9,174.8,390.3,176.6,386.8,178.6z"/>
	<path d="M12.9,287.3v38c11-1.2,31.3,0,56.7,1.5c44.9,2.6,106.4,6.2,154.7-1.2c23.8-3.6,40.8-10.1,58.7-16.9
		c40.5-15.4,86.4-32.9,228.1-26.8v-11.9c-49.2-0.3-78.2-4.4-86.2-12.2c-6.3-6.2,2-13.1,7.4-16.9h-43.7
		c-33,29.8-75.5,23.6-129.3,15.7c-41.4-6.1-88.4-13.1-142.7-5.2c-21.1,3.1-38.3,11.6-54.9,19.8C45.4,279.1,29.9,286.7,12.9,287.3z
		 M515,239.8v105.7c0,0.5-0.9,1-1.9,1H11c-1.1,0-1.9-0.4-1.9-1V239.8c0-0.5,0.9-1,1.9-1h502.1C514.2,238.9,515,239.3,515,239.8z
		 M511.2,253.4v-12.6h-15.6c-3.9,2.2-6.8,5.6-4.3,8.4C493.7,251.8,500.5,253.3,511.2,253.4L511.2,253.4z M511.2,268v-12.7
		c-15.4-0.2-21.3-3-23.4-5.4c-2.7-3-0.6-6.5,3-9.1h-53.5c-7,4.7-14.1,10.8-8.7,16C433.5,261.8,452,267.7,511.2,268z M511.2,315.7
		L511.2,315.7L511.2,315.7v-17.3C363.5,291.5,317,317.2,283,336.1c-5.5,3.1-10.8,6-16.1,8.5h78.6c-0.8-3.4,3.4-7.7,12.1-12
		C380.8,320.9,442.7,306.3,511.2,315.7L511.2,315.7z M511.2,344.5v-10.6c-46.2-7.2-77.8-0.4-86.9,5.7c-2.8,1.9-3.4,3.6-2.1,4.9
		H511.2z M511.2,331.9v-14.2c-67.2-9.5-128.1,4.8-150.8,16.2c-8,4-11.9,7.8-10.9,10.7H418c-1.1-1.8,0-4,3.2-6.1
		C431.2,331.7,463.3,324.6,511.2,331.9z M511.2,296.5v-12.8c-140.4-6-185.7,11.2-225.7,26.4c-18.2,6.9-35.5,13.5-60,17.2
		c-21.9,3.3-46.3,4.5-70.6,4.5c-30.3,0-60.6-1.8-85.7-3.2c-25.9-1.5-46.4-2.7-56.3-1.4v17.3h248.3c6.2-2.7,12.3-6.1,18.9-9.7
		C312.6,316.8,361.7,289.6,511.2,296.5z M384.2,240.8H42.7c1.3,12.5-12.3,17.2-29.8,22.9h0v21.7c15.4-0.6,30.3-7.9,46.1-15.7
		c16.2-8,34.5-17.1,56.6-20.3c55.4-8,103-1,144.9,5.2C311.9,262.2,352.8,268.2,384.2,240.8z M12.9,261.4
		c15.9-5.2,27.1-9.5,25.9-20.6H12.9V261.4z"/>
	<path class="st2" d="M511.2,240.8v12.6h0c-10.6-0.1-17.5-1.6-19.9-4.3c-2.4-2.8,0.5-6.2,4.3-8.4H511.2z"/>
	<path class="st3" d="M511.2,269.9v11.9c-141.6-6.1-187.5,11.4-228.1,26.8c-18,6.8-34.9,13.3-58.7,16.9
		c-48.4,7.4-109.8,3.8-154.7,1.2c-25.4-1.5-45.8-2.7-56.7-1.5v-38c16.9-0.6,32.4-8.1,48.8-16.2c16.6-8.2,33.8-16.7,54.9-19.8
		c54.3-7.9,101.3-0.9,142.7,5.2c53.8,7.9,96.3,14.2,129.3-15.7h43.7c-5.3,3.8-13.7,10.7-7.4,16.9C433,265.5,462,269.6,511.2,269.9z
		 M277.1,285.8c0.7-5.8-11.5-10.9-36.3-15.4c-23.2-4.2-45.6-6.3-66.6-6.3c-62.3,0-96.6,18.1-98.2,36.1c-0.5,5.2,2.2,9.3,7.9,12.2
		c7.2,3.7,19.4,5.6,36.2,5.6c21.1,0,45.1-2.9,59.4-4.7c2.6-0.3,4.8-0.6,6.7-0.8C200.8,310.9,275.5,299.4,277.1,285.8z"/>
	<path class="st4" d="M511.2,255.3V268c-59.2-0.3-77.7-6.2-82.7-11.2c-5.3-5.3,1.7-11.3,8.7-16h53.5c-3.6,2.6-5.7,6.1-3,9.1
		C489.9,252.3,495.8,255.1,511.2,255.3z"/>
	<polygon points="511.2,315.7 511.2,315.7 511.2,315.7 	"/>
	<path class="st5" d="M511.2,333.9v10.6h-89c-1.4-1.3-0.7-3.1,2.1-4.9C433.4,333.5,465,326.7,511.2,333.9z"/>
	<path class="st2" d="M511.2,317.7v14.2c-47.8-7.3-80-0.2-90,6.5c-3.2,2.1-4.2,4.2-3.2,6.1h-68.5c-0.9-2.9,2.9-6.7,10.9-10.7
		C383.1,322.5,443.9,308.2,511.2,317.7z"/>
	<path class="st4" d="M511.2,298.4v17.3c-68.5-9.5-130.3,5.2-153.5,16.8c-8.7,4.4-12.9,8.6-12.1,12h-78.6c5.3-2.5,10.5-5.4,16.1-8.5
		C317,317.2,363.5,291.5,511.2,298.4z"/>
	<path class="st6" d="M511.2,283.7v12.8c-149.4-6.9-198.5,20.3-231,38.3c-6.5,3.6-12.7,7-18.9,9.7H12.9v-17.3
		c9.9-1.3,30.4-0.1,56.3,1.4c25.1,1.5,55.3,3.2,85.7,3.2c24.3,0,48.8-1.1,70.6-4.5c24.5-3.7,41.7-10.3,60-17.2
		C325.5,294.9,370.8,277.7,511.2,283.7z"/>
	<path class="st4" d="M42.7,240.8h341.5c-31.4,27.4-72.2,21.4-123.7,13.8c-42-6.2-89.5-13.2-144.9-5.2
		c-22.1,3.2-40.4,12.3-56.6,20.3c-15.8,7.8-30.7,15.1-46.1,15.7v-21.7h0C30.4,258,44,253.3,42.7,240.8z"/>
	<path d="M240.8,270.4c24.8,4.5,37,9.6,36.3,15.4c-1.7,13.6-76.3,25-91,26.7c-1.9,0.2-4.1,0.5-6.7,0.8c-14.3,1.8-38.2,4.7-59.4,4.7
		c-16.8,0-29-1.9-36.2-5.6c-5.7-2.9-8.4-7.1-7.9-12.2c1.6-17.9,35.8-36.1,98.2-36.1C195.2,264.2,217.6,266.3,240.8,270.4z
		 M273.3,285.7c0.6-4.8-10.8-9.4-33.8-13.5c-22.8-4.1-44.8-6.2-65.3-6.2c-59.9,0-92.8,17.2-94.3,34.2c-0.4,4.6,1.9,8.3,6.9,10.8
		c6.5,3.3,17.7,5,33.4,5c20.7,0,44.3-2.9,58.5-4.6c2.6-0.3,4.8-0.6,6.7-0.8C204.3,308.5,271.9,297.2,273.3,285.7z"/>
	<path class="st4" d="M239.5,272.2c23,4.1,34.4,8.7,33.8,13.5c-1.4,11.5-69,22.8-88,25c-1.9,0.2-4.1,0.5-6.7,0.8
		c-14.1,1.7-37.8,4.6-58.5,4.6c-15.7,0-26.9-1.7-33.4-5c-5-2.6-7.3-6.2-6.9-10.8c1.5-17,34.4-34.2,94.3-34.2
		C194.7,266.1,216.7,268.1,239.5,272.2z M202.1,290.1c0.1-4.7-6.3-9.4-15.9-11.7c-2.5-0.6-5.6-0.9-9.1-0.9
		c-13.4,0-32.8,4.6-42.4,10.1c-4.3,2.4-6.2,4.8-5.6,6.9c1.5,5.4,10.6,8.4,25.6,8.4c12.6,0,27-2.1,35.7-4.1
		C197.8,297,202,293.9,202.1,290.1z"/>
	<path d="M186.2,278.4c9.6,2.3,15.9,7,15.9,11.7c-0.1,3.8-4.3,6.9-11.6,8.6c-8.7,2-23.1,4.1-35.7,4.1c-15,0-24.1-3-25.6-8.4
		c-0.6-2.1,1.4-4.5,5.6-6.9c9.6-5.5,29-10.1,42.4-10.1C180.6,277.5,183.7,277.8,186.2,278.4z M198.2,290.1c0.1-4-5.4-8-13.7-10
		c-2-0.5-4.5-0.7-7.4-0.7c-12.4,0-30.5,4.3-39.5,9.4c-3.5,2-5.1,3.9-4.7,5.4c1.3,4.5,8.6,6.8,21.8,6.8c12,0,25.8-2,34.1-3.9
		C194.8,295.6,198.2,293.2,198.2,290.1z"/>
	<path class="st2" d="M184.5,280.1c8.2,2,13.8,6,13.7,10c0,3-3.4,5.5-9.4,6.9c-8.3,1.9-22.1,3.9-34.1,3.9c-13.2,0-20.6-2.3-21.8-6.8
		c-0.4-1.5,1.2-3.4,4.7-5.4c9-5.1,27.1-9.4,39.5-9.4C180,279.4,182.5,279.6,184.5,280.1z"/>
	<path class="st7" d="M38.8,240.8c1.2,11-10,15.4-25.9,20.6v-20.6H38.8z"/>
	<path class="st8" d="M513.1,238.9H11c-1.1,0-1.9,0.4-1.9,1v105.7c0,0.5,0.9,1,1.9,1h502.1c1.1,0,1.9-0.4,1.9-1V239.8
		C515,239.3,514.2,238.9,513.1,238.9z"/>
	<path class="st8" d="M418,344.5h-68.5c-0.9-2.9,2.9-6.7,10.9-10.7c22.7-11.4,83.5-25.7,150.8-16.2v14.2c-47.8-7.3-80-0.2-90,6.5
		C417.9,340.6,416.9,342.7,418,344.5z"/>
	<path class="st8" d="M12.9,263.6c17.5-5.6,31.1-10.3,29.8-22.9h341.5c-31.4,27.4-72.2,21.4-123.7,13.8c-42-6.2-89.5-13.2-144.9-5.2
		c-22.1,3.2-40.4,12.3-56.6,20.3c-15.8,7.8-30.7,15.1-46.1,15.7L12.9,263.6L12.9,263.6z"/>
	<path class="st8" d="M12.9,287.3c16.9-0.6,32.4-8.1,48.8-16.2c16.6-8.2,33.8-16.7,54.9-19.8c54.3-7.9,101.3-0.9,142.7,5.2
		c53.8,7.9,96.3,14.2,129.3-15.7h43.7c-5.3,3.8-13.7,10.7-7.4,16.9c8,7.9,37,12,86.2,12.2v11.9c-141.6-6.1-187.5,11.4-228.1,26.8
		c-18,6.8-34.9,13.3-58.7,16.9c-48.4,7.4-109.8,3.8-154.7,1.2c-25.4-1.5-45.8-2.7-56.7-1.5V287.3z"/>
	<line class="st8" x1="12.9" y1="287.3" x2="12.9" y2="287.3"/>
	<path class="st8" d="M490.7,240.8c-3.6,2.6-5.7,6.1-3,9.1c2.1,2.4,8,5.2,23.4,5.4V268c-59.2-0.3-77.7-6.2-82.7-11.2
		c-5.3-5.3,1.7-11.3,8.7-16H490.7z"/>
	<path class="st8" d="M511.2,315.7c-68.5-9.5-130.3,5.2-153.5,16.8c-8.7,4.4-12.9,8.6-12.1,12h-78.6c5.3-2.5,10.5-5.4,16.1-8.5
		c34-18.8,80.5-44.6,228.2-37.7V315.7z"/>
	<polygon class="st8" points="511.2,315.7 511.2,315.7 511.2,315.7 	"/>
	<path class="st8" d="M511.2,253.4c-10.6-0.1-17.5-1.6-19.9-4.3c-2.4-2.8,0.5-6.2,4.3-8.4h15.6L511.2,253.4L511.2,253.4z"/>
	<path class="st8" d="M38.8,240.8c1.2,11-10,15.4-25.9,20.6v-20.6H38.8z"/>
	<path class="st8" d="M12.9,327.2c9.9-1.3,30.4-0.1,56.3,1.4c25.1,1.5,55.3,3.2,85.7,3.2c24.3,0,48.8-1.1,70.6-4.5
		c24.5-3.7,41.7-10.3,60-17.2c40-15.2,85.3-32.5,225.7-26.4v12.8c-149.4-6.9-198.5,20.3-231,38.3c-6.5,3.6-12.7,7-18.9,9.7H12.9
		V327.2z"/>
	<path class="st8" d="M422.2,344.5c-1.4-1.3-0.7-3.1,2.1-4.9c9.1-6.1,40.8-12.9,86.9-5.7v10.6H422.2z"/>
	<path class="st8" d="M120.1,318c21.1,0,45.1-2.9,59.4-4.7c2.6-0.3,4.8-0.6,6.7-0.8c14.6-1.7,89.3-13.1,91-26.7
		c0.7-5.8-11.5-10.9-36.3-15.4c-23.2-4.2-45.6-6.3-66.6-6.3c-62.3,0-96.6,18.1-98.2,36.1c-0.5,5.2,2.2,9.3,7.9,12.2
		C91.1,316.2,103.3,318,120.1,318z"/>
	<path class="st8" d="M174.1,266.1c20.6,0,42.5,2.1,65.3,6.2c23,4.1,34.4,8.7,33.8,13.5c-1.4,11.5-69,22.8-88,25
		c-1.9,0.2-4.1,0.5-6.7,0.8c-14.1,1.7-37.8,4.6-58.5,4.6c-15.7,0-26.9-1.7-33.4-5c-5-2.6-7.3-6.2-6.9-10.8
		C81.4,283.3,114.2,266.1,174.1,266.1z"/>
	<path class="st8" d="M154.7,302.9c12.6,0,27-2.1,35.7-4.1c7.4-1.7,11.6-4.9,11.6-8.6c0.1-4.7-6.3-9.4-15.9-11.7
		c-2.5-0.6-5.6-0.9-9.1-0.9c-13.4,0-32.8,4.6-42.4,10.1c-4.3,2.4-6.2,4.8-5.6,6.9C130.6,299.9,139.7,302.9,154.7,302.9z"/>
	<path class="st8" d="M137.6,288.8c9-5.1,27.1-9.4,39.5-9.4c2.9,0,5.4,0.2,7.4,0.7c8.2,2,13.8,6,13.7,10c0,3-3.4,5.5-9.4,6.9
		c-8.3,1.9-22.1,3.9-34.1,3.9c-13.2,0-20.6-2.3-21.8-6.8C132.4,292.7,134.1,290.8,137.6,288.8z"/>
	<path d="M510.9,415.9v-38c-11,1.2-31.3,0-56.7-1.5c-44.9-2.6-106.4-6.2-154.7,1.2c-23.8,3.6-40.8,10.1-58.7,16.9
		c-40.5,15.4-86.4,32.9-228.1,26.8v11.9c49.2,0.3,78.2,4.4,86.1,12.2c6.3,6.2-2,13.1-7.4,16.9h43.7c33-29.8,75.5-23.6,129.3-15.7
		c41.4,6.1,88.4,13.1,142.7,5.2c21.1-3.1,38.3-11.6,54.9-19.8C478.4,424,493.9,416.5,510.9,415.9z M12.6,387.5v17.3
		c147.6,6.9,194.2-18.8,228.2-37.7c5.5-3.1,10.8-6,16.1-8.5h-78.6c0.8,3.4-3.4,7.7-12.1,12C143,382.3,81.1,396.9,12.6,387.5z
		 M8.7,463.3V357.7c0-0.5,0.9-1,1.9-1h502.1c1.1,0,1.9,0.4,1.9,1v105.7c0,0.5-0.9,1-1.9,1H10.7C9.6,464.3,8.8,463.9,8.7,463.3z
		 M12.6,449.8v12.6h15.6c3.9-2.2,6.8-5.6,4.3-8.4C30.1,451.3,23.2,449.9,12.6,449.8L12.6,449.8z M12.6,435.2v12.7
		c15.4,0.2,21.3,3,23.4,5.4c2.7,3,0.6,6.5-3,9.1h53.5c7-4.7,14.1-10.8,8.7-16C90.3,441.4,71.8,435.5,12.6,435.2z M12.6,358.6v10.6
		c46.2,7.2,77.8,0.4,86.9-5.7c2.8-1.9,3.4-3.6,2.1-4.9H12.6z M12.6,371.2v14.2c67.2,9.5,128.1-4.8,150.8-16.2
		c8-4,11.9-7.8,10.9-10.7h-68.5c1.1,1.8,0,4-3.2,6.1C92.6,371.4,60.5,378.6,12.6,371.2z M12.6,406.7v12.7
		c140.4,6,185.7-11.2,225.7-26.4c18.2-6.9,35.5-13.5,60-17.2c21.9-3.3,46.3-4.5,70.6-4.5c30.3,0,60.6,1.8,85.7,3.2
		c25.9,1.5,46.4,2.7,56.3,1.4v-17.3H262.5c-6.2,2.7-12.3,6.1-18.9,9.7C211.1,386.4,162,413.6,12.6,406.7z M139.6,462.4h341.5
		c-1.3-12.5,12.3-17.2,29.8-22.9h0v-21.7c-15.4,0.6-30.3,7.9-46.1,15.7c-16.2,8-34.5,17.1-56.6,20.3c-55.4,8-103,1-144.9-5.2
		C211.8,441,171,435,139.6,462.4z M510.9,441.8c-15.9,5.2-27.1,9.5-25.9,20.6h25.9V441.8z"/>
	<path class="st2" d="M12.6,462.4v-12.6h0c10.6,0.1,17.5,1.6,19.9,4.3c2.4,2.8-0.5,6.2-4.3,8.4H12.6z"/>
	<path class="st3" d="M12.6,433.3v-11.9c141.6,6.1,187.5-11.4,228.1-26.8c18-6.8,34.9-13.3,58.7-16.9c48.4-7.4,109.8-3.8,154.7-1.2
		c25.4,1.5,45.8,2.7,56.7,1.5v38c-16.9,0.6-32.4,8.1-48.8,16.2c-16.6,8.2-33.8,16.7-54.9,19.8c-54.3,7.9-101.3,0.9-142.7-5.2
		c-53.8-7.9-96.3-14.2-129.3,15.7H91.4c5.3-3.8,13.7-10.7,7.4-16.9C90.8,437.6,61.8,433.5,12.6,433.3z M246.7,417.4
		c-0.7,5.8,11.5,10.9,36.3,15.4c23.2,4.2,45.6,6.3,66.6,6.3c62.3,0,96.6-18.1,98.2-36.1c0.5-5.1-2.2-9.3-7.9-12.2
		c-7.2-3.7-19.4-5.6-36.2-5.6c-21.1,0-45.1,2.9-59.4,4.7c-2.6,0.3-4.8,0.6-6.7,0.8C323,392.3,248.3,403.7,246.7,417.4z"/>
	<path class="st4" d="M12.6,447.9v-12.7c59.2,0.3,77.7,6.2,82.7,11.2c5.3,5.3-1.7,11.3-8.7,16H33c3.6-2.6,5.7-6.1,3-9.1
		C33.9,450.9,28,448,12.6,447.9z"/>
	<path class="st5" d="M12.6,369.3v-10.6h89c1.4,1.3,0.7,3.1-2.1,4.9C90.4,369.7,58.8,376.5,12.6,369.3z"/>
	<path class="st2" d="M12.6,385.5v-14.2c47.8,7.3,80,0.2,90-6.5c3.2-2.1,4.2-4.2,3.2-6.1h68.5c0.9,2.9-2.9,6.7-10.9,10.7
		C140.7,380.7,79.9,395,12.6,385.5z"/>
	<path class="st4" d="M12.6,404.8v-17.3c68.4,9.5,130.3-5.2,153.5-16.8c8.7-4.4,12.9-8.6,12.1-12h78.6c-5.3,2.5-10.5,5.4-16.1,8.5
		C206.8,385.9,160.3,411.7,12.6,404.8z"/>
	<path class="st6" d="M12.6,419.4v-12.7c149.4,6.9,198.5-20.3,231-38.3c6.5-3.6,12.7-7,18.9-9.7h248.3V376
		c-9.9,1.3-30.4,0.1-56.3-1.4c-25.1-1.5-55.3-3.2-85.7-3.2c-24.3,0-48.8,1.1-70.6,4.5c-24.5,3.7-41.7,10.3-60,17.2
		C198.3,408.2,153,425.5,12.6,419.4z"/>
	<path class="st4" d="M481.1,462.4H139.6C171,435,211.8,441,263.3,448.6c42,6.2,89.5,13.2,144.9,5.2c22.1-3.2,40.4-12.3,56.6-20.3
		c15.8-7.8,30.7-15.1,46.1-15.7v21.7h0C493.4,445.1,479.8,449.9,481.1,462.4z"/>
	<path d="M283,432.7c-24.8-4.5-37-9.6-36.3-15.4c1.7-13.6,76.3-25,91-26.7c1.9-0.2,4.1-0.5,6.7-0.8c14.3-1.8,38.2-4.7,59.4-4.7
		c16.8,0,29,1.9,36.2,5.6c5.7,3,8.4,7.1,7.9,12.2c-1.6,17.9-35.8,36.1-98.2,36.1C328.6,439,306.2,436.9,283,432.7z M250.5,417.5
		c-0.6,4.8,10.8,9.4,33.8,13.5c22.8,4.1,44.8,6.2,65.3,6.2c59.9,0,92.8-17.2,94.3-34.2c0.4-4.6-1.9-8.2-6.9-10.8
		c-6.5-3.3-17.7-5-33.4-5c-20.7,0-44.3,2.9-58.5,4.6c-2.6,0.3-4.8,0.6-6.7,0.8C319.5,394.7,251.9,406,250.5,417.5z"/>
	<path class="st4" d="M284.3,431c-23-4.1-34.4-8.7-33.8-13.5c1.4-11.5,69-22.8,88-25c1.9-0.2,4.1-0.5,6.7-0.8
		c14.1-1.7,37.8-4.6,58.5-4.6c15.7,0,26.9,1.7,33.4,5c5,2.6,7.3,6.2,6.9,10.8c-1.5,17-34.4,34.2-94.3,34.2
		C329.1,437.1,307.1,435,284.3,431z M321.7,413c-0.1,4.7,6.3,9.4,15.9,11.7c2.5,0.6,5.6,0.9,9.1,0.9c13.4,0,32.8-4.6,42.4-10.1
		c4.3-2.4,6.2-4.8,5.6-6.9c-1.5-5.4-10.6-8.4-25.6-8.4c-12.6,0-27,2.1-35.7,4.1C326,406.1,321.8,409.3,321.7,413z"/>
	<path d="M337.6,424.7c-9.6-2.3-15.9-7-15.9-11.7c0.1-3.8,4.3-6.9,11.6-8.6c8.7-2,23.1-4.1,35.7-4.1c15,0,24.1,3,25.6,8.4
		c0.6,2.1-1.4,4.5-5.6,6.9c-9.6,5.5-29,10.1-42.4,10.1C343.1,425.7,340.1,425.4,337.6,424.7z M325.6,413c-0.1,4,5.4,8,13.7,10
		c2,0.5,4.5,0.7,7.4,0.7c12.4,0,30.5-4.3,39.5-9.4c3.5-2,5.1-3.9,4.7-5.4c-1.3-4.5-8.6-6.8-21.8-6.8c-12,0-25.8,2-34.1,3.9
		C329,407.5,325.6,410,325.6,413z"/>
	<path class="st2" d="M339.3,423c-8.2-2-13.8-6-13.7-10c0-3,3.4-5.5,9.4-6.9c8.3-2,22.1-3.9,34.1-3.9c13.2,0,20.6,2.3,21.8,6.8
		c0.4,1.5-1.2,3.4-4.7,5.4c-9,5.1-27.1,9.4-39.5,9.4C343.7,423.8,341.2,423.5,339.3,423z"/>
	<path class="st7" d="M484.9,462.4c-1.2-11,10-15.4,25.9-20.6v20.6H484.9z"/>
	<path class="st8" d="M10.7,464.3h502.1c1.1,0,1.9-0.4,1.9-1V357.7c0-0.5-0.9-1-1.9-1H10.7c-1.1,0-1.9,0.4-1.9,1v105.7
		C8.8,463.9,9.6,464.3,10.7,464.3z"/>
	<path class="st8" d="M105.8,358.6h68.5c0.9,2.9-2.9,6.7-10.9,10.7c-22.7,11.4-83.5,25.7-150.8,16.2v-14.2c47.8,7.3,80,0.2,90-6.5
		C105.8,362.6,106.9,360.5,105.8,358.6z"/>
	<path class="st8" d="M510.9,439.5c-17.4,5.6-31.1,10.3-29.8,22.9H139.6C171,435,211.8,441,263.3,448.6c42,6.2,89.5,13.2,144.9,5.2
		c22.1-3.2,40.4-12.3,56.6-20.3c15.8-7.8,30.7-15.1,46.1-15.7L510.9,439.5L510.9,439.5z"/>
	<path class="st8" d="M510.9,415.9c-16.9,0.6-32.4,8.1-48.8,16.2c-16.6,8.2-33.8,16.7-54.9,19.8c-54.3,7.9-101.3,0.9-142.7-5.2
		c-53.8-7.9-96.3-14.2-129.3,15.7H91.4c5.3-3.8,13.7-10.7,7.4-16.9c-8-7.9-37-12-86.1-12.2v-11.9c141.6,6.1,187.5-11.4,228.1-26.8
		c18-6.8,34.9-13.3,58.7-16.9c48.4-7.4,109.8-3.8,154.7-1.2c25.4,1.5,45.8,2.7,56.7,1.5V415.9z"/>
	<line class="st8" x1="510.9" y1="415.9" x2="510.9" y2="415.9"/>
	<path class="st8" d="M33,462.4c3.6-2.6,5.7-6.1,3-9.1c-2.1-2.4-8-5.2-23.4-5.4v-12.7c59.2,0.3,77.7,6.2,82.7,11.2
		c5.3,5.3-1.7,11.3-8.7,16H33z"/>
	<path class="st8" d="M12.6,387.5c68.4,9.5,130.3-5.2,153.5-16.8c8.7-4.4,12.9-8.6,12.1-12h78.6c-5.3,2.5-10.5,5.4-16.1,8.5
		c-34,18.8-80.5,44.6-228.2,37.7V387.5z"/>
	<polyline class="st8" points="12.6,387.4 12.6,387.4 12.6,387.5 	"/>
	<path class="st8" d="M12.6,449.8c10.6,0.1,17.5,1.6,19.9,4.3c2.4,2.8-0.5,6.2-4.3,8.4H12.6L12.6,449.8L12.6,449.8z"/>
	<path class="st8" d="M484.9,462.4c-1.2-11,10-15.4,25.9-20.6v20.6H484.9z"/>
	<path class="st8" d="M510.9,376c-9.9,1.3-30.4,0.1-56.3-1.4c-25.1-1.5-55.3-3.2-85.7-3.2c-24.3,0-48.8,1.1-70.6,4.5
		c-24.5,3.7-41.7,10.3-60,17.2c-40,15.2-85.3,32.5-225.7,26.4v-12.7c149.4,6.9,198.5-20.3,231-38.3c6.5-3.6,12.7-7,18.9-9.7h248.3
		V376z"/>
	<path class="st8" d="M101.6,358.6c1.4,1.3,0.7,3.1-2.1,4.9c-9.1,6.1-40.8,12.9-86.9,5.7v-10.6H101.6z"/>
	<path class="st8" d="M403.7,385.1c-21.1,0-45.1,2.9-59.4,4.7c-2.6,0.3-4.8,0.6-6.7,0.8c-14.6,1.7-89.3,13.1-91,26.7
		c-0.7,5.8,11.5,10.9,36.3,15.4c23.2,4.2,45.6,6.3,66.6,6.3c62.3,0,96.6-18.1,98.2-36.1c0.5-5.1-2.2-9.3-7.9-12.2
		C432.6,387,420.5,385.1,403.7,385.1z"/>
	<path class="st8" d="M349.6,437.1c-20.6,0-42.5-2.1-65.3-6.2c-23-4.1-34.4-8.7-33.8-13.5c1.4-11.5,69-22.8,88-25
		c1.9-0.2,4.1-0.5,6.7-0.8c14.1-1.7,37.8-4.6,58.5-4.6c15.7,0,26.9,1.7,33.4,5c5,2.6,7.3,6.2,6.9,10.8
		C442.4,419.9,409.5,437.1,349.6,437.1z"/>
	<path class="st8" d="M369.1,400.3c-12.6,0-27,2.1-35.7,4.1c-7.4,1.7-11.6,4.9-11.6,8.6c-0.1,4.7,6.3,9.4,15.9,11.7
		c2.5,0.6,5.6,0.9,9.1,0.9c13.4,0,32.8-4.6,42.4-10.1c4.3-2.4,6.2-4.8,5.6-6.9C393.2,403.3,384.1,400.3,369.1,400.3z"/>
	<path class="st8" d="M386.2,414.4c-9,5.1-27.1,9.4-39.5,9.4c-2.9,0-5.4-0.2-7.4-0.7c-8.2-2-13.8-6-13.7-10c0-3,3.4-5.5,9.4-6.9
		c8.3-2,22.1-3.9,34.1-3.9c13.2,0,20.6,2.3,21.8,6.8C391.3,410.5,389.7,412.4,386.2,414.4z"/>
	<path d="M12.3,523v38c11-1.2,31.3,0,56.7,1.5c44.9,2.6,106.4,6.2,154.7-1.2c23.8-3.6,40.8-10.1,58.7-16.9
		c40.5-15.4,86.4-32.9,228.1-26.8v-11.9c-49.2-0.3-78.2-4.4-86.2-12.2c-6.3-6.2,2-13.1,7.4-16.9h-43.7
		c-33,29.8-75.5,23.6-129.3,15.7c-41.4-6.1-88.4-13.1-142.7-5.2c-21.1,3.1-38.3,11.6-54.9,19.8C44.8,514.8,29.2,522.4,12.3,523z
		 M514.4,475.5v105.7c0,0.5-0.9,1-1.9,1H10.4c-1.1,0-1.9-0.4-1.9-1V475.5c0-0.5,0.9-1,1.9-1h502.1
		C513.6,474.6,514.4,475,514.4,475.5z M510.6,489.1v-12.6H495c-3.9,2.2-6.8,5.6-4.3,8.4C493,487.6,499.9,489,510.6,489.1
		L510.6,489.1z M510.6,503.7V491c-15.4-0.2-21.3-3-23.4-5.4c-2.7-3-0.6-6.5,3-9.1h-53.5c-7,4.7-14.1,10.8-8.7,16
		C432.9,497.5,451.4,503.4,510.6,503.7z M510.5,551.4L510.5,551.4L510.5,551.4v-17.3c-147.6-6.9-194.2,18.8-228.2,37.7
		c-5.5,3.1-10.8,6-16.1,8.5h78.6c-0.8-3.4,3.4-7.7,12.1-12C380.2,556.6,442.1,542,510.5,551.4L510.5,551.4z M510.5,580.3v-10.6
		c-46.2-7.2-77.8-0.4-86.9,5.7c-2.8,1.9-3.4,3.6-2.1,4.9H510.5z M510.5,567.6v-14.2c-67.2-9.5-128.1,4.8-150.8,16.2
		c-8,4-11.9,7.8-10.9,10.7h68.5c-1.1-1.8,0-4,3.2-6.1C430.6,567.5,462.7,560.3,510.5,567.6z M510.5,532.2v-12.8
		c-140.4-6-185.7,11.2-225.7,26.4c-18.2,6.9-35.5,13.5-60,17.2c-21.9,3.3-46.3,4.5-70.6,4.5c-30.3,0-60.6-1.8-85.7-3.2
		c-25.9-1.5-46.4-2.7-56.3-1.4v17.3h248.3c6.2-2.7,12.3-6.1,18.9-9.7C312,552.5,361.1,525.3,510.5,532.2z M383.6,476.5H42.1
		c1.3,12.5-12.3,17.2-29.8,22.9h0v21.7c15.4-0.6,30.3-7.9,46.1-15.7c16.2-8,34.5-17.1,56.6-20.3c55.4-8,103-1,144.9,5.2
		C311.3,497.9,352.2,503.9,383.6,476.5z M12.3,497.1c15.9-5.2,27.1-9.5,25.9-20.6H12.3V497.1z"/>
	<path class="st2" d="M510.6,476.5v12.6h0c-10.6-0.1-17.5-1.6-19.9-4.3c-2.4-2.8,0.5-6.2,4.3-8.4H510.6z"/>
	<path class="st3" d="M510.6,505.6v11.9c-141.6-6.1-187.5,11.4-228.1,26.8c-18,6.8-34.9,13.3-58.7,16.9
		c-48.4,7.4-109.8,3.8-154.7,1.2c-25.4-1.5-45.8-2.7-56.7-1.5v-38c16.9-0.6,32.4-8.1,48.8-16.2C77.7,498.5,94.9,490,116,487
		c54.3-7.9,101.3-0.9,142.7,5.2c53.8,7.9,96.3,14.2,129.3-15.7h43.7c-5.3,3.8-13.7,10.7-7.4,16.9
		C432.4,501.2,461.4,505.4,510.6,505.6z M276.5,521.5c0.7-5.8-11.5-10.9-36.3-15.4c-23.2-4.2-45.6-6.3-66.6-6.3
		c-62.3,0-96.6,18.1-98.2,36.1c-0.5,5.2,2.2,9.3,7.9,12.2c7.2,3.7,19.4,5.6,36.2,5.6c21.1,0,45.1-2.9,59.4-4.7
		c2.6-0.3,4.8-0.6,6.7-0.8C200.2,546.6,274.9,535.2,276.5,521.5z"/>
	<path class="st4" d="M510.6,491v12.7c-59.2-0.3-77.7-6.2-82.7-11.2c-5.3-5.3,1.7-11.3,8.7-16h53.5c-3.6,2.6-5.7,6.1-3,9.1
		C489.3,488,495.1,490.9,510.6,491z"/>
	<polygon points="510.6,551.4 510.5,551.4 510.5,551.4 	"/>
	<path class="st5" d="M510.5,569.6v10.6h-89c-1.4-1.3-0.7-3.1,2.1-4.9C432.8,569.2,464.4,562.4,510.5,569.6z"/>
	<path class="st2" d="M510.5,553.4v14.2c-47.8-7.3-80-0.2-90,6.5c-3.2,2.1-4.2,4.2-3.2,6.1h-68.5c-0.9-2.9,2.9-6.7,10.9-10.7
		C382.4,558.2,443.3,543.9,510.5,553.4z"/>
	<path class="st4" d="M510.5,534.1v17.3c-68.5-9.5-130.3,5.2-153.5,16.8c-8.7,4.4-12.9,8.6-12.1,12h-78.6c5.3-2.5,10.5-5.4,16.1-8.5
		C316.3,553,362.9,527.2,510.5,534.1z"/>
	<path class="st6" d="M510.5,519.4v12.8c-149.4-6.9-198.5,20.3-231,38.3c-6.5,3.6-12.7,7-18.9,9.7H12.3v-17.3
		c9.9-1.3,30.4-0.1,56.3,1.4c25.1,1.5,55.3,3.2,85.7,3.2c24.3,0,48.8-1.1,70.6-4.5c24.5-3.7,41.7-10.3,60-17.2
		C324.8,530.6,370.2,513.4,510.5,519.4z"/>
	<path class="st4" d="M42.1,476.5h341.5c-31.4,27.4-72.2,21.4-123.7,13.8c-41.9-6.2-89.5-13.2-144.9-5.2
		c-22.1,3.2-40.4,12.3-56.6,20.3c-15.8,7.8-30.7,15.1-46.1,15.7v-21.7h0C29.8,493.7,43.4,489,42.1,476.5z"/>
	<path d="M240.2,506.1c24.8,4.5,37,9.6,36.3,15.4c-1.7,13.6-76.3,25-91,26.7c-1.9,0.2-4.1,0.5-6.7,0.8c-14.3,1.8-38.2,4.7-59.4,4.7
		c-16.8,0-29-1.9-36.2-5.6c-5.7-3-8.4-7.1-7.9-12.2c1.6-17.9,35.8-36.1,98.2-36.1C194.5,499.9,217,502,240.2,506.1z M272.7,521.4
		c0.6-4.8-10.8-9.4-33.8-13.5c-22.8-4.1-44.8-6.2-65.3-6.2c-59.9,0-92.8,17.2-94.3,34.2c-0.4,4.6,1.9,8.2,6.9,10.8
		c6.5,3.3,17.7,5,33.4,5c20.7,0,44.3-2.9,58.5-4.6c2.6-0.3,4.8-0.6,6.7-0.8C203.7,544.2,271.3,532.9,272.7,521.4z"/>
	<path class="st4" d="M238.9,507.9c23,4.1,34.4,8.7,33.8,13.5c-1.4,11.5-69,22.8-88,25c-1.9,0.2-4.1,0.5-6.7,0.8
		c-14.1,1.7-37.8,4.6-58.5,4.6c-15.7,0-26.9-1.7-33.4-5c-5-2.6-7.3-6.2-6.9-10.8c1.5-17,34.4-34.2,94.3-34.2
		C194.1,501.8,216.1,503.9,238.9,507.9z M201.5,525.9c0.1-4.7-6.3-9.4-15.9-11.7c-2.5-0.6-5.6-0.9-9.1-0.9
		c-13.4,0-32.8,4.6-42.4,10.1c-4.3,2.4-6.2,4.8-5.6,6.9c1.5,5.4,10.6,8.4,25.6,8.4c12.6,0,27-2.1,35.7-4.1
		C197.2,532.8,201.4,529.6,201.5,525.9z"/>
	<path d="M185.6,514.1c9.6,2.3,15.9,7,15.9,11.7c-0.1,3.8-4.3,6.9-11.6,8.6c-8.7,2-23.1,4.1-35.7,4.1c-15,0-24.1-3-25.6-8.4
		c-0.6-2.1,1.4-4.5,5.6-6.9c9.6-5.5,29-10.1,42.4-10.1C180,513.2,183.1,513.5,185.6,514.1z M197.6,525.8c0.1-4-5.4-8-13.7-10
		c-2-0.5-4.5-0.7-7.4-0.7c-12.4,0-30.5,4.3-39.5,9.4c-3.5,2-5.1,3.9-4.7,5.4c1.3,4.5,8.6,6.8,21.8,6.8c12,0,25.8-2,34.1-3.9
		C194.2,531.4,197.6,528.9,197.6,525.8z"/>
	<path class="st2" d="M183.9,515.8c8.2,2,13.8,6,13.7,10c0,3-3.4,5.5-9.4,6.9c-8.3,2-22.1,3.9-34.1,3.9c-13.2,0-20.6-2.3-21.8-6.8
		c-0.4-1.5,1.2-3.4,4.7-5.4c9-5.1,27.1-9.4,39.5-9.4C179.4,515.1,181.9,515.4,183.9,515.8z"/>
	<path class="st7" d="M38.2,476.5c1.2,11-10,15.4-25.9,20.6v-20.6H38.2z"/>
	<path class="st8" d="M512.5,474.6H10.4c-1.1,0-1.9,0.4-1.9,1v105.7c0,0.5,0.9,1,1.9,1h502.1c1.1,0,1.9-0.4,1.9-1V475.5
		C514.4,475,513.6,474.6,512.5,474.6z"/>
	<path class="st8" d="M417.4,580.3h-68.5c-0.9-2.9,2.9-6.7,10.9-10.7c22.7-11.4,83.5-25.7,150.8-16.2v14.2c-47.8-7.3-80-0.2-90,6.5
		C417.3,576.3,416.3,578.4,417.4,580.3z"/>
	<path class="st8" d="M12.3,499.4c17.5-5.6,31.1-10.3,29.8-22.9h341.5c-31.4,27.4-72.2,21.4-123.7,13.8
		c-41.9-6.2-89.5-13.2-144.9-5.2c-22.1,3.2-40.4,12.3-56.6,20.3c-15.8,7.8-30.7,15.1-46.1,15.7L12.3,499.4L12.3,499.4z"/>
	<path class="st8" d="M12.3,523c16.9-0.6,32.4-8.1,48.8-16.2C77.7,498.5,94.9,490,116,487c54.3-7.9,101.3-0.9,142.7,5.2
		c53.8,7.9,96.3,14.2,129.3-15.7h43.7c-5.3,3.8-13.7,10.7-7.4,16.9c8,7.9,37,12,86.2,12.2v11.9c-141.6-6.1-187.5,11.4-228.1,26.8
		c-18,6.8-34.9,13.3-58.7,16.9c-48.4,7.4-109.8,3.8-154.7,1.2c-25.4-1.5-45.8-2.7-56.7-1.5V523z"/>
	<line class="st8" x1="12.3" y1="523" x2="12.3" y2="523"/>
	<path class="st8" d="M490.1,476.5c-3.6,2.6-5.7,6.1-3,9.1c2.1,2.4,8,5.2,23.4,5.4v12.7c-59.2-0.3-77.7-6.2-82.7-11.2
		c-5.3-5.3,1.7-11.3,8.7-16H490.1z"/>
	<path class="st8" d="M510.5,551.4c-68.5-9.5-130.3,5.2-153.5,16.8c-8.7,4.4-12.9,8.6-12.1,12h-78.6c5.3-2.5,10.5-5.4,16.1-8.5
		c34-18.8,80.5-44.6,228.2-37.7V551.4z"/>
	<polygon class="st8" points="510.5,551.4 510.5,551.4 510.6,551.4 	"/>
	<path class="st8" d="M510.6,489.1c-10.6-0.1-17.5-1.6-19.9-4.3c-2.4-2.8,0.5-6.2,4.3-8.4h15.6L510.6,489.1L510.6,489.1z"/>
	<path class="st8" d="M38.2,476.5c1.2,11-10,15.4-25.9,20.6v-20.6H38.2z"/>
	<path class="st8" d="M12.3,562.9c9.9-1.3,30.4-0.1,56.3,1.4c25.1,1.5,55.3,3.2,85.7,3.2c24.3,0,48.8-1.1,70.6-4.5
		c24.5-3.7,41.7-10.3,60-17.2c40-15.2,85.3-32.5,225.7-26.4v12.8c-149.4-6.9-198.5,20.3-231,38.3c-6.5,3.6-12.7,7-18.9,9.7H12.3
		V562.9z"/>
	<path class="st8" d="M421.5,580.3c-1.4-1.3-0.7-3.1,2.1-4.9c9.1-6.1,40.8-12.9,86.9-5.7v10.6H421.5z"/>
	<path class="st8" d="M119.5,553.8c21.1,0,45.1-2.9,59.4-4.7c2.6-0.3,4.8-0.6,6.7-0.8c14.6-1.7,89.3-13.1,91-26.7
		c0.7-5.8-11.5-10.9-36.3-15.4c-23.2-4.2-45.6-6.3-66.6-6.3c-62.3,0-96.6,18.1-98.2,36.1c-0.5,5.2,2.2,9.3,7.9,12.2
		C90.5,551.9,102.7,553.8,119.5,553.8z"/>
	<path class="st8" d="M173.5,501.8c20.6,0,42.5,2.1,65.3,6.2c23,4.1,34.4,8.7,33.8,13.5c-1.4,11.5-69,22.8-88,25
		c-1.9,0.2-4.1,0.5-6.7,0.8c-14.1,1.7-37.8,4.6-58.5,4.6c-15.7,0-26.9-1.7-33.4-5c-5-2.6-7.3-6.2-6.9-10.8
		C80.8,519,113.6,501.8,173.5,501.8z"/>
	<path class="st8" d="M154.1,538.6c12.6,0,27-2.1,35.7-4.1c7.4-1.7,11.6-4.9,11.6-8.6c0.1-4.7-6.3-9.4-15.9-11.7
		c-2.5-0.6-5.6-0.9-9.1-0.9c-13.4,0-32.8,4.6-42.4,10.1c-4.3,2.4-6.2,4.8-5.6,6.9C130,535.6,139.1,538.6,154.1,538.6z"/>
	<path class="st8" d="M137,524.5c9-5.1,27.1-9.4,39.5-9.4c2.9,0,5.4,0.2,7.4,0.7c8.2,2,13.8,6,13.7,10c0,3-3.4,5.5-9.4,6.9
		c-8.3,2-22.1,3.9-34.1,3.9c-13.2,0-20.6-2.3-21.8-6.8C131.8,528.4,133.5,526.5,137,524.5z"/>
	<path d="M12,623.2v17.3c147.6,6.9,194.2-18.8,228.2-37.7c5.5-3.1,10.8-6,16.1-8.5h-78.6c0.8,3.4-3.4,7.7-12.1,12
		C142.4,618,80.5,632.6,12,623.2z M510.2,651.6v-38c-11,1.2-31.3,0-56.7-1.5c-44.9-2.6-106.4-6.2-154.7,1.2
		c-23.8,3.6-40.8,10.1-58.7,16.9c-40.5,15.4-86.4,32.9-228.1,26.8V669c49.2,0.3,78.2,4.4,86.1,12.2c6.3,6.2-2,13.1-7.4,16.9h43.7
		c33-29.8,75.5-23.6,129.3-15.7c41.4,6.1,88.4,13.1,142.7,5.2c21.1-3.1,38.3-11.6,54.9-19.8C477.8,659.8,493.3,652.2,510.2,651.6z
		 M8.1,699.1V593.4c0-0.5,0.9-1,1.9-1h502.1c1.1,0,1.9,0.4,1.9,1v105.7c0,0.5-0.9,1-1.9,1H10.1C9,700,8.1,699.6,8.1,699.1z
		 M12,685.5v12.6h15.6c3.9-2.2,6.8-5.6,4.3-8.4C29.5,687.1,22.6,685.6,12,685.5L12,685.5z M12,670.9v12.7c15.4,0.2,21.3,3,23.4,5.4
		c2.7,3,0.6,6.5-3,9.1H86c7-4.7,14.1-10.8,8.7-16C89.7,677.1,71.2,671.2,12,670.9z M12,594.4V605c46.2,7.2,77.8,0.4,86.9-5.7
		c2.8-1.9,3.4-3.6,2.1-4.9H12z M12,607v14.2c67.2,9.5,128.1-4.8,150.8-16.2c8-4,11.9-7.8,10.9-10.7h-68.5c1.1,1.8,0,4-3.2,6.1
		C92,607.2,59.8,614.3,12,607z M12,642.4v12.8c140.4,6,185.7-11.2,225.7-26.4c18.2-6.9,35.5-13.5,60-17.2
		c21.9-3.3,46.3-4.5,70.6-4.5c30.3,0,60.6,1.8,85.7,3.2c25.9,1.5,46.4,2.7,56.3,1.4v-17.3H261.9c-6.2,2.7-12.3,6.1-18.9,9.7
		C210.5,622.1,161.4,649.3,12,642.4z M139,698.1h341.5c-1.3-12.5,12.3-17.2,29.8-22.9h0v-21.7c-15.4,0.6-30.3,7.9-46.1,15.7
		c-16.2,8-34.5,17.1-56.6,20.3c-55.4,8-103,1-144.9-5.2C211.2,676.7,170.4,670.7,139,698.1z M510.3,677.5
		c-15.9,5.2-27.1,9.5-25.9,20.6h25.9V677.5z"/>
	<path class="st2" d="M12,698.1v-12.6h0c10.6,0.1,17.5,1.6,19.9,4.3c2.4,2.8-0.5,6.2-4.3,8.4H12z"/>
	<path class="st3" d="M12,669v-11.9c141.6,6.1,187.5-11.4,228.1-26.8c18-6.8,34.9-13.3,58.7-16.9c48.4-7.4,109.8-3.8,154.7-1.2
		c25.4,1.5,45.8,2.7,56.7,1.5v38c-16.9,0.6-32.4,8.1-48.8,16.2c-16.6,8.2-33.8,16.7-54.9,19.8c-54.3,7.9-101.3,0.9-142.7-5.2
		c-53.8-7.9-96.3-14.2-129.3,15.7H90.8c5.3-3.8,13.7-10.7,7.4-16.9C90.2,673.4,61.2,669.3,12,669z M246.1,653.1
		c-0.7,5.8,11.5,10.9,36.3,15.4c23.2,4.2,45.6,6.3,66.6,6.3c62.3,0,96.6-18.1,98.2-36.1c0.5-5.2-2.2-9.3-7.9-12.2
		c-7.2-3.7-19.4-5.6-36.2-5.6c-21.1,0-45.1,2.9-59.4,4.7c-2.6,0.3-4.8,0.6-6.7,0.8C322.4,628,247.7,639.5,246.1,653.1z"/>
	<path class="st4" d="M12,683.6v-12.7c59.2,0.3,77.7,6.2,82.7,11.2c5.3,5.3-1.7,11.3-8.7,16H32.4c3.6-2.6,5.7-6.1,3-9.1
		C33.3,686.6,27.4,683.8,12,683.6z"/>
	<path class="st5" d="M12,605v-10.6h89c1.4,1.3,0.7,3.1-2.1,4.9C89.8,605.4,58.2,612.2,12,605z"/>
	<path class="st2" d="M12,621.2V607c47.8,7.3,80,0.2,90-6.5c3.2-2.1,4.2-4.2,3.2-6.1h68.5c0.9,2.9-2.9,6.7-10.9,10.7
		C140.1,616.4,79.2,630.7,12,621.2z"/>
	<path class="st4" d="M12,640.5v-17.3c68.4,9.5,130.3-5.2,153.5-16.8c8.7-4.4,12.9-8.6,12.1-12h78.6c-5.3,2.5-10.5,5.4-16.1,8.5
		C206.2,621.7,159.6,647.4,12,640.5z"/>
	<path class="st6" d="M12,655.2v-12.8c149.4,6.9,198.5-20.3,231-38.3c6.5-3.6,12.7-7,18.9-9.7h248.3v17.3
		c-9.9,1.3-30.4,0.1-56.3-1.4c-25.1-1.5-55.3-3.2-85.7-3.2c-24.3,0-48.8,1.1-70.6,4.5c-24.5,3.7-41.7,10.3-60,17.2
		C197.7,644,152.4,661.2,12,655.2z"/>
	<path class="st4" d="M480.5,698.1H139c31.4-27.4,72.2-21.4,123.7-13.8c42,6.2,89.5,13.2,144.9,5.2c22.1-3.2,40.4-12.3,56.6-20.3
		c15.8-7.8,30.7-15.1,46.1-15.7v21.7h0C492.8,680.9,479.2,685.6,480.5,698.1z"/>
	<path d="M282.4,668.5c-24.8-4.5-37-9.6-36.3-15.4c1.7-13.6,76.3-25,91-26.7c1.9-0.2,4.1-0.5,6.7-0.8c14.3-1.8,38.2-4.7,59.4-4.7
		c16.8,0,29,1.9,36.2,5.6c5.7,3,8.4,7.1,7.9,12.2c-1.6,17.9-35.8,36.1-98.2,36.1C328,674.7,305.6,672.6,282.4,668.5z M249.9,653.2
		c-0.6,4.8,10.8,9.4,33.8,13.5c22.8,4.1,44.8,6.2,65.3,6.2c59.9,0,92.8-17.2,94.3-34.2c0.4-4.6-1.9-8.2-6.9-10.8
		c-6.5-3.3-17.7-5-33.4-5c-20.7,0-44.3,2.9-58.5,4.6c-2.6,0.3-4.8,0.6-6.7,0.8C318.9,630.4,251.3,641.7,249.9,653.2z"/>
	<path class="st4" d="M283.7,666.7c-23-4.1-34.4-8.7-33.8-13.5c1.4-11.5,69-22.8,88-25c1.9-0.2,4.1-0.5,6.7-0.8
		c14.1-1.7,37.8-4.6,58.5-4.6c15.7,0,26.9,1.7,33.4,5c5,2.6,7.3,6.2,6.9,10.8c-1.5,17-34.4,34.2-94.3,34.2
		C328.5,672.8,306.5,670.8,283.7,666.7z M321.1,648.8c-0.1,4.7,6.3,9.4,15.9,11.7c2.5,0.6,5.6,0.9,9.1,0.9
		c13.4,0,32.8-4.6,42.4-10.1c4.3-2.4,6.2-4.8,5.6-6.9c-1.5-5.4-10.6-8.4-25.6-8.4c-12.6,0-27,2.1-35.7,4.1
		C325.4,641.8,321.2,645,321.1,648.8z"/>
	<path d="M336.9,660.5c-9.6-2.3-15.9-7-15.9-11.7c0.1-3.8,4.3-6.9,11.6-8.6c8.7-2,23.1-4.1,35.7-4.1c15,0,24.1,3,25.6,8.4
		c0.6,2.1-1.4,4.5-5.6,6.9c-9.6,5.5-29,10.1-42.4,10.1C342.5,661.4,339.5,661.1,336.9,660.5z M325,648.8c-0.1,4,5.4,8,13.7,10
		c2,0.5,4.5,0.7,7.4,0.7c12.4,0,30.5-4.3,39.5-9.4c3.5-2,5.1-3.9,4.7-5.4c-1.3-4.5-8.6-6.8-21.8-6.8c-12,0-25.8,2-34.1,3.9
		C328.4,643.3,325,645.7,325,648.8z"/>
	<path class="st2" d="M338.7,658.8c-8.2-2-13.8-6-13.7-10c0-3,3.4-5.5,9.4-6.9c8.3-2,22.1-3.9,34.1-3.9c13.2,0,20.6,2.3,21.8,6.8
		c0.4,1.5-1.2,3.4-4.7,5.4c-9,5.1-27.1,9.4-39.5,9.4C343.1,659.5,340.6,659.2,338.7,658.8z"/>
	<path class="st7" d="M484.3,698.1c-1.2-11,10-15.4,25.9-20.6v20.6H484.3z"/>
	<path class="st8" d="M10.1,700h502.1c1.1,0,1.9-0.4,1.9-1V593.4c0-0.5-0.9-1-1.9-1H10.1c-1.1,0-1.9,0.4-1.9,1v105.7
		C8.1,699.6,9,700,10.1,700z"/>
	<path class="st8" d="M105.2,594.4h68.5c0.9,2.9-2.9,6.7-10.9,10.7c-22.7,11.4-83.5,25.7-150.8,16.2V607c47.8,7.3,80,0.2,90-6.5
		C105.2,598.3,106.3,596.2,105.2,594.4z"/>
	<path class="st8" d="M510.3,675.2c-17.4,5.6-31.1,10.3-29.8,22.9H139c31.4-27.4,72.2-21.4,123.7-13.8c42,6.2,89.5,13.2,144.9,5.2
		c22.1-3.2,40.4-12.3,56.6-20.3c15.8-7.8,30.7-15.1,46.1-15.7L510.3,675.2L510.3,675.2z"/>
	<path class="st8" d="M510.2,651.6c-16.9,0.6-32.4,8.1-48.8,16.2c-16.6,8.2-33.8,16.7-54.9,19.8c-54.3,7.9-101.3,0.9-142.7-5.2
		c-53.8-7.9-96.3-14.2-129.3,15.7H90.8c5.3-3.8,13.7-10.7,7.4-16.9c-8-7.9-37-12-86.1-12.2v-11.9c141.6,6.1,187.5-11.4,228.1-26.8
		c18-6.8,34.9-13.3,58.7-16.9c48.4-7.4,109.8-3.8,154.7-1.2c25.4,1.5,45.8,2.7,56.7,1.5V651.6z"/>
	<line class="st8" x1="510.2" y1="651.6" x2="510.3" y2="651.6"/>
	<path class="st8" d="M32.4,698.1c3.6-2.6,5.7-6.1,3-9.1c-2.1-2.4-8-5.2-23.4-5.4v-12.7c59.2,0.3,77.7,6.2,82.7,11.2
		c5.3,5.3-1.7,11.3-8.7,16H32.4z"/>
	<path class="st8" d="M12,623.2c68.4,9.5,130.3-5.2,153.5-16.8c8.7-4.4,12.9-8.6,12.1-12h78.6c-5.3,2.5-10.5,5.4-16.1,8.5
		c-34,18.8-80.5,44.6-228.2,37.7V623.2z"/>
	<polyline class="st8" points="12,623.2 12,623.2 12,623.2 	"/>
	<path class="st8" d="M12,685.5c10.6,0.1,17.5,1.6,19.9,4.3c2.4,2.8-0.5,6.2-4.3,8.4H12L12,685.5L12,685.5z"/>
	<path class="st8" d="M484.3,698.1c-1.2-11,10-15.4,25.9-20.6v20.6H484.3z"/>
	<path class="st8" d="M510.3,611.7c-9.9,1.3-30.4,0.1-56.3-1.4c-25.1-1.5-55.3-3.2-85.7-3.2c-24.3,0-48.8,1.1-70.6,4.5
		c-24.5,3.7-41.7,10.3-60,17.2c-40,15.2-85.3,32.5-225.7,26.4v-12.8c149.4,6.9,198.5-20.3,231-38.3c6.5-3.6,12.7-7,18.9-9.7h248.3
		V611.7z"/>
	<path class="st8" d="M101,594.4c1.4,1.3,0.7,3.1-2.1,4.9c-9.1,6.1-40.8,12.9-86.9,5.7v-10.6H101z"/>
	<path class="st8" d="M403.1,620.9c-21.1,0-45.1,2.9-59.4,4.7c-2.6,0.3-4.8,0.6-6.7,0.8c-14.6,1.7-89.3,13.1-91,26.7
		c-0.7,5.8,11.5,10.9,36.3,15.4c23.2,4.2,45.6,6.3,66.6,6.3c62.3,0,96.6-18.1,98.2-36.1c0.5-5.2-2.2-9.3-7.9-12.2
		C432,622.7,419.9,620.9,403.1,620.9z"/>
	<path class="st8" d="M349,672.8c-20.6,0-42.5-2.1-65.3-6.2c-23-4.1-34.4-8.7-33.8-13.5c1.4-11.5,69-22.8,88-25
		c1.9-0.2,4.1-0.5,6.7-0.8c14.1-1.7,37.8-4.6,58.5-4.6c15.7,0,26.9,1.7,33.4,5c5,2.6,7.3,6.2,6.9,10.8
		C441.8,655.6,408.9,672.8,349,672.8z"/>
	<path class="st8" d="M368.5,636c-12.6,0-27,2.1-35.7,4.1c-7.4,1.7-11.6,4.9-11.6,8.6c-0.1,4.7,6.3,9.4,15.9,11.7
		c2.5,0.6,5.6,0.9,9.1,0.9c13.4,0,32.8-4.6,42.4-10.1c4.3-2.4,6.2-4.8,5.6-6.9C392.6,639,383.5,636,368.5,636z"/>
	<path class="st8" d="M385.6,650.1c-9,5.1-27.1,9.4-39.5,9.4c-2.9,0-5.4-0.2-7.4-0.7c-8.2-2-13.8-6-13.7-10c0-3,3.4-5.5,9.4-6.9
		c8.3-2,22.1-3.9,34.1-3.9c13.2,0,20.6,2.3,21.8,6.8C390.7,646.2,389.1,648.1,385.6,650.1z"/>
	<path d="M11.7,758.7v38c11-1.2,31.3,0,56.7,1.5c44.9,2.6,106.4,6.2,154.7-1.2c23.8-3.6,40.8-10.1,58.7-16.9
		c40.5-15.4,86.4-32.9,228.1-26.8v-11.9c-49.2-0.3-78.2-4.4-86.2-12.2c-6.3-6.2,2-13.1,7.4-16.9h-43.7
		c-33,29.8-75.5,23.6-129.3,15.7c-41.4-6.1-88.4-13.1-142.7-5.2c-21.1,3.1-38.3,11.6-54.9,19.8C44.1,750.6,28.6,758.2,11.7,758.7z
		 M513.8,711.3v105.7c0,0.5-0.9,1-1.9,1H9.8c-1.1,0-1.9-0.4-1.9-1V711.3c0-0.5,0.9-1,1.9-1h502.1
		C512.9,710.3,513.8,710.7,513.8,711.3z M510,724.9v-12.6h-15.6c-3.9,2.2-6.8,5.6-4.3,8.4C492.4,723.3,499.3,724.7,510,724.9
		L510,724.9z M509.9,739.4v-12.7c-15.4-0.2-21.3-3-23.4-5.4c-2.7-3-0.6-6.5,3-9.1H436c-7,4.7-14.1,10.8-8.7,16
		C432.3,733.2,450.8,739.1,509.9,739.4z M509.9,787.2L509.9,787.2L509.9,787.2v-17.3c-147.6-6.9-194.2,18.8-228.2,37.7
		c-5.5,3.1-10.8,6-16.1,8.5h78.6c-0.8-3.4,3.4-7.7,12.1-12C379.6,792.3,441.5,777.7,509.9,787.2L509.9,787.2z M509.9,816v-10.6
		c-46.2-7.2-77.8-0.4-86.9,5.7c-2.8,1.9-3.4,3.6-2.1,4.9H509.9z M509.9,803.4v-14.2c-67.2-9.5-128.1,4.8-150.8,16.2
		c-8,4-11.9,7.8-10.9,10.7h68.5c-1.1-1.8,0-4,3.2-6.1C430,803.2,462.1,796,509.9,803.4z M509.9,767.9v-12.8
		c-140.4-6-185.7,11.2-225.7,26.4c-18.2,6.9-35.5,13.5-60,17.2c-21.9,3.3-46.3,4.5-70.6,4.5c-30.3,0-60.6-1.8-85.7-3.2
		c-25.9-1.5-46.4-2.7-56.3-1.4V816H260c6.2-2.7,12.3-6.1,18.9-9.7C311.4,788.2,360.5,761,509.9,767.9z M383,712.2H41.5
		c1.3,12.5-12.3,17.2-29.8,22.9h0v21.7c15.4-0.6,30.3-7.9,46.1-15.7c16.2-8,34.5-17.1,56.6-20.3c55.4-8,103-1,144.9,5.2
		C310.7,733.6,351.6,739.6,383,712.2z M11.7,732.8c15.9-5.2,27.1-9.5,25.9-20.6H11.7V732.8z"/>
	<path class="st2" d="M510,712.2v12.6h0c-10.6-0.1-17.5-1.6-19.9-4.3c-2.4-2.8,0.5-6.2,4.3-8.4H510z"/>
	<path class="st3" d="M509.9,741.3v11.9c-141.6-6.1-187.5,11.4-228.1,26.8c-18,6.8-34.9,13.3-58.7,16.9
		c-48.4,7.4-109.8,3.8-154.7,1.2c-25.4-1.5-45.8-2.7-56.7-1.5v-38c16.9-0.6,32.4-8.1,48.8-16.2c16.6-8.2,33.8-16.7,54.9-19.8
		c54.3-7.9,101.3-0.9,142.7,5.2c53.8,7.9,96.3,14.2,129.3-15.7h43.7c-5.3,3.8-13.7,10.7-7.4,16.9C431.8,737,460.8,741.1,509.9,741.3
		z M275.9,757.3c0.7-5.8-11.5-10.9-36.3-15.4c-23.2-4.2-45.6-6.3-66.6-6.3c-62.3,0-96.6,18.1-98.2,36.1c-0.5,5.2,2.2,9.3,7.9,12.2
		c7.2,3.7,19.4,5.6,36.2,5.6c21.1,0,45.1-2.9,59.4-4.7c2.6-0.3,4.8-0.6,6.7-0.8C199.6,782.3,274.2,770.9,275.9,757.3z"/>
	<path class="st4" d="M509.9,726.8v12.7c-59.2-0.3-77.7-6.2-82.7-11.2c-5.3-5.3,1.7-11.3,8.7-16h53.5c-3.6,2.6-5.7,6.1-3,9.1
		C488.6,723.8,494.5,726.6,509.9,726.8z"/>
	<polygon points="509.9,787.2 509.9,787.2 509.9,787.2 	"/>
	<path class="st5" d="M509.9,805.3V816h-89c-1.4-1.3-0.7-3.1,2.1-4.9C432.1,804.9,463.8,798.1,509.9,805.3z"/>
	<path class="st2" d="M509.9,789.1v14.2c-47.8-7.3-80-0.2-90,6.5c-3.2,2.1-4.2,4.2-3.2,6.1h-68.5c-0.9-2.9,2.9-6.7,10.9-10.7
		C381.8,793.9,442.7,779.6,509.9,789.1z"/>
	<path class="st4" d="M509.9,769.8v17.3c-68.5-9.5-130.3,5.2-153.5,16.8c-8.7,4.4-12.9,8.6-12.1,12h-78.6c5.3-2.5,10.5-5.4,16.1-8.5
		C315.7,788.7,362.3,762.9,509.9,769.8z"/>
	<path class="st6" d="M509.9,755.2v12.8c-149.4-6.9-198.5,20.3-231,38.3c-6.5,3.6-12.7,7-18.9,9.7H11.7v-17.3
		c9.9-1.3,30.4-0.1,56.3,1.4c25.1,1.5,55.3,3.2,85.7,3.2c24.3,0,48.8-1.1,70.6-4.5c24.5-3.7,41.7-10.3,60-17.2
		C324.2,766.4,369.5,749.1,509.9,755.2z"/>
	<path class="st4" d="M41.5,712.2H383c-31.4,27.4-72.2,21.4-123.7,13.8c-42-6.2-89.5-13.2-144.9-5.2c-22.1,3.2-40.4,12.3-56.6,20.3
		c-15.8,7.8-30.7,15.1-46.1,15.7v-21.7h0C29.1,729.5,42.8,724.8,41.5,712.2z"/>
	<path d="M239.6,741.9c24.8,4.5,37,9.6,36.3,15.4c-1.7,13.6-76.3,25-91,26.7c-1.9,0.2-4.1,0.5-6.7,0.8c-14.3,1.8-38.2,4.7-59.4,4.7
		c-16.8,0-29-1.9-36.2-5.6c-5.7-3-8.4-7.1-7.9-12.2c1.6-17.9,35.8-36.1,98.2-36.1C193.9,735.6,216.4,737.7,239.6,741.9z
		 M272.1,757.1c0.6-4.8-10.8-9.4-33.8-13.5c-22.8-4.1-44.8-6.2-65.3-6.2c-59.9,0-92.8,17.2-94.3,34.2c-0.4,4.6,1.9,8.3,6.9,10.8
		c6.5,3.3,17.7,5,33.4,5c20.7,0,44.3-2.9,58.5-4.6c2.6-0.3,4.8-0.6,6.7-0.8C203.1,779.9,270.7,768.6,272.1,757.1z"/>
	<path class="st4" d="M238.2,743.7c23,4.1,34.4,8.7,33.8,13.5c-1.4,11.5-69,22.8-88,25c-1.9,0.2-4.1,0.5-6.7,0.8
		c-14.1,1.7-37.8,4.6-58.5,4.6c-15.7,0-26.9-1.7-33.4-5c-5-2.6-7.3-6.2-6.9-10.8c1.5-17,34.4-34.2,94.3-34.2
		C193.5,737.5,215.5,739.6,238.2,743.7z M200.9,761.6c0.1-4.7-6.3-9.4-15.9-11.7c-2.5-0.6-5.6-0.9-9.1-0.9
		c-13.4,0-32.8,4.6-42.4,10.1c-4.3,2.4-6.2,4.8-5.6,6.9c1.5,5.4,10.6,8.4,25.6,8.4c12.6,0,27-2.1,35.7-4.1
		C196.6,768.5,200.8,765.3,200.9,761.6z"/>
	<path d="M185,749.9c9.6,2.3,15.9,7,15.9,11.7c-0.1,3.8-4.3,6.9-11.6,8.6c-8.7,2-23.1,4.1-35.7,4.1c-15,0-24.1-3-25.6-8.4
		c-0.6-2.1,1.4-4.5,5.6-6.9c9.6-5.5,29-10.1,42.4-10.1C179.4,748.9,182.5,749.3,185,749.9z M197,761.6c0.1-4-5.4-8-13.7-10
		c-2-0.5-4.5-0.7-7.4-0.7c-12.4,0-30.5,4.3-39.5,9.4c-3.5,2-5.1,3.9-4.7,5.4c1.3,4.5,8.6,6.8,21.8,6.8c12,0,25.8-2,34.1-3.9
		C193.6,767.1,197,764.6,197,761.6z"/>
	<path class="st2" d="M183.3,751.6c8.2,2,13.8,6,13.7,10c0,3-3.4,5.5-9.4,6.9c-8.3,1.9-22.1,3.9-34.1,3.9c-13.2,0-20.6-2.3-21.8-6.8
		c-0.4-1.5,1.2-3.4,4.7-5.4c9-5.1,27.1-9.4,39.5-9.4C178.8,750.8,181.3,751.1,183.3,751.6z"/>
	<path class="st7" d="M37.6,712.2c1.2,11-10,15.4-25.9,20.6v-20.6H37.6z"/>
	<path class="st8" d="M511.9,710.3H9.8c-1.1,0-1.9,0.4-1.9,1v105.7c0,0.5,0.9,1,1.9,1h502.1c1.1,0,1.9-0.4,1.9-1V711.3
		C513.8,710.7,512.9,710.3,511.9,710.3z"/>
	<path class="st8" d="M416.7,816h-68.5c-0.9-2.9,2.9-6.7,10.9-10.7c22.7-11.4,83.5-25.7,150.8-16.2v14.2c-47.8-7.3-80-0.2-90,6.5
		C416.7,812,415.7,814.2,416.7,816z"/>
	<path class="st8" d="M11.7,735.1c17.5-5.6,31.1-10.3,29.8-22.9H383c-31.4,27.4-72.2,21.4-123.7,13.8c-42-6.2-89.5-13.2-144.9-5.2
		c-22.1,3.2-40.4,12.3-56.6,20.3c-15.8,7.8-30.7,15.1-46.1,15.7L11.7,735.1L11.7,735.1z"/>
	<path class="st8" d="M11.7,758.7c16.9-0.6,32.4-8.1,48.8-16.2c16.6-8.2,33.8-16.7,54.9-19.8c54.3-7.9,101.3-0.9,142.7,5.2
		c53.8,7.9,96.3,14.2,129.3-15.7h43.7c-5.3,3.8-13.7,10.7-7.4,16.9c8,7.9,37,12,86.2,12.2v11.9c-141.6-6.1-187.5,11.4-228.1,26.8
		c-18,6.8-34.9,13.3-58.7,16.9c-48.4,7.4-109.8,3.8-154.7,1.2c-25.4-1.5-45.8-2.7-56.7-1.5V758.7z"/>
	<line class="st8" x1="11.7" y1="758.7" x2="11.7" y2="758.7"/>
	<path class="st8" d="M489.5,712.2c-3.6,2.6-5.7,6.1-3,9.1c2.1,2.4,8,5.2,23.4,5.4v12.7c-59.2-0.3-77.7-6.2-82.7-11.2
		c-5.3-5.3,1.7-11.3,8.7-16H489.5z"/>
	<path class="st8" d="M509.9,787.2c-68.5-9.5-130.3,5.2-153.5,16.8c-8.7,4.4-12.9,8.6-12.1,12h-78.6c5.3-2.5,10.5-5.4,16.1-8.5
		c34-18.8,80.5-44.6,228.2-37.7V787.2z"/>
	<polygon class="st8" points="509.9,787.2 509.9,787.2 509.9,787.2 	"/>
	<path class="st8" d="M509.9,724.9c-10.6-0.1-17.5-1.6-19.9-4.3c-2.4-2.8,0.5-6.2,4.3-8.4H510L509.9,724.9L509.9,724.9z"/>
	<path class="st8" d="M37.6,712.2c1.2,11-10,15.4-25.9,20.6v-20.6H37.6z"/>
	<path class="st8" d="M11.7,798.7c9.9-1.3,30.4-0.1,56.3,1.4c25.1,1.5,55.3,3.2,85.7,3.2c24.3,0,48.8-1.1,70.6-4.5
		c24.5-3.7,41.7-10.3,60-17.2c40-15.2,85.3-32.5,225.7-26.4v12.8c-149.4-6.9-198.5,20.3-231,38.3c-6.5,3.6-12.7,7-18.9,9.7H11.7
		V798.7z"/>
	<path class="st8" d="M420.9,816c-1.4-1.3-0.7-3.1,2.1-4.9c9.1-6.1,40.8-12.9,86.9-5.7V816H420.9z"/>
	<path class="st8" d="M118.9,789.5c21.1,0,45.1-2.9,59.4-4.7c2.6-0.3,4.8-0.6,6.7-0.8c14.6-1.7,89.3-13.1,91-26.7
		c0.7-5.8-11.5-10.9-36.3-15.4c-23.2-4.2-45.6-6.3-66.6-6.3c-62.3,0-96.6,18.1-98.2,36.1c-0.5,5.2,2.2,9.3,7.9,12.2
		C89.9,787.6,102.1,789.5,118.9,789.5z"/>
	<path class="st8" d="M172.9,737.5c20.6,0,42.5,2.1,65.3,6.2c23,4.1,34.4,8.7,33.8,13.5c-1.4,11.5-69,22.8-88,25
		c-1.9,0.2-4.1,0.5-6.7,0.8c-14.1,1.7-37.8,4.6-58.5,4.6c-15.7,0-26.9-1.7-33.4-5c-5-2.6-7.3-6.2-6.9-10.8
		C80.1,754.7,113,737.5,172.9,737.5z"/>
	<path class="st8" d="M153.5,774.3c12.6,0,27-2.1,35.7-4.1c7.4-1.7,11.6-4.9,11.6-8.6c0.1-4.7-6.3-9.4-15.9-11.7
		c-2.5-0.6-5.6-0.9-9.1-0.9c-13.4,0-32.8,4.6-42.4,10.1c-4.3,2.4-6.2,4.8-5.6,6.9C129.4,771.3,138.5,774.3,153.5,774.3z"/>
	<path class="st8" d="M136.4,760.2c9-5.1,27.1-9.4,39.5-9.4c2.9,0,5.4,0.2,7.4,0.7c8.2,2,13.8,6,13.7,10c0,3-3.4,5.5-9.4,6.9
		c-8.3,1.9-22.1,3.9-34.1,3.9c-13.2,0-20.6-2.3-21.8-6.8C131.2,764.1,132.9,762.2,136.4,760.2z"/>
	<path class="st9" d="M514.6,120.1H8.9c-4,0-7.2-3.2-7.2-7.2c0-4,3.2-7.2,7.2-7.2h505.6c4,0,7.2,3.2,7.2,7.2
		C521.8,116.8,518.5,120.1,514.6,120.1z"/>
	<path class="st10" d="M514.6,120.1H8.9c-4,0-7.2-3.2-7.2-7.2c0-4,3.2-7.2,7.2-7.2h505.6c4,0,7.2,3.2,7.2,7.2
		C521.8,116.8,518.5,120.1,514.6,120.1z"/>
	<path class="st9" d="M514.6,240.8H8.9c-4,0-7.2-3.2-7.2-7.2s3.2-7.2,7.2-7.2h505.6c4,0,7.2,3.2,7.2,7.2S518.5,240.8,514.6,240.8z"
		/>
	<path class="st1" d="M514.6,240.8H8.9c-4,0-7.2-3.2-7.2-7.2s3.2-7.2,7.2-7.2h505.6c4,0,7.2,3.2,7.2,7.2S518.5,240.8,514.6,240.8z"
		/>
	<path class="st9" d="M514.6,358.7H8.9c-4,0-7.2-3.2-7.2-7.2c0-4,3.2-7.2,7.2-7.2h505.6c4,0,7.2,3.2,7.2,7.2
		C521.8,355.4,518.5,358.7,514.6,358.7z"/>
	<path class="st1" d="M514.6,358.7H8.9c-4,0-7.2-3.2-7.2-7.2c0-4,3.2-7.2,7.2-7.2h505.6c4,0,7.2,3.2,7.2,7.2
		C521.8,355.4,518.5,358.7,514.6,358.7z"/>
	<path class="st9" d="M514.6,476.5H8.9c-4,0-7.2-3.2-7.2-7.2c0-4,3.2-7.2,7.2-7.2h505.6c4,0,7.2,3.2,7.2,7.2
		C521.8,473.3,518.5,476.5,514.6,476.5z"/>
	<path class="st1" d="M514.6,476.5H8.9c-4,0-7.2-3.2-7.2-7.2c0-4,3.2-7.2,7.2-7.2h505.6c4,0,7.2,3.2,7.2,7.2
		C521.8,473.3,518.5,476.5,514.6,476.5z"/>
	<path class="st9" d="M514.6,594.4H8.9c-4,0-7.2-3.2-7.2-7.2S5,580,8.9,580h505.6c4,0,7.2,3.2,7.2,7.2S518.5,594.4,514.6,594.4z"/>
	<path class="st1" d="M514.6,594.4H8.9c-4,0-7.2-3.2-7.2-7.2S5,580,8.9,580h505.6c4,0,7.2,3.2,7.2,7.2S518.5,594.4,514.6,594.4z"/>
	<path class="st9" d="M514.6,712.3H8.9c-4,0-7.2-3.2-7.2-7.2s3.2-7.2,7.2-7.2h505.6c4,0,7.2,3.2,7.2,7.2S518.5,712.3,514.6,712.3z"
		/>
	<path class="st1" d="M514.6,712.3H8.9c-4,0-7.2-3.2-7.2-7.2s3.2-7.2,7.2-7.2h505.6c4,0,7.2,3.2,7.2,7.2S518.5,712.3,514.6,712.3z"
		/>
	<path class="st9" d="M514.6,830.1H8.9c-4,0-7.2-3.2-7.2-7.2s3.2-7.2,7.2-7.2h505.6c4,0,7.2,3.2,7.2,7.2S518.5,830.1,514.6,830.1z"
		/>
	<path class="st1" d="M514.6,830.1H8.9c-4,0-7.2-3.2-7.2-7.2s3.2-7.2,7.2-7.2h505.6c4,0,7.2,3.2,7.2,7.2S518.5,830.1,514.6,830.1z"
		/>
</g>
</svg>
