<?xml version="1.0" encoding="utf-8"?>
<!-- Generator: Adobe Illustrator 21.0.0, SVG Export Plug-In . SVG Version: 6.00 Build 0)  -->
<svg version="1.1" id="Calque_1" xmlns="http://www.w3.org/2000/svg" xmlns:xlink="http://www.w3.org/1999/xlink" x="0px" y="0px"
	 viewBox="0 0 494.6 97.9" style="enable-background:new 0 0 494.6 97.9;" xml:space="preserve">
<style type="text/css">
	.st0{fill:#72461A;}
	.st1{fill:#7C4E2E;}
	.st2{fill:#7C4A25;}
	.st3{fill:#723D0D;}
	.st4{fill:#84563D;}
	.st5{fill:#7C4D1A;}
	.st6{fill:none;stroke:#000000;stroke-width:0.1172;stroke-miterlimit:10;}
</style>
<g>
	<g id="XMLID_4_">
		<g>
			<path d="M490.8,53.9V19.3c-10.7,1.1-30.6,0-55.4-1.3c-43.9-2.4-104-5.7-151.2,1.1c-23.3,3.3-39.9,9.2-57.4,15.4
				c-39.6,14-84.5,29.9-222.9,24.4v10.8c48.1,0.2,76.4,4,84.2,11.1c6.1,5.6-2,12-7.2,15.4h42.7C155.8,69,197.3,74.7,249.9,82
				c40.5,5.6,86.4,11.9,139.5,4.7c20.7-2.8,37.4-10.5,53.7-18C459.1,61.3,474.2,54.4,490.8,53.9z M0,97.1V0.9C0,0.4,0.9,0,1.9,0
				h490.8c1,0,1.9,0.4,1.9,0.9v96.2c0,0.5-0.8,0.9-1.9,0.9H1.9C0.9,97.9,0,97.6,0,97.1z M3.8,84.7v11.5H19c3.8-2,6.6-5.1,4.2-7.6
				C20.9,86.1,14.2,84.8,3.8,84.7L3.8,84.7z M3.8,71.4V83c15.1,0.2,20.8,2.7,22.9,4.9c2.6,2.8,0.6,5.9-2.9,8.3h52.3
				c6.9-4.3,13.7-9.8,8.5-14.6C79.7,77.1,61.6,71.7,3.8,71.4z M3.8,28L3.8,28C3.8,28,3.8,28,3.8,28v15.8
				c144.3,6.3,189.8-17.2,223-34.3c5.4-2.8,10.6-5.4,15.7-7.7h-76.8c0.8,3.1-3.3,7-11.9,11C131.2,23.3,70.7,36.6,3.8,28L3.8,28z
				 M3.8,1.7v9.7c45.1,6.6,76,0.4,85-5.2c2.7-1.7,3.3-3.3,2-4.5H3.8z M3.8,13.2v13c65.7,8.7,125.2-4.4,147.4-14.7
				c7.8-3.6,11.6-7.1,10.7-9.7h-67c1,1.7,0,3.6-3.1,5.5C82,13.4,50.5,19.9,3.8,13.2z M3.8,45.5v11.6c137.2,5.5,181.5-10.2,220.6-24
				c17.8-6.3,34.7-12.3,58.6-15.7c21.4-3,45.2-4.1,69-4.1c29.7,0,59.2,1.6,83.7,2.9c25.3,1.4,45.4,2.4,55,1.3V1.7H248
				c-6,2.5-12.1,5.6-18.4,8.9C197.8,27,149.8,51.8,3.8,45.5z M127.9,96.2h333.8c-1.3-11.4,12-15.7,29.1-20.8h0V55.6
				c-15.1,0.5-29.6,7.2-45,14.3c-15.8,7.3-33.7,15.5-55.3,18.4c-54.2,7.3-100.6,0.9-141.6-4.7C198.5,76.7,158.6,71.3,127.9,96.2z
				 M490.8,77.5c-15.6,4.7-26.5,8.7-25.3,18.7h25.3V77.5z"/>
			<path class="st0" d="M3.8,96.2V84.7h0c10.4,0.1,17.1,1.4,19.4,3.9c2.4,2.5-0.4,5.6-4.2,7.6H3.8z"/>
			<path class="st1" d="M3.8,69.7V58.8c138.4,5.5,183.3-10.4,222.9-24.4c17.5-6.2,34.1-12.1,57.4-15.4c47.3-6.7,107.4-3.5,151.2-1.1
				c24.8,1.3,44.7,2.4,55.4,1.3v34.6c-16.5,0.5-31.7,7.4-47.7,14.8c-16.2,7.5-33,15.2-53.7,18c-53.1,7.2-99,0.9-139.5-4.7
				c-52.6-7.2-94.1-12.9-126.4,14.3H80.8c5.2-3.4,13.4-9.7,7.2-15.4C80.2,73.7,51.9,69.9,3.8,69.7z M232.5,55.2
				c-0.7,5.3,11.3,10,35.5,14c22.7,3.8,44.6,5.7,65.1,5.7c60.9,0,94.4-16.5,95.9-32.8c0.5-4.7-2.2-8.4-7.8-11.1
				c-7.1-3.4-19-5.1-35.4-5.1c-20.7,0-44.1,2.7-58,4.3c-2.5,0.3-4.7,0.5-6.5,0.7C307.1,32.4,234.2,42.8,232.5,55.2z"/>
			<path class="st2" d="M3.8,83V71.4c57.9,0.3,75.9,5.7,80.8,10.2c5.2,4.8-1.7,10.3-8.5,14.6H23.7c3.6-2.4,5.5-5.5,2.9-8.3
				C24.6,85.7,18.8,83.1,3.8,83z"/>
			<polygon points="3.8,28 3.8,28 3.8,28 			"/>
			<path class="st3" d="M3.8,11.4V1.7h87c1.3,1.2,0.7,2.8-2,4.5C79.8,11.8,48.9,18,3.8,11.4z"/>
			<path class="st0" d="M3.8,26.2v-13c46.8,6.7,78.2,0.2,88-6c3.1-1.9,4.1-3.9,3.1-5.5h67c0.9,2.6-2.9,6.1-10.7,9.7
				C129,21.8,69.5,34.9,3.8,26.2z"/>
			<path class="st2" d="M3.8,43.7V28c66.9,8.6,127.4-4.7,150.1-15.3c8.5-4,12.7-7.8,11.9-11h76.8c-5.2,2.3-10.3,4.9-15.7,7.7
				C193.6,26.6,148.1,50,3.8,43.7z"/>
			<path class="st4" d="M3.8,57.1V45.5c146,6.3,194-18.5,225.8-34.9C236,7.3,242,4.2,248,1.7h242.7v15.8c-9.6,1.2-29.7,0.1-55-1.3
				c-24.5-1.3-54.1-2.9-83.7-2.9c-23.8,0-47.7,1-69,4.1c-24,3.4-40.8,9.4-58.6,15.7C185.3,46.9,141,62.6,3.8,57.1z"/>
			<path class="st2" d="M461.7,96.2H127.9c30.7-24.9,70.6-19.5,120.9-12.6c41,5.6,87.5,12,141.6,4.7c21.6-2.9,39.5-11.2,55.3-18.4
				c15.4-7.1,30-13.7,45-14.3v19.8h0C473.7,80.5,460.4,84.8,461.7,96.2z"/>
			<path d="M268.1,69.2c-24.3-4.1-36.2-8.8-35.5-14c1.6-12.4,74.6-22.8,88.9-24.3c1.8-0.2,4-0.5,6.5-0.7c14-1.6,37.4-4.3,58-4.3
				c16.4,0,28.3,1.7,35.4,5.1c5.6,2.7,8.2,6.4,7.8,11.1c-1.6,16.3-35,32.8-95.9,32.8C312.7,74.9,290.7,73,268.1,69.2z M236.3,55.3
				c-0.6,4.4,10.6,8.5,33,12.3c22.3,3.7,43.7,5.6,63.8,5.6c58.5,0,90.7-15.7,92.2-31.2c0.4-4.2-1.9-7.5-6.7-9.8
				c-6.3-3-17.3-4.6-32.7-4.6c-20.2,0-43.3,2.6-57.1,4.2c-2.5,0.3-4.7,0.5-6.6,0.7C303.7,34.6,237.7,44.9,236.3,55.3z"/>
			<path class="st2" d="M269.3,67.6c-22.5-3.8-33.6-7.9-33-12.3c1.4-10.4,67.4-20.8,86-22.7c1.8-0.2,4.1-0.5,6.6-0.7
				c13.8-1.6,36.9-4.2,57.1-4.2c15.3,0,26.3,1.5,32.7,4.6c4.9,2.3,7.1,5.6,6.7,9.8c-1.5,15.5-33.6,31.2-92.2,31.2
				C313.1,73.2,291.6,71.3,269.3,67.6z M305.9,51.3c-0.1,4.3,6.2,8.5,15.5,10.7c2.5,0.6,5.5,0.8,8.9,0.8c13.1,0,32.1-4.2,41.5-9.2
				c4.2-2.2,6.1-4.4,5.5-6.3c-1.5-4.9-10.4-7.7-25.1-7.7c-12.3,0-26.4,1.9-34.9,3.7C310.1,45,305.9,47.8,305.9,51.3z"/>
			<path d="M321.4,61.9c-9.3-2.1-15.6-6.4-15.5-10.7c0.1-3.4,4.2-6.3,11.4-7.9c8.5-1.9,22.6-3.7,34.9-3.7c14.7,0,23.6,2.7,25.1,7.7
				c0.6,1.9-1.3,4.1-5.5,6.3c-9.4,5-28.4,9.2-41.5,9.2C326.8,62.8,323.8,62.5,321.4,61.9z M309.7,51.3c-0.1,3.6,5.3,7.3,13.4,9.1
				c1.9,0.4,4.4,0.7,7.3,0.7c12.1,0,29.8-3.9,38.6-8.6c3.4-1.8,5-3.5,4.6-4.9c-1.2-4.1-8.4-6.2-21.3-6.2c-11.7,0-25.2,1.8-33.3,3.6
				C313,46.3,309.7,48.5,309.7,51.3z"/>
			<path class="st0" d="M323,60.4c-8.1-1.8-13.4-5.5-13.4-9.1c0-2.8,3.3-5,9.2-6.3c8.1-1.8,21.6-3.6,33.3-3.6
				c12.9,0,20.1,2.1,21.3,6.2c0.4,1.4-1.2,3.1-4.6,4.9c-8.8,4.6-26.5,8.6-38.6,8.6C327.4,61,325,60.8,323,60.4z"/>
			<path class="st5" d="M465.4,96.2c-1.2-10.1,9.8-14,25.3-18.7v18.7H465.4z"/>
		</g>
		<g>
			<path class="st6" d="M1.9,97.9h490.8c1,0,1.9-0.4,1.9-0.9V0.9c0-0.5-0.8-0.9-1.9-0.9H1.9C0.9,0,0,0.4,0,0.9v96.2
				C0,97.6,0.9,97.9,1.9,97.9z"/>
			<path class="st6" d="M94.9,1.7h67c0.9,2.6-2.9,6.1-10.7,9.7C129,21.8,69.5,34.9,3.8,26.2v-13c46.8,6.7,78.2,0.2,88-6
				C94.9,5.3,95.9,3.4,94.9,1.7z"/>
			<path class="st6" d="M490.8,75.4c-17.1,5.1-30.4,9.4-29.1,20.8H127.9c30.7-24.9,70.6-19.5,120.9-12.6c41,5.6,87.5,12,141.6,4.7
				c21.6-2.9,39.5-11.2,55.3-18.4c15.4-7.1,30-13.7,45-14.3L490.8,75.4L490.8,75.4z"/>
			<path class="st6" d="M490.8,53.9c-16.5,0.5-31.7,7.4-47.7,14.8c-16.2,7.5-33,15.2-53.7,18c-53.1,7.2-99,0.9-139.5-4.7
				c-52.6-7.2-94.1-12.9-126.4,14.3H80.8c5.2-3.4,13.4-9.7,7.2-15.4c-7.8-7.2-36.1-10.9-84.2-11.1V58.8
				c138.4,5.5,183.3-10.4,222.9-24.4c17.5-6.2,34.1-12.1,57.4-15.4c47.3-6.7,107.4-3.5,151.2-1.1c24.8,1.3,44.7,2.4,55.4,1.3V53.9z"
				/>
			<line class="st6" x1="490.8" y1="53.9" x2="490.8" y2="53.9"/>
			<path class="st6" d="M23.7,96.2c3.6-2.4,5.5-5.5,2.9-8.3c-2.1-2.2-7.8-4.8-22.9-4.9V71.4c57.9,0.3,75.9,5.7,80.8,10.2
				c5.2,4.8-1.7,10.3-8.5,14.6H23.7z"/>
			<path class="st6" d="M3.8,28c66.9,8.6,127.4-4.7,150.1-15.3c8.5-4,12.7-7.8,11.9-11h76.8c-5.2,2.3-10.3,4.9-15.7,7.7
				C193.6,26.6,148.1,50,3.8,43.7V28z"/>
			<polygon class="st6" points="3.8,28 3.8,28 3.8,28 			"/>
			<path class="st6" d="M3.8,84.7c10.4,0.1,17.1,1.4,19.4,3.9c2.4,2.5-0.4,5.6-4.2,7.6H3.8L3.8,84.7L3.8,84.7z"/>
			<path class="st6" d="M465.4,96.2c-1.2-10.1,9.8-14,25.3-18.7v18.7H465.4z"/>
			<path class="st6" d="M490.8,17.5c-9.6,1.2-29.7,0.1-55-1.3c-24.5-1.3-54.1-2.9-83.7-2.9c-23.8,0-47.7,1-69,4.1
				c-24,3.4-40.8,9.4-58.6,15.7C185.3,46.9,141,62.6,3.8,57.1V45.5c146,6.3,194-18.5,225.8-34.9C236,7.3,242,4.2,248,1.7h242.7V17.5
				z"/>
			<path class="st6" d="M90.8,1.7c1.3,1.2,0.7,2.8-2,4.5c-8.9,5.6-39.8,11.8-85,5.2V1.7H90.8z"/>
			<path class="st6" d="M386,25.9c-20.7,0-44.1,2.7-58,4.3c-2.5,0.3-4.7,0.5-6.5,0.7c-14.3,1.5-87.3,11.9-88.9,24.3
				c-0.7,5.3,11.3,10,35.5,14c22.7,3.8,44.6,5.7,65.1,5.7c60.9,0,94.4-16.5,95.9-32.8c0.5-4.7-2.2-8.4-7.8-11.1
				C414.3,27.6,402.4,25.9,386,25.9z"/>
			<path class="st6" d="M333.2,73.2c-20.1,0-41.6-1.9-63.8-5.6c-22.5-3.8-33.6-7.9-33-12.3c1.4-10.4,67.4-20.8,86-22.7
				c1.8-0.2,4.1-0.5,6.6-0.7c13.8-1.6,36.9-4.2,57.1-4.2c15.3,0,26.3,1.5,32.7,4.6c4.9,2.3,7.1,5.6,6.7,9.8
				C423.9,57.5,391.7,73.2,333.2,73.2z"/>
			<path class="st6" d="M352.2,39.7c-12.3,0-26.4,1.9-34.9,3.7c-7.2,1.6-11.3,4.4-11.4,7.9c-0.1,4.3,6.2,8.5,15.5,10.7
				c2.5,0.6,5.5,0.8,8.9,0.8c13.1,0,32.1-4.2,41.5-9.2c4.2-2.2,6.1-4.4,5.5-6.3C375.8,42.4,366.9,39.7,352.2,39.7z"/>
			<path class="st6" d="M368.9,52.5c-8.8,4.6-26.5,8.6-38.6,8.6c-2.9,0-5.3-0.2-7.3-0.7c-8.1-1.8-13.4-5.5-13.4-9.1
				c0-2.8,3.3-5,9.2-6.3c8.1-1.8,21.6-3.6,33.3-3.6c12.9,0,20.1,2.1,21.3,6.2C373.9,49,372.3,50.7,368.9,52.5z"/>
		</g>
	</g>
</g>
</svg>
