<?xml version="1.0" encoding="utf-8"?>
<!-- Generator: Adobe Illustrator 21.0.0, SVG Export Plug-In . SVG Version: 6.00 Build 0)  -->
<svg version="1.1" id="Calque_1" xmlns="http://www.w3.org/2000/svg" xmlns:xlink="http://www.w3.org/1999/xlink" x="0px" y="0px"
	 viewBox="0 0 494.6 97.9" style="enable-background:new 0 0 494.6 97.9;" xml:space="preserve">
<style type="text/css">
	.st0{fill:#72461A;}
	.st1{fill:#7C4E2E;}
	.st2{fill:#7C4A25;}
	.st3{fill:#723D0D;}
	.st4{fill:#84563D;}
	.st5{fill:#7C4D1A;}
	.st6{fill:none;stroke:#000000;stroke-width:0.1172;stroke-miterlimit:10;}
</style>
<g>
	<g id="XMLID_4_">
		<g>
			<path d="M3.8,44.1v34.6c10.7-1.1,30.6,0,55.4,1.3c43.9,2.4,104,5.7,151.2-1.1c23.3-3.3,39.9-9.2,57.4-15.4
				c39.6-14,84.5-29.9,222.9-24.4V28.3c-48.1-0.2-76.4-4-84.2-11.1c-6.1-5.6,2-12,7.2-15.4H371C338.8,28.9,297.2,23.2,244.7,16
				c-40.5-5.6-86.4-11.9-139.5-4.7c-20.7,2.8-37.4,10.5-53.7,18C35.5,36.7,20.3,43.6,3.8,44.1z M494.6,0.9v96.2
				c0,0.5-0.9,0.9-1.9,0.9H1.9c-1,0-1.9-0.4-1.9-0.9V0.9C0,0.4,0.8,0,1.9,0h490.8C493.7,0,494.5,0.4,494.6,0.9z M490.8,13.2V1.7
				h-15.2c-3.8,2-6.6,5.1-4.2,7.6C473.7,11.8,480.4,13.1,490.8,13.2L490.8,13.2z M490.8,26.5V15c-15.1-0.2-20.8-2.7-22.9-4.9
				c-2.6-2.8-0.6-5.9,2.9-8.3h-52.3c-6.9,4.3-13.7,9.8-8.5,14.6C414.8,20.8,432.9,26.2,490.8,26.5z M490.8,70L490.8,70
				C490.8,70,490.8,70,490.8,70V54.2c-144.3-6.3-189.8,17.2-223,34.3c-5.4,2.8-10.6,5.4-15.7,7.7h76.8c-0.8-3.1,3.3-7,11.9-11
				C363.4,74.7,423.9,61.4,490.8,70L490.8,70z M490.8,96.2v-9.7c-45.1-6.6-76-0.4-85,5.2c-2.7,1.7-3.3,3.3-2,4.5H490.8z M490.8,84.7
				v-13c-65.7-8.7-125.2,4.4-147.4,14.7c-7.8,3.6-11.6,7.1-10.7,9.7h67c-1-1.7,0-3.6,3.1-5.5C412.6,84.6,444,78.1,490.8,84.7z
				 M490.8,52.4V40.8c-137.2-5.5-181.5,10.2-220.6,24c-17.8,6.3-34.7,12.3-58.6,15.7c-21.4,3-45.2,4.1-69,4.1
				c-29.7,0-59.2-1.6-83.7-2.9c-25.3-1.4-45.4-2.4-55-1.3v15.8h242.7c6-2.5,12.1-5.6,18.4-8.9C296.7,70.9,344.7,46.2,490.8,52.4z
				 M366.7,1.7H32.9c1.3,11.4-12,15.7-29.1,20.8h0v19.8c15.1-0.5,29.6-7.2,45-14.3c15.8-7.3,33.7-15.5,55.3-18.4
				c54.2-7.3,100.6-0.9,141.6,4.7C296,21.2,336,26.7,366.7,1.7z M3.8,20.5c15.6-4.7,26.5-8.7,25.3-18.7H3.8V20.5z"/>
			<path class="st0" d="M490.8,1.7v11.5h0c-10.4-0.1-17.1-1.4-19.4-3.9c-2.4-2.5,0.4-5.6,4.2-7.6H490.8z"/>
			<path class="st1" d="M490.8,28.3v10.8c-138.4-5.5-183.3,10.4-222.9,24.4c-17.5,6.2-34.1,12.1-57.4,15.4
				c-47.3,6.7-107.4,3.5-151.2,1.1c-24.8-1.3-44.7-2.4-55.4-1.3V44.1c16.5-0.5,31.7-7.4,47.7-14.8c16.2-7.5,33-15.2,53.7-18
				c53.1-7.2,99-0.9,139.5,4.7c52.6,7.2,94.1,12.9,126.4-14.3h42.7c-5.2,3.4-13.4,9.7-7.2,15.4C414.3,24.3,442.7,28,490.8,28.3z
				 M262,42.7c0.7-5.3-11.3-10-35.5-14c-22.7-3.8-44.6-5.7-65.1-5.7C100.4,23,67,39.5,65.4,55.9c-0.5,4.7,2.2,8.4,7.8,11.1
				c7.1,3.4,19,5.1,35.4,5.1c20.7,0,44.1-2.7,58-4.3c2.5-0.3,4.7-0.5,6.5-0.7C187.4,65.5,260.4,55.1,262,42.7z"/>
			<path class="st2" d="M490.8,15v11.5c-57.9-0.3-75.9-5.7-80.8-10.2c-5.2-4.8,1.7-10.3,8.5-14.6h52.3c-3.6,2.4-5.5,5.5-2.9,8.3
				C470,12.2,475.7,14.8,490.8,15z"/>
			<polygon points="490.8,70 490.8,70 490.8,70 			"/>
			<path class="st3" d="M490.8,86.5v9.7h-87c-1.3-1.2-0.7-2.8,2-4.5C414.7,86.2,445.6,79.9,490.8,86.5z"/>
			<path class="st0" d="M490.8,71.8v13c-46.8-6.7-78.2-0.2-88,6c-3.1,1.9-4.1,3.9-3.1,5.5h-67c-0.9-2.6,2.9-6.1,10.7-9.7
				C365.6,76.1,425.1,63.1,490.8,71.8z"/>
			<path class="st2" d="M490.8,54.2V70c-66.9-8.6-127.4,4.7-150.1,15.3c-8.5,4-12.7,7.8-11.9,11h-76.8c5.2-2.3,10.3-4.9,15.7-7.7
				C301,71.4,346.5,47.9,490.8,54.2z"/>
			<path class="st4" d="M490.8,40.8v11.6c-146-6.3-194,18.5-225.8,34.9c-6.4,3.3-12.4,6.4-18.4,8.9H3.8V80.4
				c9.6-1.2,29.7-0.1,55,1.3c24.5,1.3,54.1,2.9,83.7,2.9c23.8,0,47.7-1,69-4.1c24-3.4,40.8-9.4,58.6-15.7
				C309.3,51,353.5,35.3,490.8,40.8z"/>
			<path class="st2" d="M32.9,1.7h333.8C336,26.7,296,21.2,245.7,14.3c-41-5.6-87.5-12-141.6-4.7c-21.6,2.9-39.5,11.2-55.3,18.4
				c-15.4,7.1-30,13.7-45,14.3V22.6h0C20.8,17.4,34.1,13.1,32.9,1.7z"/>
			<path d="M226.5,28.7c24.3,4.1,36.2,8.8,35.5,14c-1.6,12.4-74.6,22.8-88.9,24.3c-1.8,0.2-4,0.5-6.5,0.7c-14,1.6-37.4,4.3-58,4.3
				c-16.4,0-28.3-1.7-35.4-5.1c-5.6-2.7-8.2-6.4-7.8-11.1C67,39.5,100.4,23,161.4,23C181.9,23,203.8,24.9,226.5,28.7z M258.3,42.6
				c0.6-4.4-10.6-8.5-33-12.3c-22.3-3.7-43.7-5.6-63.8-5.6c-58.5,0-90.7,15.7-92.2,31.2c-0.4,4.2,1.9,7.5,6.7,9.8
				c6.3,3,17.3,4.6,32.7,4.6c20.2,0,43.3-2.6,57.1-4.2c2.5-0.3,4.7-0.5,6.6-0.7C190.8,63.4,256.9,53.1,258.3,42.6z"/>
			<path class="st2" d="M225.2,30.4c22.5,3.8,33.6,7.9,33,12.3c-1.4,10.4-67.4,20.8-86,22.7c-1.8,0.2-4.1,0.5-6.6,0.7
				c-13.8,1.6-36.9,4.2-57.1,4.2c-15.3,0-26.3-1.5-32.7-4.6c-4.9-2.3-7.1-5.6-6.7-9.8c1.5-15.5,33.6-31.2,92.2-31.2
				C181.5,24.8,202.9,26.6,225.2,30.4z M188.7,46.7c0.1-4.3-6.2-8.5-15.5-10.7c-2.5-0.6-5.5-0.8-8.9-0.8c-13.1,0-32.1,4.2-41.5,9.2
				c-4.2,2.2-6.1,4.4-5.5,6.3c1.5,4.9,10.4,7.7,25.1,7.7c12.3,0,26.4-1.9,34.9-3.7C184.5,53,188.6,50.1,188.7,46.7z"/>
			<path d="M173.2,36c9.3,2.1,15.6,6.4,15.5,10.7c-0.1,3.4-4.2,6.3-11.4,7.9c-8.5,1.9-22.6,3.7-34.9,3.7c-14.7,0-23.6-2.7-25.1-7.7
				c-0.6-1.9,1.3-4.1,5.5-6.3c9.4-5,28.4-9.2,41.5-9.2C167.7,35.2,170.7,35.5,173.2,36z M184.9,46.7c0.1-3.6-5.3-7.3-13.4-9.1
				c-1.9-0.4-4.4-0.7-7.3-0.7c-12.1,0-29.8,3.9-38.6,8.6c-3.4,1.8-5,3.5-4.6,4.9c1.2,4.1,8.4,6.2,21.3,6.2c11.7,0,25.2-1.8,33.3-3.6
				C181.6,51.7,184.8,49.4,184.9,46.7z"/>
			<path class="st0" d="M171.5,37.6c8.1,1.8,13.4,5.5,13.4,9.1c0,2.8-3.3,5-9.2,6.3c-8.1,1.8-21.6,3.6-33.3,3.6
				c-12.9,0-20.1-2.1-21.3-6.2c-0.4-1.4,1.2-3.1,4.6-4.9c8.8-4.6,26.5-8.6,38.6-8.6C167.1,36.9,169.6,37.1,171.5,37.6z"/>
			<path class="st5" d="M29.1,1.7c1.2,10.1-9.8,14-25.3,18.7V1.7H29.1z"/>
		</g>
		<g>
			<path class="st6" d="M492.7,0H1.9C0.8,0,0,0.4,0,0.9v96.2c0,0.5,0.8,0.9,1.9,0.9h490.8c1,0,1.9-0.4,1.9-0.9V0.9
				C494.5,0.4,493.7,0,492.7,0z"/>
			<path class="st6" d="M399.7,96.2h-67c-0.9-2.6,2.9-6.1,10.7-9.7c22.2-10.3,81.7-23.4,147.4-14.7v13c-46.8-6.7-78.2-0.2-88,6
				C399.7,92.6,398.6,94.5,399.7,96.2z"/>
			<path class="st6" d="M3.8,22.6c17.1-5.1,30.4-9.4,29.1-20.8h333.8C336,26.7,296,21.2,245.7,14.3c-41-5.6-87.5-12-141.6-4.7
				c-21.6,2.9-39.5,11.2-55.3,18.4c-15.4,7.1-30,13.7-45,14.3L3.8,22.6L3.8,22.6z"/>
			<path class="st6" d="M3.8,44.1c16.5-0.5,31.7-7.4,47.7-14.8c16.2-7.5,33-15.2,53.7-18c53.1-7.2,99-0.9,139.5,4.7
				c52.6,7.2,94.1,12.9,126.4-14.3h42.7c-5.2,3.4-13.4,9.7-7.2,15.4c7.8,7.2,36.1,10.9,84.2,11.1v10.8
				c-138.4-5.5-183.3,10.4-222.9,24.4c-17.5,6.2-34.1,12.1-57.4,15.4c-47.3,6.7-107.4,3.5-151.2,1.1c-24.8-1.3-44.7-2.4-55.4-1.3
				V44.1z"/>
			<line class="st6" x1="3.8" y1="44.1" x2="3.8" y2="44.1"/>
			<path class="st6" d="M470.8,1.7c-3.6,2.4-5.5,5.5-2.9,8.3c2.1,2.2,7.8,4.8,22.9,4.9v11.5c-57.9-0.3-75.9-5.7-80.8-10.2
				c-5.2-4.8,1.7-10.3,8.5-14.6H470.8z"/>
			<path class="st6" d="M490.8,70c-66.9-8.6-127.4,4.7-150.1,15.3c-8.5,4-12.7,7.8-11.9,11h-76.8c5.2-2.3,10.3-4.9,15.7-7.7
				c33.2-17.1,78.7-40.6,223-34.3V70z"/>
			<polygon class="st6" points="490.8,70 490.8,70 490.8,70 			"/>
			<path class="st6" d="M490.8,13.2c-10.4-0.1-17.1-1.4-19.4-3.9c-2.4-2.5,0.4-5.6,4.2-7.6h15.2L490.8,13.2L490.8,13.2z"/>
			<path class="st6" d="M29.1,1.7c1.2,10.1-9.8,14-25.3,18.7V1.7H29.1z"/>
			<path class="st6" d="M3.8,80.4c9.6-1.2,29.7-0.1,55,1.3c24.5,1.3,54.1,2.9,83.7,2.9c23.8,0,47.7-1,69-4.1
				c24-3.4,40.8-9.4,58.6-15.7c39.1-13.9,83.4-29.5,220.6-24v11.6c-146-6.3-194,18.5-225.8,34.9c-6.4,3.3-12.4,6.4-18.4,8.9H3.8
				V80.4z"/>
			<path class="st6" d="M403.8,96.2c-1.3-1.2-0.7-2.8,2-4.5c8.9-5.6,39.8-11.8,85-5.2v9.7H403.8z"/>
			<path class="st6" d="M108.5,72.1c20.7,0,44.1-2.7,58-4.3c2.5-0.3,4.7-0.5,6.5-0.7c14.3-1.5,87.3-11.9,88.9-24.3
				c0.7-5.3-11.3-10-35.5-14c-22.7-3.8-44.6-5.7-65.1-5.7C100.4,23,67,39.5,65.4,55.9c-0.5,4.7,2.2,8.4,7.8,11.1
				C80.2,70.4,92.1,72.1,108.5,72.1z"/>
			<path class="st6" d="M161.4,24.8c20.1,0,41.6,1.9,63.8,5.6c22.5,3.8,33.6,7.9,33,12.3c-1.4,10.4-67.4,20.8-86,22.7
				c-1.8,0.2-4.1,0.5-6.6,0.7c-13.8,1.6-36.9,4.2-57.1,4.2c-15.3,0-26.3-1.5-32.7-4.6c-4.9-2.3-7.1-5.6-6.7-9.8
				C70.7,40.4,102.8,24.8,161.4,24.8z"/>
			<path class="st6" d="M142.4,58.3c12.3,0,26.4-1.9,34.9-3.7c7.2-1.6,11.3-4.4,11.4-7.9c0.1-4.3-6.2-8.5-15.5-10.7
				c-2.5-0.6-5.5-0.8-8.9-0.8c-13.1,0-32.1,4.2-41.5,9.2c-4.2,2.2-6.1,4.4-5.5,6.3C118.8,55.6,127.7,58.3,142.4,58.3z"/>
			<path class="st6" d="M125.6,45.5c8.8-4.6,26.5-8.6,38.6-8.6c2.9,0,5.3,0.2,7.3,0.7c8.1,1.8,13.4,5.5,13.4,9.1
				c0,2.8-3.3,5-9.2,6.3c-8.1,1.8-21.6,3.6-33.3,3.6c-12.9,0-20.1-2.1-21.3-6.2C120.6,49,122.2,47.3,125.6,45.5z"/>
		</g>
	</g>
</g>
</svg>
