<?xml version="1.0" encoding="utf-8"?>
<!-- Generator: Adobe Illustrator 21.0.0, SVG Export Plug-In . SVG Version: 6.00 Build 0)  -->
<svg version="1.1" id="Calque_1" xmlns="http://www.w3.org/2000/svg" xmlns:xlink="http://www.w3.org/1999/xlink" x="0px" y="0px"
	 viewBox="0 0 105.9 183.4" style="enable-background:new 0 0 105.9 183.4;" xml:space="preserve">
<style type="text/css">
	.st0{fill:#FF1A9D;}
	.st1{fill:none;stroke:#000000;stroke-width:0.4886;stroke-miterlimit:10;}
	.st2{fill:none;stroke:#000000;stroke-width:1.4658;stroke-miterlimit:10;}
</style>
<g>
	<path class="st0" d="M106.2,107.8v71.8c0,2.1-1.7,3.8-3.8,3.8H4.3c-2.1,0-3.8-1.7-3.8-3.8V3.8C0.4,1.7,2.1,0,4.3,0h98.2
		c2.1,0,3.8,1.7,3.8,3.8v71.1c0,1-0.5,1.8-1.4,2.3l-1.1,0.6c-0.9,0.4-1.4,1.3-1.4,2.3v23.8c0,1.1,0.7,2.1,1.8,2.4l1.4,0.4
		C105.9,106.8,106.2,107.3,106.2,107.8L106.2,107.8z"/>
	<path class="st1" d="M106.2,107.8v71.8c0,2.1-1.7,3.8-3.8,3.8H4.3c-2.1,0-3.8-1.7-3.8-3.8V3.8C0.4,1.7,2.1,0,4.3,0h98.2
		c2.1,0,3.8,1.7,3.8,3.8v71.1c0,1-0.5,1.8-1.4,2.3l-1.1,0.6c-0.9,0.4-1.4,1.3-1.4,2.3v23.8c0,1.1,0.7,2.1,1.8,2.4l1.4,0.4
		C105.9,106.8,106.2,107.3,106.2,107.8L106.2,107.8z"/>
	<path d="M98.8,67.1c0-24.4-19.8-44.2-44.2-44.2S10.4,42.7,10.4,67.1c0,22.3,16.6,40.8,38.1,43.8v13.4h-19c-3.4,0-6.1,2.7-6.1,6.1
		c0,3.4,2.7,6.1,6.1,6.1h19v19c0,3.4,2.7,6.1,6.1,6.1s6.1-2.7,6.1-6.1v-19h19c3.4,0,6.1-2.7,6.1-6.1c0-3.4-2.7-6.1-6.1-6.1h-19
		v-13.4C82.2,107.9,98.8,89.4,98.8,67.1z M22.6,67.1c0-17.7,14.3-32,32-32s32,14.3,32,32c0,17.7-14.3,32-32,32S22.6,84.8,22.6,67.1z
		"/>
	<polygon points="49.1,58.7 54.5,58.2 55.3,54.4 42.8,49.1 34.6,61.8 46.6,79.7 43.1,102.2 63.4,102.2 63.3,80.9 67.3,76.4 68,72.3 
		63.5,70.3 52.9,65.3 59.8,75.7 58.2,90.8 57.4,90.8 56.5,75.3 48.9,63.8 42.2,60.5 45.8,56.3 	"/>
	<polygon class="st2" points="49.1,58.7 54.5,58.2 55.3,54.4 42.8,49.1 34.6,61.8 46.6,79.7 43.1,102.2 63.4,102.2 63.3,80.9 
		67.3,76.4 68,72.3 63.5,70.3 52.9,65.3 59.8,75.7 58.2,90.8 57.4,90.8 56.5,75.3 48.9,63.8 42.2,60.5 45.8,56.3 	"/>
	<polygon points="65.6,66.4 69.9,68.2 76.6,59.6 73.6,55.6 	"/>
	<polygon class="st2" points="65.6,66.4 69.9,68.2 76.6,59.6 73.6,55.6 	"/>
	<polygon points="58.5,64 63,65.7 71.7,53.4 67.7,49.4 	"/>
	<polygon class="st2" points="58.5,64 63,65.7 71.7,53.4 67.7,49.4 	"/>
	<polygon points="58.2,53 56.6,60.4 51.1,61 56.1,63.2 65.7,47.8 60.1,45.1 56,52.1 	"/>
	<polygon class="st2" points="58.2,53 56.6,60.4 51.1,61 56.1,63.2 65.7,47.8 60.1,45.1 56,52.1 	"/>
	<polygon points="54.6,49.5 57.5,44.3 52,42.3 48.4,48.8 53.7,51.1 	"/>
	<polygon class="st2" points="54.6,49.5 57.5,44.3 52,42.3 48.4,48.8 53.7,51.1 	"/>
</g>
</svg>
