<?xml version="1.0" encoding="utf-8"?>
<!-- Generator: Adobe Illustrator 21.0.0, SVG Export Plug-In . SVG Version: 6.00 Build 0)  -->
<svg version="1.1" id="Calque_1" xmlns="http://www.w3.org/2000/svg" xmlns:xlink="http://www.w3.org/1999/xlink" x="0px" y="0px"
	 viewBox="0 0 200 144.4" style="enable-background:new 0 0 200 144.4;" xml:space="preserve">
<style type="text/css">
	.st0{fill:#333333;}
</style>
<path class="st0" d="M82.7,59.1c0,31.5-21.6,58.5-46.8,75.1c-4,1.3-8.5-0.4-8.5-5.4c0-1.8,7.2-7.2,8.5-8.1
	C52.1,110,69.6,81.6,69.6,63.2c0-3.6-1.8-18.4-7.6-18.4c-5.4,0-6.3,3.2-7.2,7.2C52.5,61.9,43.1,68.6,31,68.6
	c-15.3,0-24.8-13.9-24.8-28.3C6.2,21.8,21,10.1,39,10.1C67.8,10.1,82.7,32.6,82.7,59.1z M193.8,59.1c0,31.5-21.6,58.5-46.8,75.1
	c-4.1,1.3-8.5-0.4-8.5-5.4c0-1.8,7.2-7.2,8.5-8.1c16.2-10.8,33.7-39.1,33.7-57.6c0-3.6-1.8-18.4-7.6-18.4c-5.4,0-6.3,3.2-7.2,7.2
	c-2.3,9.9-11.7,16.6-23.9,16.6c-15.3,0-24.7-13.9-24.7-28.3c0-18.4,14.8-30.1,32.8-30.1C179,10.1,193.8,32.6,193.8,59.1z"/>
</svg>
