<?xml version="1.0" encoding="utf-8"?>
<!-- Generator: Adobe Illustrator 21.0.0, SVG Export Plug-In . SVG Version: 6.00 Build 0)  -->
<svg version="1.1" id="Calque_1" xmlns="http://www.w3.org/2000/svg" xmlns:xlink="http://www.w3.org/1999/xlink" x="0px" y="0px"
	 viewBox="0 0 200 144.4" style="enable-background:new 0 0 200 144.4;" xml:space="preserve">
<style type="text/css">
	.st0{fill:#333333;}
</style>
<path class="st0" d="M5.4,85.2c0-31.5,21.6-58.5,46.8-75.1c4-1.3,8.5,0.4,8.5,5.4c0,1.8-7.2,7.2-8.5,8.1
	C36,34.4,18.4,62.7,18.4,81.2c0,3.6,1.8,18.4,7.6,18.4c5.4,0,6.3-3.1,7.2-7.2c2.3-9.9,11.7-16.6,23.8-16.6
	c15.3,0,24.8,13.9,24.8,28.3c0,18.4-14.9,30.1-32.8,30.1C20.3,134.3,5.4,111.8,5.4,85.2z M116.1,85.2c0-31.5,21.6-58.5,46.8-75.1
	c4-1.3,8.5,0.4,8.5,5.4c0,1.8-7.2,7.2-8.5,8.1c-16.2,10.8-33.8,39.1-33.8,57.6c0,3.6,1.8,18.4,7.6,18.4c5.4,0,6.3-3.1,7.2-7.2
	c2.3-9.9,11.7-16.6,23.8-16.6c15.3,0,24.8,13.9,24.8,28.3c0,18.4-14.9,30.1-32.8,30.1C130.9,134.3,116.1,111.8,116.1,85.2z"/>
</svg>
