<?xml version="1.0" encoding="utf-8"?>
<!-- Generator: Adobe Illustrator 21.0.0, SVG Export Plug-In . SVG Version: 6.00 Build 0)  -->
<svg version="1.1" id="Calque_1" xmlns="http://www.w3.org/2000/svg" xmlns:xlink="http://www.w3.org/1999/xlink" x="0px" y="0px"
	 viewBox="0 0 256 444" style="enable-background:new 0 0 256 444;" xml:space="preserve">
<style type="text/css">
	.st0{fill:#C1AA8A;}
	.st1{fill:none;stroke:#000000;stroke-width:2;stroke-miterlimit:10;}
	.st2{fill:none;stroke:#E20000;stroke-width:2;stroke-miterlimit:10;}
</style>
<g id="XMLID_1_">
	<g>
		<path class="st0" d="M137.3,371.7c1.4,0,2.6,1.2,2.6,2.6c0,1.5-1.2,2.6-2.6,2.6c-1.5,0-2.6-1.1-2.6-2.6
			C134.7,372.9,135.9,371.7,137.3,371.7z"/>
		<path class="st0" d="M146.6,371.7c1.1,0,2,0.9,2,1.9c0,1.1-0.9,2-2,2s-2-0.9-2-2C144.6,372.5,145.5,371.7,146.6,371.7z"/>
		<path class="st0" d="M146.6,376.7c1.2,0,2.2,1,2.2,2.2c0,1.2-1,2.2-2.2,2.2s-2.2-1-2.2-2.2C144.4,377.6,145.4,376.7,146.6,376.7z"
			/>
		<polygon class="st0" points="157.1,373.9 157.1,379 153.5,379 157.1,373.9 		"/>
		<polygon class="st0" points="157.1,68.3 157.1,73.4 153.5,73.4 157.1,68.3 		"/>
		<path class="st0" d="M137.3,66.1c1.4,0,2.6,1.2,2.6,2.6c0,1.5-1.2,2.6-2.6,2.6c-1.5,0-2.6-1.1-2.6-2.6
			C134.7,67.3,135.9,66.1,137.3,66.1z"/>
		<path class="st0" d="M146.6,66.1c1.1,0,2,0.9,2,1.9c0,1.1-0.9,2-2,2s-2-0.9-2-2C144.6,66.9,145.5,66.1,146.6,66.1z"/>
		<path class="st0" d="M146.6,71.1c1.2,0,2.2,1,2.2,2.2c0,1.2-1,2.2-2.2,2.2s-2.2-1-2.2-2.2C144.4,72.1,145.4,71.1,146.6,71.1z"/>
		<path class="st0" d="M166.4,70.2l-5.3,6.3h7.3v-1.2h-4.8l3.9-4.6c0.6-0.7,0.9-1.5,0.9-2.4c0-2-1.7-3.3-3.6-3.3
			c-2,0-3.5,1.5-3.5,3.5h1.3c0-1.3,0.9-2.3,2.3-2.3c1.2,0,2.3,0.9,2.3,2.2C167.1,69,166.8,69.6,166.4,70.2z M158.3,64.5l-7,10.1h5.8
			v1.8h1.3v-1.8h1.4v-1.2h-1.4L158.3,64.5L158.3,64.5z M143.4,68.1c0,1,0.5,2,1.4,2.5c-1.1,0.5-1.7,1.6-1.7,2.7c0,2,1.5,3.4,3.4,3.4
			s3.4-1.4,3.4-3.4c0-1.2-0.6-2.2-1.7-2.7c0.9-0.5,1.4-1.5,1.4-2.5c0-1.8-1.4-3.2-3.2-3.2C144.9,64.9,143.4,66.2,143.4,68.1z
			 M138.1,72.4l-2.6,3.6l0.9,0.7l3.8-5.1c0.6-0.8,1.1-1.7,1.1-2.7c0-2.1-1.8-3.8-3.9-3.8s-3.9,1.7-3.9,3.8c0,2.1,1.6,3.7,3.7,3.7
			C137.4,72.5,137.8,72.4,138.1,72.4L138.1,72.4z M118.7,64.9c-2,0-3.5,1.5-3.5,3.5h1.3c0-1.3,0.9-2.3,2.3-2.3
			c1.2,0,2.3,0.9,2.3,2.2c0,0.7-0.3,1.3-0.8,1.9l-5.3,6.3h7.3v-1.2h-4.8l3.9-4.6c0.6-0.7,0.8-1.5,0.8-2.4
			C122.2,66.3,120.6,64.9,118.7,64.9z M106.6,76.6l7.6-11.5h-8.3v1.2h6.2l-6.4,9.7L106.6,76.6z M99.9,69.9v1.2
			c1.4-0.1,2.4,0.7,2.4,2.1c0,1.3-0.9,2.3-2.2,2.3c-1.1,0-2.1-0.8-2.2-2h-1.2c0,1.9,1.5,3.1,3.4,3.1c1.9,0,3.5-1.4,3.5-3.4
			c0-1.2-0.5-2.3-1.6-2.8c0.9-0.5,1.5-1.5,1.5-2.5c0-1.9-1.4-3.1-3.2-3.1c-1.9,0-3,1.2-3.1,3h1.3c0.1-1.1,0.7-1.8,1.9-1.8
			c1.2,0,2,0.8,2,2C102.1,69.5,101.1,69.8,99.9,69.9z M90.8,66.3h3.6v-1.2h-4.5l-1.6,5.4c0.6-0.4,1.4-0.7,2.1-0.7
			c1.6,0,2.8,1.1,2.8,2.8c0,1.6-1.2,2.9-2.9,2.9c-1.1,0-2-0.7-2.5-1.6l-1,0.7c0.8,1.3,2,2,3.5,2c2.3,0,4.2-1.7,4.2-4
			c0-2.2-1.5-3.9-3.8-3.9l-0.7,0.1L90.8,66.3z M236.3,71.5v10.8H19V71.5c0-6.6,5.4-12,12-12h193.3C230.9,59.5,236.3,64.9,236.3,71.5
			z M129,76.4V65.1h-2.5l-0.7,1.2h1.9v10.1H129z"/>
		<path class="st0" d="M166.4,375.8l-5.3,6.3h7.3v-1.2h-4.8l3.9-4.6c0.6-0.7,0.9-1.5,0.9-2.4c0-2-1.7-3.3-3.6-3.3
			c-2,0-3.5,1.5-3.5,3.5h1.3c0-1.3,0.9-2.3,2.3-2.3c1.2,0,2.3,0.9,2.3,2.2C167.1,374.6,166.8,375.2,166.4,375.8z M158.3,370.1
			l-7,10.1h5.8v1.8h1.3v-1.8h1.4V379h-1.4L158.3,370.1L158.3,370.1z M143.4,373.6c0,1,0.5,2,1.4,2.5c-1.1,0.5-1.7,1.6-1.7,2.7
			c0,2,1.5,3.4,3.4,3.4s3.4-1.4,3.4-3.4c0-1.1-0.6-2.2-1.7-2.7c0.9-0.5,1.4-1.5,1.4-2.5c0-1.8-1.4-3.1-3.2-3.1
			C144.9,370.5,143.4,371.8,143.4,373.6z M138.1,378l-2.6,3.6l0.9,0.6l3.8-5.1c0.6-0.8,1.1-1.7,1.1-2.7c0-2.1-1.8-3.9-3.9-3.9
			s-3.9,1.7-3.9,3.9c0,2.1,1.6,3.7,3.7,3.7C137.4,378.1,137.8,378,138.1,378L138.1,378z M118.7,370.5c-2,0-3.5,1.5-3.5,3.5h1.3
			c0-1.3,0.9-2.3,2.3-2.3c1.2,0,2.3,0.9,2.3,2.2c0,0.7-0.3,1.4-0.8,1.9l-5.3,6.3h7.3v-1.2h-4.8l3.9-4.6c0.6-0.7,0.8-1.5,0.8-2.4
			C122.2,371.9,120.6,370.5,118.7,370.5z M106.6,382.2l7.6-11.5h-8.3v1.2h6.2l-6.4,9.8L106.6,382.2z M99.9,375.5v1.2
			c1.4,0,2.4,0.7,2.4,2.1c0,1.2-0.9,2.3-2.2,2.3c-1.1,0-2.1-0.8-2.2-2h-1.2c0,1.9,1.5,3.1,3.4,3.1c1.9,0,3.5-1.4,3.5-3.4
			c0-1.1-0.5-2.3-1.6-2.8c0.9-0.5,1.5-1.5,1.5-2.5c0-1.9-1.4-3.1-3.2-3.1c-1.9,0-3,1.2-3.1,3h1.3c0.1-1.1,0.7-1.8,1.9-1.8
			c1.2,0,2,0.8,2,2C102.1,375.1,101.1,375.4,99.9,375.5z M90.8,371.9h3.6v-1.2h-4.5l-1.6,5.4c0.6-0.4,1.4-0.7,2.1-0.7
			c1.6,0,2.8,1.1,2.8,2.7c0,1.6-1.2,2.9-2.9,2.9c-1.1,0-2-0.6-2.5-1.6l-1,0.7c0.8,1.3,2,2,3.5,2c2.3,0,4.2-1.7,4.2-4
			c0-2.2-1.5-3.9-3.8-3.9l-0.7,0.1L90.8,371.9z M236.3,365.5v10.8c0,6.6-5.4,12-12,12H31c-6.6,0-12-5.4-12-12v-10.8H236.3
			L236.3,365.5z M129,382v-11.3h-2.5l-0.7,1.2h1.9V382H129z"/>
		<path class="st0" d="M19,365.5v10.8c0,6.6,5.4,12,12,12h193.3c6.6,0,12-5.4,12-12v-10.8V82.3V71.5c0-6.6-5.4-12-12-12H31
			c-6.6,0-12,5.4-12,12v10.8V365.5z M248.7,16.8v414.3c0,2.8-2.3,5.1-5.1,5.1h-1.2c0-2.7-2.2-4.9-4.9-4.9c-2.7,0-4.9,2.2-4.9,4.9
			h-6.5c0-2.7-2.2-4.9-4.9-4.9c-2.7,0-4.9,2.2-4.9,4.9h-6.5c0-2.7-2.2-4.9-4.9-4.9c-2.7,0-4.9,2.2-4.9,4.9h-6.5
			c0-2.7-2.2-4.9-4.9-4.9c-2.7,0-4.9,2.2-4.9,4.9h-6.5c0-2.7-2.2-4.9-4.9-4.9c-2.7,0-4.9,2.2-4.9,4.9h-3.1
			c0-20.3-16.4-36.7-36.7-36.7S91,416,91,436.2h-3.7c0-2.7-2.2-4.9-4.9-4.9s-4.9,2.2-4.9,4.9H71c0-2.7-2.2-4.9-4.9-4.9
			c-2.7,0-4.9,2.2-4.9,4.9h-6.5c0-2.7-2.2-4.9-4.9-4.9c-2.7,0-4.9,2.2-4.9,4.9h-6.5c0-2.7-2.2-4.9-4.9-4.9s-4.9,2.2-4.9,4.9h-6.5
			c0-2.7-2.2-4.9-4.9-4.9c-2.7,0-4.9,2.2-4.9,4.9h-0.6c-2.8,0-5.1-2.3-5.1-5.1V16.8c0-2.8,2.3-5.1,5.1-5.1H13c0,2.7,2.2,4.9,4.9,4.9
			c2.7,0,4.9-2.2,4.9-4.9h6.5c0,2.7,2.2,4.9,4.9,4.9s4.9-2.2,4.9-4.9h6.5c0,2.7,2.2,4.9,4.9,4.9c2.7,0,4.9-2.2,4.9-4.9h6.5
			c0,2.7,2.2,4.9,4.9,4.9c2.7,0,4.9-2.2,4.9-4.9h6.5c0,2.7,2.2,4.9,4.9,4.9c2.7,0,4.9-2.2,4.9-4.9H91c0,20.3,16.4,36.7,36.7,36.7
			s36.7-16.4,36.7-36.7h3.7c0,2.7,2.2,4.9,4.9,4.9c2.7,0,4.9-2.2,4.9-4.9h6.5c0,2.7,2.2,4.9,4.9,4.9s4.9-2.2,4.9-4.9h6.5
			c0,2.7,2.2,4.9,4.9,4.9c2.7,0,4.9-2.2,4.9-4.9h6.5c0,2.7,2.2,4.9,4.9,4.9c2.7,0,4.9-2.2,4.9-4.9h6.5c0,2.7,2.2,4.9,4.9,4.9
			s4.9-2.2,4.9-4.9h0.6C246.4,11.7,248.7,14,248.7,16.8z"/>
		<polygon class="st0" points="236.3,82.3 236.3,365.5 236.3,365.5 19,365.5 19,82.3 		"/>
		<path d="M167.6,70.6l-3.9,4.6h4.8v1.2h-7.3l5.3-6.3c0.4-0.5,0.8-1.2,0.8-1.9c0-1.3-1-2.2-2.3-2.2c-1.4,0-2.3,1-2.3,2.3h-1.3
			c0-2,1.5-3.5,3.5-3.5c1.9,0,3.6,1.4,3.6,3.3C168.4,69.2,168.1,70,167.6,70.6z"/>
		<path d="M167.1,373.9c0-1.3-1-2.2-2.3-2.2c-1.4,0-2.3,1-2.3,2.3h-1.3c0-2,1.5-3.5,3.5-3.5c1.9,0,3.6,1.4,3.6,3.3
			c0,0.9-0.3,1.7-0.9,2.4l-3.9,4.6h4.8v1.2h-7.3l5.3-6.3C166.8,375.2,167.1,374.6,167.1,373.9z"/>
		<path d="M157.1,73.4v-5.1h0l-3.6,5.1H157.1z M157.1,74.6h-5.8l7-10.1h0v8.9h1.4v1.2h-1.4v1.8h-1.3V74.6z"/>
		<path d="M157.1,379v-5.1h0l-3.6,5.1H157.1z M157.1,380.2h-5.8l7-10.1h0v8.9h1.4v1.2h-1.4v1.8h-1.3V380.2z"/>
		<path d="M146.6,75.4c1.2,0,2.2-1,2.2-2.2c0-1.2-1-2.2-2.2-2.2s-2.2,1-2.2,2.2C144.4,74.5,145.4,75.4,146.6,75.4z M146.6,70
			c1.1,0,2-0.9,2-2c0-1.1-0.9-1.9-2-1.9s-2,0.9-2,1.9C144.6,69.1,145.5,70,146.6,70z M144.8,70.5c-0.9-0.5-1.4-1.5-1.4-2.5
			c0-1.8,1.4-3.2,3.2-3.2c1.8,0,3.2,1.3,3.2,3.2c0,1-0.5,2-1.4,2.5c1.1,0.5,1.7,1.6,1.7,2.7c0,2-1.5,3.4-3.4,3.4s-3.4-1.4-3.4-3.4
			C143.2,72.1,143.8,71,144.8,70.5z"/>
		<path d="M146.6,381c1.2,0,2.2-1,2.2-2.2c0-1.2-1-2.2-2.2-2.2s-2.2,1-2.2,2.2C144.4,380,145.4,381,146.6,381z M146.6,375.6
			c1.1,0,2-0.9,2-2c0-1.1-0.9-1.9-2-1.9s-2,0.9-2,1.9C144.6,374.7,145.5,375.6,146.6,375.6z M144.8,376.1c-0.9-0.5-1.4-1.5-1.4-2.5
			c0-1.8,1.4-3.1,3.2-3.1c1.8,0,3.2,1.3,3.2,3.1c0,1-0.5,2-1.4,2.5c1.1,0.5,1.7,1.6,1.7,2.7c0,2-1.5,3.4-3.4,3.4s-3.4-1.4-3.4-3.4
			C143.2,377.7,143.8,376.6,144.8,376.1z"/>
		<path d="M137.3,64.9c2.1,0,3.9,1.7,3.9,3.8c0,1-0.5,1.9-1.1,2.7l-3.8,5.1l-0.9-0.7l2.6-3.6l0,0c-0.3,0.1-0.6,0.2-1,0.2
			c-2.1,0-3.7-1.7-3.7-3.7C133.4,66.6,135.2,64.9,137.3,64.9z M140,68.7c0-1.4-1.2-2.6-2.6-2.6c-1.5,0-2.6,1.2-2.6,2.6
			c0,1.5,1.2,2.6,2.6,2.6C138.8,71.3,140,70.2,140,68.7z"/>
		<path d="M140,374.3c0-1.5-1.2-2.6-2.6-2.6c-1.5,0-2.6,1.2-2.6,2.6c0,1.5,1.2,2.6,2.6,2.6C138.8,376.9,140,375.8,140,374.3z
			 M137.3,370.5c2.1,0,3.9,1.7,3.9,3.9c0,1-0.5,1.9-1.1,2.7l-3.8,5.1l-0.9-0.6l2.6-3.6l0,0c-0.3,0.1-0.6,0.1-1,0.1
			c-2.1,0-3.7-1.7-3.7-3.7C133.4,372.2,135.2,370.5,137.3,370.5z"/>
		<polygon points="129,370.7 129,382 127.8,382 127.8,371.9 125.9,371.9 126.6,370.7 		"/>
		<polygon points="129,65.1 129,76.4 127.8,76.4 127.8,66.3 125.9,66.3 126.6,65.1 		"/>
		<path d="M118.7,64.9c1.9,0,3.5,1.4,3.5,3.3c0,0.9-0.3,1.7-0.8,2.4l-3.9,4.6h4.8v1.2h-7.3l5.3-6.3c0.4-0.5,0.8-1.2,0.8-1.9
			c0-1.3-1-2.2-2.3-2.2c-1.4,0-2.3,1-2.3,2.3h-1.3C115.2,66.4,116.7,64.9,118.7,64.9z"/>
		<path d="M118.7,370.5c1.9,0,3.5,1.4,3.5,3.3c0,0.9-0.3,1.7-0.8,2.4l-3.9,4.6h4.8v1.2h-7.3l5.3-6.3c0.4-0.5,0.8-1.2,0.8-1.9
			c0-1.3-1-2.2-2.3-2.2c-1.4,0-2.3,1-2.3,2.3h-1.3C115.2,372,116.7,370.5,118.7,370.5z"/>
		<polygon points="114.1,65.1 106.6,76.6 105.6,76 112,66.3 105.8,66.3 105.8,65.1 		"/>
		<polygon points="114.1,370.7 106.6,382.2 105.6,381.6 112,371.9 105.8,371.9 105.8,370.7 		"/>
		<path d="M100.1,75.4c1.3,0,2.2-1,2.2-2.3c0-1.4-1-2.2-2.4-2.1v-1.2c1.2,0,2.2-0.4,2.2-1.8c0-1.2-0.8-2-2-2c-1.1,0-1.8,0.8-1.9,1.8
			H97c0.2-1.8,1.3-3,3.1-3c1.8,0,3.2,1.2,3.2,3.1c0,1-0.5,2-1.5,2.5c1.1,0.5,1.6,1.6,1.6,2.8c0,2-1.6,3.4-3.5,3.4
			c-1.8,0-3.3-1.3-3.4-3.1h1.2C97.9,74.6,98.9,75.4,100.1,75.4z"/>
		<path d="M100.1,381c1.3,0,2.2-1,2.2-2.3c0-1.4-1-2.2-2.4-2.1v-1.2c1.2-0.1,2.2-0.4,2.2-1.8c0-1.2-0.8-2-2-2
			c-1.1,0-1.8,0.8-1.9,1.8H97c0.2-1.8,1.3-3,3.1-3c1.8,0,3.2,1.2,3.2,3.1c0,1-0.5,2-1.5,2.5c1.1,0.5,1.6,1.6,1.6,2.8
			c0,2-1.6,3.4-3.5,3.4c-1.8,0-3.3-1.2-3.4-3.1h1.2C97.9,380.2,98.9,381,100.1,381z"/>
		<path d="M90.7,68.6c2.2,0,3.8,1.8,3.8,3.9c0,2.3-1.8,4-4.2,4c-1.5,0-2.7-0.8-3.5-2l1-0.7c0.5,0.9,1.4,1.6,2.5,1.6
			c1.7,0,2.9-1.3,2.9-2.9c0-1.6-1.2-2.8-2.8-2.8c-0.8,0-1.5,0.3-2.1,0.7l1.6-5.4h4.5v1.2h-3.6l-0.7,2.4L90.7,68.6z"/>
		<path d="M90.7,374.2c2.2,0,3.8,1.8,3.8,3.9c0,2.3-1.8,4-4.2,4c-1.5,0-2.7-0.8-3.5-2l1-0.7c0.5,0.9,1.4,1.6,2.5,1.6
			c1.7,0,2.9-1.2,2.9-2.9c0-1.6-1.2-2.7-2.8-2.7c-0.8,0-1.5,0.3-2.1,0.7l1.6-5.4h4.5v1.2h-3.6l-0.7,2.4L90.7,374.2z"/>
	</g>
	<g>
		<path class="st1" d="M6.7,431.2v-0.1c0,2.8,2.3,5.1,5.1,5.1h0.6c0-2.7,2.2-4.9,4.9-4.9c2.7,0,4.9,2.2,4.9,4.9h6.5
			c0-2.7,2.2-4.9,4.9-4.9s4.9,2.2,4.9,4.9H45c0-2.7,2.2-4.9,4.9-4.9c2.7,0,4.9,2.2,4.9,4.9h6.5c0-2.7,2.2-4.9,4.9-4.9
			c2.7,0,4.9,2.2,4.9,4.9h6.5c0-2.7,2.2-4.9,4.9-4.9s4.9,2.2,4.9,4.9H91c0-20.3,16.4-36.7,36.7-36.7s36.7,16.4,36.7,36.7h3.1
			c0-2.7,2.2-4.9,4.9-4.9c2.7,0,4.9,2.2,4.9,4.9h6.5c0-2.7,2.2-4.9,4.9-4.9c2.7,0,4.9,2.2,4.9,4.9h6.5c0-2.7,2.2-4.9,4.9-4.9
			c2.7,0,4.9,2.2,4.9,4.9h6.5c0-2.7,2.2-4.9,4.9-4.9c2.7,0,4.9,2.2,4.9,4.9h6.5c0-2.7,2.2-4.9,4.9-4.9c2.7,0,4.9,2.2,4.9,4.9h1.2
			c2.8,0,5.1-2.3,5.1-5.1"/>
		<path class="st1" d="M248.7,431.2v-0.1V16.8c0-2.8-2.3-5.1-5.1-5.1h-0.6c0,2.7-2.2,4.9-4.9,4.9s-4.9-2.2-4.9-4.9h-6.5
			c0,2.7-2.2,4.9-4.9,4.9c-2.7,0-4.9-2.2-4.9-4.9h-6.5c0,2.7-2.2,4.9-4.9,4.9c-2.7,0-4.9-2.2-4.9-4.9h-6.5c0,2.7-2.2,4.9-4.9,4.9
			s-4.9-2.2-4.9-4.9h-6.5c0,2.7-2.2,4.9-4.9,4.9c-2.7,0-4.9-2.2-4.9-4.9h-3.7c0,20.3-16.4,36.7-36.7,36.7S91,31.9,91,11.7h-3.1
			c0,2.7-2.2,4.9-4.9,4.9c-2.7,0-4.9-2.2-4.9-4.9h-6.5c0,2.7-2.2,4.9-4.9,4.9c-2.7,0-4.9-2.2-4.9-4.9h-6.5c0,2.7-2.2,4.9-4.9,4.9
			c-2.7,0-4.9-2.2-4.9-4.9H39c0,2.7-2.2,4.9-4.9,4.9s-4.9-2.2-4.9-4.9h-6.5c0,2.7-2.2,4.9-4.9,4.9c-2.7,0-4.9-2.2-4.9-4.9h-1.2
			c-2.8,0-5.1,2.3-5.1,5.1v414.3"/>
		<path class="st2" d="M236.3,365.5v10.8c0,6.6-5.4,12-12,12H31c-6.6,0-12-5.4-12-12v-10.8V82.3V71.5c0-6.6,5.4-12,12-12h193.3
			c6.6,0,12,5.4,12,12v10.8V365.5z"/>
		<line class="st2" x1="19" y1="82.3" x2="236.3" y2="82.3"/>
		<polyline class="st2" points="236.3,365.5 19,365.5 19,365.5 		"/>
	</g>
</g>
</svg>
