<?xml version="1.0" encoding="utf-8"?>
<!-- Generator: Adobe Illustrator 21.0.0, SVG Export Plug-In . SVG Version: 6.00 Build 0)  -->
<svg version="1.1" id="Calque_1" xmlns="http://www.w3.org/2000/svg" xmlns:xlink="http://www.w3.org/1999/xlink" x="0px" y="0px"
	 viewBox="0 0 256 444" style="enable-background:new 0 0 256 444;" xml:space="preserve">
<style type="text/css">
	.st0{fill:none;stroke:#000000;stroke-width:2;stroke-miterlimit:10;}
</style>
<path class="st0" d="M6.7,431.1c0,2.8,2.3,5.1,5.1,5.1h0.6c0-2.7,2.2-4.9,4.9-4.9s4.9,2.2,4.9,4.9h6.5c0-2.7,2.2-4.9,4.9-4.9
	s4.9,2.2,4.9,4.9H45c0-2.7,2.2-4.9,4.9-4.9c2.7,0,4.9,2.2,4.9,4.9h6.5c0-2.7,2.2-4.9,4.9-4.9c2.7,0,4.9,2.2,4.9,4.9h6.5
	c0-2.7,2.2-4.9,4.9-4.9s4.9,2.2,4.9,4.9H91c0-20.3,16.4-36.7,36.7-36.7s36.7,16.4,36.7,36.7h3.1c0-2.7,2.2-4.9,4.9-4.9
	c2.7,0,4.9,2.2,4.9,4.9h6.5c0-2.7,2.2-4.9,4.9-4.9c2.7,0,4.9,2.2,4.9,4.9h6.5c0-2.7,2.2-4.9,4.9-4.9s4.9,2.2,4.9,4.9h6.5
	c0-2.7,2.2-4.9,4.9-4.9c2.7,0,4.9,2.2,4.9,4.9h6.5c0-2.7,2.2-4.9,4.9-4.9c2.7,0,4.9,2.2,4.9,4.9h1.2c2.8,0,5.1-2.3,5.1-5.1v0.1V16.8
	c0-2.8-2.3-5.1-5.1-5.1h-0.6c0,2.7-2.2,4.9-4.9,4.9s-4.9-2.2-4.9-4.9h-6.5c0,2.7-2.2,4.9-4.9,4.9c-2.7,0-4.9-2.2-4.9-4.9h-6.5
	c0,2.7-2.2,4.9-4.9,4.9c-2.7,0-4.9-2.2-4.9-4.9h-6.5c0,2.7-2.2,4.9-4.9,4.9s-4.9-2.2-4.9-4.9h-6.5c0,2.7-2.2,4.9-4.9,4.9
	c-2.7,0-4.9-2.2-4.9-4.9h-3.7c0,20.3-16.4,36.7-36.7,36.7S91,31.9,91,11.7h-3.1c0,2.7-2.2,4.9-4.9,4.9s-4.9-2.2-4.9-4.9h-6.5
	c0,2.7-2.2,4.9-4.9,4.9c-2.7,0-4.9-2.2-4.9-4.9h-6.5c0,2.7-2.2,4.9-4.9,4.9c-2.7,0-4.9-2.2-4.9-4.9H39c0,2.7-2.2,4.9-4.9,4.9
	s-4.9-2.2-4.9-4.9h-6.5c0,2.7-2.2,4.9-4.9,4.9S13,14.4,13,11.7h-1.2c-2.8,0-5.1,2.3-5.1,5.1v414.4V431.1z"/>
<path class="st0" d="M224.3,388.3H31c-6.6,0-12-5.4-12-12V71.5c0-6.6,5.4-12,12-12h193.3c6.6,0,12,5.4,12,12v304.8
	C236.3,382.9,230.9,388.3,224.3,388.3z"/>
<line class="st0" x1="19" y1="82.3" x2="236.3" y2="82.3"/>
<line class="st0" x1="236.3" y1="365.6" x2="19" y2="365.6"/>
<g>
	<path d="M90.8,66.3l-0.7,2.4l0.7-0.1c2.2,0,3.8,1.8,3.8,3.9c0,2.3-1.8,4-4.2,4c-1.5,0-2.7-0.8-3.5-2l1-0.7c0.5,0.9,1.4,1.6,2.5,1.6
		c1.7,0,2.9-1.2,2.9-2.9c0-1.6-1.2-2.7-2.8-2.7c-0.8,0-1.5,0.3-2.1,0.7l1.6-5.4h4.5v1.2H90.8z"/>
	<path d="M99.9,69.9c1.2,0,2.2-0.4,2.2-1.8c0-1.2-0.8-2-2-2c-1.1,0-1.8,0.8-1.9,1.8H97c0.2-1.8,1.3-3,3.1-3c1.8,0,3.2,1.2,3.2,3.1
		c0,1-0.5,2-1.5,2.5c1.1,0.5,1.6,1.6,1.6,2.8c0,2-1.6,3.4-3.5,3.4c-1.8,0-3.3-1.2-3.4-3.1h1.2c0.1,1.2,1,2,2.2,2
		c1.3,0,2.2-1,2.2-2.3c0-1.4-1-2.2-2.4-2.1V69.9z"/>
	<path d="M105.8,66.3v-1.2h8.3l-7.6,11.5l-1-0.6l6.4-9.7H105.8z"/>
	<path d="M122.2,75.2v1.2h-7.3l5.3-6.3c0.5-0.5,0.8-1.2,0.8-1.9c0-1.3-1-2.2-2.3-2.2c-1.4,0-2.3,1-2.3,2.3h-1.3c0-2,1.5-3.5,3.5-3.5
		c1.9,0,3.6,1.4,3.6,3.3c0,0.9-0.3,1.7-0.9,2.4l-3.9,4.6H122.2z"/>
	<path d="M125.9,66.3l0.7-1.2h2.5v11.3h-1.3V66.3H125.9z"/>
	<path d="M135.5,76l2.6-3.6l0,0c-0.3,0.1-0.6,0.1-1,0.1c-2.1,0-3.7-1.7-3.7-3.7c0-2.1,1.8-3.9,3.9-3.9s3.9,1.7,3.9,3.9
		c0,1-0.5,1.9-1,2.7l-3.8,5.1L135.5,76z M134.7,68.7c0,1.5,1.2,2.6,2.6,2.6c1.5,0,2.6-1.1,2.6-2.6c0-1.5-1.2-2.6-2.6-2.6
		C135.9,66.1,134.7,67.3,134.7,68.7z"/>
	<path d="M149.8,68.1c0,1-0.5,2-1.4,2.5c1.1,0.5,1.7,1.6,1.7,2.7c0,2-1.5,3.4-3.5,3.4s-3.5-1.4-3.5-3.4c0-1.2,0.6-2.2,1.7-2.7
		c-0.9-0.5-1.4-1.5-1.4-2.5c0-1.8,1.4-3.1,3.2-3.1S149.8,66.2,149.8,68.1z M144.4,73.3c0,1.2,1,2.2,2.2,2.2c1.2,0,2.2-1,2.2-2.2
		c0-1.2-1-2.2-2.2-2.2C145.4,71.1,144.4,72.1,144.4,73.3z M144.6,68c0,1.1,0.9,2,2,2s2-0.9,2-2c0-1.1-0.9-1.9-2-1.9
		S144.6,66.9,144.6,68z"/>
	<path d="M159.8,73.4v1.2h-1.4v1.8h-1.3v-1.8h-5.8l7-10.1h0v8.9H159.8z M157.1,68.3L157.1,68.3l-3.6,5.1h3.6V68.3z"/>
	<path d="M168.4,75.2v1.2h-7.3l5.3-6.3c0.5-0.5,0.8-1.2,0.8-1.9c0-1.3-1-2.2-2.3-2.2c-1.4,0-2.3,1-2.3,2.3h-1.3c0-2,1.5-3.5,3.5-3.5
		c1.9,0,3.6,1.4,3.6,3.3c0,0.9-0.3,1.7-0.9,2.4l-3.9,4.6H168.4z"/>
</g>
<g>
	<path d="M90.8,371.9l-0.7,2.4l0.7-0.1c2.2,0,3.8,1.8,3.8,3.9c0,2.3-1.8,4-4.2,4c-1.5,0-2.7-0.8-3.5-2l1-0.7
		c0.5,0.9,1.4,1.6,2.5,1.6c1.7,0,2.9-1.2,2.9-2.9c0-1.6-1.2-2.7-2.8-2.7c-0.8,0-1.5,0.3-2.1,0.7l1.6-5.4h4.5v1.2H90.8z"/>
	<path d="M99.9,375.5c1.2,0,2.2-0.4,2.2-1.8c0-1.2-0.8-2-2-2c-1.1,0-1.8,0.8-1.9,1.8H97c0.2-1.8,1.3-3,3.1-3c1.8,0,3.2,1.2,3.2,3.1
		c0,1-0.5,2-1.5,2.5c1.1,0.5,1.6,1.6,1.6,2.8c0,2-1.6,3.4-3.5,3.4c-1.8,0-3.3-1.2-3.4-3.1h1.2c0.1,1.2,1,2,2.2,2
		c1.3,0,2.2-1,2.2-2.3c0-1.4-1-2.2-2.4-2.1V375.5z"/>
	<path d="M105.8,371.9v-1.2h8.3l-7.6,11.5l-1-0.6l6.4-9.7H105.8z"/>
	<path d="M122.2,380.8v1.2h-7.3l5.3-6.3c0.5-0.5,0.8-1.2,0.8-1.9c0-1.3-1-2.2-2.3-2.2c-1.4,0-2.3,1-2.3,2.3h-1.3
		c0-2,1.5-3.5,3.5-3.5c1.9,0,3.6,1.4,3.6,3.3c0,0.9-0.3,1.7-0.9,2.4l-3.9,4.6H122.2z"/>
	<path d="M125.9,371.9l0.7-1.2h2.5V382h-1.3v-10.1H125.9z"/>
	<path d="M135.5,381.5l2.6-3.6l0,0c-0.3,0.1-0.6,0.1-1,0.1c-2.1,0-3.7-1.7-3.7-3.7c0-2.1,1.8-3.9,3.9-3.9s3.9,1.7,3.9,3.9
		c0,1-0.5,1.9-1,2.7l-3.8,5.1L135.5,381.5z M134.7,374.3c0,1.5,1.2,2.6,2.6,2.6c1.5,0,2.6-1.1,2.6-2.6c0-1.5-1.2-2.6-2.6-2.6
		C135.9,371.7,134.7,372.9,134.7,374.3z"/>
	<path d="M149.8,373.6c0,1-0.5,2-1.4,2.5c1.1,0.5,1.7,1.6,1.7,2.7c0,2-1.5,3.4-3.5,3.4s-3.5-1.4-3.5-3.4c0-1.2,0.6-2.2,1.7-2.7
		c-0.9-0.5-1.4-1.5-1.4-2.5c0-1.8,1.4-3.1,3.2-3.1S149.8,371.8,149.8,373.6z M144.4,378.9c0,1.2,1,2.2,2.2,2.2c1.2,0,2.2-1,2.2-2.2
		c0-1.2-1-2.2-2.2-2.2C145.4,376.7,144.4,377.7,144.4,378.9z M144.6,373.6c0,1.1,0.9,2,2,2s2-0.9,2-2c0-1.1-0.9-1.9-2-1.9
		S144.6,372.5,144.6,373.6z"/>
	<path d="M159.8,379v1.2h-1.4v1.8h-1.3v-1.8h-5.8l7-10.1h0v8.9H159.8z M157.1,373.9L157.1,373.9l-3.6,5.1h3.6V373.9z"/>
	<path d="M168.4,380.8v1.2h-7.3l5.3-6.3c0.5-0.5,0.8-1.2,0.8-1.9c0-1.3-1-2.2-2.3-2.2c-1.4,0-2.3,1-2.3,2.3h-1.3
		c0-2,1.5-3.5,3.5-3.5c1.9,0,3.6,1.4,3.6,3.3c0,0.9-0.3,1.7-0.9,2.4l-3.9,4.6H168.4z"/>
</g>
</svg>
